%TF.GenerationSoftware,KiCad,Pcbnew,9.0.1*%
%TF.CreationDate,2025-06-11T23:13:23+02:00*%
%TF.ProjectId,PUTM_EV_CART_INDICATOR,5055544d-5f45-4565-9f43-4152545f494e,rev?*%
%TF.SameCoordinates,Original*%
%TF.FileFunction,Copper,L2,Bot*%
%TF.FilePolarity,Positive*%
%FSLAX46Y46*%
G04 Gerber Fmt 4.6, Leading zero omitted, Abs format (unit mm)*
G04 Created by KiCad (PCBNEW 9.0.1) date 2025-06-11 23:13:23*
%MOMM*%
%LPD*%
G01*
G04 APERTURE LIST*
%TA.AperFunction,ComponentPad*%
%ADD10C,1.200000*%
%TD*%
%TA.AperFunction,ComponentPad*%
%ADD11C,1.950000*%
%TD*%
%TA.AperFunction,ViaPad*%
%ADD12C,0.600000*%
%TD*%
%TA.AperFunction,Conductor*%
%ADD13C,0.400000*%
%TD*%
G04 APERTURE END LIST*
D10*
%TO.P,K3,1,COIL_1*%
%TO.N,+24V*%
X99357500Y-73700000D03*
%TO.P,K3,2,NC_1*%
%TO.N,unconnected-(K3-NC_1-Pad2)*%
X99357500Y-76900000D03*
%TO.P,K3,3,COM_1*%
%TO.N,+24V*%
X99357500Y-79100000D03*
%TO.P,K3,4,NO_1*%
%TO.N,Net-(K3-NO_1)*%
X99357500Y-81300000D03*
%TO.P,K3,5,NO_2*%
%TO.N,/TSAL_COLUMN*%
X104437500Y-81300000D03*
%TO.P,K3,6,COM_2*%
%TO.N,+24V*%
X104437500Y-79100000D03*
%TO.P,K3,7,NC_2*%
%TO.N,unconnected-(K3-NC_2-Pad7)*%
X104437500Y-76900000D03*
%TO.P,K3,8,COIL_2*%
%TO.N,Net-(D2-A)*%
X104437500Y-73700000D03*
%TD*%
%TO.P,K4,1,COIL_1*%
%TO.N,+24V*%
X114517500Y-81300000D03*
%TO.P,K4,2,NC_1*%
%TO.N,/IMD_COLUMN*%
X114517500Y-78100000D03*
%TO.P,K4,3,COM_1*%
%TO.N,+24V*%
X114517500Y-75900000D03*
%TO.P,K4,4,NO_1*%
%TO.N,unconnected-(K4-NO_1-Pad4)*%
X114517500Y-73700000D03*
%TO.P,K4,5,NO_2*%
%TO.N,unconnected-(K4-NO_2-Pad5)*%
X109437500Y-73700000D03*
%TO.P,K4,6,COM_2*%
%TO.N,+24V*%
X109437500Y-75900000D03*
%TO.P,K4,7,NC_2*%
%TO.N,Net-(K4-NC_2)*%
X109437500Y-78100000D03*
%TO.P,K4,8,COIL_2*%
%TO.N,Net-(D1-A)*%
X109437500Y-81300000D03*
%TD*%
D11*
%TO.P,J1,1,Pin_1*%
%TO.N,/TSAL_COLUMN*%
X86000000Y-65280000D03*
%TO.P,J1,2,Pin_2*%
%TO.N,/TSAL_LED*%
X91000000Y-65280000D03*
%TO.P,J1,3,Pin_3*%
%TO.N,/TSAL_GREEN*%
X96000000Y-65280000D03*
%TO.P,J1,4,Pin_4*%
%TO.N,+24V*%
X101000000Y-65280000D03*
%TO.P,J1,5,Pin_5*%
%TO.N,GND*%
X106000000Y-65280000D03*
%TO.P,J1,6,Pin_6*%
%TO.N,/IMD*%
X111000000Y-65280000D03*
%TO.P,J1,7,Pin_7*%
%TO.N,/IMD_LED*%
X116000000Y-65280000D03*
%TO.P,J1,8,Pin_8*%
%TO.N,/IMD_COLUMN*%
X121000000Y-65280000D03*
%TD*%
D12*
%TO.N,GND*%
X119000000Y-82500000D03*
X121200000Y-74000000D03*
X102500000Y-71000000D03*
X123500000Y-82000000D03*
X102000000Y-77000000D03*
X89500000Y-78500000D03*
X96000000Y-81000000D03*
X105500000Y-75000000D03*
%TO.N,Net-(D1-A)*%
X117218750Y-74718750D03*
%TD*%
D13*
%TO.N,/IMD_COLUMN*%
X114100000Y-78100000D02*
X114517500Y-78100000D01*
X113500000Y-70500000D02*
X112500000Y-71500000D01*
X115780000Y-70500000D02*
X113500000Y-70500000D01*
X121000000Y-65280000D02*
X115780000Y-70500000D01*
X112500000Y-71500000D02*
X112500000Y-76500000D01*
X112500000Y-76500000D02*
X114100000Y-78100000D01*
%TO.N,Net-(D1-A)*%
X115937500Y-76000000D02*
X115937500Y-78500000D01*
X117218750Y-74718750D02*
X115937500Y-76000000D01*
X114437500Y-80000000D02*
X110737500Y-80000000D01*
X110737500Y-80000000D02*
X109437500Y-81300000D01*
X115937500Y-78500000D02*
X114437500Y-80000000D01*
%TD*%
%TA.AperFunction,Conductor*%
%TO.N,GND*%
G36*
X124004126Y-59500965D02*
G01*
X124014292Y-59502110D01*
X124102873Y-59512091D01*
X124119013Y-59515775D01*
X124208852Y-59547211D01*
X124223781Y-59554400D01*
X124304372Y-59605038D01*
X124317328Y-59615370D01*
X124384629Y-59682671D01*
X124394961Y-59695627D01*
X124445599Y-59776218D01*
X124452788Y-59791147D01*
X124484222Y-59880980D01*
X124487909Y-59897131D01*
X124499035Y-59995873D01*
X124499500Y-60004159D01*
X124499500Y-82995840D01*
X124499035Y-83004126D01*
X124487909Y-83102868D01*
X124484221Y-83119023D01*
X124452788Y-83208852D01*
X124445599Y-83223781D01*
X124394961Y-83304372D01*
X124384629Y-83317328D01*
X124317328Y-83384629D01*
X124304372Y-83394961D01*
X124223781Y-83445599D01*
X124208852Y-83452788D01*
X124135258Y-83478539D01*
X124119021Y-83484221D01*
X124102868Y-83487909D01*
X124004127Y-83499035D01*
X123995841Y-83499500D01*
X83004159Y-83499500D01*
X82995873Y-83499035D01*
X82897131Y-83487909D01*
X82880980Y-83484222D01*
X82833867Y-83467736D01*
X82791147Y-83452788D01*
X82776218Y-83445599D01*
X82695627Y-83394961D01*
X82682671Y-83384629D01*
X82615370Y-83317328D01*
X82605038Y-83304372D01*
X82554400Y-83223781D01*
X82547211Y-83208852D01*
X82515775Y-83119013D01*
X82512091Y-83102873D01*
X82500965Y-83004125D01*
X82500500Y-82995840D01*
X82500500Y-80893711D01*
X83649500Y-80893711D01*
X83649500Y-81106288D01*
X83682753Y-81316240D01*
X83682756Y-81316253D01*
X83748440Y-81518406D01*
X83844948Y-81707816D01*
X83919399Y-81810288D01*
X83969896Y-81879792D01*
X84120208Y-82030104D01*
X84174756Y-82069735D01*
X84292183Y-82155051D01*
X84383474Y-82201565D01*
X84481588Y-82251557D01*
X84481590Y-82251557D01*
X84481593Y-82251559D01*
X84683746Y-82317243D01*
X84683752Y-82317244D01*
X84683757Y-82317246D01*
X84788735Y-82333873D01*
X84893711Y-82350500D01*
X84893713Y-82350500D01*
X85106289Y-82350500D01*
X85190269Y-82337198D01*
X85316243Y-82317246D01*
X85316250Y-82317243D01*
X85316253Y-82317243D01*
X85518406Y-82251559D01*
X85518406Y-82251558D01*
X85518412Y-82251557D01*
X85707816Y-82155051D01*
X85879792Y-82030104D01*
X86030104Y-81879792D01*
X86155051Y-81707816D01*
X86251557Y-81518412D01*
X86317246Y-81316243D01*
X86332306Y-81221159D01*
X98557000Y-81221159D01*
X98557000Y-81378840D01*
X98587761Y-81533491D01*
X98587764Y-81533501D01*
X98648103Y-81679174D01*
X98648105Y-81679177D01*
X98648106Y-81679179D01*
X98735711Y-81810289D01*
X98847211Y-81921789D01*
X98978321Y-82009394D01*
X98978326Y-82009396D01*
X98978325Y-82009396D01*
X99123998Y-82069735D01*
X99124003Y-82069737D01*
X99278658Y-82100500D01*
X99278660Y-82100500D01*
X99436340Y-82100500D01*
X99436342Y-82100500D01*
X99590997Y-82069737D01*
X99736679Y-82009394D01*
X99867789Y-81921789D01*
X99979289Y-81810289D01*
X100066894Y-81679179D01*
X100127237Y-81533497D01*
X100158000Y-81378842D01*
X100158000Y-81221159D01*
X103637000Y-81221159D01*
X103637000Y-81378840D01*
X103667761Y-81533491D01*
X103667764Y-81533501D01*
X103728103Y-81679174D01*
X103728105Y-81679177D01*
X103728106Y-81679179D01*
X103815711Y-81810289D01*
X103927211Y-81921789D01*
X104058321Y-82009394D01*
X104058326Y-82009396D01*
X104058325Y-82009396D01*
X104203998Y-82069735D01*
X104204003Y-82069737D01*
X104358658Y-82100500D01*
X104358660Y-82100500D01*
X104516340Y-82100500D01*
X104516342Y-82100500D01*
X104670997Y-82069737D01*
X104816679Y-82009394D01*
X104947789Y-81921789D01*
X105059289Y-81810289D01*
X105146894Y-81679179D01*
X105207237Y-81533497D01*
X105238000Y-81378842D01*
X105238000Y-81221159D01*
X108637000Y-81221159D01*
X108637000Y-81378840D01*
X108667761Y-81533491D01*
X108667764Y-81533501D01*
X108728103Y-81679174D01*
X108728105Y-81679177D01*
X108728106Y-81679179D01*
X108815711Y-81810289D01*
X108927211Y-81921789D01*
X109058321Y-82009394D01*
X109058326Y-82009396D01*
X109058325Y-82009396D01*
X109203998Y-82069735D01*
X109204003Y-82069737D01*
X109358658Y-82100500D01*
X109358660Y-82100500D01*
X109516340Y-82100500D01*
X109516342Y-82100500D01*
X109670997Y-82069737D01*
X109816679Y-82009394D01*
X109947789Y-81921789D01*
X110059289Y-81810289D01*
X110146894Y-81679179D01*
X110207237Y-81533497D01*
X110238000Y-81378842D01*
X110238000Y-81221158D01*
X110219955Y-81130443D01*
X110231004Y-81074897D01*
X110240202Y-81063688D01*
X110881718Y-80422174D01*
X110934044Y-80400500D01*
X114225256Y-80400500D01*
X114277582Y-80422174D01*
X114299256Y-80474500D01*
X114277582Y-80526826D01*
X114253574Y-80542867D01*
X114138325Y-80590603D01*
X114007211Y-80678210D01*
X114007210Y-80678212D01*
X113895712Y-80789710D01*
X113895710Y-80789711D01*
X113808103Y-80920825D01*
X113747764Y-81066498D01*
X113747761Y-81066508D01*
X113717000Y-81221159D01*
X113717000Y-81378840D01*
X113747761Y-81533491D01*
X113747764Y-81533501D01*
X113808103Y-81679174D01*
X113808105Y-81679177D01*
X113808106Y-81679179D01*
X113895711Y-81810289D01*
X114007211Y-81921789D01*
X114138321Y-82009394D01*
X114138326Y-82009396D01*
X114138325Y-82009396D01*
X114283998Y-82069735D01*
X114284003Y-82069737D01*
X114438658Y-82100500D01*
X114438660Y-82100500D01*
X114596340Y-82100500D01*
X114596342Y-82100500D01*
X114750997Y-82069737D01*
X114896679Y-82009394D01*
X115027789Y-81921789D01*
X115139289Y-81810289D01*
X115226894Y-81679179D01*
X115287237Y-81533497D01*
X115318000Y-81378842D01*
X115318000Y-81221158D01*
X115287237Y-81066503D01*
X115226894Y-80920821D01*
X115139289Y-80789711D01*
X115027789Y-80678211D01*
X114896679Y-80590606D01*
X114896675Y-80590604D01*
X114896673Y-80590603D01*
X114896674Y-80590603D01*
X114751001Y-80530264D01*
X114750991Y-80530261D01*
X114623319Y-80504866D01*
X114576227Y-80473400D01*
X114565178Y-80417851D01*
X114596644Y-80370759D01*
X114600745Y-80368208D01*
X114683413Y-80320480D01*
X116257980Y-78745913D01*
X116310706Y-78654588D01*
X116310707Y-78654587D01*
X116338000Y-78552727D01*
X116338000Y-76196544D01*
X116359673Y-76144219D01*
X117270623Y-75233268D01*
X117303793Y-75214117D01*
X117411936Y-75185142D01*
X117526064Y-75119250D01*
X117619250Y-75026064D01*
X117685142Y-74911936D01*
X117719249Y-74784644D01*
X117719250Y-74784644D01*
X117719250Y-74652856D01*
X117719249Y-74652855D01*
X117685143Y-74525568D01*
X117685142Y-74525564D01*
X117619250Y-74411436D01*
X117526064Y-74318250D01*
X117522583Y-74316240D01*
X117411940Y-74252360D01*
X117411931Y-74252356D01*
X117284644Y-74218250D01*
X117284642Y-74218250D01*
X117152858Y-74218250D01*
X117152856Y-74218250D01*
X117025568Y-74252356D01*
X117025559Y-74252360D01*
X116911435Y-74318250D01*
X116818250Y-74411435D01*
X116752359Y-74525561D01*
X116752358Y-74525563D01*
X116752358Y-74525564D01*
X116723381Y-74633706D01*
X116704230Y-74666876D01*
X115617017Y-75754090D01*
X115564292Y-75845412D01*
X115564293Y-75845413D01*
X115537000Y-75947273D01*
X115537000Y-78303455D01*
X115515326Y-78355781D01*
X115373257Y-78497849D01*
X115320931Y-78519523D01*
X115268605Y-78497849D01*
X115246931Y-78445523D01*
X115252563Y-78417207D01*
X115287237Y-78333497D01*
X115318000Y-78178842D01*
X115318000Y-78021158D01*
X115287237Y-77866503D01*
X115226894Y-77720821D01*
X115139289Y-77589711D01*
X115027789Y-77478211D01*
X114896679Y-77390606D01*
X114896675Y-77390604D01*
X114896673Y-77390603D01*
X114896674Y-77390603D01*
X114751001Y-77330264D01*
X114750991Y-77330261D01*
X114647425Y-77309661D01*
X114596342Y-77299500D01*
X114438658Y-77299500D01*
X114394815Y-77308220D01*
X114284008Y-77330261D01*
X114283998Y-77330264D01*
X114138318Y-77390606D01*
X114080119Y-77429493D01*
X114024570Y-77440542D01*
X113986682Y-77420290D01*
X112922174Y-76355781D01*
X112900500Y-76303455D01*
X112900500Y-75821159D01*
X113717000Y-75821159D01*
X113717000Y-75978840D01*
X113747761Y-76133491D01*
X113747764Y-76133501D01*
X113808103Y-76279174D01*
X113881960Y-76389710D01*
X113895711Y-76410289D01*
X114007211Y-76521789D01*
X114138321Y-76609394D01*
X114138326Y-76609396D01*
X114138325Y-76609396D01*
X114247439Y-76654592D01*
X114284003Y-76669737D01*
X114438658Y-76700500D01*
X114438660Y-76700500D01*
X114596340Y-76700500D01*
X114596342Y-76700500D01*
X114750997Y-76669737D01*
X114896679Y-76609394D01*
X115027789Y-76521789D01*
X115139289Y-76410289D01*
X115226894Y-76279179D01*
X115287237Y-76133497D01*
X115318000Y-75978842D01*
X115318000Y-75821158D01*
X115287237Y-75666503D01*
X115226894Y-75520821D01*
X115139289Y-75389711D01*
X115027789Y-75278211D01*
X114896679Y-75190606D01*
X114896675Y-75190604D01*
X114896673Y-75190603D01*
X114896674Y-75190603D01*
X114751001Y-75130264D01*
X114750991Y-75130261D01*
X114647425Y-75109661D01*
X114596342Y-75099500D01*
X114438658Y-75099500D01*
X114394815Y-75108220D01*
X114284008Y-75130261D01*
X114283998Y-75130264D01*
X114138325Y-75190603D01*
X114007211Y-75278210D01*
X114007210Y-75278212D01*
X113895712Y-75389710D01*
X113895710Y-75389711D01*
X113808103Y-75520825D01*
X113747764Y-75666498D01*
X113747761Y-75666508D01*
X113717000Y-75821159D01*
X112900500Y-75821159D01*
X112900500Y-73621159D01*
X113717000Y-73621159D01*
X113717000Y-73778840D01*
X113747761Y-73933491D01*
X113747764Y-73933501D01*
X113808103Y-74079174D01*
X113808105Y-74079177D01*
X113808106Y-74079179D01*
X113895711Y-74210289D01*
X114007211Y-74321789D01*
X114138321Y-74409394D01*
X114138326Y-74409396D01*
X114138325Y-74409396D01*
X114283998Y-74469735D01*
X114284003Y-74469737D01*
X114438658Y-74500500D01*
X114438660Y-74500500D01*
X114596340Y-74500500D01*
X114596342Y-74500500D01*
X114750997Y-74469737D01*
X114896679Y-74409394D01*
X115027789Y-74321789D01*
X115139289Y-74210289D01*
X115226894Y-74079179D01*
X115287237Y-73933497D01*
X115318000Y-73778842D01*
X115318000Y-73621158D01*
X115287237Y-73466503D01*
X115226894Y-73320821D01*
X115139289Y-73189711D01*
X115027789Y-73078211D01*
X114896679Y-72990606D01*
X114896675Y-72990604D01*
X114896673Y-72990603D01*
X114896674Y-72990603D01*
X114751001Y-72930264D01*
X114750991Y-72930261D01*
X114647425Y-72909661D01*
X114596342Y-72899500D01*
X114438658Y-72899500D01*
X114394815Y-72908220D01*
X114284008Y-72930261D01*
X114283998Y-72930264D01*
X114138325Y-72990603D01*
X114007211Y-73078210D01*
X114007210Y-73078212D01*
X113895712Y-73189710D01*
X113895710Y-73189711D01*
X113808103Y-73320825D01*
X113747764Y-73466498D01*
X113747761Y-73466508D01*
X113717000Y-73621159D01*
X112900500Y-73621159D01*
X112900500Y-71696544D01*
X112922174Y-71644218D01*
X113644218Y-70922174D01*
X113696544Y-70900500D01*
X115832726Y-70900500D01*
X115832727Y-70900500D01*
X115934588Y-70873207D01*
X116025913Y-70820480D01*
X120463216Y-66383175D01*
X120515541Y-66361502D01*
X120545862Y-66368786D01*
X120546078Y-66368266D01*
X120548770Y-66369381D01*
X120724725Y-66426552D01*
X120724731Y-66426553D01*
X120724736Y-66426555D01*
X120816111Y-66441027D01*
X120907484Y-66455500D01*
X120907486Y-66455500D01*
X121092516Y-66455500D01*
X121165614Y-66443922D01*
X121275264Y-66426555D01*
X121275271Y-66426552D01*
X121275274Y-66426552D01*
X121451232Y-66369380D01*
X121451232Y-66369379D01*
X121451235Y-66369379D01*
X121616096Y-66285378D01*
X121765787Y-66176621D01*
X121896621Y-66045787D01*
X122005378Y-65896096D01*
X122089379Y-65731235D01*
X122146555Y-65555264D01*
X122175500Y-65372514D01*
X122175500Y-65187486D01*
X122146555Y-65004736D01*
X122146553Y-65004731D01*
X122146552Y-65004725D01*
X122089380Y-64828767D01*
X122089378Y-64828763D01*
X122030803Y-64713804D01*
X122005378Y-64663904D01*
X121896621Y-64514213D01*
X121765787Y-64383379D01*
X121765784Y-64383376D01*
X121765782Y-64383375D01*
X121616098Y-64274623D01*
X121616092Y-64274620D01*
X121451236Y-64190621D01*
X121451232Y-64190619D01*
X121275274Y-64133447D01*
X121275261Y-64133444D01*
X121092516Y-64104500D01*
X121092514Y-64104500D01*
X120907486Y-64104500D01*
X120907484Y-64104500D01*
X120724738Y-64133444D01*
X120724725Y-64133447D01*
X120548767Y-64190619D01*
X120548763Y-64190621D01*
X120383907Y-64274620D01*
X120383901Y-64274623D01*
X120234217Y-64383375D01*
X120103375Y-64514217D01*
X119994623Y-64663901D01*
X119994620Y-64663907D01*
X119910621Y-64828763D01*
X119910619Y-64828767D01*
X119853447Y-65004725D01*
X119853444Y-65004738D01*
X119824500Y-65187484D01*
X119824500Y-65372515D01*
X119853444Y-65555261D01*
X119853447Y-65555274D01*
X119910618Y-65731229D01*
X119911734Y-65733922D01*
X119910705Y-65734347D01*
X119914873Y-65787327D01*
X119896822Y-65816783D01*
X115635781Y-70077826D01*
X115583455Y-70099500D01*
X113557273Y-70099500D01*
X113557257Y-70099499D01*
X113552727Y-70099499D01*
X113447273Y-70099499D01*
X113447271Y-70099499D01*
X113345416Y-70126791D01*
X113345411Y-70126793D01*
X113254086Y-70179520D01*
X113179518Y-70254089D01*
X112179517Y-71254090D01*
X112126792Y-71345412D01*
X112126793Y-71345413D01*
X112099500Y-71447273D01*
X112099500Y-76447273D01*
X112099500Y-76552727D01*
X112114684Y-76609394D01*
X112126793Y-76654588D01*
X112126795Y-76654592D01*
X112179517Y-76745909D01*
X112179518Y-76745910D01*
X112179520Y-76745913D01*
X113023318Y-77589710D01*
X113727087Y-78293479D01*
X113746628Y-78330036D01*
X113746706Y-78330013D01*
X113746824Y-78330403D01*
X113747339Y-78331366D01*
X113747762Y-78333494D01*
X113747763Y-78333499D01*
X113808103Y-78479174D01*
X113881960Y-78589710D01*
X113895711Y-78610289D01*
X114007211Y-78721789D01*
X114138321Y-78809394D01*
X114138326Y-78809396D01*
X114138325Y-78809396D01*
X114200294Y-78835064D01*
X114284003Y-78869737D01*
X114438658Y-78900500D01*
X114438660Y-78900500D01*
X114596340Y-78900500D01*
X114596342Y-78900500D01*
X114750997Y-78869737D01*
X114834706Y-78835064D01*
X114891342Y-78835064D01*
X114931390Y-78875112D01*
X114931390Y-78931750D01*
X114915349Y-78955757D01*
X114293281Y-79577826D01*
X114240955Y-79599500D01*
X110794773Y-79599500D01*
X110794757Y-79599499D01*
X110790227Y-79599499D01*
X110684773Y-79599499D01*
X110684771Y-79599499D01*
X110582916Y-79626791D01*
X110582911Y-79626793D01*
X110491586Y-79679520D01*
X110417018Y-79754089D01*
X109673815Y-80497291D01*
X109621489Y-80518965D01*
X109607053Y-80517543D01*
X109516342Y-80499500D01*
X109358658Y-80499500D01*
X109314815Y-80508220D01*
X109204008Y-80530261D01*
X109203998Y-80530264D01*
X109058325Y-80590603D01*
X108927211Y-80678210D01*
X108927210Y-80678212D01*
X108815712Y-80789710D01*
X108815710Y-80789711D01*
X108728103Y-80920825D01*
X108667764Y-81066498D01*
X108667761Y-81066508D01*
X108637000Y-81221159D01*
X105238000Y-81221159D01*
X105238000Y-81221158D01*
X105207237Y-81066503D01*
X105146894Y-80920821D01*
X105059289Y-80789711D01*
X104947789Y-80678211D01*
X104816679Y-80590606D01*
X104816675Y-80590604D01*
X104816673Y-80590603D01*
X104816674Y-80590603D01*
X104671001Y-80530264D01*
X104670991Y-80530261D01*
X104567425Y-80509661D01*
X104516342Y-80499500D01*
X104358658Y-80499500D01*
X104314815Y-80508220D01*
X104204008Y-80530261D01*
X104203998Y-80530264D01*
X104058325Y-80590603D01*
X103927211Y-80678210D01*
X103927210Y-80678212D01*
X103815712Y-80789710D01*
X103815710Y-80789711D01*
X103728103Y-80920825D01*
X103667764Y-81066498D01*
X103667761Y-81066508D01*
X103637000Y-81221159D01*
X100158000Y-81221159D01*
X100158000Y-81221158D01*
X100127237Y-81066503D01*
X100066894Y-80920821D01*
X99979289Y-80789711D01*
X99867789Y-80678211D01*
X99736679Y-80590606D01*
X99736675Y-80590604D01*
X99736673Y-80590603D01*
X99736674Y-80590603D01*
X99591001Y-80530264D01*
X99590991Y-80530261D01*
X99487425Y-80509661D01*
X99436342Y-80499500D01*
X99278658Y-80499500D01*
X99234815Y-80508220D01*
X99124008Y-80530261D01*
X99123998Y-80530264D01*
X98978325Y-80590603D01*
X98847211Y-80678210D01*
X98847210Y-80678212D01*
X98735712Y-80789710D01*
X98735710Y-80789711D01*
X98648103Y-80920825D01*
X98587764Y-81066498D01*
X98587761Y-81066508D01*
X98557000Y-81221159D01*
X86332306Y-81221159D01*
X86350500Y-81106287D01*
X86350500Y-80893713D01*
X86317246Y-80683757D01*
X86317244Y-80683752D01*
X86317243Y-80683746D01*
X86251559Y-80481593D01*
X86251557Y-80481590D01*
X86251557Y-80481588D01*
X86169469Y-80320480D01*
X86155051Y-80292183D01*
X86099451Y-80215656D01*
X86030104Y-80120208D01*
X85879792Y-79969896D01*
X85784276Y-79900500D01*
X85707816Y-79844948D01*
X85518406Y-79748440D01*
X85316253Y-79682756D01*
X85316240Y-79682753D01*
X85106289Y-79649500D01*
X85106287Y-79649500D01*
X84893713Y-79649500D01*
X84893711Y-79649500D01*
X84683759Y-79682753D01*
X84683746Y-79682756D01*
X84481593Y-79748440D01*
X84292183Y-79844948D01*
X84120212Y-79969893D01*
X84120208Y-79969896D01*
X83969896Y-80120208D01*
X83969893Y-80120211D01*
X83969893Y-80120212D01*
X83844948Y-80292183D01*
X83748440Y-80481593D01*
X83682756Y-80683746D01*
X83682753Y-80683759D01*
X83649500Y-80893711D01*
X82500500Y-80893711D01*
X82500500Y-79021159D01*
X98557000Y-79021159D01*
X98557000Y-79178840D01*
X98587761Y-79333491D01*
X98587764Y-79333501D01*
X98648103Y-79479174D01*
X98648105Y-79479177D01*
X98648106Y-79479179D01*
X98735711Y-79610289D01*
X98847211Y-79721789D01*
X98978321Y-79809394D01*
X98978326Y-79809396D01*
X98978325Y-79809396D01*
X99064159Y-79844949D01*
X99124003Y-79869737D01*
X99278658Y-79900500D01*
X99278660Y-79900500D01*
X99436340Y-79900500D01*
X99436342Y-79900500D01*
X99590997Y-79869737D01*
X99736679Y-79809394D01*
X99867789Y-79721789D01*
X99979289Y-79610289D01*
X100066894Y-79479179D01*
X100127237Y-79333497D01*
X100158000Y-79178842D01*
X100158000Y-79021159D01*
X103637000Y-79021159D01*
X103637000Y-79178840D01*
X103667761Y-79333491D01*
X103667764Y-79333501D01*
X103728103Y-79479174D01*
X103728105Y-79479177D01*
X103728106Y-79479179D01*
X103815711Y-79610289D01*
X103927211Y-79721789D01*
X104058321Y-79809394D01*
X104058326Y-79809396D01*
X104058325Y-79809396D01*
X104144159Y-79844949D01*
X104204003Y-79869737D01*
X104358658Y-79900500D01*
X104358660Y-79900500D01*
X104516340Y-79900500D01*
X104516342Y-79900500D01*
X104670997Y-79869737D01*
X104816679Y-79809394D01*
X104947789Y-79721789D01*
X105059289Y-79610289D01*
X105146894Y-79479179D01*
X105207237Y-79333497D01*
X105238000Y-79178842D01*
X105238000Y-79021158D01*
X105207237Y-78866503D01*
X105183582Y-78809394D01*
X105146896Y-78720825D01*
X105146895Y-78720823D01*
X105146894Y-78720821D01*
X105059289Y-78589711D01*
X104947789Y-78478211D01*
X104816679Y-78390606D01*
X104816675Y-78390604D01*
X104816673Y-78390603D01*
X104816674Y-78390603D01*
X104671001Y-78330264D01*
X104670991Y-78330261D01*
X104565871Y-78309352D01*
X104516342Y-78299500D01*
X104358658Y-78299500D01*
X104314815Y-78308220D01*
X104204008Y-78330261D01*
X104203998Y-78330264D01*
X104058325Y-78390603D01*
X103927211Y-78478210D01*
X103927210Y-78478212D01*
X103815712Y-78589710D01*
X103815710Y-78589711D01*
X103728103Y-78720825D01*
X103667764Y-78866498D01*
X103667761Y-78866508D01*
X103637000Y-79021159D01*
X100158000Y-79021159D01*
X100158000Y-79021158D01*
X100127237Y-78866503D01*
X100103582Y-78809394D01*
X100066896Y-78720825D01*
X100066895Y-78720823D01*
X100066894Y-78720821D01*
X99979289Y-78589711D01*
X99867789Y-78478211D01*
X99736679Y-78390606D01*
X99736675Y-78390604D01*
X99736673Y-78390603D01*
X99736674Y-78390603D01*
X99591001Y-78330264D01*
X99590991Y-78330261D01*
X99485871Y-78309352D01*
X99436342Y-78299500D01*
X99278658Y-78299500D01*
X99234815Y-78308220D01*
X99124008Y-78330261D01*
X99123998Y-78330264D01*
X98978325Y-78390603D01*
X98847211Y-78478210D01*
X98847210Y-78478212D01*
X98735712Y-78589710D01*
X98735710Y-78589711D01*
X98648103Y-78720825D01*
X98587764Y-78866498D01*
X98587761Y-78866508D01*
X98557000Y-79021159D01*
X82500500Y-79021159D01*
X82500500Y-78021159D01*
X108637000Y-78021159D01*
X108637000Y-78178840D01*
X108667761Y-78333491D01*
X108667764Y-78333501D01*
X108728103Y-78479174D01*
X108801960Y-78589710D01*
X108815711Y-78610289D01*
X108927211Y-78721789D01*
X109058321Y-78809394D01*
X109058326Y-78809396D01*
X109058325Y-78809396D01*
X109120294Y-78835064D01*
X109204003Y-78869737D01*
X109358658Y-78900500D01*
X109358660Y-78900500D01*
X109516340Y-78900500D01*
X109516342Y-78900500D01*
X109670997Y-78869737D01*
X109816679Y-78809394D01*
X109947789Y-78721789D01*
X110059289Y-78610289D01*
X110146894Y-78479179D01*
X110207237Y-78333497D01*
X110238000Y-78178842D01*
X110238000Y-78021158D01*
X110207237Y-77866503D01*
X110146894Y-77720821D01*
X110059289Y-77589711D01*
X109947789Y-77478211D01*
X109816679Y-77390606D01*
X109816675Y-77390604D01*
X109816673Y-77390603D01*
X109816674Y-77390603D01*
X109671001Y-77330264D01*
X109670991Y-77330261D01*
X109567425Y-77309661D01*
X109516342Y-77299500D01*
X109358658Y-77299500D01*
X109314815Y-77308220D01*
X109204008Y-77330261D01*
X109203998Y-77330264D01*
X109058325Y-77390603D01*
X108927211Y-77478210D01*
X108927210Y-77478212D01*
X108815712Y-77589710D01*
X108815710Y-77589711D01*
X108728103Y-77720825D01*
X108667764Y-77866498D01*
X108667761Y-77866508D01*
X108637000Y-78021159D01*
X82500500Y-78021159D01*
X82500500Y-76821159D01*
X98557000Y-76821159D01*
X98557000Y-76978840D01*
X98587761Y-77133491D01*
X98587764Y-77133501D01*
X98648103Y-77279174D01*
X98648105Y-77279177D01*
X98648106Y-77279179D01*
X98735711Y-77410289D01*
X98847211Y-77521789D01*
X98978321Y-77609394D01*
X98978326Y-77609396D01*
X98978325Y-77609396D01*
X99123998Y-77669735D01*
X99124003Y-77669737D01*
X99278658Y-77700500D01*
X99278660Y-77700500D01*
X99436340Y-77700500D01*
X99436342Y-77700500D01*
X99590997Y-77669737D01*
X99736679Y-77609394D01*
X99867789Y-77521789D01*
X99979289Y-77410289D01*
X100066894Y-77279179D01*
X100127237Y-77133497D01*
X100158000Y-76978842D01*
X100158000Y-76821159D01*
X103637000Y-76821159D01*
X103637000Y-76978840D01*
X103667761Y-77133491D01*
X103667764Y-77133501D01*
X103728103Y-77279174D01*
X103728105Y-77279177D01*
X103728106Y-77279179D01*
X103815711Y-77410289D01*
X103927211Y-77521789D01*
X104058321Y-77609394D01*
X104058326Y-77609396D01*
X104058325Y-77609396D01*
X104203998Y-77669735D01*
X104204003Y-77669737D01*
X104358658Y-77700500D01*
X104358660Y-77700500D01*
X104516340Y-77700500D01*
X104516342Y-77700500D01*
X104670997Y-77669737D01*
X104816679Y-77609394D01*
X104947789Y-77521789D01*
X105059289Y-77410289D01*
X105146894Y-77279179D01*
X105207237Y-77133497D01*
X105238000Y-76978842D01*
X105238000Y-76821158D01*
X105207237Y-76666503D01*
X105146894Y-76520821D01*
X105059289Y-76389711D01*
X104947789Y-76278211D01*
X104816679Y-76190606D01*
X104816675Y-76190604D01*
X104816673Y-76190603D01*
X104816674Y-76190603D01*
X104671001Y-76130264D01*
X104670991Y-76130261D01*
X104567425Y-76109661D01*
X104516342Y-76099500D01*
X104358658Y-76099500D01*
X104314815Y-76108220D01*
X104204008Y-76130261D01*
X104203998Y-76130264D01*
X104058325Y-76190603D01*
X103927211Y-76278210D01*
X103927210Y-76278212D01*
X103815712Y-76389710D01*
X103815710Y-76389711D01*
X103728103Y-76520825D01*
X103667764Y-76666498D01*
X103667761Y-76666508D01*
X103637000Y-76821159D01*
X100158000Y-76821159D01*
X100158000Y-76821158D01*
X100127237Y-76666503D01*
X100066894Y-76520821D01*
X99979289Y-76389711D01*
X99867789Y-76278211D01*
X99736679Y-76190606D01*
X99736675Y-76190604D01*
X99736673Y-76190603D01*
X99736674Y-76190603D01*
X99591001Y-76130264D01*
X99590991Y-76130261D01*
X99487425Y-76109661D01*
X99436342Y-76099500D01*
X99278658Y-76099500D01*
X99234815Y-76108220D01*
X99124008Y-76130261D01*
X99123998Y-76130264D01*
X98978325Y-76190603D01*
X98847211Y-76278210D01*
X98847210Y-76278212D01*
X98735712Y-76389710D01*
X98735710Y-76389711D01*
X98648103Y-76520825D01*
X98587764Y-76666498D01*
X98587761Y-76666508D01*
X98557000Y-76821159D01*
X82500500Y-76821159D01*
X82500500Y-75821159D01*
X108637000Y-75821159D01*
X108637000Y-75978840D01*
X108667761Y-76133491D01*
X108667764Y-76133501D01*
X108728103Y-76279174D01*
X108801960Y-76389710D01*
X108815711Y-76410289D01*
X108927211Y-76521789D01*
X109058321Y-76609394D01*
X109058326Y-76609396D01*
X109058325Y-76609396D01*
X109167439Y-76654592D01*
X109204003Y-76669737D01*
X109358658Y-76700500D01*
X109358660Y-76700500D01*
X109516340Y-76700500D01*
X109516342Y-76700500D01*
X109670997Y-76669737D01*
X109816679Y-76609394D01*
X109947789Y-76521789D01*
X110059289Y-76410289D01*
X110146894Y-76279179D01*
X110207237Y-76133497D01*
X110238000Y-75978842D01*
X110238000Y-75821158D01*
X110207237Y-75666503D01*
X110146894Y-75520821D01*
X110059289Y-75389711D01*
X109947789Y-75278211D01*
X109816679Y-75190606D01*
X109816675Y-75190604D01*
X109816673Y-75190603D01*
X109816674Y-75190603D01*
X109671001Y-75130264D01*
X109670991Y-75130261D01*
X109567425Y-75109661D01*
X109516342Y-75099500D01*
X109358658Y-75099500D01*
X109314815Y-75108220D01*
X109204008Y-75130261D01*
X109203998Y-75130264D01*
X109058325Y-75190603D01*
X108927211Y-75278210D01*
X108927210Y-75278212D01*
X108815712Y-75389710D01*
X108815710Y-75389711D01*
X108728103Y-75520825D01*
X108667764Y-75666498D01*
X108667761Y-75666508D01*
X108637000Y-75821159D01*
X82500500Y-75821159D01*
X82500500Y-73893711D01*
X83649500Y-73893711D01*
X83649500Y-74106288D01*
X83682753Y-74316240D01*
X83682756Y-74316253D01*
X83748440Y-74518406D01*
X83844948Y-74707816D01*
X83900766Y-74784642D01*
X83969896Y-74879792D01*
X84120208Y-75030104D01*
X84215656Y-75099451D01*
X84292183Y-75155051D01*
X84383474Y-75201565D01*
X84481588Y-75251557D01*
X84481590Y-75251557D01*
X84481593Y-75251559D01*
X84683746Y-75317243D01*
X84683752Y-75317244D01*
X84683757Y-75317246D01*
X84788735Y-75333873D01*
X84893711Y-75350500D01*
X84893713Y-75350500D01*
X85106289Y-75350500D01*
X85190269Y-75337198D01*
X85316243Y-75317246D01*
X85316250Y-75317243D01*
X85316253Y-75317243D01*
X85518406Y-75251559D01*
X85518406Y-75251558D01*
X85518412Y-75251557D01*
X85707816Y-75155051D01*
X85879792Y-75030104D01*
X86030104Y-74879792D01*
X86155051Y-74707816D01*
X86251557Y-74518412D01*
X86315444Y-74321789D01*
X86317243Y-74316253D01*
X86317243Y-74316250D01*
X86317246Y-74316243D01*
X86350500Y-74106287D01*
X86350500Y-73893713D01*
X86317246Y-73683757D01*
X86317244Y-73683752D01*
X86317243Y-73683746D01*
X86303156Y-73640390D01*
X86296907Y-73621159D01*
X98557000Y-73621159D01*
X98557000Y-73778840D01*
X98587761Y-73933491D01*
X98587764Y-73933501D01*
X98648103Y-74079174D01*
X98648105Y-74079177D01*
X98648106Y-74079179D01*
X98735711Y-74210289D01*
X98847211Y-74321789D01*
X98978321Y-74409394D01*
X98978326Y-74409396D01*
X98978325Y-74409396D01*
X99123998Y-74469735D01*
X99124003Y-74469737D01*
X99278658Y-74500500D01*
X99278660Y-74500500D01*
X99436340Y-74500500D01*
X99436342Y-74500500D01*
X99590997Y-74469737D01*
X99736679Y-74409394D01*
X99867789Y-74321789D01*
X99979289Y-74210289D01*
X100066894Y-74079179D01*
X100127237Y-73933497D01*
X100158000Y-73778842D01*
X100158000Y-73621159D01*
X103637000Y-73621159D01*
X103637000Y-73778840D01*
X103667761Y-73933491D01*
X103667764Y-73933501D01*
X103728103Y-74079174D01*
X103728105Y-74079177D01*
X103728106Y-74079179D01*
X103815711Y-74210289D01*
X103927211Y-74321789D01*
X104058321Y-74409394D01*
X104058326Y-74409396D01*
X104058325Y-74409396D01*
X104203998Y-74469735D01*
X104204003Y-74469737D01*
X104358658Y-74500500D01*
X104358660Y-74500500D01*
X104516340Y-74500500D01*
X104516342Y-74500500D01*
X104670997Y-74469737D01*
X104816679Y-74409394D01*
X104947789Y-74321789D01*
X105059289Y-74210289D01*
X105146894Y-74079179D01*
X105207237Y-73933497D01*
X105238000Y-73778842D01*
X105238000Y-73621159D01*
X108637000Y-73621159D01*
X108637000Y-73778840D01*
X108667761Y-73933491D01*
X108667764Y-73933501D01*
X108728103Y-74079174D01*
X108728105Y-74079177D01*
X108728106Y-74079179D01*
X108815711Y-74210289D01*
X108927211Y-74321789D01*
X109058321Y-74409394D01*
X109058326Y-74409396D01*
X109058325Y-74409396D01*
X109203998Y-74469735D01*
X109204003Y-74469737D01*
X109358658Y-74500500D01*
X109358660Y-74500500D01*
X109516340Y-74500500D01*
X109516342Y-74500500D01*
X109670997Y-74469737D01*
X109816679Y-74409394D01*
X109947789Y-74321789D01*
X110059289Y-74210289D01*
X110146894Y-74079179D01*
X110207237Y-73933497D01*
X110238000Y-73778842D01*
X110238000Y-73621158D01*
X110207237Y-73466503D01*
X110146894Y-73320821D01*
X110059289Y-73189711D01*
X109947789Y-73078211D01*
X109816679Y-72990606D01*
X109816675Y-72990604D01*
X109816673Y-72990603D01*
X109816674Y-72990603D01*
X109671001Y-72930264D01*
X109670991Y-72930261D01*
X109567425Y-72909661D01*
X109516342Y-72899500D01*
X109358658Y-72899500D01*
X109314815Y-72908220D01*
X109204008Y-72930261D01*
X109203998Y-72930264D01*
X109058325Y-72990603D01*
X108927211Y-73078210D01*
X108927210Y-73078212D01*
X108815712Y-73189710D01*
X108815710Y-73189711D01*
X108728103Y-73320825D01*
X108667764Y-73466498D01*
X108667761Y-73466508D01*
X108637000Y-73621159D01*
X105238000Y-73621159D01*
X105238000Y-73621158D01*
X105207237Y-73466503D01*
X105146894Y-73320821D01*
X105059289Y-73189711D01*
X104947789Y-73078211D01*
X104816679Y-72990606D01*
X104816675Y-72990604D01*
X104816673Y-72990603D01*
X104816674Y-72990603D01*
X104671001Y-72930264D01*
X104670991Y-72930261D01*
X104567425Y-72909661D01*
X104516342Y-72899500D01*
X104358658Y-72899500D01*
X104314815Y-72908220D01*
X104204008Y-72930261D01*
X104203998Y-72930264D01*
X104058325Y-72990603D01*
X103927211Y-73078210D01*
X103927210Y-73078212D01*
X103815712Y-73189710D01*
X103815710Y-73189711D01*
X103728103Y-73320825D01*
X103667764Y-73466498D01*
X103667761Y-73466508D01*
X103637000Y-73621159D01*
X100158000Y-73621159D01*
X100158000Y-73621158D01*
X100127237Y-73466503D01*
X100066894Y-73320821D01*
X99979289Y-73189711D01*
X99867789Y-73078211D01*
X99736679Y-72990606D01*
X99736675Y-72990604D01*
X99736673Y-72990603D01*
X99736674Y-72990603D01*
X99591001Y-72930264D01*
X99590991Y-72930261D01*
X99487425Y-72909661D01*
X99436342Y-72899500D01*
X99278658Y-72899500D01*
X99234815Y-72908220D01*
X99124008Y-72930261D01*
X99123998Y-72930264D01*
X98978325Y-72990603D01*
X98847211Y-73078210D01*
X98847210Y-73078212D01*
X98735712Y-73189710D01*
X98735710Y-73189711D01*
X98648103Y-73320825D01*
X98587764Y-73466498D01*
X98587761Y-73466508D01*
X98557000Y-73621159D01*
X86296907Y-73621159D01*
X86264904Y-73522665D01*
X86251557Y-73481588D01*
X86186824Y-73354542D01*
X86155051Y-73292183D01*
X86099451Y-73215656D01*
X86030104Y-73120208D01*
X85879792Y-72969896D01*
X85782900Y-72899500D01*
X85707816Y-72844948D01*
X85518406Y-72748440D01*
X85316253Y-72682756D01*
X85316240Y-72682753D01*
X85106289Y-72649500D01*
X85106287Y-72649500D01*
X84893713Y-72649500D01*
X84893711Y-72649500D01*
X84683759Y-72682753D01*
X84683746Y-72682756D01*
X84481593Y-72748440D01*
X84292183Y-72844948D01*
X84120212Y-72969893D01*
X84120208Y-72969896D01*
X83969896Y-73120208D01*
X83969893Y-73120211D01*
X83969893Y-73120212D01*
X83844948Y-73292183D01*
X83748440Y-73481593D01*
X83682756Y-73683746D01*
X83682753Y-73683759D01*
X83649500Y-73893711D01*
X82500500Y-73893711D01*
X82500500Y-65187484D01*
X84824500Y-65187484D01*
X84824500Y-65372515D01*
X84853444Y-65555261D01*
X84853447Y-65555274D01*
X84910619Y-65731232D01*
X84910621Y-65731236D01*
X84994620Y-65896092D01*
X84994623Y-65896098D01*
X85103375Y-66045782D01*
X85103379Y-66045787D01*
X85234213Y-66176621D01*
X85383904Y-66285378D01*
X85501233Y-66345160D01*
X85548763Y-66369378D01*
X85548767Y-66369380D01*
X85724725Y-66426552D01*
X85724731Y-66426553D01*
X85724736Y-66426555D01*
X85816111Y-66441027D01*
X85907484Y-66455500D01*
X85907486Y-66455500D01*
X86092516Y-66455500D01*
X86165614Y-66443922D01*
X86275264Y-66426555D01*
X86275271Y-66426552D01*
X86275274Y-66426552D01*
X86451232Y-66369380D01*
X86451232Y-66369379D01*
X86451235Y-66369379D01*
X86616096Y-66285378D01*
X86765787Y-66176621D01*
X86896621Y-66045787D01*
X87005378Y-65896096D01*
X87089379Y-65731235D01*
X87146555Y-65555264D01*
X87175500Y-65372514D01*
X87175500Y-65187486D01*
X87175500Y-65187484D01*
X89824500Y-65187484D01*
X89824500Y-65372515D01*
X89853444Y-65555261D01*
X89853447Y-65555274D01*
X89910619Y-65731232D01*
X89910621Y-65731236D01*
X89994620Y-65896092D01*
X89994623Y-65896098D01*
X90103375Y-66045782D01*
X90103379Y-66045787D01*
X90234213Y-66176621D01*
X90383904Y-66285378D01*
X90501233Y-66345160D01*
X90548763Y-66369378D01*
X90548767Y-66369380D01*
X90724725Y-66426552D01*
X90724731Y-66426553D01*
X90724736Y-66426555D01*
X90816111Y-66441027D01*
X90907484Y-66455500D01*
X90907486Y-66455500D01*
X91092516Y-66455500D01*
X91165614Y-66443922D01*
X91275264Y-66426555D01*
X91275271Y-66426552D01*
X91275274Y-66426552D01*
X91451232Y-66369380D01*
X91451232Y-66369379D01*
X91451235Y-66369379D01*
X91616096Y-66285378D01*
X91765787Y-66176621D01*
X91896621Y-66045787D01*
X92005378Y-65896096D01*
X92089379Y-65731235D01*
X92146555Y-65555264D01*
X92175500Y-65372514D01*
X92175500Y-65187486D01*
X92175500Y-65187484D01*
X94824500Y-65187484D01*
X94824500Y-65372515D01*
X94853444Y-65555261D01*
X94853447Y-65555274D01*
X94910619Y-65731232D01*
X94910621Y-65731236D01*
X94994620Y-65896092D01*
X94994623Y-65896098D01*
X95103375Y-66045782D01*
X95103379Y-66045787D01*
X95234213Y-66176621D01*
X95383904Y-66285378D01*
X95501233Y-66345160D01*
X95548763Y-66369378D01*
X95548767Y-66369380D01*
X95724725Y-66426552D01*
X95724731Y-66426553D01*
X95724736Y-66426555D01*
X95816111Y-66441027D01*
X95907484Y-66455500D01*
X95907486Y-66455500D01*
X96092516Y-66455500D01*
X96165614Y-66443922D01*
X96275264Y-66426555D01*
X96275271Y-66426552D01*
X96275274Y-66426552D01*
X96451232Y-66369380D01*
X96451232Y-66369379D01*
X96451235Y-66369379D01*
X96616096Y-66285378D01*
X96765787Y-66176621D01*
X96896621Y-66045787D01*
X97005378Y-65896096D01*
X97089379Y-65731235D01*
X97146555Y-65555264D01*
X97175500Y-65372514D01*
X97175500Y-65187486D01*
X97175500Y-65187484D01*
X99824500Y-65187484D01*
X99824500Y-65372515D01*
X99853444Y-65555261D01*
X99853447Y-65555274D01*
X99910619Y-65731232D01*
X99910621Y-65731236D01*
X99994620Y-65896092D01*
X99994623Y-65896098D01*
X100103375Y-66045782D01*
X100103379Y-66045787D01*
X100234213Y-66176621D01*
X100383904Y-66285378D01*
X100501233Y-66345160D01*
X100548763Y-66369378D01*
X100548767Y-66369380D01*
X100724725Y-66426552D01*
X100724731Y-66426553D01*
X100724736Y-66426555D01*
X100816111Y-66441027D01*
X100907484Y-66455500D01*
X100907486Y-66455500D01*
X101092516Y-66455500D01*
X101165614Y-66443922D01*
X101275264Y-66426555D01*
X101275271Y-66426552D01*
X101275274Y-66426552D01*
X101399528Y-66386180D01*
X101451232Y-66369380D01*
X101451232Y-66369379D01*
X101451235Y-66369379D01*
X101616096Y-66285378D01*
X101765787Y-66176621D01*
X101896621Y-66045787D01*
X102005378Y-65896096D01*
X102089379Y-65731235D01*
X102146555Y-65555264D01*
X102175500Y-65372514D01*
X102175500Y-65187486D01*
X102171767Y-65163914D01*
X104525000Y-65163914D01*
X104525000Y-65396085D01*
X104561318Y-65625394D01*
X104561321Y-65625407D01*
X104633060Y-65846195D01*
X104738466Y-66053068D01*
X104795238Y-66131206D01*
X105398957Y-65527486D01*
X105423978Y-65587890D01*
X105495112Y-65694351D01*
X105585649Y-65784888D01*
X105692110Y-65856022D01*
X105752511Y-65881041D01*
X105148792Y-66484761D01*
X105226932Y-66541533D01*
X105433804Y-66646939D01*
X105654592Y-66718678D01*
X105654605Y-66718681D01*
X105883914Y-66755000D01*
X106116086Y-66755000D01*
X106345394Y-66718681D01*
X106345407Y-66718678D01*
X106566197Y-66646938D01*
X106566203Y-66646936D01*
X106773064Y-66541534D01*
X106773070Y-66541531D01*
X106851206Y-66484761D01*
X106247487Y-65881041D01*
X106307890Y-65856022D01*
X106414351Y-65784888D01*
X106504888Y-65694351D01*
X106576022Y-65587890D01*
X106601042Y-65527487D01*
X107204761Y-66131206D01*
X107261531Y-66053070D01*
X107261534Y-66053064D01*
X107366936Y-65846203D01*
X107366938Y-65846197D01*
X107438678Y-65625407D01*
X107438681Y-65625394D01*
X107475000Y-65396085D01*
X107475000Y-65187484D01*
X109824500Y-65187484D01*
X109824500Y-65372515D01*
X109853444Y-65555261D01*
X109853447Y-65555274D01*
X109910619Y-65731232D01*
X109910621Y-65731236D01*
X109994620Y-65896092D01*
X109994623Y-65896098D01*
X110103375Y-66045782D01*
X110103379Y-66045787D01*
X110234213Y-66176621D01*
X110383904Y-66285378D01*
X110501233Y-66345160D01*
X110548763Y-66369378D01*
X110548767Y-66369380D01*
X110724725Y-66426552D01*
X110724731Y-66426553D01*
X110724736Y-66426555D01*
X110816111Y-66441027D01*
X110907484Y-66455500D01*
X110907486Y-66455500D01*
X111092516Y-66455500D01*
X111165614Y-66443922D01*
X111275264Y-66426555D01*
X111275271Y-66426552D01*
X111275274Y-66426552D01*
X111451232Y-66369380D01*
X111451232Y-66369379D01*
X111451235Y-66369379D01*
X111616096Y-66285378D01*
X111765787Y-66176621D01*
X111896621Y-66045787D01*
X112005378Y-65896096D01*
X112089379Y-65731235D01*
X112146555Y-65555264D01*
X112175500Y-65372514D01*
X112175500Y-65187486D01*
X112175500Y-65187484D01*
X114824500Y-65187484D01*
X114824500Y-65372515D01*
X114853444Y-65555261D01*
X114853447Y-65555274D01*
X114910619Y-65731232D01*
X114910621Y-65731236D01*
X114994620Y-65896092D01*
X114994623Y-65896098D01*
X115103375Y-66045782D01*
X115103379Y-66045787D01*
X115234213Y-66176621D01*
X115383904Y-66285378D01*
X115501233Y-66345160D01*
X115548763Y-66369378D01*
X115548767Y-66369380D01*
X115724725Y-66426552D01*
X115724731Y-66426553D01*
X115724736Y-66426555D01*
X115816111Y-66441027D01*
X115907484Y-66455500D01*
X115907486Y-66455500D01*
X116092516Y-66455500D01*
X116165614Y-66443922D01*
X116275264Y-66426555D01*
X116275271Y-66426552D01*
X116275274Y-66426552D01*
X116451232Y-66369380D01*
X116451232Y-66369379D01*
X116451235Y-66369379D01*
X116616096Y-66285378D01*
X116765787Y-66176621D01*
X116896621Y-66045787D01*
X117005378Y-65896096D01*
X117089379Y-65731235D01*
X117146555Y-65555264D01*
X117175500Y-65372514D01*
X117175500Y-65187486D01*
X117146555Y-65004736D01*
X117146553Y-65004731D01*
X117146552Y-65004725D01*
X117089380Y-64828767D01*
X117089378Y-64828763D01*
X117030803Y-64713804D01*
X117005378Y-64663904D01*
X116896621Y-64514213D01*
X116765787Y-64383379D01*
X116765784Y-64383376D01*
X116765782Y-64383375D01*
X116616098Y-64274623D01*
X116616092Y-64274620D01*
X116451236Y-64190621D01*
X116451232Y-64190619D01*
X116275274Y-64133447D01*
X116275261Y-64133444D01*
X116092516Y-64104500D01*
X116092514Y-64104500D01*
X115907486Y-64104500D01*
X115907484Y-64104500D01*
X115724738Y-64133444D01*
X115724725Y-64133447D01*
X115548767Y-64190619D01*
X115548763Y-64190621D01*
X115383907Y-64274620D01*
X115383901Y-64274623D01*
X115234217Y-64383375D01*
X115103375Y-64514217D01*
X114994623Y-64663901D01*
X114994620Y-64663907D01*
X114910621Y-64828763D01*
X114910619Y-64828767D01*
X114853447Y-65004725D01*
X114853444Y-65004738D01*
X114824500Y-65187484D01*
X112175500Y-65187484D01*
X112146555Y-65004736D01*
X112146553Y-65004731D01*
X112146552Y-65004725D01*
X112089380Y-64828767D01*
X112089378Y-64828763D01*
X112030803Y-64713804D01*
X112005378Y-64663904D01*
X111896621Y-64514213D01*
X111765787Y-64383379D01*
X111765784Y-64383376D01*
X111765782Y-64383375D01*
X111616098Y-64274623D01*
X111616092Y-64274620D01*
X111451236Y-64190621D01*
X111451232Y-64190619D01*
X111275274Y-64133447D01*
X111275261Y-64133444D01*
X111092516Y-64104500D01*
X111092514Y-64104500D01*
X110907486Y-64104500D01*
X110907484Y-64104500D01*
X110724738Y-64133444D01*
X110724725Y-64133447D01*
X110548767Y-64190619D01*
X110548763Y-64190621D01*
X110383907Y-64274620D01*
X110383901Y-64274623D01*
X110234217Y-64383375D01*
X110103375Y-64514217D01*
X109994623Y-64663901D01*
X109994620Y-64663907D01*
X109910621Y-64828763D01*
X109910619Y-64828767D01*
X109853447Y-65004725D01*
X109853444Y-65004738D01*
X109824500Y-65187484D01*
X107475000Y-65187484D01*
X107475000Y-65163914D01*
X107438681Y-64934605D01*
X107438678Y-64934592D01*
X107366939Y-64713804D01*
X107261533Y-64506932D01*
X107204761Y-64428792D01*
X106601041Y-65032511D01*
X106576022Y-64972110D01*
X106504888Y-64865649D01*
X106414351Y-64775112D01*
X106307890Y-64703978D01*
X106247486Y-64678957D01*
X106851206Y-64075238D01*
X106773068Y-64018466D01*
X106566195Y-63913060D01*
X106345407Y-63841321D01*
X106345394Y-63841318D01*
X106116086Y-63805000D01*
X105883914Y-63805000D01*
X105654605Y-63841318D01*
X105654592Y-63841321D01*
X105433804Y-63913060D01*
X105226933Y-64018466D01*
X105148792Y-64075237D01*
X105148792Y-64075238D01*
X105752512Y-64678958D01*
X105692110Y-64703978D01*
X105585649Y-64775112D01*
X105495112Y-64865649D01*
X105423978Y-64972110D01*
X105398958Y-65032512D01*
X104795238Y-64428792D01*
X104795237Y-64428792D01*
X104738466Y-64506933D01*
X104633060Y-64713804D01*
X104561321Y-64934592D01*
X104561318Y-64934605D01*
X104525000Y-65163914D01*
X102171767Y-65163914D01*
X102146555Y-65004736D01*
X102146553Y-65004731D01*
X102146552Y-65004725D01*
X102089380Y-64828767D01*
X102089378Y-64828763D01*
X102030803Y-64713804D01*
X102005378Y-64663904D01*
X101896621Y-64514213D01*
X101765787Y-64383379D01*
X101765784Y-64383376D01*
X101765782Y-64383375D01*
X101616098Y-64274623D01*
X101616092Y-64274620D01*
X101451236Y-64190621D01*
X101451232Y-64190619D01*
X101399525Y-64173819D01*
X101275274Y-64133447D01*
X101275261Y-64133444D01*
X101092516Y-64104500D01*
X101092514Y-64104500D01*
X100907486Y-64104500D01*
X100907484Y-64104500D01*
X100724738Y-64133444D01*
X100724725Y-64133447D01*
X100548767Y-64190619D01*
X100548763Y-64190621D01*
X100383907Y-64274620D01*
X100383901Y-64274623D01*
X100234217Y-64383375D01*
X100103375Y-64514217D01*
X99994623Y-64663901D01*
X99994620Y-64663907D01*
X99910621Y-64828763D01*
X99910619Y-64828767D01*
X99853447Y-65004725D01*
X99853444Y-65004738D01*
X99824500Y-65187484D01*
X97175500Y-65187484D01*
X97146555Y-65004736D01*
X97146553Y-65004731D01*
X97146552Y-65004725D01*
X97089380Y-64828767D01*
X97089378Y-64828763D01*
X97030803Y-64713804D01*
X97005378Y-64663904D01*
X96896621Y-64514213D01*
X96765787Y-64383379D01*
X96765784Y-64383376D01*
X96765782Y-64383375D01*
X96616098Y-64274623D01*
X96616092Y-64274620D01*
X96451236Y-64190621D01*
X96451232Y-64190619D01*
X96275274Y-64133447D01*
X96275261Y-64133444D01*
X96092516Y-64104500D01*
X96092514Y-64104500D01*
X95907486Y-64104500D01*
X95907484Y-64104500D01*
X95724738Y-64133444D01*
X95724725Y-64133447D01*
X95548767Y-64190619D01*
X95548763Y-64190621D01*
X95383907Y-64274620D01*
X95383901Y-64274623D01*
X95234217Y-64383375D01*
X95103375Y-64514217D01*
X94994623Y-64663901D01*
X94994620Y-64663907D01*
X94910621Y-64828763D01*
X94910619Y-64828767D01*
X94853447Y-65004725D01*
X94853444Y-65004738D01*
X94824500Y-65187484D01*
X92175500Y-65187484D01*
X92146555Y-65004736D01*
X92146553Y-65004731D01*
X92146552Y-65004725D01*
X92089380Y-64828767D01*
X92089378Y-64828763D01*
X92030803Y-64713804D01*
X92005378Y-64663904D01*
X91896621Y-64514213D01*
X91765787Y-64383379D01*
X91765784Y-64383376D01*
X91765782Y-64383375D01*
X91616098Y-64274623D01*
X91616092Y-64274620D01*
X91451236Y-64190621D01*
X91451232Y-64190619D01*
X91275274Y-64133447D01*
X91275261Y-64133444D01*
X91092516Y-64104500D01*
X91092514Y-64104500D01*
X90907486Y-64104500D01*
X90907484Y-64104500D01*
X90724738Y-64133444D01*
X90724725Y-64133447D01*
X90548767Y-64190619D01*
X90548763Y-64190621D01*
X90383907Y-64274620D01*
X90383901Y-64274623D01*
X90234217Y-64383375D01*
X90103375Y-64514217D01*
X89994623Y-64663901D01*
X89994620Y-64663907D01*
X89910621Y-64828763D01*
X89910619Y-64828767D01*
X89853447Y-65004725D01*
X89853444Y-65004738D01*
X89824500Y-65187484D01*
X87175500Y-65187484D01*
X87146555Y-65004736D01*
X87146553Y-65004731D01*
X87146552Y-65004725D01*
X87089380Y-64828767D01*
X87089378Y-64828763D01*
X87030803Y-64713804D01*
X87005378Y-64663904D01*
X86896621Y-64514213D01*
X86765787Y-64383379D01*
X86765784Y-64383376D01*
X86765782Y-64383375D01*
X86616098Y-64274623D01*
X86616092Y-64274620D01*
X86451236Y-64190621D01*
X86451232Y-64190619D01*
X86275274Y-64133447D01*
X86275261Y-64133444D01*
X86092516Y-64104500D01*
X86092514Y-64104500D01*
X85907486Y-64104500D01*
X85907484Y-64104500D01*
X85724738Y-64133444D01*
X85724725Y-64133447D01*
X85548767Y-64190619D01*
X85548763Y-64190621D01*
X85383907Y-64274620D01*
X85383901Y-64274623D01*
X85234217Y-64383375D01*
X85103375Y-64514217D01*
X84994623Y-64663901D01*
X84994620Y-64663907D01*
X84910621Y-64828763D01*
X84910619Y-64828767D01*
X84853447Y-65004725D01*
X84853444Y-65004738D01*
X84824500Y-65187484D01*
X82500500Y-65187484D01*
X82500500Y-60004159D01*
X82500965Y-59995874D01*
X82501982Y-59986842D01*
X82512091Y-59897124D01*
X82515775Y-59880988D01*
X82547212Y-59791143D01*
X82554400Y-59776218D01*
X82605042Y-59695621D01*
X82615366Y-59682675D01*
X82682675Y-59615366D01*
X82695621Y-59605042D01*
X82776219Y-59554399D01*
X82791143Y-59547212D01*
X82880988Y-59515775D01*
X82897124Y-59512091D01*
X82986842Y-59501982D01*
X82995874Y-59500965D01*
X83004159Y-59500500D01*
X83065892Y-59500500D01*
X123934108Y-59500500D01*
X123995841Y-59500500D01*
X124004126Y-59500965D01*
G37*
%TD.AperFunction*%
%TD*%
M02*
