%TF.GenerationSoftware,KiCad,Pcbnew,9.0.1*%
%TF.CreationDate,2025-06-21T16:27:20+02:00*%
%TF.ProjectId,PUTM_EV_CART_INDICATOR,5055544d-5f45-4565-9f43-4152545f494e,rev?*%
%TF.SameCoordinates,Original*%
%TF.FileFunction,Legend,Bot*%
%TF.FilePolarity,Positive*%
%FSLAX46Y46*%
G04 Gerber Fmt 4.6, Leading zero omitted, Abs format (unit mm)*
G04 Created by KiCad (PCBNEW 9.0.1) date 2025-06-21 16:27:20*
%MOMM*%
%LPD*%
G01*
G04 APERTURE LIST*
%ADD10C,0.200000*%
%ADD11C,0.300000*%
G04 APERTURE END LIST*
D10*
X118677945Y-66737387D02*
X118677945Y-66927863D01*
X118296993Y-66737387D02*
X118296993Y-66927863D01*
X117868421Y-67737387D02*
X117868421Y-66737387D01*
X117868421Y-66737387D02*
X117296993Y-67737387D01*
X117296993Y-67737387D02*
X117296993Y-66737387D01*
X116820802Y-67737387D02*
X116820802Y-67070720D01*
X116820802Y-66737387D02*
X116868421Y-66785006D01*
X116868421Y-66785006D02*
X116820802Y-66832625D01*
X116820802Y-66832625D02*
X116773183Y-66785006D01*
X116773183Y-66785006D02*
X116820802Y-66737387D01*
X116820802Y-66737387D02*
X116820802Y-66832625D01*
X115963660Y-67689768D02*
X116058898Y-67737387D01*
X116058898Y-67737387D02*
X116249374Y-67737387D01*
X116249374Y-67737387D02*
X116344612Y-67689768D01*
X116344612Y-67689768D02*
X116392231Y-67594529D01*
X116392231Y-67594529D02*
X116392231Y-67213577D01*
X116392231Y-67213577D02*
X116344612Y-67118339D01*
X116344612Y-67118339D02*
X116249374Y-67070720D01*
X116249374Y-67070720D02*
X116058898Y-67070720D01*
X116058898Y-67070720D02*
X115963660Y-67118339D01*
X115963660Y-67118339D02*
X115916041Y-67213577D01*
X115916041Y-67213577D02*
X115916041Y-67308815D01*
X115916041Y-67308815D02*
X116392231Y-67404053D01*
X114296993Y-67689768D02*
X114392231Y-67737387D01*
X114392231Y-67737387D02*
X114582707Y-67737387D01*
X114582707Y-67737387D02*
X114677945Y-67689768D01*
X114677945Y-67689768D02*
X114725564Y-67642148D01*
X114725564Y-67642148D02*
X114773183Y-67546910D01*
X114773183Y-67546910D02*
X114773183Y-67261196D01*
X114773183Y-67261196D02*
X114725564Y-67165958D01*
X114725564Y-67165958D02*
X114677945Y-67118339D01*
X114677945Y-67118339D02*
X114582707Y-67070720D01*
X114582707Y-67070720D02*
X114392231Y-67070720D01*
X114392231Y-67070720D02*
X114296993Y-67118339D01*
X113963659Y-67070720D02*
X113439850Y-67070720D01*
X113439850Y-67070720D02*
X113963659Y-67737387D01*
X113963659Y-67737387D02*
X113439850Y-67737387D01*
X112630326Y-67737387D02*
X112630326Y-67213577D01*
X112630326Y-67213577D02*
X112677945Y-67118339D01*
X112677945Y-67118339D02*
X112773183Y-67070720D01*
X112773183Y-67070720D02*
X112963659Y-67070720D01*
X112963659Y-67070720D02*
X113058897Y-67118339D01*
X112630326Y-67689768D02*
X112725564Y-67737387D01*
X112725564Y-67737387D02*
X112963659Y-67737387D01*
X112963659Y-67737387D02*
X113058897Y-67689768D01*
X113058897Y-67689768D02*
X113106516Y-67594529D01*
X113106516Y-67594529D02*
X113106516Y-67499291D01*
X113106516Y-67499291D02*
X113058897Y-67404053D01*
X113058897Y-67404053D02*
X112963659Y-67356434D01*
X112963659Y-67356434D02*
X112725564Y-67356434D01*
X112725564Y-67356434D02*
X112630326Y-67308815D01*
X112154135Y-67737387D02*
X112154135Y-67070720D01*
X112154135Y-67261196D02*
X112106516Y-67165958D01*
X112106516Y-67165958D02*
X112058897Y-67118339D01*
X112058897Y-67118339D02*
X111963659Y-67070720D01*
X111963659Y-67070720D02*
X111868421Y-67070720D01*
X111392230Y-67737387D02*
X111487468Y-67689768D01*
X111487468Y-67689768D02*
X111535087Y-67642148D01*
X111535087Y-67642148D02*
X111582706Y-67546910D01*
X111582706Y-67546910D02*
X111582706Y-67261196D01*
X111582706Y-67261196D02*
X111535087Y-67165958D01*
X111535087Y-67165958D02*
X111487468Y-67118339D01*
X111487468Y-67118339D02*
X111392230Y-67070720D01*
X111392230Y-67070720D02*
X111249373Y-67070720D01*
X111249373Y-67070720D02*
X111154135Y-67118339D01*
X111154135Y-67118339D02*
X111106516Y-67165958D01*
X111106516Y-67165958D02*
X111058897Y-67261196D01*
X111058897Y-67261196D02*
X111058897Y-67546910D01*
X111058897Y-67546910D02*
X111106516Y-67642148D01*
X111106516Y-67642148D02*
X111154135Y-67689768D01*
X111154135Y-67689768D02*
X111249373Y-67737387D01*
X111249373Y-67737387D02*
X111392230Y-67737387D01*
X110201754Y-67737387D02*
X110201754Y-66737387D01*
X110201754Y-67689768D02*
X110296992Y-67737387D01*
X110296992Y-67737387D02*
X110487468Y-67737387D01*
X110487468Y-67737387D02*
X110582706Y-67689768D01*
X110582706Y-67689768D02*
X110630325Y-67642148D01*
X110630325Y-67642148D02*
X110677944Y-67546910D01*
X110677944Y-67546910D02*
X110677944Y-67261196D01*
X110677944Y-67261196D02*
X110630325Y-67165958D01*
X110630325Y-67165958D02*
X110582706Y-67118339D01*
X110582706Y-67118339D02*
X110487468Y-67070720D01*
X110487468Y-67070720D02*
X110296992Y-67070720D01*
X110296992Y-67070720D02*
X110201754Y-67118339D01*
X109820801Y-67070720D02*
X109296992Y-67070720D01*
X109296992Y-67070720D02*
X109820801Y-67737387D01*
X109820801Y-67737387D02*
X109296992Y-67737387D01*
X108916039Y-67737387D02*
X108916039Y-67070720D01*
X108916039Y-66737387D02*
X108963658Y-66785006D01*
X108963658Y-66785006D02*
X108916039Y-66832625D01*
X108916039Y-66832625D02*
X108868420Y-66785006D01*
X108868420Y-66785006D02*
X108916039Y-66737387D01*
X108916039Y-66737387D02*
X108916039Y-66832625D01*
X108058897Y-67689768D02*
X108154135Y-67737387D01*
X108154135Y-67737387D02*
X108344611Y-67737387D01*
X108344611Y-67737387D02*
X108439849Y-67689768D01*
X108439849Y-67689768D02*
X108487468Y-67594529D01*
X108487468Y-67594529D02*
X108487468Y-67213577D01*
X108487468Y-67213577D02*
X108439849Y-67118339D01*
X108439849Y-67118339D02*
X108344611Y-67070720D01*
X108344611Y-67070720D02*
X108154135Y-67070720D01*
X108154135Y-67070720D02*
X108058897Y-67118339D01*
X108058897Y-67118339D02*
X108011278Y-67213577D01*
X108011278Y-67213577D02*
X108011278Y-67308815D01*
X108011278Y-67308815D02*
X108487468Y-67404053D01*
X107582706Y-67070720D02*
X107582706Y-67927863D01*
X107582706Y-67927863D02*
X107630325Y-68023101D01*
X107630325Y-68023101D02*
X107725563Y-68070720D01*
X107725563Y-68070720D02*
X107773182Y-68070720D01*
X107582706Y-66737387D02*
X107630325Y-66785006D01*
X107630325Y-66785006D02*
X107582706Y-66832625D01*
X107582706Y-66832625D02*
X107535087Y-66785006D01*
X107535087Y-66785006D02*
X107582706Y-66737387D01*
X107582706Y-66737387D02*
X107582706Y-66832625D01*
X107154135Y-67689768D02*
X107058897Y-67737387D01*
X107058897Y-67737387D02*
X106868421Y-67737387D01*
X106868421Y-67737387D02*
X106773183Y-67689768D01*
X106773183Y-67689768D02*
X106725564Y-67594529D01*
X106725564Y-67594529D02*
X106725564Y-67546910D01*
X106725564Y-67546910D02*
X106773183Y-67451672D01*
X106773183Y-67451672D02*
X106868421Y-67404053D01*
X106868421Y-67404053D02*
X107011278Y-67404053D01*
X107011278Y-67404053D02*
X107106516Y-67356434D01*
X107106516Y-67356434D02*
X107154135Y-67261196D01*
X107154135Y-67261196D02*
X107154135Y-67213577D01*
X107154135Y-67213577D02*
X107106516Y-67118339D01*
X107106516Y-67118339D02*
X107011278Y-67070720D01*
X107011278Y-67070720D02*
X106868421Y-67070720D01*
X106868421Y-67070720D02*
X106773183Y-67118339D01*
X106296992Y-67737387D02*
X106296992Y-66737387D01*
X106201754Y-67356434D02*
X105916040Y-67737387D01*
X105916040Y-67070720D02*
X106296992Y-67451672D01*
X105058897Y-67737387D02*
X105058897Y-67213577D01*
X105058897Y-67213577D02*
X105106516Y-67118339D01*
X105106516Y-67118339D02*
X105201754Y-67070720D01*
X105201754Y-67070720D02*
X105392230Y-67070720D01*
X105392230Y-67070720D02*
X105487468Y-67118339D01*
X105058897Y-67689768D02*
X105154135Y-67737387D01*
X105154135Y-67737387D02*
X105392230Y-67737387D01*
X105392230Y-67737387D02*
X105487468Y-67689768D01*
X105487468Y-67689768D02*
X105535087Y-67594529D01*
X105535087Y-67594529D02*
X105535087Y-67499291D01*
X105535087Y-67499291D02*
X105487468Y-67404053D01*
X105487468Y-67404053D02*
X105392230Y-67356434D01*
X105392230Y-67356434D02*
X105154135Y-67356434D01*
X105154135Y-67356434D02*
X105058897Y-67308815D01*
X103963658Y-67070720D02*
X103582706Y-67070720D01*
X103820801Y-66737387D02*
X103820801Y-67594529D01*
X103820801Y-67594529D02*
X103773182Y-67689768D01*
X103773182Y-67689768D02*
X103677944Y-67737387D01*
X103677944Y-67737387D02*
X103582706Y-67737387D01*
X103344610Y-67070720D02*
X103106515Y-67737387D01*
X102868420Y-67070720D02*
X103106515Y-67737387D01*
X103106515Y-67737387D02*
X103201753Y-67975482D01*
X103201753Y-67975482D02*
X103249372Y-68023101D01*
X103249372Y-68023101D02*
X103344610Y-68070720D01*
X102344610Y-67737387D02*
X102439848Y-67689768D01*
X102439848Y-67689768D02*
X102487467Y-67594529D01*
X102487467Y-67594529D02*
X102487467Y-66737387D01*
X101963657Y-67737387D02*
X101963657Y-66737387D01*
X101868419Y-67356434D02*
X101582705Y-67737387D01*
X101582705Y-67070720D02*
X101963657Y-67451672D01*
X101011276Y-67737387D02*
X101106514Y-67689768D01*
X101106514Y-67689768D02*
X101154133Y-67642148D01*
X101154133Y-67642148D02*
X101201752Y-67546910D01*
X101201752Y-67546910D02*
X101201752Y-67261196D01*
X101201752Y-67261196D02*
X101154133Y-67165958D01*
X101154133Y-67165958D02*
X101106514Y-67118339D01*
X101106514Y-67118339D02*
X101011276Y-67070720D01*
X101011276Y-67070720D02*
X100868419Y-67070720D01*
X100868419Y-67070720D02*
X100773181Y-67118339D01*
X100773181Y-67118339D02*
X100725562Y-67165958D01*
X100725562Y-67165958D02*
X100677943Y-67261196D01*
X100677943Y-67261196D02*
X100677943Y-67546910D01*
X100677943Y-67546910D02*
X100725562Y-67642148D01*
X100725562Y-67642148D02*
X100773181Y-67689768D01*
X100773181Y-67689768D02*
X100868419Y-67737387D01*
X100868419Y-67737387D02*
X101011276Y-67737387D01*
X118630326Y-69347331D02*
X118630326Y-68680664D01*
X118630326Y-68775902D02*
X118582707Y-68728283D01*
X118582707Y-68728283D02*
X118487469Y-68680664D01*
X118487469Y-68680664D02*
X118344612Y-68680664D01*
X118344612Y-68680664D02*
X118249374Y-68728283D01*
X118249374Y-68728283D02*
X118201755Y-68823521D01*
X118201755Y-68823521D02*
X118201755Y-69347331D01*
X118201755Y-68823521D02*
X118154136Y-68728283D01*
X118154136Y-68728283D02*
X118058898Y-68680664D01*
X118058898Y-68680664D02*
X117916041Y-68680664D01*
X117916041Y-68680664D02*
X117820802Y-68728283D01*
X117820802Y-68728283D02*
X117773183Y-68823521D01*
X117773183Y-68823521D02*
X117773183Y-69347331D01*
X116868422Y-69347331D02*
X116868422Y-68823521D01*
X116868422Y-68823521D02*
X116916041Y-68728283D01*
X116916041Y-68728283D02*
X117011279Y-68680664D01*
X117011279Y-68680664D02*
X117201755Y-68680664D01*
X117201755Y-68680664D02*
X117296993Y-68728283D01*
X116868422Y-69299712D02*
X116963660Y-69347331D01*
X116963660Y-69347331D02*
X117201755Y-69347331D01*
X117201755Y-69347331D02*
X117296993Y-69299712D01*
X117296993Y-69299712D02*
X117344612Y-69204473D01*
X117344612Y-69204473D02*
X117344612Y-69109235D01*
X117344612Y-69109235D02*
X117296993Y-69013997D01*
X117296993Y-69013997D02*
X117201755Y-68966378D01*
X117201755Y-68966378D02*
X116963660Y-68966378D01*
X116963660Y-68966378D02*
X116868422Y-68918759D01*
X115963660Y-68680664D02*
X115963660Y-69490188D01*
X115963660Y-69490188D02*
X116011279Y-69585426D01*
X116011279Y-69585426D02*
X116058898Y-69633045D01*
X116058898Y-69633045D02*
X116154136Y-69680664D01*
X116154136Y-69680664D02*
X116296993Y-69680664D01*
X116296993Y-69680664D02*
X116392231Y-69633045D01*
X115963660Y-69299712D02*
X116058898Y-69347331D01*
X116058898Y-69347331D02*
X116249374Y-69347331D01*
X116249374Y-69347331D02*
X116344612Y-69299712D01*
X116344612Y-69299712D02*
X116392231Y-69252092D01*
X116392231Y-69252092D02*
X116439850Y-69156854D01*
X116439850Y-69156854D02*
X116439850Y-68871140D01*
X116439850Y-68871140D02*
X116392231Y-68775902D01*
X116392231Y-68775902D02*
X116344612Y-68728283D01*
X116344612Y-68728283D02*
X116249374Y-68680664D01*
X116249374Y-68680664D02*
X116058898Y-68680664D01*
X116058898Y-68680664D02*
X115963660Y-68728283D01*
X115487469Y-69347331D02*
X115487469Y-68680664D01*
X115487469Y-68347331D02*
X115535088Y-68394950D01*
X115535088Y-68394950D02*
X115487469Y-68442569D01*
X115487469Y-68442569D02*
X115439850Y-68394950D01*
X115439850Y-68394950D02*
X115487469Y-68347331D01*
X115487469Y-68347331D02*
X115487469Y-68442569D01*
X114582708Y-69299712D02*
X114677946Y-69347331D01*
X114677946Y-69347331D02*
X114868422Y-69347331D01*
X114868422Y-69347331D02*
X114963660Y-69299712D01*
X114963660Y-69299712D02*
X115011279Y-69252092D01*
X115011279Y-69252092D02*
X115058898Y-69156854D01*
X115058898Y-69156854D02*
X115058898Y-68871140D01*
X115058898Y-68871140D02*
X115011279Y-68775902D01*
X115011279Y-68775902D02*
X114963660Y-68728283D01*
X114963660Y-68728283D02*
X114868422Y-68680664D01*
X114868422Y-68680664D02*
X114677946Y-68680664D01*
X114677946Y-68680664D02*
X114582708Y-68728283D01*
X114249374Y-68680664D02*
X113725565Y-68680664D01*
X113725565Y-68680664D02*
X114249374Y-69347331D01*
X114249374Y-69347331D02*
X113725565Y-69347331D01*
X113344612Y-68680664D02*
X113344612Y-69347331D01*
X113344612Y-68775902D02*
X113296993Y-68728283D01*
X113296993Y-68728283D02*
X113201755Y-68680664D01*
X113201755Y-68680664D02*
X113058898Y-68680664D01*
X113058898Y-68680664D02*
X112963660Y-68728283D01*
X112963660Y-68728283D02*
X112916041Y-68823521D01*
X112916041Y-68823521D02*
X112916041Y-69347331D01*
X112011279Y-69347331D02*
X112011279Y-68823521D01*
X112011279Y-68823521D02*
X112058898Y-68728283D01*
X112058898Y-68728283D02*
X112154136Y-68680664D01*
X112154136Y-68680664D02*
X112344612Y-68680664D01*
X112344612Y-68680664D02*
X112439850Y-68728283D01*
X112011279Y-69299712D02*
X112106517Y-69347331D01*
X112106517Y-69347331D02*
X112344612Y-69347331D01*
X112344612Y-69347331D02*
X112439850Y-69299712D01*
X112439850Y-69299712D02*
X112487469Y-69204473D01*
X112487469Y-69204473D02*
X112487469Y-69109235D01*
X112487469Y-69109235D02*
X112439850Y-69013997D01*
X112439850Y-69013997D02*
X112344612Y-68966378D01*
X112344612Y-68966378D02*
X112106517Y-68966378D01*
X112106517Y-68966378D02*
X112011279Y-68918759D01*
X110773183Y-69347331D02*
X110773183Y-68680664D01*
X110773183Y-68347331D02*
X110820802Y-68394950D01*
X110820802Y-68394950D02*
X110773183Y-68442569D01*
X110773183Y-68442569D02*
X110725564Y-68394950D01*
X110725564Y-68394950D02*
X110773183Y-68347331D01*
X110773183Y-68347331D02*
X110773183Y-68442569D01*
X109535088Y-68680664D02*
X109535088Y-69347331D01*
X109535088Y-68775902D02*
X109487469Y-68728283D01*
X109487469Y-68728283D02*
X109392231Y-68680664D01*
X109392231Y-68680664D02*
X109249374Y-68680664D01*
X109249374Y-68680664D02*
X109154136Y-68728283D01*
X109154136Y-68728283D02*
X109106517Y-68823521D01*
X109106517Y-68823521D02*
X109106517Y-69347331D01*
X108630326Y-69347331D02*
X108630326Y-68680664D01*
X108630326Y-68347331D02*
X108677945Y-68394950D01*
X108677945Y-68394950D02*
X108630326Y-68442569D01*
X108630326Y-68442569D02*
X108582707Y-68394950D01*
X108582707Y-68394950D02*
X108630326Y-68347331D01*
X108630326Y-68347331D02*
X108630326Y-68442569D01*
X107773184Y-69299712D02*
X107868422Y-69347331D01*
X107868422Y-69347331D02*
X108058898Y-69347331D01*
X108058898Y-69347331D02*
X108154136Y-69299712D01*
X108154136Y-69299712D02*
X108201755Y-69204473D01*
X108201755Y-69204473D02*
X108201755Y-68823521D01*
X108201755Y-68823521D02*
X108154136Y-68728283D01*
X108154136Y-68728283D02*
X108058898Y-68680664D01*
X108058898Y-68680664D02*
X107868422Y-68680664D01*
X107868422Y-68680664D02*
X107773184Y-68728283D01*
X107773184Y-68728283D02*
X107725565Y-68823521D01*
X107725565Y-68823521D02*
X107725565Y-68918759D01*
X107725565Y-68918759D02*
X108201755Y-69013997D01*
X106677945Y-68680664D02*
X106296993Y-68680664D01*
X106535088Y-69347331D02*
X106535088Y-68490188D01*
X106535088Y-68490188D02*
X106487469Y-68394950D01*
X106487469Y-68394950D02*
X106392231Y-68347331D01*
X106392231Y-68347331D02*
X106296993Y-68347331D01*
X105535088Y-68680664D02*
X105535088Y-69347331D01*
X105963659Y-68680664D02*
X105963659Y-69204473D01*
X105963659Y-69204473D02*
X105916040Y-69299712D01*
X105916040Y-69299712D02*
X105820802Y-69347331D01*
X105820802Y-69347331D02*
X105677945Y-69347331D01*
X105677945Y-69347331D02*
X105582707Y-69299712D01*
X105582707Y-69299712D02*
X105535088Y-69252092D01*
X105058897Y-68680664D02*
X105058897Y-69537807D01*
X105058897Y-69537807D02*
X105106516Y-69633045D01*
X105106516Y-69633045D02*
X105201754Y-69680664D01*
X105201754Y-69680664D02*
X105249373Y-69680664D01*
X105058897Y-68347331D02*
X105106516Y-68394950D01*
X105106516Y-68394950D02*
X105058897Y-68442569D01*
X105058897Y-68442569D02*
X105011278Y-68394950D01*
X105011278Y-68394950D02*
X105058897Y-68347331D01*
X105058897Y-68347331D02*
X105058897Y-68442569D01*
X104154136Y-69347331D02*
X104154136Y-68823521D01*
X104154136Y-68823521D02*
X104201755Y-68728283D01*
X104201755Y-68728283D02*
X104296993Y-68680664D01*
X104296993Y-68680664D02*
X104487469Y-68680664D01*
X104487469Y-68680664D02*
X104582707Y-68728283D01*
X104154136Y-69299712D02*
X104249374Y-69347331D01*
X104249374Y-69347331D02*
X104487469Y-69347331D01*
X104487469Y-69347331D02*
X104582707Y-69299712D01*
X104582707Y-69299712D02*
X104630326Y-69204473D01*
X104630326Y-69204473D02*
X104630326Y-69109235D01*
X104630326Y-69109235D02*
X104582707Y-69013997D01*
X104582707Y-69013997D02*
X104487469Y-68966378D01*
X104487469Y-68966378D02*
X104249374Y-68966378D01*
X104249374Y-68966378D02*
X104154136Y-68918759D01*
X103677945Y-69347331D02*
X103677945Y-68680664D01*
X103677945Y-68871140D02*
X103630326Y-68775902D01*
X103630326Y-68775902D02*
X103582707Y-68728283D01*
X103582707Y-68728283D02*
X103487469Y-68680664D01*
X103487469Y-68680664D02*
X103392231Y-68680664D01*
X103058897Y-69347331D02*
X103058897Y-68347331D01*
X102963659Y-68966378D02*
X102677945Y-69347331D01*
X102677945Y-68680664D02*
X103058897Y-69061616D01*
X101820802Y-69347331D02*
X101820802Y-68823521D01*
X101820802Y-68823521D02*
X101868421Y-68728283D01*
X101868421Y-68728283D02*
X101963659Y-68680664D01*
X101963659Y-68680664D02*
X102154135Y-68680664D01*
X102154135Y-68680664D02*
X102249373Y-68728283D01*
X101820802Y-69299712D02*
X101916040Y-69347331D01*
X101916040Y-69347331D02*
X102154135Y-69347331D01*
X102154135Y-69347331D02*
X102249373Y-69299712D01*
X102249373Y-69299712D02*
X102296992Y-69204473D01*
X102296992Y-69204473D02*
X102296992Y-69109235D01*
X102296992Y-69109235D02*
X102249373Y-69013997D01*
X102249373Y-69013997D02*
X102154135Y-68966378D01*
X102154135Y-68966378D02*
X101916040Y-68966378D01*
X101916040Y-68966378D02*
X101820802Y-68918759D01*
X118773183Y-70290608D02*
X118392231Y-70290608D01*
X118630326Y-69957275D02*
X118630326Y-70814417D01*
X118630326Y-70814417D02*
X118582707Y-70909656D01*
X118582707Y-70909656D02*
X118487469Y-70957275D01*
X118487469Y-70957275D02*
X118392231Y-70957275D01*
X118154135Y-70290608D02*
X117916040Y-70957275D01*
X117677945Y-70290608D02*
X117916040Y-70957275D01*
X117916040Y-70957275D02*
X118011278Y-71195370D01*
X118011278Y-71195370D02*
X118058897Y-71242989D01*
X118058897Y-71242989D02*
X118154135Y-71290608D01*
X117154135Y-70957275D02*
X117249373Y-70909656D01*
X117249373Y-70909656D02*
X117296992Y-70814417D01*
X117296992Y-70814417D02*
X117296992Y-69957275D01*
X116773182Y-70957275D02*
X116773182Y-69957275D01*
X116677944Y-70576322D02*
X116392230Y-70957275D01*
X116392230Y-70290608D02*
X116773182Y-70671560D01*
X115820801Y-70957275D02*
X115916039Y-70909656D01*
X115916039Y-70909656D02*
X115963658Y-70862036D01*
X115963658Y-70862036D02*
X116011277Y-70766798D01*
X116011277Y-70766798D02*
X116011277Y-70481084D01*
X116011277Y-70481084D02*
X115963658Y-70385846D01*
X115963658Y-70385846D02*
X115916039Y-70338227D01*
X115916039Y-70338227D02*
X115820801Y-70290608D01*
X115820801Y-70290608D02*
X115677944Y-70290608D01*
X115677944Y-70290608D02*
X115582706Y-70338227D01*
X115582706Y-70338227D02*
X115535087Y-70385846D01*
X115535087Y-70385846D02*
X115487468Y-70481084D01*
X115487468Y-70481084D02*
X115487468Y-70766798D01*
X115487468Y-70766798D02*
X115535087Y-70862036D01*
X115535087Y-70862036D02*
X115582706Y-70909656D01*
X115582706Y-70909656D02*
X115677944Y-70957275D01*
X115677944Y-70957275D02*
X115820801Y-70957275D01*
X114439848Y-70290608D02*
X114058896Y-70290608D01*
X114296991Y-70957275D02*
X114296991Y-70100132D01*
X114296991Y-70100132D02*
X114249372Y-70004894D01*
X114249372Y-70004894D02*
X114154134Y-69957275D01*
X114154134Y-69957275D02*
X114058896Y-69957275D01*
X113582705Y-70957275D02*
X113677943Y-70909656D01*
X113677943Y-70909656D02*
X113725562Y-70814417D01*
X113725562Y-70814417D02*
X113725562Y-69957275D01*
X112820800Y-70909656D02*
X112916038Y-70957275D01*
X112916038Y-70957275D02*
X113106514Y-70957275D01*
X113106514Y-70957275D02*
X113201752Y-70909656D01*
X113201752Y-70909656D02*
X113249371Y-70814417D01*
X113249371Y-70814417D02*
X113249371Y-70433465D01*
X113249371Y-70433465D02*
X113201752Y-70338227D01*
X113201752Y-70338227D02*
X113106514Y-70290608D01*
X113106514Y-70290608D02*
X112916038Y-70290608D01*
X112916038Y-70290608D02*
X112820800Y-70338227D01*
X112820800Y-70338227D02*
X112773181Y-70433465D01*
X112773181Y-70433465D02*
X112773181Y-70528703D01*
X112773181Y-70528703D02*
X113249371Y-70623941D01*
X112487466Y-70290608D02*
X112106514Y-70290608D01*
X112344609Y-69957275D02*
X112344609Y-70814417D01*
X112344609Y-70814417D02*
X112296990Y-70909656D01*
X112296990Y-70909656D02*
X112201752Y-70957275D01*
X112201752Y-70957275D02*
X112106514Y-70957275D01*
X111773180Y-70862036D02*
X111725561Y-70909656D01*
X111725561Y-70909656D02*
X111773180Y-70957275D01*
X111773180Y-70957275D02*
X111820799Y-70909656D01*
X111820799Y-70909656D02*
X111773180Y-70862036D01*
X111773180Y-70862036D02*
X111773180Y-70957275D01*
X111296990Y-70862036D02*
X111249371Y-70909656D01*
X111249371Y-70909656D02*
X111296990Y-70957275D01*
X111296990Y-70957275D02*
X111344609Y-70909656D01*
X111344609Y-70909656D02*
X111296990Y-70862036D01*
X111296990Y-70862036D02*
X111296990Y-70957275D01*
X110820800Y-70862036D02*
X110773181Y-70909656D01*
X110773181Y-70909656D02*
X110820800Y-70957275D01*
X110820800Y-70957275D02*
X110868419Y-70909656D01*
X110868419Y-70909656D02*
X110820800Y-70862036D01*
X110820800Y-70862036D02*
X110820800Y-70957275D01*
X118630326Y-72567219D02*
X118630326Y-71900552D01*
X118630326Y-71995790D02*
X118582707Y-71948171D01*
X118582707Y-71948171D02*
X118487469Y-71900552D01*
X118487469Y-71900552D02*
X118344612Y-71900552D01*
X118344612Y-71900552D02*
X118249374Y-71948171D01*
X118249374Y-71948171D02*
X118201755Y-72043409D01*
X118201755Y-72043409D02*
X118201755Y-72567219D01*
X118201755Y-72043409D02*
X118154136Y-71948171D01*
X118154136Y-71948171D02*
X118058898Y-71900552D01*
X118058898Y-71900552D02*
X117916041Y-71900552D01*
X117916041Y-71900552D02*
X117820802Y-71948171D01*
X117820802Y-71948171D02*
X117773183Y-72043409D01*
X117773183Y-72043409D02*
X117773183Y-72567219D01*
X116868422Y-72567219D02*
X116868422Y-72043409D01*
X116868422Y-72043409D02*
X116916041Y-71948171D01*
X116916041Y-71948171D02*
X117011279Y-71900552D01*
X117011279Y-71900552D02*
X117201755Y-71900552D01*
X117201755Y-71900552D02*
X117296993Y-71948171D01*
X116868422Y-72519600D02*
X116963660Y-72567219D01*
X116963660Y-72567219D02*
X117201755Y-72567219D01*
X117201755Y-72567219D02*
X117296993Y-72519600D01*
X117296993Y-72519600D02*
X117344612Y-72424361D01*
X117344612Y-72424361D02*
X117344612Y-72329123D01*
X117344612Y-72329123D02*
X117296993Y-72233885D01*
X117296993Y-72233885D02*
X117201755Y-72186266D01*
X117201755Y-72186266D02*
X116963660Y-72186266D01*
X116963660Y-72186266D02*
X116868422Y-72138647D01*
X115963660Y-71900552D02*
X115963660Y-72710076D01*
X115963660Y-72710076D02*
X116011279Y-72805314D01*
X116011279Y-72805314D02*
X116058898Y-72852933D01*
X116058898Y-72852933D02*
X116154136Y-72900552D01*
X116154136Y-72900552D02*
X116296993Y-72900552D01*
X116296993Y-72900552D02*
X116392231Y-72852933D01*
X115963660Y-72519600D02*
X116058898Y-72567219D01*
X116058898Y-72567219D02*
X116249374Y-72567219D01*
X116249374Y-72567219D02*
X116344612Y-72519600D01*
X116344612Y-72519600D02*
X116392231Y-72471980D01*
X116392231Y-72471980D02*
X116439850Y-72376742D01*
X116439850Y-72376742D02*
X116439850Y-72091028D01*
X116439850Y-72091028D02*
X116392231Y-71995790D01*
X116392231Y-71995790D02*
X116344612Y-71948171D01*
X116344612Y-71948171D02*
X116249374Y-71900552D01*
X116249374Y-71900552D02*
X116058898Y-71900552D01*
X116058898Y-71900552D02*
X115963660Y-71948171D01*
X115487469Y-72567219D02*
X115487469Y-71900552D01*
X115487469Y-71567219D02*
X115535088Y-71614838D01*
X115535088Y-71614838D02*
X115487469Y-71662457D01*
X115487469Y-71662457D02*
X115439850Y-71614838D01*
X115439850Y-71614838D02*
X115487469Y-71567219D01*
X115487469Y-71567219D02*
X115487469Y-71662457D01*
X114582708Y-72519600D02*
X114677946Y-72567219D01*
X114677946Y-72567219D02*
X114868422Y-72567219D01*
X114868422Y-72567219D02*
X114963660Y-72519600D01*
X114963660Y-72519600D02*
X115011279Y-72471980D01*
X115011279Y-72471980D02*
X115058898Y-72376742D01*
X115058898Y-72376742D02*
X115058898Y-72091028D01*
X115058898Y-72091028D02*
X115011279Y-71995790D01*
X115011279Y-71995790D02*
X114963660Y-71948171D01*
X114963660Y-71948171D02*
X114868422Y-71900552D01*
X114868422Y-71900552D02*
X114677946Y-71900552D01*
X114677946Y-71900552D02*
X114582708Y-71948171D01*
X114249374Y-71900552D02*
X113725565Y-71900552D01*
X113725565Y-71900552D02*
X114249374Y-72567219D01*
X114249374Y-72567219D02*
X113725565Y-72567219D01*
X113344612Y-71900552D02*
X113344612Y-72567219D01*
X113344612Y-71995790D02*
X113296993Y-71948171D01*
X113296993Y-71948171D02*
X113201755Y-71900552D01*
X113201755Y-71900552D02*
X113058898Y-71900552D01*
X113058898Y-71900552D02*
X112963660Y-71948171D01*
X112963660Y-71948171D02*
X112916041Y-72043409D01*
X112916041Y-72043409D02*
X112916041Y-72567219D01*
X112011279Y-72567219D02*
X112011279Y-72043409D01*
X112011279Y-72043409D02*
X112058898Y-71948171D01*
X112058898Y-71948171D02*
X112154136Y-71900552D01*
X112154136Y-71900552D02*
X112344612Y-71900552D01*
X112344612Y-71900552D02*
X112439850Y-71948171D01*
X112011279Y-72519600D02*
X112106517Y-72567219D01*
X112106517Y-72567219D02*
X112344612Y-72567219D01*
X112344612Y-72567219D02*
X112439850Y-72519600D01*
X112439850Y-72519600D02*
X112487469Y-72424361D01*
X112487469Y-72424361D02*
X112487469Y-72329123D01*
X112487469Y-72329123D02*
X112439850Y-72233885D01*
X112439850Y-72233885D02*
X112344612Y-72186266D01*
X112344612Y-72186266D02*
X112106517Y-72186266D01*
X112106517Y-72186266D02*
X112011279Y-72138647D01*
X110916040Y-71900552D02*
X110535088Y-71900552D01*
X110773183Y-72567219D02*
X110773183Y-71710076D01*
X110773183Y-71710076D02*
X110725564Y-71614838D01*
X110725564Y-71614838D02*
X110630326Y-71567219D01*
X110630326Y-71567219D02*
X110535088Y-71567219D01*
X110058897Y-72567219D02*
X110154135Y-72519600D01*
X110154135Y-72519600D02*
X110201754Y-72424361D01*
X110201754Y-72424361D02*
X110201754Y-71567219D01*
X109296992Y-72519600D02*
X109392230Y-72567219D01*
X109392230Y-72567219D02*
X109582706Y-72567219D01*
X109582706Y-72567219D02*
X109677944Y-72519600D01*
X109677944Y-72519600D02*
X109725563Y-72424361D01*
X109725563Y-72424361D02*
X109725563Y-72043409D01*
X109725563Y-72043409D02*
X109677944Y-71948171D01*
X109677944Y-71948171D02*
X109582706Y-71900552D01*
X109582706Y-71900552D02*
X109392230Y-71900552D01*
X109392230Y-71900552D02*
X109296992Y-71948171D01*
X109296992Y-71948171D02*
X109249373Y-72043409D01*
X109249373Y-72043409D02*
X109249373Y-72138647D01*
X109249373Y-72138647D02*
X109725563Y-72233885D01*
X108963658Y-71900552D02*
X108582706Y-71900552D01*
X108820801Y-71567219D02*
X108820801Y-72424361D01*
X108820801Y-72424361D02*
X108773182Y-72519600D01*
X108773182Y-72519600D02*
X108677944Y-72567219D01*
X108677944Y-72567219D02*
X108582706Y-72567219D01*
X108296991Y-71567219D02*
X108296991Y-71757695D01*
X107916039Y-71567219D02*
X107916039Y-71757695D01*
X103058894Y-72186266D02*
X103011275Y-72138647D01*
X103011275Y-72138647D02*
X102916037Y-72091028D01*
X102916037Y-72091028D02*
X102725561Y-72186266D01*
X102725561Y-72186266D02*
X102630323Y-72138647D01*
X102630323Y-72138647D02*
X102582704Y-72091028D01*
X102011275Y-71567219D02*
X101820799Y-71567219D01*
X101820799Y-71567219D02*
X101725561Y-71614838D01*
X101725561Y-71614838D02*
X101630323Y-71710076D01*
X101630323Y-71710076D02*
X101582704Y-71900552D01*
X101582704Y-71900552D02*
X101582704Y-72233885D01*
X101582704Y-72233885D02*
X101630323Y-72424361D01*
X101630323Y-72424361D02*
X101725561Y-72519600D01*
X101725561Y-72519600D02*
X101820799Y-72567219D01*
X101820799Y-72567219D02*
X102011275Y-72567219D01*
X102011275Y-72567219D02*
X102106513Y-72519600D01*
X102106513Y-72519600D02*
X102201751Y-72424361D01*
X102201751Y-72424361D02*
X102249370Y-72233885D01*
X102249370Y-72233885D02*
X102249370Y-71900552D01*
X102249370Y-71900552D02*
X102201751Y-71710076D01*
X102201751Y-71710076D02*
X102106513Y-71614838D01*
X102106513Y-71614838D02*
X102011275Y-71567219D01*
X101154132Y-71900552D02*
X101154132Y-72757695D01*
X101154132Y-72757695D02*
X101201751Y-72852933D01*
X101201751Y-72852933D02*
X101296989Y-72900552D01*
X101296989Y-72900552D02*
X101344608Y-72900552D01*
X101154132Y-71567219D02*
X101201751Y-71614838D01*
X101201751Y-71614838D02*
X101154132Y-71662457D01*
X101154132Y-71662457D02*
X101106513Y-71614838D01*
X101106513Y-71614838D02*
X101154132Y-71567219D01*
X101154132Y-71567219D02*
X101154132Y-71662457D01*
X100249371Y-72519600D02*
X100344609Y-72567219D01*
X100344609Y-72567219D02*
X100535085Y-72567219D01*
X100535085Y-72567219D02*
X100630323Y-72519600D01*
X100630323Y-72519600D02*
X100677942Y-72471980D01*
X100677942Y-72471980D02*
X100725561Y-72376742D01*
X100725561Y-72376742D02*
X100725561Y-72091028D01*
X100725561Y-72091028D02*
X100677942Y-71995790D01*
X100677942Y-71995790D02*
X100630323Y-71948171D01*
X100630323Y-71948171D02*
X100535085Y-71900552D01*
X100535085Y-71900552D02*
X100344609Y-71900552D01*
X100344609Y-71900552D02*
X100249371Y-71948171D01*
X99820799Y-72567219D02*
X99820799Y-71900552D01*
X99820799Y-71567219D02*
X99868418Y-71614838D01*
X99868418Y-71614838D02*
X99820799Y-71662457D01*
X99820799Y-71662457D02*
X99773180Y-71614838D01*
X99773180Y-71614838D02*
X99820799Y-71567219D01*
X99820799Y-71567219D02*
X99820799Y-71662457D01*
X98963657Y-72519600D02*
X99058895Y-72567219D01*
X99058895Y-72567219D02*
X99249371Y-72567219D01*
X99249371Y-72567219D02*
X99344609Y-72519600D01*
X99344609Y-72519600D02*
X99392228Y-72424361D01*
X99392228Y-72424361D02*
X99392228Y-72043409D01*
X99392228Y-72043409D02*
X99344609Y-71948171D01*
X99344609Y-71948171D02*
X99249371Y-71900552D01*
X99249371Y-71900552D02*
X99058895Y-71900552D01*
X99058895Y-71900552D02*
X98963657Y-71948171D01*
X98963657Y-71948171D02*
X98916038Y-72043409D01*
X98916038Y-72043409D02*
X98916038Y-72138647D01*
X98916038Y-72138647D02*
X99392228Y-72233885D01*
X98058895Y-72519600D02*
X98154133Y-72567219D01*
X98154133Y-72567219D02*
X98344609Y-72567219D01*
X98344609Y-72567219D02*
X98439847Y-72519600D01*
X98439847Y-72519600D02*
X98487466Y-72471980D01*
X98487466Y-72471980D02*
X98535085Y-72376742D01*
X98535085Y-72376742D02*
X98535085Y-72091028D01*
X98535085Y-72091028D02*
X98487466Y-71995790D01*
X98487466Y-71995790D02*
X98439847Y-71948171D01*
X98439847Y-71948171D02*
X98344609Y-71900552D01*
X98344609Y-71900552D02*
X98154133Y-71900552D01*
X98154133Y-71900552D02*
X98058895Y-71948171D01*
X96535085Y-72043409D02*
X96868418Y-72043409D01*
X96868418Y-72567219D02*
X96868418Y-71567219D01*
X96868418Y-71567219D02*
X96392228Y-71567219D01*
X96011275Y-72567219D02*
X96011275Y-71900552D01*
X96011275Y-72091028D02*
X95963656Y-71995790D01*
X95963656Y-71995790D02*
X95916037Y-71948171D01*
X95916037Y-71948171D02*
X95820799Y-71900552D01*
X95820799Y-71900552D02*
X95725561Y-71900552D01*
X94963656Y-72567219D02*
X94963656Y-72043409D01*
X94963656Y-72043409D02*
X95011275Y-71948171D01*
X95011275Y-71948171D02*
X95106513Y-71900552D01*
X95106513Y-71900552D02*
X95296989Y-71900552D01*
X95296989Y-71900552D02*
X95392227Y-71948171D01*
X94963656Y-72519600D02*
X95058894Y-72567219D01*
X95058894Y-72567219D02*
X95296989Y-72567219D01*
X95296989Y-72567219D02*
X95392227Y-72519600D01*
X95392227Y-72519600D02*
X95439846Y-72424361D01*
X95439846Y-72424361D02*
X95439846Y-72329123D01*
X95439846Y-72329123D02*
X95392227Y-72233885D01*
X95392227Y-72233885D02*
X95296989Y-72186266D01*
X95296989Y-72186266D02*
X95058894Y-72186266D01*
X95058894Y-72186266D02*
X94963656Y-72138647D01*
X94487465Y-71900552D02*
X94487465Y-72567219D01*
X94487465Y-71995790D02*
X94439846Y-71948171D01*
X94439846Y-71948171D02*
X94344608Y-71900552D01*
X94344608Y-71900552D02*
X94201751Y-71900552D01*
X94201751Y-71900552D02*
X94106513Y-71948171D01*
X94106513Y-71948171D02*
X94058894Y-72043409D01*
X94058894Y-72043409D02*
X94058894Y-72567219D01*
X93677941Y-71900552D02*
X93154132Y-71900552D01*
X93154132Y-71900552D02*
X93677941Y-72567219D01*
X93677941Y-72567219D02*
X93154132Y-72567219D01*
X92011274Y-72567219D02*
X92011274Y-71567219D01*
X92011274Y-71567219D02*
X91630322Y-71567219D01*
X91630322Y-71567219D02*
X91535084Y-71614838D01*
X91535084Y-71614838D02*
X91487465Y-71662457D01*
X91487465Y-71662457D02*
X91439846Y-71757695D01*
X91439846Y-71757695D02*
X91439846Y-71900552D01*
X91439846Y-71900552D02*
X91487465Y-71995790D01*
X91487465Y-71995790D02*
X91535084Y-72043409D01*
X91535084Y-72043409D02*
X91630322Y-72091028D01*
X91630322Y-72091028D02*
X92011274Y-72091028D01*
X91011274Y-72567219D02*
X91011274Y-71900552D01*
X91011274Y-71567219D02*
X91058893Y-71614838D01*
X91058893Y-71614838D02*
X91011274Y-71662457D01*
X91011274Y-71662457D02*
X90963655Y-71614838D01*
X90963655Y-71614838D02*
X91011274Y-71567219D01*
X91011274Y-71567219D02*
X91011274Y-71662457D01*
X90535084Y-71900552D02*
X90535084Y-72757695D01*
X90535084Y-72757695D02*
X90582703Y-72852933D01*
X90582703Y-72852933D02*
X90677941Y-72900552D01*
X90677941Y-72900552D02*
X90725560Y-72900552D01*
X90535084Y-71567219D02*
X90582703Y-71614838D01*
X90582703Y-71614838D02*
X90535084Y-71662457D01*
X90535084Y-71662457D02*
X90487465Y-71614838D01*
X90487465Y-71614838D02*
X90535084Y-71567219D01*
X90535084Y-71567219D02*
X90535084Y-71662457D01*
X89916037Y-72567219D02*
X90011275Y-72519600D01*
X90011275Y-72519600D02*
X90058894Y-72471980D01*
X90058894Y-72471980D02*
X90106513Y-72376742D01*
X90106513Y-72376742D02*
X90106513Y-72091028D01*
X90106513Y-72091028D02*
X90058894Y-71995790D01*
X90058894Y-71995790D02*
X90011275Y-71948171D01*
X90011275Y-71948171D02*
X89916037Y-71900552D01*
X89916037Y-71900552D02*
X89773180Y-71900552D01*
X89773180Y-71900552D02*
X89677942Y-71948171D01*
X89677942Y-71948171D02*
X89630323Y-71995790D01*
X89630323Y-71995790D02*
X89582704Y-72091028D01*
X89582704Y-72091028D02*
X89582704Y-72376742D01*
X89582704Y-72376742D02*
X89630323Y-72471980D01*
X89630323Y-72471980D02*
X89677942Y-72519600D01*
X89677942Y-72519600D02*
X89773180Y-72567219D01*
X89773180Y-72567219D02*
X89916037Y-72567219D01*
D11*
X94505012Y-77794133D02*
X94505012Y-76544133D01*
X93790727Y-77794133D02*
X94326441Y-77079848D01*
X93790727Y-76544133D02*
X94505012Y-77258419D01*
X93255012Y-77794133D02*
X93255012Y-76960800D01*
X93255012Y-77198895D02*
X93195489Y-77079848D01*
X93195489Y-77079848D02*
X93135965Y-77020324D01*
X93135965Y-77020324D02*
X93016917Y-76960800D01*
X93016917Y-76960800D02*
X92897870Y-76960800D01*
X92600250Y-76960800D02*
X91945488Y-76960800D01*
X91945488Y-76960800D02*
X92600250Y-77794133D01*
X92600250Y-77794133D02*
X91945488Y-77794133D01*
X91588345Y-76960800D02*
X91290726Y-77794133D01*
X90993107Y-76960800D02*
X91290726Y-77794133D01*
X91290726Y-77794133D02*
X91409774Y-78091752D01*
X91409774Y-78091752D02*
X91469297Y-78151276D01*
X91469297Y-78151276D02*
X91588345Y-78210800D01*
X90576440Y-77734610D02*
X90457393Y-77794133D01*
X90457393Y-77794133D02*
X90219297Y-77794133D01*
X90219297Y-77794133D02*
X90100250Y-77734610D01*
X90100250Y-77734610D02*
X90040726Y-77615562D01*
X90040726Y-77615562D02*
X90040726Y-77556038D01*
X90040726Y-77556038D02*
X90100250Y-77436990D01*
X90100250Y-77436990D02*
X90219297Y-77377467D01*
X90219297Y-77377467D02*
X90397869Y-77377467D01*
X90397869Y-77377467D02*
X90516916Y-77317943D01*
X90516916Y-77317943D02*
X90576440Y-77198895D01*
X90576440Y-77198895D02*
X90576440Y-77139371D01*
X90576440Y-77139371D02*
X90516916Y-77020324D01*
X90516916Y-77020324D02*
X90397869Y-76960800D01*
X90397869Y-76960800D02*
X90219297Y-76960800D01*
X90219297Y-76960800D02*
X90100250Y-77020324D01*
X89505011Y-77794133D02*
X89505011Y-76960800D01*
X89505011Y-76544133D02*
X89564535Y-76603657D01*
X89564535Y-76603657D02*
X89505011Y-76663181D01*
X89505011Y-76663181D02*
X89445488Y-76603657D01*
X89445488Y-76603657D02*
X89505011Y-76544133D01*
X89505011Y-76544133D02*
X89505011Y-76663181D01*
X88374059Y-76960800D02*
X88374059Y-77794133D01*
X88909773Y-76960800D02*
X88909773Y-77615562D01*
X88909773Y-77615562D02*
X88850250Y-77734610D01*
X88850250Y-77734610D02*
X88731202Y-77794133D01*
X88731202Y-77794133D02*
X88552631Y-77794133D01*
X88552631Y-77794133D02*
X88433583Y-77734610D01*
X88433583Y-77734610D02*
X88374059Y-77675086D01*
X93790727Y-79687516D02*
X93850251Y-79747040D01*
X93850251Y-79747040D02*
X94028822Y-79806563D01*
X94028822Y-79806563D02*
X94147870Y-79806563D01*
X94147870Y-79806563D02*
X94326441Y-79747040D01*
X94326441Y-79747040D02*
X94445489Y-79627992D01*
X94445489Y-79627992D02*
X94505012Y-79508944D01*
X94505012Y-79508944D02*
X94564536Y-79270849D01*
X94564536Y-79270849D02*
X94564536Y-79092278D01*
X94564536Y-79092278D02*
X94505012Y-78854182D01*
X94505012Y-78854182D02*
X94445489Y-78735135D01*
X94445489Y-78735135D02*
X94326441Y-78616087D01*
X94326441Y-78616087D02*
X94147870Y-78556563D01*
X94147870Y-78556563D02*
X94028822Y-78556563D01*
X94028822Y-78556563D02*
X93850251Y-78616087D01*
X93850251Y-78616087D02*
X93790727Y-78675611D01*
X93255012Y-79806563D02*
X93255012Y-78556563D01*
X92719298Y-79806563D02*
X92719298Y-79151801D01*
X92719298Y-79151801D02*
X92778822Y-79032754D01*
X92778822Y-79032754D02*
X92897870Y-78973230D01*
X92897870Y-78973230D02*
X93076441Y-78973230D01*
X93076441Y-78973230D02*
X93195489Y-79032754D01*
X93195489Y-79032754D02*
X93255012Y-79092278D01*
X91945489Y-78556563D02*
X91945489Y-78854182D01*
X92243108Y-78735135D02*
X91945489Y-78854182D01*
X91945489Y-78854182D02*
X91647870Y-78735135D01*
X92124060Y-79092278D02*
X91945489Y-78854182D01*
X91945489Y-78854182D02*
X91766918Y-79092278D01*
X90993108Y-78556563D02*
X90993108Y-78854182D01*
X91290727Y-78735135D02*
X90993108Y-78854182D01*
X90993108Y-78854182D02*
X90695489Y-78735135D01*
X91171679Y-79092278D02*
X90993108Y-78854182D01*
X90993108Y-78854182D02*
X90814537Y-79092278D01*
X90040727Y-78556563D02*
X90040727Y-78854182D01*
X90338346Y-78735135D02*
X90040727Y-78854182D01*
X90040727Y-78854182D02*
X89743108Y-78735135D01*
X90219298Y-79092278D02*
X90040727Y-78854182D01*
X90040727Y-78854182D02*
X89862156Y-79092278D01*
X94683584Y-80985660D02*
X94207393Y-80985660D01*
X94505012Y-81818993D02*
X94505012Y-80747565D01*
X94505012Y-80747565D02*
X94445489Y-80628517D01*
X94445489Y-80628517D02*
X94326441Y-80568993D01*
X94326441Y-80568993D02*
X94207393Y-80568993D01*
X93255012Y-81818993D02*
X93255012Y-81164231D01*
X93255012Y-81164231D02*
X93314536Y-81045184D01*
X93314536Y-81045184D02*
X93433584Y-80985660D01*
X93433584Y-80985660D02*
X93671679Y-80985660D01*
X93671679Y-80985660D02*
X93790726Y-81045184D01*
X93255012Y-81759470D02*
X93374060Y-81818993D01*
X93374060Y-81818993D02*
X93671679Y-81818993D01*
X93671679Y-81818993D02*
X93790726Y-81759470D01*
X93790726Y-81759470D02*
X93850250Y-81640422D01*
X93850250Y-81640422D02*
X93850250Y-81521374D01*
X93850250Y-81521374D02*
X93790726Y-81402327D01*
X93790726Y-81402327D02*
X93671679Y-81342803D01*
X93671679Y-81342803D02*
X93374060Y-81342803D01*
X93374060Y-81342803D02*
X93255012Y-81283279D01*
X92659774Y-81818993D02*
X92659774Y-80568993D01*
X92540727Y-81342803D02*
X92183584Y-81818993D01*
X92183584Y-80985660D02*
X92659774Y-81461850D01*
X91826441Y-80985660D02*
X91350250Y-80985660D01*
X91647869Y-80568993D02*
X91647869Y-81640422D01*
X91647869Y-81640422D02*
X91588346Y-81759470D01*
X91588346Y-81759470D02*
X91469298Y-81818993D01*
X91469298Y-81818993D02*
X91350250Y-81818993D01*
X90397869Y-80985660D02*
X90397869Y-81818993D01*
X90933583Y-80985660D02*
X90933583Y-81640422D01*
X90933583Y-81640422D02*
X90874060Y-81759470D01*
X90874060Y-81759470D02*
X90755012Y-81818993D01*
X90755012Y-81818993D02*
X90576441Y-81818993D01*
X90576441Y-81818993D02*
X90457393Y-81759470D01*
X90457393Y-81759470D02*
X90397869Y-81699946D01*
X89802631Y-81818993D02*
X89802631Y-80985660D01*
X89802631Y-81223755D02*
X89743108Y-81104708D01*
X89743108Y-81104708D02*
X89683584Y-81045184D01*
X89683584Y-81045184D02*
X89564536Y-80985660D01*
X89564536Y-80985660D02*
X89445489Y-80985660D01*
X89147869Y-80985660D02*
X88850250Y-81818993D01*
X88552631Y-80985660D02*
X88850250Y-81818993D01*
X88850250Y-81818993D02*
X88969298Y-82116612D01*
X88969298Y-82116612D02*
X89028821Y-82176136D01*
X89028821Y-82176136D02*
X89147869Y-82235660D01*
X94326441Y-83831423D02*
X94445489Y-83771900D01*
X94445489Y-83771900D02*
X94505012Y-83712376D01*
X94505012Y-83712376D02*
X94564536Y-83593328D01*
X94564536Y-83593328D02*
X94564536Y-83236185D01*
X94564536Y-83236185D02*
X94505012Y-83117138D01*
X94505012Y-83117138D02*
X94445489Y-83057614D01*
X94445489Y-83057614D02*
X94326441Y-82998090D01*
X94326441Y-82998090D02*
X94147870Y-82998090D01*
X94147870Y-82998090D02*
X94028822Y-83057614D01*
X94028822Y-83057614D02*
X93969298Y-83117138D01*
X93969298Y-83117138D02*
X93909774Y-83236185D01*
X93909774Y-83236185D02*
X93909774Y-83593328D01*
X93909774Y-83593328D02*
X93969298Y-83712376D01*
X93969298Y-83712376D02*
X94028822Y-83771900D01*
X94028822Y-83771900D02*
X94147870Y-83831423D01*
X94147870Y-83831423D02*
X94326441Y-83831423D01*
X92838346Y-83831423D02*
X92838346Y-82581423D01*
X92838346Y-83771900D02*
X92957394Y-83831423D01*
X92957394Y-83831423D02*
X93195489Y-83831423D01*
X93195489Y-83831423D02*
X93314537Y-83771900D01*
X93314537Y-83771900D02*
X93374060Y-83712376D01*
X93374060Y-83712376D02*
X93433584Y-83593328D01*
X93433584Y-83593328D02*
X93433584Y-83236185D01*
X93433584Y-83236185D02*
X93374060Y-83117138D01*
X93374060Y-83117138D02*
X93314537Y-83057614D01*
X93314537Y-83057614D02*
X93195489Y-82998090D01*
X93195489Y-82998090D02*
X92957394Y-82998090D01*
X92957394Y-82998090D02*
X92838346Y-83057614D01*
X91707394Y-83831423D02*
X91707394Y-82581423D01*
X91707394Y-83771900D02*
X91826442Y-83831423D01*
X91826442Y-83831423D02*
X92064537Y-83831423D01*
X92064537Y-83831423D02*
X92183585Y-83771900D01*
X92183585Y-83771900D02*
X92243108Y-83712376D01*
X92243108Y-83712376D02*
X92302632Y-83593328D01*
X92302632Y-83593328D02*
X92302632Y-83236185D01*
X92302632Y-83236185D02*
X92243108Y-83117138D01*
X92243108Y-83117138D02*
X92183585Y-83057614D01*
X92183585Y-83057614D02*
X92064537Y-82998090D01*
X92064537Y-82998090D02*
X91826442Y-82998090D01*
X91826442Y-82998090D02*
X91707394Y-83057614D01*
X90576442Y-83831423D02*
X90576442Y-83176661D01*
X90576442Y-83176661D02*
X90635966Y-83057614D01*
X90635966Y-83057614D02*
X90755014Y-82998090D01*
X90755014Y-82998090D02*
X90993109Y-82998090D01*
X90993109Y-82998090D02*
X91112156Y-83057614D01*
X90576442Y-83771900D02*
X90695490Y-83831423D01*
X90695490Y-83831423D02*
X90993109Y-83831423D01*
X90993109Y-83831423D02*
X91112156Y-83771900D01*
X91112156Y-83771900D02*
X91171680Y-83652852D01*
X91171680Y-83652852D02*
X91171680Y-83533804D01*
X91171680Y-83533804D02*
X91112156Y-83414757D01*
X91112156Y-83414757D02*
X90993109Y-83355233D01*
X90993109Y-83355233D02*
X90695490Y-83355233D01*
X90695490Y-83355233D02*
X90576442Y-83295709D01*
X90100252Y-82998090D02*
X89862157Y-83831423D01*
X89862157Y-83831423D02*
X89624062Y-83236185D01*
X89624062Y-83236185D02*
X89385966Y-83831423D01*
X89385966Y-83831423D02*
X89147871Y-82998090D01*
X88135966Y-83831423D02*
X88135966Y-83176661D01*
X88135966Y-83176661D02*
X88195490Y-83057614D01*
X88195490Y-83057614D02*
X88314538Y-82998090D01*
X88314538Y-82998090D02*
X88552633Y-82998090D01*
X88552633Y-82998090D02*
X88671680Y-83057614D01*
X88135966Y-83771900D02*
X88255014Y-83831423D01*
X88255014Y-83831423D02*
X88552633Y-83831423D01*
X88552633Y-83831423D02*
X88671680Y-83771900D01*
X88671680Y-83771900D02*
X88731204Y-83652852D01*
X88731204Y-83652852D02*
X88731204Y-83533804D01*
X88731204Y-83533804D02*
X88671680Y-83414757D01*
X88671680Y-83414757D02*
X88552633Y-83355233D01*
X88552633Y-83355233D02*
X88255014Y-83355233D01*
X88255014Y-83355233D02*
X88135966Y-83295709D01*
X87540728Y-82998090D02*
X87540728Y-84069519D01*
X87540728Y-84069519D02*
X87600252Y-84188566D01*
X87600252Y-84188566D02*
X87719300Y-84248090D01*
X87719300Y-84248090D02*
X87778824Y-84248090D01*
X87540728Y-82581423D02*
X87600252Y-82640947D01*
X87600252Y-82640947D02*
X87540728Y-82700471D01*
X87540728Y-82700471D02*
X87481205Y-82640947D01*
X87481205Y-82640947D02*
X87540728Y-82581423D01*
X87540728Y-82581423D02*
X87540728Y-82700471D01*
M02*
