M48
; DRILL file {KiCad 9.0.1} date 2025-06-14T22:11:51+0200
; FORMAT={-:-/ absolute / metric / decimal}
; #@! TF.CreationDate,2025-06-14T22:11:51+02:00
; #@! TF.GenerationSoftware,Kicad,Pcbnew,9.0.1
; #@! TF.FileFunction,Plated,1,2,PTH
FMAT,2
METRIC
; #@! TA.AperFunction,Plated,PTH,ViaDrill
T1C0.300
; #@! TA.AperFunction,Plated,PTH,ComponentDrill
T2C0.750
; #@! TA.AperFunction,Plated,PTH,ComponentDrill
T3C1.300
%
G90
G05
T1
X89.5Y-78.5
X96.0Y-81.0
X98.0Y-75.0
X101.5Y-82.0
X102.0Y-78.5
X107.0Y-75.0
X107.0Y-79.0
X107.0Y-84.0
X112.5Y-78.5
X112.5Y-82.5
X117.219Y-74.719
X117.5Y-82.5
X121.2Y-74.0
X123.5Y-81.5
T2
X99.358Y-75.3
X99.358Y-78.5
X99.358Y-80.7
X99.358Y-82.9
X104.438Y-75.3
X104.438Y-78.5
X104.438Y-80.7
X104.438Y-82.9
X109.358Y-75.5
X109.358Y-78.7
X109.358Y-80.9
X109.358Y-83.1
X114.438Y-75.5
X114.438Y-78.7
X114.438Y-80.9
X114.438Y-83.1
T3
X86.0Y-65.28
X91.0Y-65.28
X96.0Y-65.28
X101.0Y-65.28
X106.0Y-65.28
X111.0Y-65.28
X116.0Y-65.28
X121.0Y-65.28
M30
