%TF.GenerationSoftware,KiCad,Pcbnew,9.0.1*%
%TF.CreationDate,2025-06-14T22:11:49+02:00*%
%TF.ProjectId,PUTM_EV_CART_INDICATOR,5055544d-5f45-4565-9f43-4152545f494e,rev?*%
%TF.SameCoordinates,Original*%
%TF.FileFunction,Copper,L1,Top*%
%TF.FilePolarity,Positive*%
%FSLAX46Y46*%
G04 Gerber Fmt 4.6, Leading zero omitted, Abs format (unit mm)*
G04 Created by KiCad (PCBNEW 9.0.1) date 2025-06-14 22:11:49*
%MOMM*%
%LPD*%
G01*
G04 APERTURE LIST*
G04 Aperture macros list*
%AMRoundRect*
0 Rectangle with rounded corners*
0 $1 Rounding radius*
0 $2 $3 $4 $5 $6 $7 $8 $9 X,Y pos of 4 corners*
0 Add a 4 corners polygon primitive as box body*
4,1,4,$2,$3,$4,$5,$6,$7,$8,$9,$2,$3,0*
0 Add four circle primitives for the rounded corners*
1,1,$1+$1,$2,$3*
1,1,$1+$1,$4,$5*
1,1,$1+$1,$6,$7*
1,1,$1+$1,$8,$9*
0 Add four rect primitives between the rounded corners*
20,1,$1+$1,$2,$3,$4,$5,0*
20,1,$1+$1,$4,$5,$6,$7,0*
20,1,$1+$1,$6,$7,$8,$9,0*
20,1,$1+$1,$8,$9,$2,$3,0*%
G04 Aperture macros list end*
%TA.AperFunction,SMDPad,CuDef*%
%ADD10RoundRect,0.150000X-0.587500X-0.150000X0.587500X-0.150000X0.587500X0.150000X-0.587500X0.150000X0*%
%TD*%
%TA.AperFunction,ComponentPad*%
%ADD11C,1.200000*%
%TD*%
%TA.AperFunction,SMDPad,CuDef*%
%ADD12RoundRect,0.237500X-0.287500X-0.237500X0.287500X-0.237500X0.287500X0.237500X-0.287500X0.237500X0*%
%TD*%
%TA.AperFunction,SMDPad,CuDef*%
%ADD13RoundRect,0.237500X-0.237500X0.250000X-0.237500X-0.250000X0.237500X-0.250000X0.237500X0.250000X0*%
%TD*%
%TA.AperFunction,SMDPad,CuDef*%
%ADD14RoundRect,0.218750X0.218750X0.256250X-0.218750X0.256250X-0.218750X-0.256250X0.218750X-0.256250X0*%
%TD*%
%TA.AperFunction,SMDPad,CuDef*%
%ADD15RoundRect,0.237500X0.250000X0.237500X-0.250000X0.237500X-0.250000X-0.237500X0.250000X-0.237500X0*%
%TD*%
%TA.AperFunction,SMDPad,CuDef*%
%ADD16RoundRect,0.150000X0.587500X0.150000X-0.587500X0.150000X-0.587500X-0.150000X0.587500X-0.150000X0*%
%TD*%
%TA.AperFunction,SMDPad,CuDef*%
%ADD17RoundRect,0.237500X-0.250000X-0.237500X0.250000X-0.237500X0.250000X0.237500X-0.250000X0.237500X0*%
%TD*%
%TA.AperFunction,SMDPad,CuDef*%
%ADD18RoundRect,0.218750X-0.218750X-0.256250X0.218750X-0.256250X0.218750X0.256250X-0.218750X0.256250X0*%
%TD*%
%TA.AperFunction,ComponentPad*%
%ADD19C,1.950000*%
%TD*%
%TA.AperFunction,ViaPad*%
%ADD20C,0.600000*%
%TD*%
%TA.AperFunction,Conductor*%
%ADD21C,0.400000*%
%TD*%
G04 APERTURE END LIST*
D10*
%TO.P,Q5,1,G*%
%TO.N,Net-(Q5-G)*%
X94062500Y-73050000D03*
%TO.P,Q5,2,S*%
%TO.N,GND*%
X94062500Y-74950000D03*
%TO.P,Q5,3,D*%
%TO.N,Net-(D2-A)*%
X95937500Y-74000000D03*
%TD*%
D11*
%TO.P,K3,1,COIL_1*%
%TO.N,+24V*%
X99357500Y-75300000D03*
%TO.P,K3,2,NC_1*%
%TO.N,unconnected-(K3-NC_1-Pad2)*%
X99357500Y-78500000D03*
%TO.P,K3,3,COM_1*%
%TO.N,+24V*%
X99357500Y-80700000D03*
%TO.P,K3,4,NO_1*%
%TO.N,Net-(K3-NO_1)*%
X99357500Y-82900000D03*
%TO.P,K3,5,NO_2*%
%TO.N,/TSAL_COLUMN*%
X104437500Y-82900000D03*
%TO.P,K3,6,COM_2*%
%TO.N,+24V*%
X104437500Y-80700000D03*
%TO.P,K3,7,NC_2*%
%TO.N,unconnected-(K3-NC_2-Pad7)*%
X104437500Y-78500000D03*
%TO.P,K3,8,COIL_2*%
%TO.N,Net-(D2-A)*%
X104437500Y-75300000D03*
%TD*%
D12*
%TO.P,D2,1,K*%
%TO.N,+24V*%
X101125000Y-72000000D03*
%TO.P,D2,2,A*%
%TO.N,Net-(D2-A)*%
X102875000Y-72000000D03*
%TD*%
D13*
%TO.P,R12,1*%
%TO.N,/TSAL_LED*%
X96437500Y-77175000D03*
%TO.P,R12,2*%
%TO.N,Net-(K3-NO_1)*%
X96437500Y-79000000D03*
%TD*%
D12*
%TO.P,D1,1,K*%
%TO.N,+24V*%
X111125000Y-72000000D03*
%TO.P,D1,2,A*%
%TO.N,Net-(D1-A)*%
X112875000Y-72000000D03*
%TD*%
D11*
%TO.P,K4,1,COIL_1*%
%TO.N,+24V*%
X109357500Y-75500000D03*
%TO.P,K4,2,NC_1*%
%TO.N,/IMD_COLUMN*%
X109357500Y-78700000D03*
%TO.P,K4,3,COM_1*%
%TO.N,+24V*%
X109357500Y-80900000D03*
%TO.P,K4,4,NO_1*%
%TO.N,unconnected-(K4-NO_1-Pad4)*%
X109357500Y-83100000D03*
%TO.P,K4,5,NO_2*%
%TO.N,unconnected-(K4-NO_2-Pad5)*%
X114437500Y-83100000D03*
%TO.P,K4,6,COM_2*%
%TO.N,+24V*%
X114437500Y-80900000D03*
%TO.P,K4,7,NC_2*%
%TO.N,Net-(K4-NC_2)*%
X114437500Y-78700000D03*
%TO.P,K4,8,COIL_2*%
%TO.N,Net-(D1-A)*%
X114437500Y-75500000D03*
%TD*%
D14*
%TO.P,D4,1,K*%
%TO.N,GND*%
X121725000Y-80000000D03*
%TO.P,D4,2,A*%
%TO.N,/IMD_LED*%
X120150000Y-80000000D03*
%TD*%
D15*
%TO.P,R22,1*%
%TO.N,Net-(Q4-G)*%
X123850000Y-73000000D03*
%TO.P,R22,2*%
%TO.N,GND*%
X122025000Y-73000000D03*
%TD*%
D16*
%TO.P,Q4,1,G*%
%TO.N,Net-(Q4-G)*%
X119875000Y-74950000D03*
%TO.P,Q4,2,S*%
%TO.N,GND*%
X119875000Y-73050000D03*
%TO.P,Q4,3,D*%
%TO.N,Net-(D1-A)*%
X118000000Y-74000000D03*
%TD*%
D15*
%TO.P,R6,1*%
%TO.N,Net-(Q5-G)*%
X91850000Y-73000000D03*
%TO.P,R6,2*%
%TO.N,/TSAL_GREEN*%
X90025000Y-73000000D03*
%TD*%
D17*
%TO.P,R10,1*%
%TO.N,Net-(Q4-G)*%
X122112500Y-75000000D03*
%TO.P,R10,2*%
%TO.N,/IMD*%
X123937500Y-75000000D03*
%TD*%
D18*
%TO.P,D3,1,K*%
%TO.N,GND*%
X91712500Y-81000000D03*
%TO.P,D3,2,A*%
%TO.N,/TSAL_LED*%
X93287500Y-81000000D03*
%TD*%
D15*
%TO.P,R8,1*%
%TO.N,GND*%
X91850000Y-75000000D03*
%TO.P,R8,2*%
%TO.N,Net-(Q5-G)*%
X90025000Y-75000000D03*
%TD*%
D19*
%TO.P,J1,1,Pin_1*%
%TO.N,/TSAL_COLUMN*%
X86000000Y-65280000D03*
%TO.P,J1,2,Pin_2*%
%TO.N,/TSAL_LED*%
X91000000Y-65280000D03*
%TO.P,J1,3,Pin_3*%
%TO.N,/TSAL_GREEN*%
X96000000Y-65280000D03*
%TO.P,J1,4,Pin_4*%
%TO.N,+24V*%
X101000000Y-65280000D03*
%TO.P,J1,5,Pin_5*%
%TO.N,GND*%
X106000000Y-65280000D03*
%TO.P,J1,6,Pin_6*%
%TO.N,/IMD*%
X111000000Y-65280000D03*
%TO.P,J1,7,Pin_7*%
%TO.N,/IMD_LED*%
X116000000Y-65280000D03*
%TO.P,J1,8,Pin_8*%
%TO.N,/IMD_COLUMN*%
X121000000Y-65280000D03*
%TD*%
D13*
%TO.P,R11,1*%
%TO.N,/IMD_LED*%
X117437500Y-79087500D03*
%TO.P,R11,2*%
%TO.N,Net-(K4-NC_2)*%
X117437500Y-80912500D03*
%TD*%
D20*
%TO.N,GND*%
X112500000Y-78500000D03*
X107000000Y-79000000D03*
X117500000Y-82500000D03*
X121200000Y-74000000D03*
X123500000Y-81500000D03*
X101500000Y-82000000D03*
X89500000Y-78500000D03*
X96000000Y-81000000D03*
X107000000Y-75000000D03*
X112500000Y-82500000D03*
X102000000Y-78500000D03*
X107000000Y-84000000D03*
%TO.N,Net-(D1-A)*%
X117218750Y-74718750D03*
%TO.N,Net-(D2-A)*%
X98000000Y-75000000D03*
%TD*%
D21*
%TO.N,Net-(Q4-G)*%
X122112500Y-74975692D02*
X122112500Y-74977902D01*
X122112500Y-74967401D02*
X122112500Y-74970718D01*
X122112501Y-74935914D02*
X122112500Y-74938123D01*
X122112500Y-74971272D02*
X122112500Y-74973482D01*
X122112500Y-74940885D02*
X122112500Y-74944200D01*
X122112510Y-74857370D02*
X122112508Y-74869956D01*
X122112500Y-74977902D02*
X122112500Y-74980112D01*
X122112502Y-74911605D02*
X122112501Y-74922654D01*
X122112503Y-74900556D02*
X122112502Y-74911605D01*
X122112507Y-74880210D02*
X122112504Y-74897457D01*
X122112500Y-74946962D02*
X122112500Y-74955801D01*
X122112500Y-74973482D02*
X122112500Y-74975692D01*
X122112501Y-74924864D02*
X122112501Y-74931494D01*
X122112500Y-74955801D02*
X122112500Y-74964640D01*
X122112500Y-74938123D02*
X122112500Y-74940332D01*
X122112501Y-74933704D02*
X122112501Y-74935914D01*
X122112500Y-74980664D02*
X122112500Y-74981769D01*
%TO.N,+24V*%
X98248699Y-71248699D02*
G75*
G03*
X100062500Y-72000001I1813801J1813799D01*
G01*
X101000000Y-65640000D02*
G75*
G03*
X100640000Y-65280000I-360000J0D01*
G01*
X110638864Y-70138864D02*
G75*
G02*
X111124992Y-71312500I-1173664J-1173636D01*
G01*
X101000000Y-65640000D02*
G75*
G03*
X101254561Y-66254555I869100J0D01*
G01*
X97530329Y-67969669D02*
G75*
G03*
X97000010Y-69250000I1280371J-1280331D01*
G01*
X110562500Y-70062500D02*
G75*
G03*
X109204504Y-69499998I-1358000J-1358000D01*
G01*
X97000000Y-69250000D02*
G75*
G03*
X97530322Y-70530338I1810700J0D01*
G01*
X100610000Y-65280000D02*
G75*
G03*
X99944237Y-65555780I0J-941500D01*
G01*
X102750000Y-67750000D02*
G75*
G03*
X106974873Y-69500011I4224900J4224900D01*
G01*
X109357504Y-74667814D02*
X109357503Y-74735939D01*
X109357496Y-75295327D02*
X109357494Y-75460942D01*
X109357494Y-75460942D02*
X109357491Y-75626557D01*
X99357507Y-74620003D02*
X99357504Y-74792502D01*
X109357502Y-74884375D02*
X109357501Y-74976874D01*
X99357502Y-74953209D02*
X99357498Y-75149298D01*
X99357490Y-75642261D02*
X99357489Y-75694917D01*
X99357497Y-75299998D02*
X99357495Y-75405309D01*
X99357498Y-75194687D02*
X99357497Y-75299998D01*
X99357495Y-75405309D02*
X99357493Y-75510621D01*
X99357493Y-75510621D02*
X99357491Y-75615933D01*
X109357500Y-75042502D02*
X109357497Y-75266257D01*
X109357490Y-75682498D02*
X109357489Y-75774996D01*
X109357503Y-74791876D02*
X109357502Y-74884375D01*
%TO.N,Net-(Q4-G)*%
X122112508Y-74869956D02*
X122112507Y-74880210D01*
X122112500Y-74967401D02*
X122112500Y-74964640D01*
X122112501Y-74922654D02*
X122112501Y-74924864D01*
X122112500Y-74980112D02*
X122112500Y-74980664D01*
X122112500Y-74944200D02*
X122112500Y-74946962D01*
X122112500Y-74940885D02*
X122112500Y-74940332D01*
X122112500Y-74970718D02*
X122112500Y-74971272D01*
X122112503Y-74900556D02*
X122112504Y-74897457D01*
X122112501Y-74931494D02*
X122112501Y-74933704D01*
%TO.N,+24V*%
X110638864Y-70138864D02*
X110562500Y-70062500D01*
X111125000Y-71312500D02*
X111125000Y-72000000D01*
X109204504Y-69500000D02*
X106974873Y-69500000D01*
X109357491Y-75626557D02*
X109357490Y-75682498D01*
X109357501Y-74976874D02*
X109357500Y-75042502D01*
X109357496Y-75295327D02*
X109357497Y-75266257D01*
X99357504Y-74792502D02*
X99357502Y-74953209D01*
X99357490Y-75642261D02*
X99357491Y-75615933D01*
X109357503Y-74735939D02*
X109357503Y-74791876D01*
%TO.N,/TSAL_GREEN*%
X92585786Y-70000000D02*
G75*
G03*
X95000004Y-69000004I14J3414200D01*
G01*
X91689429Y-70000000D02*
G75*
G03*
X90512491Y-70487491I-29J-1664400D01*
G01*
X95038334Y-68961665D02*
G75*
G03*
X96000008Y-66640000I-2321634J2321665D01*
G01*
X90025000Y-71664429D02*
G75*
G02*
X90512491Y-70487491I1664400J29D01*
G01*
%TO.N,+24V*%
X99357498Y-75149298D02*
X99357498Y-75194687D01*
%TO.N,/TSAL_GREEN*%
X92585786Y-70000000D02*
X91689429Y-70000000D01*
X95038334Y-68961665D02*
X94999999Y-68999999D01*
X96000000Y-66640000D02*
X96000000Y-65280000D01*
X90025000Y-71664429D02*
X90025000Y-73000000D01*
%TO.N,/TSAL_COLUMN*%
X103637499Y-83699999D02*
G75*
G02*
X101706129Y-84500011I-1931399J1931399D01*
G01*
X99853553Y-84500000D02*
G75*
G02*
X96835802Y-83249982I47J4267800D01*
G01*
X93818017Y-81999999D02*
G75*
G02*
X96835783Y-83250001I-17J-4267801D01*
G01*
X104162499Y-83175000D02*
X104162499Y-83175000D01*
X103637499Y-83699999D02*
X104162499Y-83175000D01*
X99853553Y-84500000D02*
X101706129Y-84500000D01*
X93818017Y-81999999D02*
X91414214Y-81999999D01*
X86999999Y-66280000D02*
X86000000Y-65280000D01*
X87999998Y-68694213D02*
X87999995Y-78585787D01*
X91414214Y-81999999D02*
G75*
G02*
X88999995Y-81000002I-14J3414199D01*
G01*
X87999995Y-78585787D02*
G75*
G03*
X88999991Y-81000006I3414205J-13D01*
G01*
X86999999Y-66280000D02*
G75*
G02*
X87999994Y-68694213I-2414199J-2414200D01*
G01*
%TO.N,Net-(D2-A)*%
X96437500Y-73999999D02*
G75*
G02*
X97291052Y-74353553I0J-1207101D01*
G01*
X97968750Y-74999999D02*
G75*
G02*
X97915436Y-74977866I50J75399D01*
G01*
X102875010Y-72868745D02*
G75*
G03*
X103489322Y-74351780I2097390J45D01*
G01*
%TO.N,Net-(D1-A)*%
X117915392Y-74022080D02*
G75*
G02*
X117968746Y-74000003I53308J-53320D01*
G01*
X113559998Y-74622514D02*
G75*
G02*
X112875004Y-72968754I1653702J1653714D01*
G01*
%TO.N,Net-(Q5-G)*%
X91850000Y-73087500D02*
G75*
G02*
X91788141Y-73236883I-211300J0D01*
G01*
X91850000Y-73087500D02*
G75*
G02*
X91937498Y-73000000I87500J0D01*
G01*
X93977143Y-73000000D02*
G75*
G02*
X94037486Y-73025013I-43J-85400D01*
G01*
%TO.N,Net-(Q4-G)*%
X122192827Y-74657206D02*
G75*
G03*
X122112507Y-74851077I193873J-193894D01*
G01*
X122100000Y-74987500D02*
G75*
G03*
X122112554Y-74982322I5200J5200D01*
G01*
X122027142Y-74950000D02*
G75*
G02*
X122087487Y-74975013I-42J-85400D01*
G01*
X122112500Y-74982322D02*
X122112500Y-74981769D01*
%TO.N,Net-(K4-NC_2)*%
X114831246Y-78700008D02*
G75*
G02*
X115503395Y-78978455I-46J-950592D01*
G01*
X117384458Y-80859472D02*
G75*
G02*
X117437480Y-80987502I-128058J-128028D01*
G01*
%TO.N,Net-(K3-NO_1)*%
X96768941Y-80268964D02*
G75*
G02*
X96437501Y-79468754I800159J800164D01*
G01*
X99342486Y-82842464D02*
G75*
G02*
X99357481Y-82878746I-36286J-36236D01*
G01*
%TO.N,/TSAL_LED*%
X89587492Y-76587498D02*
G75*
G02*
X89000017Y-75169155I1418308J1418298D01*
G01*
X92743926Y-78918903D02*
G75*
G02*
X93287489Y-80231245I-1312326J-1312297D01*
G01*
X90793752Y-77174994D02*
G75*
G02*
X89737483Y-76737469I48J1493894D01*
G01*
X91145839Y-77320843D02*
G75*
G03*
X90793747Y-77174958I-352139J-352057D01*
G01*
X91206246Y-77175005D02*
G75*
G03*
X91145858Y-77320824I-46J-85395D01*
G01*
X90000000Y-66280000D02*
G75*
G03*
X89000006Y-68694213I2414200J-2414200D01*
G01*
X91206246Y-77175005D02*
X90793747Y-77175005D01*
%TO.N,/IMD_LED*%
X116468742Y-76968753D02*
G75*
G02*
X115500000Y-74629983I2338758J2338753D01*
G01*
X115500000Y-66133553D02*
G75*
G02*
X115750014Y-65530014I853600J-47D01*
G01*
X117030906Y-77530917D02*
G75*
G02*
X117437484Y-78512501I-981606J-981583D01*
G01*
%TO.N,/IMD*%
X117299999Y-67899999D02*
G75*
G03*
X118200002Y-65727206I-2172799J2172799D01*
G01*
X116399998Y-75092894D02*
G75*
G03*
X116899996Y-76300003I1707102J-6D01*
G01*
X117299999Y-67899999D02*
G75*
G03*
X116399995Y-70072791I2172801J-2172801D01*
G01*
X115810049Y-62600000D02*
G75*
G02*
X117499985Y-63300014I-49J-2390000D01*
G01*
X121654248Y-76799998D02*
G75*
G03*
X123268712Y-76131218I-48J2283198D01*
G01*
X123937489Y-75231245D02*
G75*
G02*
X123773949Y-75625991I-558289J45D01*
G01*
X117499999Y-63300000D02*
G75*
G02*
X118199950Y-64989949I-1689999J-1689900D01*
G01*
X115240000Y-62600000D02*
G75*
G03*
X112576909Y-63703080I0J-3766200D01*
G01*
X118107106Y-76799998D02*
G75*
G02*
X116899999Y-76300000I-6J1707098D01*
G01*
%TO.N,+24V*%
X101062500Y-72062499D02*
G75*
G03*
X101062500Y-71937500I-62500J62499D01*
G01*
X99899331Y-73225685D02*
G75*
G03*
X99357479Y-74533753I1308069J-1308115D01*
G01*
X98000018Y-78421249D02*
G75*
G02*
X98651408Y-76848566I2224082J49D01*
G01*
X99357489Y-75721245D02*
G75*
G02*
X99059619Y-76440362I-1017089J45D01*
G01*
X109357505Y-74633752D02*
G75*
G02*
X109970064Y-73154999I2091295J-48D01*
G01*
X98651430Y-79993914D02*
G75*
G02*
X97999978Y-78421249I1572670J1572714D01*
G01*
X108678750Y-80221249D02*
G75*
G02*
X108000000Y-78582601I1638650J1638649D01*
G01*
X101062502Y-71937498D02*
G75*
G02*
X100999998Y-71786609I150898J150898D01*
G01*
X109357489Y-75821245D02*
G75*
G02*
X109130313Y-76369635I-775589J45D01*
G01*
X108678740Y-76821245D02*
G75*
G03*
X107999988Y-78459892I1638660J-1638655D01*
G01*
X109357489Y-75821245D02*
X109357489Y-75774996D01*
%TO.N,Net-(Q4-G)*%
X122100000Y-74987500D02*
X122087500Y-74975000D01*
%TO.N,/TSAL_LED*%
X90793747Y-77175005D02*
X90587500Y-77175000D01*
X90793752Y-77174994D02*
X91412500Y-77175000D01*
%TO.N,+24V*%
X99357489Y-75721245D02*
X99357489Y-75694917D01*
X109357500Y-80900000D02*
X114437500Y-80900000D01*
X98651419Y-76848577D02*
X99059619Y-76440362D01*
X108678740Y-76821245D02*
X109130326Y-76369648D01*
X108000001Y-78459892D02*
X108000001Y-78582601D01*
X98651430Y-79993914D02*
X99357500Y-80700000D01*
X108678750Y-80221249D02*
X109357500Y-80900000D01*
X109357504Y-74667814D02*
X109357505Y-74633752D01*
X111125000Y-72000000D02*
X109970037Y-73154972D01*
X101062500Y-72062499D02*
X99899331Y-73225685D01*
X114517500Y-80980000D02*
X114517500Y-81300000D01*
X99357507Y-74620003D02*
X99357508Y-74533753D01*
X99357500Y-80700000D02*
X104437500Y-80700000D01*
%TO.N,/IMD*%
X123937489Y-75231245D02*
X123937500Y-75000000D01*
X112576914Y-63703085D02*
X111000000Y-65280000D01*
X123773965Y-75626007D02*
X123268738Y-76131244D01*
X118107106Y-76799998D02*
X121654248Y-76799998D01*
X118199997Y-65727206D02*
X118199998Y-64989949D01*
X116399998Y-75092894D02*
X116400000Y-70072791D01*
X115240000Y-62600000D02*
X115810049Y-62600000D01*
%TO.N,/IMD_LED*%
X117437496Y-78512501D02*
X117437500Y-79087500D01*
X117981250Y-79456249D02*
X117437500Y-78912500D01*
X115750000Y-65530000D02*
X116000000Y-65280000D01*
X115500000Y-66133553D02*
X115499993Y-74629983D01*
X116468742Y-76968753D02*
X117030906Y-77530917D01*
%TO.N,/TSAL_LED*%
X89587492Y-76587498D02*
X89737476Y-76737476D01*
X93287511Y-80231245D02*
X93287500Y-81000000D01*
X88999997Y-68694213D02*
X88999981Y-75169155D01*
X91206246Y-77175005D02*
X96437500Y-77175000D01*
X92743926Y-78918903D02*
X91145839Y-77320843D01*
X90000000Y-66280000D02*
X91000000Y-65280000D01*
%TO.N,Net-(K3-NO_1)*%
X99342486Y-82842464D02*
X96768941Y-80268964D01*
X96437490Y-79468754D02*
X96437500Y-79000000D01*
X99357507Y-82878746D02*
X99357500Y-82900000D01*
%TO.N,Net-(K4-NC_2)*%
X117437495Y-80987502D02*
X117437500Y-81062500D01*
X114831246Y-78700008D02*
X114437500Y-78700000D01*
X117384458Y-80859472D02*
X115503414Y-78978436D01*
%TO.N,Net-(Q4-G)*%
X122027142Y-74950000D02*
X119875000Y-74950000D01*
X122112510Y-74857370D02*
X122112511Y-74851077D01*
X122192827Y-74657206D02*
X123850000Y-73000000D01*
%TO.N,Net-(Q5-G)*%
X91788128Y-73236870D02*
X90025000Y-75000000D01*
X94037499Y-73025000D02*
X94062500Y-73050000D01*
X93977143Y-73000000D02*
X91937498Y-73000000D01*
%TO.N,Net-(D1-A)*%
X112874990Y-72968754D02*
X112875000Y-72000000D01*
X117968746Y-73999990D02*
X118000000Y-74000000D01*
X117915392Y-74022080D02*
X117218750Y-74718750D01*
X113559998Y-74622514D02*
X114437500Y-75500000D01*
%TO.N,Net-(D2-A)*%
X103489310Y-74351792D02*
X104437500Y-75300000D01*
X97291053Y-74353552D02*
X97915402Y-74977900D01*
X102875010Y-72868745D02*
X102875000Y-72000000D01*
X96437500Y-73999999D02*
X95937500Y-74000000D01*
X97968750Y-74999999D02*
X98000000Y-75000000D01*
%TO.N,/TSAL_COLUMN*%
X104162499Y-83175000D02*
X103887499Y-83450000D01*
%TO.N,/IMD_LED*%
X119293978Y-79999999D02*
X120150000Y-80000000D01*
X117981250Y-79456249D02*
G75*
G03*
X119293978Y-80000008I1312750J1312749D01*
G01*
%TO.N,+24V*%
X100640000Y-65280000D02*
X100610000Y-65280000D01*
X101254558Y-66254558D02*
X102750000Y-67750000D01*
X100062500Y-72000000D02*
X101125000Y-72000000D01*
X98248699Y-71248699D02*
X97530330Y-70530330D01*
X97530329Y-67969669D02*
X99944228Y-65555771D01*
%TD*%
%TA.AperFunction,Conductor*%
%TO.N,GND*%
G36*
X124004126Y-59500965D02*
G01*
X124014292Y-59502110D01*
X124102873Y-59512091D01*
X124119013Y-59515775D01*
X124208852Y-59547211D01*
X124223781Y-59554400D01*
X124304372Y-59605038D01*
X124317328Y-59615370D01*
X124384629Y-59682671D01*
X124394961Y-59695627D01*
X124445599Y-59776218D01*
X124452788Y-59791147D01*
X124484222Y-59880980D01*
X124487909Y-59897131D01*
X124499035Y-59995873D01*
X124499500Y-60004159D01*
X124499500Y-72366387D01*
X124477826Y-72418713D01*
X124425500Y-72440387D01*
X124381558Y-72425928D01*
X124306972Y-72370882D01*
X124182354Y-72327276D01*
X124182355Y-72327276D01*
X124182350Y-72327275D01*
X124182349Y-72327275D01*
X124152756Y-72324500D01*
X123547244Y-72324500D01*
X123517651Y-72327275D01*
X123517649Y-72327275D01*
X123517645Y-72327276D01*
X123393026Y-72370882D01*
X123286790Y-72449288D01*
X123286788Y-72449290D01*
X123208382Y-72555526D01*
X123164776Y-72680145D01*
X123164775Y-72680149D01*
X123164775Y-72680151D01*
X123164100Y-72687356D01*
X123162000Y-72709749D01*
X123162000Y-73090964D01*
X123140326Y-73143289D01*
X122937671Y-73345948D01*
X122885346Y-73367623D01*
X122833020Y-73345949D01*
X122811345Y-73293624D01*
X122811873Y-73284798D01*
X122812500Y-73279577D01*
X122812500Y-73250000D01*
X122275000Y-73250000D01*
X122275000Y-73775000D01*
X122317081Y-73775000D01*
X122317081Y-73774999D01*
X122322307Y-73774372D01*
X122376845Y-73789648D01*
X122404607Y-73839014D01*
X122389331Y-73893552D01*
X122383463Y-73900168D01*
X121980813Y-74302826D01*
X121928490Y-74324500D01*
X121809744Y-74324500D01*
X121780151Y-74327275D01*
X121780149Y-74327275D01*
X121780145Y-74327276D01*
X121655525Y-74370883D01*
X121655523Y-74370884D01*
X121549293Y-74449284D01*
X121549287Y-74449291D01*
X121497514Y-74519442D01*
X121449003Y-74548673D01*
X121437974Y-74549500D01*
X120738333Y-74549500D01*
X120686007Y-74527826D01*
X120668982Y-74510801D01*
X120563894Y-74459427D01*
X120495764Y-74449500D01*
X120495760Y-74449500D01*
X119254240Y-74449500D01*
X119254235Y-74449500D01*
X119186106Y-74459427D01*
X119186105Y-74459427D01*
X119081017Y-74510801D01*
X118998301Y-74593517D01*
X118946927Y-74698605D01*
X118946927Y-74698606D01*
X118937000Y-74766735D01*
X118937000Y-75133264D01*
X118946927Y-75201393D01*
X118946927Y-75201394D01*
X118998301Y-75306482D01*
X118998302Y-75306483D01*
X119081017Y-75389198D01*
X119186107Y-75440573D01*
X119254240Y-75450500D01*
X119254246Y-75450500D01*
X120495754Y-75450500D01*
X120495760Y-75450500D01*
X120563893Y-75440573D01*
X120668983Y-75389198D01*
X120686007Y-75372174D01*
X120738333Y-75350500D01*
X121385495Y-75350500D01*
X121437821Y-75372174D01*
X121455342Y-75400060D01*
X121470882Y-75444472D01*
X121470883Y-75444474D01*
X121470884Y-75444475D01*
X121549289Y-75550711D01*
X121627695Y-75608576D01*
X121655526Y-75629117D01*
X121780145Y-75672723D01*
X121780151Y-75672725D01*
X121809744Y-75675500D01*
X121809751Y-75675500D01*
X122415249Y-75675500D01*
X122415256Y-75675500D01*
X122444849Y-75672725D01*
X122501532Y-75652890D01*
X122569473Y-75629117D01*
X122569473Y-75629116D01*
X122569475Y-75629116D01*
X122675711Y-75550711D01*
X122754116Y-75444475D01*
X122755482Y-75440573D01*
X122797723Y-75319854D01*
X122797722Y-75319854D01*
X122797725Y-75319849D01*
X122800500Y-75290256D01*
X122800500Y-74709744D01*
X122797725Y-74680151D01*
X122797151Y-74678510D01*
X122797195Y-74677725D01*
X122796764Y-74675752D01*
X122797312Y-74675632D01*
X122800326Y-74621963D01*
X122814672Y-74601745D01*
X122839624Y-74576793D01*
X123719225Y-73697174D01*
X123771550Y-73675500D01*
X124152749Y-73675500D01*
X124152756Y-73675500D01*
X124182349Y-73672725D01*
X124243166Y-73651444D01*
X124306973Y-73629117D01*
X124306973Y-73629116D01*
X124306975Y-73629116D01*
X124381558Y-73574071D01*
X124436529Y-73560439D01*
X124485040Y-73589669D01*
X124499500Y-73633612D01*
X124499500Y-74303581D01*
X124477826Y-74355907D01*
X124425500Y-74377581D01*
X124400200Y-74371310D01*
X124399709Y-74372715D01*
X124269854Y-74327276D01*
X124269855Y-74327276D01*
X124269850Y-74327275D01*
X124269849Y-74327275D01*
X124240256Y-74324500D01*
X123634744Y-74324500D01*
X123605151Y-74327275D01*
X123605149Y-74327275D01*
X123605145Y-74327276D01*
X123480526Y-74370882D01*
X123374290Y-74449288D01*
X123374288Y-74449290D01*
X123295882Y-74555526D01*
X123252276Y-74680145D01*
X123252275Y-74680149D01*
X123252275Y-74680151D01*
X123249500Y-74709744D01*
X123249500Y-75290256D01*
X123252275Y-75319849D01*
X123252275Y-75319851D01*
X123252276Y-75319854D01*
X123295883Y-75444474D01*
X123297657Y-75446878D01*
X123298101Y-75448671D01*
X123298474Y-75449376D01*
X123298299Y-75449468D01*
X123311287Y-75501851D01*
X123290440Y-75543142D01*
X123026253Y-75807336D01*
X123026250Y-75807338D01*
X123010608Y-75822979D01*
X122999234Y-75834354D01*
X122987244Y-75846344D01*
X122983711Y-75849653D01*
X122804026Y-76007242D01*
X122796347Y-76013135D01*
X122599642Y-76144577D01*
X122591259Y-76149417D01*
X122379081Y-76254058D01*
X122370138Y-76257762D01*
X122146127Y-76333810D01*
X122136777Y-76336316D01*
X121904740Y-76382476D01*
X121895144Y-76383739D01*
X121657229Y-76399339D01*
X121652387Y-76399498D01*
X118110014Y-76399498D01*
X118104208Y-76399270D01*
X117908509Y-76383868D01*
X117897040Y-76382051D01*
X117709004Y-76336908D01*
X117697960Y-76333320D01*
X117519298Y-76259316D01*
X117508952Y-76254044D01*
X117344067Y-76153003D01*
X117334673Y-76146178D01*
X117187629Y-76020591D01*
X117179418Y-76012380D01*
X117177632Y-76010289D01*
X117053820Y-75865323D01*
X117047002Y-75855940D01*
X116945952Y-75691040D01*
X116940685Y-75680702D01*
X116919718Y-75630083D01*
X116866675Y-75502028D01*
X116863094Y-75491008D01*
X116817946Y-75302945D01*
X116816132Y-75291490D01*
X116816035Y-75290256D01*
X116808430Y-75193624D01*
X116825932Y-75139760D01*
X116876396Y-75114047D01*
X116919199Y-75123732D01*
X117025564Y-75185142D01*
X117152855Y-75219249D01*
X117152856Y-75219250D01*
X117152858Y-75219250D01*
X117284644Y-75219250D01*
X117284644Y-75219249D01*
X117411936Y-75185142D01*
X117526064Y-75119250D01*
X117619250Y-75026064D01*
X117685142Y-74911936D01*
X117714122Y-74803778D01*
X117733273Y-74770609D01*
X117753882Y-74750000D01*
X117955201Y-74548673D01*
X117981698Y-74522175D01*
X118034024Y-74500500D01*
X118620754Y-74500500D01*
X118620760Y-74500500D01*
X118688893Y-74490573D01*
X118793983Y-74439198D01*
X118876698Y-74356483D01*
X118928073Y-74251393D01*
X118938000Y-74183260D01*
X118938000Y-73816740D01*
X118928073Y-73748607D01*
X118876698Y-73643517D01*
X118793983Y-73560802D01*
X118793982Y-73560801D01*
X118688894Y-73509427D01*
X118620764Y-73499500D01*
X118620760Y-73499500D01*
X117379240Y-73499500D01*
X117379235Y-73499500D01*
X117311106Y-73509427D01*
X117311105Y-73509427D01*
X117206017Y-73560801D01*
X117123301Y-73643517D01*
X117071927Y-73748605D01*
X117071927Y-73748606D01*
X117062000Y-73816735D01*
X117062000Y-74185938D01*
X117061072Y-74185938D01*
X117058016Y-74195135D01*
X117059663Y-74207642D01*
X117049433Y-74220974D01*
X117044137Y-74236917D01*
X117025185Y-74252576D01*
X116961099Y-74289577D01*
X116911498Y-74318214D01*
X116855346Y-74325607D01*
X116810412Y-74291129D01*
X116800498Y-74254128D01*
X116800498Y-73365956D01*
X116800498Y-73300000D01*
X118845737Y-73300000D01*
X118885152Y-73412643D01*
X118965707Y-73521791D01*
X118965708Y-73521792D01*
X119074856Y-73602347D01*
X119074855Y-73602347D01*
X119202885Y-73647146D01*
X119202893Y-73647148D01*
X119233302Y-73649999D01*
X119625000Y-73649999D01*
X120125000Y-73649999D01*
X120516694Y-73649999D01*
X120516705Y-73649998D01*
X120547102Y-73647149D01*
X120547111Y-73647147D01*
X120675143Y-73602347D01*
X120784291Y-73521792D01*
X120784292Y-73521791D01*
X120864847Y-73412643D01*
X120904263Y-73300000D01*
X120125000Y-73300000D01*
X120125000Y-73649999D01*
X119625000Y-73649999D01*
X119625000Y-73300000D01*
X118845737Y-73300000D01*
X116800498Y-73300000D01*
X116800498Y-73279580D01*
X121237499Y-73279580D01*
X121247873Y-73365956D01*
X121302077Y-73503410D01*
X121391356Y-73621142D01*
X121391357Y-73621143D01*
X121509089Y-73710422D01*
X121646543Y-73764626D01*
X121732920Y-73775000D01*
X121775000Y-73775000D01*
X121775000Y-73250000D01*
X121237500Y-73250000D01*
X121237500Y-73279580D01*
X121237499Y-73279580D01*
X116800498Y-73279580D01*
X116800498Y-72799999D01*
X118845737Y-72799999D01*
X118845738Y-72800000D01*
X119625000Y-72800000D01*
X120125000Y-72800000D01*
X120904262Y-72800000D01*
X120884195Y-72742651D01*
X120884194Y-72742650D01*
X120876415Y-72720419D01*
X121237500Y-72720419D01*
X121237500Y-72750000D01*
X121775000Y-72750000D01*
X122275000Y-72750000D01*
X122812500Y-72750000D01*
X122812500Y-72720419D01*
X122802126Y-72634043D01*
X122747922Y-72496589D01*
X122658643Y-72378857D01*
X122658642Y-72378856D01*
X122540910Y-72289577D01*
X122403456Y-72235373D01*
X122317080Y-72225000D01*
X122275000Y-72225000D01*
X122275000Y-72750000D01*
X121775000Y-72750000D01*
X121775000Y-72225000D01*
X121732920Y-72225000D01*
X121646543Y-72235373D01*
X121509089Y-72289577D01*
X121391357Y-72378856D01*
X121391356Y-72378857D01*
X121302077Y-72496589D01*
X121247873Y-72634043D01*
X121237500Y-72720419D01*
X120876415Y-72720419D01*
X120864845Y-72687353D01*
X120784292Y-72578208D01*
X120784291Y-72578207D01*
X120675143Y-72497652D01*
X120675144Y-72497652D01*
X120547114Y-72452853D01*
X120547106Y-72452851D01*
X120516698Y-72450000D01*
X120125000Y-72450000D01*
X120125000Y-72800000D01*
X119625000Y-72800000D01*
X119625000Y-72450000D01*
X119233306Y-72450000D01*
X119233293Y-72450001D01*
X119202897Y-72452850D01*
X119202888Y-72452852D01*
X119074856Y-72497652D01*
X118965708Y-72578207D01*
X118965707Y-72578208D01*
X118885152Y-72687356D01*
X118845737Y-72799999D01*
X116800498Y-72799999D01*
X116800499Y-70074838D01*
X116800613Y-70070760D01*
X116817072Y-69777720D01*
X116817999Y-69769496D01*
X116866806Y-69482240D01*
X116868645Y-69474179D01*
X116949316Y-69194168D01*
X116952046Y-69186365D01*
X117063562Y-68917142D01*
X117067144Y-68909706D01*
X117208091Y-68654682D01*
X117212490Y-68647679D01*
X117381118Y-68410020D01*
X117386277Y-68403552D01*
X117581891Y-68184661D01*
X117584713Y-68181676D01*
X117623912Y-68142478D01*
X117623919Y-68142464D01*
X117703847Y-68062537D01*
X117920342Y-67798737D01*
X118109938Y-67514987D01*
X118270809Y-67214020D01*
X118401405Y-66898733D01*
X118500469Y-66572165D01*
X118567047Y-66237459D01*
X118600497Y-65897839D01*
X118600497Y-65727207D01*
X118600497Y-65669624D01*
X118600497Y-65469598D01*
X118600498Y-65187484D01*
X119824500Y-65187484D01*
X119824500Y-65372515D01*
X119853444Y-65555261D01*
X119853447Y-65555274D01*
X119910619Y-65731232D01*
X119910621Y-65731236D01*
X119994620Y-65896092D01*
X119994623Y-65896098D01*
X120099504Y-66040454D01*
X120103379Y-66045787D01*
X120234213Y-66176621D01*
X120383904Y-66285378D01*
X120494201Y-66341577D01*
X120548763Y-66369378D01*
X120548767Y-66369380D01*
X120724725Y-66426552D01*
X120724731Y-66426553D01*
X120724736Y-66426555D01*
X120807275Y-66439628D01*
X120907484Y-66455500D01*
X120907486Y-66455500D01*
X121092516Y-66455500D01*
X121165614Y-66443922D01*
X121275264Y-66426555D01*
X121275271Y-66426552D01*
X121275274Y-66426552D01*
X121451232Y-66369380D01*
X121451232Y-66369379D01*
X121451235Y-66369379D01*
X121616096Y-66285378D01*
X121765787Y-66176621D01*
X121896621Y-66045787D01*
X122005378Y-65896096D01*
X122089379Y-65731235D01*
X122101363Y-65694351D01*
X122146552Y-65555274D01*
X122146552Y-65555271D01*
X122146555Y-65555264D01*
X122175500Y-65372514D01*
X122175500Y-65187486D01*
X122146555Y-65004736D01*
X122146553Y-65004731D01*
X122146552Y-65004725D01*
X122089380Y-64828767D01*
X122089378Y-64828763D01*
X122062041Y-64775112D01*
X122005378Y-64663904D01*
X121896621Y-64514213D01*
X121765787Y-64383379D01*
X121765784Y-64383376D01*
X121765782Y-64383375D01*
X121616098Y-64274623D01*
X121616092Y-64274620D01*
X121451236Y-64190621D01*
X121451232Y-64190619D01*
X121275274Y-64133447D01*
X121275261Y-64133444D01*
X121092516Y-64104500D01*
X121092514Y-64104500D01*
X120907486Y-64104500D01*
X120907484Y-64104500D01*
X120724738Y-64133444D01*
X120724725Y-64133447D01*
X120548767Y-64190619D01*
X120548763Y-64190621D01*
X120383907Y-64274620D01*
X120383901Y-64274623D01*
X120234217Y-64383375D01*
X120103375Y-64514217D01*
X119994623Y-64663901D01*
X119994620Y-64663907D01*
X119910621Y-64828763D01*
X119910619Y-64828767D01*
X119853447Y-65004725D01*
X119853444Y-65004738D01*
X119824500Y-65187484D01*
X118600498Y-65187484D01*
X118600498Y-65184579D01*
X118600498Y-64932734D01*
X118600450Y-64932003D01*
X118600450Y-64926446D01*
X118600452Y-64852873D01*
X118573584Y-64580024D01*
X118520103Y-64311122D01*
X118483890Y-64191734D01*
X118440526Y-64048767D01*
X118440520Y-64048752D01*
X118335608Y-63795455D01*
X118206372Y-63553656D01*
X118128639Y-63437314D01*
X118054063Y-63325696D01*
X118054050Y-63325678D01*
X117880141Y-63113757D01*
X117880126Y-63113740D01*
X117827127Y-63060738D01*
X117827125Y-63060736D01*
X117823915Y-63057526D01*
X117823912Y-63057521D01*
X117816080Y-63049689D01*
X117738909Y-62972516D01*
X117738687Y-62972323D01*
X117686255Y-62919892D01*
X117686247Y-62919884D01*
X117474312Y-62745953D01*
X117474305Y-62745948D01*
X117246354Y-62593634D01*
X117246344Y-62593628D01*
X117004549Y-62464384D01*
X116751262Y-62359466D01*
X116751241Y-62359459D01*
X116488908Y-62279877D01*
X116488903Y-62279875D01*
X116359956Y-62254224D01*
X116219991Y-62226381D01*
X115947142Y-62199503D01*
X115947132Y-62199502D01*
X115947148Y-62199502D01*
X115867320Y-62199501D01*
X115867320Y-62199500D01*
X115862776Y-62199500D01*
X115810057Y-62199500D01*
X115752474Y-62199499D01*
X115752473Y-62199499D01*
X115746516Y-62199499D01*
X115746504Y-62199500D01*
X115182946Y-62199500D01*
X115182827Y-62199507D01*
X115058076Y-62199507D01*
X114695647Y-62231215D01*
X114695623Y-62231218D01*
X114337310Y-62294398D01*
X113985863Y-62388566D01*
X113985851Y-62388570D01*
X113643979Y-62513001D01*
X113643977Y-62513001D01*
X113314211Y-62666773D01*
X113314206Y-62666775D01*
X112999115Y-62848692D01*
X112999103Y-62848700D01*
X112701090Y-63057370D01*
X112701082Y-63057376D01*
X112422350Y-63291256D01*
X112332864Y-63380740D01*
X112332865Y-63380741D01*
X112332858Y-63380748D01*
X111536782Y-64176822D01*
X111484456Y-64198496D01*
X111454137Y-64191214D01*
X111453922Y-64191734D01*
X111451229Y-64190618D01*
X111275274Y-64133447D01*
X111275261Y-64133444D01*
X111092516Y-64104500D01*
X111092514Y-64104500D01*
X110907486Y-64104500D01*
X110907484Y-64104500D01*
X110724738Y-64133444D01*
X110724725Y-64133447D01*
X110548767Y-64190619D01*
X110548763Y-64190621D01*
X110383907Y-64274620D01*
X110383901Y-64274623D01*
X110234217Y-64383375D01*
X110103375Y-64514217D01*
X109994623Y-64663901D01*
X109994620Y-64663907D01*
X109910621Y-64828763D01*
X109910619Y-64828767D01*
X109853447Y-65004725D01*
X109853444Y-65004738D01*
X109824500Y-65187484D01*
X109824500Y-65372515D01*
X109853444Y-65555261D01*
X109853447Y-65555274D01*
X109910619Y-65731232D01*
X109910621Y-65731236D01*
X109994620Y-65896092D01*
X109994623Y-65896098D01*
X110099504Y-66040454D01*
X110103379Y-66045787D01*
X110234213Y-66176621D01*
X110383904Y-66285378D01*
X110494201Y-66341577D01*
X110548763Y-66369378D01*
X110548767Y-66369380D01*
X110724725Y-66426552D01*
X110724731Y-66426553D01*
X110724736Y-66426555D01*
X110807275Y-66439628D01*
X110907484Y-66455500D01*
X110907486Y-66455500D01*
X111092516Y-66455500D01*
X111165614Y-66443922D01*
X111275264Y-66426555D01*
X111275271Y-66426552D01*
X111275274Y-66426552D01*
X111451232Y-66369380D01*
X111451232Y-66369379D01*
X111451235Y-66369379D01*
X111616096Y-66285378D01*
X111765787Y-66176621D01*
X111896621Y-66045787D01*
X112005378Y-65896096D01*
X112089379Y-65731235D01*
X112101363Y-65694351D01*
X112146552Y-65555274D01*
X112146552Y-65555271D01*
X112146555Y-65555264D01*
X112175500Y-65372514D01*
X112175500Y-65187486D01*
X112146555Y-65004736D01*
X112146553Y-65004731D01*
X112146552Y-65004725D01*
X112089381Y-64828770D01*
X112088270Y-64826088D01*
X112088481Y-64826000D01*
X112088481Y-64825999D01*
X112088498Y-64825993D01*
X112089293Y-64825663D01*
X112085125Y-64772669D01*
X112103174Y-64743216D01*
X112823056Y-64023334D01*
X112858832Y-63987559D01*
X112861423Y-63985091D01*
X113102147Y-63766915D01*
X113107756Y-63762312D01*
X113120408Y-63752929D01*
X113367225Y-63569878D01*
X113373244Y-63565857D01*
X113650345Y-63399770D01*
X113656697Y-63396375D01*
X113948737Y-63258252D01*
X113955425Y-63255482D01*
X114259577Y-63146655D01*
X114266520Y-63144549D01*
X114579869Y-63066060D01*
X114586979Y-63064645D01*
X114906525Y-63017246D01*
X114913719Y-63016537D01*
X115189505Y-63002988D01*
X115238354Y-63000589D01*
X115241985Y-63000500D01*
X115297583Y-63000500D01*
X115807956Y-63000500D01*
X115812105Y-63000615D01*
X116028647Y-63012780D01*
X116036889Y-63013709D01*
X116248640Y-63049691D01*
X116256721Y-63051536D01*
X116463121Y-63111003D01*
X116470953Y-63113743D01*
X116669388Y-63195940D01*
X116676864Y-63199541D01*
X116864850Y-63303438D01*
X116871872Y-63307850D01*
X116996620Y-63396364D01*
X117047042Y-63432141D01*
X117053529Y-63437313D01*
X117183711Y-63553651D01*
X117213815Y-63580553D01*
X117219684Y-63586423D01*
X117362678Y-63746441D01*
X117367852Y-63752929D01*
X117492140Y-63928107D01*
X117496554Y-63935133D01*
X117600441Y-64123114D01*
X117604042Y-64130591D01*
X117686235Y-64329037D01*
X117688975Y-64336870D01*
X117748427Y-64543251D01*
X117750274Y-64551341D01*
X117786248Y-64763097D01*
X117787177Y-64771343D01*
X117799381Y-64988734D01*
X117799497Y-64992882D01*
X117799497Y-65725121D01*
X117799381Y-65729270D01*
X117782926Y-66022264D01*
X117781996Y-66030511D01*
X117733192Y-66317744D01*
X117731346Y-66325834D01*
X117650686Y-66605814D01*
X117647945Y-66613647D01*
X117536446Y-66882827D01*
X117532846Y-66890303D01*
X117391906Y-67145315D01*
X117387490Y-67152342D01*
X117218889Y-67389961D01*
X117213715Y-67396449D01*
X117018112Y-67615328D01*
X117015264Y-67618341D01*
X117006813Y-67626793D01*
X116976086Y-67657520D01*
X116976080Y-67657529D01*
X116973009Y-67660601D01*
X116973007Y-67660603D01*
X116896155Y-67737456D01*
X116679659Y-68001257D01*
X116679655Y-68001262D01*
X116490060Y-68285010D01*
X116490052Y-68285023D01*
X116329188Y-68585980D01*
X116329187Y-68585981D01*
X116198593Y-68901263D01*
X116099527Y-69227838D01*
X116047074Y-69491535D01*
X116015608Y-69538627D01*
X115960059Y-69549676D01*
X115912967Y-69518210D01*
X115900496Y-69477100D01*
X115900499Y-66529500D01*
X115922173Y-66477174D01*
X115974499Y-66455500D01*
X116092516Y-66455500D01*
X116165614Y-66443922D01*
X116275264Y-66426555D01*
X116275271Y-66426552D01*
X116275274Y-66426552D01*
X116451232Y-66369380D01*
X116451232Y-66369379D01*
X116451235Y-66369379D01*
X116616096Y-66285378D01*
X116765787Y-66176621D01*
X116896621Y-66045787D01*
X117005378Y-65896096D01*
X117089379Y-65731235D01*
X117101363Y-65694351D01*
X117146552Y-65555274D01*
X117146552Y-65555271D01*
X117146555Y-65555264D01*
X117175500Y-65372514D01*
X117175500Y-65187486D01*
X117146555Y-65004736D01*
X117146553Y-65004731D01*
X117146552Y-65004725D01*
X117089380Y-64828767D01*
X117089378Y-64828763D01*
X117062041Y-64775112D01*
X117005378Y-64663904D01*
X116896621Y-64514213D01*
X116765787Y-64383379D01*
X116765784Y-64383376D01*
X116765782Y-64383375D01*
X116616098Y-64274623D01*
X116616092Y-64274620D01*
X116451236Y-64190621D01*
X116451232Y-64190619D01*
X116275274Y-64133447D01*
X116275261Y-64133444D01*
X116092516Y-64104500D01*
X116092514Y-64104500D01*
X115907486Y-64104500D01*
X115907484Y-64104500D01*
X115724738Y-64133444D01*
X115724725Y-64133447D01*
X115548767Y-64190619D01*
X115548763Y-64190621D01*
X115383907Y-64274620D01*
X115383901Y-64274623D01*
X115234217Y-64383375D01*
X115103375Y-64514217D01*
X114994623Y-64663901D01*
X114994620Y-64663907D01*
X114910621Y-64828763D01*
X114910619Y-64828767D01*
X114853447Y-65004725D01*
X114853444Y-65004738D01*
X114824500Y-65187484D01*
X114824500Y-65372515D01*
X114853444Y-65555261D01*
X114853447Y-65555274D01*
X114910618Y-65731229D01*
X114994621Y-65896096D01*
X115085369Y-66020999D01*
X115099502Y-66064495D01*
X115099502Y-66077148D01*
X115099500Y-66077194D01*
X115099500Y-66133531D01*
X115099497Y-66195143D01*
X115099498Y-66195179D01*
X115099493Y-74687191D01*
X115099500Y-74687304D01*
X115099500Y-74791880D01*
X115104602Y-74850205D01*
X115087571Y-74904221D01*
X115037333Y-74930372D01*
X114983317Y-74913341D01*
X114978558Y-74908980D01*
X114947788Y-74878210D01*
X114870890Y-74826829D01*
X114816679Y-74790606D01*
X114816675Y-74790604D01*
X114816673Y-74790603D01*
X114816674Y-74790603D01*
X114671001Y-74730264D01*
X114670991Y-74730261D01*
X114558149Y-74707816D01*
X114516342Y-74699500D01*
X114358658Y-74699500D01*
X114358657Y-74699500D01*
X114267936Y-74717544D01*
X114212388Y-74706494D01*
X114201176Y-74697292D01*
X113844908Y-74341032D01*
X113841597Y-74337497D01*
X113679223Y-74152344D01*
X113673330Y-74144665D01*
X113537864Y-73941924D01*
X113533024Y-73933541D01*
X113463580Y-73792721D01*
X113425177Y-73714846D01*
X113421474Y-73705906D01*
X113418510Y-73697175D01*
X113343097Y-73475009D01*
X113340593Y-73465659D01*
X113335474Y-73439920D01*
X113293028Y-73226515D01*
X113291765Y-73216921D01*
X113285427Y-73120203D01*
X113275648Y-72970958D01*
X113275490Y-72966119D01*
X113275491Y-72911179D01*
X113275490Y-72911176D01*
X113275492Y-72714505D01*
X113297167Y-72662181D01*
X113325049Y-72644661D01*
X113369475Y-72629116D01*
X113475711Y-72550711D01*
X113554116Y-72444475D01*
X113555547Y-72440387D01*
X113587893Y-72347946D01*
X113597725Y-72319849D01*
X113600500Y-72290256D01*
X113600500Y-71709744D01*
X113597725Y-71680151D01*
X113591207Y-71661524D01*
X113554117Y-71555526D01*
X113497771Y-71479180D01*
X113475711Y-71449289D01*
X113390942Y-71386727D01*
X113369473Y-71370882D01*
X113244854Y-71327276D01*
X113244855Y-71327276D01*
X113244850Y-71327275D01*
X113244849Y-71327275D01*
X113215256Y-71324500D01*
X112534744Y-71324500D01*
X112505151Y-71327275D01*
X112505149Y-71327275D01*
X112505145Y-71327276D01*
X112380526Y-71370882D01*
X112274290Y-71449288D01*
X112274288Y-71449290D01*
X112195882Y-71555526D01*
X112152276Y-71680145D01*
X112152275Y-71680149D01*
X112152275Y-71680151D01*
X112149500Y-71709744D01*
X112149500Y-72290256D01*
X112152275Y-72319849D01*
X112152275Y-72319851D01*
X112152276Y-72319854D01*
X112195882Y-72444473D01*
X112235130Y-72497652D01*
X112274289Y-72550711D01*
X112380525Y-72629116D01*
X112424933Y-72644655D01*
X112467163Y-72682394D01*
X112474492Y-72714503D01*
X112474489Y-73025908D01*
X112474501Y-73026119D01*
X112474501Y-73085376D01*
X112474501Y-73122581D01*
X112508944Y-73428316D01*
X112577403Y-73728272D01*
X112666782Y-73983709D01*
X112679016Y-74018673D01*
X112679019Y-74018680D01*
X112812505Y-74295872D01*
X112812507Y-74295876D01*
X112812508Y-74295877D01*
X112976197Y-74556389D01*
X113168025Y-74796934D01*
X113168028Y-74796937D01*
X113237656Y-74866565D01*
X113237685Y-74866596D01*
X113634788Y-75263691D01*
X113656463Y-75316016D01*
X113655041Y-75330453D01*
X113641109Y-75400499D01*
X113637000Y-75421158D01*
X113637000Y-75578842D01*
X113646636Y-75627285D01*
X113667761Y-75733491D01*
X113667764Y-75733501D01*
X113728103Y-75879174D01*
X113728105Y-75879177D01*
X113728106Y-75879179D01*
X113756577Y-75921789D01*
X113792705Y-75975859D01*
X113815711Y-76010289D01*
X113927211Y-76121789D01*
X114058321Y-76209394D01*
X114058326Y-76209396D01*
X114058325Y-76209396D01*
X114203998Y-76269735D01*
X114204003Y-76269737D01*
X114358658Y-76300500D01*
X114358660Y-76300500D01*
X114516340Y-76300500D01*
X114516342Y-76300500D01*
X114670997Y-76269737D01*
X114816679Y-76209394D01*
X114947789Y-76121789D01*
X115059289Y-76010289D01*
X115146894Y-75879179D01*
X115164188Y-75837426D01*
X115204234Y-75797380D01*
X115260871Y-75797378D01*
X115300920Y-75837426D01*
X115302091Y-75840436D01*
X115378483Y-76050323D01*
X115397668Y-76091466D01*
X115515326Y-76343786D01*
X115677221Y-76624198D01*
X115862940Y-76889432D01*
X116064994Y-77130232D01*
X116071068Y-77137471D01*
X116146398Y-77212801D01*
X116146405Y-77212809D01*
X116745645Y-77812049D01*
X116749590Y-77816316D01*
X116844579Y-77927536D01*
X116851404Y-77936931D01*
X116926294Y-78059143D01*
X116931565Y-78069489D01*
X116986417Y-78201915D01*
X116990002Y-78212947D01*
X117023464Y-78352328D01*
X117025280Y-78363796D01*
X117026392Y-78377926D01*
X117008890Y-78431791D01*
X116996563Y-78443272D01*
X116886790Y-78524288D01*
X116886788Y-78524290D01*
X116808382Y-78630526D01*
X116764776Y-78755145D01*
X116764775Y-78755149D01*
X116764775Y-78755151D01*
X116762000Y-78784744D01*
X116762000Y-79390256D01*
X116764775Y-79419849D01*
X116764775Y-79419851D01*
X116764776Y-79419854D01*
X116794170Y-79503855D01*
X116790995Y-79560403D01*
X116748764Y-79598143D01*
X116692216Y-79594968D01*
X116671997Y-79580622D01*
X115791358Y-78699988D01*
X115786621Y-78695250D01*
X115786620Y-78695250D01*
X115749326Y-78657956D01*
X115746107Y-78654737D01*
X115745825Y-78654489D01*
X115723987Y-78632650D01*
X115723984Y-78632647D01*
X115583482Y-78524828D01*
X115583477Y-78524824D01*
X115430113Y-78436270D01*
X115430104Y-78436266D01*
X115266483Y-78368484D01*
X115266477Y-78368482D01*
X115186502Y-78347049D01*
X115144129Y-78316683D01*
X115059289Y-78189711D01*
X114947788Y-78078210D01*
X114915342Y-78056530D01*
X114816679Y-77990606D01*
X114816675Y-77990604D01*
X114816673Y-77990603D01*
X114816674Y-77990603D01*
X114671001Y-77930264D01*
X114670991Y-77930261D01*
X114567425Y-77909661D01*
X114516342Y-77899500D01*
X114358658Y-77899500D01*
X114314815Y-77908220D01*
X114204008Y-77930261D01*
X114203998Y-77930264D01*
X114058325Y-77990603D01*
X113927211Y-78078210D01*
X113927210Y-78078212D01*
X113815712Y-78189710D01*
X113815710Y-78189711D01*
X113728103Y-78320825D01*
X113667764Y-78466498D01*
X113667761Y-78466508D01*
X113644434Y-78583787D01*
X113637000Y-78621158D01*
X113637000Y-78778842D01*
X113647161Y-78829925D01*
X113667761Y-78933491D01*
X113667764Y-78933501D01*
X113728103Y-79079174D01*
X113728105Y-79079177D01*
X113728106Y-79079179D01*
X113756577Y-79121789D01*
X113814525Y-79208515D01*
X113815711Y-79210289D01*
X113927211Y-79321789D01*
X114058321Y-79409394D01*
X114058326Y-79409396D01*
X114058325Y-79409396D01*
X114173477Y-79457093D01*
X114204003Y-79469737D01*
X114358658Y-79500500D01*
X114358660Y-79500500D01*
X114516340Y-79500500D01*
X114516342Y-79500500D01*
X114670997Y-79469737D01*
X114816679Y-79409394D01*
X114947789Y-79321789D01*
X115056188Y-79213389D01*
X115079247Y-79203838D01*
X115101263Y-79192072D01*
X115104951Y-79193191D01*
X115108513Y-79191716D01*
X115155458Y-79208514D01*
X115217599Y-79259516D01*
X115222966Y-79264381D01*
X115254005Y-79295422D01*
X115265904Y-79307321D01*
X115265927Y-79307340D01*
X116634092Y-80675500D01*
X116740326Y-80781733D01*
X116762000Y-80834059D01*
X116762000Y-81215256D01*
X116764775Y-81244849D01*
X116764775Y-81244851D01*
X116764776Y-81244854D01*
X116808382Y-81369473D01*
X116849462Y-81425135D01*
X116886789Y-81475711D01*
X116965195Y-81533576D01*
X116993026Y-81554117D01*
X117117645Y-81597723D01*
X117117651Y-81597725D01*
X117147244Y-81600500D01*
X117147251Y-81600500D01*
X117727749Y-81600500D01*
X117727756Y-81600500D01*
X117757349Y-81597725D01*
X117814222Y-81577824D01*
X117881973Y-81554117D01*
X117881973Y-81554116D01*
X117881975Y-81554116D01*
X117988211Y-81475711D01*
X118066616Y-81369475D01*
X118066943Y-81368542D01*
X118104389Y-81261526D01*
X118110225Y-81244849D01*
X118113000Y-81215256D01*
X118113000Y-80609744D01*
X118110225Y-80580151D01*
X118110223Y-80580145D01*
X118066617Y-80455526D01*
X118026005Y-80400499D01*
X117988211Y-80349289D01*
X117906855Y-80289246D01*
X117881973Y-80270882D01*
X117757354Y-80227276D01*
X117757355Y-80227276D01*
X117757350Y-80227275D01*
X117757349Y-80227275D01*
X117727756Y-80224500D01*
X117727750Y-80224500D01*
X117346529Y-80224500D01*
X117294203Y-80202826D01*
X116956879Y-79865503D01*
X116935205Y-79813177D01*
X116956879Y-79760851D01*
X117009205Y-79739177D01*
X117033644Y-79743329D01*
X117117651Y-79772725D01*
X117147244Y-79775500D01*
X117147251Y-79775500D01*
X117703470Y-79775500D01*
X117755796Y-79797174D01*
X117787690Y-79829068D01*
X117985870Y-79987112D01*
X117985880Y-79987119D01*
X118081186Y-80047004D01*
X118200518Y-80121986D01*
X118428910Y-80231975D01*
X118479132Y-80249549D01*
X118668176Y-80315701D01*
X118694893Y-80321799D01*
X118915322Y-80372112D01*
X119167225Y-80400497D01*
X119236712Y-80400497D01*
X119236722Y-80400499D01*
X119241251Y-80400499D01*
X119488866Y-80400499D01*
X119541192Y-80422173D01*
X119554800Y-80440903D01*
X119587842Y-80505751D01*
X119681750Y-80599659D01*
X119723945Y-80621158D01*
X119800079Y-80659950D01*
X119800079Y-80659951D01*
X119898253Y-80675500D01*
X119898254Y-80675500D01*
X120401747Y-80675500D01*
X120499920Y-80659951D01*
X120618251Y-80599658D01*
X120712158Y-80505751D01*
X120772451Y-80387420D01*
X120786794Y-80296863D01*
X120987500Y-80296863D01*
X120997511Y-80380226D01*
X121049823Y-80512882D01*
X121135990Y-80626509D01*
X121249617Y-80712676D01*
X121382273Y-80764988D01*
X121465637Y-80775000D01*
X121475000Y-80775000D01*
X121975000Y-80775000D01*
X121984363Y-80775000D01*
X122067726Y-80764988D01*
X122200382Y-80712676D01*
X122314009Y-80626509D01*
X122400176Y-80512882D01*
X122452488Y-80380226D01*
X122462500Y-80296863D01*
X122462500Y-80250000D01*
X121975000Y-80250000D01*
X121975000Y-80775000D01*
X121475000Y-80775000D01*
X121475000Y-80250000D01*
X120987500Y-80250000D01*
X120987500Y-80296863D01*
X120786794Y-80296863D01*
X120788000Y-80289246D01*
X120788000Y-79710754D01*
X120786793Y-79703136D01*
X120987500Y-79703136D01*
X120987500Y-79750000D01*
X121475000Y-79750000D01*
X121975000Y-79750000D01*
X122462500Y-79750000D01*
X122462500Y-79703136D01*
X122452488Y-79619773D01*
X122400176Y-79487117D01*
X122314009Y-79373490D01*
X122200382Y-79287323D01*
X122067726Y-79235011D01*
X121984363Y-79225000D01*
X121975000Y-79225000D01*
X121975000Y-79750000D01*
X121475000Y-79750000D01*
X121475000Y-79225000D01*
X121465637Y-79225000D01*
X121382273Y-79235011D01*
X121249617Y-79287323D01*
X121135990Y-79373490D01*
X121049823Y-79487117D01*
X120997511Y-79619773D01*
X120987500Y-79703136D01*
X120786793Y-79703136D01*
X120778090Y-79648185D01*
X120772451Y-79612580D01*
X120737750Y-79544475D01*
X120712159Y-79494250D01*
X120618249Y-79400340D01*
X120499920Y-79340049D01*
X120499920Y-79340048D01*
X120401747Y-79324500D01*
X120401746Y-79324500D01*
X119898254Y-79324500D01*
X119898253Y-79324500D01*
X119800079Y-79340048D01*
X119800079Y-79340049D01*
X119681750Y-79400340D01*
X119587841Y-79494249D01*
X119554800Y-79559095D01*
X119511732Y-79595878D01*
X119488866Y-79599499D01*
X119296414Y-79599499D01*
X119291573Y-79599340D01*
X119108775Y-79587356D01*
X119099179Y-79586093D01*
X118921908Y-79550830D01*
X118912558Y-79548325D01*
X118741393Y-79490221D01*
X118732451Y-79486517D01*
X118570337Y-79406570D01*
X118561968Y-79401738D01*
X118411671Y-79301313D01*
X118403994Y-79295422D01*
X118374707Y-79269738D01*
X118266166Y-79174548D01*
X118262636Y-79171242D01*
X118134674Y-79043280D01*
X118113000Y-78990954D01*
X118113000Y-78784751D01*
X118113000Y-78784744D01*
X118110225Y-78755151D01*
X118094376Y-78709858D01*
X118066617Y-78630526D01*
X118034802Y-78587418D01*
X117988211Y-78524289D01*
X117881975Y-78445884D01*
X117877074Y-78443294D01*
X117878467Y-78440656D01*
X117843595Y-78409490D01*
X117836902Y-78387047D01*
X117807380Y-78162802D01*
X117746696Y-77936322D01*
X117656970Y-77719699D01*
X117539737Y-77516641D01*
X117509895Y-77477750D01*
X117397010Y-77330632D01*
X117397005Y-77330627D01*
X117397002Y-77330623D01*
X117355602Y-77289222D01*
X117355594Y-77289212D01*
X117236626Y-77170244D01*
X117214952Y-77117918D01*
X117236626Y-77065592D01*
X117288952Y-77043918D01*
X117313391Y-77048070D01*
X117522727Y-77121320D01*
X117522732Y-77121321D01*
X117522735Y-77121322D01*
X117561773Y-77130232D01*
X117753513Y-77173995D01*
X117988747Y-77200499D01*
X118107107Y-77200498D01*
X121596670Y-77200498D01*
X121596673Y-77200499D01*
X121623568Y-77200498D01*
X121623658Y-77200535D01*
X121654256Y-77200534D01*
X121654256Y-77200535D01*
X121804973Y-77200532D01*
X122104511Y-77166776D01*
X122398386Y-77099693D01*
X122682902Y-77000129D01*
X122954481Y-76869335D01*
X123209708Y-76708956D01*
X123445373Y-76521008D01*
X123551942Y-76414432D01*
X123551943Y-76414432D01*
X123566876Y-76399498D01*
X124094447Y-75871916D01*
X124094446Y-75871916D01*
X124097907Y-75868456D01*
X124098088Y-75868248D01*
X124110489Y-75855850D01*
X124199199Y-75733765D01*
X124209834Y-75712894D01*
X124252901Y-75676115D01*
X124268858Y-75672817D01*
X124269849Y-75672725D01*
X124269851Y-75672724D01*
X124269853Y-75672724D01*
X124269853Y-75672723D01*
X124314628Y-75657055D01*
X124399709Y-75627285D01*
X124400688Y-75630083D01*
X124447291Y-75625699D01*
X124490914Y-75661821D01*
X124499500Y-75696418D01*
X124499500Y-81995840D01*
X124499035Y-82004125D01*
X124499035Y-82004126D01*
X124487909Y-82102868D01*
X124484221Y-82119021D01*
X124478539Y-82135258D01*
X124452788Y-82208852D01*
X124445599Y-82223781D01*
X124394961Y-82304372D01*
X124384629Y-82317328D01*
X124317328Y-82384629D01*
X124304372Y-82394961D01*
X124223781Y-82445599D01*
X124208852Y-82452788D01*
X124135258Y-82478539D01*
X124119021Y-82484221D01*
X124102868Y-82487909D01*
X124004127Y-82499035D01*
X123995841Y-82499500D01*
X118934106Y-82499500D01*
X118806818Y-82533606D01*
X118806809Y-82533610D01*
X118692685Y-82599500D01*
X116314360Y-84977826D01*
X116262034Y-84999500D01*
X102268247Y-84999500D01*
X102215921Y-84977826D01*
X102194247Y-84925500D01*
X102215921Y-84873174D01*
X102253809Y-84852922D01*
X102468032Y-84810309D01*
X102468033Y-84810308D01*
X102468036Y-84810308D01*
X102762486Y-84720985D01*
X102762486Y-84720984D01*
X102762499Y-84720981D01*
X103046792Y-84603221D01*
X103318174Y-84458163D01*
X103574032Y-84287204D01*
X103811900Y-84091989D01*
X103920695Y-83983195D01*
X103961412Y-83942478D01*
X103961411Y-83942478D01*
X104133408Y-83770482D01*
X104133412Y-83770480D01*
X104201185Y-83702706D01*
X104222856Y-83693729D01*
X104253508Y-83681033D01*
X104253510Y-83681033D01*
X104267938Y-83682454D01*
X104358658Y-83700500D01*
X104358660Y-83700500D01*
X104516340Y-83700500D01*
X104516342Y-83700500D01*
X104670997Y-83669737D01*
X104816679Y-83609394D01*
X104947789Y-83521789D01*
X105059289Y-83410289D01*
X105146894Y-83279179D01*
X105207237Y-83133497D01*
X105229583Y-83021158D01*
X108557000Y-83021158D01*
X108557000Y-83178842D01*
X108560548Y-83196678D01*
X108587761Y-83333491D01*
X108587764Y-83333501D01*
X108648103Y-83479174D01*
X108648105Y-83479177D01*
X108648106Y-83479179D01*
X108692497Y-83545615D01*
X108717383Y-83582860D01*
X108735711Y-83610289D01*
X108847211Y-83721789D01*
X108978321Y-83809394D01*
X108978326Y-83809396D01*
X108978325Y-83809396D01*
X109121434Y-83868673D01*
X109124003Y-83869737D01*
X109278658Y-83900500D01*
X109278660Y-83900500D01*
X109436340Y-83900500D01*
X109436342Y-83900500D01*
X109590997Y-83869737D01*
X109736679Y-83809394D01*
X109867789Y-83721789D01*
X109979289Y-83610289D01*
X110066894Y-83479179D01*
X110127237Y-83333497D01*
X110158000Y-83178842D01*
X110158000Y-83021158D01*
X113637000Y-83021158D01*
X113637000Y-83178842D01*
X113640548Y-83196678D01*
X113667761Y-83333491D01*
X113667764Y-83333501D01*
X113728103Y-83479174D01*
X113728105Y-83479177D01*
X113728106Y-83479179D01*
X113772497Y-83545615D01*
X113797383Y-83582860D01*
X113815711Y-83610289D01*
X113927211Y-83721789D01*
X114058321Y-83809394D01*
X114058326Y-83809396D01*
X114058325Y-83809396D01*
X114201434Y-83868673D01*
X114204003Y-83869737D01*
X114358658Y-83900500D01*
X114358660Y-83900500D01*
X114516340Y-83900500D01*
X114516342Y-83900500D01*
X114670997Y-83869737D01*
X114816679Y-83809394D01*
X114947789Y-83721789D01*
X115059289Y-83610289D01*
X115146894Y-83479179D01*
X115207237Y-83333497D01*
X115238000Y-83178842D01*
X115238000Y-83021158D01*
X115207237Y-82866503D01*
X115189086Y-82822682D01*
X115146896Y-82720825D01*
X115146895Y-82720823D01*
X115146894Y-82720821D01*
X115059289Y-82589711D01*
X114947789Y-82478211D01*
X114816679Y-82390606D01*
X114816675Y-82390604D01*
X114816673Y-82390603D01*
X114816674Y-82390603D01*
X114671001Y-82330264D01*
X114670991Y-82330261D01*
X114567425Y-82309661D01*
X114516342Y-82299500D01*
X114358658Y-82299500D01*
X114314815Y-82308220D01*
X114204008Y-82330261D01*
X114203998Y-82330264D01*
X114058325Y-82390603D01*
X113927211Y-82478210D01*
X113927210Y-82478212D01*
X113815712Y-82589710D01*
X113815710Y-82589711D01*
X113728103Y-82720825D01*
X113667764Y-82866498D01*
X113667761Y-82866508D01*
X113645417Y-82978841D01*
X113637000Y-83021158D01*
X110158000Y-83021158D01*
X110127237Y-82866503D01*
X110109086Y-82822682D01*
X110066896Y-82720825D01*
X110066895Y-82720823D01*
X110066894Y-82720821D01*
X109979289Y-82589711D01*
X109867789Y-82478211D01*
X109736679Y-82390606D01*
X109736675Y-82390604D01*
X109736673Y-82390603D01*
X109736674Y-82390603D01*
X109591001Y-82330264D01*
X109590991Y-82330261D01*
X109487425Y-82309661D01*
X109436342Y-82299500D01*
X109278658Y-82299500D01*
X109234815Y-82308220D01*
X109124008Y-82330261D01*
X109123998Y-82330264D01*
X108978325Y-82390603D01*
X108847211Y-82478210D01*
X108847210Y-82478212D01*
X108735712Y-82589710D01*
X108735710Y-82589711D01*
X108648103Y-82720825D01*
X108587764Y-82866498D01*
X108587761Y-82866508D01*
X108565417Y-82978841D01*
X108557000Y-83021158D01*
X105229583Y-83021158D01*
X105238000Y-82978842D01*
X105238000Y-82821158D01*
X105207237Y-82666503D01*
X105163393Y-82560653D01*
X105146896Y-82520825D01*
X105146895Y-82520823D01*
X105146894Y-82520821D01*
X105059289Y-82389711D01*
X104947789Y-82278211D01*
X104816679Y-82190606D01*
X104816675Y-82190604D01*
X104816673Y-82190603D01*
X104816674Y-82190603D01*
X104671001Y-82130264D01*
X104670991Y-82130261D01*
X104555645Y-82107318D01*
X104516342Y-82099500D01*
X104358658Y-82099500D01*
X104319355Y-82107318D01*
X104204008Y-82130261D01*
X104203998Y-82130264D01*
X104058325Y-82190603D01*
X103927211Y-82278210D01*
X103927210Y-82278212D01*
X103815712Y-82389710D01*
X103815710Y-82389711D01*
X103728103Y-82520825D01*
X103667764Y-82666498D01*
X103667761Y-82666508D01*
X103644658Y-82782657D01*
X103637000Y-82821158D01*
X103637000Y-82978842D01*
X103641823Y-83003087D01*
X103655043Y-83069551D01*
X103643994Y-83125099D01*
X103634791Y-83136313D01*
X103355766Y-83415337D01*
X103352750Y-83418188D01*
X103162499Y-83588207D01*
X103156011Y-83593381D01*
X102949615Y-83739828D01*
X102942589Y-83744243D01*
X102721093Y-83866661D01*
X102713616Y-83870262D01*
X102479804Y-83967111D01*
X102471971Y-83969852D01*
X102228782Y-84039915D01*
X102220692Y-84041761D01*
X101971204Y-84084153D01*
X101962958Y-84085083D01*
X101708368Y-84099384D01*
X101704218Y-84099500D01*
X99855183Y-84099500D01*
X99851954Y-84099430D01*
X99519728Y-84084920D01*
X99513297Y-84084357D01*
X99185218Y-84041162D01*
X99178861Y-84040041D01*
X98855792Y-83968416D01*
X98849556Y-83966745D01*
X98533959Y-83867235D01*
X98527893Y-83865027D01*
X98393585Y-83809394D01*
X98222168Y-83738389D01*
X98216323Y-83735663D01*
X97922798Y-83582860D01*
X97917208Y-83579633D01*
X97638117Y-83401831D01*
X97632828Y-83398128D01*
X97477805Y-83279174D01*
X97370292Y-83196676D01*
X97365350Y-83192528D01*
X97350414Y-83178842D01*
X97119796Y-82967517D01*
X97117474Y-82965295D01*
X97117080Y-82964901D01*
X97078264Y-82926086D01*
X97078256Y-82926081D01*
X96974855Y-82822682D01*
X96974849Y-82822676D01*
X96662590Y-82560661D01*
X96662591Y-82560661D01*
X96662583Y-82560655D01*
X96328662Y-82326842D01*
X96328653Y-82326836D01*
X95975643Y-82123026D01*
X95975638Y-82123024D01*
X95975635Y-82123022D01*
X95606186Y-81950745D01*
X95606180Y-81950742D01*
X95606174Y-81950740D01*
X95223130Y-81811323D01*
X94829374Y-81705816D01*
X94565728Y-81659328D01*
X94427929Y-81635030D01*
X94427923Y-81635029D01*
X94427906Y-81635027D01*
X94021835Y-81599499D01*
X93922646Y-81599499D01*
X93870321Y-81577824D01*
X93848647Y-81525498D01*
X93856713Y-81491904D01*
X93909951Y-81387420D01*
X93925500Y-81289246D01*
X93925500Y-80710754D01*
X93924293Y-80703136D01*
X93918491Y-80666503D01*
X93909951Y-80612580D01*
X93851609Y-80498078D01*
X93849659Y-80494250D01*
X93755750Y-80400341D01*
X93728413Y-80386412D01*
X93720684Y-80377363D01*
X93709690Y-80372811D01*
X93702995Y-80356651D01*
X93691630Y-80343344D01*
X93688009Y-80320492D01*
X93688012Y-80178524D01*
X93687989Y-80178441D01*
X93687989Y-80173466D01*
X93687989Y-80173454D01*
X93687989Y-80172892D01*
X93687991Y-80104537D01*
X93659620Y-79852693D01*
X93603231Y-79605610D01*
X93601037Y-79599340D01*
X93567627Y-79503855D01*
X93519530Y-79366394D01*
X93409572Y-79138054D01*
X93409569Y-79138050D01*
X93409567Y-79138045D01*
X93274739Y-78923461D01*
X93274738Y-78923459D01*
X93131688Y-78744075D01*
X93131682Y-78744069D01*
X93116727Y-78725315D01*
X93088657Y-78697244D01*
X95762000Y-78697244D01*
X95762000Y-79302756D01*
X95764775Y-79332349D01*
X95764775Y-79332351D01*
X95764776Y-79332354D01*
X95808382Y-79456973D01*
X95842739Y-79503525D01*
X95886789Y-79563211D01*
X95993025Y-79641616D01*
X96006132Y-79646202D01*
X96048363Y-79683942D01*
X96055059Y-79706393D01*
X96063206Y-79768289D01*
X96063207Y-79768296D01*
X96115185Y-79962299D01*
X96115186Y-79962303D01*
X96192043Y-80147861D01*
X96192046Y-80147868D01*
X96292463Y-80321799D01*
X96292465Y-80321801D01*
X96292467Y-80321805D01*
X96352850Y-80400499D01*
X96414735Y-80481150D01*
X96445874Y-80512289D01*
X96445895Y-80512312D01*
X97739756Y-81806150D01*
X98561844Y-82628223D01*
X98583519Y-82680548D01*
X98582097Y-82694985D01*
X98564658Y-82782657D01*
X98557000Y-82821158D01*
X98557000Y-82978842D01*
X98561823Y-83003087D01*
X98587761Y-83133491D01*
X98587764Y-83133501D01*
X98648103Y-83279174D01*
X98648105Y-83279177D01*
X98648106Y-83279179D01*
X98665540Y-83305271D01*
X98730059Y-83401831D01*
X98735711Y-83410289D01*
X98847211Y-83521789D01*
X98978321Y-83609394D01*
X98978326Y-83609396D01*
X98978325Y-83609396D01*
X99123998Y-83669735D01*
X99124003Y-83669737D01*
X99278658Y-83700500D01*
X99278660Y-83700500D01*
X99436340Y-83700500D01*
X99436342Y-83700500D01*
X99590997Y-83669737D01*
X99736679Y-83609394D01*
X99867789Y-83521789D01*
X99979289Y-83410289D01*
X100066894Y-83279179D01*
X100127237Y-83133497D01*
X100158000Y-82978842D01*
X100158000Y-82821158D01*
X100127237Y-82666503D01*
X100083393Y-82560653D01*
X100066896Y-82520825D01*
X100066895Y-82520823D01*
X100066894Y-82520821D01*
X99979289Y-82389711D01*
X99867789Y-82278211D01*
X99736679Y-82190606D01*
X99736675Y-82190604D01*
X99736673Y-82190603D01*
X99736674Y-82190603D01*
X99591001Y-82130264D01*
X99590991Y-82130261D01*
X99475645Y-82107318D01*
X99436342Y-82099500D01*
X99278658Y-82099500D01*
X99223405Y-82110490D01*
X99167856Y-82099440D01*
X99156646Y-82090240D01*
X97054711Y-79988341D01*
X97049834Y-79982961D01*
X96965835Y-79880607D01*
X96957775Y-79868545D01*
X96897081Y-79754991D01*
X96891530Y-79741587D01*
X96880170Y-79704135D01*
X96885723Y-79647771D01*
X96907042Y-79623116D01*
X96921319Y-79612579D01*
X96988211Y-79563211D01*
X97066616Y-79456975D01*
X97083266Y-79409394D01*
X97106992Y-79341588D01*
X97110225Y-79332349D01*
X97113000Y-79302756D01*
X97113000Y-78697244D01*
X97110225Y-78667651D01*
X97105706Y-78654737D01*
X97066617Y-78543026D01*
X97010144Y-78466508D01*
X96988211Y-78436789D01*
X96925579Y-78390565D01*
X96881973Y-78358382D01*
X96757354Y-78314776D01*
X96757355Y-78314776D01*
X96757350Y-78314775D01*
X96757349Y-78314775D01*
X96727756Y-78312000D01*
X96147244Y-78312000D01*
X96117651Y-78314775D01*
X96117649Y-78314775D01*
X96117645Y-78314776D01*
X95993026Y-78358382D01*
X95886790Y-78436788D01*
X95886788Y-78436790D01*
X95808382Y-78543026D01*
X95764776Y-78667645D01*
X95764775Y-78667649D01*
X95764775Y-78667651D01*
X95762000Y-78697244D01*
X93088657Y-78697244D01*
X93067158Y-78675744D01*
X93067089Y-78675671D01*
X92093230Y-77701829D01*
X92071555Y-77649504D01*
X92093229Y-77597178D01*
X92145552Y-77575503D01*
X95736116Y-77575500D01*
X95788442Y-77597174D01*
X95805962Y-77625057D01*
X95808381Y-77631971D01*
X95808382Y-77631972D01*
X95808383Y-77631973D01*
X95808384Y-77631975D01*
X95886789Y-77738211D01*
X95957778Y-77790603D01*
X95993026Y-77816617D01*
X96117645Y-77860223D01*
X96117651Y-77860225D01*
X96147244Y-77863000D01*
X96147251Y-77863000D01*
X96727749Y-77863000D01*
X96727756Y-77863000D01*
X96757349Y-77860225D01*
X96814032Y-77840390D01*
X96881973Y-77816617D01*
X96881973Y-77816616D01*
X96881975Y-77816616D01*
X96988211Y-77738211D01*
X97066616Y-77631975D01*
X97066618Y-77631971D01*
X97098497Y-77540864D01*
X97110225Y-77507349D01*
X97113000Y-77477756D01*
X97113000Y-76872244D01*
X97110225Y-76842651D01*
X97106992Y-76833411D01*
X97066617Y-76718026D01*
X97022207Y-76657853D01*
X96988211Y-76611789D01*
X96916188Y-76558634D01*
X96881973Y-76533382D01*
X96757354Y-76489776D01*
X96757355Y-76489776D01*
X96757350Y-76489775D01*
X96757349Y-76489775D01*
X96727756Y-76487000D01*
X96147244Y-76487000D01*
X96117651Y-76489775D01*
X96117649Y-76489775D01*
X96117645Y-76489776D01*
X95993026Y-76533382D01*
X95886790Y-76611788D01*
X95886788Y-76611790D01*
X95808382Y-76718027D01*
X95808381Y-76718028D01*
X95805962Y-76724943D01*
X95768221Y-76767173D01*
X95736116Y-76774500D01*
X91469458Y-76774503D01*
X91469405Y-76774500D01*
X91237142Y-76774498D01*
X91206462Y-76774497D01*
X91206462Y-76774479D01*
X91142456Y-76774449D01*
X91142277Y-76774496D01*
X91137317Y-76774496D01*
X90796670Y-76774493D01*
X90790863Y-76774265D01*
X90628535Y-76761485D01*
X90617067Y-76759668D01*
X90461576Y-76722335D01*
X90450533Y-76718747D01*
X90302790Y-76657550D01*
X90292451Y-76652282D01*
X90156094Y-76568724D01*
X90146702Y-76561900D01*
X90022779Y-76456063D01*
X90018512Y-76452119D01*
X89872405Y-76306018D01*
X89869106Y-76302496D01*
X89735430Y-76150067D01*
X89729544Y-76142396D01*
X89715775Y-76121789D01*
X89618266Y-75975854D01*
X89613435Y-75967486D01*
X89524843Y-75787834D01*
X89521145Y-75778904D01*
X89505935Y-75734094D01*
X89509640Y-75677578D01*
X89552223Y-75640236D01*
X89600449Y-75640462D01*
X89661489Y-75661821D01*
X89692651Y-75672725D01*
X89722244Y-75675500D01*
X89722251Y-75675500D01*
X90327749Y-75675500D01*
X90327756Y-75675500D01*
X90357349Y-75672725D01*
X90414032Y-75652890D01*
X90481973Y-75629117D01*
X90481973Y-75629116D01*
X90481975Y-75629116D01*
X90588211Y-75550711D01*
X90666616Y-75444475D01*
X90667982Y-75440573D01*
X90710223Y-75319854D01*
X90710222Y-75319854D01*
X90710225Y-75319849D01*
X90713000Y-75290256D01*
X90713000Y-75279580D01*
X91062499Y-75279580D01*
X91072873Y-75365956D01*
X91127077Y-75503410D01*
X91216356Y-75621142D01*
X91216357Y-75621143D01*
X91334089Y-75710422D01*
X91471543Y-75764626D01*
X91557920Y-75775000D01*
X91600000Y-75775000D01*
X92100000Y-75775000D01*
X92142080Y-75775000D01*
X92228456Y-75764626D01*
X92365910Y-75710422D01*
X92483642Y-75621143D01*
X92483643Y-75621142D01*
X92572922Y-75503410D01*
X92627126Y-75365956D01*
X92637500Y-75279580D01*
X92637500Y-75250000D01*
X92100000Y-75250000D01*
X92100000Y-75775000D01*
X91600000Y-75775000D01*
X91600000Y-75250000D01*
X91062500Y-75250000D01*
X91062500Y-75279580D01*
X91062499Y-75279580D01*
X90713000Y-75279580D01*
X90713000Y-75200000D01*
X93033237Y-75200000D01*
X93072652Y-75312643D01*
X93153207Y-75421791D01*
X93153208Y-75421792D01*
X93262356Y-75502347D01*
X93262355Y-75502347D01*
X93390385Y-75547146D01*
X93390393Y-75547148D01*
X93420802Y-75549999D01*
X93812500Y-75549999D01*
X94312500Y-75549999D01*
X94704194Y-75549999D01*
X94704205Y-75549998D01*
X94734602Y-75547149D01*
X94734611Y-75547147D01*
X94862643Y-75502347D01*
X94971791Y-75421792D01*
X94971792Y-75421791D01*
X95052347Y-75312643D01*
X95091763Y-75200000D01*
X94312500Y-75200000D01*
X94312500Y-75549999D01*
X93812500Y-75549999D01*
X93812500Y-75200000D01*
X93033237Y-75200000D01*
X90713000Y-75200000D01*
X90713000Y-74909043D01*
X90734673Y-74856718D01*
X90937328Y-74654063D01*
X90989653Y-74632390D01*
X91041979Y-74654064D01*
X91063653Y-74706390D01*
X91063125Y-74715211D01*
X91062500Y-74720414D01*
X91062500Y-74750000D01*
X91600000Y-74750000D01*
X92100000Y-74750000D01*
X92637500Y-74750000D01*
X92637500Y-74720419D01*
X92637499Y-74720416D01*
X92635047Y-74699999D01*
X93033237Y-74699999D01*
X93033238Y-74700000D01*
X93812500Y-74700000D01*
X94312500Y-74700000D01*
X95091762Y-74700000D01*
X95091762Y-74699999D01*
X95052347Y-74587356D01*
X94971792Y-74478208D01*
X94971791Y-74478207D01*
X94862643Y-74397652D01*
X94862644Y-74397652D01*
X94734614Y-74352853D01*
X94734606Y-74352851D01*
X94704198Y-74350000D01*
X94312500Y-74350000D01*
X94312500Y-74700000D01*
X93812500Y-74700000D01*
X93812500Y-74350000D01*
X93420806Y-74350000D01*
X93420793Y-74350001D01*
X93390397Y-74352850D01*
X93390388Y-74352852D01*
X93262356Y-74397652D01*
X93153208Y-74478207D01*
X93153207Y-74478208D01*
X93072652Y-74587356D01*
X93033237Y-74699999D01*
X92635047Y-74699999D01*
X92627126Y-74634042D01*
X92572922Y-74496589D01*
X92483643Y-74378857D01*
X92483642Y-74378856D01*
X92365910Y-74289577D01*
X92228456Y-74235373D01*
X92142080Y-74225000D01*
X92100000Y-74225000D01*
X92100000Y-74750000D01*
X91600000Y-74750000D01*
X91600000Y-74248143D01*
X91521061Y-74222544D01*
X91510958Y-74213925D01*
X91498172Y-74210342D01*
X91490258Y-74196265D01*
X91477973Y-74185785D01*
X91476923Y-74172547D01*
X91470416Y-74160972D01*
X91474773Y-74145422D01*
X91473498Y-74129325D01*
X91482116Y-74119222D01*
X91485700Y-74106436D01*
X91491557Y-74099833D01*
X91774654Y-73816735D01*
X94999500Y-73816735D01*
X94999500Y-74183264D01*
X95009427Y-74251393D01*
X95009427Y-74251394D01*
X95060801Y-74356482D01*
X95060802Y-74356483D01*
X95143517Y-74439198D01*
X95248607Y-74490573D01*
X95316740Y-74500500D01*
X95316746Y-74500500D01*
X96558254Y-74500500D01*
X96558260Y-74500500D01*
X96626393Y-74490573D01*
X96680120Y-74464306D01*
X96682568Y-74464154D01*
X96684302Y-74462421D01*
X96710493Y-74462421D01*
X96736647Y-74460797D01*
X96740927Y-74462416D01*
X96779051Y-74478208D01*
X96798311Y-74486186D01*
X96808654Y-74491456D01*
X96906647Y-74551506D01*
X96916030Y-74558322D01*
X97004686Y-74634042D01*
X97005659Y-74634873D01*
X97009925Y-74638817D01*
X97508354Y-75137245D01*
X97527506Y-75170416D01*
X97533607Y-75193184D01*
X97533608Y-75193187D01*
X97593714Y-75297293D01*
X97599500Y-75307314D01*
X97692686Y-75400500D01*
X97806814Y-75466392D01*
X97934105Y-75500499D01*
X97934106Y-75500500D01*
X97934108Y-75500500D01*
X98065894Y-75500500D01*
X98065894Y-75500499D01*
X98193186Y-75466392D01*
X98307314Y-75400500D01*
X98400500Y-75307314D01*
X98418914Y-75275419D01*
X98463848Y-75240941D01*
X98520000Y-75248334D01*
X98554479Y-75293268D01*
X98557000Y-75312420D01*
X98557000Y-75378840D01*
X98587761Y-75533491D01*
X98587764Y-75533501D01*
X98648103Y-75679174D01*
X98735710Y-75810288D01*
X98847212Y-75921790D01*
X98851677Y-75924773D01*
X98865546Y-75945527D01*
X98881380Y-75964820D01*
X98881002Y-75968657D01*
X98883145Y-75971864D01*
X98875830Y-76021184D01*
X98856517Y-76057319D01*
X98848458Y-76069382D01*
X98778719Y-76154363D01*
X98773842Y-76159744D01*
X98389904Y-76543699D01*
X98389863Y-76543715D01*
X98263984Y-76669600D01*
X98080192Y-76900075D01*
X98080191Y-76900078D01*
X97923361Y-77149681D01*
X97795461Y-77415286D01*
X97698107Y-77693523D01*
X97698104Y-77693531D01*
X97632516Y-77980923D01*
X97632515Y-77980929D01*
X97600345Y-78266503D01*
X97599515Y-78273867D01*
X97599517Y-78390565D01*
X97599477Y-78390663D01*
X97599480Y-78568647D01*
X97612340Y-78682754D01*
X97632493Y-78861586D01*
X97632494Y-78861590D01*
X97698095Y-79148983D01*
X97762261Y-79332349D01*
X97795462Y-79427226D01*
X97919007Y-79683757D01*
X97923373Y-79692823D01*
X97958401Y-79748567D01*
X98080212Y-79942420D01*
X98264013Y-80172892D01*
X98351240Y-80260116D01*
X98546645Y-80455525D01*
X98554794Y-80463674D01*
X98576467Y-80516000D01*
X98575045Y-80530435D01*
X98561276Y-80599659D01*
X98557000Y-80621158D01*
X98557000Y-80778842D01*
X98565417Y-80821158D01*
X98587761Y-80933491D01*
X98587764Y-80933501D01*
X98648103Y-81079174D01*
X98648105Y-81079177D01*
X98648106Y-81079179D01*
X98735711Y-81210289D01*
X98847211Y-81321789D01*
X98978321Y-81409394D01*
X98978326Y-81409396D01*
X98978325Y-81409396D01*
X99094438Y-81457491D01*
X99124003Y-81469737D01*
X99278658Y-81500500D01*
X99278660Y-81500500D01*
X99436340Y-81500500D01*
X99436342Y-81500500D01*
X99590997Y-81469737D01*
X99736679Y-81409394D01*
X99867789Y-81321789D01*
X99979289Y-81210289D01*
X100030673Y-81133388D01*
X100077766Y-81101922D01*
X100092202Y-81100500D01*
X103702798Y-81100500D01*
X103755124Y-81122174D01*
X103764327Y-81133388D01*
X103815711Y-81210289D01*
X103927211Y-81321789D01*
X104058321Y-81409394D01*
X104058326Y-81409396D01*
X104058325Y-81409396D01*
X104174438Y-81457491D01*
X104204003Y-81469737D01*
X104358658Y-81500500D01*
X104358660Y-81500500D01*
X104516340Y-81500500D01*
X104516342Y-81500500D01*
X104670997Y-81469737D01*
X104816679Y-81409394D01*
X104947789Y-81321789D01*
X105059289Y-81210289D01*
X105146894Y-81079179D01*
X105207237Y-80933497D01*
X105238000Y-80778842D01*
X105238000Y-80621158D01*
X105207237Y-80466503D01*
X105188875Y-80422173D01*
X105146896Y-80320825D01*
X105146895Y-80320823D01*
X105146894Y-80320821D01*
X105059289Y-80189711D01*
X104947789Y-80078211D01*
X104816679Y-79990606D01*
X104816675Y-79990604D01*
X104816673Y-79990603D01*
X104816674Y-79990603D01*
X104671001Y-79930264D01*
X104670991Y-79930261D01*
X104567425Y-79909661D01*
X104516342Y-79899500D01*
X104358658Y-79899500D01*
X104314815Y-79908220D01*
X104204008Y-79930261D01*
X104203998Y-79930264D01*
X104058325Y-79990603D01*
X103927211Y-80078210D01*
X103927210Y-80078211D01*
X103815709Y-80189713D01*
X103815708Y-80189714D01*
X103764327Y-80266612D01*
X103717234Y-80298078D01*
X103702798Y-80299500D01*
X100092202Y-80299500D01*
X100039876Y-80277826D01*
X100030673Y-80266612D01*
X99979291Y-80189714D01*
X99979290Y-80189713D01*
X99979289Y-80189711D01*
X99867789Y-80078211D01*
X99736679Y-79990606D01*
X99736675Y-79990604D01*
X99736673Y-79990603D01*
X99736674Y-79990603D01*
X99591001Y-79930264D01*
X99590991Y-79930261D01*
X99487425Y-79909661D01*
X99436342Y-79899500D01*
X99278658Y-79899500D01*
X99187956Y-79917541D01*
X99132407Y-79906491D01*
X99121194Y-79897288D01*
X98977928Y-79754019D01*
X98977928Y-79754020D01*
X98975342Y-79751434D01*
X98975340Y-79751431D01*
X98936332Y-79712424D01*
X98933025Y-79708892D01*
X98780540Y-79535021D01*
X98774647Y-79527342D01*
X98667096Y-79366386D01*
X98647504Y-79337067D01*
X98642666Y-79328686D01*
X98636492Y-79316166D01*
X98541445Y-79123439D01*
X98537750Y-79114517D01*
X98464185Y-78897814D01*
X98461680Y-78888468D01*
X98459903Y-78879537D01*
X98417028Y-78664016D01*
X98415766Y-78654422D01*
X98415443Y-78649500D01*
X98412809Y-78609319D01*
X98422049Y-78582095D01*
X98416826Y-78570568D01*
X98547984Y-78570568D01*
X98559227Y-78590041D01*
X98564108Y-78614580D01*
X98587761Y-78733491D01*
X98587764Y-78733501D01*
X98648103Y-78879174D01*
X98648105Y-78879177D01*
X98648106Y-78879179D01*
X98660560Y-78897818D01*
X98708724Y-78969901D01*
X98735711Y-79010289D01*
X98847211Y-79121789D01*
X98978321Y-79209394D01*
X98978326Y-79209396D01*
X98978325Y-79209396D01*
X99104457Y-79261641D01*
X99124003Y-79269737D01*
X99278658Y-79300500D01*
X99278660Y-79300500D01*
X99436340Y-79300500D01*
X99436342Y-79300500D01*
X99590997Y-79269737D01*
X99736679Y-79209394D01*
X99867789Y-79121789D01*
X99979289Y-79010289D01*
X100066894Y-78879179D01*
X100127237Y-78733497D01*
X100158000Y-78578842D01*
X100158000Y-78421158D01*
X103637000Y-78421158D01*
X103637000Y-78578842D01*
X103645417Y-78621158D01*
X103667761Y-78733491D01*
X103667764Y-78733501D01*
X103728103Y-78879174D01*
X103728105Y-78879177D01*
X103728106Y-78879179D01*
X103740560Y-78897818D01*
X103788724Y-78969901D01*
X103815711Y-79010289D01*
X103927211Y-79121789D01*
X104058321Y-79209394D01*
X104058326Y-79209396D01*
X104058325Y-79209396D01*
X104184457Y-79261641D01*
X104204003Y-79269737D01*
X104358658Y-79300500D01*
X104358660Y-79300500D01*
X104516340Y-79300500D01*
X104516342Y-79300500D01*
X104670997Y-79269737D01*
X104816679Y-79209394D01*
X104947789Y-79121789D01*
X105059289Y-79010289D01*
X105146894Y-78879179D01*
X105207237Y-78733497D01*
X105238000Y-78578842D01*
X105238000Y-78421158D01*
X105207237Y-78266503D01*
X105170765Y-78178451D01*
X105146896Y-78120825D01*
X105146895Y-78120823D01*
X105146894Y-78120821D01*
X105059289Y-77989711D01*
X104947789Y-77878211D01*
X104816679Y-77790606D01*
X104816675Y-77790604D01*
X104816673Y-77790603D01*
X104816674Y-77790603D01*
X104671001Y-77730264D01*
X104670991Y-77730261D01*
X104567425Y-77709661D01*
X104516342Y-77699500D01*
X104358658Y-77699500D01*
X104314815Y-77708220D01*
X104204008Y-77730261D01*
X104203998Y-77730264D01*
X104058325Y-77790603D01*
X103927211Y-77878210D01*
X103927210Y-77878212D01*
X103815712Y-77989710D01*
X103815710Y-77989711D01*
X103728103Y-78120825D01*
X103667764Y-78266498D01*
X103667761Y-78266508D01*
X103645599Y-78377926D01*
X103637000Y-78421158D01*
X100158000Y-78421158D01*
X100127237Y-78266503D01*
X100090765Y-78178451D01*
X100066896Y-78120825D01*
X100066895Y-78120823D01*
X100066894Y-78120821D01*
X99979289Y-77989711D01*
X99867789Y-77878211D01*
X99736679Y-77790606D01*
X99736675Y-77790604D01*
X99736673Y-77790603D01*
X99736674Y-77790603D01*
X99591001Y-77730264D01*
X99590991Y-77730261D01*
X99487425Y-77709661D01*
X99436342Y-77699500D01*
X99278658Y-77699500D01*
X99234815Y-77708220D01*
X99124008Y-77730261D01*
X99123998Y-77730264D01*
X98978325Y-77790603D01*
X98847211Y-77878210D01*
X98847210Y-77878212D01*
X98735712Y-77989710D01*
X98735710Y-77989711D01*
X98648103Y-78120825D01*
X98587764Y-78266498D01*
X98587761Y-78266508D01*
X98557000Y-78421159D01*
X98557000Y-78548804D01*
X98547984Y-78570568D01*
X98416826Y-78570568D01*
X98409159Y-78553646D01*
X98407282Y-78525018D01*
X98400814Y-78426379D01*
X98400814Y-78416722D01*
X98415797Y-78188043D01*
X98417061Y-78178451D01*
X98461701Y-77954003D01*
X98464199Y-77944680D01*
X98537761Y-77727958D01*
X98541454Y-77719042D01*
X98642672Y-77513782D01*
X98647498Y-77505421D01*
X98774647Y-77315121D01*
X98780530Y-77307456D01*
X98932857Y-77133752D01*
X98936140Y-77130246D01*
X99302107Y-76764267D01*
X99302110Y-76764266D01*
X99342826Y-76723547D01*
X99342827Y-76723547D01*
X99408518Y-76657852D01*
X99521626Y-76510438D01*
X99614528Y-76349523D01*
X99685634Y-76177859D01*
X99722280Y-76041100D01*
X99752646Y-75998725D01*
X99867789Y-75921789D01*
X99979289Y-75810289D01*
X100066894Y-75679179D01*
X100127237Y-75533497D01*
X100158000Y-75378842D01*
X100158000Y-75221158D01*
X100127237Y-75066503D01*
X100066894Y-74920821D01*
X99979289Y-74789711D01*
X99867789Y-74678211D01*
X99867786Y-74678209D01*
X99790895Y-74626832D01*
X99786683Y-74620529D01*
X99779681Y-74617629D01*
X99771425Y-74597693D01*
X99759429Y-74579740D01*
X99758007Y-74565303D01*
X99758007Y-74551502D01*
X99758007Y-74536149D01*
X99758165Y-74531364D01*
X99770094Y-74349418D01*
X99771355Y-74339837D01*
X99806458Y-74163384D01*
X99808960Y-74154049D01*
X99866791Y-73983698D01*
X99870486Y-73974776D01*
X99950061Y-73813423D01*
X99954900Y-73805044D01*
X100054844Y-73655473D01*
X100060734Y-73647799D01*
X100181245Y-73510387D01*
X100184554Y-73506854D01*
X100223240Y-73468169D01*
X100223241Y-73468166D01*
X100994222Y-72697173D01*
X101046548Y-72675500D01*
X101465249Y-72675500D01*
X101465256Y-72675500D01*
X101494849Y-72672725D01*
X101575056Y-72644659D01*
X101619473Y-72629117D01*
X101619473Y-72629116D01*
X101619475Y-72629116D01*
X101725711Y-72550711D01*
X101804116Y-72444475D01*
X101805547Y-72440387D01*
X101837893Y-72347946D01*
X101847725Y-72319849D01*
X101850500Y-72290256D01*
X101850500Y-71709744D01*
X102149500Y-71709744D01*
X102149500Y-72290256D01*
X102152275Y-72319849D01*
X102152275Y-72319851D01*
X102152276Y-72319854D01*
X102195882Y-72444473D01*
X102235130Y-72497652D01*
X102274289Y-72550711D01*
X102380525Y-72629116D01*
X102424948Y-72644660D01*
X102437401Y-72655788D01*
X102452832Y-72662180D01*
X102457698Y-72673927D01*
X102467178Y-72682399D01*
X102474507Y-72714505D01*
X102474509Y-72811166D01*
X102474509Y-72838085D01*
X102474492Y-72838127D01*
X102474495Y-73009024D01*
X102505913Y-73287817D01*
X102505914Y-73287823D01*
X102568344Y-73561330D01*
X102568345Y-73561333D01*
X102661009Y-73826139D01*
X102740559Y-73991322D01*
X102782739Y-74078908D01*
X102931998Y-74316450D01*
X102932005Y-74316460D01*
X103106918Y-74535793D01*
X103106923Y-74535798D01*
X103106924Y-74535799D01*
X103168828Y-74597702D01*
X103168829Y-74597703D01*
X103634792Y-75063676D01*
X103656466Y-75116002D01*
X103655044Y-75130436D01*
X103637000Y-75221157D01*
X103637000Y-75378840D01*
X103667761Y-75533491D01*
X103667764Y-75533501D01*
X103728103Y-75679174D01*
X103792131Y-75775000D01*
X103815711Y-75810289D01*
X103927211Y-75921789D01*
X104058321Y-76009394D01*
X104058326Y-76009396D01*
X104058325Y-76009396D01*
X104203146Y-76069382D01*
X104204003Y-76069737D01*
X104358658Y-76100500D01*
X104358660Y-76100500D01*
X104516340Y-76100500D01*
X104516342Y-76100500D01*
X104670997Y-76069737D01*
X104816679Y-76009394D01*
X104947789Y-75921789D01*
X105059289Y-75810289D01*
X105146894Y-75679179D01*
X105207237Y-75533497D01*
X105238000Y-75378842D01*
X105238000Y-75221158D01*
X105207237Y-75066503D01*
X105146894Y-74920821D01*
X105059289Y-74789711D01*
X104947789Y-74678211D01*
X104947786Y-74678209D01*
X104915342Y-74656530D01*
X104816679Y-74590606D01*
X104816675Y-74590604D01*
X104816673Y-74590603D01*
X104816674Y-74590603D01*
X104671001Y-74530264D01*
X104670991Y-74530261D01*
X104567425Y-74509661D01*
X104516342Y-74499500D01*
X104358658Y-74499500D01*
X104267954Y-74517541D01*
X104212405Y-74506491D01*
X104201192Y-74497288D01*
X103774224Y-74070312D01*
X103770914Y-74066779D01*
X103728726Y-74018673D01*
X103629350Y-73905358D01*
X103623465Y-73897688D01*
X103505533Y-73721192D01*
X103500695Y-73712812D01*
X103406810Y-73522435D01*
X103403117Y-73513521D01*
X103334875Y-73312498D01*
X103332374Y-73303162D01*
X103290958Y-73094968D01*
X103289696Y-73085376D01*
X103285510Y-73021529D01*
X103275667Y-72871395D01*
X103275509Y-72866613D01*
X103275507Y-72714501D01*
X103297180Y-72662177D01*
X103325064Y-72644655D01*
X103369475Y-72629116D01*
X103475711Y-72550711D01*
X103554116Y-72444475D01*
X103555547Y-72440387D01*
X103587893Y-72347946D01*
X103597725Y-72319849D01*
X103600500Y-72290256D01*
X103600500Y-71709744D01*
X103597725Y-71680151D01*
X103591207Y-71661524D01*
X103554117Y-71555526D01*
X103497771Y-71479180D01*
X103475711Y-71449289D01*
X103390942Y-71386727D01*
X103369473Y-71370882D01*
X103244854Y-71327276D01*
X103244855Y-71327276D01*
X103244850Y-71327275D01*
X103244849Y-71327275D01*
X103215256Y-71324500D01*
X102534744Y-71324500D01*
X102505151Y-71327275D01*
X102505149Y-71327275D01*
X102505145Y-71327276D01*
X102380526Y-71370882D01*
X102274290Y-71449288D01*
X102274288Y-71449290D01*
X102195882Y-71555526D01*
X102152276Y-71680145D01*
X102152275Y-71680149D01*
X102152275Y-71680151D01*
X102149500Y-71709744D01*
X101850500Y-71709744D01*
X101847725Y-71680151D01*
X101841207Y-71661524D01*
X101804117Y-71555526D01*
X101747771Y-71479180D01*
X101725711Y-71449289D01*
X101640942Y-71386727D01*
X101619473Y-71370882D01*
X101494854Y-71327276D01*
X101494855Y-71327276D01*
X101494850Y-71327275D01*
X101494849Y-71327275D01*
X101465256Y-71324500D01*
X100784744Y-71324500D01*
X100755151Y-71327275D01*
X100755149Y-71327275D01*
X100755145Y-71327276D01*
X100630526Y-71370882D01*
X100524290Y-71449288D01*
X100524288Y-71449290D01*
X100445885Y-71555522D01*
X100443477Y-71560080D01*
X100399863Y-71596213D01*
X100378053Y-71599500D01*
X100064583Y-71599500D01*
X100060435Y-71599384D01*
X100026704Y-71597489D01*
X99824282Y-71586121D01*
X99816044Y-71585192D01*
X99584918Y-71545923D01*
X99576843Y-71544080D01*
X99351569Y-71479180D01*
X99343736Y-71476439D01*
X99127155Y-71386727D01*
X99119679Y-71383127D01*
X98914502Y-71269730D01*
X98907475Y-71265315D01*
X98716277Y-71129653D01*
X98709789Y-71124478D01*
X98533431Y-70966873D01*
X98530415Y-70964022D01*
X97815245Y-70248852D01*
X97811934Y-70245317D01*
X97695105Y-70112095D01*
X97689213Y-70104415D01*
X97592131Y-69959117D01*
X97587291Y-69950735D01*
X97509996Y-69793993D01*
X97506292Y-69785050D01*
X97502402Y-69773591D01*
X97450118Y-69619565D01*
X97447614Y-69610216D01*
X97442488Y-69584447D01*
X97413523Y-69438824D01*
X97412259Y-69429228D01*
X97411586Y-69418960D01*
X97400823Y-69254744D01*
X97400823Y-69245071D01*
X97401826Y-69229774D01*
X97412247Y-69070767D01*
X97413511Y-69061174D01*
X97447603Y-68889773D01*
X97450107Y-68880429D01*
X97450583Y-68879028D01*
X97506284Y-68714936D01*
X97509981Y-68706009D01*
X97587283Y-68549254D01*
X97592121Y-68540876D01*
X97600951Y-68527661D01*
X97689209Y-68395569D01*
X97695091Y-68387902D01*
X97811832Y-68254779D01*
X97815113Y-68251276D01*
X100009666Y-66056724D01*
X100061991Y-66035051D01*
X100114317Y-66056725D01*
X100234213Y-66176621D01*
X100383904Y-66285378D01*
X100494201Y-66341577D01*
X100548763Y-66369378D01*
X100548767Y-66369380D01*
X100724725Y-66426552D01*
X100724731Y-66426553D01*
X100724736Y-66426555D01*
X100861900Y-66448279D01*
X100902648Y-66469041D01*
X100931488Y-66497880D01*
X100931494Y-66497887D01*
X102507519Y-68073912D01*
X102507638Y-68074016D01*
X102627817Y-68194195D01*
X102629709Y-68195834D01*
X102971970Y-68492406D01*
X102971975Y-68492410D01*
X102971980Y-68492414D01*
X103047915Y-68549258D01*
X103336531Y-68765314D01*
X103336535Y-68765316D01*
X103336541Y-68765321D01*
X103719642Y-69011526D01*
X103719646Y-69011528D01*
X103719647Y-69011529D01*
X103810565Y-69061174D01*
X104119331Y-69229774D01*
X104533571Y-69418952D01*
X104533584Y-69418957D01*
X104533591Y-69418960D01*
X104960223Y-69578086D01*
X104960237Y-69578090D01*
X104960251Y-69578096D01*
X104960260Y-69578098D01*
X104960264Y-69578100D01*
X105397188Y-69706394D01*
X105397185Y-69706394D01*
X105397195Y-69706396D01*
X105397198Y-69706397D01*
X105842184Y-69803199D01*
X106292942Y-69868010D01*
X106747162Y-69900498D01*
X106747166Y-69900499D01*
X106747175Y-69900499D01*
X106907424Y-69900499D01*
X106907428Y-69900500D01*
X106922146Y-69900500D01*
X106974871Y-69900500D01*
X107032454Y-69900500D01*
X109202074Y-69900500D01*
X109206914Y-69900658D01*
X109398066Y-69913187D01*
X109407662Y-69914450D01*
X109593149Y-69951346D01*
X109602495Y-69953850D01*
X109781590Y-70014646D01*
X109790527Y-70018348D01*
X109875340Y-70060173D01*
X109960151Y-70101997D01*
X109968534Y-70106837D01*
X109985853Y-70118409D01*
X110125789Y-70211911D01*
X110133459Y-70217796D01*
X110243548Y-70314342D01*
X110277502Y-70344119D01*
X110281036Y-70347429D01*
X110353609Y-70420002D01*
X110357554Y-70424270D01*
X110480212Y-70567888D01*
X110487036Y-70577280D01*
X110584201Y-70735841D01*
X110589470Y-70746184D01*
X110660630Y-70917982D01*
X110664218Y-70929025D01*
X110707627Y-71109839D01*
X110709444Y-71121309D01*
X110721971Y-71280494D01*
X110704469Y-71334359D01*
X110672641Y-71356146D01*
X110630525Y-71370883D01*
X110524290Y-71449288D01*
X110524288Y-71449290D01*
X110445882Y-71555526D01*
X110402276Y-71680145D01*
X110399500Y-71709749D01*
X110399500Y-72128458D01*
X110377826Y-72180784D01*
X109646419Y-72912197D01*
X109646045Y-72912622D01*
X109587917Y-72970749D01*
X109413420Y-73189553D01*
X109264512Y-73426525D01*
X109143079Y-73678670D01*
X109143074Y-73678682D01*
X109050634Y-73942841D01*
X108988350Y-74215697D01*
X108988349Y-74215701D01*
X108957007Y-74493802D01*
X108957005Y-74597693D01*
X108957005Y-74615079D01*
X108957005Y-74615081D01*
X108957004Y-74650792D01*
X108957003Y-74706494D01*
X108957002Y-74725067D01*
X108957002Y-74765296D01*
X108935328Y-74817622D01*
X108924115Y-74826824D01*
X108847216Y-74878206D01*
X108847213Y-74878209D01*
X108735711Y-74989710D01*
X108735710Y-74989711D01*
X108648103Y-75120825D01*
X108587764Y-75266498D01*
X108587761Y-75266508D01*
X108565417Y-75378842D01*
X108557000Y-75421158D01*
X108557000Y-75578842D01*
X108566636Y-75627285D01*
X108587761Y-75733491D01*
X108587764Y-75733501D01*
X108648103Y-75879174D01*
X108648105Y-75879177D01*
X108648106Y-75879179D01*
X108676577Y-75921789D01*
X108735710Y-76010288D01*
X108777176Y-76051754D01*
X108798850Y-76104080D01*
X108777177Y-76156405D01*
X108354970Y-76578623D01*
X108354852Y-76578757D01*
X108287624Y-76645987D01*
X108097295Y-76884652D01*
X107934883Y-77143130D01*
X107802433Y-77418165D01*
X107802429Y-77418175D01*
X107701612Y-77706291D01*
X107701609Y-77706303D01*
X107633682Y-78003907D01*
X107599501Y-78307262D01*
X107599501Y-78551948D01*
X107599500Y-78551952D01*
X107599500Y-78735230D01*
X107633680Y-79038586D01*
X107633680Y-79038587D01*
X107701605Y-79336188D01*
X107701610Y-79336204D01*
X107802431Y-79624333D01*
X107934879Y-79899366D01*
X107934881Y-79899370D01*
X107934882Y-79899371D01*
X107959188Y-79938053D01*
X108091019Y-80147861D01*
X108097295Y-80157848D01*
X108287626Y-80396516D01*
X108346634Y-80455525D01*
X108358269Y-80467160D01*
X108358270Y-80467161D01*
X108554791Y-80663683D01*
X108576465Y-80716009D01*
X108575043Y-80730445D01*
X108557000Y-80821158D01*
X108557000Y-80978840D01*
X108587761Y-81133491D01*
X108587764Y-81133501D01*
X108648103Y-81279174D01*
X108648105Y-81279177D01*
X108648106Y-81279179D01*
X108676577Y-81321789D01*
X108729483Y-81400969D01*
X108735711Y-81410289D01*
X108847211Y-81521789D01*
X108978321Y-81609394D01*
X108978326Y-81609396D01*
X108978325Y-81609396D01*
X109123998Y-81669735D01*
X109124003Y-81669737D01*
X109278658Y-81700500D01*
X109278660Y-81700500D01*
X109436340Y-81700500D01*
X109436342Y-81700500D01*
X109590997Y-81669737D01*
X109736679Y-81609394D01*
X109867789Y-81521789D01*
X109979289Y-81410289D01*
X110030673Y-81333388D01*
X110077766Y-81301922D01*
X110092202Y-81300500D01*
X113702798Y-81300500D01*
X113755124Y-81322174D01*
X113764327Y-81333388D01*
X113809483Y-81400969D01*
X113815711Y-81410289D01*
X113927211Y-81521789D01*
X114058321Y-81609394D01*
X114058326Y-81609396D01*
X114058325Y-81609396D01*
X114203998Y-81669735D01*
X114204003Y-81669737D01*
X114358658Y-81700500D01*
X114358660Y-81700500D01*
X114570226Y-81700500D01*
X114570227Y-81700500D01*
X114672087Y-81673207D01*
X114691936Y-81661745D01*
X114700586Y-81657479D01*
X114816679Y-81609394D01*
X114947789Y-81521789D01*
X115059289Y-81410289D01*
X115146894Y-81279179D01*
X115207237Y-81133497D01*
X115238000Y-80978842D01*
X115238000Y-80821158D01*
X115207237Y-80666503D01*
X115204523Y-80659950D01*
X115146896Y-80520825D01*
X115146895Y-80520823D01*
X115146894Y-80520821D01*
X115059289Y-80389711D01*
X114947789Y-80278211D01*
X114936823Y-80270884D01*
X114905568Y-80250000D01*
X114816679Y-80190606D01*
X114816675Y-80190604D01*
X114816673Y-80190603D01*
X114816674Y-80190603D01*
X114671001Y-80130264D01*
X114670991Y-80130261D01*
X114567425Y-80109661D01*
X114516342Y-80099500D01*
X114358658Y-80099500D01*
X114324538Y-80106287D01*
X114204008Y-80130261D01*
X114203998Y-80130264D01*
X114058325Y-80190603D01*
X113927211Y-80278210D01*
X113927210Y-80278211D01*
X113815709Y-80389713D01*
X113815708Y-80389714D01*
X113764327Y-80466612D01*
X113717234Y-80498078D01*
X113702798Y-80499500D01*
X110092202Y-80499500D01*
X110039876Y-80477826D01*
X110030673Y-80466612D01*
X109979291Y-80389714D01*
X109979290Y-80389713D01*
X109979289Y-80389711D01*
X109867789Y-80278211D01*
X109856823Y-80270884D01*
X109825568Y-80250000D01*
X109736679Y-80190606D01*
X109736675Y-80190604D01*
X109736673Y-80190603D01*
X109736674Y-80190603D01*
X109591001Y-80130264D01*
X109590991Y-80130261D01*
X109487425Y-80109661D01*
X109436342Y-80099500D01*
X109278658Y-80099500D01*
X109187946Y-80117543D01*
X109132397Y-80106493D01*
X109121184Y-80097291D01*
X108963660Y-79939766D01*
X108960350Y-79936232D01*
X108884685Y-79849953D01*
X108799814Y-79753176D01*
X108793929Y-79745506D01*
X108660005Y-79545074D01*
X108655175Y-79536709D01*
X108548557Y-79320511D01*
X108544855Y-79311571D01*
X108543419Y-79307340D01*
X108467373Y-79083316D01*
X108464870Y-79073972D01*
X108457831Y-79038586D01*
X108443503Y-78966551D01*
X108454552Y-78911003D01*
X108501645Y-78879537D01*
X108557193Y-78890586D01*
X108586894Y-78930632D01*
X108587763Y-78933499D01*
X108648103Y-79079174D01*
X108648105Y-79079177D01*
X108648106Y-79079179D01*
X108676577Y-79121789D01*
X108734525Y-79208515D01*
X108735711Y-79210289D01*
X108847211Y-79321789D01*
X108978321Y-79409394D01*
X108978326Y-79409396D01*
X108978325Y-79409396D01*
X109093477Y-79457093D01*
X109124003Y-79469737D01*
X109278658Y-79500500D01*
X109278660Y-79500500D01*
X109436340Y-79500500D01*
X109436342Y-79500500D01*
X109590997Y-79469737D01*
X109736679Y-79409394D01*
X109867789Y-79321789D01*
X109979289Y-79210289D01*
X110066894Y-79079179D01*
X110127237Y-78933497D01*
X110158000Y-78778842D01*
X110158000Y-78621158D01*
X110127237Y-78466503D01*
X110123500Y-78457480D01*
X110066896Y-78320825D01*
X110066895Y-78320823D01*
X110066894Y-78320821D01*
X109979289Y-78189711D01*
X109867789Y-78078211D01*
X109736679Y-77990606D01*
X109736675Y-77990604D01*
X109736673Y-77990603D01*
X109736674Y-77990603D01*
X109591001Y-77930264D01*
X109590991Y-77930261D01*
X109487425Y-77909661D01*
X109436342Y-77899500D01*
X109278658Y-77899500D01*
X109234815Y-77908220D01*
X109124008Y-77930261D01*
X109123998Y-77930264D01*
X108978325Y-77990603D01*
X108847211Y-78078210D01*
X108847210Y-78078212D01*
X108735712Y-78189710D01*
X108735710Y-78189711D01*
X108648103Y-78320825D01*
X108587764Y-78466498D01*
X108587761Y-78466508D01*
X108557000Y-78621159D01*
X108557000Y-78709858D01*
X108547020Y-78733951D01*
X108538636Y-78758650D01*
X108536315Y-78759794D01*
X108535326Y-78762184D01*
X108511235Y-78772162D01*
X108487840Y-78783700D01*
X108485389Y-78782868D01*
X108483000Y-78783858D01*
X108458906Y-78773878D01*
X108434208Y-78765494D01*
X108433063Y-78763173D01*
X108430674Y-78762184D01*
X108409158Y-78714698D01*
X108400659Y-78585026D01*
X108400501Y-78580186D01*
X108400501Y-78462320D01*
X108400659Y-78457480D01*
X108412695Y-78273864D01*
X108416584Y-78214524D01*
X108417848Y-78204928D01*
X108426228Y-78162802D01*
X108464873Y-77968520D01*
X108467377Y-77959177D01*
X108472303Y-77944666D01*
X108544859Y-77730921D01*
X108548558Y-77721990D01*
X108655179Y-77505783D01*
X108660001Y-77497431D01*
X108793934Y-77296987D01*
X108799808Y-77289332D01*
X108960492Y-77106107D01*
X108963785Y-77102593D01*
X108963785Y-77102592D01*
X109002654Y-77063723D01*
X109002653Y-77063723D01*
X109450809Y-76615557D01*
X109450808Y-76615557D01*
X109454384Y-76611982D01*
X109454554Y-76611787D01*
X109478952Y-76587392D01*
X109587762Y-76437637D01*
X109671807Y-76272704D01*
X109674946Y-76263042D01*
X109711727Y-76219976D01*
X109716986Y-76217550D01*
X109736679Y-76209394D01*
X109867789Y-76121789D01*
X109979289Y-76010289D01*
X110066894Y-75879179D01*
X110127237Y-75733497D01*
X110158000Y-75578842D01*
X110158000Y-75421158D01*
X110127237Y-75266503D01*
X110110646Y-75226449D01*
X110066896Y-75120825D01*
X110066895Y-75120823D01*
X110066894Y-75120821D01*
X109979289Y-74989711D01*
X109867789Y-74878211D01*
X109825875Y-74850205D01*
X109790891Y-74826829D01*
X109786680Y-74820526D01*
X109779677Y-74817626D01*
X109771416Y-74797683D01*
X109759425Y-74779736D01*
X109758003Y-74765300D01*
X109758003Y-74765296D01*
X109758004Y-74739153D01*
X109758003Y-74739149D01*
X109758003Y-74702724D01*
X109758004Y-74651441D01*
X109758004Y-74636151D01*
X109758162Y-74631362D01*
X109772157Y-74417905D01*
X109773418Y-74408323D01*
X109814682Y-74200899D01*
X109817184Y-74191564D01*
X109885167Y-73991312D01*
X109888862Y-73982389D01*
X109982402Y-73792718D01*
X109987241Y-73784338D01*
X109993481Y-73775000D01*
X110104739Y-73608498D01*
X110110615Y-73600842D01*
X110252065Y-73439556D01*
X110255338Y-73436062D01*
X110271032Y-73420370D01*
X110293945Y-73397458D01*
X110293946Y-73397454D01*
X110994221Y-72697173D01*
X111046547Y-72675500D01*
X111465249Y-72675500D01*
X111465256Y-72675500D01*
X111494849Y-72672725D01*
X111575056Y-72644659D01*
X111619473Y-72629117D01*
X111619473Y-72629116D01*
X111619475Y-72629116D01*
X111725711Y-72550711D01*
X111804116Y-72444475D01*
X111805547Y-72440387D01*
X111837893Y-72347946D01*
X111847725Y-72319849D01*
X111850500Y-72290256D01*
X111850500Y-71709744D01*
X111847725Y-71680151D01*
X111841207Y-71661524D01*
X111804117Y-71555526D01*
X111747771Y-71479180D01*
X111725711Y-71449289D01*
X111619475Y-71370884D01*
X111619474Y-71370883D01*
X111575058Y-71355341D01*
X111562611Y-71344217D01*
X111547189Y-71337835D01*
X111542319Y-71326083D01*
X111532828Y-71317601D01*
X111525500Y-71285516D01*
X111525500Y-71259773D01*
X111525492Y-71259744D01*
X111525491Y-71254931D01*
X111525492Y-71254928D01*
X111525491Y-71254909D01*
X111525491Y-71196801D01*
X111525491Y-71196798D01*
X111499582Y-70966850D01*
X111448091Y-70741248D01*
X111421065Y-70664010D01*
X111371671Y-70522847D01*
X111371666Y-70522836D01*
X111371664Y-70522830D01*
X111271264Y-70314342D01*
X111148151Y-70118406D01*
X111003875Y-69937486D01*
X110963566Y-69897176D01*
X110963549Y-69897156D01*
X110920698Y-69854305D01*
X110808413Y-69742020D01*
X110808410Y-69742018D01*
X110804777Y-69738385D01*
X110804753Y-69738364D01*
X110753521Y-69687132D01*
X110549719Y-69524605D01*
X110539541Y-69518210D01*
X110328982Y-69385907D01*
X110328981Y-69385906D01*
X110328977Y-69385904D01*
X110111652Y-69281246D01*
X110094110Y-69272798D01*
X110094106Y-69272796D01*
X110094097Y-69272792D01*
X109848058Y-69186700D01*
X109848053Y-69186698D01*
X109848051Y-69186698D01*
X109804592Y-69176778D01*
X109593901Y-69128689D01*
X109496754Y-69117743D01*
X109334849Y-69099500D01*
X109334844Y-69099500D01*
X106976330Y-69099500D01*
X106973424Y-69099443D01*
X106540418Y-69082428D01*
X106534626Y-69081972D01*
X106105739Y-69031208D01*
X106100000Y-69030299D01*
X105676422Y-68946043D01*
X105670772Y-68944687D01*
X105255093Y-68827452D01*
X105249567Y-68825656D01*
X104844391Y-68676177D01*
X104839023Y-68673954D01*
X104446804Y-68493138D01*
X104441627Y-68490500D01*
X104064813Y-68279472D01*
X104059859Y-68276436D01*
X103700759Y-68036493D01*
X103696058Y-68033077D01*
X103356900Y-67765706D01*
X103352482Y-67761933D01*
X103034067Y-67467593D01*
X103031972Y-67465579D01*
X101806726Y-66240333D01*
X101785052Y-66188007D01*
X101806725Y-66135682D01*
X101896621Y-66045787D01*
X102005378Y-65896096D01*
X102089379Y-65731235D01*
X102101363Y-65694351D01*
X102146552Y-65555274D01*
X102146552Y-65555271D01*
X102146555Y-65555264D01*
X102175500Y-65372514D01*
X102175500Y-65187486D01*
X102174260Y-65179654D01*
X104725000Y-65179654D01*
X104725000Y-65380345D01*
X104756393Y-65578560D01*
X104756396Y-65578573D01*
X104818407Y-65769422D01*
X104909521Y-65948244D01*
X104938421Y-65988023D01*
X104938422Y-65988023D01*
X105398958Y-65527487D01*
X105423978Y-65587890D01*
X105495112Y-65694351D01*
X105585649Y-65784888D01*
X105692110Y-65856022D01*
X105752511Y-65881041D01*
X105291975Y-66341577D01*
X105331753Y-66370478D01*
X105510577Y-66461592D01*
X105701426Y-66523603D01*
X105701439Y-66523606D01*
X105899654Y-66555000D01*
X106100346Y-66555000D01*
X106298560Y-66523606D01*
X106298573Y-66523603D01*
X106489422Y-66461592D01*
X106668250Y-66370474D01*
X106708024Y-66341577D01*
X106247488Y-65881041D01*
X106307890Y-65856022D01*
X106414351Y-65784888D01*
X106504888Y-65694351D01*
X106576022Y-65587890D01*
X106601041Y-65527487D01*
X107061577Y-65988023D01*
X107090474Y-65948250D01*
X107181592Y-65769422D01*
X107243603Y-65578573D01*
X107243606Y-65578560D01*
X107275000Y-65380345D01*
X107275000Y-65179654D01*
X107243606Y-64981439D01*
X107243603Y-64981426D01*
X107181592Y-64790577D01*
X107090478Y-64611753D01*
X107061577Y-64571975D01*
X106601041Y-65032510D01*
X106576022Y-64972110D01*
X106504888Y-64865649D01*
X106414351Y-64775112D01*
X106307890Y-64703978D01*
X106247487Y-64678957D01*
X106708023Y-64218422D01*
X106708023Y-64218421D01*
X106668244Y-64189521D01*
X106489422Y-64098407D01*
X106298573Y-64036396D01*
X106298560Y-64036393D01*
X106100346Y-64005000D01*
X105899654Y-64005000D01*
X105701439Y-64036393D01*
X105701426Y-64036396D01*
X105510577Y-64098407D01*
X105331751Y-64189523D01*
X105291975Y-64218422D01*
X105752511Y-64678958D01*
X105692110Y-64703978D01*
X105585649Y-64775112D01*
X105495112Y-64865649D01*
X105423978Y-64972110D01*
X105398958Y-65032511D01*
X104938422Y-64571975D01*
X104909523Y-64611751D01*
X104818407Y-64790577D01*
X104756396Y-64981426D01*
X104756393Y-64981439D01*
X104725000Y-65179654D01*
X102174260Y-65179654D01*
X102146555Y-65004736D01*
X102146553Y-65004731D01*
X102146552Y-65004725D01*
X102089380Y-64828767D01*
X102089378Y-64828763D01*
X102062041Y-64775112D01*
X102005378Y-64663904D01*
X101896621Y-64514213D01*
X101765787Y-64383379D01*
X101765784Y-64383376D01*
X101765782Y-64383375D01*
X101659961Y-64306492D01*
X101616098Y-64274623D01*
X101616092Y-64274620D01*
X101451236Y-64190621D01*
X101451232Y-64190619D01*
X101275274Y-64133447D01*
X101275261Y-64133444D01*
X101092516Y-64104500D01*
X101092514Y-64104500D01*
X100907486Y-64104500D01*
X100907484Y-64104500D01*
X100724738Y-64133444D01*
X100724725Y-64133447D01*
X100548767Y-64190619D01*
X100548763Y-64190621D01*
X100383907Y-64274620D01*
X100383901Y-64274623D01*
X100234217Y-64383375D01*
X100103375Y-64514217D01*
X99994623Y-64663901D01*
X99994620Y-64663907D01*
X99910621Y-64828763D01*
X99910619Y-64828767D01*
X99853447Y-65004725D01*
X99853445Y-65004736D01*
X99839002Y-65095919D01*
X99810964Y-65143048D01*
X99723221Y-65210380D01*
X99723220Y-65210381D01*
X99678697Y-65254909D01*
X99678695Y-65254911D01*
X97287847Y-67645757D01*
X97268808Y-67664796D01*
X97268784Y-67664805D01*
X97159311Y-67774281D01*
X97004485Y-67968434D01*
X97004474Y-67968448D01*
X96872349Y-68178728D01*
X96872349Y-68178729D01*
X96872346Y-68178734D01*
X96872346Y-68178735D01*
X96864112Y-68195834D01*
X96764594Y-68402488D01*
X96764591Y-68402495D01*
X96682567Y-68636912D01*
X96682565Y-68636918D01*
X96627307Y-68879028D01*
X96627306Y-68879034D01*
X96602473Y-69099443D01*
X96599500Y-69125827D01*
X96599500Y-69312903D01*
X96599512Y-69313066D01*
X96599512Y-69374175D01*
X96627318Y-69620964D01*
X96627319Y-69620969D01*
X96682577Y-69863078D01*
X96682579Y-69863084D01*
X96682580Y-69863088D01*
X96764603Y-70097502D01*
X96872356Y-70321259D01*
X96872358Y-70321263D01*
X96872359Y-70321264D01*
X96872359Y-70321265D01*
X97004483Y-70531544D01*
X97004487Y-70531549D01*
X97110115Y-70664006D01*
X97159326Y-70725715D01*
X97209846Y-70776237D01*
X97209850Y-70776243D01*
X97247129Y-70813522D01*
X97247130Y-70813523D01*
X97247130Y-70813524D01*
X97292055Y-70858450D01*
X97292067Y-70858460D01*
X98013193Y-71579586D01*
X98013195Y-71579587D01*
X98013195Y-71579588D01*
X98068511Y-71634905D01*
X98068520Y-71634913D01*
X98068521Y-71634914D01*
X98174645Y-71722008D01*
X98293767Y-71819769D01*
X98454911Y-71927440D01*
X98536037Y-71981647D01*
X98536041Y-71981649D01*
X98536049Y-71981654D01*
X98627015Y-72030276D01*
X98793012Y-72119004D01*
X99062214Y-72230511D01*
X99341048Y-72315094D01*
X99341050Y-72315094D01*
X99341052Y-72315095D01*
X99598914Y-72366387D01*
X99626831Y-72371940D01*
X99916809Y-72400500D01*
X99979466Y-72400500D01*
X100031792Y-72422174D01*
X100053466Y-72474500D01*
X100031792Y-72526825D01*
X99966638Y-72591981D01*
X99575696Y-72982927D01*
X99575400Y-72983263D01*
X99526791Y-73031871D01*
X99369201Y-73229475D01*
X99234725Y-73443482D01*
X99125054Y-73671204D01*
X99125049Y-73671216D01*
X99041566Y-73909780D01*
X98985316Y-74156201D01*
X98985315Y-74156205D01*
X98957010Y-74407360D01*
X98957008Y-74533744D01*
X98957008Y-74565292D01*
X98935334Y-74617618D01*
X98924121Y-74626820D01*
X98847216Y-74678206D01*
X98847213Y-74678209D01*
X98735711Y-74789710D01*
X98735710Y-74789711D01*
X98648103Y-74920825D01*
X98639739Y-74941018D01*
X98599689Y-74981065D01*
X98543052Y-74981063D01*
X98503005Y-74941013D01*
X98499897Y-74931858D01*
X98466392Y-74806814D01*
X98400500Y-74692686D01*
X98307314Y-74599500D01*
X98273089Y-74579740D01*
X98193190Y-74533610D01*
X98193181Y-74533606D01*
X98065894Y-74499500D01*
X98065892Y-74499500D01*
X98034046Y-74499500D01*
X97981720Y-74477826D01*
X97533765Y-74029872D01*
X97533746Y-74029855D01*
X97499746Y-73995855D01*
X97499742Y-73995851D01*
X97332554Y-73867563D01*
X97188406Y-73784338D01*
X97150051Y-73762193D01*
X97150043Y-73762190D01*
X96955356Y-73681548D01*
X96833634Y-73648932D01*
X96800461Y-73629780D01*
X96731482Y-73560801D01*
X96626394Y-73509427D01*
X96558264Y-73499500D01*
X96558260Y-73499500D01*
X95316740Y-73499500D01*
X95316735Y-73499500D01*
X95248606Y-73509427D01*
X95248605Y-73509427D01*
X95143517Y-73560801D01*
X95060801Y-73643517D01*
X95009427Y-73748605D01*
X95009427Y-73748606D01*
X94999500Y-73816735D01*
X91774654Y-73816735D01*
X91894216Y-73697173D01*
X91946542Y-73675500D01*
X92152749Y-73675500D01*
X92152756Y-73675500D01*
X92182349Y-73672725D01*
X92243166Y-73651444D01*
X92306973Y-73629117D01*
X92306973Y-73629116D01*
X92306975Y-73629116D01*
X92413211Y-73550711D01*
X92491616Y-73444475D01*
X92491617Y-73444469D01*
X92494023Y-73439920D01*
X92537637Y-73403787D01*
X92559447Y-73400500D01*
X93149167Y-73400500D01*
X93201493Y-73422174D01*
X93268517Y-73489198D01*
X93373607Y-73540573D01*
X93441740Y-73550500D01*
X93441746Y-73550500D01*
X94683254Y-73550500D01*
X94683260Y-73550500D01*
X94751393Y-73540573D01*
X94856483Y-73489198D01*
X94939198Y-73406483D01*
X94990573Y-73301393D01*
X95000500Y-73233260D01*
X95000500Y-72866740D01*
X94990573Y-72798607D01*
X94939198Y-72693517D01*
X94856483Y-72610802D01*
X94856482Y-72610801D01*
X94751394Y-72559427D01*
X94683264Y-72549500D01*
X94683260Y-72549500D01*
X93441740Y-72549500D01*
X93441735Y-72549500D01*
X93373606Y-72559427D01*
X93373605Y-72559427D01*
X93307016Y-72591981D01*
X93274516Y-72599500D01*
X92559447Y-72599500D01*
X92507121Y-72577826D01*
X92494023Y-72560080D01*
X92491614Y-72555522D01*
X92448904Y-72497652D01*
X92413211Y-72449289D01*
X92335435Y-72391888D01*
X92306973Y-72370882D01*
X92182354Y-72327276D01*
X92182355Y-72327276D01*
X92182350Y-72327275D01*
X92182349Y-72327275D01*
X92152756Y-72324500D01*
X91547244Y-72324500D01*
X91517651Y-72327275D01*
X91517649Y-72327275D01*
X91517645Y-72327276D01*
X91393026Y-72370882D01*
X91286790Y-72449288D01*
X91286788Y-72449290D01*
X91208382Y-72555526D01*
X91164776Y-72680145D01*
X91164775Y-72680149D01*
X91164775Y-72680151D01*
X91164100Y-72687356D01*
X91162000Y-72709749D01*
X91162000Y-73265953D01*
X91140326Y-73318279D01*
X90884534Y-73574072D01*
X90391828Y-74066779D01*
X90155781Y-74302826D01*
X90103455Y-74324500D01*
X89722244Y-74324500D01*
X89692651Y-74327275D01*
X89692649Y-74327275D01*
X89692645Y-74327276D01*
X89568027Y-74370882D01*
X89518424Y-74407491D01*
X89463452Y-74421123D01*
X89414941Y-74391892D01*
X89400482Y-74347951D01*
X89400484Y-73652049D01*
X89422158Y-73599725D01*
X89474484Y-73578051D01*
X89518426Y-73592510D01*
X89529700Y-73600831D01*
X89568026Y-73629117D01*
X89692645Y-73672723D01*
X89692651Y-73672725D01*
X89722244Y-73675500D01*
X89722251Y-73675500D01*
X90327749Y-73675500D01*
X90327756Y-73675500D01*
X90357349Y-73672725D01*
X90418166Y-73651444D01*
X90481973Y-73629117D01*
X90481973Y-73629116D01*
X90481975Y-73629116D01*
X90588211Y-73550711D01*
X90666616Y-73444475D01*
X90666964Y-73443482D01*
X90710223Y-73319854D01*
X90710222Y-73319854D01*
X90710225Y-73319849D01*
X90713000Y-73290256D01*
X90713000Y-72709744D01*
X90710225Y-72680151D01*
X90703936Y-72662177D01*
X90666617Y-72555526D01*
X90623904Y-72497652D01*
X90588211Y-72449289D01*
X90481975Y-72370884D01*
X90481974Y-72370883D01*
X90481972Y-72370882D01*
X90481971Y-72370881D01*
X90475057Y-72368462D01*
X90432827Y-72330721D01*
X90425500Y-72298616D01*
X90425500Y-71722008D01*
X90425501Y-71722005D01*
X90425500Y-71667325D01*
X90425728Y-71661524D01*
X90427822Y-71634913D01*
X90440601Y-71472497D01*
X90442414Y-71461051D01*
X90485998Y-71279499D01*
X90489586Y-71268461D01*
X90561024Y-71095988D01*
X90566289Y-71085653D01*
X90663845Y-70926454D01*
X90670659Y-70917077D01*
X90791854Y-70775175D01*
X90800055Y-70766974D01*
X90942085Y-70645669D01*
X90951468Y-70638852D01*
X91110654Y-70541303D01*
X91120994Y-70536035D01*
X91293473Y-70464594D01*
X91304499Y-70461011D01*
X91486053Y-70417427D01*
X91497497Y-70415614D01*
X91686690Y-70400727D01*
X91692492Y-70400500D01*
X91747005Y-70400501D01*
X91747008Y-70400500D01*
X92585784Y-70400500D01*
X92638513Y-70400500D01*
X92643279Y-70400500D01*
X92643402Y-70400492D01*
X92752342Y-70400492D01*
X93084164Y-70371463D01*
X93084171Y-70371461D01*
X93084179Y-70371461D01*
X93412226Y-70313619D01*
X93733984Y-70227405D01*
X94047003Y-70113476D01*
X94348901Y-69972699D01*
X94637381Y-69806146D01*
X94910248Y-69615083D01*
X95165423Y-69400966D01*
X95283195Y-69283195D01*
X95285144Y-69281246D01*
X95358811Y-69207582D01*
X95358827Y-69207552D01*
X95435254Y-69131128D01*
X95642027Y-68884708D01*
X95826536Y-68621205D01*
X95987377Y-68342624D01*
X96123326Y-68051084D01*
X96233347Y-67748805D01*
X96233350Y-67748793D01*
X96233352Y-67748789D01*
X96289053Y-67540911D01*
X96316605Y-67438087D01*
X96372464Y-67121295D01*
X96389536Y-66926164D01*
X96400500Y-66800843D01*
X96400500Y-66439628D01*
X96422174Y-66387302D01*
X96448768Y-66371005D01*
X96448555Y-66370489D01*
X96451229Y-66369380D01*
X96451235Y-66369379D01*
X96452998Y-66368481D01*
X96505799Y-66341577D01*
X96616096Y-66285378D01*
X96765787Y-66176621D01*
X96896621Y-66045787D01*
X97005378Y-65896096D01*
X97089379Y-65731235D01*
X97101363Y-65694351D01*
X97146552Y-65555274D01*
X97146552Y-65555271D01*
X97146555Y-65555264D01*
X97175500Y-65372514D01*
X97175500Y-65187486D01*
X97146555Y-65004736D01*
X97146553Y-65004731D01*
X97146552Y-65004725D01*
X97089380Y-64828767D01*
X97089378Y-64828763D01*
X97062041Y-64775112D01*
X97005378Y-64663904D01*
X96896621Y-64514213D01*
X96765787Y-64383379D01*
X96765784Y-64383376D01*
X96765782Y-64383375D01*
X96616098Y-64274623D01*
X96616092Y-64274620D01*
X96451236Y-64190621D01*
X96451232Y-64190619D01*
X96275274Y-64133447D01*
X96275261Y-64133444D01*
X96092516Y-64104500D01*
X96092514Y-64104500D01*
X95907486Y-64104500D01*
X95907484Y-64104500D01*
X95724738Y-64133444D01*
X95724725Y-64133447D01*
X95548767Y-64190619D01*
X95548763Y-64190621D01*
X95383907Y-64274620D01*
X95383901Y-64274623D01*
X95234217Y-64383375D01*
X95103375Y-64514217D01*
X94994623Y-64663901D01*
X94994620Y-64663907D01*
X94910621Y-64828763D01*
X94910619Y-64828767D01*
X94853447Y-65004725D01*
X94853444Y-65004738D01*
X94824500Y-65187484D01*
X94824500Y-65372515D01*
X94853444Y-65555261D01*
X94853447Y-65555274D01*
X94910619Y-65731232D01*
X94910621Y-65731236D01*
X94994620Y-65896092D01*
X94994623Y-65896098D01*
X95099504Y-66040454D01*
X95103379Y-66045787D01*
X95234213Y-66176621D01*
X95383904Y-66285378D01*
X95447426Y-66317744D01*
X95548758Y-66369376D01*
X95551445Y-66370489D01*
X95551019Y-66371516D01*
X95591433Y-66406031D01*
X95599500Y-66439628D01*
X95599500Y-66638180D01*
X95599411Y-66641811D01*
X95585796Y-66918937D01*
X95585084Y-66926164D01*
X95544640Y-67198816D01*
X95543223Y-67205939D01*
X95476249Y-67473313D01*
X95474141Y-67480262D01*
X95381280Y-67739786D01*
X95378501Y-67746495D01*
X95260653Y-67995661D01*
X95257230Y-68002066D01*
X95115519Y-68238495D01*
X95111484Y-68244533D01*
X94947291Y-68465919D01*
X94942684Y-68471533D01*
X94756254Y-68677224D01*
X94753749Y-68679855D01*
X94718076Y-68715527D01*
X94715446Y-68718030D01*
X94500361Y-68912971D01*
X94494748Y-68917578D01*
X94263034Y-69089429D01*
X94256995Y-69093464D01*
X94009557Y-69241772D01*
X94003153Y-69245195D01*
X93742370Y-69368536D01*
X93735661Y-69371315D01*
X93464041Y-69468501D01*
X93457091Y-69470609D01*
X93177262Y-69540702D01*
X93170140Y-69542119D01*
X92884781Y-69584447D01*
X92877554Y-69585159D01*
X92636125Y-69597019D01*
X92587435Y-69599411D01*
X92583807Y-69599500D01*
X91632069Y-69599500D01*
X91631882Y-69599511D01*
X91573476Y-69599511D01*
X91573475Y-69599511D01*
X91573472Y-69599511D01*
X91343001Y-69625475D01*
X91342997Y-69625476D01*
X91116895Y-69677079D01*
X91116890Y-69677080D01*
X90897975Y-69753679D01*
X90897968Y-69753682D01*
X90689016Y-69854305D01*
X90492631Y-69977701D01*
X90311299Y-70122308D01*
X90250987Y-70182621D01*
X90250956Y-70182633D01*
X90147298Y-70286291D01*
X90002690Y-70467624D01*
X89879294Y-70664010D01*
X89778670Y-70872963D01*
X89778667Y-70872970D01*
X89702068Y-71091887D01*
X89702067Y-71091892D01*
X89650463Y-71317991D01*
X89650463Y-71317994D01*
X89650462Y-71317999D01*
X89624785Y-71545927D01*
X89624498Y-71548474D01*
X89624500Y-71649199D01*
X89624500Y-72298616D01*
X89602826Y-72350942D01*
X89590784Y-72360690D01*
X89583326Y-72365529D01*
X89568025Y-72370884D01*
X89516644Y-72408804D01*
X89514771Y-72410020D01*
X89488948Y-72414797D01*
X89463457Y-72421119D01*
X89461419Y-72419891D01*
X89459079Y-72420324D01*
X89437440Y-72405442D01*
X89414946Y-72391888D01*
X89414131Y-72389411D01*
X89412413Y-72388230D01*
X89410705Y-72379000D01*
X89400487Y-72347946D01*
X89400496Y-68695989D01*
X89400583Y-68692440D01*
X89414830Y-68402427D01*
X89415539Y-68395233D01*
X89457870Y-68109852D01*
X89459287Y-68102734D01*
X89529381Y-67822897D01*
X89531488Y-67815953D01*
X89537649Y-67798735D01*
X89628678Y-67544322D01*
X89631448Y-67537634D01*
X89754800Y-67276828D01*
X89758206Y-67270455D01*
X89906534Y-67022985D01*
X89910561Y-67016960D01*
X90082416Y-66785238D01*
X90087003Y-66779648D01*
X90281864Y-66564651D01*
X90284329Y-66562062D01*
X90463216Y-66383175D01*
X90515541Y-66361502D01*
X90545862Y-66368786D01*
X90546078Y-66368266D01*
X90548770Y-66369381D01*
X90724725Y-66426552D01*
X90724731Y-66426553D01*
X90724736Y-66426555D01*
X90807275Y-66439628D01*
X90907484Y-66455500D01*
X90907486Y-66455500D01*
X91092516Y-66455500D01*
X91165614Y-66443922D01*
X91275264Y-66426555D01*
X91275271Y-66426552D01*
X91275274Y-66426552D01*
X91451232Y-66369380D01*
X91451232Y-66369379D01*
X91451235Y-66369379D01*
X91616096Y-66285378D01*
X91765787Y-66176621D01*
X91896621Y-66045787D01*
X92005378Y-65896096D01*
X92089379Y-65731235D01*
X92101363Y-65694351D01*
X92146552Y-65555274D01*
X92146552Y-65555271D01*
X92146555Y-65555264D01*
X92175500Y-65372514D01*
X92175500Y-65187486D01*
X92146555Y-65004736D01*
X92146553Y-65004731D01*
X92146552Y-65004725D01*
X92089380Y-64828767D01*
X92089378Y-64828763D01*
X92062041Y-64775112D01*
X92005378Y-64663904D01*
X91896621Y-64514213D01*
X91765787Y-64383379D01*
X91765784Y-64383376D01*
X91765782Y-64383375D01*
X91616098Y-64274623D01*
X91616092Y-64274620D01*
X91451236Y-64190621D01*
X91451232Y-64190619D01*
X91275274Y-64133447D01*
X91275261Y-64133444D01*
X91092516Y-64104500D01*
X91092514Y-64104500D01*
X90907486Y-64104500D01*
X90907484Y-64104500D01*
X90724738Y-64133444D01*
X90724725Y-64133447D01*
X90548767Y-64190619D01*
X90548763Y-64190621D01*
X90383907Y-64274620D01*
X90383901Y-64274623D01*
X90234217Y-64383375D01*
X90103375Y-64514217D01*
X89994623Y-64663901D01*
X89994620Y-64663907D01*
X89910621Y-64828763D01*
X89910619Y-64828767D01*
X89853447Y-65004725D01*
X89853444Y-65004738D01*
X89824500Y-65187484D01*
X89824500Y-65372515D01*
X89853444Y-65555261D01*
X89853447Y-65555274D01*
X89910618Y-65731229D01*
X89911734Y-65733922D01*
X89910705Y-65734347D01*
X89914873Y-65787327D01*
X89896822Y-65816783D01*
X89738482Y-65975124D01*
X89738464Y-65975131D01*
X89599026Y-66114569D01*
X89384914Y-66369738D01*
X89384909Y-66369744D01*
X89384908Y-66369746D01*
X89324862Y-66455500D01*
X89193845Y-66642612D01*
X89193840Y-66642620D01*
X89027295Y-66931084D01*
X89027293Y-66931089D01*
X88886509Y-67233002D01*
X88886509Y-67233004D01*
X88772589Y-67545997D01*
X88772585Y-67546009D01*
X88686371Y-67867771D01*
X88628528Y-68195819D01*
X88628525Y-68195843D01*
X88602581Y-68492406D01*
X88599497Y-68527660D01*
X88599497Y-68641485D01*
X88599484Y-74196265D01*
X88599481Y-75226449D01*
X88599515Y-75226984D01*
X88599515Y-75263691D01*
X88599515Y-75304283D01*
X88629770Y-75572859D01*
X88689908Y-75836358D01*
X88779170Y-76091466D01*
X88896435Y-76334977D01*
X88896437Y-76334981D01*
X88896438Y-76334982D01*
X88896438Y-76334983D01*
X89021098Y-76533382D01*
X89040227Y-76563826D01*
X89208739Y-76775136D01*
X89267013Y-76833411D01*
X89267017Y-76833417D01*
X89302937Y-76869335D01*
X89305111Y-76871509D01*
X89305111Y-76871510D01*
X89349216Y-76915616D01*
X89349237Y-76915633D01*
X89454034Y-77020427D01*
X89454287Y-77020679D01*
X89491570Y-77057961D01*
X89491600Y-77057978D01*
X89495067Y-77061444D01*
X89495067Y-77061445D01*
X89495076Y-77061452D01*
X89542087Y-77108462D01*
X89739089Y-77259622D01*
X89954135Y-77383777D01*
X90183545Y-77478803D01*
X90415152Y-77540865D01*
X90428416Y-77546359D01*
X90428422Y-77546346D01*
X90432897Y-77548199D01*
X90432904Y-77548203D01*
X90534763Y-77575499D01*
X90741014Y-77575503D01*
X90741020Y-77575505D01*
X90788859Y-77575505D01*
X90798518Y-77576139D01*
X90809254Y-77577553D01*
X90827914Y-77582554D01*
X90833404Y-77584828D01*
X90850135Y-77594490D01*
X90859013Y-77601304D01*
X90866289Y-77607686D01*
X90903323Y-77644728D01*
X90903324Y-77644728D01*
X90906992Y-77648397D01*
X90907060Y-77648456D01*
X91565873Y-78307258D01*
X92429871Y-79171242D01*
X92459000Y-79200370D01*
X92462304Y-79203897D01*
X92520042Y-79269735D01*
X92583054Y-79341588D01*
X92588946Y-79349268D01*
X92689318Y-79499490D01*
X92694158Y-79507873D01*
X92707545Y-79535021D01*
X92762371Y-79646202D01*
X92774068Y-79669921D01*
X92777772Y-79678864D01*
X92835845Y-79849953D01*
X92838350Y-79859303D01*
X92873593Y-80036503D01*
X92874857Y-80046099D01*
X92883165Y-80172892D01*
X92886579Y-80225000D01*
X92886853Y-80229173D01*
X92887011Y-80234012D01*
X92887011Y-80278213D01*
X92887010Y-80320470D01*
X92865335Y-80372795D01*
X92846607Y-80386402D01*
X92819248Y-80400342D01*
X92725340Y-80494250D01*
X92665049Y-80612579D01*
X92665048Y-80612579D01*
X92649500Y-80710753D01*
X92649500Y-81289246D01*
X92665048Y-81387417D01*
X92665048Y-81387418D01*
X92665049Y-81387420D01*
X92710035Y-81475709D01*
X92718287Y-81491904D01*
X92722730Y-81548366D01*
X92685947Y-81591434D01*
X92652352Y-81599499D01*
X92462247Y-81599499D01*
X92409921Y-81577825D01*
X92388247Y-81525499D01*
X92393406Y-81498352D01*
X92439988Y-81380226D01*
X92450000Y-81296863D01*
X92450000Y-81250000D01*
X90975000Y-81250000D01*
X90975000Y-81296863D01*
X90985011Y-81380226D01*
X91015480Y-81457491D01*
X91015150Y-81476781D01*
X91019838Y-81495496D01*
X91014683Y-81504096D01*
X91014512Y-81514120D01*
X91000639Y-81527526D01*
X90990721Y-81544075D01*
X90980995Y-81546511D01*
X90973786Y-81553479D01*
X90935781Y-81557837D01*
X90829857Y-81542125D01*
X90822735Y-81540708D01*
X90542904Y-81470615D01*
X90535954Y-81468507D01*
X90264334Y-81371321D01*
X90257625Y-81368542D01*
X89996845Y-81245203D01*
X89990440Y-81241780D01*
X89742994Y-81093466D01*
X89736956Y-81089431D01*
X89505246Y-80917583D01*
X89499633Y-80912976D01*
X89326167Y-80755756D01*
X89285912Y-80719271D01*
X89280777Y-80714136D01*
X89270807Y-80703136D01*
X90975000Y-80703136D01*
X90975000Y-80750000D01*
X91462500Y-80750000D01*
X91962500Y-80750000D01*
X92450000Y-80750000D01*
X92450000Y-80703136D01*
X92439988Y-80619773D01*
X92387676Y-80487117D01*
X92301509Y-80373490D01*
X92187882Y-80287323D01*
X92055226Y-80235011D01*
X91971863Y-80225000D01*
X91962500Y-80225000D01*
X91962500Y-80750000D01*
X91462500Y-80750000D01*
X91462500Y-80225000D01*
X91453137Y-80225000D01*
X91369773Y-80235011D01*
X91237117Y-80287323D01*
X91123490Y-80373490D01*
X91037323Y-80487117D01*
X90985011Y-80619773D01*
X90975000Y-80703136D01*
X89270807Y-80703136D01*
X89087019Y-80500356D01*
X89082412Y-80494743D01*
X89082046Y-80494250D01*
X88936556Y-80298078D01*
X88910569Y-80263039D01*
X88906534Y-80257001D01*
X88889855Y-80229173D01*
X88758217Y-80009548D01*
X88754798Y-80003151D01*
X88748863Y-79990603D01*
X88631457Y-79742368D01*
X88628680Y-79735662D01*
X88619767Y-79710753D01*
X88531493Y-79464042D01*
X88529386Y-79457093D01*
X88516732Y-79406576D01*
X88465967Y-79203905D01*
X88459294Y-79177263D01*
X88457877Y-79170141D01*
X88450470Y-79120208D01*
X88415546Y-78884767D01*
X88414837Y-78877569D01*
X88400583Y-78587417D01*
X88400495Y-78583787D01*
X88400495Y-78528205D01*
X88400495Y-76884652D01*
X88400498Y-68641486D01*
X88400496Y-68641482D01*
X88400497Y-68636758D01*
X88400493Y-68636680D01*
X88400493Y-68527657D01*
X88371464Y-68195834D01*
X88371462Y-68195820D01*
X88313620Y-67867773D01*
X88227406Y-67546015D01*
X88227399Y-67545997D01*
X88164112Y-67372115D01*
X88113477Y-67232996D01*
X87972700Y-66931097D01*
X87972695Y-66931088D01*
X87806151Y-66642625D01*
X87806145Y-66642616D01*
X87806142Y-66642612D01*
X87615084Y-66369751D01*
X87400966Y-66114576D01*
X87283195Y-65996804D01*
X87265357Y-65978966D01*
X87103176Y-65816785D01*
X87081502Y-65764459D01*
X87088786Y-65734126D01*
X87088498Y-65734006D01*
X87088481Y-65734001D01*
X87088481Y-65733999D01*
X87088270Y-65733912D01*
X87089381Y-65731229D01*
X87146552Y-65555274D01*
X87146552Y-65555271D01*
X87146555Y-65555264D01*
X87175500Y-65372514D01*
X87175500Y-65187486D01*
X87146555Y-65004736D01*
X87146553Y-65004731D01*
X87146552Y-65004725D01*
X87089380Y-64828767D01*
X87089378Y-64828763D01*
X87062041Y-64775112D01*
X87005378Y-64663904D01*
X86896621Y-64514213D01*
X86765787Y-64383379D01*
X86765784Y-64383376D01*
X86765782Y-64383375D01*
X86616098Y-64274623D01*
X86616092Y-64274620D01*
X86451236Y-64190621D01*
X86451232Y-64190619D01*
X86275274Y-64133447D01*
X86275261Y-64133444D01*
X86092516Y-64104500D01*
X86092514Y-64104500D01*
X85907486Y-64104500D01*
X85907484Y-64104500D01*
X85724738Y-64133444D01*
X85724725Y-64133447D01*
X85548767Y-64190619D01*
X85548763Y-64190621D01*
X85383907Y-64274620D01*
X85383901Y-64274623D01*
X85234217Y-64383375D01*
X85103375Y-64514217D01*
X84994623Y-64663901D01*
X84994620Y-64663907D01*
X84910621Y-64828763D01*
X84910619Y-64828767D01*
X84853447Y-65004725D01*
X84853444Y-65004738D01*
X84824500Y-65187484D01*
X84824500Y-65372515D01*
X84853444Y-65555261D01*
X84853447Y-65555274D01*
X84910619Y-65731232D01*
X84910621Y-65731236D01*
X84994620Y-65896092D01*
X84994623Y-65896098D01*
X85099504Y-66040454D01*
X85103379Y-66045787D01*
X85234213Y-66176621D01*
X85383904Y-66285378D01*
X85494201Y-66341577D01*
X85548763Y-66369378D01*
X85548767Y-66369380D01*
X85724725Y-66426552D01*
X85724731Y-66426553D01*
X85724736Y-66426555D01*
X85807275Y-66439628D01*
X85907484Y-66455500D01*
X85907486Y-66455500D01*
X86092516Y-66455500D01*
X86165614Y-66443922D01*
X86275264Y-66426555D01*
X86275271Y-66426552D01*
X86275274Y-66426552D01*
X86451229Y-66369381D01*
X86451229Y-66369380D01*
X86451235Y-66369379D01*
X86451240Y-66369376D01*
X86453912Y-66368270D01*
X86453999Y-66368481D01*
X86454001Y-66368481D01*
X86454006Y-66368498D01*
X86454338Y-66369298D01*
X86507315Y-66365122D01*
X86536783Y-66383177D01*
X86715507Y-66561901D01*
X86718011Y-66564531D01*
X86788783Y-66642616D01*
X86912972Y-66779636D01*
X86917579Y-66785250D01*
X87089426Y-67016960D01*
X87093461Y-67022998D01*
X87241775Y-67270443D01*
X87245198Y-67276848D01*
X87368536Y-67537628D01*
X87371315Y-67544337D01*
X87468501Y-67815957D01*
X87470609Y-67822907D01*
X87540702Y-68102736D01*
X87542119Y-68109858D01*
X87584448Y-68395217D01*
X87585160Y-68402444D01*
X87599408Y-68692500D01*
X87599497Y-68696131D01*
X87599495Y-78643379D01*
X87599504Y-78643514D01*
X87599504Y-78752342D01*
X87628532Y-79084165D01*
X87653365Y-79225000D01*
X87686377Y-79412227D01*
X87710840Y-79503525D01*
X87772591Y-79733987D01*
X87772595Y-79733999D01*
X87886515Y-80046991D01*
X87886515Y-80046993D01*
X87886519Y-80047002D01*
X87886520Y-80047004D01*
X88027297Y-80348902D01*
X88117852Y-80505749D01*
X88193851Y-80637385D01*
X88193852Y-80637386D01*
X88249461Y-80716804D01*
X88384912Y-80910249D01*
X88485483Y-81030104D01*
X88599030Y-81165424D01*
X88676082Y-81242477D01*
X88695125Y-81261520D01*
X88695127Y-81261526D01*
X88716799Y-81283197D01*
X88716799Y-81283198D01*
X88834571Y-81400969D01*
X89089747Y-81615088D01*
X89362613Y-81806151D01*
X89651094Y-81972705D01*
X89952993Y-82113482D01*
X89952995Y-82113482D01*
X89953000Y-82113485D01*
X90164881Y-82190603D01*
X90266013Y-82227412D01*
X90587772Y-82313626D01*
X90808951Y-82352624D01*
X90856717Y-82383055D01*
X90868976Y-82438350D01*
X90838545Y-82486117D01*
X90796100Y-82499500D01*
X83004159Y-82499500D01*
X82995873Y-82499035D01*
X82897131Y-82487909D01*
X82880980Y-82484222D01*
X82809625Y-82459254D01*
X82791147Y-82452788D01*
X82776218Y-82445599D01*
X82695627Y-82394961D01*
X82682671Y-82384629D01*
X82615370Y-82317328D01*
X82605038Y-82304372D01*
X82554400Y-82223781D01*
X82547211Y-82208852D01*
X82515775Y-82119013D01*
X82512091Y-82102873D01*
X82500965Y-82004125D01*
X82500500Y-81995840D01*
X82500500Y-79893711D01*
X83649500Y-79893711D01*
X83649500Y-80106288D01*
X83682753Y-80316240D01*
X83682756Y-80316253D01*
X83748440Y-80518406D01*
X83748442Y-80518411D01*
X83748443Y-80518412D01*
X83753657Y-80528645D01*
X83844948Y-80707816D01*
X83896552Y-80778842D01*
X83969896Y-80879792D01*
X84120208Y-81030104D01*
X84201865Y-81089431D01*
X84292183Y-81155051D01*
X84383474Y-81201565D01*
X84481588Y-81251557D01*
X84481590Y-81251557D01*
X84481593Y-81251559D01*
X84683746Y-81317243D01*
X84683752Y-81317244D01*
X84683757Y-81317246D01*
X84785673Y-81333388D01*
X84893711Y-81350500D01*
X84893713Y-81350500D01*
X85106289Y-81350500D01*
X85214327Y-81333388D01*
X85316243Y-81317246D01*
X85316250Y-81317243D01*
X85316253Y-81317243D01*
X85518406Y-81251559D01*
X85518406Y-81251558D01*
X85518412Y-81251557D01*
X85707816Y-81155051D01*
X85879792Y-81030104D01*
X86030104Y-80879792D01*
X86155051Y-80707816D01*
X86251557Y-80518412D01*
X86253539Y-80512312D01*
X86317243Y-80316253D01*
X86317243Y-80316250D01*
X86317246Y-80316243D01*
X86348717Y-80117543D01*
X86350500Y-80106288D01*
X86350500Y-79893711D01*
X86330635Y-79768289D01*
X86317246Y-79683757D01*
X86317244Y-79683752D01*
X86317243Y-79683746D01*
X86251559Y-79481593D01*
X86251557Y-79481590D01*
X86251557Y-79481588D01*
X86180224Y-79341588D01*
X86155051Y-79292183D01*
X86082057Y-79191716D01*
X86030104Y-79120208D01*
X85879792Y-78969896D01*
X85798732Y-78911003D01*
X85707816Y-78844948D01*
X85518406Y-78748440D01*
X85316253Y-78682756D01*
X85316240Y-78682753D01*
X85106289Y-78649500D01*
X85106287Y-78649500D01*
X84893713Y-78649500D01*
X84893711Y-78649500D01*
X84683759Y-78682753D01*
X84683746Y-78682756D01*
X84481593Y-78748440D01*
X84292183Y-78844948D01*
X84124812Y-78966551D01*
X84120208Y-78969896D01*
X83969896Y-79120208D01*
X83969893Y-79120211D01*
X83969893Y-79120212D01*
X83844948Y-79292183D01*
X83748440Y-79481593D01*
X83682756Y-79683746D01*
X83682753Y-79683759D01*
X83649500Y-79893711D01*
X82500500Y-79893711D01*
X82500500Y-73893711D01*
X83649500Y-73893711D01*
X83649500Y-74106288D01*
X83682753Y-74316240D01*
X83682756Y-74316253D01*
X83748440Y-74518406D01*
X83844948Y-74707816D01*
X83909699Y-74796937D01*
X83969896Y-74879792D01*
X84120208Y-75030104D01*
X84204913Y-75091645D01*
X84292183Y-75155051D01*
X84383135Y-75201393D01*
X84481588Y-75251557D01*
X84481590Y-75251557D01*
X84481593Y-75251559D01*
X84683746Y-75317243D01*
X84683752Y-75317244D01*
X84683757Y-75317246D01*
X84788735Y-75333873D01*
X84893711Y-75350500D01*
X84893713Y-75350500D01*
X85106289Y-75350500D01*
X85190269Y-75337198D01*
X85316243Y-75317246D01*
X85316250Y-75317243D01*
X85316253Y-75317243D01*
X85518406Y-75251559D01*
X85518406Y-75251558D01*
X85518412Y-75251557D01*
X85707816Y-75155051D01*
X85879792Y-75030104D01*
X86030104Y-74879792D01*
X86155051Y-74707816D01*
X86251557Y-74518412D01*
X86260315Y-74491457D01*
X86317243Y-74316253D01*
X86317243Y-74316250D01*
X86317246Y-74316243D01*
X86344302Y-74145422D01*
X86350500Y-74106288D01*
X86350500Y-73893711D01*
X86327517Y-73748605D01*
X86317246Y-73683757D01*
X86317244Y-73683752D01*
X86317243Y-73683746D01*
X86251559Y-73481593D01*
X86251557Y-73481590D01*
X86251557Y-73481588D01*
X86168347Y-73318279D01*
X86155051Y-73292183D01*
X86099451Y-73215656D01*
X86030104Y-73120208D01*
X85879792Y-72969896D01*
X85800376Y-72912197D01*
X85707816Y-72844948D01*
X85518406Y-72748440D01*
X85316253Y-72682756D01*
X85316240Y-72682753D01*
X85106289Y-72649500D01*
X85106287Y-72649500D01*
X84893713Y-72649500D01*
X84893711Y-72649500D01*
X84683759Y-72682753D01*
X84683746Y-72682756D01*
X84481593Y-72748440D01*
X84292183Y-72844948D01*
X84121769Y-72968762D01*
X84120208Y-72969896D01*
X83969896Y-73120208D01*
X83969893Y-73120211D01*
X83969893Y-73120212D01*
X83844948Y-73292183D01*
X83748440Y-73481593D01*
X83682756Y-73683746D01*
X83682753Y-73683759D01*
X83649500Y-73893711D01*
X82500500Y-73893711D01*
X82500500Y-60004159D01*
X82500965Y-59995874D01*
X82501982Y-59986842D01*
X82512091Y-59897124D01*
X82515775Y-59880988D01*
X82547212Y-59791143D01*
X82554400Y-59776218D01*
X82605042Y-59695621D01*
X82615366Y-59682675D01*
X82682675Y-59615366D01*
X82695621Y-59605042D01*
X82776219Y-59554399D01*
X82791143Y-59547212D01*
X82880988Y-59515775D01*
X82897124Y-59512091D01*
X82986842Y-59501982D01*
X82995874Y-59500965D01*
X83004159Y-59500500D01*
X83065892Y-59500500D01*
X123934108Y-59500500D01*
X123995841Y-59500500D01*
X124004126Y-59500965D01*
G37*
%TD.AperFunction*%
%TD*%
M02*
