M48
; DRILL file {KiCad 9.0.1} date 2025-06-21T16:27:23+0200
; FORMAT={-:-/ absolute / metric / decimal}
; #@! TF.CreationDate,2025-06-21T16:27:23+02:00
; #@! TF.GenerationSoftware,Kicad,Pcbnew,9.0.1
; #@! TF.FileFunction,Plated,1,2,PTH
FMAT,2
METRIC
; #@! TA.AperFunction,Plated,PTH,ViaDrill
T1C0.300
; #@! TA.AperFunction,Plated,PTH,ComponentDrill
T2C0.750
; #@! TA.AperFunction,Plated,PTH,ComponentDrill
T3C1.300
%
G90
G05
T1
X100.0Y-78.5
X109.0Y-82.5
X110.0Y-77.0
X116.0Y-78.0
X117.5Y-80.0
T2
X96.42Y-75.7
X96.42Y-78.9
X96.42Y-81.1
X96.42Y-83.3
X101.5Y-75.7
X101.5Y-78.9
X101.5Y-81.1
X101.5Y-83.3
X106.42Y-75.7
X106.42Y-78.9
X106.42Y-81.1
X106.42Y-83.3
X111.5Y-75.7
X111.5Y-78.9
X111.5Y-81.1
X111.5Y-83.3
T3
X86.0Y-65.0
X91.0Y-65.0
X96.0Y-65.0
X101.0Y-65.0
X106.0Y-65.0
X111.0Y-65.0
X116.0Y-65.0
X121.0Y-65.0
M30
