%TF.GenerationSoftware,KiCad,Pcbnew,9.0.1*%
%TF.CreationDate,2025-06-14T21:46:59+02:00*%
%TF.ProjectId,PUTM_EV_CART_INDICATOR,5055544d-5f45-4565-9f43-4152545f494e,rev?*%
%TF.SameCoordinates,Original*%
%TF.FileFunction,Copper,L2,Bot*%
%TF.FilePolarity,Positive*%
%FSLAX46Y46*%
G04 Gerber Fmt 4.6, Leading zero omitted, Abs format (unit mm)*
G04 Created by KiCad (PCBNEW 9.0.1) date 2025-06-14 21:46:59*
%MOMM*%
%LPD*%
G01*
G04 APERTURE LIST*
%TA.AperFunction,ComponentPad*%
%ADD10C,1.200000*%
%TD*%
%TA.AperFunction,ComponentPad*%
%ADD11C,1.950000*%
%TD*%
%TA.AperFunction,ViaPad*%
%ADD12C,0.600000*%
%TD*%
%TA.AperFunction,Conductor*%
%ADD13C,0.400000*%
%TD*%
G04 APERTURE END LIST*
D10*
%TO.P,K3,1,COIL_1*%
%TO.N,+24V*%
X99357500Y-75300000D03*
%TO.P,K3,2,NC_1*%
%TO.N,unconnected-(K3-NC_1-Pad2)*%
X99357500Y-78500000D03*
%TO.P,K3,3,COM_1*%
%TO.N,+24V*%
X99357500Y-80700000D03*
%TO.P,K3,4,NO_1*%
%TO.N,Net-(K3-NO_1)*%
X99357500Y-82900000D03*
%TO.P,K3,5,NO_2*%
%TO.N,/TSAL_COLUMN*%
X104437500Y-82900000D03*
%TO.P,K3,6,COM_2*%
%TO.N,+24V*%
X104437500Y-80700000D03*
%TO.P,K3,7,NC_2*%
%TO.N,unconnected-(K3-NC_2-Pad7)*%
X104437500Y-78500000D03*
%TO.P,K3,8,COIL_2*%
%TO.N,Net-(D2-A)*%
X104437500Y-75300000D03*
%TD*%
%TO.P,K4,1,COIL_1*%
%TO.N,+24V*%
X109357500Y-75500000D03*
%TO.P,K4,2,NC_1*%
%TO.N,/IMD_COLUMN*%
X109357500Y-78700000D03*
%TO.P,K4,3,COM_1*%
%TO.N,+24V*%
X109357500Y-80900000D03*
%TO.P,K4,4,NO_1*%
%TO.N,unconnected-(K4-NO_1-Pad4)*%
X109357500Y-83100000D03*
%TO.P,K4,5,NO_2*%
%TO.N,unconnected-(K4-NO_2-Pad5)*%
X114437500Y-83100000D03*
%TO.P,K4,6,COM_2*%
%TO.N,+24V*%
X114437500Y-80900000D03*
%TO.P,K4,7,NC_2*%
%TO.N,Net-(K4-NC_2)*%
X114437500Y-78700000D03*
%TO.P,K4,8,COIL_2*%
%TO.N,Net-(D1-A)*%
X114437500Y-75500000D03*
%TD*%
D11*
%TO.P,J1,1,Pin_1*%
%TO.N,/TSAL_COLUMN*%
X86000000Y-65280000D03*
%TO.P,J1,2,Pin_2*%
%TO.N,/TSAL_LED*%
X91000000Y-65280000D03*
%TO.P,J1,3,Pin_3*%
%TO.N,/TSAL_GREEN*%
X96000000Y-65280000D03*
%TO.P,J1,4,Pin_4*%
%TO.N,+24V*%
X101000000Y-65280000D03*
%TO.P,J1,5,Pin_5*%
%TO.N,GND*%
X106000000Y-65280000D03*
%TO.P,J1,6,Pin_6*%
%TO.N,/IMD*%
X111000000Y-65280000D03*
%TO.P,J1,7,Pin_7*%
%TO.N,/IMD_LED*%
X116000000Y-65280000D03*
%TO.P,J1,8,Pin_8*%
%TO.N,/IMD_COLUMN*%
X121000000Y-65280000D03*
%TD*%
D12*
%TO.N,GND*%
X101500000Y-82000000D03*
X112500000Y-82500000D03*
X112500000Y-78500000D03*
X102000000Y-78500000D03*
X107000000Y-79000000D03*
X107000000Y-75000000D03*
X107000000Y-84000000D03*
%TO.N,Net-(D2-A)*%
X98000000Y-75000000D03*
%TO.N,GND*%
X117500000Y-82500000D03*
X121200000Y-74000000D03*
X123500000Y-81500000D03*
X89500000Y-78500000D03*
X96000000Y-81000000D03*
%TO.N,Net-(D1-A)*%
X117218750Y-74718750D03*
%TD*%
D13*
%TO.N,Net-(D1-A)*%
X115218750Y-74718750D02*
X117218750Y-74718750D01*
X114437500Y-75500000D02*
X115218750Y-74718750D01*
%TO.N,/IMD_COLUMN*%
X109357500Y-78642500D02*
X109357500Y-78700000D01*
X111000000Y-75280000D02*
X111000000Y-77000000D01*
X121000000Y-65280000D02*
X111000000Y-75280000D01*
X111000000Y-77000000D02*
X109357500Y-78642500D01*
%TO.N,Net-(D2-A)*%
X98000000Y-76000000D02*
X98500000Y-76500000D01*
X103237500Y-76500000D02*
X104437500Y-75300000D01*
X98000000Y-75000000D02*
X98000000Y-76000000D01*
X98500000Y-76500000D02*
X103237500Y-76500000D01*
%TO.N,unconnected-(K3-NC_2-Pad7)*%
X104100000Y-79100000D02*
X104437500Y-79100000D01*
%TO.N,Net-(K4-NC_2)*%
X114100000Y-78100000D02*
X114517500Y-78100000D01*
%TD*%
%TA.AperFunction,Conductor*%
%TO.N,GND*%
G36*
X124004126Y-59500965D02*
G01*
X124014292Y-59502110D01*
X124102873Y-59512091D01*
X124119013Y-59515775D01*
X124208852Y-59547211D01*
X124223781Y-59554400D01*
X124304372Y-59605038D01*
X124317328Y-59615370D01*
X124384629Y-59682671D01*
X124394961Y-59695627D01*
X124445599Y-59776218D01*
X124452788Y-59791147D01*
X124484222Y-59880980D01*
X124487909Y-59897131D01*
X124499035Y-59995873D01*
X124499500Y-60004159D01*
X124499500Y-81995840D01*
X124499035Y-82004125D01*
X124499035Y-82004126D01*
X124487909Y-82102868D01*
X124484221Y-82119021D01*
X124478539Y-82135258D01*
X124452788Y-82208852D01*
X124445599Y-82223781D01*
X124394961Y-82304372D01*
X124384629Y-82317328D01*
X124317328Y-82384629D01*
X124304372Y-82394961D01*
X124223781Y-82445599D01*
X124208852Y-82452788D01*
X124135258Y-82478539D01*
X124119021Y-82484221D01*
X124102868Y-82487909D01*
X124004127Y-82499035D01*
X123995841Y-82499500D01*
X118934106Y-82499500D01*
X118806818Y-82533606D01*
X118806809Y-82533610D01*
X118692685Y-82599500D01*
X116314360Y-84977826D01*
X116262034Y-84999500D01*
X97737966Y-84999500D01*
X97685640Y-84977826D01*
X95528972Y-82821158D01*
X98557000Y-82821158D01*
X98557000Y-82978842D01*
X98561823Y-83003087D01*
X98587761Y-83133491D01*
X98587764Y-83133501D01*
X98648103Y-83279174D01*
X98648105Y-83279177D01*
X98648106Y-83279179D01*
X98735711Y-83410289D01*
X98847211Y-83521789D01*
X98978321Y-83609394D01*
X98978326Y-83609396D01*
X98978325Y-83609396D01*
X99123998Y-83669735D01*
X99124003Y-83669737D01*
X99278658Y-83700500D01*
X99278660Y-83700500D01*
X99436340Y-83700500D01*
X99436342Y-83700500D01*
X99590997Y-83669737D01*
X99736679Y-83609394D01*
X99867789Y-83521789D01*
X99979289Y-83410289D01*
X100066894Y-83279179D01*
X100127237Y-83133497D01*
X100158000Y-82978842D01*
X100158000Y-82821158D01*
X103637000Y-82821158D01*
X103637000Y-82978842D01*
X103641823Y-83003087D01*
X103667761Y-83133491D01*
X103667764Y-83133501D01*
X103728103Y-83279174D01*
X103728105Y-83279177D01*
X103728106Y-83279179D01*
X103815711Y-83410289D01*
X103927211Y-83521789D01*
X104058321Y-83609394D01*
X104058326Y-83609396D01*
X104058325Y-83609396D01*
X104203998Y-83669735D01*
X104204003Y-83669737D01*
X104358658Y-83700500D01*
X104358660Y-83700500D01*
X104516340Y-83700500D01*
X104516342Y-83700500D01*
X104670997Y-83669737D01*
X104816679Y-83609394D01*
X104947789Y-83521789D01*
X105059289Y-83410289D01*
X105146894Y-83279179D01*
X105207237Y-83133497D01*
X105229583Y-83021159D01*
X108557000Y-83021159D01*
X108557000Y-83178840D01*
X108587761Y-83333491D01*
X108587764Y-83333501D01*
X108648103Y-83479174D01*
X108648105Y-83479177D01*
X108648106Y-83479179D01*
X108735711Y-83610289D01*
X108847211Y-83721789D01*
X108978321Y-83809394D01*
X108978326Y-83809396D01*
X108978325Y-83809396D01*
X109123998Y-83869735D01*
X109124003Y-83869737D01*
X109278658Y-83900500D01*
X109278660Y-83900500D01*
X109436340Y-83900500D01*
X109436342Y-83900500D01*
X109590997Y-83869737D01*
X109736679Y-83809394D01*
X109867789Y-83721789D01*
X109979289Y-83610289D01*
X110066894Y-83479179D01*
X110127237Y-83333497D01*
X110158000Y-83178842D01*
X110158000Y-83021159D01*
X113637000Y-83021159D01*
X113637000Y-83178840D01*
X113667761Y-83333491D01*
X113667764Y-83333501D01*
X113728103Y-83479174D01*
X113728105Y-83479177D01*
X113728106Y-83479179D01*
X113815711Y-83610289D01*
X113927211Y-83721789D01*
X114058321Y-83809394D01*
X114058326Y-83809396D01*
X114058325Y-83809396D01*
X114203998Y-83869735D01*
X114204003Y-83869737D01*
X114358658Y-83900500D01*
X114358660Y-83900500D01*
X114516340Y-83900500D01*
X114516342Y-83900500D01*
X114670997Y-83869737D01*
X114816679Y-83809394D01*
X114947789Y-83721789D01*
X115059289Y-83610289D01*
X115146894Y-83479179D01*
X115207237Y-83333497D01*
X115238000Y-83178842D01*
X115238000Y-83021158D01*
X115207237Y-82866503D01*
X115188455Y-82821158D01*
X115146896Y-82720825D01*
X115146895Y-82720823D01*
X115146894Y-82720821D01*
X115059289Y-82589711D01*
X114947789Y-82478211D01*
X114816679Y-82390606D01*
X114816675Y-82390604D01*
X114816673Y-82390603D01*
X114816674Y-82390603D01*
X114671001Y-82330264D01*
X114670991Y-82330261D01*
X114567425Y-82309661D01*
X114516342Y-82299500D01*
X114358658Y-82299500D01*
X114314815Y-82308220D01*
X114204008Y-82330261D01*
X114203998Y-82330264D01*
X114058325Y-82390603D01*
X113927211Y-82478210D01*
X113927210Y-82478212D01*
X113815712Y-82589710D01*
X113815710Y-82589711D01*
X113728103Y-82720825D01*
X113667764Y-82866498D01*
X113667761Y-82866508D01*
X113637000Y-83021159D01*
X110158000Y-83021159D01*
X110158000Y-83021158D01*
X110127237Y-82866503D01*
X110108455Y-82821158D01*
X110066896Y-82720825D01*
X110066895Y-82720823D01*
X110066894Y-82720821D01*
X109979289Y-82589711D01*
X109867789Y-82478211D01*
X109736679Y-82390606D01*
X109736675Y-82390604D01*
X109736673Y-82390603D01*
X109736674Y-82390603D01*
X109591001Y-82330264D01*
X109590991Y-82330261D01*
X109487425Y-82309661D01*
X109436342Y-82299500D01*
X109278658Y-82299500D01*
X109234815Y-82308220D01*
X109124008Y-82330261D01*
X109123998Y-82330264D01*
X108978325Y-82390603D01*
X108847211Y-82478210D01*
X108847210Y-82478212D01*
X108735712Y-82589710D01*
X108735710Y-82589711D01*
X108648103Y-82720825D01*
X108587764Y-82866498D01*
X108587761Y-82866508D01*
X108557000Y-83021159D01*
X105229583Y-83021159D01*
X105238000Y-82978842D01*
X105238000Y-82821158D01*
X105207237Y-82666503D01*
X105175429Y-82589710D01*
X105146896Y-82520825D01*
X105146895Y-82520823D01*
X105146894Y-82520821D01*
X105059289Y-82389711D01*
X104947789Y-82278211D01*
X104816679Y-82190606D01*
X104816675Y-82190604D01*
X104816673Y-82190603D01*
X104816674Y-82190603D01*
X104671001Y-82130264D01*
X104670991Y-82130261D01*
X104555645Y-82107318D01*
X104516342Y-82099500D01*
X104358658Y-82099500D01*
X104319355Y-82107318D01*
X104204008Y-82130261D01*
X104203998Y-82130264D01*
X104058325Y-82190603D01*
X103927211Y-82278210D01*
X103927210Y-82278212D01*
X103815712Y-82389710D01*
X103815710Y-82389711D01*
X103728103Y-82520825D01*
X103667764Y-82666498D01*
X103667761Y-82666508D01*
X103642080Y-82795616D01*
X103637000Y-82821158D01*
X100158000Y-82821158D01*
X100127237Y-82666503D01*
X100095429Y-82589710D01*
X100066896Y-82520825D01*
X100066895Y-82520823D01*
X100066894Y-82520821D01*
X99979289Y-82389711D01*
X99867789Y-82278211D01*
X99736679Y-82190606D01*
X99736675Y-82190604D01*
X99736673Y-82190603D01*
X99736674Y-82190603D01*
X99591001Y-82130264D01*
X99590991Y-82130261D01*
X99475645Y-82107318D01*
X99436342Y-82099500D01*
X99278658Y-82099500D01*
X99239355Y-82107318D01*
X99124008Y-82130261D01*
X99123998Y-82130264D01*
X98978325Y-82190603D01*
X98847211Y-82278210D01*
X98847210Y-82278212D01*
X98735712Y-82389710D01*
X98735710Y-82389711D01*
X98648103Y-82520825D01*
X98587764Y-82666498D01*
X98587761Y-82666508D01*
X98562080Y-82795616D01*
X98557000Y-82821158D01*
X95528972Y-82821158D01*
X95307314Y-82599500D01*
X95193190Y-82533610D01*
X95193181Y-82533606D01*
X95065894Y-82499500D01*
X95065892Y-82499500D01*
X83004159Y-82499500D01*
X82995873Y-82499035D01*
X82897131Y-82487909D01*
X82880980Y-82484222D01*
X82833867Y-82467736D01*
X82791147Y-82452788D01*
X82776218Y-82445599D01*
X82695627Y-82394961D01*
X82682671Y-82384629D01*
X82615370Y-82317328D01*
X82605038Y-82304372D01*
X82554400Y-82223781D01*
X82547211Y-82208852D01*
X82515775Y-82119013D01*
X82512091Y-82102873D01*
X82500965Y-82004125D01*
X82500500Y-81995840D01*
X82500500Y-79893711D01*
X83649500Y-79893711D01*
X83649500Y-80106288D01*
X83682753Y-80316240D01*
X83682756Y-80316253D01*
X83748440Y-80518406D01*
X83748442Y-80518411D01*
X83748443Y-80518412D01*
X83753657Y-80528645D01*
X83844948Y-80707816D01*
X83896552Y-80778842D01*
X83969896Y-80879792D01*
X84120208Y-81030104D01*
X84215656Y-81099451D01*
X84292183Y-81155051D01*
X84383474Y-81201565D01*
X84481588Y-81251557D01*
X84481590Y-81251557D01*
X84481593Y-81251559D01*
X84683746Y-81317243D01*
X84683752Y-81317244D01*
X84683757Y-81317246D01*
X84788735Y-81333873D01*
X84893711Y-81350500D01*
X84893713Y-81350500D01*
X85106289Y-81350500D01*
X85190269Y-81337198D01*
X85316243Y-81317246D01*
X85316250Y-81317243D01*
X85316253Y-81317243D01*
X85518406Y-81251559D01*
X85518406Y-81251558D01*
X85518412Y-81251557D01*
X85707816Y-81155051D01*
X85879792Y-81030104D01*
X86030104Y-80879792D01*
X86155051Y-80707816D01*
X86199205Y-80621158D01*
X98557000Y-80621158D01*
X98557000Y-80778842D01*
X98561823Y-80803087D01*
X98587761Y-80933491D01*
X98587764Y-80933501D01*
X98648103Y-81079174D01*
X98648105Y-81079177D01*
X98648106Y-81079179D01*
X98735711Y-81210289D01*
X98847211Y-81321789D01*
X98978321Y-81409394D01*
X98978326Y-81409396D01*
X98978325Y-81409396D01*
X99123998Y-81469735D01*
X99124003Y-81469737D01*
X99278658Y-81500500D01*
X99278660Y-81500500D01*
X99436340Y-81500500D01*
X99436342Y-81500500D01*
X99590997Y-81469737D01*
X99736679Y-81409394D01*
X99867789Y-81321789D01*
X99979289Y-81210289D01*
X100066894Y-81079179D01*
X100127237Y-80933497D01*
X100158000Y-80778842D01*
X100158000Y-80621158D01*
X103637000Y-80621158D01*
X103637000Y-80778842D01*
X103641823Y-80803087D01*
X103667761Y-80933491D01*
X103667764Y-80933501D01*
X103728103Y-81079174D01*
X103728105Y-81079177D01*
X103728106Y-81079179D01*
X103815711Y-81210289D01*
X103927211Y-81321789D01*
X104058321Y-81409394D01*
X104058326Y-81409396D01*
X104058325Y-81409396D01*
X104203998Y-81469735D01*
X104204003Y-81469737D01*
X104358658Y-81500500D01*
X104358660Y-81500500D01*
X104516340Y-81500500D01*
X104516342Y-81500500D01*
X104670997Y-81469737D01*
X104816679Y-81409394D01*
X104947789Y-81321789D01*
X105059289Y-81210289D01*
X105146894Y-81079179D01*
X105207237Y-80933497D01*
X105229583Y-80821159D01*
X108557000Y-80821159D01*
X108557000Y-80978840D01*
X108587761Y-81133491D01*
X108587764Y-81133501D01*
X108648103Y-81279174D01*
X108648105Y-81279177D01*
X108648106Y-81279179D01*
X108735711Y-81410289D01*
X108847211Y-81521789D01*
X108978321Y-81609394D01*
X108978326Y-81609396D01*
X108978325Y-81609396D01*
X109123998Y-81669735D01*
X109124003Y-81669737D01*
X109278658Y-81700500D01*
X109278660Y-81700500D01*
X109436340Y-81700500D01*
X109436342Y-81700500D01*
X109590997Y-81669737D01*
X109736679Y-81609394D01*
X109867789Y-81521789D01*
X109979289Y-81410289D01*
X110066894Y-81279179D01*
X110127237Y-81133497D01*
X110158000Y-80978842D01*
X110158000Y-80821159D01*
X113637000Y-80821159D01*
X113637000Y-80978840D01*
X113667761Y-81133491D01*
X113667764Y-81133501D01*
X113728103Y-81279174D01*
X113728105Y-81279177D01*
X113728106Y-81279179D01*
X113815711Y-81410289D01*
X113927211Y-81521789D01*
X114058321Y-81609394D01*
X114058326Y-81609396D01*
X114058325Y-81609396D01*
X114203998Y-81669735D01*
X114204003Y-81669737D01*
X114358658Y-81700500D01*
X114358660Y-81700500D01*
X114516340Y-81700500D01*
X114516342Y-81700500D01*
X114670997Y-81669737D01*
X114816679Y-81609394D01*
X114947789Y-81521789D01*
X115059289Y-81410289D01*
X115146894Y-81279179D01*
X115207237Y-81133497D01*
X115238000Y-80978842D01*
X115238000Y-80821158D01*
X115207237Y-80666503D01*
X115146894Y-80520821D01*
X115059289Y-80389711D01*
X114947789Y-80278211D01*
X114816679Y-80190606D01*
X114816675Y-80190604D01*
X114816673Y-80190603D01*
X114816674Y-80190603D01*
X114671001Y-80130264D01*
X114670991Y-80130261D01*
X114550462Y-80106287D01*
X114516342Y-80099500D01*
X114358658Y-80099500D01*
X114324538Y-80106287D01*
X114204008Y-80130261D01*
X114203998Y-80130264D01*
X114058325Y-80190603D01*
X113927211Y-80278210D01*
X113927210Y-80278212D01*
X113815712Y-80389710D01*
X113815710Y-80389711D01*
X113728103Y-80520825D01*
X113667764Y-80666498D01*
X113667761Y-80666508D01*
X113637000Y-80821159D01*
X110158000Y-80821159D01*
X110158000Y-80821158D01*
X110127237Y-80666503D01*
X110066894Y-80520821D01*
X109979289Y-80389711D01*
X109867789Y-80278211D01*
X109736679Y-80190606D01*
X109736675Y-80190604D01*
X109736673Y-80190603D01*
X109736674Y-80190603D01*
X109591001Y-80130264D01*
X109590991Y-80130261D01*
X109470462Y-80106287D01*
X109436342Y-80099500D01*
X109278658Y-80099500D01*
X109244538Y-80106287D01*
X109124008Y-80130261D01*
X109123998Y-80130264D01*
X108978325Y-80190603D01*
X108847211Y-80278210D01*
X108847210Y-80278212D01*
X108735712Y-80389710D01*
X108735710Y-80389711D01*
X108648103Y-80520825D01*
X108587764Y-80666498D01*
X108587761Y-80666508D01*
X108557000Y-80821159D01*
X105229583Y-80821159D01*
X105238000Y-80778842D01*
X105238000Y-80621158D01*
X105207237Y-80466503D01*
X105146894Y-80320821D01*
X105059289Y-80189711D01*
X104947789Y-80078211D01*
X104816679Y-79990606D01*
X104816675Y-79990604D01*
X104816673Y-79990603D01*
X104816674Y-79990603D01*
X104671001Y-79930264D01*
X104670991Y-79930261D01*
X104567425Y-79909661D01*
X104516342Y-79899500D01*
X104358658Y-79899500D01*
X104314815Y-79908220D01*
X104204008Y-79930261D01*
X104203998Y-79930264D01*
X104058325Y-79990603D01*
X103927211Y-80078210D01*
X103927210Y-80078212D01*
X103815712Y-80189710D01*
X103815710Y-80189711D01*
X103728103Y-80320825D01*
X103667764Y-80466498D01*
X103667761Y-80466508D01*
X103642080Y-80595616D01*
X103637000Y-80621158D01*
X100158000Y-80621158D01*
X100127237Y-80466503D01*
X100066894Y-80320821D01*
X99979289Y-80189711D01*
X99867789Y-80078211D01*
X99736679Y-79990606D01*
X99736675Y-79990604D01*
X99736673Y-79990603D01*
X99736674Y-79990603D01*
X99591001Y-79930264D01*
X99590991Y-79930261D01*
X99487425Y-79909661D01*
X99436342Y-79899500D01*
X99278658Y-79899500D01*
X99234815Y-79908220D01*
X99124008Y-79930261D01*
X99123998Y-79930264D01*
X98978325Y-79990603D01*
X98847211Y-80078210D01*
X98847210Y-80078212D01*
X98735712Y-80189710D01*
X98735710Y-80189711D01*
X98648103Y-80320825D01*
X98587764Y-80466498D01*
X98587761Y-80466508D01*
X98562080Y-80595616D01*
X98557000Y-80621158D01*
X86199205Y-80621158D01*
X86251557Y-80518412D01*
X86317246Y-80316243D01*
X86350500Y-80106287D01*
X86350500Y-79893713D01*
X86317246Y-79683757D01*
X86317244Y-79683752D01*
X86317243Y-79683746D01*
X86251559Y-79481593D01*
X86251557Y-79481590D01*
X86251557Y-79481588D01*
X86182427Y-79345913D01*
X86155051Y-79292183D01*
X86080028Y-79188923D01*
X86030104Y-79120208D01*
X85879792Y-78969896D01*
X85795736Y-78908826D01*
X85707816Y-78844948D01*
X85518406Y-78748440D01*
X85316253Y-78682756D01*
X85316240Y-78682753D01*
X85106289Y-78649500D01*
X85106287Y-78649500D01*
X84893713Y-78649500D01*
X84893711Y-78649500D01*
X84683759Y-78682753D01*
X84683746Y-78682756D01*
X84481593Y-78748440D01*
X84292183Y-78844948D01*
X84120212Y-78969893D01*
X84120208Y-78969896D01*
X83969896Y-79120208D01*
X83969893Y-79120211D01*
X83969893Y-79120212D01*
X83844948Y-79292183D01*
X83748440Y-79481593D01*
X83682756Y-79683746D01*
X83682753Y-79683759D01*
X83649500Y-79893711D01*
X82500500Y-79893711D01*
X82500500Y-78421158D01*
X98557000Y-78421158D01*
X98557000Y-78578842D01*
X98561823Y-78603087D01*
X98587761Y-78733491D01*
X98587764Y-78733501D01*
X98648103Y-78879174D01*
X98648105Y-78879177D01*
X98648106Y-78879179D01*
X98650981Y-78883482D01*
X98708724Y-78969901D01*
X98735711Y-79010289D01*
X98847211Y-79121789D01*
X98978321Y-79209394D01*
X98978326Y-79209396D01*
X98978325Y-79209396D01*
X99087415Y-79254582D01*
X99124003Y-79269737D01*
X99278658Y-79300500D01*
X99278660Y-79300500D01*
X99436340Y-79300500D01*
X99436342Y-79300500D01*
X99590997Y-79269737D01*
X99736679Y-79209394D01*
X99867789Y-79121789D01*
X99979289Y-79010289D01*
X100066894Y-78879179D01*
X100127237Y-78733497D01*
X100158000Y-78578842D01*
X100158000Y-78421158D01*
X103637000Y-78421158D01*
X103637000Y-78578842D01*
X103641823Y-78603087D01*
X103667761Y-78733491D01*
X103667764Y-78733501D01*
X103729497Y-78882538D01*
X103727216Y-78883482D01*
X103732004Y-78932552D01*
X103728410Y-78940831D01*
X103728650Y-78940931D01*
X103726791Y-78945417D01*
X103699500Y-79047270D01*
X103699500Y-79152729D01*
X103726791Y-79254582D01*
X103726795Y-79254591D01*
X103753301Y-79300500D01*
X103779520Y-79345913D01*
X103854087Y-79420480D01*
X103945413Y-79473207D01*
X104047270Y-79500499D01*
X104047271Y-79500500D01*
X104047273Y-79500500D01*
X104490229Y-79500500D01*
X104490229Y-79500499D01*
X104592087Y-79473207D01*
X104683413Y-79420480D01*
X104757980Y-79345913D01*
X104810707Y-79254587D01*
X104816945Y-79231301D01*
X104847311Y-79188924D01*
X104947789Y-79121789D01*
X105059289Y-79010289D01*
X105146894Y-78879179D01*
X105207237Y-78733497D01*
X105229583Y-78621159D01*
X108557000Y-78621159D01*
X108557000Y-78778840D01*
X108587761Y-78933491D01*
X108587764Y-78933501D01*
X108648103Y-79079174D01*
X108648105Y-79079177D01*
X108648106Y-79079179D01*
X108676577Y-79121789D01*
X108731774Y-79204398D01*
X108735711Y-79210289D01*
X108847211Y-79321789D01*
X108978321Y-79409394D01*
X108978326Y-79409396D01*
X108978325Y-79409396D01*
X109123998Y-79469735D01*
X109124003Y-79469737D01*
X109278658Y-79500500D01*
X109278660Y-79500500D01*
X109436340Y-79500500D01*
X109436342Y-79500500D01*
X109590997Y-79469737D01*
X109736679Y-79409394D01*
X109867789Y-79321789D01*
X109979289Y-79210289D01*
X110066894Y-79079179D01*
X110127237Y-78933497D01*
X110158000Y-78778842D01*
X110158000Y-78621159D01*
X113637000Y-78621159D01*
X113637000Y-78778840D01*
X113667761Y-78933491D01*
X113667764Y-78933501D01*
X113728103Y-79079174D01*
X113728105Y-79079177D01*
X113728106Y-79079179D01*
X113756577Y-79121789D01*
X113811774Y-79204398D01*
X113815711Y-79210289D01*
X113927211Y-79321789D01*
X114058321Y-79409394D01*
X114058326Y-79409396D01*
X114058325Y-79409396D01*
X114203998Y-79469735D01*
X114204003Y-79469737D01*
X114358658Y-79500500D01*
X114358660Y-79500500D01*
X114516340Y-79500500D01*
X114516342Y-79500500D01*
X114670997Y-79469737D01*
X114816679Y-79409394D01*
X114947789Y-79321789D01*
X115059289Y-79210289D01*
X115146894Y-79079179D01*
X115207237Y-78933497D01*
X115238000Y-78778842D01*
X115238000Y-78621158D01*
X115207237Y-78466503D01*
X115188455Y-78421158D01*
X115146896Y-78320825D01*
X115146895Y-78320823D01*
X115146894Y-78320821D01*
X115059289Y-78189711D01*
X114947789Y-78078211D01*
X114947785Y-78078208D01*
X114947779Y-78078203D01*
X114944760Y-78076186D01*
X114914393Y-78033811D01*
X114890707Y-77945413D01*
X114837980Y-77854087D01*
X114763413Y-77779520D01*
X114678099Y-77730264D01*
X114672091Y-77726795D01*
X114672082Y-77726791D01*
X114570229Y-77699500D01*
X114570227Y-77699500D01*
X114047273Y-77699500D01*
X114047271Y-77699500D01*
X113945417Y-77726791D01*
X113945408Y-77726795D01*
X113854086Y-77779520D01*
X113779520Y-77854086D01*
X113726795Y-77945408D01*
X113726791Y-77945417D01*
X113699500Y-78047270D01*
X113699500Y-78152729D01*
X113726791Y-78254582D01*
X113728651Y-78259072D01*
X113726359Y-78260021D01*
X113732680Y-78308173D01*
X113729103Y-78317299D01*
X113729497Y-78317462D01*
X113667764Y-78466498D01*
X113667761Y-78466508D01*
X113637000Y-78621159D01*
X110158000Y-78621159D01*
X110158000Y-78621158D01*
X110130416Y-78482485D01*
X110141465Y-78426937D01*
X110150663Y-78415728D01*
X111245910Y-77320481D01*
X111245913Y-77320480D01*
X111320480Y-77245913D01*
X111346843Y-77200250D01*
X111373207Y-77154588D01*
X111400500Y-77052727D01*
X111400500Y-76947273D01*
X111400500Y-75476543D01*
X111422173Y-75424218D01*
X111425232Y-75421159D01*
X113637000Y-75421159D01*
X113637000Y-75578840D01*
X113667761Y-75733491D01*
X113667764Y-75733501D01*
X113728103Y-75879174D01*
X113728105Y-75879177D01*
X113728106Y-75879179D01*
X113756577Y-75921789D01*
X113790911Y-75973174D01*
X113815711Y-76010289D01*
X113927211Y-76121789D01*
X114058321Y-76209394D01*
X114058326Y-76209396D01*
X114058325Y-76209396D01*
X114146486Y-76245913D01*
X114204003Y-76269737D01*
X114358658Y-76300500D01*
X114358660Y-76300500D01*
X114516340Y-76300500D01*
X114516342Y-76300500D01*
X114670997Y-76269737D01*
X114816679Y-76209394D01*
X114947789Y-76121789D01*
X115059289Y-76010289D01*
X115146894Y-75879179D01*
X115207237Y-75733497D01*
X115238000Y-75578842D01*
X115238000Y-75421158D01*
X115219955Y-75330445D01*
X115231004Y-75274899D01*
X115240208Y-75263684D01*
X115362970Y-75140924D01*
X115415295Y-75119250D01*
X116891607Y-75119250D01*
X116928607Y-75129164D01*
X116948976Y-75140924D01*
X117025564Y-75185142D01*
X117152855Y-75219249D01*
X117152856Y-75219250D01*
X117152858Y-75219250D01*
X117284644Y-75219250D01*
X117284644Y-75219249D01*
X117411936Y-75185142D01*
X117526064Y-75119250D01*
X117619250Y-75026064D01*
X117685142Y-74911936D01*
X117719249Y-74784644D01*
X117719250Y-74784644D01*
X117719250Y-74652856D01*
X117719249Y-74652855D01*
X117686400Y-74530261D01*
X117685142Y-74525564D01*
X117619250Y-74411436D01*
X117526064Y-74318250D01*
X117522583Y-74316240D01*
X117411940Y-74252360D01*
X117411931Y-74252356D01*
X117284644Y-74218250D01*
X117284642Y-74218250D01*
X117152858Y-74218250D01*
X117152856Y-74218250D01*
X117025568Y-74252356D01*
X117025559Y-74252360D01*
X116928607Y-74308336D01*
X116891607Y-74318250D01*
X115166021Y-74318250D01*
X115064167Y-74345541D01*
X115064158Y-74345545D01*
X114972836Y-74398270D01*
X114673814Y-74697291D01*
X114621488Y-74718965D01*
X114607052Y-74717543D01*
X114547627Y-74705723D01*
X114516342Y-74699500D01*
X114358658Y-74699500D01*
X114316851Y-74707816D01*
X114204008Y-74730261D01*
X114203998Y-74730264D01*
X114058325Y-74790603D01*
X113927211Y-74878210D01*
X113927210Y-74878212D01*
X113815712Y-74989710D01*
X113815710Y-74989711D01*
X113728103Y-75120825D01*
X113667764Y-75266498D01*
X113667761Y-75266508D01*
X113637000Y-75421159D01*
X111425232Y-75421159D01*
X120463215Y-66383175D01*
X120515540Y-66361502D01*
X120545874Y-66368784D01*
X120545993Y-66368498D01*
X120545999Y-66368481D01*
X120546000Y-66368481D01*
X120546088Y-66368270D01*
X120548770Y-66369381D01*
X120724725Y-66426552D01*
X120724731Y-66426553D01*
X120724736Y-66426555D01*
X120816111Y-66441027D01*
X120907484Y-66455500D01*
X120907486Y-66455500D01*
X121092516Y-66455500D01*
X121165614Y-66443922D01*
X121275264Y-66426555D01*
X121275271Y-66426552D01*
X121275274Y-66426552D01*
X121451232Y-66369380D01*
X121451232Y-66369379D01*
X121451235Y-66369379D01*
X121616096Y-66285378D01*
X121765787Y-66176621D01*
X121896621Y-66045787D01*
X122005378Y-65896096D01*
X122089379Y-65731235D01*
X122146555Y-65555264D01*
X122175500Y-65372514D01*
X122175500Y-65187486D01*
X122146555Y-65004736D01*
X122146553Y-65004731D01*
X122146552Y-65004725D01*
X122089380Y-64828767D01*
X122089378Y-64828763D01*
X122030803Y-64713804D01*
X122005378Y-64663904D01*
X121896621Y-64514213D01*
X121765787Y-64383379D01*
X121765784Y-64383376D01*
X121765782Y-64383375D01*
X121616098Y-64274623D01*
X121616092Y-64274620D01*
X121451236Y-64190621D01*
X121451232Y-64190619D01*
X121275274Y-64133447D01*
X121275261Y-64133444D01*
X121092516Y-64104500D01*
X121092514Y-64104500D01*
X120907486Y-64104500D01*
X120907484Y-64104500D01*
X120724738Y-64133444D01*
X120724725Y-64133447D01*
X120548767Y-64190619D01*
X120548763Y-64190621D01*
X120383907Y-64274620D01*
X120383901Y-64274623D01*
X120234217Y-64383375D01*
X120103375Y-64514217D01*
X119994623Y-64663901D01*
X119994620Y-64663907D01*
X119910621Y-64828763D01*
X119910619Y-64828767D01*
X119853447Y-65004725D01*
X119853444Y-65004738D01*
X119824500Y-65187484D01*
X119824500Y-65372515D01*
X119853444Y-65555261D01*
X119853447Y-65555274D01*
X119910619Y-65731232D01*
X119911732Y-65733917D01*
X119910702Y-65734343D01*
X119914878Y-65787315D01*
X119896823Y-65816783D01*
X110679517Y-75034090D01*
X110626795Y-75125407D01*
X110626793Y-75125411D01*
X110612278Y-75179583D01*
X110601650Y-75219250D01*
X110599500Y-75227273D01*
X110599500Y-76803454D01*
X110577826Y-76855780D01*
X109545854Y-77887751D01*
X109493528Y-77909425D01*
X109479092Y-77908003D01*
X109436342Y-77899500D01*
X109278658Y-77899500D01*
X109235911Y-77908003D01*
X109124008Y-77930261D01*
X109123998Y-77930264D01*
X108978325Y-77990603D01*
X108847211Y-78078210D01*
X108847210Y-78078212D01*
X108735712Y-78189710D01*
X108735710Y-78189711D01*
X108648103Y-78320825D01*
X108587764Y-78466498D01*
X108587761Y-78466508D01*
X108557000Y-78621159D01*
X105229583Y-78621159D01*
X105238000Y-78578842D01*
X105238000Y-78421158D01*
X105207237Y-78266503D01*
X105146894Y-78120821D01*
X105059289Y-77989711D01*
X104947789Y-77878211D01*
X104816679Y-77790606D01*
X104816675Y-77790604D01*
X104816673Y-77790603D01*
X104816674Y-77790603D01*
X104671001Y-77730264D01*
X104670991Y-77730261D01*
X104567425Y-77709661D01*
X104516342Y-77699500D01*
X104358658Y-77699500D01*
X104314815Y-77708220D01*
X104204008Y-77730261D01*
X104203998Y-77730264D01*
X104058325Y-77790603D01*
X103927211Y-77878210D01*
X103927210Y-77878212D01*
X103815712Y-77989710D01*
X103815710Y-77989711D01*
X103728103Y-78120825D01*
X103667764Y-78266498D01*
X103667761Y-78266508D01*
X103642080Y-78395616D01*
X103637000Y-78421158D01*
X100158000Y-78421158D01*
X100127237Y-78266503D01*
X100066894Y-78120821D01*
X99979289Y-77989711D01*
X99867789Y-77878211D01*
X99736679Y-77790606D01*
X99736675Y-77790604D01*
X99736673Y-77790603D01*
X99736674Y-77790603D01*
X99591001Y-77730264D01*
X99590991Y-77730261D01*
X99487425Y-77709661D01*
X99436342Y-77699500D01*
X99278658Y-77699500D01*
X99234815Y-77708220D01*
X99124008Y-77730261D01*
X99123998Y-77730264D01*
X98978325Y-77790603D01*
X98847211Y-77878210D01*
X98847210Y-77878212D01*
X98735712Y-77989710D01*
X98735710Y-77989711D01*
X98648103Y-78120825D01*
X98587764Y-78266498D01*
X98587761Y-78266508D01*
X98562080Y-78395616D01*
X98557000Y-78421158D01*
X82500500Y-78421158D01*
X82500500Y-73893711D01*
X83649500Y-73893711D01*
X83649500Y-74106288D01*
X83682753Y-74316240D01*
X83682756Y-74316253D01*
X83748440Y-74518406D01*
X83844948Y-74707816D01*
X83861258Y-74730264D01*
X83969896Y-74879792D01*
X84120208Y-75030104D01*
X84215656Y-75099451D01*
X84292183Y-75155051D01*
X84351235Y-75185139D01*
X84481588Y-75251557D01*
X84481590Y-75251557D01*
X84481593Y-75251559D01*
X84683746Y-75317243D01*
X84683752Y-75317244D01*
X84683757Y-75317246D01*
X84767111Y-75330448D01*
X84893711Y-75350500D01*
X84893713Y-75350500D01*
X85106289Y-75350500D01*
X85190269Y-75337198D01*
X85316243Y-75317246D01*
X85316250Y-75317243D01*
X85316253Y-75317243D01*
X85518406Y-75251559D01*
X85518406Y-75251558D01*
X85518412Y-75251557D01*
X85707816Y-75155051D01*
X85879792Y-75030104D01*
X85975791Y-74934105D01*
X97499500Y-74934105D01*
X97499500Y-75065894D01*
X97533606Y-75193181D01*
X97533610Y-75193190D01*
X97548656Y-75219250D01*
X97581085Y-75275419D01*
X97589586Y-75290142D01*
X97599500Y-75327142D01*
X97599500Y-75947273D01*
X97599500Y-76052727D01*
X97618005Y-76121789D01*
X97626793Y-76154588D01*
X97626795Y-76154592D01*
X97679517Y-76245909D01*
X97679518Y-76245910D01*
X97679520Y-76245913D01*
X98176931Y-76743323D01*
X98176936Y-76743329D01*
X98179520Y-76745913D01*
X98254087Y-76820480D01*
X98297271Y-76845412D01*
X98345412Y-76873207D01*
X98447273Y-76900500D01*
X98447274Y-76900500D01*
X103290226Y-76900500D01*
X103290227Y-76900500D01*
X103392088Y-76873207D01*
X103483413Y-76820480D01*
X104201185Y-76102706D01*
X104253510Y-76081033D01*
X104267937Y-76082453D01*
X104358658Y-76100500D01*
X104358661Y-76100500D01*
X104516340Y-76100500D01*
X104516342Y-76100500D01*
X104670997Y-76069737D01*
X104816679Y-76009394D01*
X104947789Y-75921789D01*
X105059289Y-75810289D01*
X105146894Y-75679179D01*
X105207237Y-75533497D01*
X105229583Y-75421159D01*
X108557000Y-75421159D01*
X108557000Y-75578840D01*
X108587761Y-75733491D01*
X108587764Y-75733501D01*
X108648103Y-75879174D01*
X108648105Y-75879177D01*
X108648106Y-75879179D01*
X108676577Y-75921789D01*
X108710911Y-75973174D01*
X108735711Y-76010289D01*
X108847211Y-76121789D01*
X108978321Y-76209394D01*
X108978326Y-76209396D01*
X108978325Y-76209396D01*
X109066486Y-76245913D01*
X109124003Y-76269737D01*
X109278658Y-76300500D01*
X109278660Y-76300500D01*
X109436340Y-76300500D01*
X109436342Y-76300500D01*
X109590997Y-76269737D01*
X109736679Y-76209394D01*
X109867789Y-76121789D01*
X109979289Y-76010289D01*
X110066894Y-75879179D01*
X110127237Y-75733497D01*
X110158000Y-75578842D01*
X110158000Y-75421158D01*
X110127237Y-75266503D01*
X110096870Y-75193190D01*
X110066896Y-75120825D01*
X110066895Y-75120823D01*
X110066894Y-75120821D01*
X109979289Y-74989711D01*
X109867789Y-74878211D01*
X109736679Y-74790606D01*
X109736675Y-74790604D01*
X109736673Y-74790603D01*
X109736674Y-74790603D01*
X109591001Y-74730264D01*
X109590991Y-74730261D01*
X109478149Y-74707816D01*
X109436342Y-74699500D01*
X109278658Y-74699500D01*
X109236851Y-74707816D01*
X109124008Y-74730261D01*
X109123998Y-74730264D01*
X108978325Y-74790603D01*
X108847211Y-74878210D01*
X108847210Y-74878212D01*
X108735712Y-74989710D01*
X108735710Y-74989711D01*
X108648103Y-75120825D01*
X108587764Y-75266498D01*
X108587761Y-75266508D01*
X108557000Y-75421159D01*
X105229583Y-75421159D01*
X105238000Y-75378842D01*
X105238000Y-75221158D01*
X105207237Y-75066503D01*
X105152398Y-74934108D01*
X105146896Y-74920825D01*
X105146895Y-74920823D01*
X105146894Y-74920821D01*
X105059289Y-74789711D01*
X104947789Y-74678211D01*
X104816679Y-74590606D01*
X104816675Y-74590604D01*
X104816673Y-74590603D01*
X104816674Y-74590603D01*
X104671001Y-74530264D01*
X104670991Y-74530261D01*
X104567425Y-74509661D01*
X104516342Y-74499500D01*
X104358658Y-74499500D01*
X104314815Y-74508220D01*
X104204008Y-74530261D01*
X104203998Y-74530264D01*
X104058325Y-74590603D01*
X103927211Y-74678210D01*
X103927210Y-74678212D01*
X103815712Y-74789710D01*
X103815710Y-74789711D01*
X103728103Y-74920825D01*
X103667764Y-75066498D01*
X103667761Y-75066508D01*
X103644165Y-75185139D01*
X103637380Y-75219251D01*
X103637000Y-75221159D01*
X103637000Y-75378841D01*
X103655043Y-75469552D01*
X103643994Y-75525100D01*
X103634791Y-75536314D01*
X103093281Y-76077826D01*
X103040955Y-76099500D01*
X99845771Y-76099500D01*
X99793445Y-76077826D01*
X99771771Y-76025500D01*
X99793445Y-75973174D01*
X99804659Y-75963971D01*
X99867789Y-75921789D01*
X99979289Y-75810289D01*
X100066894Y-75679179D01*
X100127237Y-75533497D01*
X100158000Y-75378842D01*
X100158000Y-75221158D01*
X100127237Y-75066503D01*
X100072398Y-74934108D01*
X100066896Y-74920825D01*
X100066895Y-74920823D01*
X100066894Y-74920821D01*
X99979289Y-74789711D01*
X99867789Y-74678211D01*
X99736679Y-74590606D01*
X99736675Y-74590604D01*
X99736673Y-74590603D01*
X99736674Y-74590603D01*
X99591001Y-74530264D01*
X99590991Y-74530261D01*
X99487425Y-74509661D01*
X99436342Y-74499500D01*
X99278658Y-74499500D01*
X99234815Y-74508220D01*
X99124008Y-74530261D01*
X99123998Y-74530264D01*
X98978325Y-74590603D01*
X98847211Y-74678210D01*
X98847210Y-74678212D01*
X98735712Y-74789710D01*
X98735710Y-74789711D01*
X98648103Y-74920825D01*
X98639739Y-74941018D01*
X98599689Y-74981065D01*
X98543052Y-74981063D01*
X98503005Y-74941013D01*
X98499897Y-74931858D01*
X98466392Y-74806814D01*
X98400500Y-74692686D01*
X98307314Y-74599500D01*
X98291904Y-74590603D01*
X98193190Y-74533610D01*
X98193181Y-74533606D01*
X98065894Y-74499500D01*
X98065892Y-74499500D01*
X97934108Y-74499500D01*
X97934106Y-74499500D01*
X97806818Y-74533606D01*
X97806809Y-74533610D01*
X97692685Y-74599500D01*
X97599500Y-74692685D01*
X97533610Y-74806809D01*
X97533606Y-74806818D01*
X97499500Y-74934105D01*
X85975791Y-74934105D01*
X86030104Y-74879792D01*
X86155051Y-74707816D01*
X86251557Y-74518412D01*
X86307726Y-74345543D01*
X86317243Y-74316253D01*
X86317243Y-74316250D01*
X86317246Y-74316243D01*
X86350500Y-74106287D01*
X86350500Y-73893713D01*
X86317246Y-73683757D01*
X86317244Y-73683752D01*
X86317243Y-73683746D01*
X86251559Y-73481593D01*
X86251557Y-73481590D01*
X86251557Y-73481588D01*
X86201565Y-73383474D01*
X86155051Y-73292183D01*
X86099451Y-73215656D01*
X86030104Y-73120208D01*
X85879792Y-72969896D01*
X85813146Y-72921475D01*
X85707816Y-72844948D01*
X85518406Y-72748440D01*
X85316253Y-72682756D01*
X85316240Y-72682753D01*
X85106289Y-72649500D01*
X85106287Y-72649500D01*
X84893713Y-72649500D01*
X84893711Y-72649500D01*
X84683759Y-72682753D01*
X84683746Y-72682756D01*
X84481593Y-72748440D01*
X84292183Y-72844948D01*
X84120212Y-72969893D01*
X84120208Y-72969896D01*
X83969896Y-73120208D01*
X83969893Y-73120211D01*
X83969893Y-73120212D01*
X83844948Y-73292183D01*
X83748440Y-73481593D01*
X83682756Y-73683746D01*
X83682753Y-73683759D01*
X83649500Y-73893711D01*
X82500500Y-73893711D01*
X82500500Y-65187484D01*
X84824500Y-65187484D01*
X84824500Y-65372515D01*
X84853444Y-65555261D01*
X84853447Y-65555274D01*
X84910619Y-65731232D01*
X84910621Y-65731236D01*
X84994620Y-65896092D01*
X84994623Y-65896098D01*
X85103375Y-66045782D01*
X85103379Y-66045787D01*
X85234213Y-66176621D01*
X85383904Y-66285378D01*
X85501231Y-66345159D01*
X85548763Y-66369378D01*
X85548767Y-66369380D01*
X85724725Y-66426552D01*
X85724731Y-66426553D01*
X85724736Y-66426555D01*
X85816111Y-66441027D01*
X85907484Y-66455500D01*
X85907486Y-66455500D01*
X86092516Y-66455500D01*
X86165614Y-66443922D01*
X86275264Y-66426555D01*
X86275271Y-66426552D01*
X86275274Y-66426552D01*
X86451232Y-66369380D01*
X86451232Y-66369379D01*
X86451235Y-66369379D01*
X86616096Y-66285378D01*
X86765787Y-66176621D01*
X86896621Y-66045787D01*
X87005378Y-65896096D01*
X87089379Y-65731235D01*
X87146555Y-65555264D01*
X87175500Y-65372514D01*
X87175500Y-65187486D01*
X87175500Y-65187484D01*
X89824500Y-65187484D01*
X89824500Y-65372515D01*
X89853444Y-65555261D01*
X89853447Y-65555274D01*
X89910619Y-65731232D01*
X89910621Y-65731236D01*
X89994620Y-65896092D01*
X89994623Y-65896098D01*
X90103375Y-66045782D01*
X90103379Y-66045787D01*
X90234213Y-66176621D01*
X90383904Y-66285378D01*
X90501231Y-66345159D01*
X90548763Y-66369378D01*
X90548767Y-66369380D01*
X90724725Y-66426552D01*
X90724731Y-66426553D01*
X90724736Y-66426555D01*
X90816111Y-66441027D01*
X90907484Y-66455500D01*
X90907486Y-66455500D01*
X91092516Y-66455500D01*
X91165614Y-66443922D01*
X91275264Y-66426555D01*
X91275271Y-66426552D01*
X91275274Y-66426552D01*
X91451232Y-66369380D01*
X91451232Y-66369379D01*
X91451235Y-66369379D01*
X91616096Y-66285378D01*
X91765787Y-66176621D01*
X91896621Y-66045787D01*
X92005378Y-65896096D01*
X92089379Y-65731235D01*
X92146555Y-65555264D01*
X92175500Y-65372514D01*
X92175500Y-65187486D01*
X92175500Y-65187484D01*
X94824500Y-65187484D01*
X94824500Y-65372515D01*
X94853444Y-65555261D01*
X94853447Y-65555274D01*
X94910619Y-65731232D01*
X94910621Y-65731236D01*
X94994620Y-65896092D01*
X94994623Y-65896098D01*
X95103375Y-66045782D01*
X95103379Y-66045787D01*
X95234213Y-66176621D01*
X95383904Y-66285378D01*
X95501231Y-66345159D01*
X95548763Y-66369378D01*
X95548767Y-66369380D01*
X95724725Y-66426552D01*
X95724731Y-66426553D01*
X95724736Y-66426555D01*
X95816111Y-66441027D01*
X95907484Y-66455500D01*
X95907486Y-66455500D01*
X96092516Y-66455500D01*
X96165614Y-66443922D01*
X96275264Y-66426555D01*
X96275271Y-66426552D01*
X96275274Y-66426552D01*
X96451232Y-66369380D01*
X96451232Y-66369379D01*
X96451235Y-66369379D01*
X96616096Y-66285378D01*
X96765787Y-66176621D01*
X96896621Y-66045787D01*
X97005378Y-65896096D01*
X97089379Y-65731235D01*
X97146555Y-65555264D01*
X97175500Y-65372514D01*
X97175500Y-65187486D01*
X97175500Y-65187484D01*
X99824500Y-65187484D01*
X99824500Y-65372515D01*
X99853444Y-65555261D01*
X99853447Y-65555274D01*
X99910619Y-65731232D01*
X99910621Y-65731236D01*
X99994620Y-65896092D01*
X99994623Y-65896098D01*
X100103375Y-66045782D01*
X100103379Y-66045787D01*
X100234213Y-66176621D01*
X100383904Y-66285378D01*
X100501231Y-66345159D01*
X100548763Y-66369378D01*
X100548767Y-66369380D01*
X100724725Y-66426552D01*
X100724731Y-66426553D01*
X100724736Y-66426555D01*
X100816111Y-66441027D01*
X100907484Y-66455500D01*
X100907486Y-66455500D01*
X101092516Y-66455500D01*
X101165614Y-66443922D01*
X101275264Y-66426555D01*
X101275271Y-66426552D01*
X101275274Y-66426552D01*
X101399528Y-66386180D01*
X101451232Y-66369380D01*
X101451232Y-66369379D01*
X101451235Y-66369379D01*
X101616096Y-66285378D01*
X101765787Y-66176621D01*
X101896621Y-66045787D01*
X102005378Y-65896096D01*
X102089379Y-65731235D01*
X102146555Y-65555264D01*
X102175500Y-65372514D01*
X102175500Y-65187486D01*
X102171767Y-65163914D01*
X104525000Y-65163914D01*
X104525000Y-65396085D01*
X104561318Y-65625394D01*
X104561321Y-65625407D01*
X104633060Y-65846195D01*
X104738466Y-66053068D01*
X104795238Y-66131206D01*
X105398957Y-65527486D01*
X105423978Y-65587890D01*
X105495112Y-65694351D01*
X105585649Y-65784888D01*
X105692110Y-65856022D01*
X105752511Y-65881041D01*
X105148792Y-66484761D01*
X105226932Y-66541533D01*
X105433804Y-66646939D01*
X105654592Y-66718678D01*
X105654605Y-66718681D01*
X105883914Y-66755000D01*
X106116086Y-66755000D01*
X106345394Y-66718681D01*
X106345407Y-66718678D01*
X106566197Y-66646938D01*
X106566203Y-66646936D01*
X106773064Y-66541534D01*
X106773070Y-66541531D01*
X106851206Y-66484761D01*
X106247487Y-65881041D01*
X106307890Y-65856022D01*
X106414351Y-65784888D01*
X106504888Y-65694351D01*
X106576022Y-65587890D01*
X106601042Y-65527487D01*
X107204761Y-66131206D01*
X107261531Y-66053070D01*
X107261534Y-66053064D01*
X107366936Y-65846203D01*
X107366938Y-65846197D01*
X107438678Y-65625407D01*
X107438681Y-65625394D01*
X107475000Y-65396085D01*
X107475000Y-65187484D01*
X109824500Y-65187484D01*
X109824500Y-65372515D01*
X109853444Y-65555261D01*
X109853447Y-65555274D01*
X109910619Y-65731232D01*
X109910621Y-65731236D01*
X109994620Y-65896092D01*
X109994623Y-65896098D01*
X110103375Y-66045782D01*
X110103379Y-66045787D01*
X110234213Y-66176621D01*
X110383904Y-66285378D01*
X110501231Y-66345159D01*
X110548763Y-66369378D01*
X110548767Y-66369380D01*
X110724725Y-66426552D01*
X110724731Y-66426553D01*
X110724736Y-66426555D01*
X110816111Y-66441027D01*
X110907484Y-66455500D01*
X110907486Y-66455500D01*
X111092516Y-66455500D01*
X111165614Y-66443922D01*
X111275264Y-66426555D01*
X111275271Y-66426552D01*
X111275274Y-66426552D01*
X111451232Y-66369380D01*
X111451232Y-66369379D01*
X111451235Y-66369379D01*
X111616096Y-66285378D01*
X111765787Y-66176621D01*
X111896621Y-66045787D01*
X112005378Y-65896096D01*
X112089379Y-65731235D01*
X112146555Y-65555264D01*
X112175500Y-65372514D01*
X112175500Y-65187486D01*
X112175500Y-65187484D01*
X114824500Y-65187484D01*
X114824500Y-65372515D01*
X114853444Y-65555261D01*
X114853447Y-65555274D01*
X114910619Y-65731232D01*
X114910621Y-65731236D01*
X114994620Y-65896092D01*
X114994623Y-65896098D01*
X115103375Y-66045782D01*
X115103379Y-66045787D01*
X115234213Y-66176621D01*
X115383904Y-66285378D01*
X115501231Y-66345159D01*
X115548763Y-66369378D01*
X115548767Y-66369380D01*
X115724725Y-66426552D01*
X115724731Y-66426553D01*
X115724736Y-66426555D01*
X115816111Y-66441027D01*
X115907484Y-66455500D01*
X115907486Y-66455500D01*
X116092516Y-66455500D01*
X116165614Y-66443922D01*
X116275264Y-66426555D01*
X116275271Y-66426552D01*
X116275274Y-66426552D01*
X116451232Y-66369380D01*
X116451232Y-66369379D01*
X116451235Y-66369379D01*
X116616096Y-66285378D01*
X116765787Y-66176621D01*
X116896621Y-66045787D01*
X117005378Y-65896096D01*
X117089379Y-65731235D01*
X117146555Y-65555264D01*
X117175500Y-65372514D01*
X117175500Y-65187486D01*
X117146555Y-65004736D01*
X117146553Y-65004731D01*
X117146552Y-65004725D01*
X117089380Y-64828767D01*
X117089378Y-64828763D01*
X117030803Y-64713804D01*
X117005378Y-64663904D01*
X116896621Y-64514213D01*
X116765787Y-64383379D01*
X116765784Y-64383376D01*
X116765782Y-64383375D01*
X116616098Y-64274623D01*
X116616092Y-64274620D01*
X116451236Y-64190621D01*
X116451232Y-64190619D01*
X116275274Y-64133447D01*
X116275261Y-64133444D01*
X116092516Y-64104500D01*
X116092514Y-64104500D01*
X115907486Y-64104500D01*
X115907484Y-64104500D01*
X115724738Y-64133444D01*
X115724725Y-64133447D01*
X115548767Y-64190619D01*
X115548763Y-64190621D01*
X115383907Y-64274620D01*
X115383901Y-64274623D01*
X115234217Y-64383375D01*
X115103375Y-64514217D01*
X114994623Y-64663901D01*
X114994620Y-64663907D01*
X114910621Y-64828763D01*
X114910619Y-64828767D01*
X114853447Y-65004725D01*
X114853444Y-65004738D01*
X114824500Y-65187484D01*
X112175500Y-65187484D01*
X112146555Y-65004736D01*
X112146553Y-65004731D01*
X112146552Y-65004725D01*
X112089380Y-64828767D01*
X112089378Y-64828763D01*
X112030803Y-64713804D01*
X112005378Y-64663904D01*
X111896621Y-64514213D01*
X111765787Y-64383379D01*
X111765784Y-64383376D01*
X111765782Y-64383375D01*
X111616098Y-64274623D01*
X111616092Y-64274620D01*
X111451236Y-64190621D01*
X111451232Y-64190619D01*
X111275274Y-64133447D01*
X111275261Y-64133444D01*
X111092516Y-64104500D01*
X111092514Y-64104500D01*
X110907486Y-64104500D01*
X110907484Y-64104500D01*
X110724738Y-64133444D01*
X110724725Y-64133447D01*
X110548767Y-64190619D01*
X110548763Y-64190621D01*
X110383907Y-64274620D01*
X110383901Y-64274623D01*
X110234217Y-64383375D01*
X110103375Y-64514217D01*
X109994623Y-64663901D01*
X109994620Y-64663907D01*
X109910621Y-64828763D01*
X109910619Y-64828767D01*
X109853447Y-65004725D01*
X109853444Y-65004738D01*
X109824500Y-65187484D01*
X107475000Y-65187484D01*
X107475000Y-65163914D01*
X107438681Y-64934605D01*
X107438678Y-64934592D01*
X107366939Y-64713804D01*
X107261533Y-64506932D01*
X107204761Y-64428792D01*
X106601041Y-65032511D01*
X106576022Y-64972110D01*
X106504888Y-64865649D01*
X106414351Y-64775112D01*
X106307890Y-64703978D01*
X106247486Y-64678957D01*
X106851206Y-64075238D01*
X106773068Y-64018466D01*
X106566195Y-63913060D01*
X106345407Y-63841321D01*
X106345394Y-63841318D01*
X106116086Y-63805000D01*
X105883914Y-63805000D01*
X105654605Y-63841318D01*
X105654592Y-63841321D01*
X105433804Y-63913060D01*
X105226933Y-64018466D01*
X105148792Y-64075237D01*
X105148792Y-64075238D01*
X105752512Y-64678958D01*
X105692110Y-64703978D01*
X105585649Y-64775112D01*
X105495112Y-64865649D01*
X105423978Y-64972110D01*
X105398958Y-65032512D01*
X104795238Y-64428792D01*
X104795237Y-64428792D01*
X104738466Y-64506933D01*
X104633060Y-64713804D01*
X104561321Y-64934592D01*
X104561318Y-64934605D01*
X104525000Y-65163914D01*
X102171767Y-65163914D01*
X102146555Y-65004736D01*
X102146553Y-65004731D01*
X102146552Y-65004725D01*
X102089380Y-64828767D01*
X102089378Y-64828763D01*
X102030803Y-64713804D01*
X102005378Y-64663904D01*
X101896621Y-64514213D01*
X101765787Y-64383379D01*
X101765784Y-64383376D01*
X101765782Y-64383375D01*
X101616098Y-64274623D01*
X101616092Y-64274620D01*
X101451236Y-64190621D01*
X101451232Y-64190619D01*
X101399525Y-64173819D01*
X101275274Y-64133447D01*
X101275261Y-64133444D01*
X101092516Y-64104500D01*
X101092514Y-64104500D01*
X100907486Y-64104500D01*
X100907484Y-64104500D01*
X100724738Y-64133444D01*
X100724725Y-64133447D01*
X100548767Y-64190619D01*
X100548763Y-64190621D01*
X100383907Y-64274620D01*
X100383901Y-64274623D01*
X100234217Y-64383375D01*
X100103375Y-64514217D01*
X99994623Y-64663901D01*
X99994620Y-64663907D01*
X99910621Y-64828763D01*
X99910619Y-64828767D01*
X99853447Y-65004725D01*
X99853444Y-65004738D01*
X99824500Y-65187484D01*
X97175500Y-65187484D01*
X97146555Y-65004736D01*
X97146553Y-65004731D01*
X97146552Y-65004725D01*
X97089380Y-64828767D01*
X97089378Y-64828763D01*
X97030803Y-64713804D01*
X97005378Y-64663904D01*
X96896621Y-64514213D01*
X96765787Y-64383379D01*
X96765784Y-64383376D01*
X96765782Y-64383375D01*
X96616098Y-64274623D01*
X96616092Y-64274620D01*
X96451236Y-64190621D01*
X96451232Y-64190619D01*
X96275274Y-64133447D01*
X96275261Y-64133444D01*
X96092516Y-64104500D01*
X96092514Y-64104500D01*
X95907486Y-64104500D01*
X95907484Y-64104500D01*
X95724738Y-64133444D01*
X95724725Y-64133447D01*
X95548767Y-64190619D01*
X95548763Y-64190621D01*
X95383907Y-64274620D01*
X95383901Y-64274623D01*
X95234217Y-64383375D01*
X95103375Y-64514217D01*
X94994623Y-64663901D01*
X94994620Y-64663907D01*
X94910621Y-64828763D01*
X94910619Y-64828767D01*
X94853447Y-65004725D01*
X94853444Y-65004738D01*
X94824500Y-65187484D01*
X92175500Y-65187484D01*
X92146555Y-65004736D01*
X92146553Y-65004731D01*
X92146552Y-65004725D01*
X92089380Y-64828767D01*
X92089378Y-64828763D01*
X92030803Y-64713804D01*
X92005378Y-64663904D01*
X91896621Y-64514213D01*
X91765787Y-64383379D01*
X91765784Y-64383376D01*
X91765782Y-64383375D01*
X91616098Y-64274623D01*
X91616092Y-64274620D01*
X91451236Y-64190621D01*
X91451232Y-64190619D01*
X91275274Y-64133447D01*
X91275261Y-64133444D01*
X91092516Y-64104500D01*
X91092514Y-64104500D01*
X90907486Y-64104500D01*
X90907484Y-64104500D01*
X90724738Y-64133444D01*
X90724725Y-64133447D01*
X90548767Y-64190619D01*
X90548763Y-64190621D01*
X90383907Y-64274620D01*
X90383901Y-64274623D01*
X90234217Y-64383375D01*
X90103375Y-64514217D01*
X89994623Y-64663901D01*
X89994620Y-64663907D01*
X89910621Y-64828763D01*
X89910619Y-64828767D01*
X89853447Y-65004725D01*
X89853444Y-65004738D01*
X89824500Y-65187484D01*
X87175500Y-65187484D01*
X87146555Y-65004736D01*
X87146553Y-65004731D01*
X87146552Y-65004725D01*
X87089380Y-64828767D01*
X87089378Y-64828763D01*
X87030803Y-64713804D01*
X87005378Y-64663904D01*
X86896621Y-64514213D01*
X86765787Y-64383379D01*
X86765784Y-64383376D01*
X86765782Y-64383375D01*
X86616098Y-64274623D01*
X86616092Y-64274620D01*
X86451236Y-64190621D01*
X86451232Y-64190619D01*
X86275274Y-64133447D01*
X86275261Y-64133444D01*
X86092516Y-64104500D01*
X86092514Y-64104500D01*
X85907486Y-64104500D01*
X85907484Y-64104500D01*
X85724738Y-64133444D01*
X85724725Y-64133447D01*
X85548767Y-64190619D01*
X85548763Y-64190621D01*
X85383907Y-64274620D01*
X85383901Y-64274623D01*
X85234217Y-64383375D01*
X85103375Y-64514217D01*
X84994623Y-64663901D01*
X84994620Y-64663907D01*
X84910621Y-64828763D01*
X84910619Y-64828767D01*
X84853447Y-65004725D01*
X84853444Y-65004738D01*
X84824500Y-65187484D01*
X82500500Y-65187484D01*
X82500500Y-60004159D01*
X82500965Y-59995874D01*
X82501982Y-59986842D01*
X82512091Y-59897124D01*
X82515775Y-59880988D01*
X82547212Y-59791143D01*
X82554400Y-59776218D01*
X82605042Y-59695621D01*
X82615366Y-59682675D01*
X82682675Y-59615366D01*
X82695621Y-59605042D01*
X82776219Y-59554399D01*
X82791143Y-59547212D01*
X82880988Y-59515775D01*
X82897124Y-59512091D01*
X82986842Y-59501982D01*
X82995874Y-59500965D01*
X83004159Y-59500500D01*
X83065892Y-59500500D01*
X123934108Y-59500500D01*
X123995841Y-59500500D01*
X124004126Y-59500965D01*
G37*
%TD.AperFunction*%
%TD*%
M02*
