M48
; DRILL file {KiCad 9.0.1} date 2025-06-11T23:13:57+0200
; FORMAT={-:-/ absolute / metric / decimal}
; #@! TF.CreationDate,2025-06-11T23:13:57+02:00
; #@! TF.GenerationSoftware,Kicad,Pcbnew,9.0.1
; #@! TF.FileFunction,Plated,1,2,PTH
FMAT,2
METRIC
; #@! TA.AperFunction,Plated,PTH,ViaDrill
T1C0.300
; #@! TA.AperFunction,Plated,PTH,ComponentDrill
T2C0.750
; #@! TA.AperFunction,Plated,PTH,ComponentDrill
T3C1.300
%
G90
G05
T1
X89.5Y-78.5
X96.0Y-81.0
X102.0Y-77.0
X102.5Y-71.0
X105.5Y-75.0
X117.219Y-74.719
X119.0Y-82.5
X121.2Y-74.0
X123.5Y-82.0
T2
X99.358Y-73.7
X99.358Y-76.9
X99.358Y-79.1
X99.358Y-81.3
X104.438Y-73.7
X104.438Y-76.9
X104.438Y-79.1
X104.438Y-81.3
X109.438Y-73.7
X109.438Y-75.9
X109.438Y-78.1
X109.438Y-81.3
X114.517Y-73.7
X114.517Y-75.9
X114.517Y-78.1
X114.517Y-81.3
T3
X86.0Y-65.28
X91.0Y-65.28
X96.0Y-65.28
X101.0Y-65.28
X106.0Y-65.28
X111.0Y-65.28
X116.0Y-65.28
X121.0Y-65.28
M30
