%TF.GenerationSoftware,KiCad,Pcbnew,9.0.1*%
%TF.CreationDate,2025-06-21T16:27:20+02:00*%
%TF.ProjectId,PUTM_EV_CART_INDICATOR,5055544d-5f45-4565-9f43-4152545f494e,rev?*%
%TF.SameCoordinates,Original*%
%TF.FileFunction,Copper,L2,Bot*%
%TF.FilePolarity,Positive*%
%FSLAX46Y46*%
G04 Gerber Fmt 4.6, Leading zero omitted, Abs format (unit mm)*
G04 Created by KiCad (PCBNEW 9.0.1) date 2025-06-21 16:27:20*
%MOMM*%
%LPD*%
G01*
G04 APERTURE LIST*
%TA.AperFunction,ComponentPad*%
%ADD10C,1.200000*%
%TD*%
%TA.AperFunction,ComponentPad*%
%ADD11C,1.950000*%
%TD*%
%TA.AperFunction,ViaPad*%
%ADD12C,0.600000*%
%TD*%
%TA.AperFunction,Conductor*%
%ADD13C,0.400000*%
%TD*%
G04 APERTURE END LIST*
D10*
%TO.P,K3,1,COIL_1*%
%TO.N,+24V*%
X96420000Y-75700000D03*
%TO.P,K3,2,NC_1*%
%TO.N,unconnected-(K3-NC_1-Pad2)*%
X96420000Y-78900000D03*
%TO.P,K3,3,COM_1*%
%TO.N,+24V*%
X96420000Y-81100000D03*
%TO.P,K3,4,NO_1*%
%TO.N,Net-(K3-NO_1)*%
X96420000Y-83300000D03*
%TO.P,K3,5,NO_2*%
%TO.N,/TSAL_COLUMN*%
X101500000Y-83300000D03*
%TO.P,K3,6,COM_2*%
%TO.N,+24V*%
X101500000Y-81100000D03*
%TO.P,K3,7,NC_2*%
%TO.N,unconnected-(K3-NC_2-Pad7)*%
X101500000Y-78900000D03*
%TO.P,K3,8,COIL_2*%
%TO.N,Net-(D2-A)*%
X101500000Y-75700000D03*
%TD*%
%TO.P,K4,1,COIL_1*%
%TO.N,+24V*%
X106420000Y-75700000D03*
%TO.P,K4,2,NC_1*%
%TO.N,/IMD_COLUMN*%
X106420000Y-78900000D03*
%TO.P,K4,3,COM_1*%
%TO.N,+24V*%
X106420000Y-81100000D03*
%TO.P,K4,4,NO_1*%
%TO.N,unconnected-(K4-NO_1-Pad4)*%
X106420000Y-83300000D03*
%TO.P,K4,5,NO_2*%
%TO.N,unconnected-(K4-NO_2-Pad5)*%
X111500000Y-83300000D03*
%TO.P,K4,6,COM_2*%
%TO.N,+24V*%
X111500000Y-81100000D03*
%TO.P,K4,7,NC_2*%
%TO.N,Net-(K4-NC_2)*%
X111500000Y-78900000D03*
%TO.P,K4,8,COIL_2*%
%TO.N,Net-(D1-A)*%
X111500000Y-75700000D03*
%TD*%
D11*
%TO.P,J1,1,Pin_1*%
%TO.N,/TSAL_COLUMN*%
X86000000Y-65000000D03*
%TO.P,J1,2,Pin_2*%
%TO.N,/TSAL_LED*%
X91000000Y-65000000D03*
%TO.P,J1,3,Pin_3*%
%TO.N,/TSAL_GREEN*%
X96000000Y-65000000D03*
%TO.P,J1,4,Pin_4*%
%TO.N,+24V*%
X101000000Y-65000000D03*
%TO.P,J1,5,Pin_5*%
%TO.N,GND*%
X106000000Y-65000000D03*
%TO.P,J1,6,Pin_6*%
%TO.N,/IMD*%
X111000000Y-65000000D03*
%TO.P,J1,7,Pin_7*%
%TO.N,/IMD_LED*%
X116000000Y-65000000D03*
%TO.P,J1,8,Pin_8*%
%TO.N,/IMD_COLUMN*%
X121000000Y-65000000D03*
%TD*%
D12*
%TO.N,GND*%
X109000000Y-82500000D03*
X110000000Y-77000000D03*
X117500000Y-80000000D03*
X100000000Y-78500000D03*
%TO.N,Net-(D1-A)*%
X116000000Y-78000000D03*
%TD*%
D13*
%TO.N,+24V*%
X108061593Y-77341593D02*
X106420000Y-75700000D01*
X100540000Y-81100000D02*
X101500000Y-81100000D01*
X110254730Y-80774730D02*
X108938406Y-79458406D01*
X111040000Y-81100000D02*
X111500000Y-81100000D01*
X98537401Y-80057401D02*
X98901177Y-80421177D01*
X108061593Y-79458406D02*
X106420000Y-81100000D01*
X96674558Y-76674558D02*
X97462598Y-77462598D01*
X96420000Y-76060000D02*
X96420000Y-75700000D01*
X97462598Y-80057401D02*
X96420000Y-81100000D01*
X108061593Y-79458406D02*
G75*
G03*
X108500003Y-78400000I-1058393J1058406D01*
G01*
X97462598Y-77462598D02*
G75*
G02*
X98000001Y-78760000I-1297398J-1297402D01*
G01*
X98537401Y-80057401D02*
G75*
G03*
X97462599Y-80057401I-537401J-537401D01*
G01*
X108500000Y-78400000D02*
G75*
G03*
X108938409Y-79458403I1496800J0D01*
G01*
X98901177Y-80421177D02*
G75*
G03*
X100540000Y-81099984I1638823J1638877D01*
G01*
X108938406Y-79458406D02*
G75*
G03*
X108061592Y-79458405I-438407J-438406D01*
G01*
X97462598Y-80057401D02*
G75*
G03*
X98000000Y-78760000I-1297398J1297401D01*
G01*
X108061593Y-77341593D02*
G75*
G02*
X108500004Y-78400000I-1058393J-1058407D01*
G01*
X98000000Y-78760000D02*
G75*
G03*
X98537401Y-80057401I1834800J0D01*
G01*
X110254730Y-80774730D02*
G75*
G03*
X111040000Y-81100011I785270J785230D01*
G01*
X96420000Y-76060000D02*
G75*
G03*
X96674561Y-76674555I869100J0D01*
G01*
%TO.N,/TSAL_COLUMN*%
X103000000Y-76974873D02*
X103000000Y-81080761D01*
X89609309Y-68609309D02*
X86000000Y-65000000D01*
X101600000Y-83300000D02*
X101500000Y-83300000D01*
X101770710Y-83229289D02*
X102350000Y-82650000D01*
X95380947Y-71000000D02*
X97025126Y-71000000D01*
X89609309Y-68609309D02*
G75*
G03*
X95380947Y-71000046I5771691J5771609D01*
G01*
X101770710Y-83229289D02*
G75*
G02*
X101600000Y-83300006I-170710J170689D01*
G01*
X101250000Y-72750000D02*
G75*
G02*
X103000011Y-76974873I-4224900J-4224900D01*
G01*
X101250000Y-72750000D02*
G75*
G03*
X97025126Y-70999989I-4224900J-4224900D01*
G01*
X103000000Y-81080761D02*
G75*
G02*
X102350011Y-82650011I-2219200J-39D01*
G01*
%TO.N,/IMD_COLUMN*%
X105710000Y-77710000D02*
X106250294Y-78250294D01*
X105000000Y-75500000D02*
X105000000Y-75995908D01*
X106420000Y-78660000D02*
X106420000Y-78900000D01*
X118390690Y-67609309D02*
X121000000Y-65000000D01*
X111828427Y-70000000D02*
X112619052Y-70000000D01*
X106060660Y-72939339D02*
X107000000Y-72000000D01*
X106250294Y-78250294D02*
G75*
G02*
X106420003Y-78660000I-409694J-409706D01*
G01*
X106060660Y-72939339D02*
G75*
G03*
X104999993Y-75500000I2560640J-2560661D01*
G01*
X111828427Y-70000000D02*
G75*
G03*
X106999992Y-71999992I-27J-6828400D01*
G01*
X118390690Y-67609309D02*
G75*
G02*
X112619052Y-70000045I-5771690J5771609D01*
G01*
X105000000Y-75995908D02*
G75*
G03*
X105710002Y-77709998I2424100J8D01*
G01*
%TO.N,Net-(D1-A)*%
X116000000Y-78000000D02*
X115500000Y-78000000D01*
X113124264Y-76124264D02*
X114646446Y-77646446D01*
X112100000Y-75700000D02*
X111500000Y-75700000D01*
X114646446Y-77646446D02*
G75*
G03*
X115500000Y-78000002I853554J853546D01*
G01*
X113124264Y-76124264D02*
G75*
G03*
X112100000Y-75699992I-1024264J-1024236D01*
G01*
%TD*%
%TA.AperFunction,Conductor*%
%TO.N,GND*%
G36*
X124004126Y-59500965D02*
G01*
X124014292Y-59502110D01*
X124102873Y-59512091D01*
X124119013Y-59515775D01*
X124208852Y-59547211D01*
X124223781Y-59554400D01*
X124304372Y-59605038D01*
X124317328Y-59615370D01*
X124384629Y-59682671D01*
X124394961Y-59695627D01*
X124445599Y-59776218D01*
X124452788Y-59791147D01*
X124484222Y-59880980D01*
X124487909Y-59897131D01*
X124499035Y-59995873D01*
X124499500Y-60004159D01*
X124499500Y-84995840D01*
X124499035Y-85004126D01*
X124487909Y-85102868D01*
X124484221Y-85119023D01*
X124452788Y-85208852D01*
X124445599Y-85223781D01*
X124394961Y-85304372D01*
X124384629Y-85317328D01*
X124317328Y-85384629D01*
X124304372Y-85394961D01*
X124223781Y-85445599D01*
X124208852Y-85452788D01*
X124135258Y-85478539D01*
X124119021Y-85484221D01*
X124102868Y-85487909D01*
X124004127Y-85499035D01*
X123995841Y-85499500D01*
X83484646Y-85499500D01*
X83484630Y-85499499D01*
X83417433Y-85499499D01*
X83410984Y-85499217D01*
X83261998Y-85486184D01*
X83249295Y-85483945D01*
X83107954Y-85446074D01*
X83095833Y-85441662D01*
X82963219Y-85379824D01*
X82952047Y-85373374D01*
X82832189Y-85289448D01*
X82822308Y-85281157D01*
X82718842Y-85177691D01*
X82710551Y-85167810D01*
X82676390Y-85119023D01*
X82626622Y-85047947D01*
X82620175Y-85036780D01*
X82604948Y-85004126D01*
X82558337Y-84904166D01*
X82553925Y-84892045D01*
X82516054Y-84750704D01*
X82513815Y-84738001D01*
X82511477Y-84711279D01*
X82500781Y-84589014D01*
X82500500Y-84582566D01*
X82500501Y-84519899D01*
X82500500Y-84519895D01*
X82500500Y-83221159D01*
X95619500Y-83221159D01*
X95619500Y-83378840D01*
X95650261Y-83533491D01*
X95650264Y-83533501D01*
X95710603Y-83679174D01*
X95710605Y-83679177D01*
X95710606Y-83679179D01*
X95798211Y-83810289D01*
X95909711Y-83921789D01*
X96040821Y-84009394D01*
X96040826Y-84009396D01*
X96040825Y-84009396D01*
X96186498Y-84069735D01*
X96186503Y-84069737D01*
X96341158Y-84100500D01*
X96341160Y-84100500D01*
X96498840Y-84100500D01*
X96498842Y-84100500D01*
X96653497Y-84069737D01*
X96799179Y-84009394D01*
X96930289Y-83921789D01*
X97041789Y-83810289D01*
X97129394Y-83679179D01*
X97189737Y-83533497D01*
X97220500Y-83378842D01*
X97220500Y-83221158D01*
X97189737Y-83066503D01*
X97129394Y-82920821D01*
X97041789Y-82789711D01*
X96930289Y-82678211D01*
X96799179Y-82590606D01*
X96799175Y-82590604D01*
X96799173Y-82590603D01*
X96799174Y-82590603D01*
X96653501Y-82530264D01*
X96653491Y-82530261D01*
X96547758Y-82509230D01*
X96498842Y-82499500D01*
X96341158Y-82499500D01*
X96297315Y-82508220D01*
X96186508Y-82530261D01*
X96186498Y-82530264D01*
X96040825Y-82590603D01*
X95909711Y-82678210D01*
X95909710Y-82678212D01*
X95798212Y-82789710D01*
X95798210Y-82789711D01*
X95710603Y-82920825D01*
X95650264Y-83066498D01*
X95650261Y-83066508D01*
X95619500Y-83221159D01*
X82500500Y-83221159D01*
X82500500Y-79893711D01*
X83649500Y-79893711D01*
X83649500Y-80106288D01*
X83682753Y-80316240D01*
X83682756Y-80316253D01*
X83748440Y-80518406D01*
X83844948Y-80707816D01*
X83920879Y-80812326D01*
X83969896Y-80879792D01*
X84120208Y-81030104D01*
X84189942Y-81080768D01*
X84292183Y-81155051D01*
X84383474Y-81201565D01*
X84481588Y-81251557D01*
X84481590Y-81251557D01*
X84481593Y-81251559D01*
X84683746Y-81317243D01*
X84683752Y-81317244D01*
X84683757Y-81317246D01*
X84786323Y-81333491D01*
X84893711Y-81350500D01*
X84893713Y-81350500D01*
X85106289Y-81350500D01*
X85190269Y-81337198D01*
X85316243Y-81317246D01*
X85316250Y-81317243D01*
X85316253Y-81317243D01*
X85518406Y-81251559D01*
X85518406Y-81251558D01*
X85518412Y-81251557D01*
X85707816Y-81155051D01*
X85879792Y-81030104D01*
X86030104Y-80879792D01*
X86155051Y-80707816D01*
X86251557Y-80518412D01*
X86264619Y-80478211D01*
X86317243Y-80316253D01*
X86317243Y-80316250D01*
X86317246Y-80316243D01*
X86350500Y-80106287D01*
X86350500Y-79893713D01*
X86317246Y-79683757D01*
X86317244Y-79683752D01*
X86317243Y-79683746D01*
X86251559Y-79481593D01*
X86251557Y-79481590D01*
X86251557Y-79481588D01*
X86165776Y-79313233D01*
X86155051Y-79292183D01*
X86099451Y-79215656D01*
X86030104Y-79120208D01*
X85879792Y-78969896D01*
X85787278Y-78902681D01*
X85752470Y-78877391D01*
X85752469Y-78877391D01*
X85707816Y-78844949D01*
X85707813Y-78844947D01*
X85707811Y-78844946D01*
X85661126Y-78821159D01*
X95619500Y-78821159D01*
X95619500Y-78978840D01*
X95650261Y-79133491D01*
X95650264Y-79133501D01*
X95710603Y-79279174D01*
X95710605Y-79279177D01*
X95710606Y-79279179D01*
X95798211Y-79410289D01*
X95909711Y-79521789D01*
X96040821Y-79609394D01*
X96040826Y-79609396D01*
X96040825Y-79609396D01*
X96186498Y-79669735D01*
X96186503Y-79669737D01*
X96341158Y-79700500D01*
X96341160Y-79700500D01*
X96498840Y-79700500D01*
X96498842Y-79700500D01*
X96653497Y-79669737D01*
X96799179Y-79609394D01*
X96930289Y-79521789D01*
X97041789Y-79410289D01*
X97129394Y-79279179D01*
X97189737Y-79133497D01*
X97220500Y-78978842D01*
X97220500Y-78821158D01*
X97189737Y-78666503D01*
X97152733Y-78577166D01*
X97129396Y-78520825D01*
X97129395Y-78520823D01*
X97129394Y-78520821D01*
X97041789Y-78389711D01*
X96930289Y-78278211D01*
X96799179Y-78190606D01*
X96799175Y-78190604D01*
X96799173Y-78190603D01*
X96799174Y-78190603D01*
X96653501Y-78130264D01*
X96653491Y-78130261D01*
X96549925Y-78109661D01*
X96498842Y-78099500D01*
X96341158Y-78099500D01*
X96297315Y-78108220D01*
X96186508Y-78130261D01*
X96186498Y-78130264D01*
X96040825Y-78190603D01*
X95909711Y-78278210D01*
X95909710Y-78278212D01*
X95798212Y-78389710D01*
X95798210Y-78389711D01*
X95710603Y-78520825D01*
X95650264Y-78666498D01*
X95650261Y-78666508D01*
X95619500Y-78821159D01*
X85661126Y-78821159D01*
X85518406Y-78748440D01*
X85316253Y-78682756D01*
X85316240Y-78682753D01*
X85106289Y-78649500D01*
X85106287Y-78649500D01*
X84893713Y-78649500D01*
X84893711Y-78649500D01*
X84683759Y-78682753D01*
X84683746Y-78682756D01*
X84481593Y-78748440D01*
X84292183Y-78844948D01*
X84120212Y-78969893D01*
X84120208Y-78969896D01*
X83969896Y-79120208D01*
X83969893Y-79120211D01*
X83969893Y-79120212D01*
X83844948Y-79292183D01*
X83748440Y-79481593D01*
X83682756Y-79683746D01*
X83682753Y-79683759D01*
X83649500Y-79893711D01*
X82500500Y-79893711D01*
X82500500Y-75621158D01*
X95619500Y-75621158D01*
X95619500Y-75778842D01*
X95627591Y-75819519D01*
X95650261Y-75933491D01*
X95650264Y-75933501D01*
X95710604Y-76079176D01*
X95728351Y-76105737D01*
X95756148Y-76147337D01*
X95769359Y-76172493D01*
X95790084Y-76198127D01*
X95791956Y-76200928D01*
X95791956Y-76200929D01*
X95798207Y-76210284D01*
X95798213Y-76210291D01*
X95804363Y-76216441D01*
X95809581Y-76222241D01*
X96175919Y-76675339D01*
X96184309Y-76688269D01*
X96203243Y-76725427D01*
X96320710Y-76887103D01*
X96354076Y-76920468D01*
X96354078Y-76920471D01*
X96382230Y-76948623D01*
X96403814Y-76970207D01*
X96455948Y-77022341D01*
X96461166Y-77028141D01*
X96473560Y-77043470D01*
X96480590Y-77051712D01*
X96481415Y-77052629D01*
X96492723Y-77060624D01*
X96502327Y-77068720D01*
X97177688Y-77744081D01*
X97180998Y-77747615D01*
X97299908Y-77883205D01*
X97305799Y-77890882D01*
X97334679Y-77934105D01*
X97404645Y-78038818D01*
X97409484Y-78047200D01*
X97488173Y-78206763D01*
X97491878Y-78215706D01*
X97545269Y-78372992D01*
X97549068Y-78384181D01*
X97551573Y-78393532D01*
X97586281Y-78568025D01*
X97587545Y-78577621D01*
X97599182Y-78755160D01*
X97599182Y-78764840D01*
X97587545Y-78942378D01*
X97586281Y-78951974D01*
X97551573Y-79126467D01*
X97549068Y-79135818D01*
X97491879Y-79304290D01*
X97488175Y-79313232D01*
X97409485Y-79472801D01*
X97404645Y-79481184D01*
X97305801Y-79629114D01*
X97299908Y-79636794D01*
X97180998Y-79772382D01*
X97177688Y-79775916D01*
X97021651Y-79931953D01*
X97000681Y-79946655D01*
X96137128Y-80350630D01*
X96137129Y-80350631D01*
X96135598Y-80351347D01*
X96040821Y-80390606D01*
X96015465Y-80407547D01*
X96011887Y-80409222D01*
X96011620Y-80409359D01*
X96011578Y-80409379D01*
X95998138Y-80416294D01*
X95996589Y-80417167D01*
X95993323Y-80419046D01*
X95993320Y-80419048D01*
X95985797Y-80426138D01*
X95976162Y-80433808D01*
X95909716Y-80478206D01*
X95909713Y-80478209D01*
X95798211Y-80589710D01*
X95798210Y-80589711D01*
X95710603Y-80720825D01*
X95650264Y-80866498D01*
X95650261Y-80866508D01*
X95624580Y-80995616D01*
X95619500Y-81021158D01*
X95619500Y-81178842D01*
X95622937Y-81196122D01*
X95650261Y-81333491D01*
X95650264Y-81333501D01*
X95710603Y-81479174D01*
X95710605Y-81479177D01*
X95710606Y-81479179D01*
X95798211Y-81610289D01*
X95909711Y-81721789D01*
X96040821Y-81809394D01*
X96040826Y-81809396D01*
X96040825Y-81809396D01*
X96186496Y-81869734D01*
X96186503Y-81869737D01*
X96341158Y-81900500D01*
X96341160Y-81900500D01*
X96498840Y-81900500D01*
X96498842Y-81900500D01*
X96653497Y-81869737D01*
X96799179Y-81809394D01*
X96930289Y-81721789D01*
X97041789Y-81610289D01*
X97102946Y-81518759D01*
X97110783Y-81508101D01*
X97112450Y-81504537D01*
X97129394Y-81479179D01*
X97168051Y-81385848D01*
X97169347Y-81382909D01*
X97573343Y-80519312D01*
X97588045Y-80498345D01*
X97652583Y-80433808D01*
X97717941Y-80368450D01*
X97742377Y-80344014D01*
X97749632Y-80337652D01*
X97812525Y-80289393D01*
X97829246Y-80279739D01*
X97897955Y-80251279D01*
X97916608Y-80246280D01*
X97990346Y-80236573D01*
X98009654Y-80236573D01*
X98083390Y-80246280D01*
X98102043Y-80251279D01*
X98170753Y-80279739D01*
X98187475Y-80289394D01*
X98240735Y-80330261D01*
X98250349Y-80337638D01*
X98257627Y-80344020D01*
X98596300Y-80682693D01*
X98596316Y-80682732D01*
X98725918Y-80812331D01*
X98964592Y-81002660D01*
X98964606Y-81002671D01*
X99223109Y-81165095D01*
X99498172Y-81297555D01*
X99786335Y-81398386D01*
X100083977Y-81466319D01*
X100284611Y-81488923D01*
X100302878Y-81493386D01*
X101107709Y-81802816D01*
X101117503Y-81807891D01*
X101117616Y-81807681D01*
X101120817Y-81809391D01*
X101120821Y-81809394D01*
X101266503Y-81869737D01*
X101298791Y-81876159D01*
X101312779Y-81880867D01*
X101314676Y-81881417D01*
X101320230Y-81882943D01*
X101335122Y-81883386D01*
X101421158Y-81900500D01*
X101421160Y-81900500D01*
X101578840Y-81900500D01*
X101578842Y-81900500D01*
X101733497Y-81869737D01*
X101879179Y-81809394D01*
X102010289Y-81721789D01*
X102121789Y-81610289D01*
X102209394Y-81479179D01*
X102269737Y-81333497D01*
X102300500Y-81178842D01*
X102300500Y-81021158D01*
X102269737Y-80866503D01*
X102269735Y-80866498D01*
X102209396Y-80720825D01*
X102209395Y-80720823D01*
X102209394Y-80720821D01*
X102121789Y-80589711D01*
X102010289Y-80478211D01*
X102010286Y-80478209D01*
X101977842Y-80456530D01*
X101879179Y-80390606D01*
X101879175Y-80390604D01*
X101879173Y-80390603D01*
X101879174Y-80390603D01*
X101733501Y-80330264D01*
X101733491Y-80330261D01*
X101611670Y-80306030D01*
X101578842Y-80299500D01*
X101421158Y-80299500D01*
X101388330Y-80306030D01*
X101266508Y-80330261D01*
X101266498Y-80330264D01*
X101120821Y-80390605D01*
X101120814Y-80390609D01*
X101110323Y-80397619D01*
X101096725Y-80404784D01*
X100401603Y-80683162D01*
X100369253Y-80688308D01*
X100294595Y-80683415D01*
X100284998Y-80682151D01*
X100048561Y-80635122D01*
X100039211Y-80632617D01*
X99810928Y-80555127D01*
X99801985Y-80551423D01*
X99585763Y-80444796D01*
X99577381Y-80439956D01*
X99376940Y-80306030D01*
X99369260Y-80300138D01*
X99186363Y-80139746D01*
X99182828Y-80136435D01*
X98822312Y-79775919D01*
X98819014Y-79772398D01*
X98700087Y-79636788D01*
X98694199Y-79629114D01*
X98595349Y-79481175D01*
X98590519Y-79472810D01*
X98511824Y-79313230D01*
X98508121Y-79304291D01*
X98464302Y-79175206D01*
X98450930Y-79135813D01*
X98448426Y-79126465D01*
X98447181Y-79120208D01*
X98413717Y-78951974D01*
X98412454Y-78942378D01*
X98404588Y-78822363D01*
X98404509Y-78821159D01*
X100699500Y-78821159D01*
X100699500Y-78978840D01*
X100730261Y-79133491D01*
X100730264Y-79133501D01*
X100790603Y-79279174D01*
X100790605Y-79279177D01*
X100790606Y-79279179D01*
X100878211Y-79410289D01*
X100989711Y-79521789D01*
X101120821Y-79609394D01*
X101120826Y-79609396D01*
X101120825Y-79609396D01*
X101266498Y-79669735D01*
X101266503Y-79669737D01*
X101421158Y-79700500D01*
X101421160Y-79700500D01*
X101578840Y-79700500D01*
X101578842Y-79700500D01*
X101733497Y-79669737D01*
X101879179Y-79609394D01*
X102010289Y-79521789D01*
X102121789Y-79410289D01*
X102209394Y-79279179D01*
X102269737Y-79133497D01*
X102300500Y-78978842D01*
X102300500Y-78821158D01*
X102269737Y-78666503D01*
X102232733Y-78577166D01*
X102209396Y-78520825D01*
X102209395Y-78520823D01*
X102209394Y-78520821D01*
X102121789Y-78389711D01*
X102010289Y-78278211D01*
X101879179Y-78190606D01*
X101879175Y-78190604D01*
X101879173Y-78190603D01*
X101879174Y-78190603D01*
X101733501Y-78130264D01*
X101733491Y-78130261D01*
X101629925Y-78109661D01*
X101578842Y-78099500D01*
X101421158Y-78099500D01*
X101377315Y-78108220D01*
X101266508Y-78130261D01*
X101266498Y-78130264D01*
X101120825Y-78190603D01*
X100989711Y-78278210D01*
X100989710Y-78278212D01*
X100878212Y-78389710D01*
X100878210Y-78389711D01*
X100790603Y-78520825D01*
X100730264Y-78666498D01*
X100730261Y-78666508D01*
X100699500Y-78821159D01*
X98404509Y-78821159D01*
X98400658Y-78762410D01*
X98400500Y-78757570D01*
X98400500Y-78634471D01*
X98394095Y-78577621D01*
X98372390Y-78384983D01*
X98348019Y-78278210D01*
X98316523Y-78140217D01*
X98316519Y-78140205D01*
X98313040Y-78130264D01*
X98233601Y-77903238D01*
X98126356Y-77680544D01*
X98124670Y-77677042D01*
X98124669Y-77677041D01*
X98124668Y-77677038D01*
X97991094Y-77464456D01*
X97834558Y-77268166D01*
X97785666Y-77219274D01*
X97785662Y-77219269D01*
X97162929Y-76596536D01*
X97141255Y-76544210D01*
X97141637Y-76536701D01*
X97141849Y-76534625D01*
X97211831Y-75848481D01*
X97211172Y-75839194D01*
X97212408Y-75819519D01*
X97215539Y-75803784D01*
X97220500Y-75778842D01*
X97220500Y-75621158D01*
X97189737Y-75466503D01*
X97186929Y-75459723D01*
X97129396Y-75320825D01*
X97129395Y-75320823D01*
X97129394Y-75320821D01*
X97041789Y-75189711D01*
X96930289Y-75078211D01*
X96799179Y-74990606D01*
X96799175Y-74990604D01*
X96799173Y-74990603D01*
X96799174Y-74990603D01*
X96653501Y-74930264D01*
X96653491Y-74930261D01*
X96549925Y-74909661D01*
X96498842Y-74899500D01*
X96341158Y-74899500D01*
X96297315Y-74908220D01*
X96186508Y-74930261D01*
X96186498Y-74930264D01*
X96040825Y-74990603D01*
X95909711Y-75078210D01*
X95909710Y-75078212D01*
X95798212Y-75189710D01*
X95798210Y-75189711D01*
X95710603Y-75320825D01*
X95650264Y-75466498D01*
X95650261Y-75466508D01*
X95624580Y-75595616D01*
X95619500Y-75621158D01*
X82500500Y-75621158D01*
X82500500Y-73893711D01*
X83649500Y-73893711D01*
X83649500Y-74106288D01*
X83682753Y-74316240D01*
X83682756Y-74316253D01*
X83748440Y-74518406D01*
X83844948Y-74707816D01*
X83921475Y-74813146D01*
X83969896Y-74879792D01*
X84120208Y-75030104D01*
X84215656Y-75099451D01*
X84292183Y-75155051D01*
X84360206Y-75189710D01*
X84481588Y-75251557D01*
X84481590Y-75251557D01*
X84481593Y-75251559D01*
X84683746Y-75317243D01*
X84683752Y-75317244D01*
X84683757Y-75317246D01*
X84788735Y-75333873D01*
X84893711Y-75350500D01*
X84893713Y-75350500D01*
X85106289Y-75350500D01*
X85190269Y-75337198D01*
X85316243Y-75317246D01*
X85316250Y-75317243D01*
X85316253Y-75317243D01*
X85518406Y-75251559D01*
X85518406Y-75251558D01*
X85518412Y-75251557D01*
X85707816Y-75155051D01*
X85879792Y-75030104D01*
X86030104Y-74879792D01*
X86155051Y-74707816D01*
X86251557Y-74518412D01*
X86274825Y-74446800D01*
X86317243Y-74316253D01*
X86317243Y-74316250D01*
X86317246Y-74316243D01*
X86350500Y-74106287D01*
X86350500Y-73893713D01*
X86317246Y-73683757D01*
X86317244Y-73683752D01*
X86317243Y-73683746D01*
X86251559Y-73481593D01*
X86251557Y-73481590D01*
X86251557Y-73481588D01*
X86177896Y-73337019D01*
X86155051Y-73292183D01*
X86099451Y-73215656D01*
X86030104Y-73120208D01*
X85879792Y-72969896D01*
X85813146Y-72921475D01*
X85707816Y-72844948D01*
X85518406Y-72748440D01*
X85316253Y-72682756D01*
X85316240Y-72682753D01*
X85106289Y-72649500D01*
X85106287Y-72649500D01*
X84893713Y-72649500D01*
X84893711Y-72649500D01*
X84683759Y-72682753D01*
X84683746Y-72682756D01*
X84481593Y-72748440D01*
X84292183Y-72844948D01*
X84120212Y-72969893D01*
X84120208Y-72969896D01*
X83969896Y-73120208D01*
X83969893Y-73120211D01*
X83969893Y-73120212D01*
X83844948Y-73292183D01*
X83748440Y-73481593D01*
X83682756Y-73683746D01*
X83682753Y-73683759D01*
X83649500Y-73893711D01*
X82500500Y-73893711D01*
X82500500Y-64907484D01*
X84824500Y-64907484D01*
X84824500Y-65092515D01*
X84853444Y-65275261D01*
X84853447Y-65275274D01*
X84910619Y-65451232D01*
X84910621Y-65451236D01*
X84994620Y-65616092D01*
X84994623Y-65616098D01*
X85032514Y-65668250D01*
X85103379Y-65765787D01*
X85234213Y-65896621D01*
X85383904Y-66005378D01*
X85494201Y-66061577D01*
X85548763Y-66089378D01*
X85548767Y-66089380D01*
X85724736Y-66146555D01*
X85729327Y-66147282D01*
X85744610Y-66151416D01*
X87106493Y-66681730D01*
X87131968Y-66698360D01*
X89366621Y-68933013D01*
X89367134Y-68933462D01*
X89524356Y-69090687D01*
X89945861Y-69460342D01*
X90390640Y-69801637D01*
X90856788Y-70113112D01*
X90986962Y-70188269D01*
X91342306Y-70393431D01*
X91342328Y-70393442D01*
X91845111Y-70641392D01*
X91845117Y-70641395D01*
X91845122Y-70641397D01*
X91845126Y-70641399D01*
X92363083Y-70855948D01*
X92893964Y-71036161D01*
X93435494Y-71181268D01*
X93435503Y-71181269D01*
X93435508Y-71181271D01*
X93551292Y-71204302D01*
X93985355Y-71290646D01*
X94541193Y-71363827D01*
X95100627Y-71400498D01*
X95319603Y-71400498D01*
X95319609Y-71400500D01*
X95328220Y-71400500D01*
X95380944Y-71400500D01*
X95438528Y-71400500D01*
X97023669Y-71400500D01*
X97026574Y-71400557D01*
X97037737Y-71400995D01*
X97459600Y-71417572D01*
X97465351Y-71418025D01*
X97894263Y-71468791D01*
X97899995Y-71469699D01*
X98323588Y-71553958D01*
X98329215Y-71555309D01*
X98744911Y-71672549D01*
X98750424Y-71674341D01*
X99155616Y-71823825D01*
X99160969Y-71826042D01*
X99553202Y-72006865D01*
X99558364Y-72009495D01*
X99786116Y-72137042D01*
X99935186Y-72220526D01*
X99940140Y-72223562D01*
X100299240Y-72463506D01*
X100303941Y-72466922D01*
X100643099Y-72734293D01*
X100647517Y-72738066D01*
X100964759Y-73031321D01*
X100968857Y-73035419D01*
X101047231Y-73120203D01*
X101261941Y-73352475D01*
X101265714Y-73356893D01*
X101533085Y-73696052D01*
X101536501Y-73700753D01*
X101776445Y-74059853D01*
X101779481Y-74064807D01*
X101990509Y-74441623D01*
X101993147Y-74446800D01*
X102173963Y-74839019D01*
X102176186Y-74844387D01*
X102311297Y-75210618D01*
X102309074Y-75267212D01*
X102267484Y-75305657D01*
X102210890Y-75303434D01*
X102180344Y-75277344D01*
X102121789Y-75189711D01*
X102010289Y-75078211D01*
X101879179Y-74990606D01*
X101879175Y-74990604D01*
X101879173Y-74990603D01*
X101879174Y-74990603D01*
X101733501Y-74930264D01*
X101733491Y-74930261D01*
X101629925Y-74909661D01*
X101578842Y-74899500D01*
X101421158Y-74899500D01*
X101377315Y-74908220D01*
X101266508Y-74930261D01*
X101266498Y-74930264D01*
X101120825Y-74990603D01*
X100989711Y-75078210D01*
X100989710Y-75078212D01*
X100878212Y-75189710D01*
X100878210Y-75189711D01*
X100790603Y-75320825D01*
X100730264Y-75466498D01*
X100730261Y-75466508D01*
X100704580Y-75595616D01*
X100699500Y-75621158D01*
X100699500Y-75778842D01*
X100707591Y-75819519D01*
X100730261Y-75933491D01*
X100730264Y-75933501D01*
X100790603Y-76079174D01*
X100790605Y-76079177D01*
X100790606Y-76079179D01*
X100808352Y-76105737D01*
X100878207Y-76210284D01*
X100878211Y-76210289D01*
X100989711Y-76321789D01*
X101120821Y-76409394D01*
X101120826Y-76409396D01*
X101120825Y-76409396D01*
X101248051Y-76462094D01*
X101266503Y-76469737D01*
X101421158Y-76500500D01*
X101421160Y-76500500D01*
X101578840Y-76500500D01*
X101578842Y-76500500D01*
X101733497Y-76469737D01*
X101879179Y-76409394D01*
X102010289Y-76321789D01*
X102121789Y-76210289D01*
X102209394Y-76079179D01*
X102269737Y-75933497D01*
X102300500Y-75778842D01*
X102300500Y-75696013D01*
X102322174Y-75643687D01*
X102374500Y-75622013D01*
X102426826Y-75643687D01*
X102447078Y-75681576D01*
X102530309Y-76099998D01*
X102531218Y-76105737D01*
X102581982Y-76534625D01*
X102582438Y-76540417D01*
X102599443Y-76973169D01*
X102599500Y-76976075D01*
X102599500Y-81023181D01*
X102599499Y-81023185D01*
X102599499Y-81045264D01*
X102599499Y-81061822D01*
X102599499Y-81078340D01*
X102599341Y-81083179D01*
X102584260Y-81313327D01*
X102582996Y-81322924D01*
X102538481Y-81546735D01*
X102535976Y-81556085D01*
X102462625Y-81772177D01*
X102458921Y-81781120D01*
X102357990Y-81985791D01*
X102353150Y-81994174D01*
X102226370Y-82183916D01*
X102220477Y-82191596D01*
X102119773Y-82306426D01*
X102081677Y-82329525D01*
X101345115Y-82509230D01*
X101345102Y-82509234D01*
X101331532Y-82515370D01*
X101315485Y-82520519D01*
X101266506Y-82530262D01*
X101266500Y-82530263D01*
X101120825Y-82590603D01*
X100989711Y-82678210D01*
X100989710Y-82678212D01*
X100878212Y-82789710D01*
X100878210Y-82789711D01*
X100790603Y-82920825D01*
X100730264Y-83066498D01*
X100730261Y-83066508D01*
X100699500Y-83221159D01*
X100699500Y-83378840D01*
X100730261Y-83533491D01*
X100730264Y-83533501D01*
X100790603Y-83679174D01*
X100790605Y-83679177D01*
X100790606Y-83679179D01*
X100878211Y-83810289D01*
X100989711Y-83921789D01*
X101120821Y-84009394D01*
X101120826Y-84009396D01*
X101120825Y-84009396D01*
X101266498Y-84069735D01*
X101266503Y-84069737D01*
X101421158Y-84100500D01*
X101421160Y-84100500D01*
X101578840Y-84100500D01*
X101578842Y-84100500D01*
X101733497Y-84069737D01*
X101879179Y-84009394D01*
X102010289Y-83921789D01*
X102121789Y-83810289D01*
X102160651Y-83752125D01*
X102166851Y-83744099D01*
X102182449Y-83726544D01*
X102478587Y-83221159D01*
X105619500Y-83221159D01*
X105619500Y-83378840D01*
X105650261Y-83533491D01*
X105650264Y-83533501D01*
X105710603Y-83679174D01*
X105710605Y-83679177D01*
X105710606Y-83679179D01*
X105798211Y-83810289D01*
X105909711Y-83921789D01*
X106040821Y-84009394D01*
X106040826Y-84009396D01*
X106040825Y-84009396D01*
X106186498Y-84069735D01*
X106186503Y-84069737D01*
X106341158Y-84100500D01*
X106341160Y-84100500D01*
X106498840Y-84100500D01*
X106498842Y-84100500D01*
X106653497Y-84069737D01*
X106799179Y-84009394D01*
X106930289Y-83921789D01*
X107041789Y-83810289D01*
X107129394Y-83679179D01*
X107189737Y-83533497D01*
X107220500Y-83378842D01*
X107220500Y-83221159D01*
X110699500Y-83221159D01*
X110699500Y-83378840D01*
X110730261Y-83533491D01*
X110730264Y-83533501D01*
X110790603Y-83679174D01*
X110790605Y-83679177D01*
X110790606Y-83679179D01*
X110878211Y-83810289D01*
X110989711Y-83921789D01*
X111120821Y-84009394D01*
X111120826Y-84009396D01*
X111120825Y-84009396D01*
X111266498Y-84069735D01*
X111266503Y-84069737D01*
X111421158Y-84100500D01*
X111421160Y-84100500D01*
X111578840Y-84100500D01*
X111578842Y-84100500D01*
X111733497Y-84069737D01*
X111879179Y-84009394D01*
X112010289Y-83921789D01*
X112121789Y-83810289D01*
X112209394Y-83679179D01*
X112269737Y-83533497D01*
X112300500Y-83378842D01*
X112300500Y-83221158D01*
X112269737Y-83066503D01*
X112209394Y-82920821D01*
X112121789Y-82789711D01*
X112010289Y-82678211D01*
X111879179Y-82590606D01*
X111879175Y-82590604D01*
X111879173Y-82590603D01*
X111879174Y-82590603D01*
X111733501Y-82530264D01*
X111733491Y-82530261D01*
X111627758Y-82509230D01*
X111578842Y-82499500D01*
X111421158Y-82499500D01*
X111377315Y-82508220D01*
X111266508Y-82530261D01*
X111266498Y-82530264D01*
X111120825Y-82590603D01*
X110989711Y-82678210D01*
X110989710Y-82678212D01*
X110878212Y-82789710D01*
X110878210Y-82789711D01*
X110790603Y-82920825D01*
X110730264Y-83066498D01*
X110730261Y-83066508D01*
X110699500Y-83221159D01*
X107220500Y-83221159D01*
X107220500Y-83221158D01*
X107189737Y-83066503D01*
X107129394Y-82920821D01*
X107041789Y-82789711D01*
X106930289Y-82678211D01*
X106799179Y-82590606D01*
X106799175Y-82590604D01*
X106799173Y-82590603D01*
X106799174Y-82590603D01*
X106653501Y-82530264D01*
X106653491Y-82530261D01*
X106547758Y-82509230D01*
X106498842Y-82499500D01*
X106341158Y-82499500D01*
X106297315Y-82508220D01*
X106186508Y-82530261D01*
X106186498Y-82530264D01*
X106040825Y-82590603D01*
X105909711Y-82678210D01*
X105909710Y-82678212D01*
X105798212Y-82789710D01*
X105798210Y-82789711D01*
X105710603Y-82920825D01*
X105650264Y-83066498D01*
X105650261Y-83066508D01*
X105619500Y-83221159D01*
X102478587Y-83221159D01*
X102662483Y-82907324D01*
X102674004Y-82892411D01*
X102737231Y-82829184D01*
X102737239Y-82829176D01*
X102920697Y-82599126D01*
X103077244Y-82349981D01*
X103204910Y-82084874D01*
X103302090Y-81807140D01*
X103367562Y-81520272D01*
X103400503Y-81227876D01*
X103400500Y-81080754D01*
X103400500Y-81055455D01*
X103400500Y-77005533D01*
X103400509Y-77005508D01*
X103400509Y-76974871D01*
X103400510Y-76974871D01*
X103400509Y-76747174D01*
X103400509Y-76747164D01*
X103400508Y-76747161D01*
X103368020Y-76292940D01*
X103320906Y-75965262D01*
X104599497Y-75965262D01*
X104599497Y-76134673D01*
X104626575Y-76409584D01*
X104626701Y-76410863D01*
X104633730Y-76446199D01*
X104680842Y-76683051D01*
X104680846Y-76683065D01*
X104761403Y-76948623D01*
X104867614Y-77205038D01*
X104998435Y-77449787D01*
X104998436Y-77449789D01*
X105031652Y-77499500D01*
X105152623Y-77680544D01*
X105328684Y-77895075D01*
X105328692Y-77895083D01*
X105385296Y-77951688D01*
X105385302Y-77951695D01*
X105525793Y-78092186D01*
X105547177Y-78137968D01*
X105559628Y-78278211D01*
X105619500Y-78952614D01*
X105619500Y-78978842D01*
X105623703Y-78999975D01*
X105624057Y-79003956D01*
X105624058Y-79003958D01*
X105625680Y-79022239D01*
X105626945Y-79033171D01*
X105627118Y-79034382D01*
X105632047Y-79047288D01*
X105635494Y-79059250D01*
X105650261Y-79133491D01*
X105650264Y-79133501D01*
X105710603Y-79279174D01*
X105710605Y-79279177D01*
X105710606Y-79279179D01*
X105798211Y-79410289D01*
X105909711Y-79521789D01*
X106040821Y-79609394D01*
X106040826Y-79609396D01*
X106040825Y-79609396D01*
X106186498Y-79669735D01*
X106186503Y-79669737D01*
X106341158Y-79700500D01*
X106341160Y-79700500D01*
X106498840Y-79700500D01*
X106498842Y-79700500D01*
X106653497Y-79669737D01*
X106799179Y-79609394D01*
X106930289Y-79521789D01*
X107041789Y-79410289D01*
X107129394Y-79279179D01*
X107189737Y-79133497D01*
X107220500Y-78978842D01*
X107220500Y-78821158D01*
X107189737Y-78666503D01*
X107152733Y-78577166D01*
X107129396Y-78520825D01*
X107129395Y-78520823D01*
X107129394Y-78520821D01*
X107041789Y-78389711D01*
X106930289Y-78278211D01*
X106901947Y-78259273D01*
X106886366Y-78244451D01*
X106886159Y-78244640D01*
X106883715Y-78241949D01*
X106172541Y-77598654D01*
X106172539Y-77598652D01*
X106172534Y-77598648D01*
X106172523Y-77598641D01*
X106160468Y-77591225D01*
X106146916Y-77580523D01*
X105994673Y-77428280D01*
X105991822Y-77425264D01*
X105844757Y-77260700D01*
X105839582Y-77254212D01*
X105812957Y-77216688D01*
X105713068Y-77075907D01*
X105708655Y-77068883D01*
X105704090Y-77060624D01*
X105602907Y-76877546D01*
X105599307Y-76870070D01*
X105592378Y-76853341D01*
X105515642Y-76668087D01*
X105512908Y-76660274D01*
X105452379Y-76450175D01*
X105450538Y-76442107D01*
X105413918Y-76226573D01*
X105412989Y-76218336D01*
X105412786Y-76214729D01*
X105400616Y-75998024D01*
X105400500Y-75993875D01*
X105400500Y-75621158D01*
X105619500Y-75621158D01*
X105619500Y-75778842D01*
X105627591Y-75819519D01*
X105650261Y-75933491D01*
X105650264Y-75933501D01*
X105710603Y-76079174D01*
X105710605Y-76079177D01*
X105710606Y-76079179D01*
X105728352Y-76105737D01*
X105798207Y-76210284D01*
X105798211Y-76210289D01*
X105909711Y-76321789D01*
X106001233Y-76382942D01*
X106011897Y-76390782D01*
X106015462Y-76392449D01*
X106040821Y-76409394D01*
X106134112Y-76448036D01*
X106137106Y-76449355D01*
X107000680Y-76853341D01*
X107021650Y-76868043D01*
X107776338Y-77622731D01*
X107780282Y-77626998D01*
X107886342Y-77751177D01*
X107893167Y-77760571D01*
X107976966Y-77897317D01*
X107982238Y-77907663D01*
X108043617Y-78055842D01*
X108047205Y-78066886D01*
X108084644Y-78222833D01*
X108086461Y-78234302D01*
X108099044Y-78394174D01*
X108099044Y-78405786D01*
X108086459Y-78565696D01*
X108084642Y-78577165D01*
X108047202Y-78733112D01*
X108043614Y-78744156D01*
X107982236Y-78892334D01*
X107976964Y-78902680D01*
X107893165Y-79039426D01*
X107886340Y-79048821D01*
X107780261Y-79173022D01*
X107776317Y-79177288D01*
X107021651Y-79931953D01*
X107000681Y-79946655D01*
X106137128Y-80350630D01*
X106137129Y-80350631D01*
X106135598Y-80351347D01*
X106040821Y-80390606D01*
X106015465Y-80407547D01*
X106011887Y-80409222D01*
X106011620Y-80409359D01*
X106011578Y-80409379D01*
X105998138Y-80416294D01*
X105996589Y-80417167D01*
X105993323Y-80419046D01*
X105993320Y-80419048D01*
X105985797Y-80426138D01*
X105976162Y-80433808D01*
X105909716Y-80478206D01*
X105909713Y-80478209D01*
X105798211Y-80589710D01*
X105798210Y-80589711D01*
X105710603Y-80720825D01*
X105650264Y-80866498D01*
X105650261Y-80866508D01*
X105624580Y-80995616D01*
X105619500Y-81021158D01*
X105619500Y-81178842D01*
X105622937Y-81196122D01*
X105650261Y-81333491D01*
X105650264Y-81333501D01*
X105710603Y-81479174D01*
X105710605Y-81479177D01*
X105710606Y-81479179D01*
X105798211Y-81610289D01*
X105909711Y-81721789D01*
X106040821Y-81809394D01*
X106040826Y-81809396D01*
X106040825Y-81809396D01*
X106186496Y-81869734D01*
X106186503Y-81869737D01*
X106341158Y-81900500D01*
X106341160Y-81900500D01*
X106498840Y-81900500D01*
X106498842Y-81900500D01*
X106653497Y-81869737D01*
X106799179Y-81809394D01*
X106930289Y-81721789D01*
X107041789Y-81610289D01*
X107102946Y-81518759D01*
X107110783Y-81508101D01*
X107112450Y-81504537D01*
X107129394Y-81479179D01*
X107168051Y-81385849D01*
X107169347Y-81382910D01*
X107573343Y-80519313D01*
X107588041Y-80498349D01*
X108312187Y-79774204D01*
X108340673Y-79745717D01*
X108349494Y-79738184D01*
X108390869Y-79708124D01*
X108411493Y-79697615D01*
X108433005Y-79690626D01*
X108454516Y-79683637D01*
X108477383Y-79680015D01*
X108522616Y-79680015D01*
X108545483Y-79683637D01*
X108552616Y-79685954D01*
X108588503Y-79697615D01*
X108609128Y-79708123D01*
X108650507Y-79738187D01*
X108659332Y-79745725D01*
X110012377Y-81098770D01*
X110012491Y-81098869D01*
X110041564Y-81127944D01*
X110130412Y-81196122D01*
X110152752Y-81216830D01*
X110176107Y-81231187D01*
X110198708Y-81248530D01*
X110198715Y-81248534D01*
X110290169Y-81301337D01*
X110291921Y-81302381D01*
X111049457Y-81768058D01*
X111049459Y-81768059D01*
X111055780Y-81770472D01*
X111063839Y-81773550D01*
X111078556Y-81781153D01*
X111120821Y-81809394D01*
X111266503Y-81869737D01*
X111421158Y-81900500D01*
X111421160Y-81900500D01*
X111578840Y-81900500D01*
X111578842Y-81900500D01*
X111733497Y-81869737D01*
X111879179Y-81809394D01*
X112010289Y-81721789D01*
X112121789Y-81610289D01*
X112209394Y-81479179D01*
X112269737Y-81333497D01*
X112300500Y-81178842D01*
X112300500Y-81021158D01*
X112269737Y-80866503D01*
X112269735Y-80866498D01*
X112209396Y-80720825D01*
X112209395Y-80720823D01*
X112209394Y-80720821D01*
X112121789Y-80589711D01*
X112010289Y-80478211D01*
X112010286Y-80478209D01*
X111977842Y-80456530D01*
X111879179Y-80390606D01*
X111879175Y-80390604D01*
X111879173Y-80390603D01*
X111879174Y-80390603D01*
X111733501Y-80330264D01*
X111733491Y-80330261D01*
X111611670Y-80306030D01*
X111578842Y-80299500D01*
X111421158Y-80299500D01*
X111421157Y-80299500D01*
X111362239Y-80311218D01*
X111348599Y-80312636D01*
X111329145Y-80312844D01*
X110566807Y-80472970D01*
X110558969Y-80471497D01*
X110551604Y-80474550D01*
X110532005Y-80466433D01*
X110511144Y-80462515D01*
X110499276Y-80452882D01*
X110494634Y-80448241D01*
X109940104Y-79893711D01*
X120649500Y-79893711D01*
X120649500Y-80106288D01*
X120682753Y-80316240D01*
X120682756Y-80316253D01*
X120748440Y-80518406D01*
X120844948Y-80707816D01*
X120920879Y-80812326D01*
X120969896Y-80879792D01*
X121120208Y-81030104D01*
X121189942Y-81080768D01*
X121292183Y-81155051D01*
X121383474Y-81201565D01*
X121481588Y-81251557D01*
X121481590Y-81251557D01*
X121481593Y-81251559D01*
X121683746Y-81317243D01*
X121683752Y-81317244D01*
X121683757Y-81317246D01*
X121786323Y-81333491D01*
X121893711Y-81350500D01*
X121893713Y-81350500D01*
X122106289Y-81350500D01*
X122190269Y-81337198D01*
X122316243Y-81317246D01*
X122316250Y-81317243D01*
X122316253Y-81317243D01*
X122518406Y-81251559D01*
X122518406Y-81251558D01*
X122518412Y-81251557D01*
X122707816Y-81155051D01*
X122879792Y-81030104D01*
X123030104Y-80879792D01*
X123155051Y-80707816D01*
X123251557Y-80518412D01*
X123264619Y-80478211D01*
X123317243Y-80316253D01*
X123317243Y-80316250D01*
X123317246Y-80316243D01*
X123350500Y-80106287D01*
X123350500Y-79893713D01*
X123317246Y-79683757D01*
X123317244Y-79683752D01*
X123317243Y-79683746D01*
X123251559Y-79481593D01*
X123251557Y-79481590D01*
X123251557Y-79481588D01*
X123165776Y-79313233D01*
X123155051Y-79292183D01*
X123099451Y-79215656D01*
X123030104Y-79120208D01*
X122879792Y-78969896D01*
X122787278Y-78902681D01*
X122707816Y-78844948D01*
X122518406Y-78748440D01*
X122316253Y-78682756D01*
X122316240Y-78682753D01*
X122106289Y-78649500D01*
X122106287Y-78649500D01*
X121893713Y-78649500D01*
X121893711Y-78649500D01*
X121683759Y-78682753D01*
X121683746Y-78682756D01*
X121481593Y-78748440D01*
X121292183Y-78844948D01*
X121120212Y-78969893D01*
X121120208Y-78969896D01*
X120969896Y-79120208D01*
X120969893Y-79120211D01*
X120969893Y-79120212D01*
X120844948Y-79292183D01*
X120748440Y-79481593D01*
X120682756Y-79683746D01*
X120682753Y-79683759D01*
X120649500Y-79893711D01*
X109940104Y-79893711D01*
X109223652Y-79177259D01*
X109219708Y-79172992D01*
X109113656Y-79048822D01*
X109106837Y-79039438D01*
X109023028Y-78902673D01*
X109017761Y-78892336D01*
X109017760Y-78892334D01*
X108988278Y-78821159D01*
X110699500Y-78821159D01*
X110699500Y-78978840D01*
X110730261Y-79133491D01*
X110730264Y-79133501D01*
X110790603Y-79279174D01*
X110790605Y-79279177D01*
X110790606Y-79279179D01*
X110878211Y-79410289D01*
X110989711Y-79521789D01*
X111120821Y-79609394D01*
X111120826Y-79609396D01*
X111120825Y-79609396D01*
X111266498Y-79669735D01*
X111266503Y-79669737D01*
X111421158Y-79700500D01*
X111421160Y-79700500D01*
X111578840Y-79700500D01*
X111578842Y-79700500D01*
X111733497Y-79669737D01*
X111879179Y-79609394D01*
X112010289Y-79521789D01*
X112121789Y-79410289D01*
X112209394Y-79279179D01*
X112269737Y-79133497D01*
X112300500Y-78978842D01*
X112300500Y-78821158D01*
X112269737Y-78666503D01*
X112232733Y-78577166D01*
X112209396Y-78520825D01*
X112209395Y-78520823D01*
X112209394Y-78520821D01*
X112121789Y-78389711D01*
X112010289Y-78278211D01*
X111879179Y-78190606D01*
X111879175Y-78190604D01*
X111879173Y-78190603D01*
X111879174Y-78190603D01*
X111733501Y-78130264D01*
X111733491Y-78130261D01*
X111629925Y-78109661D01*
X111578842Y-78099500D01*
X111421158Y-78099500D01*
X111377315Y-78108220D01*
X111266508Y-78130261D01*
X111266498Y-78130264D01*
X111120825Y-78190603D01*
X110989711Y-78278210D01*
X110989710Y-78278212D01*
X110878212Y-78389710D01*
X110878210Y-78389711D01*
X110790603Y-78520825D01*
X110730264Y-78666498D01*
X110730261Y-78666508D01*
X110699500Y-78821159D01*
X108988278Y-78821159D01*
X108956379Y-78744149D01*
X108952796Y-78733121D01*
X108915354Y-78577165D01*
X108913538Y-78565697D01*
X108910006Y-78520825D01*
X108900731Y-78402973D01*
X108900503Y-78397167D01*
X108900503Y-78275641D01*
X108881363Y-78130261D01*
X108868039Y-78029057D01*
X108803667Y-77788818D01*
X108708487Y-77559037D01*
X108584129Y-77343645D01*
X108432721Y-77146328D01*
X108392481Y-77106089D01*
X108392481Y-77106088D01*
X107588044Y-76301651D01*
X107573342Y-76280681D01*
X107546114Y-76222477D01*
X107264813Y-75621158D01*
X110699500Y-75621158D01*
X110699500Y-75778842D01*
X110707591Y-75819519D01*
X110730261Y-75933491D01*
X110730264Y-75933501D01*
X110790603Y-76079174D01*
X110790605Y-76079177D01*
X110790606Y-76079179D01*
X110808352Y-76105737D01*
X110878207Y-76210284D01*
X110878211Y-76210289D01*
X110989711Y-76321789D01*
X111120821Y-76409394D01*
X111120826Y-76409396D01*
X111120825Y-76409396D01*
X111248051Y-76462094D01*
X111266503Y-76469737D01*
X111421158Y-76500500D01*
X111421160Y-76500500D01*
X111578840Y-76500500D01*
X111578842Y-76500500D01*
X111663007Y-76483758D01*
X111690373Y-76480884D01*
X111713408Y-76473732D01*
X111733497Y-76469737D01*
X111751966Y-76462085D01*
X111758310Y-76459792D01*
X112534334Y-76218886D01*
X112536907Y-76219122D01*
X112538999Y-76217603D01*
X112564762Y-76221683D01*
X112590733Y-76224072D01*
X112594939Y-76226464D01*
X112703415Y-76292940D01*
X112711041Y-76297613D01*
X112720434Y-76304437D01*
X112823480Y-76392449D01*
X112838925Y-76405640D01*
X112843191Y-76409584D01*
X114404010Y-77970403D01*
X114404033Y-77970423D01*
X114437756Y-78004146D01*
X114604944Y-78132435D01*
X114787447Y-78237804D01*
X114982142Y-78318450D01*
X115185698Y-78372993D01*
X115185701Y-78372993D01*
X115185704Y-78372994D01*
X115270678Y-78384181D01*
X115394632Y-78400500D01*
X115447273Y-78400500D01*
X115672857Y-78400500D01*
X115709857Y-78410414D01*
X115779795Y-78450792D01*
X115806814Y-78466392D01*
X115934105Y-78500499D01*
X115934106Y-78500500D01*
X115934108Y-78500500D01*
X116065894Y-78500500D01*
X116065894Y-78500499D01*
X116193186Y-78466392D01*
X116307314Y-78400500D01*
X116400500Y-78307314D01*
X116466392Y-78193186D01*
X116500499Y-78065894D01*
X116500500Y-78065894D01*
X116500500Y-77934106D01*
X116500499Y-77934105D01*
X116488918Y-77890885D01*
X116466392Y-77806814D01*
X116400500Y-77692686D01*
X116307314Y-77599500D01*
X116290903Y-77590025D01*
X116193190Y-77533610D01*
X116193181Y-77533606D01*
X116065894Y-77499500D01*
X116065892Y-77499500D01*
X115934108Y-77499500D01*
X115934106Y-77499500D01*
X115806818Y-77533606D01*
X115806809Y-77533610D01*
X115709857Y-77589586D01*
X115672857Y-77599500D01*
X115502909Y-77599500D01*
X115497104Y-77599272D01*
X115481665Y-77598056D01*
X115379620Y-77590025D01*
X115368156Y-77588209D01*
X115256402Y-77561380D01*
X115245366Y-77557794D01*
X115139187Y-77513812D01*
X115128841Y-77508540D01*
X115030856Y-77448494D01*
X115021462Y-77441669D01*
X114931846Y-77365130D01*
X114927579Y-77361186D01*
X113366736Y-75800343D01*
X113366641Y-75800260D01*
X113321763Y-75755381D01*
X113129469Y-75607825D01*
X113129464Y-75607822D01*
X113129461Y-75607820D01*
X112919568Y-75486635D01*
X112919559Y-75486630D01*
X112862941Y-75463178D01*
X112847333Y-75454363D01*
X112832791Y-75443636D01*
X112832788Y-75443634D01*
X112832786Y-75443633D01*
X111929823Y-75019394D01*
X111929818Y-75019393D01*
X111927568Y-75018744D01*
X111906965Y-75009172D01*
X111879176Y-74990604D01*
X111733501Y-74930264D01*
X111733491Y-74930261D01*
X111629925Y-74909661D01*
X111578842Y-74899500D01*
X111421158Y-74899500D01*
X111377315Y-74908220D01*
X111266508Y-74930261D01*
X111266498Y-74930264D01*
X111120825Y-74990603D01*
X110989711Y-75078210D01*
X110989710Y-75078212D01*
X110878212Y-75189710D01*
X110878210Y-75189711D01*
X110790603Y-75320825D01*
X110730264Y-75466498D01*
X110730261Y-75466508D01*
X110704580Y-75595616D01*
X110699500Y-75621158D01*
X107264813Y-75621158D01*
X107168662Y-75415623D01*
X107129394Y-75320821D01*
X107112449Y-75295462D01*
X107110782Y-75291897D01*
X107103742Y-75278209D01*
X107103735Y-75278195D01*
X107102923Y-75276752D01*
X107100950Y-75273320D01*
X107093864Y-75265801D01*
X107086190Y-75256162D01*
X107041789Y-75189711D01*
X106930288Y-75078210D01*
X106897842Y-75056530D01*
X106799179Y-74990606D01*
X106799175Y-74990604D01*
X106799173Y-74990603D01*
X106799174Y-74990603D01*
X106653501Y-74930264D01*
X106653491Y-74930261D01*
X106549925Y-74909661D01*
X106498842Y-74899500D01*
X106341158Y-74899500D01*
X106297315Y-74908220D01*
X106186508Y-74930261D01*
X106186498Y-74930264D01*
X106040825Y-74990603D01*
X105909711Y-75078210D01*
X105909710Y-75078212D01*
X105798212Y-75189710D01*
X105798210Y-75189711D01*
X105710603Y-75320825D01*
X105650264Y-75466498D01*
X105650261Y-75466508D01*
X105624580Y-75595616D01*
X105619500Y-75621158D01*
X105400500Y-75621158D01*
X105400500Y-75501819D01*
X105400589Y-75498188D01*
X105402145Y-75466508D01*
X105415831Y-75187917D01*
X105416540Y-75180723D01*
X105461856Y-74875226D01*
X105463266Y-74868139D01*
X105538309Y-74568551D01*
X105540405Y-74561642D01*
X105644450Y-74270858D01*
X105647220Y-74264171D01*
X105779258Y-73985001D01*
X105782678Y-73978604D01*
X105794154Y-73959458D01*
X105833561Y-73893711D01*
X120649500Y-73893711D01*
X120649500Y-74106288D01*
X120682753Y-74316240D01*
X120682756Y-74316253D01*
X120748440Y-74518406D01*
X120844948Y-74707816D01*
X120921475Y-74813146D01*
X120969896Y-74879792D01*
X121120208Y-75030104D01*
X121215656Y-75099451D01*
X121292183Y-75155051D01*
X121360206Y-75189710D01*
X121481588Y-75251557D01*
X121481590Y-75251557D01*
X121481593Y-75251559D01*
X121683746Y-75317243D01*
X121683752Y-75317244D01*
X121683757Y-75317246D01*
X121788735Y-75333873D01*
X121893711Y-75350500D01*
X121893713Y-75350500D01*
X122106289Y-75350500D01*
X122190269Y-75337198D01*
X122316243Y-75317246D01*
X122316250Y-75317243D01*
X122316253Y-75317243D01*
X122518406Y-75251559D01*
X122518406Y-75251558D01*
X122518412Y-75251557D01*
X122707816Y-75155051D01*
X122879792Y-75030104D01*
X123030104Y-74879792D01*
X123155051Y-74707816D01*
X123251557Y-74518412D01*
X123274825Y-74446800D01*
X123317243Y-74316253D01*
X123317243Y-74316250D01*
X123317246Y-74316243D01*
X123350500Y-74106287D01*
X123350500Y-73893713D01*
X123317246Y-73683757D01*
X123317244Y-73683752D01*
X123317243Y-73683746D01*
X123251559Y-73481593D01*
X123251557Y-73481590D01*
X123251557Y-73481588D01*
X123177896Y-73337019D01*
X123155051Y-73292183D01*
X123099451Y-73215656D01*
X123030104Y-73120208D01*
X122879792Y-72969896D01*
X122813146Y-72921475D01*
X122707816Y-72844948D01*
X122518406Y-72748440D01*
X122316253Y-72682756D01*
X122316240Y-72682753D01*
X122106289Y-72649500D01*
X122106287Y-72649500D01*
X121893713Y-72649500D01*
X121893711Y-72649500D01*
X121683759Y-72682753D01*
X121683746Y-72682756D01*
X121481593Y-72748440D01*
X121292183Y-72844948D01*
X121120212Y-72969893D01*
X121120208Y-72969896D01*
X120969896Y-73120208D01*
X120969893Y-73120211D01*
X120969893Y-73120212D01*
X120844948Y-73292183D01*
X120748440Y-73481593D01*
X120682756Y-73683746D01*
X120682753Y-73683759D01*
X120649500Y-73893711D01*
X105833561Y-73893711D01*
X105941446Y-73713717D01*
X105945470Y-73707695D01*
X106129436Y-73459647D01*
X106134025Y-73454055D01*
X106342753Y-73223761D01*
X106345224Y-73221166D01*
X106384572Y-73181819D01*
X106384571Y-73181819D01*
X107282262Y-72284129D01*
X107284114Y-72282342D01*
X107617104Y-71972317D01*
X107621063Y-71968886D01*
X107974276Y-71684249D01*
X107978477Y-71681105D01*
X108351075Y-71422407D01*
X108355479Y-71419576D01*
X108745600Y-71188106D01*
X108750186Y-71185603D01*
X109155812Y-70982562D01*
X109160601Y-70980375D01*
X109579672Y-70806790D01*
X109584591Y-70804956D01*
X110014973Y-70661712D01*
X110020021Y-70660230D01*
X110459539Y-70548051D01*
X110464641Y-70546941D01*
X110911054Y-70466401D01*
X110916240Y-70465656D01*
X111367255Y-70417168D01*
X111372478Y-70416794D01*
X111827459Y-70400546D01*
X111830071Y-70400500D01*
X111886009Y-70400500D01*
X112561471Y-70400500D01*
X112588359Y-70400500D01*
X112588467Y-70400544D01*
X112619055Y-70400543D01*
X112619055Y-70400545D01*
X112899373Y-70400543D01*
X113458810Y-70363872D01*
X114014651Y-70290691D01*
X114564515Y-70181312D01*
X115106048Y-70036205D01*
X115636932Y-69855990D01*
X116154892Y-69641440D01*
X116657711Y-69393473D01*
X117143235Y-69113151D01*
X117609386Y-68801674D01*
X118054167Y-68460377D01*
X118475674Y-68090720D01*
X118636603Y-67929789D01*
X119868033Y-66698358D01*
X119893501Y-66681732D01*
X121255396Y-66151412D01*
X121270666Y-66147283D01*
X121275264Y-66146555D01*
X121451235Y-66089379D01*
X121616096Y-66005378D01*
X121765787Y-65896621D01*
X121896621Y-65765787D01*
X122005378Y-65616096D01*
X122089379Y-65451235D01*
X122146555Y-65275264D01*
X122175500Y-65092514D01*
X122175500Y-64907486D01*
X122146555Y-64724736D01*
X122146553Y-64724731D01*
X122146552Y-64724725D01*
X122089380Y-64548767D01*
X122089378Y-64548763D01*
X122062041Y-64495112D01*
X122005378Y-64383904D01*
X121896621Y-64234213D01*
X121765787Y-64103379D01*
X121765784Y-64103376D01*
X121765782Y-64103375D01*
X121616098Y-63994623D01*
X121616092Y-63994620D01*
X121451236Y-63910621D01*
X121451232Y-63910619D01*
X121275274Y-63853447D01*
X121275261Y-63853444D01*
X121092516Y-63824500D01*
X121092514Y-63824500D01*
X120907486Y-63824500D01*
X120907484Y-63824500D01*
X120724738Y-63853444D01*
X120724725Y-63853447D01*
X120548767Y-63910619D01*
X120548763Y-63910621D01*
X120383907Y-63994620D01*
X120383901Y-63994623D01*
X120234217Y-64103375D01*
X120103375Y-64234217D01*
X119994623Y-64383901D01*
X119994620Y-64383907D01*
X119910621Y-64548763D01*
X119910619Y-64548767D01*
X119853444Y-64724736D01*
X119853442Y-64724746D01*
X119852716Y-64729332D01*
X119848584Y-64744605D01*
X119318267Y-66106494D01*
X119301637Y-66131968D01*
X118108332Y-67325272D01*
X118106592Y-67326956D01*
X117738539Y-67671680D01*
X117734899Y-67674872D01*
X117346033Y-67994011D01*
X117342191Y-67996959D01*
X116933265Y-68289996D01*
X116929238Y-68292687D01*
X116502026Y-68558348D01*
X116497833Y-68560769D01*
X116054162Y-68797920D01*
X116049819Y-68800062D01*
X115591580Y-69007691D01*
X115587106Y-69009544D01*
X115116273Y-69186756D01*
X115111688Y-69188312D01*
X114630288Y-69334347D01*
X114625610Y-69335601D01*
X114135674Y-69449841D01*
X114130925Y-69450786D01*
X113634562Y-69532740D01*
X113629761Y-69533372D01*
X113129098Y-69582686D01*
X113124266Y-69583002D01*
X112621645Y-69599460D01*
X112619223Y-69599500D01*
X111771252Y-69599500D01*
X111771073Y-69599511D01*
X111591776Y-69599511D01*
X111440839Y-69609403D01*
X111119490Y-69630464D01*
X111119485Y-69630464D01*
X111119479Y-69630465D01*
X110650251Y-69692239D01*
X110650226Y-69692243D01*
X110186038Y-69784574D01*
X109728850Y-69907076D01*
X109728849Y-69907076D01*
X109280666Y-70059213D01*
X108843414Y-70240327D01*
X108418917Y-70449665D01*
X108418911Y-70449668D01*
X108418910Y-70449669D01*
X108323788Y-70504587D01*
X108009014Y-70686321D01*
X108009012Y-70686323D01*
X107615477Y-70949274D01*
X107239990Y-71237395D01*
X106884141Y-71549466D01*
X106754088Y-71679520D01*
X105736919Y-72696686D01*
X105736851Y-72696763D01*
X105653303Y-72780311D01*
X105427557Y-73049342D01*
X105226122Y-73337019D01*
X105050529Y-73641153D01*
X105050527Y-73641157D01*
X104902100Y-73959458D01*
X104781986Y-74289468D01*
X104717331Y-74530765D01*
X104691093Y-74628689D01*
X104632630Y-74960248D01*
X104630108Y-74974548D01*
X104630105Y-74974571D01*
X104599500Y-75324399D01*
X104599500Y-75965254D01*
X104599497Y-75965262D01*
X103320906Y-75965262D01*
X103303209Y-75842182D01*
X103206406Y-75397195D01*
X103206405Y-75397192D01*
X103206403Y-75397182D01*
X103206401Y-75397177D01*
X103087019Y-74990603D01*
X103078106Y-74960248D01*
X103078099Y-74960229D01*
X102918967Y-74533582D01*
X102918964Y-74533577D01*
X102918961Y-74533567D01*
X102729782Y-74119327D01*
X102511535Y-73719637D01*
X102265330Y-73336536D01*
X102232128Y-73292184D01*
X102050339Y-73049342D01*
X101992422Y-72971974D01*
X101992418Y-72971969D01*
X101992414Y-72971964D01*
X101741810Y-72682753D01*
X101694202Y-72627810D01*
X101533196Y-72466804D01*
X101492479Y-72426087D01*
X101488809Y-72422417D01*
X101488704Y-72422326D01*
X101372192Y-72305814D01*
X101372183Y-72305805D01*
X101273766Y-72220526D01*
X101028029Y-72007593D01*
X101027051Y-72006861D01*
X100663458Y-71734679D01*
X100663455Y-71734677D01*
X100663451Y-71734674D01*
X100663452Y-71734674D01*
X100280365Y-71488479D01*
X100280351Y-71488470D01*
X99918064Y-71290646D01*
X99880668Y-71270226D01*
X99808778Y-71237395D01*
X99685867Y-71181263D01*
X99466428Y-71081048D01*
X99466424Y-71081046D01*
X99466412Y-71081041D01*
X99039766Y-70921909D01*
X99039726Y-70921896D01*
X98602819Y-70793607D01*
X98602814Y-70793605D01*
X98157819Y-70696801D01*
X97707053Y-70631989D01*
X97252836Y-70599501D01*
X97252833Y-70599500D01*
X97077853Y-70599500D01*
X95382150Y-70599500D01*
X95379728Y-70599460D01*
X94875735Y-70582957D01*
X94870903Y-70582641D01*
X94370243Y-70533327D01*
X94365442Y-70532695D01*
X93869082Y-70450742D01*
X93864333Y-70449797D01*
X93374400Y-70335558D01*
X93369722Y-70334304D01*
X92888325Y-70188269D01*
X92883740Y-70186713D01*
X92412909Y-70009502D01*
X92408435Y-70007649D01*
X91950199Y-69800021D01*
X91945856Y-69797879D01*
X91502188Y-69560729D01*
X91497995Y-69558308D01*
X91070785Y-69292649D01*
X91066758Y-69289958D01*
X90657842Y-68996928D01*
X90654001Y-68993980D01*
X90265123Y-68674832D01*
X90261482Y-68671639D01*
X89892379Y-68325930D01*
X89890639Y-68324247D01*
X89851790Y-68285397D01*
X89851787Y-68285395D01*
X87698360Y-66131968D01*
X87681731Y-66106496D01*
X87214839Y-64907484D01*
X89824500Y-64907484D01*
X89824500Y-65092515D01*
X89853444Y-65275261D01*
X89853447Y-65275274D01*
X89910619Y-65451232D01*
X89910621Y-65451236D01*
X89994620Y-65616092D01*
X89994623Y-65616098D01*
X90032514Y-65668250D01*
X90103379Y-65765787D01*
X90234213Y-65896621D01*
X90383904Y-66005378D01*
X90494201Y-66061577D01*
X90548763Y-66089378D01*
X90548767Y-66089380D01*
X90724725Y-66146552D01*
X90724731Y-66146553D01*
X90724736Y-66146555D01*
X90816111Y-66161027D01*
X90907484Y-66175500D01*
X90907486Y-66175500D01*
X91092516Y-66175500D01*
X91165614Y-66163922D01*
X91275264Y-66146555D01*
X91275271Y-66146552D01*
X91275274Y-66146552D01*
X91451232Y-66089380D01*
X91451232Y-66089379D01*
X91451235Y-66089379D01*
X91616096Y-66005378D01*
X91765787Y-65896621D01*
X91896621Y-65765787D01*
X92005378Y-65616096D01*
X92089379Y-65451235D01*
X92146555Y-65275264D01*
X92175500Y-65092514D01*
X92175500Y-64907486D01*
X92175500Y-64907484D01*
X94824500Y-64907484D01*
X94824500Y-65092515D01*
X94853444Y-65275261D01*
X94853447Y-65275274D01*
X94910619Y-65451232D01*
X94910621Y-65451236D01*
X94994620Y-65616092D01*
X94994623Y-65616098D01*
X95032514Y-65668250D01*
X95103379Y-65765787D01*
X95234213Y-65896621D01*
X95383904Y-66005378D01*
X95494201Y-66061577D01*
X95548763Y-66089378D01*
X95548767Y-66089380D01*
X95724725Y-66146552D01*
X95724731Y-66146553D01*
X95724736Y-66146555D01*
X95816111Y-66161027D01*
X95907484Y-66175500D01*
X95907486Y-66175500D01*
X96092516Y-66175500D01*
X96165614Y-66163922D01*
X96275264Y-66146555D01*
X96275271Y-66146552D01*
X96275274Y-66146552D01*
X96451232Y-66089380D01*
X96451232Y-66089379D01*
X96451235Y-66089379D01*
X96616096Y-66005378D01*
X96765787Y-65896621D01*
X96896621Y-65765787D01*
X97005378Y-65616096D01*
X97089379Y-65451235D01*
X97146555Y-65275264D01*
X97175500Y-65092514D01*
X97175500Y-64907486D01*
X97175500Y-64907484D01*
X99824500Y-64907484D01*
X99824500Y-65092515D01*
X99853444Y-65275261D01*
X99853447Y-65275274D01*
X99910619Y-65451232D01*
X99910621Y-65451236D01*
X99994620Y-65616092D01*
X99994623Y-65616098D01*
X100032514Y-65668250D01*
X100103379Y-65765787D01*
X100234213Y-65896621D01*
X100383904Y-66005378D01*
X100494201Y-66061577D01*
X100548763Y-66089378D01*
X100548767Y-66089380D01*
X100724725Y-66146552D01*
X100724731Y-66146553D01*
X100724736Y-66146555D01*
X100816111Y-66161027D01*
X100907484Y-66175500D01*
X100907486Y-66175500D01*
X101092516Y-66175500D01*
X101165614Y-66163922D01*
X101275264Y-66146555D01*
X101275271Y-66146552D01*
X101275274Y-66146552D01*
X101451232Y-66089380D01*
X101451232Y-66089379D01*
X101451235Y-66089379D01*
X101616096Y-66005378D01*
X101765787Y-65896621D01*
X101896621Y-65765787D01*
X102005378Y-65616096D01*
X102089379Y-65451235D01*
X102146555Y-65275264D01*
X102175500Y-65092514D01*
X102175500Y-64907486D01*
X102174260Y-64899654D01*
X104725000Y-64899654D01*
X104725000Y-65100345D01*
X104756393Y-65298560D01*
X104756396Y-65298573D01*
X104818407Y-65489422D01*
X104909521Y-65668244D01*
X104938421Y-65708023D01*
X104938422Y-65708023D01*
X105398958Y-65247487D01*
X105423978Y-65307890D01*
X105495112Y-65414351D01*
X105585649Y-65504888D01*
X105692110Y-65576022D01*
X105752511Y-65601041D01*
X105291975Y-66061577D01*
X105331753Y-66090478D01*
X105510577Y-66181592D01*
X105701426Y-66243603D01*
X105701439Y-66243606D01*
X105899654Y-66275000D01*
X106100346Y-66275000D01*
X106298560Y-66243606D01*
X106298573Y-66243603D01*
X106489422Y-66181592D01*
X106668250Y-66090474D01*
X106708024Y-66061577D01*
X106247488Y-65601041D01*
X106307890Y-65576022D01*
X106414351Y-65504888D01*
X106504888Y-65414351D01*
X106576022Y-65307890D01*
X106601041Y-65247487D01*
X107061577Y-65708023D01*
X107090474Y-65668250D01*
X107181592Y-65489422D01*
X107243603Y-65298573D01*
X107243606Y-65298560D01*
X107275000Y-65100345D01*
X107275000Y-64907484D01*
X109824500Y-64907484D01*
X109824500Y-65092515D01*
X109853444Y-65275261D01*
X109853447Y-65275274D01*
X109910619Y-65451232D01*
X109910621Y-65451236D01*
X109994620Y-65616092D01*
X109994623Y-65616098D01*
X110032514Y-65668250D01*
X110103379Y-65765787D01*
X110234213Y-65896621D01*
X110383904Y-66005378D01*
X110494201Y-66061577D01*
X110548763Y-66089378D01*
X110548767Y-66089380D01*
X110724725Y-66146552D01*
X110724731Y-66146553D01*
X110724736Y-66146555D01*
X110816111Y-66161027D01*
X110907484Y-66175500D01*
X110907486Y-66175500D01*
X111092516Y-66175500D01*
X111165614Y-66163922D01*
X111275264Y-66146555D01*
X111275271Y-66146552D01*
X111275274Y-66146552D01*
X111451232Y-66089380D01*
X111451232Y-66089379D01*
X111451235Y-66089379D01*
X111616096Y-66005378D01*
X111765787Y-65896621D01*
X111896621Y-65765787D01*
X112005378Y-65616096D01*
X112089379Y-65451235D01*
X112146555Y-65275264D01*
X112175500Y-65092514D01*
X112175500Y-64907486D01*
X112175500Y-64907484D01*
X114824500Y-64907484D01*
X114824500Y-65092515D01*
X114853444Y-65275261D01*
X114853447Y-65275274D01*
X114910619Y-65451232D01*
X114910621Y-65451236D01*
X114994620Y-65616092D01*
X114994623Y-65616098D01*
X115032514Y-65668250D01*
X115103379Y-65765787D01*
X115234213Y-65896621D01*
X115383904Y-66005378D01*
X115494201Y-66061577D01*
X115548763Y-66089378D01*
X115548767Y-66089380D01*
X115724725Y-66146552D01*
X115724731Y-66146553D01*
X115724736Y-66146555D01*
X115816111Y-66161027D01*
X115907484Y-66175500D01*
X115907486Y-66175500D01*
X116092516Y-66175500D01*
X116165614Y-66163922D01*
X116275264Y-66146555D01*
X116275271Y-66146552D01*
X116275274Y-66146552D01*
X116451232Y-66089380D01*
X116451232Y-66089379D01*
X116451235Y-66089379D01*
X116616096Y-66005378D01*
X116765787Y-65896621D01*
X116896621Y-65765787D01*
X117005378Y-65616096D01*
X117089379Y-65451235D01*
X117146555Y-65275264D01*
X117175500Y-65092514D01*
X117175500Y-64907486D01*
X117146555Y-64724736D01*
X117146553Y-64724731D01*
X117146552Y-64724725D01*
X117089380Y-64548767D01*
X117089378Y-64548763D01*
X117062041Y-64495112D01*
X117005378Y-64383904D01*
X116896621Y-64234213D01*
X116765787Y-64103379D01*
X116765784Y-64103376D01*
X116765782Y-64103375D01*
X116616098Y-63994623D01*
X116616092Y-63994620D01*
X116451236Y-63910621D01*
X116451232Y-63910619D01*
X116275274Y-63853447D01*
X116275261Y-63853444D01*
X116092516Y-63824500D01*
X116092514Y-63824500D01*
X115907486Y-63824500D01*
X115907484Y-63824500D01*
X115724738Y-63853444D01*
X115724725Y-63853447D01*
X115548767Y-63910619D01*
X115548763Y-63910621D01*
X115383907Y-63994620D01*
X115383901Y-63994623D01*
X115234217Y-64103375D01*
X115103375Y-64234217D01*
X114994623Y-64383901D01*
X114994620Y-64383907D01*
X114910621Y-64548763D01*
X114910619Y-64548767D01*
X114853447Y-64724725D01*
X114853444Y-64724738D01*
X114824500Y-64907484D01*
X112175500Y-64907484D01*
X112146555Y-64724736D01*
X112146553Y-64724731D01*
X112146552Y-64724725D01*
X112089380Y-64548767D01*
X112089378Y-64548763D01*
X112062041Y-64495112D01*
X112005378Y-64383904D01*
X111896621Y-64234213D01*
X111765787Y-64103379D01*
X111765784Y-64103376D01*
X111765782Y-64103375D01*
X111616098Y-63994623D01*
X111616092Y-63994620D01*
X111451236Y-63910621D01*
X111451232Y-63910619D01*
X111275274Y-63853447D01*
X111275261Y-63853444D01*
X111092516Y-63824500D01*
X111092514Y-63824500D01*
X110907486Y-63824500D01*
X110907484Y-63824500D01*
X110724738Y-63853444D01*
X110724725Y-63853447D01*
X110548767Y-63910619D01*
X110548763Y-63910621D01*
X110383907Y-63994620D01*
X110383901Y-63994623D01*
X110234217Y-64103375D01*
X110103375Y-64234217D01*
X109994623Y-64383901D01*
X109994620Y-64383907D01*
X109910621Y-64548763D01*
X109910619Y-64548767D01*
X109853447Y-64724725D01*
X109853444Y-64724738D01*
X109824500Y-64907484D01*
X107275000Y-64907484D01*
X107275000Y-64899654D01*
X107243606Y-64701439D01*
X107243603Y-64701426D01*
X107181592Y-64510577D01*
X107090478Y-64331753D01*
X107061577Y-64291975D01*
X106601041Y-64752510D01*
X106576022Y-64692110D01*
X106504888Y-64585649D01*
X106414351Y-64495112D01*
X106307890Y-64423978D01*
X106247487Y-64398957D01*
X106708023Y-63938422D01*
X106708023Y-63938421D01*
X106668244Y-63909521D01*
X106489422Y-63818407D01*
X106298573Y-63756396D01*
X106298560Y-63756393D01*
X106100346Y-63725000D01*
X105899654Y-63725000D01*
X105701439Y-63756393D01*
X105701426Y-63756396D01*
X105510577Y-63818407D01*
X105331751Y-63909523D01*
X105291975Y-63938422D01*
X105752511Y-64398958D01*
X105692110Y-64423978D01*
X105585649Y-64495112D01*
X105495112Y-64585649D01*
X105423978Y-64692110D01*
X105398958Y-64752511D01*
X104938422Y-64291975D01*
X104909523Y-64331751D01*
X104818407Y-64510577D01*
X104756396Y-64701426D01*
X104756393Y-64701439D01*
X104725000Y-64899654D01*
X102174260Y-64899654D01*
X102146555Y-64724736D01*
X102146553Y-64724731D01*
X102146552Y-64724725D01*
X102089380Y-64548767D01*
X102089378Y-64548763D01*
X102062041Y-64495112D01*
X102005378Y-64383904D01*
X101896621Y-64234213D01*
X101765787Y-64103379D01*
X101765784Y-64103376D01*
X101765782Y-64103375D01*
X101659961Y-64026492D01*
X101616098Y-63994623D01*
X101616092Y-63994620D01*
X101451236Y-63910621D01*
X101451232Y-63910619D01*
X101275274Y-63853447D01*
X101275261Y-63853444D01*
X101092516Y-63824500D01*
X101092514Y-63824500D01*
X100907486Y-63824500D01*
X100907484Y-63824500D01*
X100724738Y-63853444D01*
X100724725Y-63853447D01*
X100548767Y-63910619D01*
X100548763Y-63910621D01*
X100383907Y-63994620D01*
X100383901Y-63994623D01*
X100234217Y-64103375D01*
X100103375Y-64234217D01*
X99994623Y-64383901D01*
X99994620Y-64383907D01*
X99910621Y-64548763D01*
X99910619Y-64548767D01*
X99853447Y-64724725D01*
X99853444Y-64724738D01*
X99824500Y-64907484D01*
X97175500Y-64907484D01*
X97146555Y-64724736D01*
X97146553Y-64724731D01*
X97146552Y-64724725D01*
X97089380Y-64548767D01*
X97089378Y-64548763D01*
X97062041Y-64495112D01*
X97005378Y-64383904D01*
X96896621Y-64234213D01*
X96765787Y-64103379D01*
X96765784Y-64103376D01*
X96765782Y-64103375D01*
X96616098Y-63994623D01*
X96616092Y-63994620D01*
X96451236Y-63910621D01*
X96451232Y-63910619D01*
X96275274Y-63853447D01*
X96275261Y-63853444D01*
X96092516Y-63824500D01*
X96092514Y-63824500D01*
X95907486Y-63824500D01*
X95907484Y-63824500D01*
X95724738Y-63853444D01*
X95724725Y-63853447D01*
X95548767Y-63910619D01*
X95548763Y-63910621D01*
X95383907Y-63994620D01*
X95383901Y-63994623D01*
X95234217Y-64103375D01*
X95103375Y-64234217D01*
X94994623Y-64383901D01*
X94994620Y-64383907D01*
X94910621Y-64548763D01*
X94910619Y-64548767D01*
X94853447Y-64724725D01*
X94853444Y-64724738D01*
X94824500Y-64907484D01*
X92175500Y-64907484D01*
X92146555Y-64724736D01*
X92146553Y-64724731D01*
X92146552Y-64724725D01*
X92089380Y-64548767D01*
X92089378Y-64548763D01*
X92062041Y-64495112D01*
X92005378Y-64383904D01*
X91896621Y-64234213D01*
X91765787Y-64103379D01*
X91765784Y-64103376D01*
X91765782Y-64103375D01*
X91616098Y-63994623D01*
X91616092Y-63994620D01*
X91451236Y-63910621D01*
X91451232Y-63910619D01*
X91275274Y-63853447D01*
X91275261Y-63853444D01*
X91092516Y-63824500D01*
X91092514Y-63824500D01*
X90907486Y-63824500D01*
X90907484Y-63824500D01*
X90724738Y-63853444D01*
X90724725Y-63853447D01*
X90548767Y-63910619D01*
X90548763Y-63910621D01*
X90383907Y-63994620D01*
X90383901Y-63994623D01*
X90234217Y-64103375D01*
X90103375Y-64234217D01*
X89994623Y-64383901D01*
X89994620Y-64383907D01*
X89910621Y-64548763D01*
X89910619Y-64548767D01*
X89853447Y-64724725D01*
X89853444Y-64724738D01*
X89824500Y-64907484D01*
X87214839Y-64907484D01*
X87151412Y-64744600D01*
X87147283Y-64729332D01*
X87146555Y-64724736D01*
X87146553Y-64724731D01*
X87146553Y-64724728D01*
X87089380Y-64548767D01*
X87089378Y-64548763D01*
X87062041Y-64495112D01*
X87005378Y-64383904D01*
X86896621Y-64234213D01*
X86765787Y-64103379D01*
X86765784Y-64103376D01*
X86765782Y-64103375D01*
X86616098Y-63994623D01*
X86616092Y-63994620D01*
X86451236Y-63910621D01*
X86451232Y-63910619D01*
X86275274Y-63853447D01*
X86275261Y-63853444D01*
X86092516Y-63824500D01*
X86092514Y-63824500D01*
X85907486Y-63824500D01*
X85907484Y-63824500D01*
X85724738Y-63853444D01*
X85724725Y-63853447D01*
X85548767Y-63910619D01*
X85548763Y-63910621D01*
X85383907Y-63994620D01*
X85383901Y-63994623D01*
X85234217Y-64103375D01*
X85103375Y-64234217D01*
X84994623Y-64383901D01*
X84994620Y-64383907D01*
X84910621Y-64548763D01*
X84910619Y-64548767D01*
X84853447Y-64724725D01*
X84853444Y-64724738D01*
X84824500Y-64907484D01*
X82500500Y-64907484D01*
X82500500Y-60004159D01*
X82500965Y-59995874D01*
X82501982Y-59986842D01*
X82512091Y-59897124D01*
X82515775Y-59880988D01*
X82547212Y-59791143D01*
X82554400Y-59776218D01*
X82605042Y-59695621D01*
X82615366Y-59682675D01*
X82682675Y-59615366D01*
X82695621Y-59605042D01*
X82776219Y-59554399D01*
X82791143Y-59547212D01*
X82880988Y-59515775D01*
X82897124Y-59512091D01*
X82986842Y-59501982D01*
X82995874Y-59500965D01*
X83004159Y-59500500D01*
X83065892Y-59500500D01*
X123934108Y-59500500D01*
X123995841Y-59500500D01*
X124004126Y-59500965D01*
G37*
%TD.AperFunction*%
%TD*%
%TA.AperFunction,Conductor*%
%TO.N,/TSAL_COLUMN*%
G36*
X86955428Y-64813445D02*
G01*
X86959823Y-64818923D01*
X87504260Y-66217072D01*
X87504068Y-66226024D01*
X87501630Y-66229590D01*
X87229590Y-66501630D01*
X87221317Y-66505057D01*
X87217072Y-66504260D01*
X85818923Y-65959823D01*
X85812457Y-65953627D01*
X85811691Y-65946649D01*
X85997772Y-65006973D01*
X86002740Y-64999525D01*
X86006971Y-64997772D01*
X86946649Y-64811691D01*
X86955428Y-64813445D01*
G37*
%TD.AperFunction*%
%TD*%
%TA.AperFunction,Conductor*%
%TO.N,+24V*%
G36*
X97124754Y-80124003D02*
G01*
X97395996Y-80395244D01*
X97399423Y-80403517D01*
X97398321Y-80408475D01*
X96924644Y-81421024D01*
X96918034Y-81427065D01*
X96909088Y-81426664D01*
X96907562Y-81425805D01*
X96900381Y-81421024D01*
X96421244Y-81102006D01*
X96417993Y-81098755D01*
X96094193Y-80612436D01*
X96092462Y-80603652D01*
X96097449Y-80596214D01*
X96098964Y-80595361D01*
X97111526Y-80121677D01*
X97120469Y-80121277D01*
X97124754Y-80124003D01*
G37*
%TD.AperFunction*%
%TD*%
%TA.AperFunction,Conductor*%
%TO.N,+24V*%
G36*
X111380187Y-80515609D02*
G01*
X111385241Y-80523001D01*
X111385263Y-80523110D01*
X111499876Y-81095783D01*
X111498140Y-81104568D01*
X111498121Y-81104595D01*
X111172921Y-81589541D01*
X111165467Y-81594504D01*
X111157077Y-81592992D01*
X110260370Y-81041763D01*
X110255116Y-81034511D01*
X110256530Y-81025669D01*
X110256756Y-81025316D01*
X110469601Y-80706783D01*
X110476919Y-80701836D01*
X111371388Y-80513956D01*
X111380187Y-80515609D01*
G37*
%TD.AperFunction*%
%TD*%
%TA.AperFunction,Conductor*%
%TO.N,+24V*%
G36*
X101378843Y-80516862D02*
G01*
X101385100Y-80523268D01*
X101385711Y-80525317D01*
X101500530Y-81097829D01*
X101500529Y-81102432D01*
X101385673Y-81674876D01*
X101380686Y-81682313D01*
X101371900Y-81684045D01*
X101370003Y-81683495D01*
X100370743Y-81299314D01*
X100364251Y-81293146D01*
X100363342Y-81286866D01*
X100413453Y-80906216D01*
X100417930Y-80898461D01*
X100420699Y-80896883D01*
X101369891Y-80516757D01*
X101378843Y-80516862D01*
G37*
%TD.AperFunction*%
%TD*%
%TA.AperFunction,Conductor*%
%TO.N,Net-(D1-A)*%
G36*
X111842436Y-75205390D02*
G01*
X112745405Y-75629631D01*
X112751436Y-75636250D01*
X112751019Y-75645195D01*
X112750855Y-75645532D01*
X112576982Y-75986770D01*
X112570172Y-75992585D01*
X112570026Y-75992632D01*
X111629446Y-76284623D01*
X111620529Y-76283803D01*
X111614803Y-76276918D01*
X111614508Y-76275760D01*
X111500064Y-75704315D01*
X111501798Y-75695535D01*
X111827745Y-75209463D01*
X111835198Y-75204501D01*
X111842436Y-75205390D01*
G37*
%TD.AperFunction*%
%TD*%
%TA.AperFunction,Conductor*%
%TO.N,/IMD_COLUMN*%
G36*
X120993025Y-64997771D02*
G01*
X121000474Y-65002740D01*
X121002228Y-65006975D01*
X121188308Y-65946647D01*
X121186554Y-65955428D01*
X121181076Y-65959823D01*
X119782927Y-66504260D01*
X119773975Y-66504068D01*
X119770409Y-66501630D01*
X119498369Y-66229590D01*
X119494942Y-66221317D01*
X119495739Y-66217072D01*
X120040176Y-64818922D01*
X120046372Y-64812457D01*
X120053349Y-64811691D01*
X120993025Y-64997771D01*
G37*
%TD.AperFunction*%
%TD*%
%TA.AperFunction,Conductor*%
%TO.N,/IMD_COLUMN*%
G36*
X106034679Y-77751049D02*
G01*
X106745862Y-78394352D01*
X106749698Y-78402443D01*
X106747752Y-78409513D01*
X106423404Y-78896655D01*
X106415966Y-78901642D01*
X106415932Y-78901649D01*
X105844299Y-79014532D01*
X105835518Y-79012773D01*
X105830554Y-79005321D01*
X105830378Y-79004089D01*
X105777593Y-78409513D01*
X105744067Y-78031869D01*
X105746749Y-78023326D01*
X105747437Y-78022573D01*
X106018558Y-77751452D01*
X106026830Y-77748026D01*
X106034679Y-77751049D01*
G37*
%TD.AperFunction*%
%TD*%
%TA.AperFunction,Conductor*%
%TO.N,+24V*%
G36*
X106923785Y-75377449D02*
G01*
X106924643Y-75378974D01*
X107310897Y-76204644D01*
X107398321Y-76391523D01*
X107398722Y-76400469D01*
X107395996Y-76404754D01*
X107124754Y-76675996D01*
X107116481Y-76679423D01*
X107111524Y-76678321D01*
X106098974Y-76204643D01*
X106092934Y-76198034D01*
X106093335Y-76189088D01*
X106094188Y-76187572D01*
X106417995Y-75701241D01*
X106421241Y-75697995D01*
X106907564Y-75374193D01*
X106916347Y-75372462D01*
X106923785Y-75377449D01*
G37*
%TD.AperFunction*%
%TD*%
%TA.AperFunction,Conductor*%
%TO.N,+24V*%
G36*
X96998045Y-75814970D02*
G01*
X97005486Y-75819952D01*
X97007392Y-75827630D01*
X96924802Y-76637396D01*
X96921435Y-76644482D01*
X96650733Y-76915184D01*
X96642460Y-76918611D01*
X96634187Y-76915184D01*
X96633362Y-76914267D01*
X95929161Y-76043290D01*
X95926624Y-76034702D01*
X95930903Y-76026836D01*
X95931721Y-76026231D01*
X96415255Y-75702000D01*
X96424032Y-75700240D01*
X96998045Y-75814970D01*
G37*
%TD.AperFunction*%
%TD*%
%TA.AperFunction,Conductor*%
%TO.N,/TSAL_COLUMN*%
G36*
X102209173Y-82513476D02*
G01*
X102211253Y-82515086D01*
X102486812Y-82783034D01*
X102490355Y-82791258D01*
X102488751Y-82797337D01*
X102005146Y-83622650D01*
X101998006Y-83628056D01*
X101989136Y-83626830D01*
X101988567Y-83626474D01*
X101503354Y-83303413D01*
X101498367Y-83295975D01*
X101498360Y-83295941D01*
X101497940Y-83293816D01*
X101385114Y-82722508D01*
X101386873Y-82713730D01*
X101393818Y-82708876D01*
X102200324Y-82512107D01*
X102209173Y-82513476D01*
G37*
%TD.AperFunction*%
%TD*%
%TA.AperFunction,Conductor*%
%TO.N,+24V*%
G36*
X107124754Y-80124003D02*
G01*
X107395996Y-80395245D01*
X107399423Y-80403518D01*
X107398321Y-80408476D01*
X106924644Y-81421024D01*
X106918034Y-81427065D01*
X106909088Y-81426664D01*
X106907562Y-81425805D01*
X106900381Y-81421024D01*
X106421244Y-81102006D01*
X106417993Y-81098755D01*
X106094193Y-80612436D01*
X106092462Y-80603652D01*
X106097449Y-80596214D01*
X106098964Y-80595361D01*
X107111526Y-80121677D01*
X107120469Y-80121277D01*
X107124754Y-80124003D01*
G37*
%TD.AperFunction*%
%TD*%
M02*
