%TF.GenerationSoftware,KiCad,Pcbnew,9.0.1*%
%TF.CreationDate,2025-06-14T22:11:51+02:00*%
%TF.ProjectId,PUTM_EV_CART_INDICATOR,5055544d-5f45-4565-9f43-4152545f494e,rev?*%
%TF.SameCoordinates,Original*%
%TF.FileFunction,Drillmap*%
%TF.FilePolarity,Positive*%
%FSLAX45Y45*%
G04 Gerber Fmt 4.5, Leading zero omitted, Abs format (unit mm)*
G04 Created by KiCad (PCBNEW 9.0.1) date 2025-06-14 22:11:51*
%MOMM*%
%LPD*%
G01*
G04 APERTURE LIST*
%ADD10C,0.050000*%
%ADD11C,0.200000*%
%ADD12C,0.100000*%
%ADD13C,0.130000*%
G04 APERTURE END LIST*
D10*
X8200000Y-6000000D02*
X8200000Y-8200000D01*
X9750000Y-8550000D02*
X11650000Y-8550000D01*
X12400000Y-5900000D02*
X8300000Y-5900000D01*
X8200000Y-6000000D02*
G75*
G02*
X8300000Y-5900000I100000J0D01*
G01*
X12500000Y-6000000D02*
X12500000Y-8200000D01*
X8300000Y-8300000D02*
X9500000Y-8300000D01*
X11900000Y-8300000D02*
X11650000Y-8550000D01*
X12500000Y-8200000D02*
G75*
G02*
X12400000Y-8300000I-100000J0D01*
G01*
X9500000Y-8300000D02*
X9750000Y-8550000D01*
X12400000Y-5900000D02*
G75*
G02*
X12500000Y-6000000I0J-100000D01*
G01*
X8300000Y-8300000D02*
G75*
G02*
X8200000Y-8200000I0J100000D01*
G01*
X12400000Y-8300000D02*
X11900000Y-8300000D01*
D11*
D12*
X8935000Y-7835000D02*
X8965000Y-7865000D01*
X8965000Y-7835000D02*
X8935000Y-7865000D01*
X9585000Y-8085000D02*
X9615000Y-8115000D01*
X9615000Y-8085000D02*
X9585000Y-8115000D01*
X9785000Y-7485000D02*
X9815000Y-7515000D01*
X9815000Y-7485000D02*
X9785000Y-7515000D01*
X10135000Y-8185000D02*
X10165000Y-8215000D01*
X10165000Y-8185000D02*
X10135000Y-8215000D01*
X10185000Y-7835000D02*
X10215000Y-7865000D01*
X10215000Y-7835000D02*
X10185000Y-7865000D01*
X10685000Y-7485000D02*
X10715000Y-7515000D01*
X10715000Y-7485000D02*
X10685000Y-7515000D01*
X10685000Y-7885000D02*
X10715000Y-7915000D01*
X10715000Y-7885000D02*
X10685000Y-7915000D01*
X10685000Y-8385000D02*
X10715000Y-8415000D01*
X10715000Y-8385000D02*
X10685000Y-8415000D01*
X11235000Y-7835000D02*
X11265000Y-7865000D01*
X11265000Y-7835000D02*
X11235000Y-7865000D01*
X11235000Y-8235000D02*
X11265000Y-8265000D01*
X11265000Y-8235000D02*
X11235000Y-8265000D01*
X11706875Y-7456875D02*
X11736875Y-7486875D01*
X11736875Y-7456875D02*
X11706875Y-7486875D01*
X11735000Y-8235000D02*
X11765000Y-8265000D01*
X11765000Y-8235000D02*
X11735000Y-8265000D01*
X12105000Y-7385000D02*
X12135000Y-7415000D01*
X12135000Y-7385000D02*
X12105000Y-7415000D01*
X12335000Y-8135000D02*
X12365000Y-8165000D01*
X12365000Y-8135000D02*
X12335000Y-8165000D01*
X9973250Y-7530000D02*
G75*
G02*
X9898250Y-7530000I-37500J0D01*
G01*
X9898250Y-7530000D02*
G75*
G02*
X9973250Y-7530000I37500J0D01*
G01*
X9973250Y-7850000D02*
G75*
G02*
X9898250Y-7850000I-37500J0D01*
G01*
X9898250Y-7850000D02*
G75*
G02*
X9973250Y-7850000I37500J0D01*
G01*
X9973250Y-8070000D02*
G75*
G02*
X9898250Y-8070000I-37500J0D01*
G01*
X9898250Y-8070000D02*
G75*
G02*
X9973250Y-8070000I37500J0D01*
G01*
X9973250Y-8290000D02*
G75*
G02*
X9898250Y-8290000I-37500J0D01*
G01*
X9898250Y-8290000D02*
G75*
G02*
X9973250Y-8290000I37500J0D01*
G01*
X10481250Y-7530000D02*
G75*
G02*
X10406250Y-7530000I-37500J0D01*
G01*
X10406250Y-7530000D02*
G75*
G02*
X10481250Y-7530000I37500J0D01*
G01*
X10481250Y-7850000D02*
G75*
G02*
X10406250Y-7850000I-37500J0D01*
G01*
X10406250Y-7850000D02*
G75*
G02*
X10481250Y-7850000I37500J0D01*
G01*
X10481250Y-8070000D02*
G75*
G02*
X10406250Y-8070000I-37500J0D01*
G01*
X10406250Y-8070000D02*
G75*
G02*
X10481250Y-8070000I37500J0D01*
G01*
X10481250Y-8290000D02*
G75*
G02*
X10406250Y-8290000I-37500J0D01*
G01*
X10406250Y-8290000D02*
G75*
G02*
X10481250Y-8290000I37500J0D01*
G01*
X10973250Y-7550000D02*
G75*
G02*
X10898250Y-7550000I-37500J0D01*
G01*
X10898250Y-7550000D02*
G75*
G02*
X10973250Y-7550000I37500J0D01*
G01*
X10973250Y-7870000D02*
G75*
G02*
X10898250Y-7870000I-37500J0D01*
G01*
X10898250Y-7870000D02*
G75*
G02*
X10973250Y-7870000I37500J0D01*
G01*
X10973250Y-8090000D02*
G75*
G02*
X10898250Y-8090000I-37500J0D01*
G01*
X10898250Y-8090000D02*
G75*
G02*
X10973250Y-8090000I37500J0D01*
G01*
X10973250Y-8310000D02*
G75*
G02*
X10898250Y-8310000I-37500J0D01*
G01*
X10898250Y-8310000D02*
G75*
G02*
X10973250Y-8310000I37500J0D01*
G01*
X11481250Y-7550000D02*
G75*
G02*
X11406250Y-7550000I-37500J0D01*
G01*
X11406250Y-7550000D02*
G75*
G02*
X11481250Y-7550000I37500J0D01*
G01*
X11481250Y-7870000D02*
G75*
G02*
X11406250Y-7870000I-37500J0D01*
G01*
X11406250Y-7870000D02*
G75*
G02*
X11481250Y-7870000I37500J0D01*
G01*
X11481250Y-8090000D02*
G75*
G02*
X11406250Y-8090000I-37500J0D01*
G01*
X11406250Y-8090000D02*
G75*
G02*
X11481250Y-8090000I37500J0D01*
G01*
X11481250Y-8310000D02*
G75*
G02*
X11406250Y-8310000I-37500J0D01*
G01*
X11406250Y-8310000D02*
G75*
G02*
X11481250Y-8310000I37500J0D01*
G01*
D13*
X8600000Y-6463000D02*
X8600000Y-6593000D01*
X8535000Y-6528000D02*
X8665000Y-6528000D01*
X9100000Y-6463000D02*
X9100000Y-6593000D01*
X9035000Y-6528000D02*
X9165000Y-6528000D01*
X9600000Y-6463000D02*
X9600000Y-6593000D01*
X9535000Y-6528000D02*
X9665000Y-6528000D01*
X10100000Y-6463000D02*
X10100000Y-6593000D01*
X10035000Y-6528000D02*
X10165000Y-6528000D01*
X10600000Y-6463000D02*
X10600000Y-6593000D01*
X10535000Y-6528000D02*
X10665000Y-6528000D01*
X11100000Y-6463000D02*
X11100000Y-6593000D01*
X11035000Y-6528000D02*
X11165000Y-6528000D01*
X11600000Y-6463000D02*
X11600000Y-6593000D01*
X11535000Y-6528000D02*
X11665000Y-6528000D01*
X12100000Y-6463000D02*
X12100000Y-6593000D01*
X12035000Y-6528000D02*
X12165000Y-6528000D01*
D11*
X8458277Y-8863984D02*
X8458277Y-8663984D01*
X8458277Y-8663984D02*
X8505896Y-8663984D01*
X8505896Y-8663984D02*
X8534467Y-8673508D01*
X8534467Y-8673508D02*
X8553515Y-8692555D01*
X8553515Y-8692555D02*
X8563039Y-8711603D01*
X8563039Y-8711603D02*
X8572563Y-8749698D01*
X8572563Y-8749698D02*
X8572563Y-8778270D01*
X8572563Y-8778270D02*
X8563039Y-8816365D01*
X8563039Y-8816365D02*
X8553515Y-8835412D01*
X8553515Y-8835412D02*
X8534467Y-8854460D01*
X8534467Y-8854460D02*
X8505896Y-8863984D01*
X8505896Y-8863984D02*
X8458277Y-8863984D01*
X8658277Y-8863984D02*
X8658277Y-8730650D01*
X8658277Y-8768746D02*
X8667801Y-8749698D01*
X8667801Y-8749698D02*
X8677324Y-8740174D01*
X8677324Y-8740174D02*
X8696372Y-8730650D01*
X8696372Y-8730650D02*
X8715420Y-8730650D01*
X8782086Y-8863984D02*
X8782086Y-8730650D01*
X8782086Y-8663984D02*
X8772563Y-8673508D01*
X8772563Y-8673508D02*
X8782086Y-8683031D01*
X8782086Y-8683031D02*
X8791610Y-8673508D01*
X8791610Y-8673508D02*
X8782086Y-8663984D01*
X8782086Y-8663984D02*
X8782086Y-8683031D01*
X8905896Y-8863984D02*
X8886848Y-8854460D01*
X8886848Y-8854460D02*
X8877324Y-8835412D01*
X8877324Y-8835412D02*
X8877324Y-8663984D01*
X9010658Y-8863984D02*
X8991610Y-8854460D01*
X8991610Y-8854460D02*
X8982086Y-8835412D01*
X8982086Y-8835412D02*
X8982086Y-8663984D01*
X9239229Y-8863984D02*
X9239229Y-8663984D01*
X9239229Y-8663984D02*
X9305896Y-8806841D01*
X9305896Y-8806841D02*
X9372563Y-8663984D01*
X9372563Y-8663984D02*
X9372563Y-8863984D01*
X9553515Y-8863984D02*
X9553515Y-8759222D01*
X9553515Y-8759222D02*
X9543991Y-8740174D01*
X9543991Y-8740174D02*
X9524944Y-8730650D01*
X9524944Y-8730650D02*
X9486848Y-8730650D01*
X9486848Y-8730650D02*
X9467801Y-8740174D01*
X9553515Y-8854460D02*
X9534467Y-8863984D01*
X9534467Y-8863984D02*
X9486848Y-8863984D01*
X9486848Y-8863984D02*
X9467801Y-8854460D01*
X9467801Y-8854460D02*
X9458277Y-8835412D01*
X9458277Y-8835412D02*
X9458277Y-8816365D01*
X9458277Y-8816365D02*
X9467801Y-8797317D01*
X9467801Y-8797317D02*
X9486848Y-8787793D01*
X9486848Y-8787793D02*
X9534467Y-8787793D01*
X9534467Y-8787793D02*
X9553515Y-8778270D01*
X9648753Y-8730650D02*
X9648753Y-8930650D01*
X9648753Y-8740174D02*
X9667801Y-8730650D01*
X9667801Y-8730650D02*
X9705896Y-8730650D01*
X9705896Y-8730650D02*
X9724944Y-8740174D01*
X9724944Y-8740174D02*
X9734467Y-8749698D01*
X9734467Y-8749698D02*
X9743991Y-8768746D01*
X9743991Y-8768746D02*
X9743991Y-8825889D01*
X9743991Y-8825889D02*
X9734467Y-8844936D01*
X9734467Y-8844936D02*
X9724944Y-8854460D01*
X9724944Y-8854460D02*
X9705896Y-8863984D01*
X9705896Y-8863984D02*
X9667801Y-8863984D01*
X9667801Y-8863984D02*
X9648753Y-8854460D01*
X9829705Y-8844936D02*
X9839229Y-8854460D01*
X9839229Y-8854460D02*
X9829705Y-8863984D01*
X9829705Y-8863984D02*
X9820182Y-8854460D01*
X9820182Y-8854460D02*
X9829705Y-8844936D01*
X9829705Y-8844936D02*
X9829705Y-8863984D01*
X9829705Y-8740174D02*
X9839229Y-8749698D01*
X9839229Y-8749698D02*
X9829705Y-8759222D01*
X9829705Y-8759222D02*
X9820182Y-8749698D01*
X9820182Y-8749698D02*
X9829705Y-8740174D01*
X9829705Y-8740174D02*
X9829705Y-8759222D01*
D12*
X8167500Y-9177500D02*
X8197500Y-9207500D01*
X8197500Y-9177500D02*
X8167500Y-9207500D01*
D11*
X8496372Y-9083984D02*
X8515420Y-9083984D01*
X8515420Y-9083984D02*
X8534467Y-9093508D01*
X8534467Y-9093508D02*
X8543991Y-9103031D01*
X8543991Y-9103031D02*
X8553515Y-9122079D01*
X8553515Y-9122079D02*
X8563039Y-9160174D01*
X8563039Y-9160174D02*
X8563039Y-9207793D01*
X8563039Y-9207793D02*
X8553515Y-9245889D01*
X8553515Y-9245889D02*
X8543991Y-9264936D01*
X8543991Y-9264936D02*
X8534467Y-9274460D01*
X8534467Y-9274460D02*
X8515420Y-9283984D01*
X8515420Y-9283984D02*
X8496372Y-9283984D01*
X8496372Y-9283984D02*
X8477324Y-9274460D01*
X8477324Y-9274460D02*
X8467801Y-9264936D01*
X8467801Y-9264936D02*
X8458277Y-9245889D01*
X8458277Y-9245889D02*
X8448753Y-9207793D01*
X8448753Y-9207793D02*
X8448753Y-9160174D01*
X8448753Y-9160174D02*
X8458277Y-9122079D01*
X8458277Y-9122079D02*
X8467801Y-9103031D01*
X8467801Y-9103031D02*
X8477324Y-9093508D01*
X8477324Y-9093508D02*
X8496372Y-9083984D01*
X8648753Y-9264936D02*
X8658277Y-9274460D01*
X8658277Y-9274460D02*
X8648753Y-9283984D01*
X8648753Y-9283984D02*
X8639229Y-9274460D01*
X8639229Y-9274460D02*
X8648753Y-9264936D01*
X8648753Y-9264936D02*
X8648753Y-9283984D01*
X8724944Y-9083984D02*
X8848753Y-9083984D01*
X8848753Y-9083984D02*
X8782086Y-9160174D01*
X8782086Y-9160174D02*
X8810658Y-9160174D01*
X8810658Y-9160174D02*
X8829705Y-9169698D01*
X8829705Y-9169698D02*
X8839229Y-9179222D01*
X8839229Y-9179222D02*
X8848753Y-9198270D01*
X8848753Y-9198270D02*
X8848753Y-9245889D01*
X8848753Y-9245889D02*
X8839229Y-9264936D01*
X8839229Y-9264936D02*
X8829705Y-9274460D01*
X8829705Y-9274460D02*
X8810658Y-9283984D01*
X8810658Y-9283984D02*
X8753515Y-9283984D01*
X8753515Y-9283984D02*
X8734467Y-9274460D01*
X8734467Y-9274460D02*
X8724944Y-9264936D01*
X8972563Y-9083984D02*
X8991610Y-9083984D01*
X8991610Y-9083984D02*
X9010658Y-9093508D01*
X9010658Y-9093508D02*
X9020182Y-9103031D01*
X9020182Y-9103031D02*
X9029705Y-9122079D01*
X9029705Y-9122079D02*
X9039229Y-9160174D01*
X9039229Y-9160174D02*
X9039229Y-9207793D01*
X9039229Y-9207793D02*
X9029705Y-9245889D01*
X9029705Y-9245889D02*
X9020182Y-9264936D01*
X9020182Y-9264936D02*
X9010658Y-9274460D01*
X9010658Y-9274460D02*
X8991610Y-9283984D01*
X8991610Y-9283984D02*
X8972563Y-9283984D01*
X8972563Y-9283984D02*
X8953515Y-9274460D01*
X8953515Y-9274460D02*
X8943991Y-9264936D01*
X8943991Y-9264936D02*
X8934467Y-9245889D01*
X8934467Y-9245889D02*
X8924944Y-9207793D01*
X8924944Y-9207793D02*
X8924944Y-9160174D01*
X8924944Y-9160174D02*
X8934467Y-9122079D01*
X8934467Y-9122079D02*
X8943991Y-9103031D01*
X8943991Y-9103031D02*
X8953515Y-9093508D01*
X8953515Y-9093508D02*
X8972563Y-9083984D01*
X9163039Y-9083984D02*
X9182086Y-9083984D01*
X9182086Y-9083984D02*
X9201134Y-9093508D01*
X9201134Y-9093508D02*
X9210658Y-9103031D01*
X9210658Y-9103031D02*
X9220182Y-9122079D01*
X9220182Y-9122079D02*
X9229705Y-9160174D01*
X9229705Y-9160174D02*
X9229705Y-9207793D01*
X9229705Y-9207793D02*
X9220182Y-9245889D01*
X9220182Y-9245889D02*
X9210658Y-9264936D01*
X9210658Y-9264936D02*
X9201134Y-9274460D01*
X9201134Y-9274460D02*
X9182086Y-9283984D01*
X9182086Y-9283984D02*
X9163039Y-9283984D01*
X9163039Y-9283984D02*
X9143991Y-9274460D01*
X9143991Y-9274460D02*
X9134467Y-9264936D01*
X9134467Y-9264936D02*
X9124944Y-9245889D01*
X9124944Y-9245889D02*
X9115420Y-9207793D01*
X9115420Y-9207793D02*
X9115420Y-9160174D01*
X9115420Y-9160174D02*
X9124944Y-9122079D01*
X9124944Y-9122079D02*
X9134467Y-9103031D01*
X9134467Y-9103031D02*
X9143991Y-9093508D01*
X9143991Y-9093508D02*
X9163039Y-9083984D01*
X9315420Y-9283984D02*
X9315420Y-9150650D01*
X9315420Y-9169698D02*
X9324944Y-9160174D01*
X9324944Y-9160174D02*
X9343991Y-9150650D01*
X9343991Y-9150650D02*
X9372563Y-9150650D01*
X9372563Y-9150650D02*
X9391610Y-9160174D01*
X9391610Y-9160174D02*
X9401134Y-9179222D01*
X9401134Y-9179222D02*
X9401134Y-9283984D01*
X9401134Y-9179222D02*
X9410658Y-9160174D01*
X9410658Y-9160174D02*
X9429705Y-9150650D01*
X9429705Y-9150650D02*
X9458277Y-9150650D01*
X9458277Y-9150650D02*
X9477325Y-9160174D01*
X9477325Y-9160174D02*
X9486848Y-9179222D01*
X9486848Y-9179222D02*
X9486848Y-9283984D01*
X9582086Y-9283984D02*
X9582086Y-9150650D01*
X9582086Y-9169698D02*
X9591610Y-9160174D01*
X9591610Y-9160174D02*
X9610658Y-9150650D01*
X9610658Y-9150650D02*
X9639229Y-9150650D01*
X9639229Y-9150650D02*
X9658277Y-9160174D01*
X9658277Y-9160174D02*
X9667801Y-9179222D01*
X9667801Y-9179222D02*
X9667801Y-9283984D01*
X9667801Y-9179222D02*
X9677325Y-9160174D01*
X9677325Y-9160174D02*
X9696372Y-9150650D01*
X9696372Y-9150650D02*
X9724944Y-9150650D01*
X9724944Y-9150650D02*
X9743991Y-9160174D01*
X9743991Y-9160174D02*
X9753515Y-9179222D01*
X9753515Y-9179222D02*
X9753515Y-9283984D01*
X10143991Y-9074460D02*
X9972563Y-9331603D01*
X10401134Y-9083984D02*
X10420182Y-9083984D01*
X10420182Y-9083984D02*
X10439229Y-9093508D01*
X10439229Y-9093508D02*
X10448753Y-9103031D01*
X10448753Y-9103031D02*
X10458277Y-9122079D01*
X10458277Y-9122079D02*
X10467801Y-9160174D01*
X10467801Y-9160174D02*
X10467801Y-9207793D01*
X10467801Y-9207793D02*
X10458277Y-9245889D01*
X10458277Y-9245889D02*
X10448753Y-9264936D01*
X10448753Y-9264936D02*
X10439229Y-9274460D01*
X10439229Y-9274460D02*
X10420182Y-9283984D01*
X10420182Y-9283984D02*
X10401134Y-9283984D01*
X10401134Y-9283984D02*
X10382087Y-9274460D01*
X10382087Y-9274460D02*
X10372563Y-9264936D01*
X10372563Y-9264936D02*
X10363039Y-9245889D01*
X10363039Y-9245889D02*
X10353515Y-9207793D01*
X10353515Y-9207793D02*
X10353515Y-9160174D01*
X10353515Y-9160174D02*
X10363039Y-9122079D01*
X10363039Y-9122079D02*
X10372563Y-9103031D01*
X10372563Y-9103031D02*
X10382087Y-9093508D01*
X10382087Y-9093508D02*
X10401134Y-9083984D01*
X10553515Y-9264936D02*
X10563039Y-9274460D01*
X10563039Y-9274460D02*
X10553515Y-9283984D01*
X10553515Y-9283984D02*
X10543991Y-9274460D01*
X10543991Y-9274460D02*
X10553515Y-9264936D01*
X10553515Y-9264936D02*
X10553515Y-9283984D01*
X10686848Y-9083984D02*
X10705896Y-9083984D01*
X10705896Y-9083984D02*
X10724944Y-9093508D01*
X10724944Y-9093508D02*
X10734468Y-9103031D01*
X10734468Y-9103031D02*
X10743991Y-9122079D01*
X10743991Y-9122079D02*
X10753515Y-9160174D01*
X10753515Y-9160174D02*
X10753515Y-9207793D01*
X10753515Y-9207793D02*
X10743991Y-9245889D01*
X10743991Y-9245889D02*
X10734468Y-9264936D01*
X10734468Y-9264936D02*
X10724944Y-9274460D01*
X10724944Y-9274460D02*
X10705896Y-9283984D01*
X10705896Y-9283984D02*
X10686848Y-9283984D01*
X10686848Y-9283984D02*
X10667801Y-9274460D01*
X10667801Y-9274460D02*
X10658277Y-9264936D01*
X10658277Y-9264936D02*
X10648753Y-9245889D01*
X10648753Y-9245889D02*
X10639229Y-9207793D01*
X10639229Y-9207793D02*
X10639229Y-9160174D01*
X10639229Y-9160174D02*
X10648753Y-9122079D01*
X10648753Y-9122079D02*
X10658277Y-9103031D01*
X10658277Y-9103031D02*
X10667801Y-9093508D01*
X10667801Y-9093508D02*
X10686848Y-9083984D01*
X10943991Y-9283984D02*
X10829706Y-9283984D01*
X10886848Y-9283984D02*
X10886848Y-9083984D01*
X10886848Y-9083984D02*
X10867801Y-9112555D01*
X10867801Y-9112555D02*
X10848753Y-9131603D01*
X10848753Y-9131603D02*
X10829706Y-9141127D01*
X11134468Y-9283984D02*
X11020182Y-9283984D01*
X11077325Y-9283984D02*
X11077325Y-9083984D01*
X11077325Y-9083984D02*
X11058277Y-9112555D01*
X11058277Y-9112555D02*
X11039229Y-9131603D01*
X11039229Y-9131603D02*
X11020182Y-9141127D01*
X11248753Y-9169698D02*
X11229706Y-9160174D01*
X11229706Y-9160174D02*
X11220182Y-9150650D01*
X11220182Y-9150650D02*
X11210658Y-9131603D01*
X11210658Y-9131603D02*
X11210658Y-9122079D01*
X11210658Y-9122079D02*
X11220182Y-9103031D01*
X11220182Y-9103031D02*
X11229706Y-9093508D01*
X11229706Y-9093508D02*
X11248753Y-9083984D01*
X11248753Y-9083984D02*
X11286848Y-9083984D01*
X11286848Y-9083984D02*
X11305896Y-9093508D01*
X11305896Y-9093508D02*
X11315420Y-9103031D01*
X11315420Y-9103031D02*
X11324944Y-9122079D01*
X11324944Y-9122079D02*
X11324944Y-9131603D01*
X11324944Y-9131603D02*
X11315420Y-9150650D01*
X11315420Y-9150650D02*
X11305896Y-9160174D01*
X11305896Y-9160174D02*
X11286848Y-9169698D01*
X11286848Y-9169698D02*
X11248753Y-9169698D01*
X11248753Y-9169698D02*
X11229706Y-9179222D01*
X11229706Y-9179222D02*
X11220182Y-9188746D01*
X11220182Y-9188746D02*
X11210658Y-9207793D01*
X11210658Y-9207793D02*
X11210658Y-9245889D01*
X11210658Y-9245889D02*
X11220182Y-9264936D01*
X11220182Y-9264936D02*
X11229706Y-9274460D01*
X11229706Y-9274460D02*
X11248753Y-9283984D01*
X11248753Y-9283984D02*
X11286848Y-9283984D01*
X11286848Y-9283984D02*
X11305896Y-9274460D01*
X11305896Y-9274460D02*
X11315420Y-9264936D01*
X11315420Y-9264936D02*
X11324944Y-9245889D01*
X11324944Y-9245889D02*
X11324944Y-9207793D01*
X11324944Y-9207793D02*
X11315420Y-9188746D01*
X11315420Y-9188746D02*
X11305896Y-9179222D01*
X11305896Y-9179222D02*
X11286848Y-9169698D01*
X11401134Y-9083984D02*
X11401134Y-9122079D01*
X11477325Y-9083984D02*
X11477325Y-9122079D01*
X11772563Y-9360174D02*
X11763039Y-9350650D01*
X11763039Y-9350650D02*
X11743991Y-9322079D01*
X11743991Y-9322079D02*
X11734468Y-9303031D01*
X11734468Y-9303031D02*
X11724944Y-9274460D01*
X11724944Y-9274460D02*
X11715420Y-9226841D01*
X11715420Y-9226841D02*
X11715420Y-9188746D01*
X11715420Y-9188746D02*
X11724944Y-9141127D01*
X11724944Y-9141127D02*
X11734468Y-9112555D01*
X11734468Y-9112555D02*
X11743991Y-9093508D01*
X11743991Y-9093508D02*
X11763039Y-9064936D01*
X11763039Y-9064936D02*
X11772563Y-9055412D01*
X11953515Y-9283984D02*
X11839229Y-9283984D01*
X11896372Y-9283984D02*
X11896372Y-9083984D01*
X11896372Y-9083984D02*
X11877325Y-9112555D01*
X11877325Y-9112555D02*
X11858277Y-9131603D01*
X11858277Y-9131603D02*
X11839229Y-9141127D01*
X12124944Y-9150650D02*
X12124944Y-9283984D01*
X12077325Y-9074460D02*
X12029706Y-9217317D01*
X12029706Y-9217317D02*
X12153515Y-9217317D01*
X12382087Y-9283984D02*
X12382087Y-9083984D01*
X12467801Y-9283984D02*
X12467801Y-9179222D01*
X12467801Y-9179222D02*
X12458277Y-9160174D01*
X12458277Y-9160174D02*
X12439230Y-9150650D01*
X12439230Y-9150650D02*
X12410658Y-9150650D01*
X12410658Y-9150650D02*
X12391610Y-9160174D01*
X12391610Y-9160174D02*
X12382087Y-9169698D01*
X12591610Y-9283984D02*
X12572563Y-9274460D01*
X12572563Y-9274460D02*
X12563039Y-9264936D01*
X12563039Y-9264936D02*
X12553515Y-9245889D01*
X12553515Y-9245889D02*
X12553515Y-9188746D01*
X12553515Y-9188746D02*
X12563039Y-9169698D01*
X12563039Y-9169698D02*
X12572563Y-9160174D01*
X12572563Y-9160174D02*
X12591610Y-9150650D01*
X12591610Y-9150650D02*
X12620182Y-9150650D01*
X12620182Y-9150650D02*
X12639230Y-9160174D01*
X12639230Y-9160174D02*
X12648753Y-9169698D01*
X12648753Y-9169698D02*
X12658277Y-9188746D01*
X12658277Y-9188746D02*
X12658277Y-9245889D01*
X12658277Y-9245889D02*
X12648753Y-9264936D01*
X12648753Y-9264936D02*
X12639230Y-9274460D01*
X12639230Y-9274460D02*
X12620182Y-9283984D01*
X12620182Y-9283984D02*
X12591610Y-9283984D01*
X12772563Y-9283984D02*
X12753515Y-9274460D01*
X12753515Y-9274460D02*
X12743991Y-9255412D01*
X12743991Y-9255412D02*
X12743991Y-9083984D01*
X12924944Y-9274460D02*
X12905896Y-9283984D01*
X12905896Y-9283984D02*
X12867801Y-9283984D01*
X12867801Y-9283984D02*
X12848753Y-9274460D01*
X12848753Y-9274460D02*
X12839230Y-9255412D01*
X12839230Y-9255412D02*
X12839230Y-9179222D01*
X12839230Y-9179222D02*
X12848753Y-9160174D01*
X12848753Y-9160174D02*
X12867801Y-9150650D01*
X12867801Y-9150650D02*
X12905896Y-9150650D01*
X12905896Y-9150650D02*
X12924944Y-9160174D01*
X12924944Y-9160174D02*
X12934468Y-9179222D01*
X12934468Y-9179222D02*
X12934468Y-9198270D01*
X12934468Y-9198270D02*
X12839230Y-9217317D01*
X13010658Y-9274460D02*
X13029706Y-9283984D01*
X13029706Y-9283984D02*
X13067801Y-9283984D01*
X13067801Y-9283984D02*
X13086849Y-9274460D01*
X13086849Y-9274460D02*
X13096372Y-9255412D01*
X13096372Y-9255412D02*
X13096372Y-9245889D01*
X13096372Y-9245889D02*
X13086849Y-9226841D01*
X13086849Y-9226841D02*
X13067801Y-9217317D01*
X13067801Y-9217317D02*
X13039230Y-9217317D01*
X13039230Y-9217317D02*
X13020182Y-9207793D01*
X13020182Y-9207793D02*
X13010658Y-9188746D01*
X13010658Y-9188746D02*
X13010658Y-9179222D01*
X13010658Y-9179222D02*
X13020182Y-9160174D01*
X13020182Y-9160174D02*
X13039230Y-9150650D01*
X13039230Y-9150650D02*
X13067801Y-9150650D01*
X13067801Y-9150650D02*
X13086849Y-9160174D01*
X13163039Y-9360174D02*
X13172563Y-9350650D01*
X13172563Y-9350650D02*
X13191611Y-9322079D01*
X13191611Y-9322079D02*
X13201134Y-9303031D01*
X13201134Y-9303031D02*
X13210658Y-9274460D01*
X13210658Y-9274460D02*
X13220182Y-9226841D01*
X13220182Y-9226841D02*
X13220182Y-9188746D01*
X13220182Y-9188746D02*
X13210658Y-9141127D01*
X13210658Y-9141127D02*
X13201134Y-9112555D01*
X13201134Y-9112555D02*
X13191611Y-9093508D01*
X13191611Y-9093508D02*
X13172563Y-9064936D01*
X13172563Y-9064936D02*
X13163039Y-9055412D01*
D12*
X8197500Y-9456500D02*
G75*
G02*
X8122500Y-9456500I-37500J0D01*
G01*
X8122500Y-9456500D02*
G75*
G02*
X8197500Y-9456500I37500J0D01*
G01*
D11*
X8496372Y-9347984D02*
X8515420Y-9347984D01*
X8515420Y-9347984D02*
X8534467Y-9357508D01*
X8534467Y-9357508D02*
X8543991Y-9367031D01*
X8543991Y-9367031D02*
X8553515Y-9386079D01*
X8553515Y-9386079D02*
X8563039Y-9424174D01*
X8563039Y-9424174D02*
X8563039Y-9471793D01*
X8563039Y-9471793D02*
X8553515Y-9509889D01*
X8553515Y-9509889D02*
X8543991Y-9528936D01*
X8543991Y-9528936D02*
X8534467Y-9538460D01*
X8534467Y-9538460D02*
X8515420Y-9547984D01*
X8515420Y-9547984D02*
X8496372Y-9547984D01*
X8496372Y-9547984D02*
X8477324Y-9538460D01*
X8477324Y-9538460D02*
X8467801Y-9528936D01*
X8467801Y-9528936D02*
X8458277Y-9509889D01*
X8458277Y-9509889D02*
X8448753Y-9471793D01*
X8448753Y-9471793D02*
X8448753Y-9424174D01*
X8448753Y-9424174D02*
X8458277Y-9386079D01*
X8458277Y-9386079D02*
X8467801Y-9367031D01*
X8467801Y-9367031D02*
X8477324Y-9357508D01*
X8477324Y-9357508D02*
X8496372Y-9347984D01*
X8648753Y-9528936D02*
X8658277Y-9538460D01*
X8658277Y-9538460D02*
X8648753Y-9547984D01*
X8648753Y-9547984D02*
X8639229Y-9538460D01*
X8639229Y-9538460D02*
X8648753Y-9528936D01*
X8648753Y-9528936D02*
X8648753Y-9547984D01*
X8724944Y-9347984D02*
X8858277Y-9347984D01*
X8858277Y-9347984D02*
X8772563Y-9547984D01*
X9029705Y-9347984D02*
X8934467Y-9347984D01*
X8934467Y-9347984D02*
X8924944Y-9443222D01*
X8924944Y-9443222D02*
X8934467Y-9433698D01*
X8934467Y-9433698D02*
X8953515Y-9424174D01*
X8953515Y-9424174D02*
X9001134Y-9424174D01*
X9001134Y-9424174D02*
X9020182Y-9433698D01*
X9020182Y-9433698D02*
X9029705Y-9443222D01*
X9029705Y-9443222D02*
X9039229Y-9462270D01*
X9039229Y-9462270D02*
X9039229Y-9509889D01*
X9039229Y-9509889D02*
X9029705Y-9528936D01*
X9029705Y-9528936D02*
X9020182Y-9538460D01*
X9020182Y-9538460D02*
X9001134Y-9547984D01*
X9001134Y-9547984D02*
X8953515Y-9547984D01*
X8953515Y-9547984D02*
X8934467Y-9538460D01*
X8934467Y-9538460D02*
X8924944Y-9528936D01*
X9163039Y-9347984D02*
X9182086Y-9347984D01*
X9182086Y-9347984D02*
X9201134Y-9357508D01*
X9201134Y-9357508D02*
X9210658Y-9367031D01*
X9210658Y-9367031D02*
X9220182Y-9386079D01*
X9220182Y-9386079D02*
X9229705Y-9424174D01*
X9229705Y-9424174D02*
X9229705Y-9471793D01*
X9229705Y-9471793D02*
X9220182Y-9509889D01*
X9220182Y-9509889D02*
X9210658Y-9528936D01*
X9210658Y-9528936D02*
X9201134Y-9538460D01*
X9201134Y-9538460D02*
X9182086Y-9547984D01*
X9182086Y-9547984D02*
X9163039Y-9547984D01*
X9163039Y-9547984D02*
X9143991Y-9538460D01*
X9143991Y-9538460D02*
X9134467Y-9528936D01*
X9134467Y-9528936D02*
X9124944Y-9509889D01*
X9124944Y-9509889D02*
X9115420Y-9471793D01*
X9115420Y-9471793D02*
X9115420Y-9424174D01*
X9115420Y-9424174D02*
X9124944Y-9386079D01*
X9124944Y-9386079D02*
X9134467Y-9367031D01*
X9134467Y-9367031D02*
X9143991Y-9357508D01*
X9143991Y-9357508D02*
X9163039Y-9347984D01*
X9315420Y-9547984D02*
X9315420Y-9414650D01*
X9315420Y-9433698D02*
X9324944Y-9424174D01*
X9324944Y-9424174D02*
X9343991Y-9414650D01*
X9343991Y-9414650D02*
X9372563Y-9414650D01*
X9372563Y-9414650D02*
X9391610Y-9424174D01*
X9391610Y-9424174D02*
X9401134Y-9443222D01*
X9401134Y-9443222D02*
X9401134Y-9547984D01*
X9401134Y-9443222D02*
X9410658Y-9424174D01*
X9410658Y-9424174D02*
X9429705Y-9414650D01*
X9429705Y-9414650D02*
X9458277Y-9414650D01*
X9458277Y-9414650D02*
X9477325Y-9424174D01*
X9477325Y-9424174D02*
X9486848Y-9443222D01*
X9486848Y-9443222D02*
X9486848Y-9547984D01*
X9582086Y-9547984D02*
X9582086Y-9414650D01*
X9582086Y-9433698D02*
X9591610Y-9424174D01*
X9591610Y-9424174D02*
X9610658Y-9414650D01*
X9610658Y-9414650D02*
X9639229Y-9414650D01*
X9639229Y-9414650D02*
X9658277Y-9424174D01*
X9658277Y-9424174D02*
X9667801Y-9443222D01*
X9667801Y-9443222D02*
X9667801Y-9547984D01*
X9667801Y-9443222D02*
X9677325Y-9424174D01*
X9677325Y-9424174D02*
X9696372Y-9414650D01*
X9696372Y-9414650D02*
X9724944Y-9414650D01*
X9724944Y-9414650D02*
X9743991Y-9424174D01*
X9743991Y-9424174D02*
X9753515Y-9443222D01*
X9753515Y-9443222D02*
X9753515Y-9547984D01*
X10143991Y-9338460D02*
X9972563Y-9595603D01*
X10401134Y-9347984D02*
X10420182Y-9347984D01*
X10420182Y-9347984D02*
X10439229Y-9357508D01*
X10439229Y-9357508D02*
X10448753Y-9367031D01*
X10448753Y-9367031D02*
X10458277Y-9386079D01*
X10458277Y-9386079D02*
X10467801Y-9424174D01*
X10467801Y-9424174D02*
X10467801Y-9471793D01*
X10467801Y-9471793D02*
X10458277Y-9509889D01*
X10458277Y-9509889D02*
X10448753Y-9528936D01*
X10448753Y-9528936D02*
X10439229Y-9538460D01*
X10439229Y-9538460D02*
X10420182Y-9547984D01*
X10420182Y-9547984D02*
X10401134Y-9547984D01*
X10401134Y-9547984D02*
X10382087Y-9538460D01*
X10382087Y-9538460D02*
X10372563Y-9528936D01*
X10372563Y-9528936D02*
X10363039Y-9509889D01*
X10363039Y-9509889D02*
X10353515Y-9471793D01*
X10353515Y-9471793D02*
X10353515Y-9424174D01*
X10353515Y-9424174D02*
X10363039Y-9386079D01*
X10363039Y-9386079D02*
X10372563Y-9367031D01*
X10372563Y-9367031D02*
X10382087Y-9357508D01*
X10382087Y-9357508D02*
X10401134Y-9347984D01*
X10553515Y-9528936D02*
X10563039Y-9538460D01*
X10563039Y-9538460D02*
X10553515Y-9547984D01*
X10553515Y-9547984D02*
X10543991Y-9538460D01*
X10543991Y-9538460D02*
X10553515Y-9528936D01*
X10553515Y-9528936D02*
X10553515Y-9547984D01*
X10686848Y-9347984D02*
X10705896Y-9347984D01*
X10705896Y-9347984D02*
X10724944Y-9357508D01*
X10724944Y-9357508D02*
X10734468Y-9367031D01*
X10734468Y-9367031D02*
X10743991Y-9386079D01*
X10743991Y-9386079D02*
X10753515Y-9424174D01*
X10753515Y-9424174D02*
X10753515Y-9471793D01*
X10753515Y-9471793D02*
X10743991Y-9509889D01*
X10743991Y-9509889D02*
X10734468Y-9528936D01*
X10734468Y-9528936D02*
X10724944Y-9538460D01*
X10724944Y-9538460D02*
X10705896Y-9547984D01*
X10705896Y-9547984D02*
X10686848Y-9547984D01*
X10686848Y-9547984D02*
X10667801Y-9538460D01*
X10667801Y-9538460D02*
X10658277Y-9528936D01*
X10658277Y-9528936D02*
X10648753Y-9509889D01*
X10648753Y-9509889D02*
X10639229Y-9471793D01*
X10639229Y-9471793D02*
X10639229Y-9424174D01*
X10639229Y-9424174D02*
X10648753Y-9386079D01*
X10648753Y-9386079D02*
X10658277Y-9367031D01*
X10658277Y-9367031D02*
X10667801Y-9357508D01*
X10667801Y-9357508D02*
X10686848Y-9347984D01*
X10829706Y-9367031D02*
X10839229Y-9357508D01*
X10839229Y-9357508D02*
X10858277Y-9347984D01*
X10858277Y-9347984D02*
X10905896Y-9347984D01*
X10905896Y-9347984D02*
X10924944Y-9357508D01*
X10924944Y-9357508D02*
X10934468Y-9367031D01*
X10934468Y-9367031D02*
X10943991Y-9386079D01*
X10943991Y-9386079D02*
X10943991Y-9405127D01*
X10943991Y-9405127D02*
X10934468Y-9433698D01*
X10934468Y-9433698D02*
X10820182Y-9547984D01*
X10820182Y-9547984D02*
X10943991Y-9547984D01*
X11039229Y-9547984D02*
X11077325Y-9547984D01*
X11077325Y-9547984D02*
X11096372Y-9538460D01*
X11096372Y-9538460D02*
X11105896Y-9528936D01*
X11105896Y-9528936D02*
X11124944Y-9500365D01*
X11124944Y-9500365D02*
X11134468Y-9462270D01*
X11134468Y-9462270D02*
X11134468Y-9386079D01*
X11134468Y-9386079D02*
X11124944Y-9367031D01*
X11124944Y-9367031D02*
X11115420Y-9357508D01*
X11115420Y-9357508D02*
X11096372Y-9347984D01*
X11096372Y-9347984D02*
X11058277Y-9347984D01*
X11058277Y-9347984D02*
X11039229Y-9357508D01*
X11039229Y-9357508D02*
X11029706Y-9367031D01*
X11029706Y-9367031D02*
X11020182Y-9386079D01*
X11020182Y-9386079D02*
X11020182Y-9433698D01*
X11020182Y-9433698D02*
X11029706Y-9452746D01*
X11029706Y-9452746D02*
X11039229Y-9462270D01*
X11039229Y-9462270D02*
X11058277Y-9471793D01*
X11058277Y-9471793D02*
X11096372Y-9471793D01*
X11096372Y-9471793D02*
X11115420Y-9462270D01*
X11115420Y-9462270D02*
X11124944Y-9452746D01*
X11124944Y-9452746D02*
X11134468Y-9433698D01*
X11315420Y-9347984D02*
X11220182Y-9347984D01*
X11220182Y-9347984D02*
X11210658Y-9443222D01*
X11210658Y-9443222D02*
X11220182Y-9433698D01*
X11220182Y-9433698D02*
X11239229Y-9424174D01*
X11239229Y-9424174D02*
X11286848Y-9424174D01*
X11286848Y-9424174D02*
X11305896Y-9433698D01*
X11305896Y-9433698D02*
X11315420Y-9443222D01*
X11315420Y-9443222D02*
X11324944Y-9462270D01*
X11324944Y-9462270D02*
X11324944Y-9509889D01*
X11324944Y-9509889D02*
X11315420Y-9528936D01*
X11315420Y-9528936D02*
X11305896Y-9538460D01*
X11305896Y-9538460D02*
X11286848Y-9547984D01*
X11286848Y-9547984D02*
X11239229Y-9547984D01*
X11239229Y-9547984D02*
X11220182Y-9538460D01*
X11220182Y-9538460D02*
X11210658Y-9528936D01*
X11401134Y-9347984D02*
X11401134Y-9386079D01*
X11477325Y-9347984D02*
X11477325Y-9386079D01*
X11772563Y-9624174D02*
X11763039Y-9614650D01*
X11763039Y-9614650D02*
X11743991Y-9586079D01*
X11743991Y-9586079D02*
X11734468Y-9567031D01*
X11734468Y-9567031D02*
X11724944Y-9538460D01*
X11724944Y-9538460D02*
X11715420Y-9490841D01*
X11715420Y-9490841D02*
X11715420Y-9452746D01*
X11715420Y-9452746D02*
X11724944Y-9405127D01*
X11724944Y-9405127D02*
X11734468Y-9376555D01*
X11734468Y-9376555D02*
X11743991Y-9357508D01*
X11743991Y-9357508D02*
X11763039Y-9328936D01*
X11763039Y-9328936D02*
X11772563Y-9319412D01*
X11953515Y-9547984D02*
X11839229Y-9547984D01*
X11896372Y-9547984D02*
X11896372Y-9347984D01*
X11896372Y-9347984D02*
X11877325Y-9376555D01*
X11877325Y-9376555D02*
X11858277Y-9395603D01*
X11858277Y-9395603D02*
X11839229Y-9405127D01*
X12124944Y-9347984D02*
X12086848Y-9347984D01*
X12086848Y-9347984D02*
X12067801Y-9357508D01*
X12067801Y-9357508D02*
X12058277Y-9367031D01*
X12058277Y-9367031D02*
X12039229Y-9395603D01*
X12039229Y-9395603D02*
X12029706Y-9433698D01*
X12029706Y-9433698D02*
X12029706Y-9509889D01*
X12029706Y-9509889D02*
X12039229Y-9528936D01*
X12039229Y-9528936D02*
X12048753Y-9538460D01*
X12048753Y-9538460D02*
X12067801Y-9547984D01*
X12067801Y-9547984D02*
X12105896Y-9547984D01*
X12105896Y-9547984D02*
X12124944Y-9538460D01*
X12124944Y-9538460D02*
X12134468Y-9528936D01*
X12134468Y-9528936D02*
X12143991Y-9509889D01*
X12143991Y-9509889D02*
X12143991Y-9462270D01*
X12143991Y-9462270D02*
X12134468Y-9443222D01*
X12134468Y-9443222D02*
X12124944Y-9433698D01*
X12124944Y-9433698D02*
X12105896Y-9424174D01*
X12105896Y-9424174D02*
X12067801Y-9424174D01*
X12067801Y-9424174D02*
X12048753Y-9433698D01*
X12048753Y-9433698D02*
X12039229Y-9443222D01*
X12039229Y-9443222D02*
X12029706Y-9462270D01*
X12382087Y-9547984D02*
X12382087Y-9347984D01*
X12467801Y-9547984D02*
X12467801Y-9443222D01*
X12467801Y-9443222D02*
X12458277Y-9424174D01*
X12458277Y-9424174D02*
X12439230Y-9414650D01*
X12439230Y-9414650D02*
X12410658Y-9414650D01*
X12410658Y-9414650D02*
X12391610Y-9424174D01*
X12391610Y-9424174D02*
X12382087Y-9433698D01*
X12591610Y-9547984D02*
X12572563Y-9538460D01*
X12572563Y-9538460D02*
X12563039Y-9528936D01*
X12563039Y-9528936D02*
X12553515Y-9509889D01*
X12553515Y-9509889D02*
X12553515Y-9452746D01*
X12553515Y-9452746D02*
X12563039Y-9433698D01*
X12563039Y-9433698D02*
X12572563Y-9424174D01*
X12572563Y-9424174D02*
X12591610Y-9414650D01*
X12591610Y-9414650D02*
X12620182Y-9414650D01*
X12620182Y-9414650D02*
X12639230Y-9424174D01*
X12639230Y-9424174D02*
X12648753Y-9433698D01*
X12648753Y-9433698D02*
X12658277Y-9452746D01*
X12658277Y-9452746D02*
X12658277Y-9509889D01*
X12658277Y-9509889D02*
X12648753Y-9528936D01*
X12648753Y-9528936D02*
X12639230Y-9538460D01*
X12639230Y-9538460D02*
X12620182Y-9547984D01*
X12620182Y-9547984D02*
X12591610Y-9547984D01*
X12772563Y-9547984D02*
X12753515Y-9538460D01*
X12753515Y-9538460D02*
X12743991Y-9519412D01*
X12743991Y-9519412D02*
X12743991Y-9347984D01*
X12924944Y-9538460D02*
X12905896Y-9547984D01*
X12905896Y-9547984D02*
X12867801Y-9547984D01*
X12867801Y-9547984D02*
X12848753Y-9538460D01*
X12848753Y-9538460D02*
X12839230Y-9519412D01*
X12839230Y-9519412D02*
X12839230Y-9443222D01*
X12839230Y-9443222D02*
X12848753Y-9424174D01*
X12848753Y-9424174D02*
X12867801Y-9414650D01*
X12867801Y-9414650D02*
X12905896Y-9414650D01*
X12905896Y-9414650D02*
X12924944Y-9424174D01*
X12924944Y-9424174D02*
X12934468Y-9443222D01*
X12934468Y-9443222D02*
X12934468Y-9462270D01*
X12934468Y-9462270D02*
X12839230Y-9481317D01*
X13010658Y-9538460D02*
X13029706Y-9547984D01*
X13029706Y-9547984D02*
X13067801Y-9547984D01*
X13067801Y-9547984D02*
X13086849Y-9538460D01*
X13086849Y-9538460D02*
X13096372Y-9519412D01*
X13096372Y-9519412D02*
X13096372Y-9509889D01*
X13096372Y-9509889D02*
X13086849Y-9490841D01*
X13086849Y-9490841D02*
X13067801Y-9481317D01*
X13067801Y-9481317D02*
X13039230Y-9481317D01*
X13039230Y-9481317D02*
X13020182Y-9471793D01*
X13020182Y-9471793D02*
X13010658Y-9452746D01*
X13010658Y-9452746D02*
X13010658Y-9443222D01*
X13010658Y-9443222D02*
X13020182Y-9424174D01*
X13020182Y-9424174D02*
X13039230Y-9414650D01*
X13039230Y-9414650D02*
X13067801Y-9414650D01*
X13067801Y-9414650D02*
X13086849Y-9424174D01*
X13163039Y-9624174D02*
X13172563Y-9614650D01*
X13172563Y-9614650D02*
X13191611Y-9586079D01*
X13191611Y-9586079D02*
X13201134Y-9567031D01*
X13201134Y-9567031D02*
X13210658Y-9538460D01*
X13210658Y-9538460D02*
X13220182Y-9490841D01*
X13220182Y-9490841D02*
X13220182Y-9452746D01*
X13220182Y-9452746D02*
X13210658Y-9405127D01*
X13210658Y-9405127D02*
X13201134Y-9376555D01*
X13201134Y-9376555D02*
X13191611Y-9357508D01*
X13191611Y-9357508D02*
X13172563Y-9328936D01*
X13172563Y-9328936D02*
X13163039Y-9319412D01*
D13*
X8132500Y-9655500D02*
X8132500Y-9785500D01*
X8067500Y-9720500D02*
X8197500Y-9720500D01*
D11*
X8563039Y-9811984D02*
X8448753Y-9811984D01*
X8505896Y-9811984D02*
X8505896Y-9611984D01*
X8505896Y-9611984D02*
X8486848Y-9640555D01*
X8486848Y-9640555D02*
X8467801Y-9659603D01*
X8467801Y-9659603D02*
X8448753Y-9669127D01*
X8648753Y-9792936D02*
X8658277Y-9802460D01*
X8658277Y-9802460D02*
X8648753Y-9811984D01*
X8648753Y-9811984D02*
X8639229Y-9802460D01*
X8639229Y-9802460D02*
X8648753Y-9792936D01*
X8648753Y-9792936D02*
X8648753Y-9811984D01*
X8724944Y-9611984D02*
X8848753Y-9611984D01*
X8848753Y-9611984D02*
X8782086Y-9688174D01*
X8782086Y-9688174D02*
X8810658Y-9688174D01*
X8810658Y-9688174D02*
X8829705Y-9697698D01*
X8829705Y-9697698D02*
X8839229Y-9707222D01*
X8839229Y-9707222D02*
X8848753Y-9726270D01*
X8848753Y-9726270D02*
X8848753Y-9773889D01*
X8848753Y-9773889D02*
X8839229Y-9792936D01*
X8839229Y-9792936D02*
X8829705Y-9802460D01*
X8829705Y-9802460D02*
X8810658Y-9811984D01*
X8810658Y-9811984D02*
X8753515Y-9811984D01*
X8753515Y-9811984D02*
X8734467Y-9802460D01*
X8734467Y-9802460D02*
X8724944Y-9792936D01*
X8972563Y-9611984D02*
X8991610Y-9611984D01*
X8991610Y-9611984D02*
X9010658Y-9621508D01*
X9010658Y-9621508D02*
X9020182Y-9631031D01*
X9020182Y-9631031D02*
X9029705Y-9650079D01*
X9029705Y-9650079D02*
X9039229Y-9688174D01*
X9039229Y-9688174D02*
X9039229Y-9735793D01*
X9039229Y-9735793D02*
X9029705Y-9773889D01*
X9029705Y-9773889D02*
X9020182Y-9792936D01*
X9020182Y-9792936D02*
X9010658Y-9802460D01*
X9010658Y-9802460D02*
X8991610Y-9811984D01*
X8991610Y-9811984D02*
X8972563Y-9811984D01*
X8972563Y-9811984D02*
X8953515Y-9802460D01*
X8953515Y-9802460D02*
X8943991Y-9792936D01*
X8943991Y-9792936D02*
X8934467Y-9773889D01*
X8934467Y-9773889D02*
X8924944Y-9735793D01*
X8924944Y-9735793D02*
X8924944Y-9688174D01*
X8924944Y-9688174D02*
X8934467Y-9650079D01*
X8934467Y-9650079D02*
X8943991Y-9631031D01*
X8943991Y-9631031D02*
X8953515Y-9621508D01*
X8953515Y-9621508D02*
X8972563Y-9611984D01*
X9163039Y-9611984D02*
X9182086Y-9611984D01*
X9182086Y-9611984D02*
X9201134Y-9621508D01*
X9201134Y-9621508D02*
X9210658Y-9631031D01*
X9210658Y-9631031D02*
X9220182Y-9650079D01*
X9220182Y-9650079D02*
X9229705Y-9688174D01*
X9229705Y-9688174D02*
X9229705Y-9735793D01*
X9229705Y-9735793D02*
X9220182Y-9773889D01*
X9220182Y-9773889D02*
X9210658Y-9792936D01*
X9210658Y-9792936D02*
X9201134Y-9802460D01*
X9201134Y-9802460D02*
X9182086Y-9811984D01*
X9182086Y-9811984D02*
X9163039Y-9811984D01*
X9163039Y-9811984D02*
X9143991Y-9802460D01*
X9143991Y-9802460D02*
X9134467Y-9792936D01*
X9134467Y-9792936D02*
X9124944Y-9773889D01*
X9124944Y-9773889D02*
X9115420Y-9735793D01*
X9115420Y-9735793D02*
X9115420Y-9688174D01*
X9115420Y-9688174D02*
X9124944Y-9650079D01*
X9124944Y-9650079D02*
X9134467Y-9631031D01*
X9134467Y-9631031D02*
X9143991Y-9621508D01*
X9143991Y-9621508D02*
X9163039Y-9611984D01*
X9315420Y-9811984D02*
X9315420Y-9678650D01*
X9315420Y-9697698D02*
X9324944Y-9688174D01*
X9324944Y-9688174D02*
X9343991Y-9678650D01*
X9343991Y-9678650D02*
X9372563Y-9678650D01*
X9372563Y-9678650D02*
X9391610Y-9688174D01*
X9391610Y-9688174D02*
X9401134Y-9707222D01*
X9401134Y-9707222D02*
X9401134Y-9811984D01*
X9401134Y-9707222D02*
X9410658Y-9688174D01*
X9410658Y-9688174D02*
X9429705Y-9678650D01*
X9429705Y-9678650D02*
X9458277Y-9678650D01*
X9458277Y-9678650D02*
X9477325Y-9688174D01*
X9477325Y-9688174D02*
X9486848Y-9707222D01*
X9486848Y-9707222D02*
X9486848Y-9811984D01*
X9582086Y-9811984D02*
X9582086Y-9678650D01*
X9582086Y-9697698D02*
X9591610Y-9688174D01*
X9591610Y-9688174D02*
X9610658Y-9678650D01*
X9610658Y-9678650D02*
X9639229Y-9678650D01*
X9639229Y-9678650D02*
X9658277Y-9688174D01*
X9658277Y-9688174D02*
X9667801Y-9707222D01*
X9667801Y-9707222D02*
X9667801Y-9811984D01*
X9667801Y-9707222D02*
X9677325Y-9688174D01*
X9677325Y-9688174D02*
X9696372Y-9678650D01*
X9696372Y-9678650D02*
X9724944Y-9678650D01*
X9724944Y-9678650D02*
X9743991Y-9688174D01*
X9743991Y-9688174D02*
X9753515Y-9707222D01*
X9753515Y-9707222D02*
X9753515Y-9811984D01*
X10143991Y-9602460D02*
X9972563Y-9859603D01*
X10401134Y-9611984D02*
X10420182Y-9611984D01*
X10420182Y-9611984D02*
X10439229Y-9621508D01*
X10439229Y-9621508D02*
X10448753Y-9631031D01*
X10448753Y-9631031D02*
X10458277Y-9650079D01*
X10458277Y-9650079D02*
X10467801Y-9688174D01*
X10467801Y-9688174D02*
X10467801Y-9735793D01*
X10467801Y-9735793D02*
X10458277Y-9773889D01*
X10458277Y-9773889D02*
X10448753Y-9792936D01*
X10448753Y-9792936D02*
X10439229Y-9802460D01*
X10439229Y-9802460D02*
X10420182Y-9811984D01*
X10420182Y-9811984D02*
X10401134Y-9811984D01*
X10401134Y-9811984D02*
X10382087Y-9802460D01*
X10382087Y-9802460D02*
X10372563Y-9792936D01*
X10372563Y-9792936D02*
X10363039Y-9773889D01*
X10363039Y-9773889D02*
X10353515Y-9735793D01*
X10353515Y-9735793D02*
X10353515Y-9688174D01*
X10353515Y-9688174D02*
X10363039Y-9650079D01*
X10363039Y-9650079D02*
X10372563Y-9631031D01*
X10372563Y-9631031D02*
X10382087Y-9621508D01*
X10382087Y-9621508D02*
X10401134Y-9611984D01*
X10553515Y-9792936D02*
X10563039Y-9802460D01*
X10563039Y-9802460D02*
X10553515Y-9811984D01*
X10553515Y-9811984D02*
X10543991Y-9802460D01*
X10543991Y-9802460D02*
X10553515Y-9792936D01*
X10553515Y-9792936D02*
X10553515Y-9811984D01*
X10686848Y-9611984D02*
X10705896Y-9611984D01*
X10705896Y-9611984D02*
X10724944Y-9621508D01*
X10724944Y-9621508D02*
X10734468Y-9631031D01*
X10734468Y-9631031D02*
X10743991Y-9650079D01*
X10743991Y-9650079D02*
X10753515Y-9688174D01*
X10753515Y-9688174D02*
X10753515Y-9735793D01*
X10753515Y-9735793D02*
X10743991Y-9773889D01*
X10743991Y-9773889D02*
X10734468Y-9792936D01*
X10734468Y-9792936D02*
X10724944Y-9802460D01*
X10724944Y-9802460D02*
X10705896Y-9811984D01*
X10705896Y-9811984D02*
X10686848Y-9811984D01*
X10686848Y-9811984D02*
X10667801Y-9802460D01*
X10667801Y-9802460D02*
X10658277Y-9792936D01*
X10658277Y-9792936D02*
X10648753Y-9773889D01*
X10648753Y-9773889D02*
X10639229Y-9735793D01*
X10639229Y-9735793D02*
X10639229Y-9688174D01*
X10639229Y-9688174D02*
X10648753Y-9650079D01*
X10648753Y-9650079D02*
X10658277Y-9631031D01*
X10658277Y-9631031D02*
X10667801Y-9621508D01*
X10667801Y-9621508D02*
X10686848Y-9611984D01*
X10934468Y-9611984D02*
X10839229Y-9611984D01*
X10839229Y-9611984D02*
X10829706Y-9707222D01*
X10829706Y-9707222D02*
X10839229Y-9697698D01*
X10839229Y-9697698D02*
X10858277Y-9688174D01*
X10858277Y-9688174D02*
X10905896Y-9688174D01*
X10905896Y-9688174D02*
X10924944Y-9697698D01*
X10924944Y-9697698D02*
X10934468Y-9707222D01*
X10934468Y-9707222D02*
X10943991Y-9726270D01*
X10943991Y-9726270D02*
X10943991Y-9773889D01*
X10943991Y-9773889D02*
X10934468Y-9792936D01*
X10934468Y-9792936D02*
X10924944Y-9802460D01*
X10924944Y-9802460D02*
X10905896Y-9811984D01*
X10905896Y-9811984D02*
X10858277Y-9811984D01*
X10858277Y-9811984D02*
X10839229Y-9802460D01*
X10839229Y-9802460D02*
X10829706Y-9792936D01*
X11134468Y-9811984D02*
X11020182Y-9811984D01*
X11077325Y-9811984D02*
X11077325Y-9611984D01*
X11077325Y-9611984D02*
X11058277Y-9640555D01*
X11058277Y-9640555D02*
X11039229Y-9659603D01*
X11039229Y-9659603D02*
X11020182Y-9669127D01*
X11210658Y-9631031D02*
X11220182Y-9621508D01*
X11220182Y-9621508D02*
X11239229Y-9611984D01*
X11239229Y-9611984D02*
X11286848Y-9611984D01*
X11286848Y-9611984D02*
X11305896Y-9621508D01*
X11305896Y-9621508D02*
X11315420Y-9631031D01*
X11315420Y-9631031D02*
X11324944Y-9650079D01*
X11324944Y-9650079D02*
X11324944Y-9669127D01*
X11324944Y-9669127D02*
X11315420Y-9697698D01*
X11315420Y-9697698D02*
X11201134Y-9811984D01*
X11201134Y-9811984D02*
X11324944Y-9811984D01*
X11401134Y-9611984D02*
X11401134Y-9650079D01*
X11477325Y-9611984D02*
X11477325Y-9650079D01*
X11772563Y-9888174D02*
X11763039Y-9878650D01*
X11763039Y-9878650D02*
X11743991Y-9850079D01*
X11743991Y-9850079D02*
X11734468Y-9831031D01*
X11734468Y-9831031D02*
X11724944Y-9802460D01*
X11724944Y-9802460D02*
X11715420Y-9754841D01*
X11715420Y-9754841D02*
X11715420Y-9716746D01*
X11715420Y-9716746D02*
X11724944Y-9669127D01*
X11724944Y-9669127D02*
X11734468Y-9640555D01*
X11734468Y-9640555D02*
X11743991Y-9621508D01*
X11743991Y-9621508D02*
X11763039Y-9592936D01*
X11763039Y-9592936D02*
X11772563Y-9583412D01*
X11877325Y-9697698D02*
X11858277Y-9688174D01*
X11858277Y-9688174D02*
X11848753Y-9678650D01*
X11848753Y-9678650D02*
X11839229Y-9659603D01*
X11839229Y-9659603D02*
X11839229Y-9650079D01*
X11839229Y-9650079D02*
X11848753Y-9631031D01*
X11848753Y-9631031D02*
X11858277Y-9621508D01*
X11858277Y-9621508D02*
X11877325Y-9611984D01*
X11877325Y-9611984D02*
X11915420Y-9611984D01*
X11915420Y-9611984D02*
X11934468Y-9621508D01*
X11934468Y-9621508D02*
X11943991Y-9631031D01*
X11943991Y-9631031D02*
X11953515Y-9650079D01*
X11953515Y-9650079D02*
X11953515Y-9659603D01*
X11953515Y-9659603D02*
X11943991Y-9678650D01*
X11943991Y-9678650D02*
X11934468Y-9688174D01*
X11934468Y-9688174D02*
X11915420Y-9697698D01*
X11915420Y-9697698D02*
X11877325Y-9697698D01*
X11877325Y-9697698D02*
X11858277Y-9707222D01*
X11858277Y-9707222D02*
X11848753Y-9716746D01*
X11848753Y-9716746D02*
X11839229Y-9735793D01*
X11839229Y-9735793D02*
X11839229Y-9773889D01*
X11839229Y-9773889D02*
X11848753Y-9792936D01*
X11848753Y-9792936D02*
X11858277Y-9802460D01*
X11858277Y-9802460D02*
X11877325Y-9811984D01*
X11877325Y-9811984D02*
X11915420Y-9811984D01*
X11915420Y-9811984D02*
X11934468Y-9802460D01*
X11934468Y-9802460D02*
X11943991Y-9792936D01*
X11943991Y-9792936D02*
X11953515Y-9773889D01*
X11953515Y-9773889D02*
X11953515Y-9735793D01*
X11953515Y-9735793D02*
X11943991Y-9716746D01*
X11943991Y-9716746D02*
X11934468Y-9707222D01*
X11934468Y-9707222D02*
X11915420Y-9697698D01*
X12191610Y-9811984D02*
X12191610Y-9611984D01*
X12277325Y-9811984D02*
X12277325Y-9707222D01*
X12277325Y-9707222D02*
X12267801Y-9688174D01*
X12267801Y-9688174D02*
X12248753Y-9678650D01*
X12248753Y-9678650D02*
X12220182Y-9678650D01*
X12220182Y-9678650D02*
X12201134Y-9688174D01*
X12201134Y-9688174D02*
X12191610Y-9697698D01*
X12401134Y-9811984D02*
X12382087Y-9802460D01*
X12382087Y-9802460D02*
X12372563Y-9792936D01*
X12372563Y-9792936D02*
X12363039Y-9773889D01*
X12363039Y-9773889D02*
X12363039Y-9716746D01*
X12363039Y-9716746D02*
X12372563Y-9697698D01*
X12372563Y-9697698D02*
X12382087Y-9688174D01*
X12382087Y-9688174D02*
X12401134Y-9678650D01*
X12401134Y-9678650D02*
X12429706Y-9678650D01*
X12429706Y-9678650D02*
X12448753Y-9688174D01*
X12448753Y-9688174D02*
X12458277Y-9697698D01*
X12458277Y-9697698D02*
X12467801Y-9716746D01*
X12467801Y-9716746D02*
X12467801Y-9773889D01*
X12467801Y-9773889D02*
X12458277Y-9792936D01*
X12458277Y-9792936D02*
X12448753Y-9802460D01*
X12448753Y-9802460D02*
X12429706Y-9811984D01*
X12429706Y-9811984D02*
X12401134Y-9811984D01*
X12582087Y-9811984D02*
X12563039Y-9802460D01*
X12563039Y-9802460D02*
X12553515Y-9783412D01*
X12553515Y-9783412D02*
X12553515Y-9611984D01*
X12734468Y-9802460D02*
X12715420Y-9811984D01*
X12715420Y-9811984D02*
X12677325Y-9811984D01*
X12677325Y-9811984D02*
X12658277Y-9802460D01*
X12658277Y-9802460D02*
X12648753Y-9783412D01*
X12648753Y-9783412D02*
X12648753Y-9707222D01*
X12648753Y-9707222D02*
X12658277Y-9688174D01*
X12658277Y-9688174D02*
X12677325Y-9678650D01*
X12677325Y-9678650D02*
X12715420Y-9678650D01*
X12715420Y-9678650D02*
X12734468Y-9688174D01*
X12734468Y-9688174D02*
X12743991Y-9707222D01*
X12743991Y-9707222D02*
X12743991Y-9726270D01*
X12743991Y-9726270D02*
X12648753Y-9745317D01*
X12820182Y-9802460D02*
X12839230Y-9811984D01*
X12839230Y-9811984D02*
X12877325Y-9811984D01*
X12877325Y-9811984D02*
X12896372Y-9802460D01*
X12896372Y-9802460D02*
X12905896Y-9783412D01*
X12905896Y-9783412D02*
X12905896Y-9773889D01*
X12905896Y-9773889D02*
X12896372Y-9754841D01*
X12896372Y-9754841D02*
X12877325Y-9745317D01*
X12877325Y-9745317D02*
X12848753Y-9745317D01*
X12848753Y-9745317D02*
X12829706Y-9735793D01*
X12829706Y-9735793D02*
X12820182Y-9716746D01*
X12820182Y-9716746D02*
X12820182Y-9707222D01*
X12820182Y-9707222D02*
X12829706Y-9688174D01*
X12829706Y-9688174D02*
X12848753Y-9678650D01*
X12848753Y-9678650D02*
X12877325Y-9678650D01*
X12877325Y-9678650D02*
X12896372Y-9688174D01*
X12972563Y-9888174D02*
X12982087Y-9878650D01*
X12982087Y-9878650D02*
X13001134Y-9850079D01*
X13001134Y-9850079D02*
X13010658Y-9831031D01*
X13010658Y-9831031D02*
X13020182Y-9802460D01*
X13020182Y-9802460D02*
X13029706Y-9754841D01*
X13029706Y-9754841D02*
X13029706Y-9716746D01*
X13029706Y-9716746D02*
X13020182Y-9669127D01*
X13020182Y-9669127D02*
X13010658Y-9640555D01*
X13010658Y-9640555D02*
X13001134Y-9621508D01*
X13001134Y-9621508D02*
X12982087Y-9592936D01*
X12982087Y-9592936D02*
X12972563Y-9583412D01*
M02*
