%TF.GenerationSoftware,KiCad,Pcbnew,9.0.1*%
%TF.CreationDate,2025-06-14T21:47:00+02:00*%
%TF.ProjectId,PUTM_EV_CART_INDICATOR,5055544d-5f45-4565-9f43-4152545f494e,rev?*%
%TF.SameCoordinates,Original*%
%TF.FileFunction,Legend,Top*%
%TF.FilePolarity,Positive*%
%FSLAX46Y46*%
G04 Gerber Fmt 4.6, Leading zero omitted, Abs format (unit mm)*
G04 Created by KiCad (PCBNEW 9.0.1) date 2025-06-14 21:47:00*
%MOMM*%
%LPD*%
G01*
G04 APERTURE LIST*
%ADD10C,0.250000*%
%ADD11C,0.150000*%
%ADD12C,0.254000*%
%ADD13C,0.120000*%
%ADD14C,0.100000*%
G04 APERTURE END LIST*
D10*
G36*
X121835044Y-78021491D02*
G01*
X121895072Y-78081519D01*
X121927483Y-78146342D01*
X121968043Y-78308579D01*
X121968043Y-78420658D01*
X121927483Y-78582894D01*
X121895073Y-78647715D01*
X121835043Y-78707746D01*
X121739427Y-78739619D01*
X121646615Y-78739619D01*
X121646615Y-77989619D01*
X121739427Y-77989619D01*
X121835044Y-78021491D01*
G37*
G36*
X122343043Y-79114619D02*
G01*
X119652568Y-79114619D01*
X119652568Y-77864619D01*
X119777568Y-77864619D01*
X119777568Y-78864619D01*
X119779970Y-78889005D01*
X119798634Y-78934065D01*
X119833122Y-78968553D01*
X119878182Y-78987217D01*
X119926954Y-78987217D01*
X119972014Y-78968553D01*
X120006502Y-78934065D01*
X120025166Y-78889005D01*
X120027568Y-78864619D01*
X120027568Y-77864619D01*
X120253758Y-77864619D01*
X120253758Y-78864619D01*
X120256160Y-78889005D01*
X120274824Y-78934065D01*
X120309312Y-78968553D01*
X120354372Y-78987217D01*
X120403144Y-78987217D01*
X120448204Y-78968553D01*
X120482692Y-78934065D01*
X120501356Y-78889005D01*
X120503758Y-78864619D01*
X120503758Y-78428065D01*
X120598818Y-78631765D01*
X120604107Y-78640694D01*
X120605208Y-78643720D01*
X120607167Y-78645860D01*
X120611307Y-78652847D01*
X120625315Y-78665675D01*
X120638148Y-78679688D01*
X120643180Y-78682036D01*
X120647276Y-78685787D01*
X120665126Y-78692278D01*
X120682344Y-78700313D01*
X120687893Y-78700556D01*
X120693113Y-78702455D01*
X120712091Y-78701620D01*
X120731070Y-78702455D01*
X120736289Y-78700556D01*
X120741838Y-78700313D01*
X120759051Y-78692279D01*
X120776907Y-78685787D01*
X120781003Y-78682035D01*
X120786034Y-78679688D01*
X120798864Y-78665677D01*
X120812875Y-78652847D01*
X120817014Y-78645860D01*
X120818974Y-78643720D01*
X120820074Y-78640694D01*
X120825364Y-78631765D01*
X120920424Y-78428064D01*
X120920424Y-78864619D01*
X120922826Y-78889005D01*
X120941490Y-78934065D01*
X120975978Y-78968553D01*
X121021038Y-78987217D01*
X121069810Y-78987217D01*
X121114870Y-78968553D01*
X121149358Y-78934065D01*
X121168022Y-78889005D01*
X121170424Y-78864619D01*
X121170424Y-77864619D01*
X121396615Y-77864619D01*
X121396615Y-78864619D01*
X121399017Y-78889005D01*
X121417681Y-78934065D01*
X121452169Y-78968553D01*
X121497229Y-78987217D01*
X121521615Y-78989619D01*
X121759710Y-78989619D01*
X121772053Y-78988403D01*
X121775344Y-78988637D01*
X121779673Y-78987652D01*
X121784096Y-78987217D01*
X121787147Y-78985953D01*
X121799238Y-78983204D01*
X121942095Y-78935586D01*
X121964470Y-78925595D01*
X121967862Y-78922652D01*
X121972014Y-78920933D01*
X121990956Y-78905388D01*
X122086194Y-78810149D01*
X122094062Y-78800560D01*
X122096554Y-78798400D01*
X122098918Y-78794643D01*
X122101739Y-78791207D01*
X122103003Y-78788155D01*
X122109608Y-78777663D01*
X122157227Y-78682425D01*
X122157910Y-78680639D01*
X122158447Y-78679915D01*
X122162102Y-78669685D01*
X122165985Y-78659539D01*
X122166048Y-78658639D01*
X122166692Y-78656840D01*
X122214311Y-78466364D01*
X122214936Y-78462134D01*
X122215641Y-78460433D01*
X122216545Y-78451253D01*
X122217895Y-78442124D01*
X122217623Y-78440301D01*
X122218043Y-78436047D01*
X122218043Y-78293190D01*
X122217623Y-78288935D01*
X122217895Y-78287113D01*
X122216545Y-78277983D01*
X122215641Y-78268804D01*
X122214936Y-78267102D01*
X122214311Y-78262873D01*
X122166692Y-78072397D01*
X122166048Y-78070597D01*
X122165985Y-78069698D01*
X122162102Y-78059551D01*
X122158447Y-78049322D01*
X122157910Y-78048597D01*
X122157227Y-78046812D01*
X122109608Y-77951574D01*
X122103000Y-77941077D01*
X122101738Y-77938030D01*
X122098921Y-77934598D01*
X122096554Y-77930837D01*
X122094059Y-77928673D01*
X122086193Y-77919088D01*
X121990955Y-77823850D01*
X121972013Y-77808305D01*
X121967863Y-77806586D01*
X121964470Y-77803643D01*
X121942095Y-77793652D01*
X121799238Y-77746034D01*
X121787147Y-77743284D01*
X121784096Y-77742021D01*
X121779673Y-77741585D01*
X121775344Y-77740601D01*
X121772053Y-77740834D01*
X121759710Y-77739619D01*
X121521615Y-77739619D01*
X121497229Y-77742021D01*
X121452169Y-77760685D01*
X121417681Y-77795173D01*
X121399017Y-77840233D01*
X121396615Y-77864619D01*
X121170424Y-77864619D01*
X121168845Y-77848591D01*
X121168975Y-77845640D01*
X121168398Y-77844054D01*
X121168022Y-77840233D01*
X121159722Y-77820196D01*
X121152307Y-77799803D01*
X121150424Y-77797747D01*
X121149358Y-77795173D01*
X121134020Y-77779835D01*
X121119367Y-77763835D01*
X121116841Y-77762656D01*
X121114870Y-77760685D01*
X121094831Y-77752384D01*
X121075171Y-77743210D01*
X121072384Y-77743087D01*
X121069810Y-77742021D01*
X121048124Y-77742021D01*
X121026446Y-77741068D01*
X121023825Y-77742021D01*
X121021038Y-77742021D01*
X121000994Y-77750323D01*
X120980609Y-77757736D01*
X120978553Y-77759618D01*
X120975978Y-77760685D01*
X120960635Y-77776027D01*
X120944640Y-77790676D01*
X120942682Y-77793980D01*
X120941490Y-77795173D01*
X120940360Y-77797900D01*
X120932151Y-77811758D01*
X120712090Y-78283315D01*
X120492031Y-77811758D01*
X120483821Y-77797900D01*
X120482692Y-77795173D01*
X120481499Y-77793980D01*
X120479542Y-77790676D01*
X120463541Y-77776022D01*
X120448204Y-77760685D01*
X120445629Y-77759618D01*
X120443574Y-77757736D01*
X120423180Y-77750320D01*
X120403144Y-77742021D01*
X120400358Y-77742021D01*
X120397737Y-77741068D01*
X120376058Y-77742021D01*
X120354372Y-77742021D01*
X120351797Y-77743087D01*
X120349011Y-77743210D01*
X120329350Y-77752384D01*
X120309312Y-77760685D01*
X120307340Y-77762656D01*
X120304815Y-77763835D01*
X120290161Y-77779835D01*
X120274824Y-77795173D01*
X120273757Y-77797747D01*
X120271875Y-77799803D01*
X120264459Y-77820196D01*
X120256160Y-77840233D01*
X120255783Y-77844054D01*
X120255207Y-77845640D01*
X120255336Y-77848591D01*
X120253758Y-77864619D01*
X120027568Y-77864619D01*
X120025166Y-77840233D01*
X120006502Y-77795173D01*
X119972014Y-77760685D01*
X119926954Y-77742021D01*
X119878182Y-77742021D01*
X119833122Y-77760685D01*
X119798634Y-77795173D01*
X119779970Y-77840233D01*
X119777568Y-77864619D01*
X119652568Y-77864619D01*
X119652568Y-77614619D01*
X122343043Y-77614619D01*
X122343043Y-79114619D01*
G37*
G36*
X91804713Y-79279969D02*
G01*
X91823645Y-79298902D01*
X91848996Y-79349603D01*
X91848996Y-79433443D01*
X91823645Y-79484144D01*
X91804713Y-79503077D01*
X91754012Y-79528428D01*
X91527568Y-79528428D01*
X91527568Y-79254619D01*
X91754012Y-79254619D01*
X91804713Y-79279969D01*
G37*
G36*
X92371997Y-78108960D02*
G01*
X92242663Y-78108960D01*
X92307329Y-77914959D01*
X92371997Y-78108960D01*
G37*
G36*
X95033520Y-80379619D02*
G01*
X90012113Y-80379619D01*
X90012113Y-79558190D01*
X90229949Y-79558190D01*
X90229949Y-79701047D01*
X90230368Y-79705301D01*
X90230097Y-79707123D01*
X90231446Y-79716251D01*
X90232351Y-79725433D01*
X90233055Y-79727134D01*
X90233681Y-79731364D01*
X90281300Y-79921840D01*
X90281943Y-79923639D01*
X90282007Y-79924539D01*
X90285889Y-79934685D01*
X90289545Y-79944915D01*
X90290081Y-79945639D01*
X90290765Y-79947425D01*
X90338383Y-80042662D01*
X90344989Y-80053156D01*
X90346253Y-80056207D01*
X90349073Y-80059643D01*
X90351438Y-80063400D01*
X90353929Y-80065560D01*
X90361798Y-80075149D01*
X90457036Y-80170388D01*
X90475978Y-80185933D01*
X90480129Y-80187652D01*
X90483522Y-80190595D01*
X90505897Y-80200585D01*
X90648753Y-80248204D01*
X90660846Y-80250953D01*
X90663896Y-80252217D01*
X90668317Y-80252652D01*
X90672647Y-80253637D01*
X90675938Y-80253403D01*
X90688282Y-80254619D01*
X90783520Y-80254619D01*
X90795863Y-80253403D01*
X90799154Y-80253637D01*
X90803483Y-80252652D01*
X90807906Y-80252217D01*
X90810957Y-80250953D01*
X90823048Y-80248204D01*
X90965905Y-80200586D01*
X90988280Y-80190595D01*
X90991672Y-80187652D01*
X90995824Y-80185933D01*
X91014766Y-80170387D01*
X91062385Y-80122768D01*
X91077925Y-80103830D01*
X91077930Y-80103826D01*
X91096594Y-80058766D01*
X91098996Y-80034380D01*
X91098996Y-79701047D01*
X91096594Y-79676661D01*
X91077930Y-79631601D01*
X91043442Y-79597113D01*
X90998382Y-79578449D01*
X90973996Y-79576047D01*
X90783520Y-79576047D01*
X90759134Y-79578449D01*
X90714074Y-79597113D01*
X90679586Y-79631601D01*
X90660922Y-79676661D01*
X90660922Y-79725433D01*
X90679586Y-79770493D01*
X90714074Y-79804981D01*
X90759134Y-79823645D01*
X90783520Y-79826047D01*
X90848996Y-79826047D01*
X90848996Y-79976032D01*
X90763237Y-80004619D01*
X90708568Y-80004619D01*
X90612949Y-79972746D01*
X90552918Y-79912715D01*
X90520508Y-79847896D01*
X90479949Y-79685658D01*
X90479949Y-79573579D01*
X90520508Y-79411341D01*
X90552919Y-79346520D01*
X90612947Y-79286491D01*
X90708568Y-79254619D01*
X90801631Y-79254619D01*
X90870475Y-79289041D01*
X90893361Y-79297799D01*
X90942010Y-79301256D01*
X90988281Y-79285833D01*
X91025126Y-79253877D01*
X91046937Y-79210254D01*
X91050395Y-79161604D01*
X91039734Y-79129619D01*
X91277568Y-79129619D01*
X91277568Y-80129619D01*
X91279970Y-80154005D01*
X91298634Y-80199065D01*
X91333122Y-80233553D01*
X91378182Y-80252217D01*
X91426954Y-80252217D01*
X91472014Y-80233553D01*
X91506502Y-80199065D01*
X91525166Y-80154005D01*
X91527568Y-80129619D01*
X91527568Y-79778428D01*
X91575581Y-79778428D01*
X91871592Y-80201302D01*
X91887544Y-80219902D01*
X91928675Y-80246114D01*
X91976706Y-80254590D01*
X92024324Y-80244040D01*
X92064279Y-80216071D01*
X92090491Y-80174941D01*
X92098967Y-80126909D01*
X92088417Y-80079292D01*
X92076400Y-80057936D01*
X91863188Y-79753347D01*
X91934659Y-79717613D01*
X91945157Y-79711003D01*
X91948204Y-79709742D01*
X91951635Y-79706926D01*
X91955397Y-79704558D01*
X91957560Y-79702063D01*
X91967146Y-79694197D01*
X92014765Y-79646579D01*
X92022634Y-79636990D01*
X92025126Y-79634829D01*
X92027491Y-79631071D01*
X92030310Y-79627637D01*
X92031573Y-79624586D01*
X92038180Y-79614092D01*
X92085799Y-79518854D01*
X92094557Y-79495968D01*
X92094875Y-79491487D01*
X92096594Y-79487338D01*
X92098996Y-79462952D01*
X92098996Y-79320095D01*
X92096594Y-79295709D01*
X92094875Y-79291559D01*
X92094557Y-79287079D01*
X92085799Y-79264193D01*
X92038180Y-79168955D01*
X92031573Y-79158460D01*
X92030310Y-79155410D01*
X92027491Y-79151975D01*
X92025126Y-79148218D01*
X92022634Y-79146056D01*
X92014765Y-79136468D01*
X92007916Y-79129619D01*
X92277568Y-79129619D01*
X92277568Y-80129619D01*
X92279970Y-80154005D01*
X92298634Y-80199065D01*
X92333122Y-80233553D01*
X92378182Y-80252217D01*
X92402568Y-80254619D01*
X92878758Y-80254619D01*
X92903144Y-80252217D01*
X92948204Y-80233553D01*
X92982692Y-80199065D01*
X93001356Y-80154005D01*
X93001356Y-80105233D01*
X92982692Y-80060173D01*
X92948204Y-80025685D01*
X92903144Y-80007021D01*
X92878758Y-80004619D01*
X92527568Y-80004619D01*
X92527568Y-79730809D01*
X92735901Y-79730809D01*
X92760287Y-79728407D01*
X92805347Y-79709743D01*
X92839835Y-79675255D01*
X92858499Y-79630195D01*
X92858499Y-79581423D01*
X92839835Y-79536363D01*
X92805347Y-79501875D01*
X92760287Y-79483211D01*
X92735901Y-79480809D01*
X92527568Y-79480809D01*
X92527568Y-79254619D01*
X92878758Y-79254619D01*
X92903144Y-79252217D01*
X92948204Y-79233553D01*
X92982692Y-79199065D01*
X93001356Y-79154005D01*
X93001356Y-79129619D01*
X93182330Y-79129619D01*
X93182330Y-80129619D01*
X93184732Y-80154005D01*
X93203396Y-80199065D01*
X93237884Y-80233553D01*
X93282944Y-80252217D01*
X93307330Y-80254619D01*
X93783520Y-80254619D01*
X93807906Y-80252217D01*
X93852966Y-80233553D01*
X93887454Y-80199065D01*
X93906118Y-80154005D01*
X93906118Y-80105233D01*
X93887454Y-80060173D01*
X93852966Y-80025685D01*
X93807906Y-80007021D01*
X93783520Y-80004619D01*
X93432330Y-80004619D01*
X93432330Y-79730809D01*
X93640663Y-79730809D01*
X93665049Y-79728407D01*
X93710109Y-79709743D01*
X93744597Y-79675255D01*
X93763261Y-79630195D01*
X93763261Y-79581423D01*
X93744597Y-79536363D01*
X93710109Y-79501875D01*
X93665049Y-79483211D01*
X93640663Y-79480809D01*
X93432330Y-79480809D01*
X93432330Y-79254619D01*
X93783520Y-79254619D01*
X93807906Y-79252217D01*
X93852966Y-79233553D01*
X93887454Y-79199065D01*
X93906118Y-79154005D01*
X93906118Y-79129619D01*
X94087092Y-79129619D01*
X94087092Y-80129619D01*
X94089494Y-80154005D01*
X94108158Y-80199065D01*
X94142646Y-80233553D01*
X94187706Y-80252217D01*
X94236478Y-80252217D01*
X94281538Y-80233553D01*
X94316026Y-80199065D01*
X94334690Y-80154005D01*
X94337092Y-80129619D01*
X94337092Y-79600313D01*
X94674990Y-80191636D01*
X94678636Y-80196773D01*
X94679586Y-80199065D01*
X94681920Y-80201399D01*
X94689174Y-80211618D01*
X94702318Y-80221797D01*
X94714074Y-80233553D01*
X94721434Y-80236601D01*
X94727735Y-80241481D01*
X94743776Y-80245855D01*
X94759134Y-80252217D01*
X94767101Y-80252217D01*
X94774790Y-80254314D01*
X94791285Y-80252217D01*
X94807906Y-80252217D01*
X94815266Y-80249168D01*
X94823173Y-80248163D01*
X94837607Y-80239914D01*
X94852966Y-80233553D01*
X94858600Y-80227918D01*
X94865519Y-80223965D01*
X94875698Y-80210820D01*
X94887454Y-80199065D01*
X94890502Y-80191704D01*
X94895382Y-80185404D01*
X94899757Y-80169361D01*
X94906118Y-80154005D01*
X94907346Y-80141535D01*
X94908215Y-80138350D01*
X94907902Y-80135890D01*
X94908520Y-80129619D01*
X94908520Y-79129619D01*
X94906118Y-79105233D01*
X94887454Y-79060173D01*
X94852966Y-79025685D01*
X94807906Y-79007021D01*
X94759134Y-79007021D01*
X94714074Y-79025685D01*
X94679586Y-79060173D01*
X94660922Y-79105233D01*
X94658520Y-79129619D01*
X94658520Y-79658923D01*
X94320622Y-79067602D01*
X94316975Y-79062464D01*
X94316026Y-79060173D01*
X94313691Y-79057838D01*
X94306438Y-79047620D01*
X94293293Y-79037440D01*
X94281538Y-79025685D01*
X94274177Y-79022636D01*
X94267877Y-79017757D01*
X94251835Y-79013382D01*
X94236478Y-79007021D01*
X94228511Y-79007021D01*
X94220822Y-79004924D01*
X94204327Y-79007021D01*
X94187706Y-79007021D01*
X94180345Y-79010069D01*
X94172439Y-79011075D01*
X94158004Y-79019323D01*
X94142646Y-79025685D01*
X94137011Y-79031319D01*
X94130093Y-79035273D01*
X94119913Y-79048417D01*
X94108158Y-79060173D01*
X94105109Y-79067533D01*
X94100230Y-79073834D01*
X94095855Y-79089875D01*
X94089494Y-79105233D01*
X94088265Y-79117704D01*
X94087397Y-79120889D01*
X94087709Y-79123348D01*
X94087092Y-79129619D01*
X93906118Y-79129619D01*
X93906118Y-79105233D01*
X93887454Y-79060173D01*
X93852966Y-79025685D01*
X93807906Y-79007021D01*
X93783520Y-79004619D01*
X93307330Y-79004619D01*
X93282944Y-79007021D01*
X93237884Y-79025685D01*
X93203396Y-79060173D01*
X93184732Y-79105233D01*
X93182330Y-79129619D01*
X93001356Y-79129619D01*
X93001356Y-79105233D01*
X92982692Y-79060173D01*
X92948204Y-79025685D01*
X92903144Y-79007021D01*
X92878758Y-79004619D01*
X92402568Y-79004619D01*
X92378182Y-79007021D01*
X92333122Y-79025685D01*
X92298634Y-79060173D01*
X92279970Y-79105233D01*
X92277568Y-79129619D01*
X92007916Y-79129619D01*
X91967146Y-79088850D01*
X91957560Y-79080983D01*
X91955397Y-79078489D01*
X91951635Y-79076120D01*
X91948204Y-79073305D01*
X91945157Y-79072043D01*
X91934659Y-79065434D01*
X91839422Y-79017816D01*
X91816536Y-79009058D01*
X91812054Y-79008739D01*
X91807906Y-79007021D01*
X91783520Y-79004619D01*
X91402568Y-79004619D01*
X91378182Y-79007021D01*
X91333122Y-79025685D01*
X91298634Y-79060173D01*
X91279970Y-79105233D01*
X91277568Y-79129619D01*
X91039734Y-79129619D01*
X91034972Y-79115334D01*
X91003016Y-79078489D01*
X90982278Y-79065434D01*
X90887041Y-79017816D01*
X90864155Y-79009058D01*
X90859673Y-79008739D01*
X90855525Y-79007021D01*
X90831139Y-79004619D01*
X90688282Y-79004619D01*
X90675938Y-79005834D01*
X90672647Y-79005601D01*
X90668317Y-79006585D01*
X90663896Y-79007021D01*
X90660846Y-79008284D01*
X90648753Y-79011034D01*
X90505897Y-79058653D01*
X90483522Y-79068643D01*
X90480128Y-79071586D01*
X90475979Y-79073305D01*
X90457037Y-79088850D01*
X90361799Y-79184088D01*
X90353932Y-79193673D01*
X90351438Y-79195837D01*
X90349069Y-79199598D01*
X90346254Y-79203030D01*
X90344992Y-79206076D01*
X90338383Y-79216575D01*
X90290765Y-79311812D01*
X90290081Y-79313597D01*
X90289545Y-79314322D01*
X90285889Y-79324551D01*
X90282007Y-79334698D01*
X90281943Y-79335597D01*
X90281300Y-79337397D01*
X90233681Y-79527873D01*
X90233055Y-79532102D01*
X90232351Y-79533804D01*
X90231446Y-79542985D01*
X90230097Y-79552114D01*
X90230368Y-79553935D01*
X90229949Y-79558190D01*
X90012113Y-79558190D01*
X90012113Y-77495289D01*
X90137113Y-77495289D01*
X90137113Y-77544061D01*
X90155777Y-77589121D01*
X90190265Y-77623609D01*
X90235325Y-77642273D01*
X90259711Y-77644675D01*
X90420425Y-77644675D01*
X90420425Y-78519675D01*
X90422827Y-78544061D01*
X90441491Y-78589121D01*
X90475979Y-78623609D01*
X90521039Y-78642273D01*
X90569811Y-78642273D01*
X90614871Y-78623609D01*
X90649359Y-78589121D01*
X90668023Y-78544061D01*
X90670425Y-78519675D01*
X90670425Y-77710151D01*
X90991854Y-77710151D01*
X90991854Y-77805389D01*
X90994256Y-77829775D01*
X90995974Y-77833923D01*
X90996293Y-77838405D01*
X91005051Y-77861291D01*
X91052669Y-77956528D01*
X91059278Y-77967026D01*
X91060540Y-77970073D01*
X91063355Y-77973504D01*
X91065724Y-77977266D01*
X91068218Y-77979429D01*
X91076085Y-77989015D01*
X91123703Y-78036634D01*
X91133291Y-78044503D01*
X91135453Y-78046995D01*
X91139210Y-78049360D01*
X91142645Y-78052179D01*
X91145695Y-78053442D01*
X91156190Y-78060049D01*
X91251428Y-78107668D01*
X91253213Y-78108351D01*
X91253938Y-78108888D01*
X91264167Y-78112543D01*
X91274314Y-78116426D01*
X91275213Y-78116489D01*
X91277013Y-78117133D01*
X91454179Y-78161424D01*
X91518999Y-78193834D01*
X91537931Y-78212767D01*
X91563282Y-78263468D01*
X91563282Y-78299689D01*
X91537930Y-78350392D01*
X91518999Y-78369324D01*
X91468298Y-78394675D01*
X91279997Y-78394675D01*
X91156382Y-78353471D01*
X91132488Y-78348038D01*
X91083839Y-78351495D01*
X91040214Y-78373307D01*
X91008259Y-78410153D01*
X90992836Y-78456422D01*
X90996293Y-78505071D01*
X91018105Y-78548696D01*
X91054951Y-78580651D01*
X91077326Y-78590641D01*
X91220182Y-78638260D01*
X91232275Y-78641009D01*
X91235325Y-78642273D01*
X91239746Y-78642708D01*
X91244076Y-78643693D01*
X91247367Y-78643459D01*
X91259711Y-78644675D01*
X91497806Y-78644675D01*
X91522192Y-78642273D01*
X91526340Y-78640554D01*
X91530822Y-78640236D01*
X91553708Y-78631478D01*
X91648945Y-78583860D01*
X91659441Y-78577252D01*
X91662491Y-78575989D01*
X91665924Y-78573170D01*
X91669683Y-78570805D01*
X91671845Y-78568311D01*
X91681433Y-78560443D01*
X91729052Y-78512824D01*
X91736258Y-78504041D01*
X91849979Y-78504041D01*
X91853436Y-78552690D01*
X91875248Y-78596315D01*
X91912094Y-78628270D01*
X91958363Y-78643693D01*
X92007012Y-78640236D01*
X92050637Y-78618424D01*
X92082592Y-78581578D01*
X92092582Y-78559203D01*
X92159330Y-78358960D01*
X92455330Y-78358960D01*
X92522077Y-78559203D01*
X92532068Y-78581578D01*
X92564023Y-78618424D01*
X92607647Y-78640236D01*
X92656297Y-78643693D01*
X92702566Y-78628270D01*
X92739412Y-78596314D01*
X92761224Y-78552690D01*
X92764681Y-78504040D01*
X92759248Y-78480146D01*
X92439091Y-77519675D01*
X92848997Y-77519675D01*
X92848997Y-78519675D01*
X92851399Y-78544061D01*
X92870063Y-78589121D01*
X92904551Y-78623609D01*
X92949611Y-78642273D01*
X92973997Y-78644675D01*
X93450187Y-78644675D01*
X93474573Y-78642273D01*
X93519633Y-78623609D01*
X93554121Y-78589121D01*
X93572785Y-78544061D01*
X93572785Y-78495289D01*
X93554121Y-78450229D01*
X93519633Y-78415741D01*
X93474573Y-78397077D01*
X93450187Y-78394675D01*
X93098997Y-78394675D01*
X93098997Y-77519675D01*
X93096595Y-77495289D01*
X93077931Y-77450229D01*
X93043443Y-77415741D01*
X92998383Y-77397077D01*
X92949611Y-77397077D01*
X92904551Y-77415741D01*
X92870063Y-77450229D01*
X92851399Y-77495289D01*
X92848997Y-77519675D01*
X92439091Y-77519675D01*
X92425915Y-77480147D01*
X92415925Y-77457772D01*
X92410073Y-77451024D01*
X92406079Y-77443036D01*
X92394241Y-77432769D01*
X92383970Y-77420926D01*
X92375978Y-77416930D01*
X92369233Y-77411080D01*
X92354365Y-77406124D01*
X92340345Y-77399114D01*
X92331435Y-77398480D01*
X92322964Y-77395657D01*
X92307329Y-77396767D01*
X92291696Y-77395657D01*
X92283224Y-77398480D01*
X92274314Y-77399114D01*
X92260292Y-77406125D01*
X92245427Y-77411080D01*
X92238681Y-77416930D01*
X92230690Y-77420926D01*
X92220421Y-77432766D01*
X92208581Y-77443035D01*
X92204585Y-77451025D01*
X92198735Y-77457772D01*
X92188744Y-77480147D01*
X91855412Y-78480147D01*
X91849979Y-78504041D01*
X91736258Y-78504041D01*
X91736919Y-78503236D01*
X91739412Y-78501075D01*
X91741778Y-78497315D01*
X91744597Y-78493881D01*
X91745859Y-78490832D01*
X91752466Y-78480338D01*
X91800085Y-78385100D01*
X91808843Y-78362214D01*
X91809161Y-78357733D01*
X91810880Y-78353584D01*
X91813282Y-78329198D01*
X91813282Y-78233960D01*
X91810880Y-78209574D01*
X91809161Y-78205424D01*
X91808843Y-78200944D01*
X91800085Y-78178058D01*
X91752466Y-78082820D01*
X91745859Y-78072325D01*
X91744596Y-78069275D01*
X91741777Y-78065840D01*
X91739412Y-78062083D01*
X91736920Y-78059921D01*
X91729051Y-78050333D01*
X91681432Y-78002715D01*
X91671846Y-77994848D01*
X91669683Y-77992354D01*
X91665921Y-77989985D01*
X91662490Y-77987170D01*
X91659443Y-77985908D01*
X91648945Y-77979299D01*
X91553708Y-77931681D01*
X91551922Y-77930997D01*
X91551198Y-77930461D01*
X91540968Y-77926805D01*
X91530822Y-77922923D01*
X91529922Y-77922859D01*
X91528123Y-77922216D01*
X91350958Y-77877924D01*
X91286137Y-77845514D01*
X91267204Y-77826582D01*
X91241854Y-77775881D01*
X91241854Y-77739659D01*
X91267204Y-77688957D01*
X91286137Y-77670025D01*
X91336839Y-77644675D01*
X91525142Y-77644675D01*
X91648753Y-77685879D01*
X91672647Y-77691312D01*
X91721297Y-77687855D01*
X91764921Y-77666043D01*
X91796877Y-77629197D01*
X91812300Y-77582928D01*
X91808843Y-77534278D01*
X91787031Y-77490654D01*
X91750185Y-77458699D01*
X91727810Y-77448708D01*
X91584953Y-77401090D01*
X91572862Y-77398340D01*
X91569811Y-77397077D01*
X91565388Y-77396641D01*
X91561059Y-77395657D01*
X91557768Y-77395890D01*
X91545425Y-77394675D01*
X91307330Y-77394675D01*
X91282944Y-77397077D01*
X91278794Y-77398795D01*
X91274314Y-77399114D01*
X91251428Y-77407872D01*
X91156190Y-77455491D01*
X91145695Y-77462097D01*
X91142645Y-77463361D01*
X91139210Y-77466179D01*
X91135453Y-77468545D01*
X91133291Y-77471036D01*
X91123703Y-77478906D01*
X91076085Y-77526525D01*
X91068218Y-77536110D01*
X91065724Y-77538274D01*
X91063355Y-77542035D01*
X91060540Y-77545467D01*
X91059278Y-77548513D01*
X91052669Y-77559012D01*
X91005051Y-77654249D01*
X90996293Y-77677135D01*
X90995974Y-77681616D01*
X90994256Y-77685765D01*
X90991854Y-77710151D01*
X90670425Y-77710151D01*
X90670425Y-77644675D01*
X90831139Y-77644675D01*
X90855525Y-77642273D01*
X90900585Y-77623609D01*
X90935073Y-77589121D01*
X90953737Y-77544061D01*
X90953737Y-77495289D01*
X90935073Y-77450229D01*
X90900585Y-77415741D01*
X90855525Y-77397077D01*
X90831139Y-77394675D01*
X90259711Y-77394675D01*
X90235325Y-77397077D01*
X90190265Y-77415741D01*
X90155777Y-77450229D01*
X90137113Y-77495289D01*
X90012113Y-77495289D01*
X90012113Y-77269675D01*
X95033520Y-77269675D01*
X95033520Y-80379619D01*
G37*
D11*
X94904761Y-72150057D02*
X94809523Y-72102438D01*
X94809523Y-72102438D02*
X94714285Y-72007200D01*
X94714285Y-72007200D02*
X94571428Y-71864342D01*
X94571428Y-71864342D02*
X94476190Y-71816723D01*
X94476190Y-71816723D02*
X94380952Y-71816723D01*
X94428571Y-72054819D02*
X94333333Y-72007200D01*
X94333333Y-72007200D02*
X94238095Y-71911961D01*
X94238095Y-71911961D02*
X94190476Y-71721485D01*
X94190476Y-71721485D02*
X94190476Y-71388152D01*
X94190476Y-71388152D02*
X94238095Y-71197676D01*
X94238095Y-71197676D02*
X94333333Y-71102438D01*
X94333333Y-71102438D02*
X94428571Y-71054819D01*
X94428571Y-71054819D02*
X94619047Y-71054819D01*
X94619047Y-71054819D02*
X94714285Y-71102438D01*
X94714285Y-71102438D02*
X94809523Y-71197676D01*
X94809523Y-71197676D02*
X94857142Y-71388152D01*
X94857142Y-71388152D02*
X94857142Y-71721485D01*
X94857142Y-71721485D02*
X94809523Y-71911961D01*
X94809523Y-71911961D02*
X94714285Y-72007200D01*
X94714285Y-72007200D02*
X94619047Y-72054819D01*
X94619047Y-72054819D02*
X94428571Y-72054819D01*
X95761904Y-71054819D02*
X95285714Y-71054819D01*
X95285714Y-71054819D02*
X95238095Y-71531009D01*
X95238095Y-71531009D02*
X95285714Y-71483390D01*
X95285714Y-71483390D02*
X95380952Y-71435771D01*
X95380952Y-71435771D02*
X95619047Y-71435771D01*
X95619047Y-71435771D02*
X95714285Y-71483390D01*
X95714285Y-71483390D02*
X95761904Y-71531009D01*
X95761904Y-71531009D02*
X95809523Y-71626247D01*
X95809523Y-71626247D02*
X95809523Y-71864342D01*
X95809523Y-71864342D02*
X95761904Y-71959580D01*
X95761904Y-71959580D02*
X95714285Y-72007200D01*
X95714285Y-72007200D02*
X95619047Y-72054819D01*
X95619047Y-72054819D02*
X95380952Y-72054819D01*
X95380952Y-72054819D02*
X95285714Y-72007200D01*
X95285714Y-72007200D02*
X95238095Y-71959580D01*
D12*
X102511818Y-80037381D02*
X101241818Y-80037381D01*
X102511818Y-79311666D02*
X101786103Y-79855952D01*
X101241818Y-79311666D02*
X101967532Y-80037381D01*
X101241818Y-78888333D02*
X101241818Y-78102142D01*
X101241818Y-78102142D02*
X101725627Y-78525476D01*
X101725627Y-78525476D02*
X101725627Y-78344047D01*
X101725627Y-78344047D02*
X101786103Y-78223095D01*
X101786103Y-78223095D02*
X101846580Y-78162619D01*
X101846580Y-78162619D02*
X101967532Y-78102142D01*
X101967532Y-78102142D02*
X102269913Y-78102142D01*
X102269913Y-78102142D02*
X102390865Y-78162619D01*
X102390865Y-78162619D02*
X102451342Y-78223095D01*
X102451342Y-78223095D02*
X102511818Y-78344047D01*
X102511818Y-78344047D02*
X102511818Y-78706904D01*
X102511818Y-78706904D02*
X102451342Y-78827857D01*
X102451342Y-78827857D02*
X102390865Y-78888333D01*
D11*
X103761905Y-72454819D02*
X103761905Y-71454819D01*
X103761905Y-71454819D02*
X104000000Y-71454819D01*
X104000000Y-71454819D02*
X104142857Y-71502438D01*
X104142857Y-71502438D02*
X104238095Y-71597676D01*
X104238095Y-71597676D02*
X104285714Y-71692914D01*
X104285714Y-71692914D02*
X104333333Y-71883390D01*
X104333333Y-71883390D02*
X104333333Y-72026247D01*
X104333333Y-72026247D02*
X104285714Y-72216723D01*
X104285714Y-72216723D02*
X104238095Y-72311961D01*
X104238095Y-72311961D02*
X104142857Y-72407200D01*
X104142857Y-72407200D02*
X104000000Y-72454819D01*
X104000000Y-72454819D02*
X103761905Y-72454819D01*
X104714286Y-71550057D02*
X104761905Y-71502438D01*
X104761905Y-71502438D02*
X104857143Y-71454819D01*
X104857143Y-71454819D02*
X105095238Y-71454819D01*
X105095238Y-71454819D02*
X105190476Y-71502438D01*
X105190476Y-71502438D02*
X105238095Y-71550057D01*
X105238095Y-71550057D02*
X105285714Y-71645295D01*
X105285714Y-71645295D02*
X105285714Y-71740533D01*
X105285714Y-71740533D02*
X105238095Y-71883390D01*
X105238095Y-71883390D02*
X104666667Y-72454819D01*
X104666667Y-72454819D02*
X105285714Y-72454819D01*
X93857142Y-76954819D02*
X93523809Y-76478628D01*
X93285714Y-76954819D02*
X93285714Y-75954819D01*
X93285714Y-75954819D02*
X93666666Y-75954819D01*
X93666666Y-75954819D02*
X93761904Y-76002438D01*
X93761904Y-76002438D02*
X93809523Y-76050057D01*
X93809523Y-76050057D02*
X93857142Y-76145295D01*
X93857142Y-76145295D02*
X93857142Y-76288152D01*
X93857142Y-76288152D02*
X93809523Y-76383390D01*
X93809523Y-76383390D02*
X93761904Y-76431009D01*
X93761904Y-76431009D02*
X93666666Y-76478628D01*
X93666666Y-76478628D02*
X93285714Y-76478628D01*
X94809523Y-76954819D02*
X94238095Y-76954819D01*
X94523809Y-76954819D02*
X94523809Y-75954819D01*
X94523809Y-75954819D02*
X94428571Y-76097676D01*
X94428571Y-76097676D02*
X94333333Y-76192914D01*
X94333333Y-76192914D02*
X94238095Y-76240533D01*
X95190476Y-76050057D02*
X95238095Y-76002438D01*
X95238095Y-76002438D02*
X95333333Y-75954819D01*
X95333333Y-75954819D02*
X95571428Y-75954819D01*
X95571428Y-75954819D02*
X95666666Y-76002438D01*
X95666666Y-76002438D02*
X95714285Y-76050057D01*
X95714285Y-76050057D02*
X95761904Y-76145295D01*
X95761904Y-76145295D02*
X95761904Y-76240533D01*
X95761904Y-76240533D02*
X95714285Y-76383390D01*
X95714285Y-76383390D02*
X95142857Y-76954819D01*
X95142857Y-76954819D02*
X95761904Y-76954819D01*
X113761905Y-72454819D02*
X113761905Y-71454819D01*
X113761905Y-71454819D02*
X114000000Y-71454819D01*
X114000000Y-71454819D02*
X114142857Y-71502438D01*
X114142857Y-71502438D02*
X114238095Y-71597676D01*
X114238095Y-71597676D02*
X114285714Y-71692914D01*
X114285714Y-71692914D02*
X114333333Y-71883390D01*
X114333333Y-71883390D02*
X114333333Y-72026247D01*
X114333333Y-72026247D02*
X114285714Y-72216723D01*
X114285714Y-72216723D02*
X114238095Y-72311961D01*
X114238095Y-72311961D02*
X114142857Y-72407200D01*
X114142857Y-72407200D02*
X114000000Y-72454819D01*
X114000000Y-72454819D02*
X113761905Y-72454819D01*
X115285714Y-72454819D02*
X114714286Y-72454819D01*
X115000000Y-72454819D02*
X115000000Y-71454819D01*
X115000000Y-71454819D02*
X114904762Y-71597676D01*
X114904762Y-71597676D02*
X114809524Y-71692914D01*
X114809524Y-71692914D02*
X114714286Y-71740533D01*
D12*
X112511818Y-80237381D02*
X111241818Y-80237381D01*
X112511818Y-79511666D02*
X111786103Y-80055952D01*
X111241818Y-79511666D02*
X111967532Y-80237381D01*
X111665151Y-78423095D02*
X112511818Y-78423095D01*
X111181342Y-78725476D02*
X112088484Y-79027857D01*
X112088484Y-79027857D02*
X112088484Y-78241666D01*
D11*
X120199405Y-81884819D02*
X120199405Y-80884819D01*
X120199405Y-80884819D02*
X120437500Y-80884819D01*
X120437500Y-80884819D02*
X120580357Y-80932438D01*
X120580357Y-80932438D02*
X120675595Y-81027676D01*
X120675595Y-81027676D02*
X120723214Y-81122914D01*
X120723214Y-81122914D02*
X120770833Y-81313390D01*
X120770833Y-81313390D02*
X120770833Y-81456247D01*
X120770833Y-81456247D02*
X120723214Y-81646723D01*
X120723214Y-81646723D02*
X120675595Y-81741961D01*
X120675595Y-81741961D02*
X120580357Y-81837200D01*
X120580357Y-81837200D02*
X120437500Y-81884819D01*
X120437500Y-81884819D02*
X120199405Y-81884819D01*
X121627976Y-81218152D02*
X121627976Y-81884819D01*
X121389881Y-80837200D02*
X121151786Y-81551485D01*
X121151786Y-81551485D02*
X121770833Y-81551485D01*
X122294642Y-71954819D02*
X121961309Y-71478628D01*
X121723214Y-71954819D02*
X121723214Y-70954819D01*
X121723214Y-70954819D02*
X122104166Y-70954819D01*
X122104166Y-70954819D02*
X122199404Y-71002438D01*
X122199404Y-71002438D02*
X122247023Y-71050057D01*
X122247023Y-71050057D02*
X122294642Y-71145295D01*
X122294642Y-71145295D02*
X122294642Y-71288152D01*
X122294642Y-71288152D02*
X122247023Y-71383390D01*
X122247023Y-71383390D02*
X122199404Y-71431009D01*
X122199404Y-71431009D02*
X122104166Y-71478628D01*
X122104166Y-71478628D02*
X121723214Y-71478628D01*
X122675595Y-71050057D02*
X122723214Y-71002438D01*
X122723214Y-71002438D02*
X122818452Y-70954819D01*
X122818452Y-70954819D02*
X123056547Y-70954819D01*
X123056547Y-70954819D02*
X123151785Y-71002438D01*
X123151785Y-71002438D02*
X123199404Y-71050057D01*
X123199404Y-71050057D02*
X123247023Y-71145295D01*
X123247023Y-71145295D02*
X123247023Y-71240533D01*
X123247023Y-71240533D02*
X123199404Y-71383390D01*
X123199404Y-71383390D02*
X122627976Y-71954819D01*
X122627976Y-71954819D02*
X123247023Y-71954819D01*
X123627976Y-71050057D02*
X123675595Y-71002438D01*
X123675595Y-71002438D02*
X123770833Y-70954819D01*
X123770833Y-70954819D02*
X124008928Y-70954819D01*
X124008928Y-70954819D02*
X124104166Y-71002438D01*
X124104166Y-71002438D02*
X124151785Y-71050057D01*
X124151785Y-71050057D02*
X124199404Y-71145295D01*
X124199404Y-71145295D02*
X124199404Y-71240533D01*
X124199404Y-71240533D02*
X124151785Y-71383390D01*
X124151785Y-71383390D02*
X123580357Y-71954819D01*
X123580357Y-71954819D02*
X124199404Y-71954819D01*
X84238095Y-77454819D02*
X84238095Y-76454819D01*
X84238095Y-76931009D02*
X84809523Y-76931009D01*
X84809523Y-77454819D02*
X84809523Y-76454819D01*
X85809523Y-77454819D02*
X85238095Y-77454819D01*
X85523809Y-77454819D02*
X85523809Y-76454819D01*
X85523809Y-76454819D02*
X85428571Y-76597676D01*
X85428571Y-76597676D02*
X85333333Y-76692914D01*
X85333333Y-76692914D02*
X85238095Y-76740533D01*
X118842261Y-72050057D02*
X118747023Y-72002438D01*
X118747023Y-72002438D02*
X118651785Y-71907200D01*
X118651785Y-71907200D02*
X118508928Y-71764342D01*
X118508928Y-71764342D02*
X118413690Y-71716723D01*
X118413690Y-71716723D02*
X118318452Y-71716723D01*
X118366071Y-71954819D02*
X118270833Y-71907200D01*
X118270833Y-71907200D02*
X118175595Y-71811961D01*
X118175595Y-71811961D02*
X118127976Y-71621485D01*
X118127976Y-71621485D02*
X118127976Y-71288152D01*
X118127976Y-71288152D02*
X118175595Y-71097676D01*
X118175595Y-71097676D02*
X118270833Y-71002438D01*
X118270833Y-71002438D02*
X118366071Y-70954819D01*
X118366071Y-70954819D02*
X118556547Y-70954819D01*
X118556547Y-70954819D02*
X118651785Y-71002438D01*
X118651785Y-71002438D02*
X118747023Y-71097676D01*
X118747023Y-71097676D02*
X118794642Y-71288152D01*
X118794642Y-71288152D02*
X118794642Y-71621485D01*
X118794642Y-71621485D02*
X118747023Y-71811961D01*
X118747023Y-71811961D02*
X118651785Y-71907200D01*
X118651785Y-71907200D02*
X118556547Y-71954819D01*
X118556547Y-71954819D02*
X118366071Y-71954819D01*
X119651785Y-71288152D02*
X119651785Y-71954819D01*
X119413690Y-70907200D02*
X119175595Y-71621485D01*
X119175595Y-71621485D02*
X119794642Y-71621485D01*
X84238095Y-71254819D02*
X84238095Y-70254819D01*
X84238095Y-70731009D02*
X84809523Y-70731009D01*
X84809523Y-71254819D02*
X84809523Y-70254819D01*
X85238095Y-70350057D02*
X85285714Y-70302438D01*
X85285714Y-70302438D02*
X85380952Y-70254819D01*
X85380952Y-70254819D02*
X85619047Y-70254819D01*
X85619047Y-70254819D02*
X85714285Y-70302438D01*
X85714285Y-70302438D02*
X85761904Y-70350057D01*
X85761904Y-70350057D02*
X85809523Y-70445295D01*
X85809523Y-70445295D02*
X85809523Y-70540533D01*
X85809523Y-70540533D02*
X85761904Y-70683390D01*
X85761904Y-70683390D02*
X85190476Y-71254819D01*
X85190476Y-71254819D02*
X85809523Y-71254819D01*
X90770833Y-71954819D02*
X90437500Y-71478628D01*
X90199405Y-71954819D02*
X90199405Y-70954819D01*
X90199405Y-70954819D02*
X90580357Y-70954819D01*
X90580357Y-70954819D02*
X90675595Y-71002438D01*
X90675595Y-71002438D02*
X90723214Y-71050057D01*
X90723214Y-71050057D02*
X90770833Y-71145295D01*
X90770833Y-71145295D02*
X90770833Y-71288152D01*
X90770833Y-71288152D02*
X90723214Y-71383390D01*
X90723214Y-71383390D02*
X90675595Y-71431009D01*
X90675595Y-71431009D02*
X90580357Y-71478628D01*
X90580357Y-71478628D02*
X90199405Y-71478628D01*
X91627976Y-70954819D02*
X91437500Y-70954819D01*
X91437500Y-70954819D02*
X91342262Y-71002438D01*
X91342262Y-71002438D02*
X91294643Y-71050057D01*
X91294643Y-71050057D02*
X91199405Y-71192914D01*
X91199405Y-71192914D02*
X91151786Y-71383390D01*
X91151786Y-71383390D02*
X91151786Y-71764342D01*
X91151786Y-71764342D02*
X91199405Y-71859580D01*
X91199405Y-71859580D02*
X91247024Y-71907200D01*
X91247024Y-71907200D02*
X91342262Y-71954819D01*
X91342262Y-71954819D02*
X91532738Y-71954819D01*
X91532738Y-71954819D02*
X91627976Y-71907200D01*
X91627976Y-71907200D02*
X91675595Y-71859580D01*
X91675595Y-71859580D02*
X91723214Y-71764342D01*
X91723214Y-71764342D02*
X91723214Y-71526247D01*
X91723214Y-71526247D02*
X91675595Y-71431009D01*
X91675595Y-71431009D02*
X91627976Y-71383390D01*
X91627976Y-71383390D02*
X91532738Y-71335771D01*
X91532738Y-71335771D02*
X91342262Y-71335771D01*
X91342262Y-71335771D02*
X91247024Y-71383390D01*
X91247024Y-71383390D02*
X91199405Y-71431009D01*
X91199405Y-71431009D02*
X91151786Y-71526247D01*
X122382142Y-76954819D02*
X122048809Y-76478628D01*
X121810714Y-76954819D02*
X121810714Y-75954819D01*
X121810714Y-75954819D02*
X122191666Y-75954819D01*
X122191666Y-75954819D02*
X122286904Y-76002438D01*
X122286904Y-76002438D02*
X122334523Y-76050057D01*
X122334523Y-76050057D02*
X122382142Y-76145295D01*
X122382142Y-76145295D02*
X122382142Y-76288152D01*
X122382142Y-76288152D02*
X122334523Y-76383390D01*
X122334523Y-76383390D02*
X122286904Y-76431009D01*
X122286904Y-76431009D02*
X122191666Y-76478628D01*
X122191666Y-76478628D02*
X121810714Y-76478628D01*
X123334523Y-76954819D02*
X122763095Y-76954819D01*
X123048809Y-76954819D02*
X123048809Y-75954819D01*
X123048809Y-75954819D02*
X122953571Y-76097676D01*
X122953571Y-76097676D02*
X122858333Y-76192914D01*
X122858333Y-76192914D02*
X122763095Y-76240533D01*
X123953571Y-75954819D02*
X124048809Y-75954819D01*
X124048809Y-75954819D02*
X124144047Y-76002438D01*
X124144047Y-76002438D02*
X124191666Y-76050057D01*
X124191666Y-76050057D02*
X124239285Y-76145295D01*
X124239285Y-76145295D02*
X124286904Y-76335771D01*
X124286904Y-76335771D02*
X124286904Y-76573866D01*
X124286904Y-76573866D02*
X124239285Y-76764342D01*
X124239285Y-76764342D02*
X124191666Y-76859580D01*
X124191666Y-76859580D02*
X124144047Y-76907200D01*
X124144047Y-76907200D02*
X124048809Y-76954819D01*
X124048809Y-76954819D02*
X123953571Y-76954819D01*
X123953571Y-76954819D02*
X123858333Y-76907200D01*
X123858333Y-76907200D02*
X123810714Y-76859580D01*
X123810714Y-76859580D02*
X123763095Y-76764342D01*
X123763095Y-76764342D02*
X123715476Y-76573866D01*
X123715476Y-76573866D02*
X123715476Y-76335771D01*
X123715476Y-76335771D02*
X123763095Y-76145295D01*
X123763095Y-76145295D02*
X123810714Y-76050057D01*
X123810714Y-76050057D02*
X123858333Y-76002438D01*
X123858333Y-76002438D02*
X123953571Y-75954819D01*
X91761905Y-82954819D02*
X91761905Y-81954819D01*
X91761905Y-81954819D02*
X92000000Y-81954819D01*
X92000000Y-81954819D02*
X92142857Y-82002438D01*
X92142857Y-82002438D02*
X92238095Y-82097676D01*
X92238095Y-82097676D02*
X92285714Y-82192914D01*
X92285714Y-82192914D02*
X92333333Y-82383390D01*
X92333333Y-82383390D02*
X92333333Y-82526247D01*
X92333333Y-82526247D02*
X92285714Y-82716723D01*
X92285714Y-82716723D02*
X92238095Y-82811961D01*
X92238095Y-82811961D02*
X92142857Y-82907200D01*
X92142857Y-82907200D02*
X92000000Y-82954819D01*
X92000000Y-82954819D02*
X91761905Y-82954819D01*
X92666667Y-81954819D02*
X93285714Y-81954819D01*
X93285714Y-81954819D02*
X92952381Y-82335771D01*
X92952381Y-82335771D02*
X93095238Y-82335771D01*
X93095238Y-82335771D02*
X93190476Y-82383390D01*
X93190476Y-82383390D02*
X93238095Y-82431009D01*
X93238095Y-82431009D02*
X93285714Y-82526247D01*
X93285714Y-82526247D02*
X93285714Y-82764342D01*
X93285714Y-82764342D02*
X93238095Y-82859580D01*
X93238095Y-82859580D02*
X93190476Y-82907200D01*
X93190476Y-82907200D02*
X93095238Y-82954819D01*
X93095238Y-82954819D02*
X92809524Y-82954819D01*
X92809524Y-82954819D02*
X92714286Y-82907200D01*
X92714286Y-82907200D02*
X92666667Y-82859580D01*
X90770833Y-76884819D02*
X90437500Y-76408628D01*
X90199405Y-76884819D02*
X90199405Y-75884819D01*
X90199405Y-75884819D02*
X90580357Y-75884819D01*
X90580357Y-75884819D02*
X90675595Y-75932438D01*
X90675595Y-75932438D02*
X90723214Y-75980057D01*
X90723214Y-75980057D02*
X90770833Y-76075295D01*
X90770833Y-76075295D02*
X90770833Y-76218152D01*
X90770833Y-76218152D02*
X90723214Y-76313390D01*
X90723214Y-76313390D02*
X90675595Y-76361009D01*
X90675595Y-76361009D02*
X90580357Y-76408628D01*
X90580357Y-76408628D02*
X90199405Y-76408628D01*
X91342262Y-76313390D02*
X91247024Y-76265771D01*
X91247024Y-76265771D02*
X91199405Y-76218152D01*
X91199405Y-76218152D02*
X91151786Y-76122914D01*
X91151786Y-76122914D02*
X91151786Y-76075295D01*
X91151786Y-76075295D02*
X91199405Y-75980057D01*
X91199405Y-75980057D02*
X91247024Y-75932438D01*
X91247024Y-75932438D02*
X91342262Y-75884819D01*
X91342262Y-75884819D02*
X91532738Y-75884819D01*
X91532738Y-75884819D02*
X91627976Y-75932438D01*
X91627976Y-75932438D02*
X91675595Y-75980057D01*
X91675595Y-75980057D02*
X91723214Y-76075295D01*
X91723214Y-76075295D02*
X91723214Y-76122914D01*
X91723214Y-76122914D02*
X91675595Y-76218152D01*
X91675595Y-76218152D02*
X91627976Y-76265771D01*
X91627976Y-76265771D02*
X91532738Y-76313390D01*
X91532738Y-76313390D02*
X91342262Y-76313390D01*
X91342262Y-76313390D02*
X91247024Y-76361009D01*
X91247024Y-76361009D02*
X91199405Y-76408628D01*
X91199405Y-76408628D02*
X91151786Y-76503866D01*
X91151786Y-76503866D02*
X91151786Y-76694342D01*
X91151786Y-76694342D02*
X91199405Y-76789580D01*
X91199405Y-76789580D02*
X91247024Y-76837200D01*
X91247024Y-76837200D02*
X91342262Y-76884819D01*
X91342262Y-76884819D02*
X91532738Y-76884819D01*
X91532738Y-76884819D02*
X91627976Y-76837200D01*
X91627976Y-76837200D02*
X91675595Y-76789580D01*
X91675595Y-76789580D02*
X91723214Y-76694342D01*
X91723214Y-76694342D02*
X91723214Y-76503866D01*
X91723214Y-76503866D02*
X91675595Y-76408628D01*
X91675595Y-76408628D02*
X91627976Y-76361009D01*
X91627976Y-76361009D02*
X91532738Y-76313390D01*
D12*
X103076667Y-64084318D02*
X103076667Y-64991461D01*
X103076667Y-64991461D02*
X103016190Y-65172889D01*
X103016190Y-65172889D02*
X102895238Y-65293842D01*
X102895238Y-65293842D02*
X102713809Y-65354318D01*
X102713809Y-65354318D02*
X102592857Y-65354318D01*
X104346667Y-65354318D02*
X103620952Y-65354318D01*
X103983809Y-65354318D02*
X103983809Y-64084318D01*
X103983809Y-64084318D02*
X103862857Y-64265746D01*
X103862857Y-64265746D02*
X103741905Y-64386699D01*
X103741905Y-64386699D02*
X103620952Y-64447175D01*
D11*
X116857142Y-77954819D02*
X116523809Y-77478628D01*
X116285714Y-77954819D02*
X116285714Y-76954819D01*
X116285714Y-76954819D02*
X116666666Y-76954819D01*
X116666666Y-76954819D02*
X116761904Y-77002438D01*
X116761904Y-77002438D02*
X116809523Y-77050057D01*
X116809523Y-77050057D02*
X116857142Y-77145295D01*
X116857142Y-77145295D02*
X116857142Y-77288152D01*
X116857142Y-77288152D02*
X116809523Y-77383390D01*
X116809523Y-77383390D02*
X116761904Y-77431009D01*
X116761904Y-77431009D02*
X116666666Y-77478628D01*
X116666666Y-77478628D02*
X116285714Y-77478628D01*
X117809523Y-77954819D02*
X117238095Y-77954819D01*
X117523809Y-77954819D02*
X117523809Y-76954819D01*
X117523809Y-76954819D02*
X117428571Y-77097676D01*
X117428571Y-77097676D02*
X117333333Y-77192914D01*
X117333333Y-77192914D02*
X117238095Y-77240533D01*
X118761904Y-77954819D02*
X118190476Y-77954819D01*
X118476190Y-77954819D02*
X118476190Y-76954819D01*
X118476190Y-76954819D02*
X118380952Y-77097676D01*
X118380952Y-77097676D02*
X118285714Y-77192914D01*
X118285714Y-77192914D02*
X118190476Y-77240533D01*
D13*
%TO.C,Q5*%
X95000000Y-72440000D02*
X94350000Y-72440000D01*
X95000000Y-72440000D02*
X95650000Y-72440000D01*
X95000000Y-75560000D02*
X94350000Y-75560000D01*
X95000000Y-75560000D02*
X95650000Y-75560000D01*
X93837500Y-72490000D02*
X93597500Y-72160000D01*
X94077500Y-72160000D01*
X93837500Y-72490000D01*
G36*
X93837500Y-72490000D02*
G01*
X93597500Y-72160000D01*
X94077500Y-72160000D01*
X93837500Y-72490000D01*
G37*
%TO.C,K3*%
X98627500Y-73800000D02*
X100527500Y-73800000D01*
X98627500Y-75750000D02*
X98627500Y-73800000D01*
X98917500Y-74100000D02*
X98917500Y-74300000D01*
X98917500Y-76300000D02*
X98917500Y-79700000D01*
X98917500Y-81700000D02*
X98917500Y-84100000D01*
X98917500Y-84100000D02*
X104917500Y-84100000D01*
X100937500Y-75600000D02*
X100937500Y-76000000D01*
X101137500Y-75800000D02*
X100737500Y-75800000D01*
X101477500Y-74600000D02*
X101477500Y-76000000D01*
X101477500Y-75300000D02*
X100677500Y-75300000D01*
X101477500Y-75700000D02*
X102477500Y-74900000D01*
X102477500Y-74600000D02*
X101477500Y-74600000D01*
X102477500Y-75300000D02*
X103277500Y-75300000D01*
X102477500Y-76000000D02*
X101477500Y-76000000D01*
X102477500Y-76000000D02*
X102477500Y-74600000D01*
D14*
X104897500Y-75900000D02*
X104897500Y-77900000D01*
D13*
X104917500Y-74100000D02*
X98917500Y-74100000D01*
X104917500Y-74300000D02*
X104917500Y-74100000D01*
X104917500Y-76300000D02*
X104917500Y-79700000D01*
X104917500Y-84100000D02*
X104917500Y-81700000D01*
%TO.C,D2*%
X102800000Y-71265000D02*
X100340000Y-71265000D01*
X100340000Y-71265000D02*
X100340000Y-72735000D01*
X100340000Y-72735000D02*
X102800000Y-72735000D01*
%TO.C,R12*%
X95915000Y-77832776D02*
X95915000Y-78342224D01*
X96960000Y-77832776D02*
X96960000Y-78342224D01*
%TO.C,D1*%
X110340000Y-72735000D02*
X112800000Y-72735000D01*
X110340000Y-71265000D02*
X110340000Y-72735000D01*
X112800000Y-71265000D02*
X110340000Y-71265000D01*
%TO.C,K4*%
X114917500Y-84300000D02*
X114917500Y-81900000D01*
X114917500Y-76500000D02*
X114917500Y-79900000D01*
X114917500Y-74500000D02*
X114917500Y-74300000D01*
X114917500Y-74300000D02*
X108917500Y-74300000D01*
D14*
X114897500Y-76100000D02*
X114897500Y-78100000D01*
D13*
X112477500Y-76200000D02*
X112477500Y-74800000D01*
X112477500Y-76200000D02*
X111477500Y-76200000D01*
X112477500Y-75500000D02*
X113277500Y-75500000D01*
X112477500Y-74800000D02*
X111477500Y-74800000D01*
X111477500Y-75900000D02*
X112477500Y-75100000D01*
X111477500Y-75500000D02*
X110677500Y-75500000D01*
X111477500Y-74800000D02*
X111477500Y-76200000D01*
X111137500Y-76000000D02*
X110737500Y-76000000D01*
X110937500Y-75800000D02*
X110937500Y-76200000D01*
X108917500Y-84300000D02*
X114917500Y-84300000D01*
X108917500Y-81900000D02*
X108917500Y-84300000D01*
X108917500Y-76500000D02*
X108917500Y-79900000D01*
X108917500Y-74300000D02*
X108917500Y-74500000D01*
X108627500Y-75950000D02*
X108627500Y-74000000D01*
X108627500Y-74000000D02*
X110527500Y-74000000D01*
%TO.C,D4*%
X120137500Y-80735000D02*
X122422500Y-80735000D01*
X122422500Y-79265000D02*
X120137500Y-79265000D01*
X122422500Y-80735000D02*
X122422500Y-79265000D01*
%TO.C,R22*%
X123192224Y-72477500D02*
X122682776Y-72477500D01*
X123192224Y-73522500D02*
X122682776Y-73522500D01*
%TO.C,Q4*%
X118937500Y-72440000D02*
X118287500Y-72440000D01*
X118937500Y-72440000D02*
X119587500Y-72440000D01*
X118937500Y-75560000D02*
X118287500Y-75560000D01*
X118937500Y-75560000D02*
X119587500Y-75560000D01*
X120340000Y-75840000D02*
X119860000Y-75840000D01*
X120100000Y-75510000D01*
X120340000Y-75840000D01*
G36*
X120340000Y-75840000D02*
G01*
X119860000Y-75840000D01*
X120100000Y-75510000D01*
X120340000Y-75840000D01*
G37*
%TO.C,R6*%
X91192224Y-72477500D02*
X90682776Y-72477500D01*
X91192224Y-73522500D02*
X90682776Y-73522500D01*
%TO.C,R10*%
X122770276Y-74477500D02*
X123279724Y-74477500D01*
X122770276Y-75522500D02*
X123279724Y-75522500D01*
%TO.C,D3*%
X91015000Y-80265000D02*
X91015000Y-81735000D01*
X91015000Y-81735000D02*
X93300000Y-81735000D01*
X93300000Y-80265000D02*
X91015000Y-80265000D01*
%TO.C,R8*%
X91192224Y-74477500D02*
X90682776Y-74477500D01*
X91192224Y-75522500D02*
X90682776Y-75522500D01*
D14*
%TO.C,J1*%
X83500000Y-60280000D02*
X123500000Y-60280000D01*
X83500000Y-69280000D02*
X83500000Y-60280000D01*
X123500000Y-60280000D02*
X123500000Y-69280000D01*
X123500000Y-69280000D02*
X83500000Y-69280000D01*
D13*
%TO.C,R11*%
X116915000Y-79745276D02*
X116915000Y-80254724D01*
X117960000Y-79745276D02*
X117960000Y-80254724D01*
%TD*%
M02*
