%TF.GenerationSoftware,KiCad,Pcbnew,9.0.1*%
%TF.CreationDate,2025-06-21T16:27:23+02:00*%
%TF.ProjectId,PUTM_EV_CART_INDICATOR,5055544d-5f45-4565-9f43-4152545f494e,rev?*%
%TF.SameCoordinates,Original*%
%TF.FileFunction,Drillmap*%
%TF.FilePolarity,Positive*%
%FSLAX45Y45*%
G04 Gerber Fmt 4.5, Leading zero omitted, Abs format (unit mm)*
G04 Created by KiCad (PCBNEW 9.0.1) date 2025-06-21 16:27:23*
%MOMM*%
%LPD*%
G01*
G04 APERTURE LIST*
%ADD10C,0.050000*%
%ADD11C,0.200000*%
%ADD12C,0.100000*%
%ADD13C,0.130000*%
G04 APERTURE END LIST*
D10*
X8200000Y-6000000D02*
X8200000Y-8458579D01*
X12400000Y-5900000D02*
X8300000Y-5900000D01*
X8200000Y-6000000D02*
G75*
G02*
X8300000Y-5900000I100000J0D01*
G01*
X12500000Y-6000000D02*
X12500000Y-8500000D01*
X12500000Y-8500000D02*
G75*
G02*
X12400000Y-8600000I-100000J0D01*
G01*
X12400000Y-5900000D02*
G75*
G02*
X12500000Y-6000000I0J-100000D01*
G01*
X12400000Y-8600000D02*
X8341421Y-8600000D01*
X8341421Y-8600000D02*
G75*
G02*
X8200000Y-8458579I-1J141420D01*
G01*
D11*
D12*
X9985000Y-7835000D02*
X10015000Y-7865000D01*
X10015000Y-7835000D02*
X9985000Y-7865000D01*
X10885000Y-8235000D02*
X10915000Y-8265000D01*
X10915000Y-8235000D02*
X10885000Y-8265000D01*
X10985000Y-7685000D02*
X11015000Y-7715000D01*
X11015000Y-7685000D02*
X10985000Y-7715000D01*
X11585000Y-7785000D02*
X11615000Y-7815000D01*
X11615000Y-7785000D02*
X11585000Y-7815000D01*
X11735000Y-7985000D02*
X11765000Y-8015000D01*
X11765000Y-7985000D02*
X11735000Y-8015000D01*
X9679500Y-7570000D02*
G75*
G02*
X9604500Y-7570000I-37500J0D01*
G01*
X9604500Y-7570000D02*
G75*
G02*
X9679500Y-7570000I37500J0D01*
G01*
X9679500Y-7890000D02*
G75*
G02*
X9604500Y-7890000I-37500J0D01*
G01*
X9604500Y-7890000D02*
G75*
G02*
X9679500Y-7890000I37500J0D01*
G01*
X9679500Y-8110000D02*
G75*
G02*
X9604500Y-8110000I-37500J0D01*
G01*
X9604500Y-8110000D02*
G75*
G02*
X9679500Y-8110000I37500J0D01*
G01*
X9679500Y-8330000D02*
G75*
G02*
X9604500Y-8330000I-37500J0D01*
G01*
X9604500Y-8330000D02*
G75*
G02*
X9679500Y-8330000I37500J0D01*
G01*
X10187500Y-7570000D02*
G75*
G02*
X10112500Y-7570000I-37500J0D01*
G01*
X10112500Y-7570000D02*
G75*
G02*
X10187500Y-7570000I37500J0D01*
G01*
X10187500Y-7890000D02*
G75*
G02*
X10112500Y-7890000I-37500J0D01*
G01*
X10112500Y-7890000D02*
G75*
G02*
X10187500Y-7890000I37500J0D01*
G01*
X10187500Y-8110000D02*
G75*
G02*
X10112500Y-8110000I-37500J0D01*
G01*
X10112500Y-8110000D02*
G75*
G02*
X10187500Y-8110000I37500J0D01*
G01*
X10187500Y-8330000D02*
G75*
G02*
X10112500Y-8330000I-37500J0D01*
G01*
X10112500Y-8330000D02*
G75*
G02*
X10187500Y-8330000I37500J0D01*
G01*
X10679500Y-7570000D02*
G75*
G02*
X10604500Y-7570000I-37500J0D01*
G01*
X10604500Y-7570000D02*
G75*
G02*
X10679500Y-7570000I37500J0D01*
G01*
X10679500Y-7890000D02*
G75*
G02*
X10604500Y-7890000I-37500J0D01*
G01*
X10604500Y-7890000D02*
G75*
G02*
X10679500Y-7890000I37500J0D01*
G01*
X10679500Y-8110000D02*
G75*
G02*
X10604500Y-8110000I-37500J0D01*
G01*
X10604500Y-8110000D02*
G75*
G02*
X10679500Y-8110000I37500J0D01*
G01*
X10679500Y-8330000D02*
G75*
G02*
X10604500Y-8330000I-37500J0D01*
G01*
X10604500Y-8330000D02*
G75*
G02*
X10679500Y-8330000I37500J0D01*
G01*
X11187500Y-7570000D02*
G75*
G02*
X11112500Y-7570000I-37500J0D01*
G01*
X11112500Y-7570000D02*
G75*
G02*
X11187500Y-7570000I37500J0D01*
G01*
X11187500Y-7890000D02*
G75*
G02*
X11112500Y-7890000I-37500J0D01*
G01*
X11112500Y-7890000D02*
G75*
G02*
X11187500Y-7890000I37500J0D01*
G01*
X11187500Y-8110000D02*
G75*
G02*
X11112500Y-8110000I-37500J0D01*
G01*
X11112500Y-8110000D02*
G75*
G02*
X11187500Y-8110000I37500J0D01*
G01*
X11187500Y-8330000D02*
G75*
G02*
X11112500Y-8330000I-37500J0D01*
G01*
X11112500Y-8330000D02*
G75*
G02*
X11187500Y-8330000I37500J0D01*
G01*
D13*
X8600000Y-6435000D02*
X8600000Y-6565000D01*
X8535000Y-6500000D02*
X8665000Y-6500000D01*
X9100000Y-6435000D02*
X9100000Y-6565000D01*
X9035000Y-6500000D02*
X9165000Y-6500000D01*
X9600000Y-6435000D02*
X9600000Y-6565000D01*
X9535000Y-6500000D02*
X9665000Y-6500000D01*
X10100000Y-6435000D02*
X10100000Y-6565000D01*
X10035000Y-6500000D02*
X10165000Y-6500000D01*
X10600000Y-6435000D02*
X10600000Y-6565000D01*
X10535000Y-6500000D02*
X10665000Y-6500000D01*
X11100000Y-6435000D02*
X11100000Y-6565000D01*
X11035000Y-6500000D02*
X11165000Y-6500000D01*
X11600000Y-6435000D02*
X11600000Y-6565000D01*
X11535000Y-6500000D02*
X11665000Y-6500000D01*
X12100000Y-6435000D02*
X12100000Y-6565000D01*
X12035000Y-6500000D02*
X12165000Y-6500000D01*
D11*
X8458277Y-8913984D02*
X8458277Y-8713984D01*
X8458277Y-8713984D02*
X8505896Y-8713984D01*
X8505896Y-8713984D02*
X8534467Y-8723508D01*
X8534467Y-8723508D02*
X8553515Y-8742555D01*
X8553515Y-8742555D02*
X8563039Y-8761603D01*
X8563039Y-8761603D02*
X8572563Y-8799698D01*
X8572563Y-8799698D02*
X8572563Y-8828270D01*
X8572563Y-8828270D02*
X8563039Y-8866365D01*
X8563039Y-8866365D02*
X8553515Y-8885412D01*
X8553515Y-8885412D02*
X8534467Y-8904460D01*
X8534467Y-8904460D02*
X8505896Y-8913984D01*
X8505896Y-8913984D02*
X8458277Y-8913984D01*
X8658277Y-8913984D02*
X8658277Y-8780650D01*
X8658277Y-8818746D02*
X8667801Y-8799698D01*
X8667801Y-8799698D02*
X8677324Y-8790174D01*
X8677324Y-8790174D02*
X8696372Y-8780650D01*
X8696372Y-8780650D02*
X8715420Y-8780650D01*
X8782086Y-8913984D02*
X8782086Y-8780650D01*
X8782086Y-8713984D02*
X8772563Y-8723508D01*
X8772563Y-8723508D02*
X8782086Y-8733031D01*
X8782086Y-8733031D02*
X8791610Y-8723508D01*
X8791610Y-8723508D02*
X8782086Y-8713984D01*
X8782086Y-8713984D02*
X8782086Y-8733031D01*
X8905896Y-8913984D02*
X8886848Y-8904460D01*
X8886848Y-8904460D02*
X8877324Y-8885412D01*
X8877324Y-8885412D02*
X8877324Y-8713984D01*
X9010658Y-8913984D02*
X8991610Y-8904460D01*
X8991610Y-8904460D02*
X8982086Y-8885412D01*
X8982086Y-8885412D02*
X8982086Y-8713984D01*
X9239229Y-8913984D02*
X9239229Y-8713984D01*
X9239229Y-8713984D02*
X9305896Y-8856841D01*
X9305896Y-8856841D02*
X9372563Y-8713984D01*
X9372563Y-8713984D02*
X9372563Y-8913984D01*
X9553515Y-8913984D02*
X9553515Y-8809222D01*
X9553515Y-8809222D02*
X9543991Y-8790174D01*
X9543991Y-8790174D02*
X9524944Y-8780650D01*
X9524944Y-8780650D02*
X9486848Y-8780650D01*
X9486848Y-8780650D02*
X9467801Y-8790174D01*
X9553515Y-8904460D02*
X9534467Y-8913984D01*
X9534467Y-8913984D02*
X9486848Y-8913984D01*
X9486848Y-8913984D02*
X9467801Y-8904460D01*
X9467801Y-8904460D02*
X9458277Y-8885412D01*
X9458277Y-8885412D02*
X9458277Y-8866365D01*
X9458277Y-8866365D02*
X9467801Y-8847317D01*
X9467801Y-8847317D02*
X9486848Y-8837793D01*
X9486848Y-8837793D02*
X9534467Y-8837793D01*
X9534467Y-8837793D02*
X9553515Y-8828270D01*
X9648753Y-8780650D02*
X9648753Y-8980650D01*
X9648753Y-8790174D02*
X9667801Y-8780650D01*
X9667801Y-8780650D02*
X9705896Y-8780650D01*
X9705896Y-8780650D02*
X9724944Y-8790174D01*
X9724944Y-8790174D02*
X9734467Y-8799698D01*
X9734467Y-8799698D02*
X9743991Y-8818746D01*
X9743991Y-8818746D02*
X9743991Y-8875889D01*
X9743991Y-8875889D02*
X9734467Y-8894936D01*
X9734467Y-8894936D02*
X9724944Y-8904460D01*
X9724944Y-8904460D02*
X9705896Y-8913984D01*
X9705896Y-8913984D02*
X9667801Y-8913984D01*
X9667801Y-8913984D02*
X9648753Y-8904460D01*
X9829705Y-8894936D02*
X9839229Y-8904460D01*
X9839229Y-8904460D02*
X9829705Y-8913984D01*
X9829705Y-8913984D02*
X9820182Y-8904460D01*
X9820182Y-8904460D02*
X9829705Y-8894936D01*
X9829705Y-8894936D02*
X9829705Y-8913984D01*
X9829705Y-8790174D02*
X9839229Y-8799698D01*
X9839229Y-8799698D02*
X9829705Y-8809222D01*
X9829705Y-8809222D02*
X9820182Y-8799698D01*
X9820182Y-8799698D02*
X9829705Y-8790174D01*
X9829705Y-8790174D02*
X9829705Y-8809222D01*
D12*
X8167500Y-9227500D02*
X8197500Y-9257500D01*
X8197500Y-9227500D02*
X8167500Y-9257500D01*
D11*
X8496372Y-9133984D02*
X8515420Y-9133984D01*
X8515420Y-9133984D02*
X8534467Y-9143508D01*
X8534467Y-9143508D02*
X8543991Y-9153031D01*
X8543991Y-9153031D02*
X8553515Y-9172079D01*
X8553515Y-9172079D02*
X8563039Y-9210174D01*
X8563039Y-9210174D02*
X8563039Y-9257793D01*
X8563039Y-9257793D02*
X8553515Y-9295889D01*
X8553515Y-9295889D02*
X8543991Y-9314936D01*
X8543991Y-9314936D02*
X8534467Y-9324460D01*
X8534467Y-9324460D02*
X8515420Y-9333984D01*
X8515420Y-9333984D02*
X8496372Y-9333984D01*
X8496372Y-9333984D02*
X8477324Y-9324460D01*
X8477324Y-9324460D02*
X8467801Y-9314936D01*
X8467801Y-9314936D02*
X8458277Y-9295889D01*
X8458277Y-9295889D02*
X8448753Y-9257793D01*
X8448753Y-9257793D02*
X8448753Y-9210174D01*
X8448753Y-9210174D02*
X8458277Y-9172079D01*
X8458277Y-9172079D02*
X8467801Y-9153031D01*
X8467801Y-9153031D02*
X8477324Y-9143508D01*
X8477324Y-9143508D02*
X8496372Y-9133984D01*
X8648753Y-9314936D02*
X8658277Y-9324460D01*
X8658277Y-9324460D02*
X8648753Y-9333984D01*
X8648753Y-9333984D02*
X8639229Y-9324460D01*
X8639229Y-9324460D02*
X8648753Y-9314936D01*
X8648753Y-9314936D02*
X8648753Y-9333984D01*
X8724944Y-9133984D02*
X8848753Y-9133984D01*
X8848753Y-9133984D02*
X8782086Y-9210174D01*
X8782086Y-9210174D02*
X8810658Y-9210174D01*
X8810658Y-9210174D02*
X8829705Y-9219698D01*
X8829705Y-9219698D02*
X8839229Y-9229222D01*
X8839229Y-9229222D02*
X8848753Y-9248270D01*
X8848753Y-9248270D02*
X8848753Y-9295889D01*
X8848753Y-9295889D02*
X8839229Y-9314936D01*
X8839229Y-9314936D02*
X8829705Y-9324460D01*
X8829705Y-9324460D02*
X8810658Y-9333984D01*
X8810658Y-9333984D02*
X8753515Y-9333984D01*
X8753515Y-9333984D02*
X8734467Y-9324460D01*
X8734467Y-9324460D02*
X8724944Y-9314936D01*
X8972563Y-9133984D02*
X8991610Y-9133984D01*
X8991610Y-9133984D02*
X9010658Y-9143508D01*
X9010658Y-9143508D02*
X9020182Y-9153031D01*
X9020182Y-9153031D02*
X9029705Y-9172079D01*
X9029705Y-9172079D02*
X9039229Y-9210174D01*
X9039229Y-9210174D02*
X9039229Y-9257793D01*
X9039229Y-9257793D02*
X9029705Y-9295889D01*
X9029705Y-9295889D02*
X9020182Y-9314936D01*
X9020182Y-9314936D02*
X9010658Y-9324460D01*
X9010658Y-9324460D02*
X8991610Y-9333984D01*
X8991610Y-9333984D02*
X8972563Y-9333984D01*
X8972563Y-9333984D02*
X8953515Y-9324460D01*
X8953515Y-9324460D02*
X8943991Y-9314936D01*
X8943991Y-9314936D02*
X8934467Y-9295889D01*
X8934467Y-9295889D02*
X8924944Y-9257793D01*
X8924944Y-9257793D02*
X8924944Y-9210174D01*
X8924944Y-9210174D02*
X8934467Y-9172079D01*
X8934467Y-9172079D02*
X8943991Y-9153031D01*
X8943991Y-9153031D02*
X8953515Y-9143508D01*
X8953515Y-9143508D02*
X8972563Y-9133984D01*
X9163039Y-9133984D02*
X9182086Y-9133984D01*
X9182086Y-9133984D02*
X9201134Y-9143508D01*
X9201134Y-9143508D02*
X9210658Y-9153031D01*
X9210658Y-9153031D02*
X9220182Y-9172079D01*
X9220182Y-9172079D02*
X9229705Y-9210174D01*
X9229705Y-9210174D02*
X9229705Y-9257793D01*
X9229705Y-9257793D02*
X9220182Y-9295889D01*
X9220182Y-9295889D02*
X9210658Y-9314936D01*
X9210658Y-9314936D02*
X9201134Y-9324460D01*
X9201134Y-9324460D02*
X9182086Y-9333984D01*
X9182086Y-9333984D02*
X9163039Y-9333984D01*
X9163039Y-9333984D02*
X9143991Y-9324460D01*
X9143991Y-9324460D02*
X9134467Y-9314936D01*
X9134467Y-9314936D02*
X9124944Y-9295889D01*
X9124944Y-9295889D02*
X9115420Y-9257793D01*
X9115420Y-9257793D02*
X9115420Y-9210174D01*
X9115420Y-9210174D02*
X9124944Y-9172079D01*
X9124944Y-9172079D02*
X9134467Y-9153031D01*
X9134467Y-9153031D02*
X9143991Y-9143508D01*
X9143991Y-9143508D02*
X9163039Y-9133984D01*
X9315420Y-9333984D02*
X9315420Y-9200650D01*
X9315420Y-9219698D02*
X9324944Y-9210174D01*
X9324944Y-9210174D02*
X9343991Y-9200650D01*
X9343991Y-9200650D02*
X9372563Y-9200650D01*
X9372563Y-9200650D02*
X9391610Y-9210174D01*
X9391610Y-9210174D02*
X9401134Y-9229222D01*
X9401134Y-9229222D02*
X9401134Y-9333984D01*
X9401134Y-9229222D02*
X9410658Y-9210174D01*
X9410658Y-9210174D02*
X9429705Y-9200650D01*
X9429705Y-9200650D02*
X9458277Y-9200650D01*
X9458277Y-9200650D02*
X9477325Y-9210174D01*
X9477325Y-9210174D02*
X9486848Y-9229222D01*
X9486848Y-9229222D02*
X9486848Y-9333984D01*
X9582086Y-9333984D02*
X9582086Y-9200650D01*
X9582086Y-9219698D02*
X9591610Y-9210174D01*
X9591610Y-9210174D02*
X9610658Y-9200650D01*
X9610658Y-9200650D02*
X9639229Y-9200650D01*
X9639229Y-9200650D02*
X9658277Y-9210174D01*
X9658277Y-9210174D02*
X9667801Y-9229222D01*
X9667801Y-9229222D02*
X9667801Y-9333984D01*
X9667801Y-9229222D02*
X9677325Y-9210174D01*
X9677325Y-9210174D02*
X9696372Y-9200650D01*
X9696372Y-9200650D02*
X9724944Y-9200650D01*
X9724944Y-9200650D02*
X9743991Y-9210174D01*
X9743991Y-9210174D02*
X9753515Y-9229222D01*
X9753515Y-9229222D02*
X9753515Y-9333984D01*
X10143991Y-9124460D02*
X9972563Y-9381603D01*
X10401134Y-9133984D02*
X10420182Y-9133984D01*
X10420182Y-9133984D02*
X10439229Y-9143508D01*
X10439229Y-9143508D02*
X10448753Y-9153031D01*
X10448753Y-9153031D02*
X10458277Y-9172079D01*
X10458277Y-9172079D02*
X10467801Y-9210174D01*
X10467801Y-9210174D02*
X10467801Y-9257793D01*
X10467801Y-9257793D02*
X10458277Y-9295889D01*
X10458277Y-9295889D02*
X10448753Y-9314936D01*
X10448753Y-9314936D02*
X10439229Y-9324460D01*
X10439229Y-9324460D02*
X10420182Y-9333984D01*
X10420182Y-9333984D02*
X10401134Y-9333984D01*
X10401134Y-9333984D02*
X10382087Y-9324460D01*
X10382087Y-9324460D02*
X10372563Y-9314936D01*
X10372563Y-9314936D02*
X10363039Y-9295889D01*
X10363039Y-9295889D02*
X10353515Y-9257793D01*
X10353515Y-9257793D02*
X10353515Y-9210174D01*
X10353515Y-9210174D02*
X10363039Y-9172079D01*
X10363039Y-9172079D02*
X10372563Y-9153031D01*
X10372563Y-9153031D02*
X10382087Y-9143508D01*
X10382087Y-9143508D02*
X10401134Y-9133984D01*
X10553515Y-9314936D02*
X10563039Y-9324460D01*
X10563039Y-9324460D02*
X10553515Y-9333984D01*
X10553515Y-9333984D02*
X10543991Y-9324460D01*
X10543991Y-9324460D02*
X10553515Y-9314936D01*
X10553515Y-9314936D02*
X10553515Y-9333984D01*
X10686848Y-9133984D02*
X10705896Y-9133984D01*
X10705896Y-9133984D02*
X10724944Y-9143508D01*
X10724944Y-9143508D02*
X10734468Y-9153031D01*
X10734468Y-9153031D02*
X10743991Y-9172079D01*
X10743991Y-9172079D02*
X10753515Y-9210174D01*
X10753515Y-9210174D02*
X10753515Y-9257793D01*
X10753515Y-9257793D02*
X10743991Y-9295889D01*
X10743991Y-9295889D02*
X10734468Y-9314936D01*
X10734468Y-9314936D02*
X10724944Y-9324460D01*
X10724944Y-9324460D02*
X10705896Y-9333984D01*
X10705896Y-9333984D02*
X10686848Y-9333984D01*
X10686848Y-9333984D02*
X10667801Y-9324460D01*
X10667801Y-9324460D02*
X10658277Y-9314936D01*
X10658277Y-9314936D02*
X10648753Y-9295889D01*
X10648753Y-9295889D02*
X10639229Y-9257793D01*
X10639229Y-9257793D02*
X10639229Y-9210174D01*
X10639229Y-9210174D02*
X10648753Y-9172079D01*
X10648753Y-9172079D02*
X10658277Y-9153031D01*
X10658277Y-9153031D02*
X10667801Y-9143508D01*
X10667801Y-9143508D02*
X10686848Y-9133984D01*
X10943991Y-9333984D02*
X10829706Y-9333984D01*
X10886848Y-9333984D02*
X10886848Y-9133984D01*
X10886848Y-9133984D02*
X10867801Y-9162555D01*
X10867801Y-9162555D02*
X10848753Y-9181603D01*
X10848753Y-9181603D02*
X10829706Y-9191127D01*
X11134468Y-9333984D02*
X11020182Y-9333984D01*
X11077325Y-9333984D02*
X11077325Y-9133984D01*
X11077325Y-9133984D02*
X11058277Y-9162555D01*
X11058277Y-9162555D02*
X11039229Y-9181603D01*
X11039229Y-9181603D02*
X11020182Y-9191127D01*
X11248753Y-9219698D02*
X11229706Y-9210174D01*
X11229706Y-9210174D02*
X11220182Y-9200650D01*
X11220182Y-9200650D02*
X11210658Y-9181603D01*
X11210658Y-9181603D02*
X11210658Y-9172079D01*
X11210658Y-9172079D02*
X11220182Y-9153031D01*
X11220182Y-9153031D02*
X11229706Y-9143508D01*
X11229706Y-9143508D02*
X11248753Y-9133984D01*
X11248753Y-9133984D02*
X11286848Y-9133984D01*
X11286848Y-9133984D02*
X11305896Y-9143508D01*
X11305896Y-9143508D02*
X11315420Y-9153031D01*
X11315420Y-9153031D02*
X11324944Y-9172079D01*
X11324944Y-9172079D02*
X11324944Y-9181603D01*
X11324944Y-9181603D02*
X11315420Y-9200650D01*
X11315420Y-9200650D02*
X11305896Y-9210174D01*
X11305896Y-9210174D02*
X11286848Y-9219698D01*
X11286848Y-9219698D02*
X11248753Y-9219698D01*
X11248753Y-9219698D02*
X11229706Y-9229222D01*
X11229706Y-9229222D02*
X11220182Y-9238746D01*
X11220182Y-9238746D02*
X11210658Y-9257793D01*
X11210658Y-9257793D02*
X11210658Y-9295889D01*
X11210658Y-9295889D02*
X11220182Y-9314936D01*
X11220182Y-9314936D02*
X11229706Y-9324460D01*
X11229706Y-9324460D02*
X11248753Y-9333984D01*
X11248753Y-9333984D02*
X11286848Y-9333984D01*
X11286848Y-9333984D02*
X11305896Y-9324460D01*
X11305896Y-9324460D02*
X11315420Y-9314936D01*
X11315420Y-9314936D02*
X11324944Y-9295889D01*
X11324944Y-9295889D02*
X11324944Y-9257793D01*
X11324944Y-9257793D02*
X11315420Y-9238746D01*
X11315420Y-9238746D02*
X11305896Y-9229222D01*
X11305896Y-9229222D02*
X11286848Y-9219698D01*
X11401134Y-9133984D02*
X11401134Y-9172079D01*
X11477325Y-9133984D02*
X11477325Y-9172079D01*
X11772563Y-9410174D02*
X11763039Y-9400650D01*
X11763039Y-9400650D02*
X11743991Y-9372079D01*
X11743991Y-9372079D02*
X11734468Y-9353031D01*
X11734468Y-9353031D02*
X11724944Y-9324460D01*
X11724944Y-9324460D02*
X11715420Y-9276841D01*
X11715420Y-9276841D02*
X11715420Y-9238746D01*
X11715420Y-9238746D02*
X11724944Y-9191127D01*
X11724944Y-9191127D02*
X11734468Y-9162555D01*
X11734468Y-9162555D02*
X11743991Y-9143508D01*
X11743991Y-9143508D02*
X11763039Y-9114936D01*
X11763039Y-9114936D02*
X11772563Y-9105412D01*
X11943991Y-9133984D02*
X11848753Y-9133984D01*
X11848753Y-9133984D02*
X11839229Y-9229222D01*
X11839229Y-9229222D02*
X11848753Y-9219698D01*
X11848753Y-9219698D02*
X11867801Y-9210174D01*
X11867801Y-9210174D02*
X11915420Y-9210174D01*
X11915420Y-9210174D02*
X11934468Y-9219698D01*
X11934468Y-9219698D02*
X11943991Y-9229222D01*
X11943991Y-9229222D02*
X11953515Y-9248270D01*
X11953515Y-9248270D02*
X11953515Y-9295889D01*
X11953515Y-9295889D02*
X11943991Y-9314936D01*
X11943991Y-9314936D02*
X11934468Y-9324460D01*
X11934468Y-9324460D02*
X11915420Y-9333984D01*
X11915420Y-9333984D02*
X11867801Y-9333984D01*
X11867801Y-9333984D02*
X11848753Y-9324460D01*
X11848753Y-9324460D02*
X11839229Y-9314936D01*
X12191610Y-9333984D02*
X12191610Y-9133984D01*
X12277325Y-9333984D02*
X12277325Y-9229222D01*
X12277325Y-9229222D02*
X12267801Y-9210174D01*
X12267801Y-9210174D02*
X12248753Y-9200650D01*
X12248753Y-9200650D02*
X12220182Y-9200650D01*
X12220182Y-9200650D02*
X12201134Y-9210174D01*
X12201134Y-9210174D02*
X12191610Y-9219698D01*
X12401134Y-9333984D02*
X12382087Y-9324460D01*
X12382087Y-9324460D02*
X12372563Y-9314936D01*
X12372563Y-9314936D02*
X12363039Y-9295889D01*
X12363039Y-9295889D02*
X12363039Y-9238746D01*
X12363039Y-9238746D02*
X12372563Y-9219698D01*
X12372563Y-9219698D02*
X12382087Y-9210174D01*
X12382087Y-9210174D02*
X12401134Y-9200650D01*
X12401134Y-9200650D02*
X12429706Y-9200650D01*
X12429706Y-9200650D02*
X12448753Y-9210174D01*
X12448753Y-9210174D02*
X12458277Y-9219698D01*
X12458277Y-9219698D02*
X12467801Y-9238746D01*
X12467801Y-9238746D02*
X12467801Y-9295889D01*
X12467801Y-9295889D02*
X12458277Y-9314936D01*
X12458277Y-9314936D02*
X12448753Y-9324460D01*
X12448753Y-9324460D02*
X12429706Y-9333984D01*
X12429706Y-9333984D02*
X12401134Y-9333984D01*
X12582087Y-9333984D02*
X12563039Y-9324460D01*
X12563039Y-9324460D02*
X12553515Y-9305412D01*
X12553515Y-9305412D02*
X12553515Y-9133984D01*
X12734468Y-9324460D02*
X12715420Y-9333984D01*
X12715420Y-9333984D02*
X12677325Y-9333984D01*
X12677325Y-9333984D02*
X12658277Y-9324460D01*
X12658277Y-9324460D02*
X12648753Y-9305412D01*
X12648753Y-9305412D02*
X12648753Y-9229222D01*
X12648753Y-9229222D02*
X12658277Y-9210174D01*
X12658277Y-9210174D02*
X12677325Y-9200650D01*
X12677325Y-9200650D02*
X12715420Y-9200650D01*
X12715420Y-9200650D02*
X12734468Y-9210174D01*
X12734468Y-9210174D02*
X12743991Y-9229222D01*
X12743991Y-9229222D02*
X12743991Y-9248270D01*
X12743991Y-9248270D02*
X12648753Y-9267317D01*
X12820182Y-9324460D02*
X12839230Y-9333984D01*
X12839230Y-9333984D02*
X12877325Y-9333984D01*
X12877325Y-9333984D02*
X12896372Y-9324460D01*
X12896372Y-9324460D02*
X12905896Y-9305412D01*
X12905896Y-9305412D02*
X12905896Y-9295889D01*
X12905896Y-9295889D02*
X12896372Y-9276841D01*
X12896372Y-9276841D02*
X12877325Y-9267317D01*
X12877325Y-9267317D02*
X12848753Y-9267317D01*
X12848753Y-9267317D02*
X12829706Y-9257793D01*
X12829706Y-9257793D02*
X12820182Y-9238746D01*
X12820182Y-9238746D02*
X12820182Y-9229222D01*
X12820182Y-9229222D02*
X12829706Y-9210174D01*
X12829706Y-9210174D02*
X12848753Y-9200650D01*
X12848753Y-9200650D02*
X12877325Y-9200650D01*
X12877325Y-9200650D02*
X12896372Y-9210174D01*
X12972563Y-9410174D02*
X12982087Y-9400650D01*
X12982087Y-9400650D02*
X13001134Y-9372079D01*
X13001134Y-9372079D02*
X13010658Y-9353031D01*
X13010658Y-9353031D02*
X13020182Y-9324460D01*
X13020182Y-9324460D02*
X13029706Y-9276841D01*
X13029706Y-9276841D02*
X13029706Y-9238746D01*
X13029706Y-9238746D02*
X13020182Y-9191127D01*
X13020182Y-9191127D02*
X13010658Y-9162555D01*
X13010658Y-9162555D02*
X13001134Y-9143508D01*
X13001134Y-9143508D02*
X12982087Y-9114936D01*
X12982087Y-9114936D02*
X12972563Y-9105412D01*
D12*
X8197500Y-9506500D02*
G75*
G02*
X8122500Y-9506500I-37500J0D01*
G01*
X8122500Y-9506500D02*
G75*
G02*
X8197500Y-9506500I37500J0D01*
G01*
D11*
X8496372Y-9397984D02*
X8515420Y-9397984D01*
X8515420Y-9397984D02*
X8534467Y-9407508D01*
X8534467Y-9407508D02*
X8543991Y-9417031D01*
X8543991Y-9417031D02*
X8553515Y-9436079D01*
X8553515Y-9436079D02*
X8563039Y-9474174D01*
X8563039Y-9474174D02*
X8563039Y-9521793D01*
X8563039Y-9521793D02*
X8553515Y-9559889D01*
X8553515Y-9559889D02*
X8543991Y-9578936D01*
X8543991Y-9578936D02*
X8534467Y-9588460D01*
X8534467Y-9588460D02*
X8515420Y-9597984D01*
X8515420Y-9597984D02*
X8496372Y-9597984D01*
X8496372Y-9597984D02*
X8477324Y-9588460D01*
X8477324Y-9588460D02*
X8467801Y-9578936D01*
X8467801Y-9578936D02*
X8458277Y-9559889D01*
X8458277Y-9559889D02*
X8448753Y-9521793D01*
X8448753Y-9521793D02*
X8448753Y-9474174D01*
X8448753Y-9474174D02*
X8458277Y-9436079D01*
X8458277Y-9436079D02*
X8467801Y-9417031D01*
X8467801Y-9417031D02*
X8477324Y-9407508D01*
X8477324Y-9407508D02*
X8496372Y-9397984D01*
X8648753Y-9578936D02*
X8658277Y-9588460D01*
X8658277Y-9588460D02*
X8648753Y-9597984D01*
X8648753Y-9597984D02*
X8639229Y-9588460D01*
X8639229Y-9588460D02*
X8648753Y-9578936D01*
X8648753Y-9578936D02*
X8648753Y-9597984D01*
X8724944Y-9397984D02*
X8858277Y-9397984D01*
X8858277Y-9397984D02*
X8772563Y-9597984D01*
X9029705Y-9397984D02*
X8934467Y-9397984D01*
X8934467Y-9397984D02*
X8924944Y-9493222D01*
X8924944Y-9493222D02*
X8934467Y-9483698D01*
X8934467Y-9483698D02*
X8953515Y-9474174D01*
X8953515Y-9474174D02*
X9001134Y-9474174D01*
X9001134Y-9474174D02*
X9020182Y-9483698D01*
X9020182Y-9483698D02*
X9029705Y-9493222D01*
X9029705Y-9493222D02*
X9039229Y-9512270D01*
X9039229Y-9512270D02*
X9039229Y-9559889D01*
X9039229Y-9559889D02*
X9029705Y-9578936D01*
X9029705Y-9578936D02*
X9020182Y-9588460D01*
X9020182Y-9588460D02*
X9001134Y-9597984D01*
X9001134Y-9597984D02*
X8953515Y-9597984D01*
X8953515Y-9597984D02*
X8934467Y-9588460D01*
X8934467Y-9588460D02*
X8924944Y-9578936D01*
X9163039Y-9397984D02*
X9182086Y-9397984D01*
X9182086Y-9397984D02*
X9201134Y-9407508D01*
X9201134Y-9407508D02*
X9210658Y-9417031D01*
X9210658Y-9417031D02*
X9220182Y-9436079D01*
X9220182Y-9436079D02*
X9229705Y-9474174D01*
X9229705Y-9474174D02*
X9229705Y-9521793D01*
X9229705Y-9521793D02*
X9220182Y-9559889D01*
X9220182Y-9559889D02*
X9210658Y-9578936D01*
X9210658Y-9578936D02*
X9201134Y-9588460D01*
X9201134Y-9588460D02*
X9182086Y-9597984D01*
X9182086Y-9597984D02*
X9163039Y-9597984D01*
X9163039Y-9597984D02*
X9143991Y-9588460D01*
X9143991Y-9588460D02*
X9134467Y-9578936D01*
X9134467Y-9578936D02*
X9124944Y-9559889D01*
X9124944Y-9559889D02*
X9115420Y-9521793D01*
X9115420Y-9521793D02*
X9115420Y-9474174D01*
X9115420Y-9474174D02*
X9124944Y-9436079D01*
X9124944Y-9436079D02*
X9134467Y-9417031D01*
X9134467Y-9417031D02*
X9143991Y-9407508D01*
X9143991Y-9407508D02*
X9163039Y-9397984D01*
X9315420Y-9597984D02*
X9315420Y-9464650D01*
X9315420Y-9483698D02*
X9324944Y-9474174D01*
X9324944Y-9474174D02*
X9343991Y-9464650D01*
X9343991Y-9464650D02*
X9372563Y-9464650D01*
X9372563Y-9464650D02*
X9391610Y-9474174D01*
X9391610Y-9474174D02*
X9401134Y-9493222D01*
X9401134Y-9493222D02*
X9401134Y-9597984D01*
X9401134Y-9493222D02*
X9410658Y-9474174D01*
X9410658Y-9474174D02*
X9429705Y-9464650D01*
X9429705Y-9464650D02*
X9458277Y-9464650D01*
X9458277Y-9464650D02*
X9477325Y-9474174D01*
X9477325Y-9474174D02*
X9486848Y-9493222D01*
X9486848Y-9493222D02*
X9486848Y-9597984D01*
X9582086Y-9597984D02*
X9582086Y-9464650D01*
X9582086Y-9483698D02*
X9591610Y-9474174D01*
X9591610Y-9474174D02*
X9610658Y-9464650D01*
X9610658Y-9464650D02*
X9639229Y-9464650D01*
X9639229Y-9464650D02*
X9658277Y-9474174D01*
X9658277Y-9474174D02*
X9667801Y-9493222D01*
X9667801Y-9493222D02*
X9667801Y-9597984D01*
X9667801Y-9493222D02*
X9677325Y-9474174D01*
X9677325Y-9474174D02*
X9696372Y-9464650D01*
X9696372Y-9464650D02*
X9724944Y-9464650D01*
X9724944Y-9464650D02*
X9743991Y-9474174D01*
X9743991Y-9474174D02*
X9753515Y-9493222D01*
X9753515Y-9493222D02*
X9753515Y-9597984D01*
X10143991Y-9388460D02*
X9972563Y-9645603D01*
X10401134Y-9397984D02*
X10420182Y-9397984D01*
X10420182Y-9397984D02*
X10439229Y-9407508D01*
X10439229Y-9407508D02*
X10448753Y-9417031D01*
X10448753Y-9417031D02*
X10458277Y-9436079D01*
X10458277Y-9436079D02*
X10467801Y-9474174D01*
X10467801Y-9474174D02*
X10467801Y-9521793D01*
X10467801Y-9521793D02*
X10458277Y-9559889D01*
X10458277Y-9559889D02*
X10448753Y-9578936D01*
X10448753Y-9578936D02*
X10439229Y-9588460D01*
X10439229Y-9588460D02*
X10420182Y-9597984D01*
X10420182Y-9597984D02*
X10401134Y-9597984D01*
X10401134Y-9597984D02*
X10382087Y-9588460D01*
X10382087Y-9588460D02*
X10372563Y-9578936D01*
X10372563Y-9578936D02*
X10363039Y-9559889D01*
X10363039Y-9559889D02*
X10353515Y-9521793D01*
X10353515Y-9521793D02*
X10353515Y-9474174D01*
X10353515Y-9474174D02*
X10363039Y-9436079D01*
X10363039Y-9436079D02*
X10372563Y-9417031D01*
X10372563Y-9417031D02*
X10382087Y-9407508D01*
X10382087Y-9407508D02*
X10401134Y-9397984D01*
X10553515Y-9578936D02*
X10563039Y-9588460D01*
X10563039Y-9588460D02*
X10553515Y-9597984D01*
X10553515Y-9597984D02*
X10543991Y-9588460D01*
X10543991Y-9588460D02*
X10553515Y-9578936D01*
X10553515Y-9578936D02*
X10553515Y-9597984D01*
X10686848Y-9397984D02*
X10705896Y-9397984D01*
X10705896Y-9397984D02*
X10724944Y-9407508D01*
X10724944Y-9407508D02*
X10734468Y-9417031D01*
X10734468Y-9417031D02*
X10743991Y-9436079D01*
X10743991Y-9436079D02*
X10753515Y-9474174D01*
X10753515Y-9474174D02*
X10753515Y-9521793D01*
X10753515Y-9521793D02*
X10743991Y-9559889D01*
X10743991Y-9559889D02*
X10734468Y-9578936D01*
X10734468Y-9578936D02*
X10724944Y-9588460D01*
X10724944Y-9588460D02*
X10705896Y-9597984D01*
X10705896Y-9597984D02*
X10686848Y-9597984D01*
X10686848Y-9597984D02*
X10667801Y-9588460D01*
X10667801Y-9588460D02*
X10658277Y-9578936D01*
X10658277Y-9578936D02*
X10648753Y-9559889D01*
X10648753Y-9559889D02*
X10639229Y-9521793D01*
X10639229Y-9521793D02*
X10639229Y-9474174D01*
X10639229Y-9474174D02*
X10648753Y-9436079D01*
X10648753Y-9436079D02*
X10658277Y-9417031D01*
X10658277Y-9417031D02*
X10667801Y-9407508D01*
X10667801Y-9407508D02*
X10686848Y-9397984D01*
X10829706Y-9417031D02*
X10839229Y-9407508D01*
X10839229Y-9407508D02*
X10858277Y-9397984D01*
X10858277Y-9397984D02*
X10905896Y-9397984D01*
X10905896Y-9397984D02*
X10924944Y-9407508D01*
X10924944Y-9407508D02*
X10934468Y-9417031D01*
X10934468Y-9417031D02*
X10943991Y-9436079D01*
X10943991Y-9436079D02*
X10943991Y-9455127D01*
X10943991Y-9455127D02*
X10934468Y-9483698D01*
X10934468Y-9483698D02*
X10820182Y-9597984D01*
X10820182Y-9597984D02*
X10943991Y-9597984D01*
X11039229Y-9597984D02*
X11077325Y-9597984D01*
X11077325Y-9597984D02*
X11096372Y-9588460D01*
X11096372Y-9588460D02*
X11105896Y-9578936D01*
X11105896Y-9578936D02*
X11124944Y-9550365D01*
X11124944Y-9550365D02*
X11134468Y-9512270D01*
X11134468Y-9512270D02*
X11134468Y-9436079D01*
X11134468Y-9436079D02*
X11124944Y-9417031D01*
X11124944Y-9417031D02*
X11115420Y-9407508D01*
X11115420Y-9407508D02*
X11096372Y-9397984D01*
X11096372Y-9397984D02*
X11058277Y-9397984D01*
X11058277Y-9397984D02*
X11039229Y-9407508D01*
X11039229Y-9407508D02*
X11029706Y-9417031D01*
X11029706Y-9417031D02*
X11020182Y-9436079D01*
X11020182Y-9436079D02*
X11020182Y-9483698D01*
X11020182Y-9483698D02*
X11029706Y-9502746D01*
X11029706Y-9502746D02*
X11039229Y-9512270D01*
X11039229Y-9512270D02*
X11058277Y-9521793D01*
X11058277Y-9521793D02*
X11096372Y-9521793D01*
X11096372Y-9521793D02*
X11115420Y-9512270D01*
X11115420Y-9512270D02*
X11124944Y-9502746D01*
X11124944Y-9502746D02*
X11134468Y-9483698D01*
X11315420Y-9397984D02*
X11220182Y-9397984D01*
X11220182Y-9397984D02*
X11210658Y-9493222D01*
X11210658Y-9493222D02*
X11220182Y-9483698D01*
X11220182Y-9483698D02*
X11239229Y-9474174D01*
X11239229Y-9474174D02*
X11286848Y-9474174D01*
X11286848Y-9474174D02*
X11305896Y-9483698D01*
X11305896Y-9483698D02*
X11315420Y-9493222D01*
X11315420Y-9493222D02*
X11324944Y-9512270D01*
X11324944Y-9512270D02*
X11324944Y-9559889D01*
X11324944Y-9559889D02*
X11315420Y-9578936D01*
X11315420Y-9578936D02*
X11305896Y-9588460D01*
X11305896Y-9588460D02*
X11286848Y-9597984D01*
X11286848Y-9597984D02*
X11239229Y-9597984D01*
X11239229Y-9597984D02*
X11220182Y-9588460D01*
X11220182Y-9588460D02*
X11210658Y-9578936D01*
X11401134Y-9397984D02*
X11401134Y-9436079D01*
X11477325Y-9397984D02*
X11477325Y-9436079D01*
X11772563Y-9674174D02*
X11763039Y-9664650D01*
X11763039Y-9664650D02*
X11743991Y-9636079D01*
X11743991Y-9636079D02*
X11734468Y-9617031D01*
X11734468Y-9617031D02*
X11724944Y-9588460D01*
X11724944Y-9588460D02*
X11715420Y-9540841D01*
X11715420Y-9540841D02*
X11715420Y-9502746D01*
X11715420Y-9502746D02*
X11724944Y-9455127D01*
X11724944Y-9455127D02*
X11734468Y-9426555D01*
X11734468Y-9426555D02*
X11743991Y-9407508D01*
X11743991Y-9407508D02*
X11763039Y-9378936D01*
X11763039Y-9378936D02*
X11772563Y-9369412D01*
X11953515Y-9597984D02*
X11839229Y-9597984D01*
X11896372Y-9597984D02*
X11896372Y-9397984D01*
X11896372Y-9397984D02*
X11877325Y-9426555D01*
X11877325Y-9426555D02*
X11858277Y-9445603D01*
X11858277Y-9445603D02*
X11839229Y-9455127D01*
X12124944Y-9397984D02*
X12086848Y-9397984D01*
X12086848Y-9397984D02*
X12067801Y-9407508D01*
X12067801Y-9407508D02*
X12058277Y-9417031D01*
X12058277Y-9417031D02*
X12039229Y-9445603D01*
X12039229Y-9445603D02*
X12029706Y-9483698D01*
X12029706Y-9483698D02*
X12029706Y-9559889D01*
X12029706Y-9559889D02*
X12039229Y-9578936D01*
X12039229Y-9578936D02*
X12048753Y-9588460D01*
X12048753Y-9588460D02*
X12067801Y-9597984D01*
X12067801Y-9597984D02*
X12105896Y-9597984D01*
X12105896Y-9597984D02*
X12124944Y-9588460D01*
X12124944Y-9588460D02*
X12134468Y-9578936D01*
X12134468Y-9578936D02*
X12143991Y-9559889D01*
X12143991Y-9559889D02*
X12143991Y-9512270D01*
X12143991Y-9512270D02*
X12134468Y-9493222D01*
X12134468Y-9493222D02*
X12124944Y-9483698D01*
X12124944Y-9483698D02*
X12105896Y-9474174D01*
X12105896Y-9474174D02*
X12067801Y-9474174D01*
X12067801Y-9474174D02*
X12048753Y-9483698D01*
X12048753Y-9483698D02*
X12039229Y-9493222D01*
X12039229Y-9493222D02*
X12029706Y-9512270D01*
X12382087Y-9597984D02*
X12382087Y-9397984D01*
X12467801Y-9597984D02*
X12467801Y-9493222D01*
X12467801Y-9493222D02*
X12458277Y-9474174D01*
X12458277Y-9474174D02*
X12439230Y-9464650D01*
X12439230Y-9464650D02*
X12410658Y-9464650D01*
X12410658Y-9464650D02*
X12391610Y-9474174D01*
X12391610Y-9474174D02*
X12382087Y-9483698D01*
X12591610Y-9597984D02*
X12572563Y-9588460D01*
X12572563Y-9588460D02*
X12563039Y-9578936D01*
X12563039Y-9578936D02*
X12553515Y-9559889D01*
X12553515Y-9559889D02*
X12553515Y-9502746D01*
X12553515Y-9502746D02*
X12563039Y-9483698D01*
X12563039Y-9483698D02*
X12572563Y-9474174D01*
X12572563Y-9474174D02*
X12591610Y-9464650D01*
X12591610Y-9464650D02*
X12620182Y-9464650D01*
X12620182Y-9464650D02*
X12639230Y-9474174D01*
X12639230Y-9474174D02*
X12648753Y-9483698D01*
X12648753Y-9483698D02*
X12658277Y-9502746D01*
X12658277Y-9502746D02*
X12658277Y-9559889D01*
X12658277Y-9559889D02*
X12648753Y-9578936D01*
X12648753Y-9578936D02*
X12639230Y-9588460D01*
X12639230Y-9588460D02*
X12620182Y-9597984D01*
X12620182Y-9597984D02*
X12591610Y-9597984D01*
X12772563Y-9597984D02*
X12753515Y-9588460D01*
X12753515Y-9588460D02*
X12743991Y-9569412D01*
X12743991Y-9569412D02*
X12743991Y-9397984D01*
X12924944Y-9588460D02*
X12905896Y-9597984D01*
X12905896Y-9597984D02*
X12867801Y-9597984D01*
X12867801Y-9597984D02*
X12848753Y-9588460D01*
X12848753Y-9588460D02*
X12839230Y-9569412D01*
X12839230Y-9569412D02*
X12839230Y-9493222D01*
X12839230Y-9493222D02*
X12848753Y-9474174D01*
X12848753Y-9474174D02*
X12867801Y-9464650D01*
X12867801Y-9464650D02*
X12905896Y-9464650D01*
X12905896Y-9464650D02*
X12924944Y-9474174D01*
X12924944Y-9474174D02*
X12934468Y-9493222D01*
X12934468Y-9493222D02*
X12934468Y-9512270D01*
X12934468Y-9512270D02*
X12839230Y-9531317D01*
X13010658Y-9588460D02*
X13029706Y-9597984D01*
X13029706Y-9597984D02*
X13067801Y-9597984D01*
X13067801Y-9597984D02*
X13086849Y-9588460D01*
X13086849Y-9588460D02*
X13096372Y-9569412D01*
X13096372Y-9569412D02*
X13096372Y-9559889D01*
X13096372Y-9559889D02*
X13086849Y-9540841D01*
X13086849Y-9540841D02*
X13067801Y-9531317D01*
X13067801Y-9531317D02*
X13039230Y-9531317D01*
X13039230Y-9531317D02*
X13020182Y-9521793D01*
X13020182Y-9521793D02*
X13010658Y-9502746D01*
X13010658Y-9502746D02*
X13010658Y-9493222D01*
X13010658Y-9493222D02*
X13020182Y-9474174D01*
X13020182Y-9474174D02*
X13039230Y-9464650D01*
X13039230Y-9464650D02*
X13067801Y-9464650D01*
X13067801Y-9464650D02*
X13086849Y-9474174D01*
X13163039Y-9674174D02*
X13172563Y-9664650D01*
X13172563Y-9664650D02*
X13191611Y-9636079D01*
X13191611Y-9636079D02*
X13201134Y-9617031D01*
X13201134Y-9617031D02*
X13210658Y-9588460D01*
X13210658Y-9588460D02*
X13220182Y-9540841D01*
X13220182Y-9540841D02*
X13220182Y-9502746D01*
X13220182Y-9502746D02*
X13210658Y-9455127D01*
X13210658Y-9455127D02*
X13201134Y-9426555D01*
X13201134Y-9426555D02*
X13191611Y-9407508D01*
X13191611Y-9407508D02*
X13172563Y-9378936D01*
X13172563Y-9378936D02*
X13163039Y-9369412D01*
D13*
X8132500Y-9705500D02*
X8132500Y-9835500D01*
X8067500Y-9770500D02*
X8197500Y-9770500D01*
D11*
X8563039Y-9861984D02*
X8448753Y-9861984D01*
X8505896Y-9861984D02*
X8505896Y-9661984D01*
X8505896Y-9661984D02*
X8486848Y-9690555D01*
X8486848Y-9690555D02*
X8467801Y-9709603D01*
X8467801Y-9709603D02*
X8448753Y-9719127D01*
X8648753Y-9842936D02*
X8658277Y-9852460D01*
X8658277Y-9852460D02*
X8648753Y-9861984D01*
X8648753Y-9861984D02*
X8639229Y-9852460D01*
X8639229Y-9852460D02*
X8648753Y-9842936D01*
X8648753Y-9842936D02*
X8648753Y-9861984D01*
X8724944Y-9661984D02*
X8848753Y-9661984D01*
X8848753Y-9661984D02*
X8782086Y-9738174D01*
X8782086Y-9738174D02*
X8810658Y-9738174D01*
X8810658Y-9738174D02*
X8829705Y-9747698D01*
X8829705Y-9747698D02*
X8839229Y-9757222D01*
X8839229Y-9757222D02*
X8848753Y-9776270D01*
X8848753Y-9776270D02*
X8848753Y-9823889D01*
X8848753Y-9823889D02*
X8839229Y-9842936D01*
X8839229Y-9842936D02*
X8829705Y-9852460D01*
X8829705Y-9852460D02*
X8810658Y-9861984D01*
X8810658Y-9861984D02*
X8753515Y-9861984D01*
X8753515Y-9861984D02*
X8734467Y-9852460D01*
X8734467Y-9852460D02*
X8724944Y-9842936D01*
X8972563Y-9661984D02*
X8991610Y-9661984D01*
X8991610Y-9661984D02*
X9010658Y-9671508D01*
X9010658Y-9671508D02*
X9020182Y-9681031D01*
X9020182Y-9681031D02*
X9029705Y-9700079D01*
X9029705Y-9700079D02*
X9039229Y-9738174D01*
X9039229Y-9738174D02*
X9039229Y-9785793D01*
X9039229Y-9785793D02*
X9029705Y-9823889D01*
X9029705Y-9823889D02*
X9020182Y-9842936D01*
X9020182Y-9842936D02*
X9010658Y-9852460D01*
X9010658Y-9852460D02*
X8991610Y-9861984D01*
X8991610Y-9861984D02*
X8972563Y-9861984D01*
X8972563Y-9861984D02*
X8953515Y-9852460D01*
X8953515Y-9852460D02*
X8943991Y-9842936D01*
X8943991Y-9842936D02*
X8934467Y-9823889D01*
X8934467Y-9823889D02*
X8924944Y-9785793D01*
X8924944Y-9785793D02*
X8924944Y-9738174D01*
X8924944Y-9738174D02*
X8934467Y-9700079D01*
X8934467Y-9700079D02*
X8943991Y-9681031D01*
X8943991Y-9681031D02*
X8953515Y-9671508D01*
X8953515Y-9671508D02*
X8972563Y-9661984D01*
X9163039Y-9661984D02*
X9182086Y-9661984D01*
X9182086Y-9661984D02*
X9201134Y-9671508D01*
X9201134Y-9671508D02*
X9210658Y-9681031D01*
X9210658Y-9681031D02*
X9220182Y-9700079D01*
X9220182Y-9700079D02*
X9229705Y-9738174D01*
X9229705Y-9738174D02*
X9229705Y-9785793D01*
X9229705Y-9785793D02*
X9220182Y-9823889D01*
X9220182Y-9823889D02*
X9210658Y-9842936D01*
X9210658Y-9842936D02*
X9201134Y-9852460D01*
X9201134Y-9852460D02*
X9182086Y-9861984D01*
X9182086Y-9861984D02*
X9163039Y-9861984D01*
X9163039Y-9861984D02*
X9143991Y-9852460D01*
X9143991Y-9852460D02*
X9134467Y-9842936D01*
X9134467Y-9842936D02*
X9124944Y-9823889D01*
X9124944Y-9823889D02*
X9115420Y-9785793D01*
X9115420Y-9785793D02*
X9115420Y-9738174D01*
X9115420Y-9738174D02*
X9124944Y-9700079D01*
X9124944Y-9700079D02*
X9134467Y-9681031D01*
X9134467Y-9681031D02*
X9143991Y-9671508D01*
X9143991Y-9671508D02*
X9163039Y-9661984D01*
X9315420Y-9861984D02*
X9315420Y-9728650D01*
X9315420Y-9747698D02*
X9324944Y-9738174D01*
X9324944Y-9738174D02*
X9343991Y-9728650D01*
X9343991Y-9728650D02*
X9372563Y-9728650D01*
X9372563Y-9728650D02*
X9391610Y-9738174D01*
X9391610Y-9738174D02*
X9401134Y-9757222D01*
X9401134Y-9757222D02*
X9401134Y-9861984D01*
X9401134Y-9757222D02*
X9410658Y-9738174D01*
X9410658Y-9738174D02*
X9429705Y-9728650D01*
X9429705Y-9728650D02*
X9458277Y-9728650D01*
X9458277Y-9728650D02*
X9477325Y-9738174D01*
X9477325Y-9738174D02*
X9486848Y-9757222D01*
X9486848Y-9757222D02*
X9486848Y-9861984D01*
X9582086Y-9861984D02*
X9582086Y-9728650D01*
X9582086Y-9747698D02*
X9591610Y-9738174D01*
X9591610Y-9738174D02*
X9610658Y-9728650D01*
X9610658Y-9728650D02*
X9639229Y-9728650D01*
X9639229Y-9728650D02*
X9658277Y-9738174D01*
X9658277Y-9738174D02*
X9667801Y-9757222D01*
X9667801Y-9757222D02*
X9667801Y-9861984D01*
X9667801Y-9757222D02*
X9677325Y-9738174D01*
X9677325Y-9738174D02*
X9696372Y-9728650D01*
X9696372Y-9728650D02*
X9724944Y-9728650D01*
X9724944Y-9728650D02*
X9743991Y-9738174D01*
X9743991Y-9738174D02*
X9753515Y-9757222D01*
X9753515Y-9757222D02*
X9753515Y-9861984D01*
X10143991Y-9652460D02*
X9972563Y-9909603D01*
X10401134Y-9661984D02*
X10420182Y-9661984D01*
X10420182Y-9661984D02*
X10439229Y-9671508D01*
X10439229Y-9671508D02*
X10448753Y-9681031D01*
X10448753Y-9681031D02*
X10458277Y-9700079D01*
X10458277Y-9700079D02*
X10467801Y-9738174D01*
X10467801Y-9738174D02*
X10467801Y-9785793D01*
X10467801Y-9785793D02*
X10458277Y-9823889D01*
X10458277Y-9823889D02*
X10448753Y-9842936D01*
X10448753Y-9842936D02*
X10439229Y-9852460D01*
X10439229Y-9852460D02*
X10420182Y-9861984D01*
X10420182Y-9861984D02*
X10401134Y-9861984D01*
X10401134Y-9861984D02*
X10382087Y-9852460D01*
X10382087Y-9852460D02*
X10372563Y-9842936D01*
X10372563Y-9842936D02*
X10363039Y-9823889D01*
X10363039Y-9823889D02*
X10353515Y-9785793D01*
X10353515Y-9785793D02*
X10353515Y-9738174D01*
X10353515Y-9738174D02*
X10363039Y-9700079D01*
X10363039Y-9700079D02*
X10372563Y-9681031D01*
X10372563Y-9681031D02*
X10382087Y-9671508D01*
X10382087Y-9671508D02*
X10401134Y-9661984D01*
X10553515Y-9842936D02*
X10563039Y-9852460D01*
X10563039Y-9852460D02*
X10553515Y-9861984D01*
X10553515Y-9861984D02*
X10543991Y-9852460D01*
X10543991Y-9852460D02*
X10553515Y-9842936D01*
X10553515Y-9842936D02*
X10553515Y-9861984D01*
X10686848Y-9661984D02*
X10705896Y-9661984D01*
X10705896Y-9661984D02*
X10724944Y-9671508D01*
X10724944Y-9671508D02*
X10734468Y-9681031D01*
X10734468Y-9681031D02*
X10743991Y-9700079D01*
X10743991Y-9700079D02*
X10753515Y-9738174D01*
X10753515Y-9738174D02*
X10753515Y-9785793D01*
X10753515Y-9785793D02*
X10743991Y-9823889D01*
X10743991Y-9823889D02*
X10734468Y-9842936D01*
X10734468Y-9842936D02*
X10724944Y-9852460D01*
X10724944Y-9852460D02*
X10705896Y-9861984D01*
X10705896Y-9861984D02*
X10686848Y-9861984D01*
X10686848Y-9861984D02*
X10667801Y-9852460D01*
X10667801Y-9852460D02*
X10658277Y-9842936D01*
X10658277Y-9842936D02*
X10648753Y-9823889D01*
X10648753Y-9823889D02*
X10639229Y-9785793D01*
X10639229Y-9785793D02*
X10639229Y-9738174D01*
X10639229Y-9738174D02*
X10648753Y-9700079D01*
X10648753Y-9700079D02*
X10658277Y-9681031D01*
X10658277Y-9681031D02*
X10667801Y-9671508D01*
X10667801Y-9671508D02*
X10686848Y-9661984D01*
X10934468Y-9661984D02*
X10839229Y-9661984D01*
X10839229Y-9661984D02*
X10829706Y-9757222D01*
X10829706Y-9757222D02*
X10839229Y-9747698D01*
X10839229Y-9747698D02*
X10858277Y-9738174D01*
X10858277Y-9738174D02*
X10905896Y-9738174D01*
X10905896Y-9738174D02*
X10924944Y-9747698D01*
X10924944Y-9747698D02*
X10934468Y-9757222D01*
X10934468Y-9757222D02*
X10943991Y-9776270D01*
X10943991Y-9776270D02*
X10943991Y-9823889D01*
X10943991Y-9823889D02*
X10934468Y-9842936D01*
X10934468Y-9842936D02*
X10924944Y-9852460D01*
X10924944Y-9852460D02*
X10905896Y-9861984D01*
X10905896Y-9861984D02*
X10858277Y-9861984D01*
X10858277Y-9861984D02*
X10839229Y-9852460D01*
X10839229Y-9852460D02*
X10829706Y-9842936D01*
X11134468Y-9861984D02*
X11020182Y-9861984D01*
X11077325Y-9861984D02*
X11077325Y-9661984D01*
X11077325Y-9661984D02*
X11058277Y-9690555D01*
X11058277Y-9690555D02*
X11039229Y-9709603D01*
X11039229Y-9709603D02*
X11020182Y-9719127D01*
X11210658Y-9681031D02*
X11220182Y-9671508D01*
X11220182Y-9671508D02*
X11239229Y-9661984D01*
X11239229Y-9661984D02*
X11286848Y-9661984D01*
X11286848Y-9661984D02*
X11305896Y-9671508D01*
X11305896Y-9671508D02*
X11315420Y-9681031D01*
X11315420Y-9681031D02*
X11324944Y-9700079D01*
X11324944Y-9700079D02*
X11324944Y-9719127D01*
X11324944Y-9719127D02*
X11315420Y-9747698D01*
X11315420Y-9747698D02*
X11201134Y-9861984D01*
X11201134Y-9861984D02*
X11324944Y-9861984D01*
X11401134Y-9661984D02*
X11401134Y-9700079D01*
X11477325Y-9661984D02*
X11477325Y-9700079D01*
X11772563Y-9938174D02*
X11763039Y-9928650D01*
X11763039Y-9928650D02*
X11743991Y-9900079D01*
X11743991Y-9900079D02*
X11734468Y-9881031D01*
X11734468Y-9881031D02*
X11724944Y-9852460D01*
X11724944Y-9852460D02*
X11715420Y-9804841D01*
X11715420Y-9804841D02*
X11715420Y-9766746D01*
X11715420Y-9766746D02*
X11724944Y-9719127D01*
X11724944Y-9719127D02*
X11734468Y-9690555D01*
X11734468Y-9690555D02*
X11743991Y-9671508D01*
X11743991Y-9671508D02*
X11763039Y-9642936D01*
X11763039Y-9642936D02*
X11772563Y-9633412D01*
X11877325Y-9747698D02*
X11858277Y-9738174D01*
X11858277Y-9738174D02*
X11848753Y-9728650D01*
X11848753Y-9728650D02*
X11839229Y-9709603D01*
X11839229Y-9709603D02*
X11839229Y-9700079D01*
X11839229Y-9700079D02*
X11848753Y-9681031D01*
X11848753Y-9681031D02*
X11858277Y-9671508D01*
X11858277Y-9671508D02*
X11877325Y-9661984D01*
X11877325Y-9661984D02*
X11915420Y-9661984D01*
X11915420Y-9661984D02*
X11934468Y-9671508D01*
X11934468Y-9671508D02*
X11943991Y-9681031D01*
X11943991Y-9681031D02*
X11953515Y-9700079D01*
X11953515Y-9700079D02*
X11953515Y-9709603D01*
X11953515Y-9709603D02*
X11943991Y-9728650D01*
X11943991Y-9728650D02*
X11934468Y-9738174D01*
X11934468Y-9738174D02*
X11915420Y-9747698D01*
X11915420Y-9747698D02*
X11877325Y-9747698D01*
X11877325Y-9747698D02*
X11858277Y-9757222D01*
X11858277Y-9757222D02*
X11848753Y-9766746D01*
X11848753Y-9766746D02*
X11839229Y-9785793D01*
X11839229Y-9785793D02*
X11839229Y-9823889D01*
X11839229Y-9823889D02*
X11848753Y-9842936D01*
X11848753Y-9842936D02*
X11858277Y-9852460D01*
X11858277Y-9852460D02*
X11877325Y-9861984D01*
X11877325Y-9861984D02*
X11915420Y-9861984D01*
X11915420Y-9861984D02*
X11934468Y-9852460D01*
X11934468Y-9852460D02*
X11943991Y-9842936D01*
X11943991Y-9842936D02*
X11953515Y-9823889D01*
X11953515Y-9823889D02*
X11953515Y-9785793D01*
X11953515Y-9785793D02*
X11943991Y-9766746D01*
X11943991Y-9766746D02*
X11934468Y-9757222D01*
X11934468Y-9757222D02*
X11915420Y-9747698D01*
X12191610Y-9861984D02*
X12191610Y-9661984D01*
X12277325Y-9861984D02*
X12277325Y-9757222D01*
X12277325Y-9757222D02*
X12267801Y-9738174D01*
X12267801Y-9738174D02*
X12248753Y-9728650D01*
X12248753Y-9728650D02*
X12220182Y-9728650D01*
X12220182Y-9728650D02*
X12201134Y-9738174D01*
X12201134Y-9738174D02*
X12191610Y-9747698D01*
X12401134Y-9861984D02*
X12382087Y-9852460D01*
X12382087Y-9852460D02*
X12372563Y-9842936D01*
X12372563Y-9842936D02*
X12363039Y-9823889D01*
X12363039Y-9823889D02*
X12363039Y-9766746D01*
X12363039Y-9766746D02*
X12372563Y-9747698D01*
X12372563Y-9747698D02*
X12382087Y-9738174D01*
X12382087Y-9738174D02*
X12401134Y-9728650D01*
X12401134Y-9728650D02*
X12429706Y-9728650D01*
X12429706Y-9728650D02*
X12448753Y-9738174D01*
X12448753Y-9738174D02*
X12458277Y-9747698D01*
X12458277Y-9747698D02*
X12467801Y-9766746D01*
X12467801Y-9766746D02*
X12467801Y-9823889D01*
X12467801Y-9823889D02*
X12458277Y-9842936D01*
X12458277Y-9842936D02*
X12448753Y-9852460D01*
X12448753Y-9852460D02*
X12429706Y-9861984D01*
X12429706Y-9861984D02*
X12401134Y-9861984D01*
X12582087Y-9861984D02*
X12563039Y-9852460D01*
X12563039Y-9852460D02*
X12553515Y-9833412D01*
X12553515Y-9833412D02*
X12553515Y-9661984D01*
X12734468Y-9852460D02*
X12715420Y-9861984D01*
X12715420Y-9861984D02*
X12677325Y-9861984D01*
X12677325Y-9861984D02*
X12658277Y-9852460D01*
X12658277Y-9852460D02*
X12648753Y-9833412D01*
X12648753Y-9833412D02*
X12648753Y-9757222D01*
X12648753Y-9757222D02*
X12658277Y-9738174D01*
X12658277Y-9738174D02*
X12677325Y-9728650D01*
X12677325Y-9728650D02*
X12715420Y-9728650D01*
X12715420Y-9728650D02*
X12734468Y-9738174D01*
X12734468Y-9738174D02*
X12743991Y-9757222D01*
X12743991Y-9757222D02*
X12743991Y-9776270D01*
X12743991Y-9776270D02*
X12648753Y-9795317D01*
X12820182Y-9852460D02*
X12839230Y-9861984D01*
X12839230Y-9861984D02*
X12877325Y-9861984D01*
X12877325Y-9861984D02*
X12896372Y-9852460D01*
X12896372Y-9852460D02*
X12905896Y-9833412D01*
X12905896Y-9833412D02*
X12905896Y-9823889D01*
X12905896Y-9823889D02*
X12896372Y-9804841D01*
X12896372Y-9804841D02*
X12877325Y-9795317D01*
X12877325Y-9795317D02*
X12848753Y-9795317D01*
X12848753Y-9795317D02*
X12829706Y-9785793D01*
X12829706Y-9785793D02*
X12820182Y-9766746D01*
X12820182Y-9766746D02*
X12820182Y-9757222D01*
X12820182Y-9757222D02*
X12829706Y-9738174D01*
X12829706Y-9738174D02*
X12848753Y-9728650D01*
X12848753Y-9728650D02*
X12877325Y-9728650D01*
X12877325Y-9728650D02*
X12896372Y-9738174D01*
X12972563Y-9938174D02*
X12982087Y-9928650D01*
X12982087Y-9928650D02*
X13001134Y-9900079D01*
X13001134Y-9900079D02*
X13010658Y-9881031D01*
X13010658Y-9881031D02*
X13020182Y-9852460D01*
X13020182Y-9852460D02*
X13029706Y-9804841D01*
X13029706Y-9804841D02*
X13029706Y-9766746D01*
X13029706Y-9766746D02*
X13020182Y-9719127D01*
X13020182Y-9719127D02*
X13010658Y-9690555D01*
X13010658Y-9690555D02*
X13001134Y-9671508D01*
X13001134Y-9671508D02*
X12982087Y-9642936D01*
X12982087Y-9642936D02*
X12972563Y-9633412D01*
M02*
