%TF.GenerationSoftware,KiCad,Pcbnew,9.0.1*%
%TF.CreationDate,2025-06-21T16:27:23+02:00*%
%TF.ProjectId,PUTM_EV_CART_INDICATOR,5055544d-5f45-4565-9f43-4152545f494e,rev?*%
%TF.SameCoordinates,Original*%
%TF.FileFunction,Drillmap*%
%TF.FilePolarity,Positive*%
%FSLAX45Y45*%
G04 Gerber Fmt 4.5, Leading zero omitted, Abs format (unit mm)*
G04 Created by KiCad (PCBNEW 9.0.1) date 2025-06-21 16:27:23*
%MOMM*%
%LPD*%
G01*
G04 APERTURE LIST*
%ADD10C,0.050000*%
%ADD11C,0.200000*%
%ADD12C,0.220000*%
G04 APERTURE END LIST*
D10*
X8200000Y-6000000D02*
X8200000Y-8458579D01*
X12400000Y-5900000D02*
X8300000Y-5900000D01*
X8200000Y-6000000D02*
G75*
G02*
X8300000Y-5900000I100000J0D01*
G01*
X12500000Y-6000000D02*
X12500000Y-8500000D01*
X12500000Y-8500000D02*
G75*
G02*
X12400000Y-8600000I-100000J0D01*
G01*
X12400000Y-5900000D02*
G75*
G02*
X12500000Y-6000000I0J-100000D01*
G01*
X12400000Y-8600000D02*
X8341421Y-8600000D01*
X8341421Y-8600000D02*
G75*
G02*
X8200000Y-8458579I-1J141420D01*
G01*
D11*
D12*
X8390000Y-7290000D02*
X8610000Y-7510000D01*
X8610000Y-7290000D02*
X8390000Y-7510000D01*
X8390000Y-7890000D02*
X8610000Y-8110000D01*
X8610000Y-7890000D02*
X8390000Y-8110000D01*
X12090000Y-7290000D02*
X12310000Y-7510000D01*
X12310000Y-7290000D02*
X12090000Y-7510000D01*
X12090000Y-7890000D02*
X12310000Y-8110000D01*
X12310000Y-7890000D02*
X12090000Y-8110000D01*
D11*
X8458277Y-8913984D02*
X8458277Y-8713984D01*
X8458277Y-8713984D02*
X8505896Y-8713984D01*
X8505896Y-8713984D02*
X8534467Y-8723508D01*
X8534467Y-8723508D02*
X8553515Y-8742555D01*
X8553515Y-8742555D02*
X8563039Y-8761603D01*
X8563039Y-8761603D02*
X8572563Y-8799698D01*
X8572563Y-8799698D02*
X8572563Y-8828270D01*
X8572563Y-8828270D02*
X8563039Y-8866365D01*
X8563039Y-8866365D02*
X8553515Y-8885412D01*
X8553515Y-8885412D02*
X8534467Y-8904460D01*
X8534467Y-8904460D02*
X8505896Y-8913984D01*
X8505896Y-8913984D02*
X8458277Y-8913984D01*
X8658277Y-8913984D02*
X8658277Y-8780650D01*
X8658277Y-8818746D02*
X8667801Y-8799698D01*
X8667801Y-8799698D02*
X8677324Y-8790174D01*
X8677324Y-8790174D02*
X8696372Y-8780650D01*
X8696372Y-8780650D02*
X8715420Y-8780650D01*
X8782086Y-8913984D02*
X8782086Y-8780650D01*
X8782086Y-8713984D02*
X8772563Y-8723508D01*
X8772563Y-8723508D02*
X8782086Y-8733031D01*
X8782086Y-8733031D02*
X8791610Y-8723508D01*
X8791610Y-8723508D02*
X8782086Y-8713984D01*
X8782086Y-8713984D02*
X8782086Y-8733031D01*
X8905896Y-8913984D02*
X8886848Y-8904460D01*
X8886848Y-8904460D02*
X8877324Y-8885412D01*
X8877324Y-8885412D02*
X8877324Y-8713984D01*
X9010658Y-8913984D02*
X8991610Y-8904460D01*
X8991610Y-8904460D02*
X8982086Y-8885412D01*
X8982086Y-8885412D02*
X8982086Y-8713984D01*
X9239229Y-8913984D02*
X9239229Y-8713984D01*
X9239229Y-8713984D02*
X9305896Y-8856841D01*
X9305896Y-8856841D02*
X9372563Y-8713984D01*
X9372563Y-8713984D02*
X9372563Y-8913984D01*
X9553515Y-8913984D02*
X9553515Y-8809222D01*
X9553515Y-8809222D02*
X9543991Y-8790174D01*
X9543991Y-8790174D02*
X9524944Y-8780650D01*
X9524944Y-8780650D02*
X9486848Y-8780650D01*
X9486848Y-8780650D02*
X9467801Y-8790174D01*
X9553515Y-8904460D02*
X9534467Y-8913984D01*
X9534467Y-8913984D02*
X9486848Y-8913984D01*
X9486848Y-8913984D02*
X9467801Y-8904460D01*
X9467801Y-8904460D02*
X9458277Y-8885412D01*
X9458277Y-8885412D02*
X9458277Y-8866365D01*
X9458277Y-8866365D02*
X9467801Y-8847317D01*
X9467801Y-8847317D02*
X9486848Y-8837793D01*
X9486848Y-8837793D02*
X9534467Y-8837793D01*
X9534467Y-8837793D02*
X9553515Y-8828270D01*
X9648753Y-8780650D02*
X9648753Y-8980650D01*
X9648753Y-8790174D02*
X9667801Y-8780650D01*
X9667801Y-8780650D02*
X9705896Y-8780650D01*
X9705896Y-8780650D02*
X9724944Y-8790174D01*
X9724944Y-8790174D02*
X9734467Y-8799698D01*
X9734467Y-8799698D02*
X9743991Y-8818746D01*
X9743991Y-8818746D02*
X9743991Y-8875889D01*
X9743991Y-8875889D02*
X9734467Y-8894936D01*
X9734467Y-8894936D02*
X9724944Y-8904460D01*
X9724944Y-8904460D02*
X9705896Y-8913984D01*
X9705896Y-8913984D02*
X9667801Y-8913984D01*
X9667801Y-8913984D02*
X9648753Y-8904460D01*
X9829705Y-8894936D02*
X9839229Y-8904460D01*
X9839229Y-8904460D02*
X9829705Y-8913984D01*
X9829705Y-8913984D02*
X9820182Y-8904460D01*
X9820182Y-8904460D02*
X9829705Y-8894936D01*
X9829705Y-8894936D02*
X9829705Y-8913984D01*
X9829705Y-8790174D02*
X9839229Y-8799698D01*
X9839229Y-8799698D02*
X9829705Y-8809222D01*
X9829705Y-8809222D02*
X9820182Y-8799698D01*
X9820182Y-8799698D02*
X9829705Y-8790174D01*
X9829705Y-8790174D02*
X9829705Y-8809222D01*
X7997500Y-9142500D02*
X8197500Y-9342500D01*
X8197500Y-9142500D02*
X7997500Y-9342500D01*
X8448753Y-9153031D02*
X8458277Y-9143508D01*
X8458277Y-9143508D02*
X8477324Y-9133984D01*
X8477324Y-9133984D02*
X8524944Y-9133984D01*
X8524944Y-9133984D02*
X8543991Y-9143508D01*
X8543991Y-9143508D02*
X8553515Y-9153031D01*
X8553515Y-9153031D02*
X8563039Y-9172079D01*
X8563039Y-9172079D02*
X8563039Y-9191127D01*
X8563039Y-9191127D02*
X8553515Y-9219698D01*
X8553515Y-9219698D02*
X8439229Y-9333984D01*
X8439229Y-9333984D02*
X8563039Y-9333984D01*
X8648753Y-9314936D02*
X8658277Y-9324460D01*
X8658277Y-9324460D02*
X8648753Y-9333984D01*
X8648753Y-9333984D02*
X8639229Y-9324460D01*
X8639229Y-9324460D02*
X8648753Y-9314936D01*
X8648753Y-9314936D02*
X8648753Y-9333984D01*
X8734467Y-9153031D02*
X8743991Y-9143508D01*
X8743991Y-9143508D02*
X8763039Y-9133984D01*
X8763039Y-9133984D02*
X8810658Y-9133984D01*
X8810658Y-9133984D02*
X8829705Y-9143508D01*
X8829705Y-9143508D02*
X8839229Y-9153031D01*
X8839229Y-9153031D02*
X8848753Y-9172079D01*
X8848753Y-9172079D02*
X8848753Y-9191127D01*
X8848753Y-9191127D02*
X8839229Y-9219698D01*
X8839229Y-9219698D02*
X8724944Y-9333984D01*
X8724944Y-9333984D02*
X8848753Y-9333984D01*
X8972563Y-9133984D02*
X8991610Y-9133984D01*
X8991610Y-9133984D02*
X9010658Y-9143508D01*
X9010658Y-9143508D02*
X9020182Y-9153031D01*
X9020182Y-9153031D02*
X9029705Y-9172079D01*
X9029705Y-9172079D02*
X9039229Y-9210174D01*
X9039229Y-9210174D02*
X9039229Y-9257793D01*
X9039229Y-9257793D02*
X9029705Y-9295889D01*
X9029705Y-9295889D02*
X9020182Y-9314936D01*
X9020182Y-9314936D02*
X9010658Y-9324460D01*
X9010658Y-9324460D02*
X8991610Y-9333984D01*
X8991610Y-9333984D02*
X8972563Y-9333984D01*
X8972563Y-9333984D02*
X8953515Y-9324460D01*
X8953515Y-9324460D02*
X8943991Y-9314936D01*
X8943991Y-9314936D02*
X8934467Y-9295889D01*
X8934467Y-9295889D02*
X8924944Y-9257793D01*
X8924944Y-9257793D02*
X8924944Y-9210174D01*
X8924944Y-9210174D02*
X8934467Y-9172079D01*
X8934467Y-9172079D02*
X8943991Y-9153031D01*
X8943991Y-9153031D02*
X8953515Y-9143508D01*
X8953515Y-9143508D02*
X8972563Y-9133984D01*
X9163039Y-9133984D02*
X9182086Y-9133984D01*
X9182086Y-9133984D02*
X9201134Y-9143508D01*
X9201134Y-9143508D02*
X9210658Y-9153031D01*
X9210658Y-9153031D02*
X9220182Y-9172079D01*
X9220182Y-9172079D02*
X9229705Y-9210174D01*
X9229705Y-9210174D02*
X9229705Y-9257793D01*
X9229705Y-9257793D02*
X9220182Y-9295889D01*
X9220182Y-9295889D02*
X9210658Y-9314936D01*
X9210658Y-9314936D02*
X9201134Y-9324460D01*
X9201134Y-9324460D02*
X9182086Y-9333984D01*
X9182086Y-9333984D02*
X9163039Y-9333984D01*
X9163039Y-9333984D02*
X9143991Y-9324460D01*
X9143991Y-9324460D02*
X9134467Y-9314936D01*
X9134467Y-9314936D02*
X9124944Y-9295889D01*
X9124944Y-9295889D02*
X9115420Y-9257793D01*
X9115420Y-9257793D02*
X9115420Y-9210174D01*
X9115420Y-9210174D02*
X9124944Y-9172079D01*
X9124944Y-9172079D02*
X9134467Y-9153031D01*
X9134467Y-9153031D02*
X9143991Y-9143508D01*
X9143991Y-9143508D02*
X9163039Y-9133984D01*
X9315420Y-9333984D02*
X9315420Y-9200650D01*
X9315420Y-9219698D02*
X9324944Y-9210174D01*
X9324944Y-9210174D02*
X9343991Y-9200650D01*
X9343991Y-9200650D02*
X9372563Y-9200650D01*
X9372563Y-9200650D02*
X9391610Y-9210174D01*
X9391610Y-9210174D02*
X9401134Y-9229222D01*
X9401134Y-9229222D02*
X9401134Y-9333984D01*
X9401134Y-9229222D02*
X9410658Y-9210174D01*
X9410658Y-9210174D02*
X9429705Y-9200650D01*
X9429705Y-9200650D02*
X9458277Y-9200650D01*
X9458277Y-9200650D02*
X9477325Y-9210174D01*
X9477325Y-9210174D02*
X9486848Y-9229222D01*
X9486848Y-9229222D02*
X9486848Y-9333984D01*
X9582086Y-9333984D02*
X9582086Y-9200650D01*
X9582086Y-9219698D02*
X9591610Y-9210174D01*
X9591610Y-9210174D02*
X9610658Y-9200650D01*
X9610658Y-9200650D02*
X9639229Y-9200650D01*
X9639229Y-9200650D02*
X9658277Y-9210174D01*
X9658277Y-9210174D02*
X9667801Y-9229222D01*
X9667801Y-9229222D02*
X9667801Y-9333984D01*
X9667801Y-9229222D02*
X9677325Y-9210174D01*
X9677325Y-9210174D02*
X9696372Y-9200650D01*
X9696372Y-9200650D02*
X9724944Y-9200650D01*
X9724944Y-9200650D02*
X9743991Y-9210174D01*
X9743991Y-9210174D02*
X9753515Y-9229222D01*
X9753515Y-9229222D02*
X9753515Y-9333984D01*
X10143991Y-9124460D02*
X9972563Y-9381603D01*
X10401134Y-9133984D02*
X10420182Y-9133984D01*
X10420182Y-9133984D02*
X10439229Y-9143508D01*
X10439229Y-9143508D02*
X10448753Y-9153031D01*
X10448753Y-9153031D02*
X10458277Y-9172079D01*
X10458277Y-9172079D02*
X10467801Y-9210174D01*
X10467801Y-9210174D02*
X10467801Y-9257793D01*
X10467801Y-9257793D02*
X10458277Y-9295889D01*
X10458277Y-9295889D02*
X10448753Y-9314936D01*
X10448753Y-9314936D02*
X10439229Y-9324460D01*
X10439229Y-9324460D02*
X10420182Y-9333984D01*
X10420182Y-9333984D02*
X10401134Y-9333984D01*
X10401134Y-9333984D02*
X10382087Y-9324460D01*
X10382087Y-9324460D02*
X10372563Y-9314936D01*
X10372563Y-9314936D02*
X10363039Y-9295889D01*
X10363039Y-9295889D02*
X10353515Y-9257793D01*
X10353515Y-9257793D02*
X10353515Y-9210174D01*
X10353515Y-9210174D02*
X10363039Y-9172079D01*
X10363039Y-9172079D02*
X10372563Y-9153031D01*
X10372563Y-9153031D02*
X10382087Y-9143508D01*
X10382087Y-9143508D02*
X10401134Y-9133984D01*
X10553515Y-9314936D02*
X10563039Y-9324460D01*
X10563039Y-9324460D02*
X10553515Y-9333984D01*
X10553515Y-9333984D02*
X10543991Y-9324460D01*
X10543991Y-9324460D02*
X10553515Y-9314936D01*
X10553515Y-9314936D02*
X10553515Y-9333984D01*
X10686848Y-9133984D02*
X10705896Y-9133984D01*
X10705896Y-9133984D02*
X10724944Y-9143508D01*
X10724944Y-9143508D02*
X10734468Y-9153031D01*
X10734468Y-9153031D02*
X10743991Y-9172079D01*
X10743991Y-9172079D02*
X10753515Y-9210174D01*
X10753515Y-9210174D02*
X10753515Y-9257793D01*
X10753515Y-9257793D02*
X10743991Y-9295889D01*
X10743991Y-9295889D02*
X10734468Y-9314936D01*
X10734468Y-9314936D02*
X10724944Y-9324460D01*
X10724944Y-9324460D02*
X10705896Y-9333984D01*
X10705896Y-9333984D02*
X10686848Y-9333984D01*
X10686848Y-9333984D02*
X10667801Y-9324460D01*
X10667801Y-9324460D02*
X10658277Y-9314936D01*
X10658277Y-9314936D02*
X10648753Y-9295889D01*
X10648753Y-9295889D02*
X10639229Y-9257793D01*
X10639229Y-9257793D02*
X10639229Y-9210174D01*
X10639229Y-9210174D02*
X10648753Y-9172079D01*
X10648753Y-9172079D02*
X10658277Y-9153031D01*
X10658277Y-9153031D02*
X10667801Y-9143508D01*
X10667801Y-9143508D02*
X10686848Y-9133984D01*
X10867801Y-9219698D02*
X10848753Y-9210174D01*
X10848753Y-9210174D02*
X10839229Y-9200650D01*
X10839229Y-9200650D02*
X10829706Y-9181603D01*
X10829706Y-9181603D02*
X10829706Y-9172079D01*
X10829706Y-9172079D02*
X10839229Y-9153031D01*
X10839229Y-9153031D02*
X10848753Y-9143508D01*
X10848753Y-9143508D02*
X10867801Y-9133984D01*
X10867801Y-9133984D02*
X10905896Y-9133984D01*
X10905896Y-9133984D02*
X10924944Y-9143508D01*
X10924944Y-9143508D02*
X10934468Y-9153031D01*
X10934468Y-9153031D02*
X10943991Y-9172079D01*
X10943991Y-9172079D02*
X10943991Y-9181603D01*
X10943991Y-9181603D02*
X10934468Y-9200650D01*
X10934468Y-9200650D02*
X10924944Y-9210174D01*
X10924944Y-9210174D02*
X10905896Y-9219698D01*
X10905896Y-9219698D02*
X10867801Y-9219698D01*
X10867801Y-9219698D02*
X10848753Y-9229222D01*
X10848753Y-9229222D02*
X10839229Y-9238746D01*
X10839229Y-9238746D02*
X10829706Y-9257793D01*
X10829706Y-9257793D02*
X10829706Y-9295889D01*
X10829706Y-9295889D02*
X10839229Y-9314936D01*
X10839229Y-9314936D02*
X10848753Y-9324460D01*
X10848753Y-9324460D02*
X10867801Y-9333984D01*
X10867801Y-9333984D02*
X10905896Y-9333984D01*
X10905896Y-9333984D02*
X10924944Y-9324460D01*
X10924944Y-9324460D02*
X10934468Y-9314936D01*
X10934468Y-9314936D02*
X10943991Y-9295889D01*
X10943991Y-9295889D02*
X10943991Y-9257793D01*
X10943991Y-9257793D02*
X10934468Y-9238746D01*
X10934468Y-9238746D02*
X10924944Y-9229222D01*
X10924944Y-9229222D02*
X10905896Y-9219698D01*
X11115420Y-9133984D02*
X11077325Y-9133984D01*
X11077325Y-9133984D02*
X11058277Y-9143508D01*
X11058277Y-9143508D02*
X11048753Y-9153031D01*
X11048753Y-9153031D02*
X11029706Y-9181603D01*
X11029706Y-9181603D02*
X11020182Y-9219698D01*
X11020182Y-9219698D02*
X11020182Y-9295889D01*
X11020182Y-9295889D02*
X11029706Y-9314936D01*
X11029706Y-9314936D02*
X11039229Y-9324460D01*
X11039229Y-9324460D02*
X11058277Y-9333984D01*
X11058277Y-9333984D02*
X11096372Y-9333984D01*
X11096372Y-9333984D02*
X11115420Y-9324460D01*
X11115420Y-9324460D02*
X11124944Y-9314936D01*
X11124944Y-9314936D02*
X11134468Y-9295889D01*
X11134468Y-9295889D02*
X11134468Y-9248270D01*
X11134468Y-9248270D02*
X11124944Y-9229222D01*
X11124944Y-9229222D02*
X11115420Y-9219698D01*
X11115420Y-9219698D02*
X11096372Y-9210174D01*
X11096372Y-9210174D02*
X11058277Y-9210174D01*
X11058277Y-9210174D02*
X11039229Y-9219698D01*
X11039229Y-9219698D02*
X11029706Y-9229222D01*
X11029706Y-9229222D02*
X11020182Y-9248270D01*
X11305896Y-9133984D02*
X11267801Y-9133984D01*
X11267801Y-9133984D02*
X11248753Y-9143508D01*
X11248753Y-9143508D02*
X11239229Y-9153031D01*
X11239229Y-9153031D02*
X11220182Y-9181603D01*
X11220182Y-9181603D02*
X11210658Y-9219698D01*
X11210658Y-9219698D02*
X11210658Y-9295889D01*
X11210658Y-9295889D02*
X11220182Y-9314936D01*
X11220182Y-9314936D02*
X11229706Y-9324460D01*
X11229706Y-9324460D02*
X11248753Y-9333984D01*
X11248753Y-9333984D02*
X11286848Y-9333984D01*
X11286848Y-9333984D02*
X11305896Y-9324460D01*
X11305896Y-9324460D02*
X11315420Y-9314936D01*
X11315420Y-9314936D02*
X11324944Y-9295889D01*
X11324944Y-9295889D02*
X11324944Y-9248270D01*
X11324944Y-9248270D02*
X11315420Y-9229222D01*
X11315420Y-9229222D02*
X11305896Y-9219698D01*
X11305896Y-9219698D02*
X11286848Y-9210174D01*
X11286848Y-9210174D02*
X11248753Y-9210174D01*
X11248753Y-9210174D02*
X11229706Y-9219698D01*
X11229706Y-9219698D02*
X11220182Y-9229222D01*
X11220182Y-9229222D02*
X11210658Y-9248270D01*
X11401134Y-9133984D02*
X11401134Y-9172079D01*
X11477325Y-9133984D02*
X11477325Y-9172079D01*
X11772563Y-9410174D02*
X11763039Y-9400650D01*
X11763039Y-9400650D02*
X11743991Y-9372079D01*
X11743991Y-9372079D02*
X11734468Y-9353031D01*
X11734468Y-9353031D02*
X11724944Y-9324460D01*
X11724944Y-9324460D02*
X11715420Y-9276841D01*
X11715420Y-9276841D02*
X11715420Y-9238746D01*
X11715420Y-9238746D02*
X11724944Y-9191127D01*
X11724944Y-9191127D02*
X11734468Y-9162555D01*
X11734468Y-9162555D02*
X11743991Y-9143508D01*
X11743991Y-9143508D02*
X11763039Y-9114936D01*
X11763039Y-9114936D02*
X11772563Y-9105412D01*
X11934468Y-9200650D02*
X11934468Y-9333984D01*
X11886848Y-9124460D02*
X11839229Y-9267317D01*
X11839229Y-9267317D02*
X11963039Y-9267317D01*
X12191610Y-9333984D02*
X12191610Y-9133984D01*
X12277325Y-9333984D02*
X12277325Y-9229222D01*
X12277325Y-9229222D02*
X12267801Y-9210174D01*
X12267801Y-9210174D02*
X12248753Y-9200650D01*
X12248753Y-9200650D02*
X12220182Y-9200650D01*
X12220182Y-9200650D02*
X12201134Y-9210174D01*
X12201134Y-9210174D02*
X12191610Y-9219698D01*
X12401134Y-9333984D02*
X12382087Y-9324460D01*
X12382087Y-9324460D02*
X12372563Y-9314936D01*
X12372563Y-9314936D02*
X12363039Y-9295889D01*
X12363039Y-9295889D02*
X12363039Y-9238746D01*
X12363039Y-9238746D02*
X12372563Y-9219698D01*
X12372563Y-9219698D02*
X12382087Y-9210174D01*
X12382087Y-9210174D02*
X12401134Y-9200650D01*
X12401134Y-9200650D02*
X12429706Y-9200650D01*
X12429706Y-9200650D02*
X12448753Y-9210174D01*
X12448753Y-9210174D02*
X12458277Y-9219698D01*
X12458277Y-9219698D02*
X12467801Y-9238746D01*
X12467801Y-9238746D02*
X12467801Y-9295889D01*
X12467801Y-9295889D02*
X12458277Y-9314936D01*
X12458277Y-9314936D02*
X12448753Y-9324460D01*
X12448753Y-9324460D02*
X12429706Y-9333984D01*
X12429706Y-9333984D02*
X12401134Y-9333984D01*
X12582087Y-9333984D02*
X12563039Y-9324460D01*
X12563039Y-9324460D02*
X12553515Y-9305412D01*
X12553515Y-9305412D02*
X12553515Y-9133984D01*
X12734468Y-9324460D02*
X12715420Y-9333984D01*
X12715420Y-9333984D02*
X12677325Y-9333984D01*
X12677325Y-9333984D02*
X12658277Y-9324460D01*
X12658277Y-9324460D02*
X12648753Y-9305412D01*
X12648753Y-9305412D02*
X12648753Y-9229222D01*
X12648753Y-9229222D02*
X12658277Y-9210174D01*
X12658277Y-9210174D02*
X12677325Y-9200650D01*
X12677325Y-9200650D02*
X12715420Y-9200650D01*
X12715420Y-9200650D02*
X12734468Y-9210174D01*
X12734468Y-9210174D02*
X12743991Y-9229222D01*
X12743991Y-9229222D02*
X12743991Y-9248270D01*
X12743991Y-9248270D02*
X12648753Y-9267317D01*
X12820182Y-9324460D02*
X12839230Y-9333984D01*
X12839230Y-9333984D02*
X12877325Y-9333984D01*
X12877325Y-9333984D02*
X12896372Y-9324460D01*
X12896372Y-9324460D02*
X12905896Y-9305412D01*
X12905896Y-9305412D02*
X12905896Y-9295889D01*
X12905896Y-9295889D02*
X12896372Y-9276841D01*
X12896372Y-9276841D02*
X12877325Y-9267317D01*
X12877325Y-9267317D02*
X12848753Y-9267317D01*
X12848753Y-9267317D02*
X12829706Y-9257793D01*
X12829706Y-9257793D02*
X12820182Y-9238746D01*
X12820182Y-9238746D02*
X12820182Y-9229222D01*
X12820182Y-9229222D02*
X12829706Y-9210174D01*
X12829706Y-9210174D02*
X12848753Y-9200650D01*
X12848753Y-9200650D02*
X12877325Y-9200650D01*
X12877325Y-9200650D02*
X12896372Y-9210174D01*
X12972563Y-9410174D02*
X12982087Y-9400650D01*
X12982087Y-9400650D02*
X13001134Y-9372079D01*
X13001134Y-9372079D02*
X13010658Y-9353031D01*
X13010658Y-9353031D02*
X13020182Y-9324460D01*
X13020182Y-9324460D02*
X13029706Y-9276841D01*
X13029706Y-9276841D02*
X13029706Y-9238746D01*
X13029706Y-9238746D02*
X13020182Y-9191127D01*
X13020182Y-9191127D02*
X13010658Y-9162555D01*
X13010658Y-9162555D02*
X13001134Y-9143508D01*
X13001134Y-9143508D02*
X12982087Y-9114936D01*
X12982087Y-9114936D02*
X12972563Y-9105412D01*
X13334468Y-9410174D02*
X13324944Y-9400650D01*
X13324944Y-9400650D02*
X13305896Y-9372079D01*
X13305896Y-9372079D02*
X13296372Y-9353031D01*
X13296372Y-9353031D02*
X13286849Y-9324460D01*
X13286849Y-9324460D02*
X13277325Y-9276841D01*
X13277325Y-9276841D02*
X13277325Y-9238746D01*
X13277325Y-9238746D02*
X13286849Y-9191127D01*
X13286849Y-9191127D02*
X13296372Y-9162555D01*
X13296372Y-9162555D02*
X13305896Y-9143508D01*
X13305896Y-9143508D02*
X13324944Y-9114936D01*
X13324944Y-9114936D02*
X13334468Y-9105412D01*
X13410658Y-9200650D02*
X13410658Y-9333984D01*
X13410658Y-9219698D02*
X13420182Y-9210174D01*
X13420182Y-9210174D02*
X13439230Y-9200650D01*
X13439230Y-9200650D02*
X13467801Y-9200650D01*
X13467801Y-9200650D02*
X13486849Y-9210174D01*
X13486849Y-9210174D02*
X13496372Y-9229222D01*
X13496372Y-9229222D02*
X13496372Y-9333984D01*
X13620182Y-9333984D02*
X13601134Y-9324460D01*
X13601134Y-9324460D02*
X13591611Y-9314936D01*
X13591611Y-9314936D02*
X13582087Y-9295889D01*
X13582087Y-9295889D02*
X13582087Y-9238746D01*
X13582087Y-9238746D02*
X13591611Y-9219698D01*
X13591611Y-9219698D02*
X13601134Y-9210174D01*
X13601134Y-9210174D02*
X13620182Y-9200650D01*
X13620182Y-9200650D02*
X13648753Y-9200650D01*
X13648753Y-9200650D02*
X13667801Y-9210174D01*
X13667801Y-9210174D02*
X13677325Y-9219698D01*
X13677325Y-9219698D02*
X13686849Y-9238746D01*
X13686849Y-9238746D02*
X13686849Y-9295889D01*
X13686849Y-9295889D02*
X13677325Y-9314936D01*
X13677325Y-9314936D02*
X13667801Y-9324460D01*
X13667801Y-9324460D02*
X13648753Y-9333984D01*
X13648753Y-9333984D02*
X13620182Y-9333984D01*
X13743992Y-9200650D02*
X13820182Y-9200650D01*
X13772563Y-9133984D02*
X13772563Y-9305412D01*
X13772563Y-9305412D02*
X13782087Y-9324460D01*
X13782087Y-9324460D02*
X13801134Y-9333984D01*
X13801134Y-9333984D02*
X13820182Y-9333984D01*
X14039230Y-9200650D02*
X14039230Y-9400650D01*
X14039230Y-9210174D02*
X14058277Y-9200650D01*
X14058277Y-9200650D02*
X14096373Y-9200650D01*
X14096373Y-9200650D02*
X14115420Y-9210174D01*
X14115420Y-9210174D02*
X14124944Y-9219698D01*
X14124944Y-9219698D02*
X14134468Y-9238746D01*
X14134468Y-9238746D02*
X14134468Y-9295889D01*
X14134468Y-9295889D02*
X14124944Y-9314936D01*
X14124944Y-9314936D02*
X14115420Y-9324460D01*
X14115420Y-9324460D02*
X14096373Y-9333984D01*
X14096373Y-9333984D02*
X14058277Y-9333984D01*
X14058277Y-9333984D02*
X14039230Y-9324460D01*
X14248753Y-9333984D02*
X14229706Y-9324460D01*
X14229706Y-9324460D02*
X14220182Y-9305412D01*
X14220182Y-9305412D02*
X14220182Y-9133984D01*
X14410658Y-9333984D02*
X14410658Y-9229222D01*
X14410658Y-9229222D02*
X14401134Y-9210174D01*
X14401134Y-9210174D02*
X14382087Y-9200650D01*
X14382087Y-9200650D02*
X14343992Y-9200650D01*
X14343992Y-9200650D02*
X14324944Y-9210174D01*
X14410658Y-9324460D02*
X14391611Y-9333984D01*
X14391611Y-9333984D02*
X14343992Y-9333984D01*
X14343992Y-9333984D02*
X14324944Y-9324460D01*
X14324944Y-9324460D02*
X14315420Y-9305412D01*
X14315420Y-9305412D02*
X14315420Y-9286365D01*
X14315420Y-9286365D02*
X14324944Y-9267317D01*
X14324944Y-9267317D02*
X14343992Y-9257793D01*
X14343992Y-9257793D02*
X14391611Y-9257793D01*
X14391611Y-9257793D02*
X14410658Y-9248270D01*
X14477325Y-9200650D02*
X14553515Y-9200650D01*
X14505896Y-9133984D02*
X14505896Y-9305412D01*
X14505896Y-9305412D02*
X14515420Y-9324460D01*
X14515420Y-9324460D02*
X14534468Y-9333984D01*
X14534468Y-9333984D02*
X14553515Y-9333984D01*
X14696373Y-9324460D02*
X14677325Y-9333984D01*
X14677325Y-9333984D02*
X14639230Y-9333984D01*
X14639230Y-9333984D02*
X14620182Y-9324460D01*
X14620182Y-9324460D02*
X14610658Y-9305412D01*
X14610658Y-9305412D02*
X14610658Y-9229222D01*
X14610658Y-9229222D02*
X14620182Y-9210174D01*
X14620182Y-9210174D02*
X14639230Y-9200650D01*
X14639230Y-9200650D02*
X14677325Y-9200650D01*
X14677325Y-9200650D02*
X14696373Y-9210174D01*
X14696373Y-9210174D02*
X14705896Y-9229222D01*
X14705896Y-9229222D02*
X14705896Y-9248270D01*
X14705896Y-9248270D02*
X14610658Y-9267317D01*
X14877325Y-9333984D02*
X14877325Y-9133984D01*
X14877325Y-9324460D02*
X14858277Y-9333984D01*
X14858277Y-9333984D02*
X14820182Y-9333984D01*
X14820182Y-9333984D02*
X14801134Y-9324460D01*
X14801134Y-9324460D02*
X14791611Y-9314936D01*
X14791611Y-9314936D02*
X14782087Y-9295889D01*
X14782087Y-9295889D02*
X14782087Y-9238746D01*
X14782087Y-9238746D02*
X14791611Y-9219698D01*
X14791611Y-9219698D02*
X14801134Y-9210174D01*
X14801134Y-9210174D02*
X14820182Y-9200650D01*
X14820182Y-9200650D02*
X14858277Y-9200650D01*
X14858277Y-9200650D02*
X14877325Y-9210174D01*
X14953515Y-9410174D02*
X14963039Y-9400650D01*
X14963039Y-9400650D02*
X14982087Y-9372079D01*
X14982087Y-9372079D02*
X14991611Y-9353031D01*
X14991611Y-9353031D02*
X15001134Y-9324460D01*
X15001134Y-9324460D02*
X15010658Y-9276841D01*
X15010658Y-9276841D02*
X15010658Y-9238746D01*
X15010658Y-9238746D02*
X15001134Y-9191127D01*
X15001134Y-9191127D02*
X14991611Y-9162555D01*
X14991611Y-9162555D02*
X14982087Y-9143508D01*
X14982087Y-9143508D02*
X14963039Y-9114936D01*
X14963039Y-9114936D02*
X14953515Y-9105412D01*
M02*
