%TF.GenerationSoftware,KiCad,Pcbnew,9.0.1*%
%TF.CreationDate,2025-06-17T22:10:16+02:00*%
%TF.ProjectId,PUTM_EV_CART_INDICATOR,5055544d-5f45-4565-9f43-4152545f494e,rev?*%
%TF.SameCoordinates,Original*%
%TF.FileFunction,Soldermask,Top*%
%TF.FilePolarity,Negative*%
%FSLAX46Y46*%
G04 Gerber Fmt 4.6, Leading zero omitted, Abs format (unit mm)*
G04 Created by KiCad (PCBNEW 9.0.1) date 2025-06-17 22:10:16*
%MOMM*%
%LPD*%
G01*
G04 APERTURE LIST*
G04 Aperture macros list*
%AMRoundRect*
0 Rectangle with rounded corners*
0 $1 Rounding radius*
0 $2 $3 $4 $5 $6 $7 $8 $9 X,Y pos of 4 corners*
0 Add a 4 corners polygon primitive as box body*
4,1,4,$2,$3,$4,$5,$6,$7,$8,$9,$2,$3,0*
0 Add four circle primitives for the rounded corners*
1,1,$1+$1,$2,$3*
1,1,$1+$1,$4,$5*
1,1,$1+$1,$6,$7*
1,1,$1+$1,$8,$9*
0 Add four rect primitives between the rounded corners*
20,1,$1+$1,$2,$3,$4,$5,0*
20,1,$1+$1,$4,$5,$6,$7,0*
20,1,$1+$1,$6,$7,$8,$9,0*
20,1,$1+$1,$8,$9,$2,$3,0*%
G04 Aperture macros list end*
%ADD10C,2.200000*%
%ADD11RoundRect,0.150000X-0.150000X0.587500X-0.150000X-0.587500X0.150000X-0.587500X0.150000X0.587500X0*%
%ADD12RoundRect,0.237500X-0.287500X-0.237500X0.287500X-0.237500X0.287500X0.237500X-0.287500X0.237500X0*%
%ADD13RoundRect,0.237500X-0.237500X0.250000X-0.237500X-0.250000X0.237500X-0.250000X0.237500X0.250000X0*%
%ADD14C,1.200000*%
%ADD15RoundRect,0.218750X0.218750X0.256250X-0.218750X0.256250X-0.218750X-0.256250X0.218750X-0.256250X0*%
%ADD16RoundRect,0.237500X0.237500X-0.250000X0.237500X0.250000X-0.237500X0.250000X-0.237500X-0.250000X0*%
%ADD17RoundRect,0.218750X-0.218750X-0.256250X0.218750X-0.256250X0.218750X0.256250X-0.218750X0.256250X0*%
%ADD18C,1.950000*%
G04 APERTURE END LIST*
D10*
%TO.C,H2*%
X122000000Y-74000000D03*
%TD*%
%TO.C,H1*%
X122000000Y-80000000D03*
%TD*%
D11*
%TO.C,Q4*%
X117000000Y-77937500D03*
X116050000Y-76062500D03*
X117950000Y-76062500D03*
%TD*%
%TO.C,Q5*%
X91450000Y-76125000D03*
X89550000Y-76125000D03*
X90500000Y-78000000D03*
%TD*%
D12*
%TO.C,D2*%
X98125000Y-72000000D03*
X99875000Y-72000000D03*
%TD*%
D13*
%TO.C,R12*%
X93500000Y-82087500D03*
X93500000Y-83912500D03*
%TD*%
D12*
%TO.C,D1*%
X108125000Y-72000000D03*
X109875000Y-72000000D03*
%TD*%
D14*
%TO.C,K4*%
X106420000Y-75700000D03*
X106420000Y-78900000D03*
X106420000Y-81100000D03*
X106420000Y-83300000D03*
X111500000Y-83300000D03*
X111500000Y-81100000D03*
X111500000Y-78900000D03*
X111500000Y-75700000D03*
%TD*%
D15*
%TO.C,D4*%
X117787500Y-84000000D03*
X116212500Y-84000000D03*
%TD*%
D10*
%TO.C,H1*%
X85000000Y-80000000D03*
%TD*%
%TO.C,H2*%
X85000000Y-74000000D03*
%TD*%
D16*
%TO.C,R6*%
X91500000Y-73937500D03*
X91500000Y-72112500D03*
%TD*%
%TO.C,R10*%
X118000000Y-73850000D03*
X118000000Y-72025000D03*
%TD*%
D17*
%TO.C,D3*%
X89712500Y-84000000D03*
X91287500Y-84000000D03*
%TD*%
D16*
%TO.C,R8*%
X89500000Y-73850000D03*
X89500000Y-72025000D03*
%TD*%
D18*
%TO.C,J1*%
X86000000Y-65000000D03*
X91000000Y-65000000D03*
X96000000Y-65000000D03*
X101000000Y-65000000D03*
X106000000Y-65000000D03*
X111000000Y-65000000D03*
X116000000Y-65000000D03*
X121000000Y-65000000D03*
%TD*%
D13*
%TO.C,R11*%
X114500000Y-82087500D03*
X114500000Y-83912500D03*
%TD*%
D14*
%TO.C,K3*%
X96420000Y-75700000D03*
X96420000Y-78900000D03*
X96420000Y-81100000D03*
X96420000Y-83300000D03*
X101500000Y-83300000D03*
X101500000Y-81100000D03*
X101500000Y-78900000D03*
X101500000Y-75700000D03*
%TD*%
D13*
%TO.C,R22*%
X116000000Y-72025000D03*
X116000000Y-73850000D03*
%TD*%
M02*
