%TF.GenerationSoftware,KiCad,Pcbnew,9.0.1*%
%TF.CreationDate,2025-06-11T23:13:52+02:00*%
%TF.ProjectId,PUTM_EV_CART_INDICATOR,5055544d-5f45-4565-9f43-4152545f494e,rev?*%
%TF.SameCoordinates,Original*%
%TF.FileFunction,Copper,L1,Top*%
%TF.FilePolarity,Positive*%
%FSLAX46Y46*%
G04 Gerber Fmt 4.6, Leading zero omitted, Abs format (unit mm)*
G04 Created by KiCad (PCBNEW 9.0.1) date 2025-06-11 23:13:52*
%MOMM*%
%LPD*%
G01*
G04 APERTURE LIST*
G04 Aperture macros list*
%AMRoundRect*
0 Rectangle with rounded corners*
0 $1 Rounding radius*
0 $2 $3 $4 $5 $6 $7 $8 $9 X,Y pos of 4 corners*
0 Add a 4 corners polygon primitive as box body*
4,1,4,$2,$3,$4,$5,$6,$7,$8,$9,$2,$3,0*
0 Add four circle primitives for the rounded corners*
1,1,$1+$1,$2,$3*
1,1,$1+$1,$4,$5*
1,1,$1+$1,$6,$7*
1,1,$1+$1,$8,$9*
0 Add four rect primitives between the rounded corners*
20,1,$1+$1,$2,$3,$4,$5,0*
20,1,$1+$1,$4,$5,$6,$7,0*
20,1,$1+$1,$6,$7,$8,$9,0*
20,1,$1+$1,$8,$9,$2,$3,0*%
G04 Aperture macros list end*
%TA.AperFunction,SMDPad,CuDef*%
%ADD10RoundRect,0.150000X-0.587500X-0.150000X0.587500X-0.150000X0.587500X0.150000X-0.587500X0.150000X0*%
%TD*%
%TA.AperFunction,ComponentPad*%
%ADD11C,1.200000*%
%TD*%
%TA.AperFunction,SMDPad,CuDef*%
%ADD12RoundRect,0.237500X0.237500X-0.287500X0.237500X0.287500X-0.237500X0.287500X-0.237500X-0.287500X0*%
%TD*%
%TA.AperFunction,SMDPad,CuDef*%
%ADD13RoundRect,0.237500X-0.237500X0.250000X-0.237500X-0.250000X0.237500X-0.250000X0.237500X0.250000X0*%
%TD*%
%TA.AperFunction,SMDPad,CuDef*%
%ADD14RoundRect,0.237500X-0.237500X0.287500X-0.237500X-0.287500X0.237500X-0.287500X0.237500X0.287500X0*%
%TD*%
%TA.AperFunction,SMDPad,CuDef*%
%ADD15RoundRect,0.218750X0.218750X0.256250X-0.218750X0.256250X-0.218750X-0.256250X0.218750X-0.256250X0*%
%TD*%
%TA.AperFunction,SMDPad,CuDef*%
%ADD16RoundRect,0.237500X0.250000X0.237500X-0.250000X0.237500X-0.250000X-0.237500X0.250000X-0.237500X0*%
%TD*%
%TA.AperFunction,SMDPad,CuDef*%
%ADD17RoundRect,0.150000X0.587500X0.150000X-0.587500X0.150000X-0.587500X-0.150000X0.587500X-0.150000X0*%
%TD*%
%TA.AperFunction,SMDPad,CuDef*%
%ADD18RoundRect,0.237500X-0.250000X-0.237500X0.250000X-0.237500X0.250000X0.237500X-0.250000X0.237500X0*%
%TD*%
%TA.AperFunction,SMDPad,CuDef*%
%ADD19RoundRect,0.218750X-0.218750X-0.256250X0.218750X-0.256250X0.218750X0.256250X-0.218750X0.256250X0*%
%TD*%
%TA.AperFunction,ComponentPad*%
%ADD20C,1.950000*%
%TD*%
%TA.AperFunction,ViaPad*%
%ADD21C,0.600000*%
%TD*%
%TA.AperFunction,Conductor*%
%ADD22C,0.400000*%
%TD*%
G04 APERTURE END LIST*
D10*
%TO.P,Q5,1,G*%
%TO.N,Net-(Q5-G)*%
X94062500Y-73050000D03*
%TO.P,Q5,2,S*%
%TO.N,GND*%
X94062500Y-74950000D03*
%TO.P,Q5,3,D*%
%TO.N,Net-(D2-A)*%
X95937500Y-74000000D03*
%TD*%
D11*
%TO.P,K3,1,COIL_1*%
%TO.N,+24V*%
X99357500Y-73700000D03*
%TO.P,K3,2,NC_1*%
%TO.N,unconnected-(K3-NC_1-Pad2)*%
X99357500Y-76900000D03*
%TO.P,K3,3,COM_1*%
%TO.N,+24V*%
X99357500Y-79100000D03*
%TO.P,K3,4,NO_1*%
%TO.N,Net-(K3-NO_1)*%
X99357500Y-81300000D03*
%TO.P,K3,5,NO_2*%
%TO.N,/TSAL_COLUMN*%
X104437500Y-81300000D03*
%TO.P,K3,6,COM_2*%
%TO.N,+24V*%
X104437500Y-79100000D03*
%TO.P,K3,7,NC_2*%
%TO.N,unconnected-(K3-NC_2-Pad7)*%
X104437500Y-76900000D03*
%TO.P,K3,8,COIL_2*%
%TO.N,Net-(D2-A)*%
X104437500Y-73700000D03*
%TD*%
D12*
%TO.P,D2,1,K*%
%TO.N,+24V*%
X107000000Y-76875000D03*
%TO.P,D2,2,A*%
%TO.N,Net-(D2-A)*%
X107000000Y-75125000D03*
%TD*%
D13*
%TO.P,R12,1*%
%TO.N,/TSAL_LED*%
X96437500Y-77175000D03*
%TO.P,R12,2*%
%TO.N,Net-(K3-NO_1)*%
X96437500Y-79000000D03*
%TD*%
D14*
%TO.P,D1,1,K*%
%TO.N,+24V*%
X107000000Y-80750000D03*
%TO.P,D1,2,A*%
%TO.N,Net-(D1-A)*%
X107000000Y-82500000D03*
%TD*%
D11*
%TO.P,K4,1,COIL_1*%
%TO.N,+24V*%
X114517500Y-81300000D03*
%TO.P,K4,2,NC_1*%
%TO.N,/IMD_COLUMN*%
X114517500Y-78100000D03*
%TO.P,K4,3,COM_1*%
%TO.N,+24V*%
X114517500Y-75900000D03*
%TO.P,K4,4,NO_1*%
%TO.N,unconnected-(K4-NO_1-Pad4)*%
X114517500Y-73700000D03*
%TO.P,K4,5,NO_2*%
%TO.N,unconnected-(K4-NO_2-Pad5)*%
X109437500Y-73700000D03*
%TO.P,K4,6,COM_2*%
%TO.N,+24V*%
X109437500Y-75900000D03*
%TO.P,K4,7,NC_2*%
%TO.N,Net-(K4-NC_2)*%
X109437500Y-78100000D03*
%TO.P,K4,8,COIL_2*%
%TO.N,Net-(D1-A)*%
X109437500Y-81300000D03*
%TD*%
D15*
%TO.P,D4,1,K*%
%TO.N,GND*%
X121725000Y-80000000D03*
%TO.P,D4,2,A*%
%TO.N,/IMD_LED*%
X120150000Y-80000000D03*
%TD*%
D16*
%TO.P,R22,1*%
%TO.N,Net-(Q4-G)*%
X123850000Y-73000000D03*
%TO.P,R22,2*%
%TO.N,GND*%
X122025000Y-73000000D03*
%TD*%
D17*
%TO.P,Q4,1,G*%
%TO.N,Net-(Q4-G)*%
X119875000Y-74950000D03*
%TO.P,Q4,2,S*%
%TO.N,GND*%
X119875000Y-73050000D03*
%TO.P,Q4,3,D*%
%TO.N,Net-(D1-A)*%
X118000000Y-74000000D03*
%TD*%
D16*
%TO.P,R6,1*%
%TO.N,Net-(Q5-G)*%
X91850000Y-73000000D03*
%TO.P,R6,2*%
%TO.N,/TSAL_GREEN*%
X90025000Y-73000000D03*
%TD*%
D18*
%TO.P,R10,1*%
%TO.N,Net-(Q4-G)*%
X122112500Y-75000000D03*
%TO.P,R10,2*%
%TO.N,/IMD*%
X123937500Y-75000000D03*
%TD*%
D19*
%TO.P,D3,1,K*%
%TO.N,GND*%
X91712500Y-81000000D03*
%TO.P,D3,2,A*%
%TO.N,/TSAL_LED*%
X93287500Y-81000000D03*
%TD*%
D16*
%TO.P,R8,1*%
%TO.N,GND*%
X91850000Y-75000000D03*
%TO.P,R8,2*%
%TO.N,Net-(Q5-G)*%
X90025000Y-75000000D03*
%TD*%
D20*
%TO.P,J1,1,Pin_1*%
%TO.N,/TSAL_COLUMN*%
X86000000Y-65280000D03*
%TO.P,J1,2,Pin_2*%
%TO.N,/TSAL_LED*%
X91000000Y-65280000D03*
%TO.P,J1,3,Pin_3*%
%TO.N,/TSAL_GREEN*%
X96000000Y-65280000D03*
%TO.P,J1,4,Pin_4*%
%TO.N,+24V*%
X101000000Y-65280000D03*
%TO.P,J1,5,Pin_5*%
%TO.N,GND*%
X106000000Y-65280000D03*
%TO.P,J1,6,Pin_6*%
%TO.N,/IMD*%
X111000000Y-65280000D03*
%TO.P,J1,7,Pin_7*%
%TO.N,/IMD_LED*%
X116000000Y-65280000D03*
%TO.P,J1,8,Pin_8*%
%TO.N,/IMD_COLUMN*%
X121000000Y-65280000D03*
%TD*%
D13*
%TO.P,R11,1*%
%TO.N,/IMD_LED*%
X117437500Y-79087500D03*
%TO.P,R11,2*%
%TO.N,Net-(K4-NC_2)*%
X117437500Y-80912500D03*
%TD*%
D21*
%TO.N,GND*%
X119000000Y-82500000D03*
X121200000Y-74000000D03*
X102500000Y-71000000D03*
X123500000Y-82000000D03*
X102000000Y-77000000D03*
X89500000Y-78500000D03*
X96000000Y-81000000D03*
X105500000Y-75000000D03*
%TO.N,Net-(D1-A)*%
X117218750Y-74718750D03*
%TD*%
D22*
%TO.N,+24V*%
X114517500Y-75900000D02*
X109437500Y-75900000D01*
X109437500Y-76231250D02*
X109437500Y-75900000D01*
X99357500Y-79100000D02*
X104437500Y-79100000D01*
X106568750Y-79100000D02*
X107334375Y-78334375D01*
X109437500Y-75900000D02*
X114517500Y-80980000D01*
X107000000Y-78668750D02*
X107334375Y-78334375D01*
X107334375Y-78334375D02*
X109437500Y-76231250D01*
X99357500Y-73700000D02*
X101000000Y-72057500D01*
X107000000Y-78000000D02*
X107334375Y-78334375D01*
X114517500Y-80980000D02*
X114517500Y-81300000D01*
X101000000Y-72057500D02*
X101000000Y-67462500D01*
X107000000Y-80750000D02*
X107000000Y-78668750D01*
X104437500Y-79100000D02*
X106568750Y-79100000D01*
X101000000Y-67462500D02*
X101000000Y-65280000D01*
X107000000Y-76875000D02*
X107000000Y-78000000D01*
X109437500Y-75900000D02*
X101000000Y-67462500D01*
%TO.N,/TSAL_COLUMN*%
X86000000Y-65280000D02*
X88000000Y-67280000D01*
X88000000Y-80000000D02*
X90500000Y-82500000D01*
X88000000Y-67280000D02*
X88000000Y-80000000D01*
X103237500Y-82500000D02*
X104437500Y-81300000D01*
X90500000Y-82500000D02*
X103237500Y-82500000D01*
%TO.N,/TSAL_GREEN*%
X96000000Y-65280000D02*
X96000000Y-67025000D01*
X96000000Y-67025000D02*
X90025000Y-73000000D01*
%TO.N,/IMD*%
X117400000Y-76800000D02*
X116400000Y-75800000D01*
X123937500Y-75000000D02*
X123937500Y-75462500D01*
X113680000Y-62600000D02*
X111000000Y-65280000D01*
X123937500Y-75462500D02*
X122600000Y-76800000D01*
X122600000Y-76800000D02*
X117400000Y-76800000D01*
X118200000Y-67000000D02*
X118200000Y-64000000D01*
X116400000Y-75800000D02*
X116400000Y-68800000D01*
X118200000Y-64000000D02*
X116800000Y-62600000D01*
X116800000Y-62600000D02*
X113680000Y-62600000D01*
X116400000Y-68800000D02*
X118200000Y-67000000D01*
%TO.N,/IMD_LED*%
X115800000Y-65480000D02*
X115800000Y-77450000D01*
X118525000Y-80000000D02*
X117437500Y-78912500D01*
X120150000Y-80000000D02*
X118525000Y-80000000D01*
X115800000Y-77450000D02*
X117437500Y-79087500D01*
X116000000Y-65280000D02*
X115800000Y-65480000D01*
%TO.N,/TSAL_LED*%
X90175000Y-77175000D02*
X89000000Y-76000000D01*
X93287500Y-79462500D02*
X93287500Y-81000000D01*
X89000000Y-76000000D02*
X89000000Y-67280000D01*
X96437500Y-77175000D02*
X91000000Y-77175000D01*
X91000000Y-77175000D02*
X90175000Y-77175000D01*
X91000000Y-77175000D02*
X93287500Y-79462500D01*
X89000000Y-67280000D02*
X91000000Y-65280000D01*
%TO.N,Net-(K3-NO_1)*%
X99357500Y-81300000D02*
X98737500Y-81300000D01*
X98737500Y-81300000D02*
X96437500Y-79000000D01*
%TO.N,Net-(K4-NC_2)*%
X117437500Y-81062500D02*
X117437500Y-80912500D01*
X114337500Y-83000000D02*
X109437500Y-78100000D01*
X114337500Y-83000000D02*
X115500000Y-83000000D01*
X115500000Y-83000000D02*
X117437500Y-81062500D01*
%TO.N,Net-(Q4-G)*%
X119875000Y-74950000D02*
X122062500Y-74950000D01*
X122112500Y-75000000D02*
X122112500Y-74737500D01*
X122112500Y-74737500D02*
X123850000Y-73000000D01*
X122062500Y-74950000D02*
X122112500Y-75000000D01*
%TO.N,Net-(Q5-G)*%
X91850000Y-73175000D02*
X90025000Y-75000000D01*
X91850000Y-73000000D02*
X91850000Y-73175000D01*
X94012500Y-73000000D02*
X94062500Y-73050000D01*
X91850000Y-73000000D02*
X94012500Y-73000000D01*
%TO.N,Net-(D1-A)*%
X117937500Y-74000000D02*
X118000000Y-74000000D01*
X108237500Y-82500000D02*
X109437500Y-81300000D01*
X117218750Y-74718750D02*
X117937500Y-74000000D01*
X107000000Y-82500000D02*
X108237500Y-82500000D01*
%TO.N,Net-(D2-A)*%
X106200000Y-73700000D02*
X104437500Y-73700000D01*
X97937500Y-75000000D02*
X103137500Y-75000000D01*
X96937500Y-74000000D02*
X97937500Y-75000000D01*
X107000000Y-74500000D02*
X106200000Y-73700000D01*
X95937500Y-74000000D02*
X96937500Y-74000000D01*
X107000000Y-75125000D02*
X107000000Y-74500000D01*
X103137500Y-75000000D02*
X104437500Y-73700000D01*
%TD*%
%TA.AperFunction,Conductor*%
%TO.N,GND*%
G36*
X124004126Y-59500965D02*
G01*
X124014292Y-59502110D01*
X124102873Y-59512091D01*
X124119013Y-59515775D01*
X124208852Y-59547211D01*
X124223781Y-59554400D01*
X124304372Y-59605038D01*
X124317328Y-59615370D01*
X124384629Y-59682671D01*
X124394961Y-59695627D01*
X124445599Y-59776218D01*
X124452788Y-59791147D01*
X124484222Y-59880980D01*
X124487909Y-59897131D01*
X124499035Y-59995873D01*
X124499500Y-60004159D01*
X124499500Y-72366387D01*
X124477826Y-72418713D01*
X124425500Y-72440387D01*
X124381558Y-72425928D01*
X124335422Y-72391879D01*
X124306975Y-72370884D01*
X124306974Y-72370883D01*
X124306972Y-72370882D01*
X124182354Y-72327276D01*
X124182355Y-72327276D01*
X124182350Y-72327275D01*
X124182349Y-72327275D01*
X124152756Y-72324500D01*
X123547244Y-72324500D01*
X123517651Y-72327275D01*
X123517649Y-72327275D01*
X123517645Y-72327276D01*
X123393026Y-72370882D01*
X123286790Y-72449288D01*
X123286788Y-72449290D01*
X123208382Y-72555526D01*
X123164776Y-72680145D01*
X123162000Y-72709749D01*
X123162000Y-73090954D01*
X123140326Y-73143280D01*
X123055280Y-73228326D01*
X123002954Y-73250000D01*
X122275000Y-73250000D01*
X122275000Y-73977954D01*
X122253326Y-74030280D01*
X121980781Y-74302826D01*
X121928455Y-74324500D01*
X121809744Y-74324500D01*
X121780151Y-74327275D01*
X121780149Y-74327275D01*
X121780145Y-74327276D01*
X121655525Y-74370883D01*
X121655523Y-74370884D01*
X121549293Y-74449284D01*
X121549287Y-74449291D01*
X121497514Y-74519442D01*
X121449003Y-74548673D01*
X121437974Y-74549500D01*
X120738333Y-74549500D01*
X120686007Y-74527826D01*
X120668982Y-74510801D01*
X120563894Y-74459427D01*
X120495764Y-74449500D01*
X120495760Y-74449500D01*
X119254240Y-74449500D01*
X119254235Y-74449500D01*
X119186106Y-74459427D01*
X119186105Y-74459427D01*
X119081017Y-74510801D01*
X118998301Y-74593517D01*
X118946927Y-74698605D01*
X118946927Y-74698606D01*
X118937000Y-74766735D01*
X118937000Y-75133264D01*
X118946927Y-75201393D01*
X118946927Y-75201394D01*
X118998301Y-75306482D01*
X118998302Y-75306483D01*
X119081017Y-75389198D01*
X119186107Y-75440573D01*
X119254240Y-75450500D01*
X119254246Y-75450500D01*
X120495754Y-75450500D01*
X120495760Y-75450500D01*
X120563893Y-75440573D01*
X120668983Y-75389198D01*
X120686007Y-75372174D01*
X120738333Y-75350500D01*
X121385495Y-75350500D01*
X121437821Y-75372174D01*
X121455342Y-75400060D01*
X121470882Y-75444472D01*
X121470883Y-75444474D01*
X121470884Y-75444475D01*
X121549289Y-75550711D01*
X121620755Y-75603455D01*
X121655526Y-75629117D01*
X121780145Y-75672723D01*
X121780151Y-75672725D01*
X121809744Y-75675500D01*
X121809751Y-75675500D01*
X122415249Y-75675500D01*
X122415256Y-75675500D01*
X122444849Y-75672725D01*
X122518412Y-75646984D01*
X122569473Y-75629117D01*
X122569473Y-75629116D01*
X122569475Y-75629116D01*
X122675711Y-75550711D01*
X122754116Y-75444475D01*
X122755482Y-75440573D01*
X122787000Y-75350500D01*
X122797725Y-75319849D01*
X122800500Y-75290256D01*
X122800500Y-74709744D01*
X122797725Y-74680151D01*
X122797146Y-74678496D01*
X122797190Y-74677704D01*
X122796764Y-74675752D01*
X122797306Y-74675633D01*
X122800316Y-74621952D01*
X122814662Y-74601729D01*
X123719219Y-73697174D01*
X123771545Y-73675500D01*
X124152749Y-73675500D01*
X124152756Y-73675500D01*
X124182349Y-73672725D01*
X124265820Y-73643517D01*
X124306973Y-73629117D01*
X124306973Y-73629116D01*
X124306975Y-73629116D01*
X124381558Y-73574071D01*
X124436529Y-73560439D01*
X124485040Y-73589669D01*
X124499500Y-73633612D01*
X124499500Y-74303581D01*
X124477826Y-74355907D01*
X124425500Y-74377581D01*
X124400200Y-74371310D01*
X124399709Y-74372715D01*
X124269854Y-74327276D01*
X124269855Y-74327276D01*
X124269850Y-74327275D01*
X124269849Y-74327275D01*
X124240256Y-74324500D01*
X123634744Y-74324500D01*
X123605151Y-74327275D01*
X123605149Y-74327275D01*
X123605145Y-74327276D01*
X123480526Y-74370882D01*
X123374290Y-74449288D01*
X123374288Y-74449290D01*
X123295882Y-74555526D01*
X123252276Y-74680145D01*
X123252275Y-74680149D01*
X123252275Y-74680151D01*
X123249500Y-74709744D01*
X123249500Y-75290256D01*
X123252275Y-75319849D01*
X123252275Y-75319851D01*
X123252276Y-75319854D01*
X123295883Y-75444473D01*
X123295883Y-75444474D01*
X123297664Y-75446887D01*
X123298110Y-75448689D01*
X123298475Y-75449378D01*
X123298304Y-75449468D01*
X123311298Y-75501859D01*
X123290450Y-75543156D01*
X122455781Y-76377826D01*
X122403455Y-76399500D01*
X117596544Y-76399500D01*
X117544218Y-76377826D01*
X116822174Y-75655781D01*
X116800500Y-75603455D01*
X116800500Y-75183372D01*
X116822174Y-75131046D01*
X116874500Y-75109372D01*
X116911496Y-75119284D01*
X117025564Y-75185142D01*
X117152855Y-75219249D01*
X117152856Y-75219250D01*
X117152858Y-75219250D01*
X117284644Y-75219250D01*
X117284644Y-75219249D01*
X117411936Y-75185142D01*
X117526064Y-75119250D01*
X117619250Y-75026064D01*
X117685142Y-74911936D01*
X117714117Y-74803795D01*
X117733270Y-74770622D01*
X117981719Y-74522174D01*
X118034045Y-74500500D01*
X118620754Y-74500500D01*
X118620760Y-74500500D01*
X118688893Y-74490573D01*
X118793983Y-74439198D01*
X118876698Y-74356483D01*
X118928073Y-74251393D01*
X118938000Y-74183260D01*
X118938000Y-73873896D01*
X118959674Y-73821570D01*
X119012000Y-73799896D01*
X119032645Y-73802834D01*
X119185008Y-73847099D01*
X119185005Y-73847099D01*
X119221859Y-73850000D01*
X119625000Y-73850000D01*
X119625000Y-73300000D01*
X120125000Y-73300000D01*
X120125000Y-73850000D01*
X120528141Y-73850000D01*
X120564993Y-73847099D01*
X120722699Y-73801281D01*
X120864056Y-73717682D01*
X120980183Y-73601555D01*
X120980183Y-73601554D01*
X120992643Y-73580487D01*
X121037934Y-73546480D01*
X121094006Y-73554460D01*
X121119321Y-73579307D01*
X121192554Y-73698037D01*
X121314462Y-73819945D01*
X121461194Y-73910451D01*
X121461200Y-73910453D01*
X121624846Y-73964680D01*
X121725857Y-73974999D01*
X121725858Y-73974999D01*
X121774999Y-73974998D01*
X121775000Y-73974998D01*
X121775000Y-73250000D01*
X121192500Y-73250000D01*
X121175529Y-73266970D01*
X121170826Y-73278326D01*
X121118500Y-73300000D01*
X120125000Y-73300000D01*
X119625000Y-73300000D01*
X118640204Y-73300000D01*
X118640400Y-73302493D01*
X118670139Y-73404855D01*
X118663924Y-73461150D01*
X118619722Y-73496562D01*
X118599077Y-73499500D01*
X117379235Y-73499500D01*
X117311106Y-73509427D01*
X117311105Y-73509427D01*
X117206017Y-73560801D01*
X117123301Y-73643517D01*
X117071927Y-73748605D01*
X117071927Y-73748606D01*
X117062000Y-73816735D01*
X117062000Y-74185938D01*
X117061072Y-74185938D01*
X117058016Y-74195135D01*
X117059663Y-74207642D01*
X117049433Y-74220974D01*
X117044137Y-74236917D01*
X117025185Y-74252576D01*
X116958413Y-74291128D01*
X116911499Y-74318213D01*
X116855348Y-74325606D01*
X116810414Y-74291128D01*
X116800500Y-74254127D01*
X116800500Y-72800000D01*
X118640204Y-72800000D01*
X119625000Y-72800000D01*
X119625000Y-72250000D01*
X120125000Y-72250000D01*
X120125000Y-72800000D01*
X120957500Y-72800000D01*
X120974470Y-72783029D01*
X120979174Y-72771674D01*
X121031500Y-72750000D01*
X121775000Y-72750000D01*
X122275000Y-72750000D01*
X123012499Y-72750000D01*
X123012499Y-72713361D01*
X123012498Y-72713355D01*
X123002180Y-72612346D01*
X122947953Y-72448700D01*
X122947951Y-72448694D01*
X122857445Y-72301962D01*
X122735537Y-72180054D01*
X122588805Y-72089548D01*
X122588799Y-72089546D01*
X122425153Y-72035319D01*
X122324143Y-72025000D01*
X122275000Y-72025000D01*
X122275000Y-72750000D01*
X121775000Y-72750000D01*
X121775000Y-72025000D01*
X121774999Y-72024999D01*
X121725860Y-72025000D01*
X121725854Y-72025001D01*
X121624846Y-72035319D01*
X121461200Y-72089546D01*
X121461194Y-72089548D01*
X121314462Y-72180054D01*
X121192554Y-72301962D01*
X121102048Y-72448694D01*
X121102045Y-72448701D01*
X121097070Y-72463715D01*
X121060035Y-72506566D01*
X121003548Y-72510679D01*
X120974501Y-72492762D01*
X120864056Y-72382317D01*
X120722699Y-72298718D01*
X120564991Y-72252900D01*
X120564994Y-72252900D01*
X120528141Y-72250000D01*
X120125000Y-72250000D01*
X119625000Y-72250000D01*
X119221859Y-72250000D01*
X119185006Y-72252900D01*
X119027300Y-72298718D01*
X118885943Y-72382317D01*
X118769817Y-72498443D01*
X118686218Y-72639800D01*
X118640400Y-72797506D01*
X118640204Y-72800000D01*
X116800500Y-72800000D01*
X116800500Y-68996545D01*
X116822174Y-68944219D01*
X117511938Y-68254455D01*
X118520480Y-67245913D01*
X118537411Y-67216587D01*
X118573207Y-67154587D01*
X118600499Y-67052729D01*
X118600500Y-67052729D01*
X118600500Y-65187484D01*
X119824500Y-65187484D01*
X119824500Y-65372515D01*
X119853444Y-65555261D01*
X119853447Y-65555274D01*
X119910619Y-65731232D01*
X119910621Y-65731236D01*
X119994620Y-65896092D01*
X119994623Y-65896098D01*
X120103375Y-66045782D01*
X120103379Y-66045787D01*
X120234213Y-66176621D01*
X120383904Y-66285378D01*
X120501233Y-66345160D01*
X120548763Y-66369378D01*
X120548767Y-66369380D01*
X120724725Y-66426552D01*
X120724731Y-66426553D01*
X120724736Y-66426555D01*
X120799497Y-66438396D01*
X120907484Y-66455500D01*
X120907486Y-66455500D01*
X121092516Y-66455500D01*
X121165614Y-66443922D01*
X121275264Y-66426555D01*
X121275271Y-66426552D01*
X121275274Y-66426552D01*
X121451232Y-66369380D01*
X121451232Y-66369379D01*
X121451235Y-66369379D01*
X121616096Y-66285378D01*
X121765787Y-66176621D01*
X121896621Y-66045787D01*
X122005378Y-65896096D01*
X122089379Y-65731235D01*
X122146555Y-65555264D01*
X122175500Y-65372514D01*
X122175500Y-65187486D01*
X122146555Y-65004736D01*
X122146553Y-65004731D01*
X122146552Y-65004725D01*
X122089380Y-64828767D01*
X122089378Y-64828763D01*
X122030803Y-64713804D01*
X122005378Y-64663904D01*
X121896621Y-64514213D01*
X121765787Y-64383379D01*
X121765784Y-64383376D01*
X121765782Y-64383375D01*
X121616098Y-64274623D01*
X121616092Y-64274620D01*
X121451236Y-64190621D01*
X121451232Y-64190619D01*
X121275274Y-64133447D01*
X121275261Y-64133444D01*
X121092516Y-64104500D01*
X121092514Y-64104500D01*
X120907486Y-64104500D01*
X120907484Y-64104500D01*
X120724738Y-64133444D01*
X120724725Y-64133447D01*
X120548767Y-64190619D01*
X120548763Y-64190621D01*
X120383907Y-64274620D01*
X120383901Y-64274623D01*
X120234217Y-64383375D01*
X120103375Y-64514217D01*
X119994623Y-64663901D01*
X119994620Y-64663907D01*
X119910621Y-64828763D01*
X119910619Y-64828767D01*
X119853447Y-65004725D01*
X119853444Y-65004738D01*
X119824500Y-65187484D01*
X118600500Y-65187484D01*
X118600500Y-63947273D01*
X118573207Y-63845413D01*
X118573207Y-63845412D01*
X118520482Y-63754090D01*
X118520481Y-63754089D01*
X118520480Y-63754087D01*
X117045913Y-62279520D01*
X117045910Y-62279518D01*
X117045909Y-62279517D01*
X116954592Y-62226795D01*
X116954588Y-62226793D01*
X116954581Y-62226791D01*
X116852727Y-62199500D01*
X113627273Y-62199500D01*
X113627271Y-62199500D01*
X113525417Y-62226791D01*
X113525408Y-62226795D01*
X113434086Y-62279520D01*
X111536783Y-64176822D01*
X111484457Y-64198496D01*
X111454136Y-64191217D01*
X111453922Y-64191734D01*
X111451229Y-64190618D01*
X111275274Y-64133447D01*
X111275261Y-64133444D01*
X111092516Y-64104500D01*
X111092514Y-64104500D01*
X110907486Y-64104500D01*
X110907484Y-64104500D01*
X110724738Y-64133444D01*
X110724725Y-64133447D01*
X110548767Y-64190619D01*
X110548763Y-64190621D01*
X110383907Y-64274620D01*
X110383901Y-64274623D01*
X110234217Y-64383375D01*
X110103375Y-64514217D01*
X109994623Y-64663901D01*
X109994620Y-64663907D01*
X109910621Y-64828763D01*
X109910619Y-64828767D01*
X109853447Y-65004725D01*
X109853444Y-65004738D01*
X109824500Y-65187484D01*
X109824500Y-65372515D01*
X109853444Y-65555261D01*
X109853447Y-65555274D01*
X109910619Y-65731232D01*
X109910621Y-65731236D01*
X109994620Y-65896092D01*
X109994623Y-65896098D01*
X110103375Y-66045782D01*
X110103379Y-66045787D01*
X110234213Y-66176621D01*
X110383904Y-66285378D01*
X110501233Y-66345160D01*
X110548763Y-66369378D01*
X110548767Y-66369380D01*
X110724725Y-66426552D01*
X110724731Y-66426553D01*
X110724736Y-66426555D01*
X110799497Y-66438396D01*
X110907484Y-66455500D01*
X110907486Y-66455500D01*
X111092516Y-66455500D01*
X111165614Y-66443922D01*
X111275264Y-66426555D01*
X111275271Y-66426552D01*
X111275274Y-66426552D01*
X111451232Y-66369380D01*
X111451232Y-66369379D01*
X111451235Y-66369379D01*
X111616096Y-66285378D01*
X111765787Y-66176621D01*
X111896621Y-66045787D01*
X112005378Y-65896096D01*
X112089379Y-65731235D01*
X112146555Y-65555264D01*
X112175500Y-65372514D01*
X112175500Y-65187486D01*
X112146555Y-65004736D01*
X112146553Y-65004731D01*
X112146552Y-65004725D01*
X112089381Y-64828770D01*
X112088266Y-64826078D01*
X112089300Y-64825649D01*
X112085117Y-64772695D01*
X112103174Y-64743217D01*
X113824219Y-63022174D01*
X113876545Y-63000500D01*
X116603455Y-63000500D01*
X116655781Y-63022174D01*
X117777826Y-64144219D01*
X117799500Y-64196545D01*
X117799500Y-66803455D01*
X117777826Y-66855781D01*
X116326826Y-68306781D01*
X116274500Y-68328455D01*
X116222174Y-68306781D01*
X116200500Y-68254455D01*
X116200500Y-66501598D01*
X116222174Y-66449272D01*
X116262924Y-66428509D01*
X116275264Y-66426555D01*
X116275266Y-66426554D01*
X116275268Y-66426554D01*
X116451232Y-66369380D01*
X116451232Y-66369379D01*
X116451235Y-66369379D01*
X116616096Y-66285378D01*
X116765787Y-66176621D01*
X116896621Y-66045787D01*
X117005378Y-65896096D01*
X117089379Y-65731235D01*
X117146555Y-65555264D01*
X117175500Y-65372514D01*
X117175500Y-65187486D01*
X117146555Y-65004736D01*
X117146553Y-65004731D01*
X117146552Y-65004725D01*
X117089380Y-64828767D01*
X117089378Y-64828763D01*
X117030803Y-64713804D01*
X117005378Y-64663904D01*
X116896621Y-64514213D01*
X116765787Y-64383379D01*
X116765784Y-64383376D01*
X116765782Y-64383375D01*
X116616098Y-64274623D01*
X116616092Y-64274620D01*
X116451236Y-64190621D01*
X116451232Y-64190619D01*
X116275274Y-64133447D01*
X116275261Y-64133444D01*
X116092516Y-64104500D01*
X116092514Y-64104500D01*
X115907486Y-64104500D01*
X115907484Y-64104500D01*
X115724738Y-64133444D01*
X115724725Y-64133447D01*
X115548767Y-64190619D01*
X115548763Y-64190621D01*
X115383907Y-64274620D01*
X115383901Y-64274623D01*
X115234217Y-64383375D01*
X115103375Y-64514217D01*
X114994623Y-64663901D01*
X114994620Y-64663907D01*
X114910621Y-64828763D01*
X114910619Y-64828767D01*
X114853447Y-65004725D01*
X114853444Y-65004738D01*
X114824500Y-65187484D01*
X114824500Y-65372515D01*
X114853444Y-65555261D01*
X114853447Y-65555274D01*
X114910619Y-65731232D01*
X114910621Y-65731236D01*
X114994620Y-65896092D01*
X114994623Y-65896098D01*
X115103375Y-66045782D01*
X115103379Y-66045787D01*
X115234213Y-66176621D01*
X115234216Y-66176623D01*
X115234217Y-66176624D01*
X115368996Y-66274547D01*
X115398589Y-66322838D01*
X115399500Y-66334414D01*
X115399500Y-73365506D01*
X115377826Y-73417832D01*
X115325500Y-73439506D01*
X115273174Y-73417832D01*
X115257133Y-73393824D01*
X115226896Y-73320825D01*
X115226895Y-73320823D01*
X115226894Y-73320821D01*
X115139289Y-73189711D01*
X115027789Y-73078211D01*
X114896679Y-72990606D01*
X114896675Y-72990604D01*
X114896673Y-72990603D01*
X114896674Y-72990603D01*
X114751001Y-72930264D01*
X114750991Y-72930261D01*
X114647425Y-72909661D01*
X114596342Y-72899500D01*
X114438658Y-72899500D01*
X114394815Y-72908220D01*
X114284008Y-72930261D01*
X114283998Y-72930264D01*
X114138325Y-72990603D01*
X114007211Y-73078210D01*
X114007210Y-73078212D01*
X113895712Y-73189710D01*
X113895710Y-73189711D01*
X113808103Y-73320825D01*
X113747764Y-73466498D01*
X113747761Y-73466508D01*
X113726366Y-73574072D01*
X113717000Y-73621158D01*
X113717000Y-73778842D01*
X113725176Y-73819945D01*
X113747761Y-73933491D01*
X113747764Y-73933501D01*
X113808103Y-74079174D01*
X113808105Y-74079177D01*
X113808106Y-74079179D01*
X113826219Y-74106287D01*
X113875508Y-74180054D01*
X113895711Y-74210289D01*
X114007211Y-74321789D01*
X114138321Y-74409394D01*
X114138326Y-74409396D01*
X114138325Y-74409396D01*
X114235146Y-74449500D01*
X114284003Y-74469737D01*
X114438658Y-74500500D01*
X114438660Y-74500500D01*
X114596340Y-74500500D01*
X114596342Y-74500500D01*
X114750997Y-74469737D01*
X114896679Y-74409394D01*
X115027789Y-74321789D01*
X115139289Y-74210289D01*
X115226894Y-74079179D01*
X115257133Y-74006174D01*
X115297181Y-73966126D01*
X115353818Y-73966126D01*
X115393867Y-74006174D01*
X115399500Y-74034493D01*
X115399500Y-75565506D01*
X115377826Y-75617832D01*
X115325500Y-75639506D01*
X115273174Y-75617832D01*
X115257133Y-75593824D01*
X115226896Y-75520825D01*
X115226895Y-75520823D01*
X115226894Y-75520821D01*
X115139289Y-75389711D01*
X115027789Y-75278211D01*
X114896679Y-75190606D01*
X114896675Y-75190604D01*
X114896673Y-75190603D01*
X114896674Y-75190603D01*
X114751001Y-75130264D01*
X114750991Y-75130261D01*
X114645972Y-75109372D01*
X114596342Y-75099500D01*
X114438658Y-75099500D01*
X114403502Y-75106493D01*
X114284008Y-75130261D01*
X114283998Y-75130264D01*
X114138325Y-75190603D01*
X114007211Y-75278210D01*
X114007210Y-75278211D01*
X113895709Y-75389713D01*
X113895708Y-75389714D01*
X113844327Y-75466612D01*
X113797234Y-75498078D01*
X113782798Y-75499500D01*
X110172202Y-75499500D01*
X110119876Y-75477826D01*
X110110673Y-75466612D01*
X110059291Y-75389714D01*
X110059290Y-75389713D01*
X110059289Y-75389711D01*
X109947789Y-75278211D01*
X109816679Y-75190606D01*
X109816675Y-75190604D01*
X109816673Y-75190603D01*
X109816674Y-75190603D01*
X109671001Y-75130264D01*
X109670991Y-75130261D01*
X109565972Y-75109372D01*
X109516342Y-75099500D01*
X109358658Y-75099500D01*
X109267946Y-75117543D01*
X109212397Y-75106493D01*
X109201184Y-75097291D01*
X107725051Y-73621158D01*
X108637000Y-73621158D01*
X108637000Y-73778842D01*
X108645176Y-73819945D01*
X108667761Y-73933491D01*
X108667764Y-73933501D01*
X108728103Y-74079174D01*
X108728105Y-74079177D01*
X108728106Y-74079179D01*
X108746219Y-74106287D01*
X108795508Y-74180054D01*
X108815711Y-74210289D01*
X108927211Y-74321789D01*
X109058321Y-74409394D01*
X109058326Y-74409396D01*
X109058325Y-74409396D01*
X109155146Y-74449500D01*
X109204003Y-74469737D01*
X109358658Y-74500500D01*
X109358660Y-74500500D01*
X109516340Y-74500500D01*
X109516342Y-74500500D01*
X109670997Y-74469737D01*
X109816679Y-74409394D01*
X109947789Y-74321789D01*
X110059289Y-74210289D01*
X110146894Y-74079179D01*
X110207237Y-73933497D01*
X110238000Y-73778842D01*
X110238000Y-73621158D01*
X110207237Y-73466503D01*
X110196055Y-73439506D01*
X110146896Y-73320825D01*
X110146895Y-73320823D01*
X110146894Y-73320821D01*
X110059289Y-73189711D01*
X109947789Y-73078211D01*
X109816679Y-72990606D01*
X109816675Y-72990604D01*
X109816673Y-72990603D01*
X109816674Y-72990603D01*
X109671001Y-72930264D01*
X109670991Y-72930261D01*
X109567425Y-72909661D01*
X109516342Y-72899500D01*
X109358658Y-72899500D01*
X109314815Y-72908220D01*
X109204008Y-72930261D01*
X109203998Y-72930264D01*
X109058325Y-72990603D01*
X108927211Y-73078210D01*
X108927210Y-73078212D01*
X108815712Y-73189710D01*
X108815710Y-73189711D01*
X108728103Y-73320825D01*
X108667764Y-73466498D01*
X108667761Y-73466508D01*
X108646366Y-73574072D01*
X108637000Y-73621158D01*
X107725051Y-73621158D01*
X101422174Y-67318281D01*
X101400500Y-67265955D01*
X101400500Y-66439628D01*
X101422174Y-66387302D01*
X101448768Y-66371005D01*
X101448555Y-66370489D01*
X101451229Y-66369380D01*
X101451235Y-66369379D01*
X101453416Y-66368268D01*
X101498767Y-66345160D01*
X101616096Y-66285378D01*
X101765787Y-66176621D01*
X101896621Y-66045787D01*
X102005378Y-65896096D01*
X102089379Y-65731235D01*
X102146555Y-65555264D01*
X102175500Y-65372514D01*
X102175500Y-65187486D01*
X102171767Y-65163914D01*
X104525000Y-65163914D01*
X104525000Y-65396085D01*
X104561318Y-65625394D01*
X104561321Y-65625407D01*
X104633060Y-65846195D01*
X104738466Y-66053068D01*
X104795238Y-66131206D01*
X105398957Y-65527486D01*
X105423978Y-65587890D01*
X105495112Y-65694351D01*
X105585649Y-65784888D01*
X105692110Y-65856022D01*
X105752511Y-65881041D01*
X105148792Y-66484761D01*
X105226932Y-66541533D01*
X105433804Y-66646939D01*
X105654592Y-66718678D01*
X105654605Y-66718681D01*
X105883914Y-66755000D01*
X106116086Y-66755000D01*
X106345394Y-66718681D01*
X106345407Y-66718678D01*
X106566197Y-66646938D01*
X106566203Y-66646936D01*
X106773064Y-66541534D01*
X106773070Y-66541531D01*
X106851206Y-66484761D01*
X106247487Y-65881041D01*
X106307890Y-65856022D01*
X106414351Y-65784888D01*
X106504888Y-65694351D01*
X106576022Y-65587890D01*
X106601042Y-65527487D01*
X107204761Y-66131206D01*
X107261531Y-66053070D01*
X107261534Y-66053064D01*
X107366936Y-65846203D01*
X107366938Y-65846197D01*
X107438678Y-65625407D01*
X107438681Y-65625394D01*
X107475000Y-65396085D01*
X107475000Y-65163914D01*
X107438681Y-64934605D01*
X107438678Y-64934592D01*
X107366939Y-64713804D01*
X107261533Y-64506932D01*
X107204761Y-64428792D01*
X106601041Y-65032511D01*
X106576022Y-64972110D01*
X106504888Y-64865649D01*
X106414351Y-64775112D01*
X106307890Y-64703978D01*
X106247486Y-64678957D01*
X106851206Y-64075238D01*
X106773068Y-64018466D01*
X106566195Y-63913060D01*
X106345407Y-63841321D01*
X106345394Y-63841318D01*
X106116086Y-63805000D01*
X105883914Y-63805000D01*
X105654605Y-63841318D01*
X105654592Y-63841321D01*
X105433804Y-63913060D01*
X105226933Y-64018466D01*
X105148792Y-64075237D01*
X105148792Y-64075238D01*
X105752512Y-64678958D01*
X105692110Y-64703978D01*
X105585649Y-64775112D01*
X105495112Y-64865649D01*
X105423978Y-64972110D01*
X105398958Y-65032512D01*
X104795238Y-64428792D01*
X104795237Y-64428792D01*
X104738466Y-64506933D01*
X104633060Y-64713804D01*
X104561321Y-64934592D01*
X104561318Y-64934605D01*
X104525000Y-65163914D01*
X102171767Y-65163914D01*
X102146555Y-65004736D01*
X102146553Y-65004731D01*
X102146552Y-65004725D01*
X102089380Y-64828767D01*
X102089378Y-64828763D01*
X102030803Y-64713804D01*
X102005378Y-64663904D01*
X101896621Y-64514213D01*
X101765787Y-64383379D01*
X101765784Y-64383376D01*
X101765782Y-64383375D01*
X101616098Y-64274623D01*
X101616092Y-64274620D01*
X101451236Y-64190621D01*
X101451232Y-64190619D01*
X101399525Y-64173819D01*
X101275274Y-64133447D01*
X101275261Y-64133444D01*
X101092516Y-64104500D01*
X101092514Y-64104500D01*
X100907486Y-64104500D01*
X100907484Y-64104500D01*
X100724738Y-64133444D01*
X100724725Y-64133447D01*
X100548767Y-64190619D01*
X100548763Y-64190621D01*
X100383907Y-64274620D01*
X100383901Y-64274623D01*
X100234217Y-64383375D01*
X100103375Y-64514217D01*
X99994623Y-64663901D01*
X99994620Y-64663907D01*
X99910621Y-64828763D01*
X99910619Y-64828767D01*
X99853447Y-65004725D01*
X99853444Y-65004738D01*
X99824500Y-65187484D01*
X99824500Y-65372515D01*
X99853444Y-65555261D01*
X99853447Y-65555274D01*
X99910619Y-65731232D01*
X99910621Y-65731236D01*
X99994620Y-65896092D01*
X99994623Y-65896098D01*
X100103375Y-66045782D01*
X100103379Y-66045787D01*
X100234213Y-66176621D01*
X100383904Y-66285378D01*
X100457423Y-66322838D01*
X100548758Y-66369376D01*
X100551445Y-66370489D01*
X100551019Y-66371516D01*
X100591433Y-66406031D01*
X100599500Y-66439628D01*
X100599500Y-71860954D01*
X100577826Y-71913280D01*
X99593814Y-72897291D01*
X99541488Y-72918965D01*
X99527052Y-72917543D01*
X99467627Y-72905723D01*
X99436342Y-72899500D01*
X99278658Y-72899500D01*
X99234815Y-72908220D01*
X99124008Y-72930261D01*
X99123998Y-72930264D01*
X98978325Y-72990603D01*
X98847211Y-73078210D01*
X98847210Y-73078212D01*
X98735712Y-73189710D01*
X98735710Y-73189711D01*
X98648103Y-73320825D01*
X98587764Y-73466498D01*
X98587761Y-73466508D01*
X98566366Y-73574072D01*
X98557000Y-73621158D01*
X98557000Y-73778842D01*
X98565176Y-73819945D01*
X98587761Y-73933491D01*
X98587764Y-73933501D01*
X98648103Y-74079174D01*
X98648105Y-74079177D01*
X98648106Y-74079179D01*
X98666219Y-74106287D01*
X98715508Y-74180054D01*
X98735711Y-74210289D01*
X98847211Y-74321789D01*
X98978321Y-74409394D01*
X98978326Y-74409396D01*
X98978325Y-74409396D01*
X99093574Y-74457133D01*
X99133623Y-74497181D01*
X99133623Y-74553818D01*
X99093575Y-74593867D01*
X99065256Y-74599500D01*
X98134044Y-74599500D01*
X98081718Y-74577826D01*
X97653892Y-74150000D01*
X97183413Y-73679520D01*
X97183410Y-73679518D01*
X97183409Y-73679517D01*
X97092092Y-73626795D01*
X97092088Y-73626793D01*
X97071057Y-73621158D01*
X96990227Y-73599500D01*
X96990226Y-73599500D01*
X96800833Y-73599500D01*
X96748507Y-73577826D01*
X96731482Y-73560801D01*
X96626394Y-73509427D01*
X96558264Y-73499500D01*
X96558260Y-73499500D01*
X95316740Y-73499500D01*
X95316735Y-73499500D01*
X95248606Y-73509427D01*
X95248605Y-73509427D01*
X95143517Y-73560801D01*
X95060801Y-73643517D01*
X95009427Y-73748605D01*
X95009427Y-73748606D01*
X94999500Y-73816735D01*
X94999500Y-74126103D01*
X94977826Y-74178429D01*
X94925500Y-74200103D01*
X94904855Y-74197165D01*
X94752492Y-74152900D01*
X94752494Y-74152900D01*
X94715641Y-74150000D01*
X94312500Y-74150000D01*
X94312500Y-74700000D01*
X95297296Y-74700000D01*
X95297099Y-74697506D01*
X95267361Y-74595145D01*
X95273576Y-74538850D01*
X95317778Y-74503438D01*
X95338423Y-74500500D01*
X96558254Y-74500500D01*
X96558260Y-74500500D01*
X96626393Y-74490573D01*
X96731483Y-74439198D01*
X96731485Y-74439195D01*
X96736956Y-74436521D01*
X96793485Y-74433011D01*
X96821783Y-74450676D01*
X97614431Y-75243323D01*
X97614436Y-75243329D01*
X97617020Y-75245913D01*
X97691587Y-75320480D01*
X97743583Y-75350500D01*
X97778937Y-75370911D01*
X97778937Y-75370912D01*
X97781124Y-75372174D01*
X97782913Y-75373207D01*
X97782915Y-75373207D01*
X97782918Y-75373209D01*
X97844516Y-75389714D01*
X97884770Y-75400500D01*
X97884771Y-75400501D01*
X97884773Y-75400501D01*
X97994757Y-75400501D01*
X97994773Y-75400500D01*
X103190226Y-75400500D01*
X103190227Y-75400500D01*
X103292088Y-75373207D01*
X103383413Y-75320480D01*
X104201184Y-74502706D01*
X104253509Y-74481033D01*
X104267938Y-74482454D01*
X104358658Y-74500500D01*
X104358660Y-74500500D01*
X104516340Y-74500500D01*
X104516342Y-74500500D01*
X104670997Y-74469737D01*
X104816679Y-74409394D01*
X104947789Y-74321789D01*
X105059289Y-74210289D01*
X105110673Y-74133388D01*
X105157766Y-74101922D01*
X105172202Y-74100500D01*
X106003455Y-74100500D01*
X106055781Y-74122174D01*
X106407913Y-74474306D01*
X106429587Y-74526632D01*
X106415128Y-74570573D01*
X106370883Y-74630524D01*
X106370883Y-74630525D01*
X106327276Y-74755145D01*
X106327275Y-74755149D01*
X106327275Y-74755151D01*
X106324500Y-74784744D01*
X106324500Y-75465256D01*
X106327275Y-75494849D01*
X106327275Y-75494851D01*
X106327276Y-75494854D01*
X106370882Y-75619473D01*
X106407360Y-75668899D01*
X106449289Y-75725711D01*
X106482200Y-75750000D01*
X106555526Y-75804117D01*
X106680145Y-75847723D01*
X106680151Y-75847725D01*
X106709744Y-75850500D01*
X106709751Y-75850500D01*
X107290249Y-75850500D01*
X107290256Y-75850500D01*
X107319849Y-75847725D01*
X107376532Y-75827890D01*
X107444473Y-75804117D01*
X107444473Y-75804116D01*
X107444475Y-75804116D01*
X107550711Y-75725711D01*
X107629116Y-75619475D01*
X107629744Y-75617682D01*
X107655821Y-75543156D01*
X107672725Y-75494849D01*
X107675500Y-75465256D01*
X107675500Y-74883045D01*
X107697174Y-74830719D01*
X107749500Y-74809045D01*
X107801826Y-74830719D01*
X108634791Y-75663684D01*
X108656465Y-75716010D01*
X108655043Y-75730446D01*
X108637000Y-75821158D01*
X108637000Y-75978840D01*
X108667761Y-76133491D01*
X108667764Y-76133501D01*
X108728105Y-76279179D01*
X108732445Y-76285673D01*
X108743495Y-76341221D01*
X108723243Y-76379112D01*
X107798774Y-77303582D01*
X107746448Y-77325256D01*
X107694122Y-77303582D01*
X107672448Y-77251256D01*
X107672769Y-77244370D01*
X107675500Y-77215256D01*
X107675500Y-76534744D01*
X107672725Y-76505151D01*
X107645318Y-76426826D01*
X107629117Y-76380526D01*
X107603299Y-76345544D01*
X107550711Y-76274289D01*
X107458418Y-76206174D01*
X107444473Y-76195882D01*
X107319854Y-76152276D01*
X107319855Y-76152276D01*
X107319850Y-76152275D01*
X107319849Y-76152275D01*
X107290256Y-76149500D01*
X106709744Y-76149500D01*
X106680151Y-76152275D01*
X106680149Y-76152275D01*
X106680145Y-76152276D01*
X106555526Y-76195882D01*
X106449290Y-76274288D01*
X106449288Y-76274290D01*
X106370882Y-76380526D01*
X106327276Y-76505145D01*
X106327275Y-76505149D01*
X106327275Y-76505151D01*
X106324500Y-76534744D01*
X106324500Y-77215256D01*
X106327275Y-77244849D01*
X106327275Y-77244851D01*
X106327276Y-77244854D01*
X106370882Y-77369473D01*
X106404283Y-77414729D01*
X106449289Y-77475711D01*
X106555525Y-77554116D01*
X106555529Y-77554117D01*
X106560072Y-77556518D01*
X106596210Y-77600128D01*
X106599500Y-77621946D01*
X106599500Y-77947273D01*
X106599500Y-78052727D01*
X106626793Y-78154588D01*
X106626795Y-78154592D01*
X106679518Y-78245911D01*
X106715655Y-78282048D01*
X106737329Y-78334374D01*
X106715655Y-78386700D01*
X106424531Y-78677826D01*
X106372205Y-78699500D01*
X105172202Y-78699500D01*
X105119876Y-78677826D01*
X105110673Y-78666612D01*
X105059291Y-78589714D01*
X105059290Y-78589713D01*
X105059289Y-78589711D01*
X104947789Y-78478211D01*
X104816679Y-78390606D01*
X104816675Y-78390604D01*
X104816673Y-78390603D01*
X104816674Y-78390603D01*
X104671001Y-78330264D01*
X104670991Y-78330261D01*
X104567425Y-78309661D01*
X104516342Y-78299500D01*
X104358658Y-78299500D01*
X104314815Y-78308220D01*
X104204008Y-78330261D01*
X104203998Y-78330264D01*
X104058325Y-78390603D01*
X103927211Y-78478210D01*
X103927210Y-78478211D01*
X103815709Y-78589713D01*
X103815708Y-78589714D01*
X103764327Y-78666612D01*
X103717234Y-78698078D01*
X103702798Y-78699500D01*
X100092202Y-78699500D01*
X100039876Y-78677826D01*
X100030673Y-78666612D01*
X99979291Y-78589714D01*
X99979290Y-78589713D01*
X99979289Y-78589711D01*
X99867789Y-78478211D01*
X99736679Y-78390606D01*
X99736675Y-78390604D01*
X99736673Y-78390603D01*
X99736674Y-78390603D01*
X99591001Y-78330264D01*
X99590991Y-78330261D01*
X99487425Y-78309661D01*
X99436342Y-78299500D01*
X99278658Y-78299500D01*
X99234815Y-78308220D01*
X99124008Y-78330261D01*
X99123998Y-78330264D01*
X98978325Y-78390603D01*
X98847211Y-78478210D01*
X98847210Y-78478212D01*
X98735712Y-78589710D01*
X98735710Y-78589711D01*
X98648103Y-78720825D01*
X98587764Y-78866498D01*
X98587761Y-78866508D01*
X98557000Y-79021159D01*
X98557000Y-79178840D01*
X98587761Y-79333491D01*
X98587764Y-79333501D01*
X98648103Y-79479174D01*
X98648105Y-79479177D01*
X98648106Y-79479179D01*
X98676174Y-79521185D01*
X98711797Y-79574500D01*
X98735711Y-79610289D01*
X98847211Y-79721789D01*
X98978321Y-79809394D01*
X98978326Y-79809396D01*
X98978325Y-79809396D01*
X99064159Y-79844949D01*
X99124003Y-79869737D01*
X99278658Y-79900500D01*
X99278660Y-79900500D01*
X99436340Y-79900500D01*
X99436342Y-79900500D01*
X99590997Y-79869737D01*
X99736679Y-79809394D01*
X99867789Y-79721789D01*
X99979289Y-79610289D01*
X100030673Y-79533388D01*
X100077766Y-79501922D01*
X100092202Y-79500500D01*
X103702798Y-79500500D01*
X103755124Y-79522174D01*
X103764327Y-79533388D01*
X103815711Y-79610289D01*
X103927211Y-79721789D01*
X104058321Y-79809394D01*
X104058326Y-79809396D01*
X104058325Y-79809396D01*
X104144159Y-79844949D01*
X104204003Y-79869737D01*
X104358658Y-79900500D01*
X104358660Y-79900500D01*
X104516340Y-79900500D01*
X104516342Y-79900500D01*
X104670997Y-79869737D01*
X104816679Y-79809394D01*
X104947789Y-79721789D01*
X105059289Y-79610289D01*
X105110673Y-79533388D01*
X105157766Y-79501922D01*
X105172202Y-79500500D01*
X106516023Y-79500500D01*
X106525500Y-79500500D01*
X106577826Y-79522174D01*
X106599500Y-79574500D01*
X106599500Y-80003052D01*
X106577826Y-80055378D01*
X106560085Y-80068473D01*
X106555526Y-80070882D01*
X106449290Y-80149288D01*
X106449288Y-80149290D01*
X106370882Y-80255526D01*
X106327276Y-80380145D01*
X106327275Y-80380149D01*
X106327275Y-80380151D01*
X106324500Y-80409744D01*
X106324500Y-81090256D01*
X106327275Y-81119849D01*
X106327275Y-81119851D01*
X106327276Y-81119854D01*
X106370882Y-81244473D01*
X106403926Y-81289246D01*
X106449289Y-81350711D01*
X106527695Y-81408576D01*
X106555526Y-81429117D01*
X106680145Y-81472723D01*
X106680151Y-81472725D01*
X106709744Y-81475500D01*
X106709751Y-81475500D01*
X107290249Y-81475500D01*
X107290256Y-81475500D01*
X107319849Y-81472725D01*
X107376532Y-81452890D01*
X107444473Y-81429117D01*
X107444473Y-81429116D01*
X107444475Y-81429116D01*
X107550711Y-81350711D01*
X107629116Y-81244475D01*
X107639343Y-81215250D01*
X107654614Y-81171607D01*
X107672725Y-81119849D01*
X107675500Y-81090256D01*
X107675500Y-80409744D01*
X107672725Y-80380151D01*
X107670294Y-80373204D01*
X107629117Y-80255526D01*
X107570507Y-80176112D01*
X107550711Y-80149289D01*
X107500135Y-80111962D01*
X107444473Y-80070882D01*
X107439915Y-80068473D01*
X107403785Y-80024856D01*
X107400500Y-80003052D01*
X107400500Y-78865295D01*
X107422174Y-78812969D01*
X107654856Y-78580287D01*
X108080555Y-78154588D01*
X108627325Y-77607816D01*
X108679651Y-77586143D01*
X108731977Y-77607817D01*
X108753651Y-77660143D01*
X108741180Y-77701254D01*
X108728106Y-77720820D01*
X108728103Y-77720825D01*
X108667764Y-77866498D01*
X108667761Y-77866508D01*
X108637000Y-78021159D01*
X108637000Y-78178840D01*
X108667761Y-78333491D01*
X108667764Y-78333501D01*
X108728103Y-78479174D01*
X108801962Y-78589713D01*
X108815711Y-78610289D01*
X108927211Y-78721789D01*
X109058321Y-78809394D01*
X109058326Y-78809396D01*
X109058325Y-78809396D01*
X109193279Y-78865295D01*
X109204003Y-78869737D01*
X109358658Y-78900500D01*
X109358660Y-78900500D01*
X109516340Y-78900500D01*
X109516342Y-78900500D01*
X109607053Y-78882455D01*
X109662599Y-78893504D01*
X109673814Y-78902707D01*
X114017019Y-83245912D01*
X114017020Y-83245913D01*
X114091587Y-83320480D01*
X114162487Y-83361414D01*
X114196966Y-83406347D01*
X114189573Y-83462500D01*
X114144640Y-83496979D01*
X114125487Y-83499500D01*
X83004159Y-83499500D01*
X82995873Y-83499035D01*
X82897131Y-83487909D01*
X82880980Y-83484222D01*
X82833867Y-83467736D01*
X82791147Y-83452788D01*
X82776218Y-83445599D01*
X82695627Y-83394961D01*
X82682671Y-83384629D01*
X82615370Y-83317328D01*
X82605038Y-83304372D01*
X82554400Y-83223781D01*
X82547211Y-83208852D01*
X82515775Y-83119013D01*
X82512091Y-83102873D01*
X82500965Y-83004125D01*
X82500500Y-82995840D01*
X82500500Y-80893711D01*
X83649500Y-80893711D01*
X83649500Y-81106288D01*
X83682753Y-81316240D01*
X83682756Y-81316253D01*
X83748440Y-81518406D01*
X83844948Y-81707816D01*
X83895414Y-81777276D01*
X83969896Y-81879792D01*
X84120208Y-82030104D01*
X84213767Y-82098078D01*
X84292183Y-82155051D01*
X84383474Y-82201565D01*
X84481588Y-82251557D01*
X84481590Y-82251557D01*
X84481593Y-82251559D01*
X84683746Y-82317243D01*
X84683752Y-82317244D01*
X84683757Y-82317246D01*
X84788735Y-82333873D01*
X84893711Y-82350500D01*
X84893713Y-82350500D01*
X85106289Y-82350500D01*
X85190269Y-82337198D01*
X85316243Y-82317246D01*
X85316250Y-82317243D01*
X85316253Y-82317243D01*
X85518406Y-82251559D01*
X85518406Y-82251558D01*
X85518412Y-82251557D01*
X85707816Y-82155051D01*
X85879792Y-82030104D01*
X86030104Y-81879792D01*
X86155051Y-81707816D01*
X86251557Y-81518412D01*
X86255671Y-81505751D01*
X86317243Y-81316253D01*
X86317243Y-81316250D01*
X86317246Y-81316243D01*
X86350500Y-81106287D01*
X86350500Y-80893713D01*
X86340033Y-80827630D01*
X86317246Y-80683759D01*
X86317243Y-80683746D01*
X86251559Y-80481593D01*
X86251557Y-80481590D01*
X86251557Y-80481588D01*
X86184148Y-80349290D01*
X86155051Y-80292183D01*
X86051232Y-80149289D01*
X86030104Y-80120208D01*
X85879792Y-79969896D01*
X85784276Y-79900500D01*
X85707816Y-79844948D01*
X85518406Y-79748440D01*
X85316253Y-79682756D01*
X85316240Y-79682753D01*
X85106289Y-79649500D01*
X85106287Y-79649500D01*
X84893713Y-79649500D01*
X84893711Y-79649500D01*
X84683759Y-79682753D01*
X84683746Y-79682756D01*
X84481593Y-79748440D01*
X84292183Y-79844948D01*
X84151346Y-79947273D01*
X84120208Y-79969896D01*
X83969896Y-80120208D01*
X83969893Y-80120211D01*
X83969893Y-80120212D01*
X83844948Y-80292183D01*
X83748440Y-80481593D01*
X83682756Y-80683746D01*
X83682753Y-80683759D01*
X83649500Y-80893711D01*
X82500500Y-80893711D01*
X82500500Y-73893711D01*
X83649500Y-73893711D01*
X83649500Y-74106288D01*
X83682753Y-74316240D01*
X83682756Y-74316253D01*
X83748440Y-74518406D01*
X83748442Y-74518411D01*
X83748443Y-74518412D01*
X83752055Y-74525500D01*
X83844948Y-74707816D01*
X83914682Y-74803796D01*
X83969896Y-74879792D01*
X84120208Y-75030104D01*
X84212684Y-75097291D01*
X84292183Y-75155051D01*
X84383135Y-75201393D01*
X84481588Y-75251557D01*
X84481590Y-75251557D01*
X84481593Y-75251559D01*
X84683746Y-75317243D01*
X84683752Y-75317244D01*
X84683757Y-75317246D01*
X84788735Y-75333873D01*
X84893711Y-75350500D01*
X84893713Y-75350500D01*
X85106289Y-75350500D01*
X85190269Y-75337198D01*
X85316243Y-75317246D01*
X85316250Y-75317243D01*
X85316253Y-75317243D01*
X85518406Y-75251559D01*
X85518406Y-75251558D01*
X85518412Y-75251557D01*
X85707816Y-75155051D01*
X85879792Y-75030104D01*
X86030104Y-74879792D01*
X86155051Y-74707816D01*
X86251557Y-74518412D01*
X86258455Y-74497181D01*
X86317243Y-74316253D01*
X86317243Y-74316250D01*
X86317246Y-74316243D01*
X86343117Y-74152900D01*
X86350500Y-74106288D01*
X86350500Y-73893711D01*
X86322619Y-73717682D01*
X86317246Y-73683757D01*
X86317244Y-73683752D01*
X86317243Y-73683746D01*
X86251559Y-73481593D01*
X86251557Y-73481590D01*
X86251557Y-73481588D01*
X86192410Y-73365506D01*
X86155051Y-73292183D01*
X86099451Y-73215656D01*
X86030104Y-73120208D01*
X85879792Y-72969896D01*
X85782900Y-72899500D01*
X85707816Y-72844948D01*
X85518406Y-72748440D01*
X85316253Y-72682756D01*
X85316240Y-72682753D01*
X85106289Y-72649500D01*
X85106287Y-72649500D01*
X84893713Y-72649500D01*
X84893711Y-72649500D01*
X84683759Y-72682753D01*
X84683746Y-72682756D01*
X84481593Y-72748440D01*
X84292183Y-72844948D01*
X84120212Y-72969893D01*
X84120208Y-72969896D01*
X83969896Y-73120208D01*
X83969893Y-73120211D01*
X83969893Y-73120212D01*
X83844948Y-73292183D01*
X83748440Y-73481593D01*
X83682756Y-73683746D01*
X83682753Y-73683759D01*
X83649500Y-73893711D01*
X82500500Y-73893711D01*
X82500500Y-65187484D01*
X84824500Y-65187484D01*
X84824500Y-65372515D01*
X84853444Y-65555261D01*
X84853447Y-65555274D01*
X84910619Y-65731232D01*
X84910621Y-65731236D01*
X84994620Y-65896092D01*
X84994623Y-65896098D01*
X85103375Y-66045782D01*
X85103379Y-66045787D01*
X85234213Y-66176621D01*
X85383904Y-66285378D01*
X85501233Y-66345160D01*
X85548763Y-66369378D01*
X85548767Y-66369380D01*
X85724725Y-66426552D01*
X85724731Y-66426553D01*
X85724736Y-66426555D01*
X85799497Y-66438396D01*
X85907484Y-66455500D01*
X85907486Y-66455500D01*
X86092516Y-66455500D01*
X86165614Y-66443922D01*
X86275264Y-66426555D01*
X86275271Y-66426552D01*
X86275274Y-66426552D01*
X86451232Y-66369380D01*
X86451232Y-66369379D01*
X86451235Y-66369379D01*
X86451237Y-66369377D01*
X86453917Y-66368268D01*
X86454346Y-66369305D01*
X86507289Y-66365113D01*
X86536783Y-66383176D01*
X87577826Y-67424219D01*
X87599500Y-67476544D01*
X87599500Y-79947273D01*
X87599500Y-80052727D01*
X87600242Y-80055496D01*
X87626793Y-80154588D01*
X87626795Y-80154592D01*
X87679517Y-80245909D01*
X87679518Y-80245910D01*
X87679520Y-80245913D01*
X90254087Y-82820480D01*
X90345412Y-82873207D01*
X90447273Y-82900500D01*
X90447274Y-82900500D01*
X103290226Y-82900500D01*
X103290227Y-82900500D01*
X103392088Y-82873207D01*
X103483413Y-82820480D01*
X104144147Y-82159744D01*
X106324500Y-82159744D01*
X106324500Y-82840256D01*
X106327275Y-82869849D01*
X106327275Y-82869851D01*
X106327276Y-82869854D01*
X106370882Y-82994473D01*
X106411962Y-83050135D01*
X106449289Y-83100711D01*
X106527695Y-83158576D01*
X106555526Y-83179117D01*
X106680145Y-83222723D01*
X106680151Y-83222725D01*
X106709744Y-83225500D01*
X106709751Y-83225500D01*
X107290249Y-83225500D01*
X107290256Y-83225500D01*
X107319849Y-83222725D01*
X107376532Y-83202890D01*
X107444473Y-83179117D01*
X107444473Y-83179116D01*
X107444475Y-83179116D01*
X107550711Y-83100711D01*
X107629116Y-82994475D01*
X107644658Y-82950060D01*
X107682397Y-82907828D01*
X107714505Y-82900500D01*
X108290226Y-82900500D01*
X108290227Y-82900500D01*
X108392088Y-82873207D01*
X108483413Y-82820480D01*
X109201185Y-82102706D01*
X109253510Y-82081033D01*
X109267937Y-82082453D01*
X109358658Y-82100500D01*
X109358661Y-82100500D01*
X109516340Y-82100500D01*
X109516342Y-82100500D01*
X109670997Y-82069737D01*
X109816679Y-82009394D01*
X109947789Y-81921789D01*
X110059289Y-81810289D01*
X110146894Y-81679179D01*
X110207237Y-81533497D01*
X110238000Y-81378842D01*
X110238000Y-81221158D01*
X110207237Y-81066503D01*
X110169335Y-80974998D01*
X110146896Y-80920825D01*
X110146895Y-80920823D01*
X110146894Y-80920821D01*
X110059289Y-80789711D01*
X109947789Y-80678211D01*
X109816679Y-80590606D01*
X109816675Y-80590604D01*
X109816673Y-80590603D01*
X109816674Y-80590603D01*
X109671001Y-80530264D01*
X109670991Y-80530261D01*
X109567425Y-80509661D01*
X109516342Y-80499500D01*
X109358658Y-80499500D01*
X109314815Y-80508220D01*
X109204008Y-80530261D01*
X109203998Y-80530264D01*
X109058325Y-80590603D01*
X108927211Y-80678210D01*
X108927210Y-80678212D01*
X108815712Y-80789710D01*
X108815710Y-80789711D01*
X108728103Y-80920825D01*
X108667764Y-81066498D01*
X108667761Y-81066508D01*
X108642545Y-81193281D01*
X108638176Y-81215249D01*
X108637000Y-81221159D01*
X108637000Y-81378841D01*
X108655043Y-81469552D01*
X108643994Y-81525100D01*
X108634791Y-81536314D01*
X108093281Y-82077826D01*
X108040955Y-82099500D01*
X107714505Y-82099500D01*
X107662179Y-82077826D01*
X107644658Y-82049940D01*
X107629117Y-82005527D01*
X107619347Y-81992289D01*
X107550711Y-81899289D01*
X107451521Y-81826084D01*
X107444473Y-81820882D01*
X107319854Y-81777276D01*
X107319855Y-81777276D01*
X107319850Y-81777275D01*
X107319849Y-81777275D01*
X107290256Y-81774500D01*
X106709744Y-81774500D01*
X106680151Y-81777275D01*
X106680149Y-81777275D01*
X106680145Y-81777276D01*
X106555526Y-81820882D01*
X106449290Y-81899288D01*
X106449288Y-81899290D01*
X106370882Y-82005526D01*
X106327276Y-82130145D01*
X106327275Y-82130149D01*
X106327275Y-82130151D01*
X106324500Y-82159744D01*
X104144147Y-82159744D01*
X104201185Y-82102706D01*
X104253510Y-82081033D01*
X104267937Y-82082453D01*
X104358658Y-82100500D01*
X104358661Y-82100500D01*
X104516340Y-82100500D01*
X104516342Y-82100500D01*
X104670997Y-82069737D01*
X104816679Y-82009394D01*
X104947789Y-81921789D01*
X105059289Y-81810289D01*
X105146894Y-81679179D01*
X105207237Y-81533497D01*
X105238000Y-81378842D01*
X105238000Y-81221158D01*
X105207237Y-81066503D01*
X105169335Y-80974998D01*
X105146896Y-80920825D01*
X105146895Y-80920823D01*
X105146894Y-80920821D01*
X105059289Y-80789711D01*
X104947789Y-80678211D01*
X104816679Y-80590606D01*
X104816675Y-80590604D01*
X104816673Y-80590603D01*
X104816674Y-80590603D01*
X104671001Y-80530264D01*
X104670991Y-80530261D01*
X104567425Y-80509661D01*
X104516342Y-80499500D01*
X104358658Y-80499500D01*
X104314815Y-80508220D01*
X104204008Y-80530261D01*
X104203998Y-80530264D01*
X104058325Y-80590603D01*
X103927211Y-80678210D01*
X103927210Y-80678212D01*
X103815712Y-80789710D01*
X103815710Y-80789711D01*
X103728103Y-80920825D01*
X103667764Y-81066498D01*
X103667761Y-81066508D01*
X103642545Y-81193281D01*
X103638176Y-81215249D01*
X103637000Y-81221159D01*
X103637000Y-81378841D01*
X103655043Y-81469552D01*
X103643994Y-81525100D01*
X103634791Y-81536314D01*
X103093281Y-82077826D01*
X103040955Y-82099500D01*
X99845771Y-82099500D01*
X99793445Y-82077826D01*
X99771771Y-82025500D01*
X99793445Y-81973174D01*
X99804659Y-81963971D01*
X99817702Y-81955256D01*
X99867789Y-81921789D01*
X99979289Y-81810289D01*
X100066894Y-81679179D01*
X100127237Y-81533497D01*
X100158000Y-81378842D01*
X100158000Y-81221158D01*
X100127237Y-81066503D01*
X100089335Y-80974998D01*
X100066896Y-80920825D01*
X100066895Y-80920823D01*
X100066894Y-80920821D01*
X99979289Y-80789711D01*
X99867789Y-80678211D01*
X99736679Y-80590606D01*
X99736675Y-80590604D01*
X99736673Y-80590603D01*
X99736674Y-80590603D01*
X99591001Y-80530264D01*
X99590991Y-80530261D01*
X99487425Y-80509661D01*
X99436342Y-80499500D01*
X99278658Y-80499500D01*
X99234815Y-80508220D01*
X99124008Y-80530261D01*
X99123998Y-80530264D01*
X98978325Y-80590603D01*
X98847211Y-80678210D01*
X98816982Y-80708439D01*
X98764656Y-80730112D01*
X98712331Y-80708438D01*
X97134674Y-79130781D01*
X97113000Y-79078455D01*
X97113000Y-78697251D01*
X97113000Y-78697244D01*
X97110225Y-78667651D01*
X97110223Y-78667645D01*
X97066617Y-78543026D01*
X97018782Y-78478212D01*
X96988211Y-78436789D01*
X96920342Y-78386700D01*
X96881973Y-78358382D01*
X96757354Y-78314776D01*
X96757355Y-78314776D01*
X96757350Y-78314775D01*
X96757349Y-78314775D01*
X96727756Y-78312000D01*
X96147244Y-78312000D01*
X96117651Y-78314775D01*
X96117649Y-78314775D01*
X96117645Y-78314776D01*
X95993026Y-78358382D01*
X95886790Y-78436788D01*
X95886788Y-78436790D01*
X95808382Y-78543026D01*
X95764776Y-78667645D01*
X95764775Y-78667649D01*
X95764775Y-78667651D01*
X95762000Y-78697244D01*
X95762000Y-79302756D01*
X95764775Y-79332349D01*
X95764775Y-79332351D01*
X95764776Y-79332354D01*
X95808382Y-79456973D01*
X95841556Y-79501922D01*
X95886789Y-79563211D01*
X95950573Y-79610285D01*
X95993026Y-79641617D01*
X96117645Y-79685223D01*
X96117651Y-79685225D01*
X96147244Y-79688000D01*
X96528455Y-79688000D01*
X96580781Y-79709674D01*
X98491587Y-81620480D01*
X98582912Y-81673207D01*
X98630560Y-81685973D01*
X98672936Y-81716340D01*
X98713651Y-81777275D01*
X98735711Y-81810289D01*
X98805209Y-81879787D01*
X98847210Y-81921788D01*
X98847211Y-81921789D01*
X98910341Y-81963971D01*
X98941807Y-82011063D01*
X98930758Y-82066612D01*
X98883666Y-82098078D01*
X98869229Y-82099500D01*
X92130093Y-82099500D01*
X92077767Y-82077826D01*
X92056093Y-82025500D01*
X92077767Y-81973174D01*
X92106817Y-81955256D01*
X92237073Y-81912093D01*
X92380078Y-81823887D01*
X92498887Y-81705078D01*
X92587093Y-81562073D01*
X92597858Y-81529587D01*
X92634890Y-81486734D01*
X92691378Y-81482619D01*
X92719602Y-81503254D01*
X92721224Y-81501633D01*
X92819250Y-81599659D01*
X92860114Y-81620480D01*
X92937579Y-81659950D01*
X92937579Y-81659951D01*
X93035753Y-81675500D01*
X93035754Y-81675500D01*
X93539247Y-81675500D01*
X93637420Y-81659951D01*
X93755751Y-81599658D01*
X93849658Y-81505751D01*
X93909951Y-81387420D01*
X93925500Y-81289246D01*
X93925500Y-80710754D01*
X93909951Y-80612580D01*
X93855519Y-80505751D01*
X93849659Y-80494250D01*
X93755751Y-80400342D01*
X93728403Y-80386407D01*
X93691621Y-80343338D01*
X93688000Y-80320473D01*
X93688000Y-79521198D01*
X93688001Y-79521185D01*
X93688001Y-79409772D01*
X93688000Y-79409771D01*
X93660708Y-79307916D01*
X93660706Y-79307911D01*
X93622703Y-79242088D01*
X93607979Y-79216586D01*
X93530834Y-79139441D01*
X93530823Y-79139431D01*
X92093219Y-77701826D01*
X92071545Y-77649500D01*
X92093219Y-77597174D01*
X92145545Y-77575500D01*
X95736117Y-77575500D01*
X95788443Y-77597174D01*
X95805964Y-77625061D01*
X95808384Y-77631975D01*
X95886789Y-77738211D01*
X95965195Y-77796076D01*
X95993026Y-77816617D01*
X96117645Y-77860223D01*
X96117651Y-77860225D01*
X96147244Y-77863000D01*
X96147251Y-77863000D01*
X96727749Y-77863000D01*
X96727756Y-77863000D01*
X96757349Y-77860225D01*
X96814032Y-77840390D01*
X96881973Y-77816617D01*
X96881973Y-77816616D01*
X96881975Y-77816616D01*
X96988211Y-77738211D01*
X97066616Y-77631975D01*
X97070126Y-77621946D01*
X97105172Y-77521789D01*
X97110225Y-77507349D01*
X97113000Y-77477756D01*
X97113000Y-76872244D01*
X97110225Y-76842651D01*
X97109987Y-76841970D01*
X97109987Y-76841967D01*
X97109985Y-76841964D01*
X97102705Y-76821159D01*
X98557000Y-76821159D01*
X98557000Y-76978840D01*
X98587761Y-77133491D01*
X98587764Y-77133501D01*
X98648103Y-77279174D01*
X98648105Y-77279177D01*
X98648106Y-77279179D01*
X98661684Y-77299500D01*
X98731295Y-77403681D01*
X98735711Y-77410289D01*
X98847211Y-77521789D01*
X98978321Y-77609394D01*
X98978326Y-77609396D01*
X98978325Y-77609396D01*
X99075146Y-77649500D01*
X99124003Y-77669737D01*
X99278658Y-77700500D01*
X99278660Y-77700500D01*
X99436340Y-77700500D01*
X99436342Y-77700500D01*
X99590997Y-77669737D01*
X99736679Y-77609394D01*
X99867789Y-77521789D01*
X99979289Y-77410289D01*
X100066894Y-77279179D01*
X100127237Y-77133497D01*
X100158000Y-76978842D01*
X100158000Y-76821159D01*
X103637000Y-76821159D01*
X103637000Y-76978840D01*
X103667761Y-77133491D01*
X103667764Y-77133501D01*
X103728103Y-77279174D01*
X103728105Y-77279177D01*
X103728106Y-77279179D01*
X103741684Y-77299500D01*
X103811295Y-77403681D01*
X103815711Y-77410289D01*
X103927211Y-77521789D01*
X104058321Y-77609394D01*
X104058326Y-77609396D01*
X104058325Y-77609396D01*
X104155146Y-77649500D01*
X104204003Y-77669737D01*
X104358658Y-77700500D01*
X104358660Y-77700500D01*
X104516340Y-77700500D01*
X104516342Y-77700500D01*
X104670997Y-77669737D01*
X104816679Y-77609394D01*
X104947789Y-77521789D01*
X105059289Y-77410289D01*
X105146894Y-77279179D01*
X105207237Y-77133497D01*
X105238000Y-76978842D01*
X105238000Y-76821158D01*
X105207237Y-76666503D01*
X105184574Y-76611789D01*
X105146896Y-76520825D01*
X105146895Y-76520823D01*
X105146894Y-76520821D01*
X105059289Y-76389711D01*
X104947789Y-76278211D01*
X104941919Y-76274289D01*
X104915342Y-76256530D01*
X104816679Y-76190606D01*
X104816675Y-76190604D01*
X104816673Y-76190603D01*
X104816674Y-76190603D01*
X104671001Y-76130264D01*
X104670991Y-76130261D01*
X104567425Y-76109661D01*
X104516342Y-76099500D01*
X104358658Y-76099500D01*
X104314815Y-76108220D01*
X104204008Y-76130261D01*
X104203998Y-76130264D01*
X104058325Y-76190603D01*
X103927211Y-76278210D01*
X103927211Y-76278211D01*
X103815712Y-76389710D01*
X103815710Y-76389711D01*
X103728103Y-76520825D01*
X103667764Y-76666498D01*
X103667761Y-76666508D01*
X103637000Y-76821159D01*
X100158000Y-76821159D01*
X100158000Y-76821158D01*
X100127237Y-76666503D01*
X100104574Y-76611789D01*
X100066896Y-76520825D01*
X100066895Y-76520823D01*
X100066894Y-76520821D01*
X99979289Y-76389711D01*
X99867789Y-76278211D01*
X99861919Y-76274289D01*
X99835342Y-76256530D01*
X99736679Y-76190606D01*
X99736675Y-76190604D01*
X99736673Y-76190603D01*
X99736674Y-76190603D01*
X99591001Y-76130264D01*
X99590991Y-76130261D01*
X99487425Y-76109661D01*
X99436342Y-76099500D01*
X99278658Y-76099500D01*
X99234815Y-76108220D01*
X99124008Y-76130261D01*
X99123998Y-76130264D01*
X98978325Y-76190603D01*
X98847211Y-76278210D01*
X98847211Y-76278211D01*
X98735712Y-76389710D01*
X98735710Y-76389711D01*
X98648103Y-76520825D01*
X98587764Y-76666498D01*
X98587761Y-76666508D01*
X98557000Y-76821159D01*
X97102705Y-76821159D01*
X97083813Y-76767171D01*
X97066616Y-76718025D01*
X96988211Y-76611789D01*
X96937635Y-76574462D01*
X96881973Y-76533382D01*
X96757354Y-76489776D01*
X96757355Y-76489776D01*
X96757350Y-76489775D01*
X96757349Y-76489775D01*
X96727756Y-76487000D01*
X96147244Y-76487000D01*
X96117651Y-76489775D01*
X96117649Y-76489775D01*
X96117645Y-76489776D01*
X95993026Y-76533382D01*
X95886790Y-76611788D01*
X95886788Y-76611790D01*
X95808383Y-76718026D01*
X95805965Y-76724938D01*
X95768227Y-76767171D01*
X95736117Y-76774500D01*
X90371545Y-76774500D01*
X90319219Y-76752826D01*
X89422174Y-75855781D01*
X89400500Y-75803455D01*
X89400500Y-75652063D01*
X89422174Y-75599737D01*
X89474500Y-75578063D01*
X89518442Y-75592523D01*
X89568023Y-75629115D01*
X89568025Y-75629116D01*
X89692645Y-75672723D01*
X89692651Y-75672725D01*
X89722244Y-75675500D01*
X89722251Y-75675500D01*
X90327749Y-75675500D01*
X90327756Y-75675500D01*
X90357349Y-75672725D01*
X90430912Y-75646984D01*
X90481973Y-75629117D01*
X90481973Y-75629116D01*
X90481975Y-75629116D01*
X90588211Y-75550711D01*
X90666616Y-75444475D01*
X90667982Y-75440573D01*
X90699500Y-75350500D01*
X90710225Y-75319849D01*
X90713000Y-75290256D01*
X90713000Y-75286644D01*
X90862501Y-75286644D01*
X90872819Y-75387653D01*
X90927046Y-75551299D01*
X90927048Y-75551305D01*
X91017554Y-75698037D01*
X91139462Y-75819945D01*
X91286194Y-75910451D01*
X91286200Y-75910453D01*
X91449846Y-75964680D01*
X91550857Y-75974999D01*
X91550858Y-75974999D01*
X91599999Y-75974998D01*
X91600000Y-75974998D01*
X91600000Y-75250000D01*
X92100000Y-75250000D01*
X92100000Y-75974999D01*
X92149139Y-75974999D01*
X92149144Y-75974998D01*
X92250153Y-75964680D01*
X92413799Y-75910453D01*
X92413805Y-75910451D01*
X92560537Y-75819945D01*
X92682445Y-75698037D01*
X92772951Y-75551305D01*
X92772953Y-75551300D01*
X92798568Y-75473998D01*
X92835600Y-75431145D01*
X92892088Y-75427030D01*
X92932507Y-75459604D01*
X92957318Y-75501557D01*
X93073443Y-75617682D01*
X93214800Y-75701281D01*
X93372508Y-75747099D01*
X93372505Y-75747099D01*
X93409359Y-75750000D01*
X93812500Y-75750000D01*
X94312500Y-75750000D01*
X94715641Y-75750000D01*
X94752493Y-75747099D01*
X94910199Y-75701281D01*
X95051556Y-75617682D01*
X95167682Y-75501556D01*
X95251281Y-75360199D01*
X95297099Y-75202493D01*
X95297296Y-75200000D01*
X94312500Y-75200000D01*
X94312500Y-75750000D01*
X93812500Y-75750000D01*
X93812500Y-75200000D01*
X92917500Y-75200000D01*
X92900529Y-75216970D01*
X92895826Y-75228326D01*
X92843500Y-75250000D01*
X92100000Y-75250000D01*
X91600000Y-75250000D01*
X90862501Y-75250000D01*
X90862501Y-75286644D01*
X90713000Y-75286644D01*
X90713000Y-74909043D01*
X90734673Y-74856718D01*
X90819718Y-74771673D01*
X90872043Y-74750000D01*
X91600000Y-74750000D01*
X92100000Y-74750000D01*
X92745000Y-74750000D01*
X92761970Y-74733029D01*
X92766674Y-74721674D01*
X92819000Y-74700000D01*
X93812500Y-74700000D01*
X93812500Y-74150000D01*
X93409359Y-74150000D01*
X93372506Y-74152900D01*
X93214800Y-74198718D01*
X93073443Y-74282317D01*
X92957318Y-74398442D01*
X92911270Y-74476305D01*
X92865977Y-74510310D01*
X92809905Y-74502330D01*
X92777331Y-74461910D01*
X92772954Y-74448702D01*
X92772951Y-74448694D01*
X92682445Y-74301962D01*
X92560537Y-74180054D01*
X92413805Y-74089548D01*
X92413799Y-74089546D01*
X92250153Y-74035319D01*
X92149143Y-74025000D01*
X92100000Y-74025000D01*
X92100000Y-74750000D01*
X91600000Y-74750000D01*
X91600000Y-74022043D01*
X91621673Y-73969718D01*
X91894218Y-73697174D01*
X91946544Y-73675500D01*
X92152749Y-73675500D01*
X92152756Y-73675500D01*
X92182349Y-73672725D01*
X92265820Y-73643517D01*
X92306973Y-73629117D01*
X92306973Y-73629116D01*
X92306975Y-73629116D01*
X92413211Y-73550711D01*
X92491616Y-73444475D01*
X92491617Y-73444469D01*
X92494023Y-73439920D01*
X92537637Y-73403787D01*
X92559447Y-73400500D01*
X93149167Y-73400500D01*
X93201493Y-73422174D01*
X93268517Y-73489198D01*
X93373607Y-73540573D01*
X93441740Y-73550500D01*
X93441746Y-73550500D01*
X94683254Y-73550500D01*
X94683260Y-73550500D01*
X94751393Y-73540573D01*
X94856483Y-73489198D01*
X94939198Y-73406483D01*
X94990573Y-73301393D01*
X95000500Y-73233260D01*
X95000500Y-72866740D01*
X94990573Y-72798607D01*
X94939198Y-72693517D01*
X94856483Y-72610802D01*
X94856482Y-72610801D01*
X94751394Y-72559427D01*
X94683264Y-72549500D01*
X94683260Y-72549500D01*
X93441740Y-72549500D01*
X93441735Y-72549500D01*
X93373606Y-72559427D01*
X93373605Y-72559427D01*
X93307016Y-72591981D01*
X93274516Y-72599500D01*
X92559447Y-72599500D01*
X92507121Y-72577826D01*
X92494023Y-72560080D01*
X92491614Y-72555522D01*
X92445295Y-72492762D01*
X92413211Y-72449289D01*
X92356557Y-72407477D01*
X92306973Y-72370882D01*
X92182354Y-72327276D01*
X92182355Y-72327276D01*
X92182350Y-72327275D01*
X92182349Y-72327275D01*
X92152756Y-72324500D01*
X91547244Y-72324500D01*
X91530803Y-72326041D01*
X91517647Y-72327275D01*
X91433671Y-72356660D01*
X91377123Y-72353483D01*
X91339383Y-72311252D01*
X91342560Y-72254704D01*
X91356900Y-72234492D01*
X96320480Y-67270913D01*
X96373207Y-67179588D01*
X96400500Y-67077727D01*
X96400500Y-66972273D01*
X96400500Y-66439628D01*
X96422174Y-66387302D01*
X96448768Y-66371005D01*
X96448555Y-66370489D01*
X96451229Y-66369380D01*
X96451235Y-66369379D01*
X96453416Y-66368268D01*
X96498767Y-66345160D01*
X96616096Y-66285378D01*
X96765787Y-66176621D01*
X96896621Y-66045787D01*
X97005378Y-65896096D01*
X97089379Y-65731235D01*
X97146555Y-65555264D01*
X97175500Y-65372514D01*
X97175500Y-65187486D01*
X97146555Y-65004736D01*
X97146553Y-65004731D01*
X97146552Y-65004725D01*
X97089380Y-64828767D01*
X97089378Y-64828763D01*
X97030803Y-64713804D01*
X97005378Y-64663904D01*
X96896621Y-64514213D01*
X96765787Y-64383379D01*
X96765784Y-64383376D01*
X96765782Y-64383375D01*
X96616098Y-64274623D01*
X96616092Y-64274620D01*
X96451236Y-64190621D01*
X96451232Y-64190619D01*
X96275274Y-64133447D01*
X96275261Y-64133444D01*
X96092516Y-64104500D01*
X96092514Y-64104500D01*
X95907486Y-64104500D01*
X95907484Y-64104500D01*
X95724738Y-64133444D01*
X95724725Y-64133447D01*
X95548767Y-64190619D01*
X95548763Y-64190621D01*
X95383907Y-64274620D01*
X95383901Y-64274623D01*
X95234217Y-64383375D01*
X95103375Y-64514217D01*
X94994623Y-64663901D01*
X94994620Y-64663907D01*
X94910621Y-64828763D01*
X94910619Y-64828767D01*
X94853447Y-65004725D01*
X94853444Y-65004738D01*
X94824500Y-65187484D01*
X94824500Y-65372515D01*
X94853444Y-65555261D01*
X94853447Y-65555274D01*
X94910619Y-65731232D01*
X94910621Y-65731236D01*
X94994620Y-65896092D01*
X94994623Y-65896098D01*
X95103375Y-66045782D01*
X95103379Y-66045787D01*
X95234213Y-66176621D01*
X95383904Y-66285378D01*
X95457423Y-66322838D01*
X95548758Y-66369376D01*
X95551445Y-66370489D01*
X95551019Y-66371516D01*
X95591433Y-66406031D01*
X95599500Y-66439628D01*
X95599500Y-66828455D01*
X95577826Y-66880781D01*
X90155781Y-72302826D01*
X90103455Y-72324500D01*
X89722244Y-72324500D01*
X89692651Y-72327275D01*
X89692649Y-72327275D01*
X89692645Y-72327276D01*
X89568025Y-72370883D01*
X89568023Y-72370884D01*
X89518442Y-72407477D01*
X89463471Y-72421110D01*
X89414960Y-72391879D01*
X89400500Y-72347937D01*
X89400500Y-67476544D01*
X89422173Y-67424219D01*
X90463216Y-66383175D01*
X90515541Y-66361502D01*
X90545862Y-66368786D01*
X90546078Y-66368266D01*
X90548770Y-66369381D01*
X90724725Y-66426552D01*
X90724731Y-66426553D01*
X90724736Y-66426555D01*
X90799497Y-66438396D01*
X90907484Y-66455500D01*
X90907486Y-66455500D01*
X91092516Y-66455500D01*
X91165614Y-66443922D01*
X91275264Y-66426555D01*
X91275271Y-66426552D01*
X91275274Y-66426552D01*
X91451232Y-66369380D01*
X91451232Y-66369379D01*
X91451235Y-66369379D01*
X91616096Y-66285378D01*
X91765787Y-66176621D01*
X91896621Y-66045787D01*
X92005378Y-65896096D01*
X92089379Y-65731235D01*
X92146555Y-65555264D01*
X92175500Y-65372514D01*
X92175500Y-65187486D01*
X92146555Y-65004736D01*
X92146553Y-65004731D01*
X92146552Y-65004725D01*
X92089380Y-64828767D01*
X92089378Y-64828763D01*
X92030803Y-64713804D01*
X92005378Y-64663904D01*
X91896621Y-64514213D01*
X91765787Y-64383379D01*
X91765784Y-64383376D01*
X91765782Y-64383375D01*
X91616098Y-64274623D01*
X91616092Y-64274620D01*
X91451236Y-64190621D01*
X91451232Y-64190619D01*
X91275274Y-64133447D01*
X91275261Y-64133444D01*
X91092516Y-64104500D01*
X91092514Y-64104500D01*
X90907486Y-64104500D01*
X90907484Y-64104500D01*
X90724738Y-64133444D01*
X90724725Y-64133447D01*
X90548767Y-64190619D01*
X90548763Y-64190621D01*
X90383907Y-64274620D01*
X90383901Y-64274623D01*
X90234217Y-64383375D01*
X90103375Y-64514217D01*
X89994623Y-64663901D01*
X89994620Y-64663907D01*
X89910621Y-64828763D01*
X89910619Y-64828767D01*
X89853447Y-65004725D01*
X89853444Y-65004738D01*
X89824500Y-65187484D01*
X89824500Y-65372515D01*
X89853444Y-65555261D01*
X89853447Y-65555274D01*
X89910618Y-65731229D01*
X89911734Y-65733922D01*
X89910705Y-65734347D01*
X89914873Y-65787327D01*
X89896822Y-65816783D01*
X88679517Y-67034090D01*
X88626795Y-67125407D01*
X88626791Y-67125416D01*
X88612276Y-67179586D01*
X88612277Y-67179587D01*
X88599500Y-67227273D01*
X88599500Y-75947273D01*
X88599500Y-76052727D01*
X88612033Y-76099500D01*
X88626793Y-76154588D01*
X88626795Y-76154592D01*
X88679517Y-76245909D01*
X88679518Y-76245910D01*
X88679520Y-76245913D01*
X89929087Y-77495480D01*
X89929089Y-77495481D01*
X89929090Y-77495482D01*
X89949653Y-77507354D01*
X90020412Y-77548207D01*
X90122273Y-77575500D01*
X90803455Y-77575500D01*
X90855781Y-77597174D01*
X92865326Y-79606718D01*
X92887000Y-79659044D01*
X92887000Y-80320473D01*
X92865326Y-80372799D01*
X92846597Y-80386407D01*
X92819248Y-80400342D01*
X92721224Y-80498367D01*
X92718994Y-80496137D01*
X92679659Y-80520228D01*
X92624590Y-80506992D01*
X92597858Y-80470412D01*
X92587093Y-80437926D01*
X92498887Y-80294921D01*
X92380078Y-80176112D01*
X92237073Y-80087906D01*
X92077585Y-80035057D01*
X91979139Y-80025000D01*
X91962500Y-80025000D01*
X91962500Y-80926000D01*
X91940826Y-80978326D01*
X91888500Y-81000000D01*
X91712500Y-81000000D01*
X91712500Y-81176000D01*
X91690826Y-81228326D01*
X91638500Y-81250000D01*
X90775001Y-81250000D01*
X90775001Y-81304140D01*
X90785057Y-81402585D01*
X90837906Y-81562073D01*
X90926112Y-81705078D01*
X91044921Y-81823887D01*
X91187926Y-81912093D01*
X91318183Y-81955256D01*
X91361036Y-81992289D01*
X91365151Y-82048776D01*
X91328118Y-82091629D01*
X91294907Y-82099500D01*
X90696545Y-82099500D01*
X90644219Y-82077826D01*
X89262253Y-80695860D01*
X90775000Y-80695860D01*
X90775000Y-80750000D01*
X91462500Y-80750000D01*
X91462500Y-80024999D01*
X91462499Y-80024999D01*
X91445867Y-80025000D01*
X91445857Y-80025001D01*
X91347414Y-80035057D01*
X91187926Y-80087906D01*
X91044921Y-80176112D01*
X90926112Y-80294921D01*
X90837906Y-80437926D01*
X90785057Y-80597414D01*
X90775000Y-80695860D01*
X89262253Y-80695860D01*
X88422174Y-79855781D01*
X88400500Y-79803455D01*
X88400500Y-67227274D01*
X88387723Y-67179587D01*
X88387723Y-67179586D01*
X88373208Y-67125416D01*
X88373207Y-67125412D01*
X88320480Y-67034087D01*
X87103176Y-65816783D01*
X87081502Y-65764457D01*
X87088789Y-65734133D01*
X87088268Y-65733917D01*
X87089380Y-65731232D01*
X87146552Y-65555274D01*
X87146552Y-65555271D01*
X87146555Y-65555264D01*
X87175500Y-65372514D01*
X87175500Y-65187486D01*
X87146555Y-65004736D01*
X87146553Y-65004731D01*
X87146552Y-65004725D01*
X87089380Y-64828767D01*
X87089378Y-64828763D01*
X87030803Y-64713804D01*
X87005378Y-64663904D01*
X86896621Y-64514213D01*
X86765787Y-64383379D01*
X86765784Y-64383376D01*
X86765782Y-64383375D01*
X86616098Y-64274623D01*
X86616092Y-64274620D01*
X86451236Y-64190621D01*
X86451232Y-64190619D01*
X86275274Y-64133447D01*
X86275261Y-64133444D01*
X86092516Y-64104500D01*
X86092514Y-64104500D01*
X85907486Y-64104500D01*
X85907484Y-64104500D01*
X85724738Y-64133444D01*
X85724725Y-64133447D01*
X85548767Y-64190619D01*
X85548763Y-64190621D01*
X85383907Y-64274620D01*
X85383901Y-64274623D01*
X85234217Y-64383375D01*
X85103375Y-64514217D01*
X84994623Y-64663901D01*
X84994620Y-64663907D01*
X84910621Y-64828763D01*
X84910619Y-64828767D01*
X84853447Y-65004725D01*
X84853444Y-65004738D01*
X84824500Y-65187484D01*
X82500500Y-65187484D01*
X82500500Y-60004159D01*
X82500965Y-59995874D01*
X82501982Y-59986842D01*
X82512091Y-59897124D01*
X82515775Y-59880988D01*
X82547212Y-59791143D01*
X82554400Y-59776218D01*
X82605042Y-59695621D01*
X82615366Y-59682675D01*
X82682675Y-59615366D01*
X82695621Y-59605042D01*
X82776219Y-59554399D01*
X82791143Y-59547212D01*
X82880988Y-59515775D01*
X82897124Y-59512091D01*
X82986842Y-59501982D01*
X82995874Y-59500965D01*
X83004159Y-59500500D01*
X83065892Y-59500500D01*
X123934108Y-59500500D01*
X123995841Y-59500500D01*
X124004126Y-59500965D01*
G37*
%TD.AperFunction*%
%TA.AperFunction,Conductor*%
G36*
X124451717Y-75629364D02*
G01*
X124457456Y-75629674D01*
X124472996Y-75646984D01*
X124490914Y-75661821D01*
X124492670Y-75668899D01*
X124495292Y-75671819D01*
X124494953Y-75678098D01*
X124499500Y-75696418D01*
X124499500Y-82995840D01*
X124499035Y-83004125D01*
X124499035Y-83004126D01*
X124487909Y-83102868D01*
X124484221Y-83119023D01*
X124452788Y-83208852D01*
X124445599Y-83223781D01*
X124394961Y-83304372D01*
X124384629Y-83317328D01*
X124317328Y-83384629D01*
X124304372Y-83394961D01*
X124223781Y-83445599D01*
X124208852Y-83452788D01*
X124137299Y-83477826D01*
X124119021Y-83484221D01*
X124102868Y-83487909D01*
X124004127Y-83499035D01*
X123995841Y-83499500D01*
X115712014Y-83499500D01*
X115659688Y-83477826D01*
X115638014Y-83425500D01*
X115659688Y-83373174D01*
X115675014Y-83361414D01*
X115687391Y-83354267D01*
X115745913Y-83320480D01*
X117444218Y-81622173D01*
X117496544Y-81600500D01*
X117727749Y-81600500D01*
X117727756Y-81600500D01*
X117757349Y-81597725D01*
X117814032Y-81577890D01*
X117881973Y-81554117D01*
X117881973Y-81554116D01*
X117881975Y-81554116D01*
X117988211Y-81475711D01*
X118066616Y-81369475D01*
X118110225Y-81244849D01*
X118113000Y-81215256D01*
X118113000Y-80974999D01*
X121975000Y-80974999D01*
X121991635Y-80974999D01*
X121991640Y-80974998D01*
X122090085Y-80964942D01*
X122249573Y-80912093D01*
X122392578Y-80823887D01*
X122511387Y-80705078D01*
X122599593Y-80562073D01*
X122652442Y-80402585D01*
X122662499Y-80304139D01*
X122662500Y-80304137D01*
X122662500Y-80250000D01*
X121975000Y-80250000D01*
X121975000Y-80974999D01*
X118113000Y-80974999D01*
X118113000Y-80609744D01*
X118110225Y-80580151D01*
X118092769Y-80530264D01*
X118066617Y-80455526D01*
X118042002Y-80422174D01*
X117988211Y-80349289D01*
X117927032Y-80304137D01*
X117881973Y-80270882D01*
X117757354Y-80227276D01*
X117757355Y-80227276D01*
X117757350Y-80227275D01*
X117757349Y-80227275D01*
X117727756Y-80224500D01*
X117147244Y-80224500D01*
X117117651Y-80227275D01*
X117117649Y-80227275D01*
X117117645Y-80227276D01*
X116993026Y-80270882D01*
X116886790Y-80349288D01*
X116886788Y-80349290D01*
X116808382Y-80455526D01*
X116764776Y-80580145D01*
X116764775Y-80580149D01*
X116764775Y-80580151D01*
X116763157Y-80597414D01*
X116762000Y-80609749D01*
X116762000Y-81140955D01*
X116740326Y-81193281D01*
X115355781Y-82577826D01*
X115303455Y-82599500D01*
X114534045Y-82599500D01*
X114481719Y-82577826D01*
X113991415Y-82087522D01*
X113969741Y-82035196D01*
X113991415Y-81982870D01*
X114043741Y-81961196D01*
X114084850Y-81973666D01*
X114138321Y-82009394D01*
X114138326Y-82009396D01*
X114138325Y-82009396D01*
X114283998Y-82069735D01*
X114284003Y-82069737D01*
X114438658Y-82100500D01*
X114438660Y-82100500D01*
X114596340Y-82100500D01*
X114596342Y-82100500D01*
X114750997Y-82069737D01*
X114896679Y-82009394D01*
X115027789Y-81921789D01*
X115139289Y-81810289D01*
X115226894Y-81679179D01*
X115287237Y-81533497D01*
X115318000Y-81378842D01*
X115318000Y-81221158D01*
X115287237Y-81066503D01*
X115249335Y-80974998D01*
X115226896Y-80920825D01*
X115226895Y-80920823D01*
X115226894Y-80920821D01*
X115139289Y-80789711D01*
X115027789Y-80678211D01*
X114896679Y-80590606D01*
X114896675Y-80590604D01*
X114896673Y-80590603D01*
X114896674Y-80590603D01*
X114751001Y-80530264D01*
X114750991Y-80530261D01*
X114627159Y-80505629D01*
X114589270Y-80485377D01*
X112125052Y-78021159D01*
X113717000Y-78021159D01*
X113717000Y-78178840D01*
X113747761Y-78333491D01*
X113747764Y-78333501D01*
X113808103Y-78479174D01*
X113881962Y-78589713D01*
X113895711Y-78610289D01*
X114007211Y-78721789D01*
X114138321Y-78809394D01*
X114138326Y-78809396D01*
X114138325Y-78809396D01*
X114273279Y-78865295D01*
X114284003Y-78869737D01*
X114438658Y-78900500D01*
X114438660Y-78900500D01*
X114596340Y-78900500D01*
X114596342Y-78900500D01*
X114750997Y-78869737D01*
X114896679Y-78809394D01*
X115027789Y-78721789D01*
X115139289Y-78610289D01*
X115226894Y-78479179D01*
X115287237Y-78333497D01*
X115318000Y-78178842D01*
X115318000Y-78021158D01*
X115287237Y-77866503D01*
X115234097Y-77738211D01*
X115226896Y-77720825D01*
X115226895Y-77720823D01*
X115226894Y-77720821D01*
X115139289Y-77589711D01*
X115027789Y-77478211D01*
X115027108Y-77477756D01*
X114995342Y-77456530D01*
X114896679Y-77390606D01*
X114896675Y-77390604D01*
X114896673Y-77390603D01*
X114896674Y-77390603D01*
X114751001Y-77330264D01*
X114750991Y-77330261D01*
X114647425Y-77309661D01*
X114596342Y-77299500D01*
X114438658Y-77299500D01*
X114394815Y-77308220D01*
X114284008Y-77330261D01*
X114283998Y-77330264D01*
X114138325Y-77390603D01*
X114007211Y-77478210D01*
X114007210Y-77478212D01*
X113895712Y-77589710D01*
X113895710Y-77589711D01*
X113808103Y-77720825D01*
X113747764Y-77866498D01*
X113747761Y-77866508D01*
X113717000Y-78021159D01*
X112125052Y-78021159D01*
X110530719Y-76426826D01*
X110509045Y-76374500D01*
X110530719Y-76322174D01*
X110583045Y-76300500D01*
X113782798Y-76300500D01*
X113835124Y-76322174D01*
X113844327Y-76333388D01*
X113852449Y-76345544D01*
X113895711Y-76410289D01*
X114007211Y-76521789D01*
X114138321Y-76609394D01*
X114138326Y-76609396D01*
X114138325Y-76609396D01*
X114144105Y-76611790D01*
X114284003Y-76669737D01*
X114438658Y-76700500D01*
X114438660Y-76700500D01*
X114596340Y-76700500D01*
X114596342Y-76700500D01*
X114750997Y-76669737D01*
X114896679Y-76609394D01*
X115027789Y-76521789D01*
X115139289Y-76410289D01*
X115226894Y-76279179D01*
X115257133Y-76206174D01*
X115297181Y-76166126D01*
X115353818Y-76166126D01*
X115393867Y-76206174D01*
X115399500Y-76234493D01*
X115399500Y-77397273D01*
X115399500Y-77502727D01*
X115425598Y-77600128D01*
X115426793Y-77604588D01*
X115426795Y-77604592D01*
X115479517Y-77695909D01*
X115479518Y-77695910D01*
X115479520Y-77695913D01*
X116141990Y-78358382D01*
X116740326Y-78956718D01*
X116762000Y-79009044D01*
X116762000Y-79390256D01*
X116764775Y-79419849D01*
X116764775Y-79419851D01*
X116764776Y-79419854D01*
X116808382Y-79544473D01*
X116830543Y-79574500D01*
X116886789Y-79650711D01*
X116947963Y-79695859D01*
X116993026Y-79729117D01*
X117117645Y-79772723D01*
X117117651Y-79772725D01*
X117147244Y-79775500D01*
X117147251Y-79775500D01*
X117703455Y-79775500D01*
X117755781Y-79797174D01*
X118279087Y-80320480D01*
X118370412Y-80373207D01*
X118472273Y-80400500D01*
X119488867Y-80400500D01*
X119541193Y-80422174D01*
X119554800Y-80440903D01*
X119582943Y-80496137D01*
X119587843Y-80505752D01*
X119681750Y-80599659D01*
X119740914Y-80629804D01*
X119800079Y-80659950D01*
X119800079Y-80659951D01*
X119898253Y-80675500D01*
X119898254Y-80675500D01*
X120401747Y-80675500D01*
X120499920Y-80659951D01*
X120618251Y-80599658D01*
X120712158Y-80505751D01*
X120712158Y-80505750D01*
X120716276Y-80501633D01*
X120718517Y-80503874D01*
X120757764Y-80479783D01*
X120812847Y-80492962D01*
X120839641Y-80529585D01*
X120850407Y-80562075D01*
X120938612Y-80705078D01*
X121057421Y-80823887D01*
X121200426Y-80912093D01*
X121359914Y-80964942D01*
X121458361Y-80974998D01*
X121475000Y-80974998D01*
X121475000Y-79750000D01*
X121975000Y-79750000D01*
X122662499Y-79750000D01*
X122662499Y-79695865D01*
X122662498Y-79695859D01*
X122652442Y-79597414D01*
X122599593Y-79437926D01*
X122511387Y-79294921D01*
X122392578Y-79176112D01*
X122249573Y-79087906D01*
X122090085Y-79035057D01*
X121991639Y-79025000D01*
X121975000Y-79025000D01*
X121975000Y-79750000D01*
X121475000Y-79750000D01*
X121475000Y-79024999D01*
X121474999Y-79024999D01*
X121458367Y-79025000D01*
X121458357Y-79025001D01*
X121359914Y-79035057D01*
X121200426Y-79087906D01*
X121057421Y-79176112D01*
X120938612Y-79294921D01*
X120850405Y-79437927D01*
X120839640Y-79470414D01*
X120802606Y-79513266D01*
X120746119Y-79517379D01*
X120717899Y-79496743D01*
X120716276Y-79498367D01*
X120618249Y-79400340D01*
X120499920Y-79340049D01*
X120499920Y-79340048D01*
X120401747Y-79324500D01*
X120401746Y-79324500D01*
X119898254Y-79324500D01*
X119898253Y-79324500D01*
X119800079Y-79340048D01*
X119800079Y-79340049D01*
X119681750Y-79400340D01*
X119587843Y-79494247D01*
X119554801Y-79559096D01*
X119511734Y-79595878D01*
X119488867Y-79599500D01*
X118721545Y-79599500D01*
X118669219Y-79577826D01*
X118134674Y-79043281D01*
X118113000Y-78990955D01*
X118113000Y-78784751D01*
X118113000Y-78784744D01*
X118110225Y-78755151D01*
X118098214Y-78720825D01*
X118066617Y-78630526D01*
X118002039Y-78543026D01*
X117988211Y-78524289D01*
X117925776Y-78478210D01*
X117881973Y-78445882D01*
X117757354Y-78402276D01*
X117757355Y-78402276D01*
X117757350Y-78402275D01*
X117757349Y-78402275D01*
X117727756Y-78399500D01*
X117727750Y-78399500D01*
X117346544Y-78399500D01*
X117294218Y-78377826D01*
X116222174Y-77305781D01*
X116200500Y-77253455D01*
X116200500Y-76345544D01*
X116222174Y-76293218D01*
X116274500Y-76271544D01*
X116326826Y-76293218D01*
X117076931Y-77043323D01*
X117076936Y-77043329D01*
X117079520Y-77045913D01*
X117154087Y-77120480D01*
X117245413Y-77173207D01*
X117245414Y-77173207D01*
X117245416Y-77173208D01*
X117296343Y-77186854D01*
X117347270Y-77200500D01*
X117347271Y-77200501D01*
X117347273Y-77200501D01*
X117457257Y-77200501D01*
X117457273Y-77200500D01*
X122652726Y-77200500D01*
X122652727Y-77200500D01*
X122754588Y-77173207D01*
X122845913Y-77120480D01*
X124183410Y-75782981D01*
X124183413Y-75782980D01*
X124257980Y-75708413D01*
X124267067Y-75692672D01*
X124306552Y-75659881D01*
X124394475Y-75629116D01*
X124395058Y-75628685D01*
X124400901Y-75626626D01*
X124424130Y-75627877D01*
X124447291Y-75625699D01*
X124451717Y-75629364D01*
G37*
%TD.AperFunction*%
%TA.AperFunction,Conductor*%
G36*
X101526826Y-68555719D02*
G01*
X106144281Y-73173174D01*
X106165955Y-73225500D01*
X106144281Y-73277826D01*
X106091955Y-73299500D01*
X105172202Y-73299500D01*
X105119876Y-73277826D01*
X105110673Y-73266612D01*
X105059291Y-73189714D01*
X105059290Y-73189713D01*
X105059289Y-73189711D01*
X104947789Y-73078211D01*
X104816679Y-72990606D01*
X104816675Y-72990604D01*
X104816673Y-72990603D01*
X104816674Y-72990603D01*
X104671001Y-72930264D01*
X104670991Y-72930261D01*
X104567425Y-72909661D01*
X104516342Y-72899500D01*
X104358658Y-72899500D01*
X104314815Y-72908220D01*
X104204008Y-72930261D01*
X104203998Y-72930264D01*
X104058325Y-72990603D01*
X103927211Y-73078210D01*
X103927210Y-73078212D01*
X103815712Y-73189710D01*
X103815710Y-73189711D01*
X103728103Y-73320825D01*
X103667764Y-73466498D01*
X103667761Y-73466508D01*
X103637000Y-73621159D01*
X103637000Y-73778841D01*
X103655043Y-73869553D01*
X103643993Y-73925102D01*
X103634791Y-73936315D01*
X102993281Y-74577826D01*
X102940955Y-74599500D01*
X99649744Y-74599500D01*
X99597418Y-74577826D01*
X99575744Y-74525500D01*
X99597418Y-74473174D01*
X99621426Y-74457133D01*
X99736674Y-74409396D01*
X99736673Y-74409396D01*
X99736679Y-74409394D01*
X99867789Y-74321789D01*
X99979289Y-74210289D01*
X100066894Y-74079179D01*
X100127237Y-73933497D01*
X100158000Y-73778842D01*
X100158000Y-73621158D01*
X100139955Y-73530445D01*
X100151004Y-73474899D01*
X100160202Y-73463689D01*
X101245910Y-72377981D01*
X101245913Y-72377980D01*
X101320480Y-72303413D01*
X101346843Y-72257750D01*
X101373207Y-72212088D01*
X101400500Y-72110227D01*
X101400500Y-72004773D01*
X101400500Y-68608045D01*
X101422174Y-68555719D01*
X101474500Y-68534045D01*
X101526826Y-68555719D01*
G37*
%TD.AperFunction*%
%TD*%
M02*
