%TF.GenerationSoftware,KiCad,Pcbnew,9.0.1*%
%TF.CreationDate,2025-06-17T22:10:16+02:00*%
%TF.ProjectId,PUTM_EV_CART_INDICATOR,5055544d-5f45-4565-9f43-4152545f494e,rev?*%
%TF.SameCoordinates,Original*%
%TF.FileFunction,Legend,Bot*%
%TF.FilePolarity,Positive*%
%FSLAX46Y46*%
G04 Gerber Fmt 4.6, Leading zero omitted, Abs format (unit mm)*
G04 Created by KiCad (PCBNEW 9.0.1) date 2025-06-17 22:10:16*
%MOMM*%
%LPD*%
G01*
G04 APERTURE LIST*
%ADD10C,0.300000*%
%ADD11C,0.200000*%
G04 APERTURE END LIST*
D10*
X94505012Y-77794133D02*
X94505012Y-76544133D01*
X93790727Y-77794133D02*
X94326441Y-77079848D01*
X93790727Y-76544133D02*
X94505012Y-77258419D01*
X93255012Y-77794133D02*
X93255012Y-76960800D01*
X93255012Y-77198895D02*
X93195489Y-77079848D01*
X93195489Y-77079848D02*
X93135965Y-77020324D01*
X93135965Y-77020324D02*
X93016917Y-76960800D01*
X93016917Y-76960800D02*
X92897870Y-76960800D01*
X92600250Y-76960800D02*
X91945488Y-76960800D01*
X91945488Y-76960800D02*
X92600250Y-77794133D01*
X92600250Y-77794133D02*
X91945488Y-77794133D01*
X91588345Y-76960800D02*
X91290726Y-77794133D01*
X90993107Y-76960800D02*
X91290726Y-77794133D01*
X91290726Y-77794133D02*
X91409774Y-78091752D01*
X91409774Y-78091752D02*
X91469297Y-78151276D01*
X91469297Y-78151276D02*
X91588345Y-78210800D01*
X90576440Y-77734610D02*
X90457393Y-77794133D01*
X90457393Y-77794133D02*
X90219297Y-77794133D01*
X90219297Y-77794133D02*
X90100250Y-77734610D01*
X90100250Y-77734610D02*
X90040726Y-77615562D01*
X90040726Y-77615562D02*
X90040726Y-77556038D01*
X90040726Y-77556038D02*
X90100250Y-77436990D01*
X90100250Y-77436990D02*
X90219297Y-77377467D01*
X90219297Y-77377467D02*
X90397869Y-77377467D01*
X90397869Y-77377467D02*
X90516916Y-77317943D01*
X90516916Y-77317943D02*
X90576440Y-77198895D01*
X90576440Y-77198895D02*
X90576440Y-77139371D01*
X90576440Y-77139371D02*
X90516916Y-77020324D01*
X90516916Y-77020324D02*
X90397869Y-76960800D01*
X90397869Y-76960800D02*
X90219297Y-76960800D01*
X90219297Y-76960800D02*
X90100250Y-77020324D01*
X89505011Y-77794133D02*
X89505011Y-76960800D01*
X89505011Y-76544133D02*
X89564535Y-76603657D01*
X89564535Y-76603657D02*
X89505011Y-76663181D01*
X89505011Y-76663181D02*
X89445488Y-76603657D01*
X89445488Y-76603657D02*
X89505011Y-76544133D01*
X89505011Y-76544133D02*
X89505011Y-76663181D01*
X88374059Y-76960800D02*
X88374059Y-77794133D01*
X88909773Y-76960800D02*
X88909773Y-77615562D01*
X88909773Y-77615562D02*
X88850250Y-77734610D01*
X88850250Y-77734610D02*
X88731202Y-77794133D01*
X88731202Y-77794133D02*
X88552631Y-77794133D01*
X88552631Y-77794133D02*
X88433583Y-77734610D01*
X88433583Y-77734610D02*
X88374059Y-77675086D01*
X93790727Y-79687516D02*
X93850251Y-79747040D01*
X93850251Y-79747040D02*
X94028822Y-79806563D01*
X94028822Y-79806563D02*
X94147870Y-79806563D01*
X94147870Y-79806563D02*
X94326441Y-79747040D01*
X94326441Y-79747040D02*
X94445489Y-79627992D01*
X94445489Y-79627992D02*
X94505012Y-79508944D01*
X94505012Y-79508944D02*
X94564536Y-79270849D01*
X94564536Y-79270849D02*
X94564536Y-79092278D01*
X94564536Y-79092278D02*
X94505012Y-78854182D01*
X94505012Y-78854182D02*
X94445489Y-78735135D01*
X94445489Y-78735135D02*
X94326441Y-78616087D01*
X94326441Y-78616087D02*
X94147870Y-78556563D01*
X94147870Y-78556563D02*
X94028822Y-78556563D01*
X94028822Y-78556563D02*
X93850251Y-78616087D01*
X93850251Y-78616087D02*
X93790727Y-78675611D01*
X93255012Y-79806563D02*
X93255012Y-78556563D01*
X92719298Y-79806563D02*
X92719298Y-79151801D01*
X92719298Y-79151801D02*
X92778822Y-79032754D01*
X92778822Y-79032754D02*
X92897870Y-78973230D01*
X92897870Y-78973230D02*
X93076441Y-78973230D01*
X93076441Y-78973230D02*
X93195489Y-79032754D01*
X93195489Y-79032754D02*
X93255012Y-79092278D01*
X91945489Y-78556563D02*
X91945489Y-78854182D01*
X92243108Y-78735135D02*
X91945489Y-78854182D01*
X91945489Y-78854182D02*
X91647870Y-78735135D01*
X92124060Y-79092278D02*
X91945489Y-78854182D01*
X91945489Y-78854182D02*
X91766918Y-79092278D01*
X90993108Y-78556563D02*
X90993108Y-78854182D01*
X91290727Y-78735135D02*
X90993108Y-78854182D01*
X90993108Y-78854182D02*
X90695489Y-78735135D01*
X91171679Y-79092278D02*
X90993108Y-78854182D01*
X90993108Y-78854182D02*
X90814537Y-79092278D01*
X90040727Y-78556563D02*
X90040727Y-78854182D01*
X90338346Y-78735135D02*
X90040727Y-78854182D01*
X90040727Y-78854182D02*
X89743108Y-78735135D01*
X90219298Y-79092278D02*
X90040727Y-78854182D01*
X90040727Y-78854182D02*
X89862156Y-79092278D01*
X94683584Y-80985660D02*
X94207393Y-80985660D01*
X94505012Y-81818993D02*
X94505012Y-80747565D01*
X94505012Y-80747565D02*
X94445489Y-80628517D01*
X94445489Y-80628517D02*
X94326441Y-80568993D01*
X94326441Y-80568993D02*
X94207393Y-80568993D01*
X93255012Y-81818993D02*
X93255012Y-81164231D01*
X93255012Y-81164231D02*
X93314536Y-81045184D01*
X93314536Y-81045184D02*
X93433584Y-80985660D01*
X93433584Y-80985660D02*
X93671679Y-80985660D01*
X93671679Y-80985660D02*
X93790726Y-81045184D01*
X93255012Y-81759470D02*
X93374060Y-81818993D01*
X93374060Y-81818993D02*
X93671679Y-81818993D01*
X93671679Y-81818993D02*
X93790726Y-81759470D01*
X93790726Y-81759470D02*
X93850250Y-81640422D01*
X93850250Y-81640422D02*
X93850250Y-81521374D01*
X93850250Y-81521374D02*
X93790726Y-81402327D01*
X93790726Y-81402327D02*
X93671679Y-81342803D01*
X93671679Y-81342803D02*
X93374060Y-81342803D01*
X93374060Y-81342803D02*
X93255012Y-81283279D01*
X92659774Y-81818993D02*
X92659774Y-80568993D01*
X92540727Y-81342803D02*
X92183584Y-81818993D01*
X92183584Y-80985660D02*
X92659774Y-81461850D01*
X91826441Y-80985660D02*
X91350250Y-80985660D01*
X91647869Y-80568993D02*
X91647869Y-81640422D01*
X91647869Y-81640422D02*
X91588346Y-81759470D01*
X91588346Y-81759470D02*
X91469298Y-81818993D01*
X91469298Y-81818993D02*
X91350250Y-81818993D01*
X90397869Y-80985660D02*
X90397869Y-81818993D01*
X90933583Y-80985660D02*
X90933583Y-81640422D01*
X90933583Y-81640422D02*
X90874060Y-81759470D01*
X90874060Y-81759470D02*
X90755012Y-81818993D01*
X90755012Y-81818993D02*
X90576441Y-81818993D01*
X90576441Y-81818993D02*
X90457393Y-81759470D01*
X90457393Y-81759470D02*
X90397869Y-81699946D01*
X89802631Y-81818993D02*
X89802631Y-80985660D01*
X89802631Y-81223755D02*
X89743108Y-81104708D01*
X89743108Y-81104708D02*
X89683584Y-81045184D01*
X89683584Y-81045184D02*
X89564536Y-80985660D01*
X89564536Y-80985660D02*
X89445489Y-80985660D01*
X89147869Y-80985660D02*
X88850250Y-81818993D01*
X88552631Y-80985660D02*
X88850250Y-81818993D01*
X88850250Y-81818993D02*
X88969298Y-82116612D01*
X88969298Y-82116612D02*
X89028821Y-82176136D01*
X89028821Y-82176136D02*
X89147869Y-82235660D01*
X94326441Y-83831423D02*
X94445489Y-83771900D01*
X94445489Y-83771900D02*
X94505012Y-83712376D01*
X94505012Y-83712376D02*
X94564536Y-83593328D01*
X94564536Y-83593328D02*
X94564536Y-83236185D01*
X94564536Y-83236185D02*
X94505012Y-83117138D01*
X94505012Y-83117138D02*
X94445489Y-83057614D01*
X94445489Y-83057614D02*
X94326441Y-82998090D01*
X94326441Y-82998090D02*
X94147870Y-82998090D01*
X94147870Y-82998090D02*
X94028822Y-83057614D01*
X94028822Y-83057614D02*
X93969298Y-83117138D01*
X93969298Y-83117138D02*
X93909774Y-83236185D01*
X93909774Y-83236185D02*
X93909774Y-83593328D01*
X93909774Y-83593328D02*
X93969298Y-83712376D01*
X93969298Y-83712376D02*
X94028822Y-83771900D01*
X94028822Y-83771900D02*
X94147870Y-83831423D01*
X94147870Y-83831423D02*
X94326441Y-83831423D01*
X92838346Y-83831423D02*
X92838346Y-82581423D01*
X92838346Y-83771900D02*
X92957394Y-83831423D01*
X92957394Y-83831423D02*
X93195489Y-83831423D01*
X93195489Y-83831423D02*
X93314537Y-83771900D01*
X93314537Y-83771900D02*
X93374060Y-83712376D01*
X93374060Y-83712376D02*
X93433584Y-83593328D01*
X93433584Y-83593328D02*
X93433584Y-83236185D01*
X93433584Y-83236185D02*
X93374060Y-83117138D01*
X93374060Y-83117138D02*
X93314537Y-83057614D01*
X93314537Y-83057614D02*
X93195489Y-82998090D01*
X93195489Y-82998090D02*
X92957394Y-82998090D01*
X92957394Y-82998090D02*
X92838346Y-83057614D01*
X91707394Y-83831423D02*
X91707394Y-82581423D01*
X91707394Y-83771900D02*
X91826442Y-83831423D01*
X91826442Y-83831423D02*
X92064537Y-83831423D01*
X92064537Y-83831423D02*
X92183585Y-83771900D01*
X92183585Y-83771900D02*
X92243108Y-83712376D01*
X92243108Y-83712376D02*
X92302632Y-83593328D01*
X92302632Y-83593328D02*
X92302632Y-83236185D01*
X92302632Y-83236185D02*
X92243108Y-83117138D01*
X92243108Y-83117138D02*
X92183585Y-83057614D01*
X92183585Y-83057614D02*
X92064537Y-82998090D01*
X92064537Y-82998090D02*
X91826442Y-82998090D01*
X91826442Y-82998090D02*
X91707394Y-83057614D01*
X90576442Y-83831423D02*
X90576442Y-83176661D01*
X90576442Y-83176661D02*
X90635966Y-83057614D01*
X90635966Y-83057614D02*
X90755014Y-82998090D01*
X90755014Y-82998090D02*
X90993109Y-82998090D01*
X90993109Y-82998090D02*
X91112156Y-83057614D01*
X90576442Y-83771900D02*
X90695490Y-83831423D01*
X90695490Y-83831423D02*
X90993109Y-83831423D01*
X90993109Y-83831423D02*
X91112156Y-83771900D01*
X91112156Y-83771900D02*
X91171680Y-83652852D01*
X91171680Y-83652852D02*
X91171680Y-83533804D01*
X91171680Y-83533804D02*
X91112156Y-83414757D01*
X91112156Y-83414757D02*
X90993109Y-83355233D01*
X90993109Y-83355233D02*
X90695490Y-83355233D01*
X90695490Y-83355233D02*
X90576442Y-83295709D01*
X90100252Y-82998090D02*
X89862157Y-83831423D01*
X89862157Y-83831423D02*
X89624062Y-83236185D01*
X89624062Y-83236185D02*
X89385966Y-83831423D01*
X89385966Y-83831423D02*
X89147871Y-82998090D01*
X88135966Y-83831423D02*
X88135966Y-83176661D01*
X88135966Y-83176661D02*
X88195490Y-83057614D01*
X88195490Y-83057614D02*
X88314538Y-82998090D01*
X88314538Y-82998090D02*
X88552633Y-82998090D01*
X88552633Y-82998090D02*
X88671680Y-83057614D01*
X88135966Y-83771900D02*
X88255014Y-83831423D01*
X88255014Y-83831423D02*
X88552633Y-83831423D01*
X88552633Y-83831423D02*
X88671680Y-83771900D01*
X88671680Y-83771900D02*
X88731204Y-83652852D01*
X88731204Y-83652852D02*
X88731204Y-83533804D01*
X88731204Y-83533804D02*
X88671680Y-83414757D01*
X88671680Y-83414757D02*
X88552633Y-83355233D01*
X88552633Y-83355233D02*
X88255014Y-83355233D01*
X88255014Y-83355233D02*
X88135966Y-83295709D01*
X87540728Y-82998090D02*
X87540728Y-84069519D01*
X87540728Y-84069519D02*
X87600252Y-84188566D01*
X87600252Y-84188566D02*
X87719300Y-84248090D01*
X87719300Y-84248090D02*
X87778824Y-84248090D01*
X87540728Y-82581423D02*
X87600252Y-82640947D01*
X87600252Y-82640947D02*
X87540728Y-82700471D01*
X87540728Y-82700471D02*
X87481205Y-82640947D01*
X87481205Y-82640947D02*
X87540728Y-82581423D01*
X87540728Y-82581423D02*
X87540728Y-82700471D01*
D11*
X122077945Y-66737387D02*
X122077945Y-66927863D01*
X121696993Y-66737387D02*
X121696993Y-66927863D01*
X121268421Y-67737387D02*
X121268421Y-66737387D01*
X121268421Y-66737387D02*
X120696993Y-67737387D01*
X120696993Y-67737387D02*
X120696993Y-66737387D01*
X120220802Y-67737387D02*
X120220802Y-67070720D01*
X120220802Y-66737387D02*
X120268421Y-66785006D01*
X120268421Y-66785006D02*
X120220802Y-66832625D01*
X120220802Y-66832625D02*
X120173183Y-66785006D01*
X120173183Y-66785006D02*
X120220802Y-66737387D01*
X120220802Y-66737387D02*
X120220802Y-66832625D01*
X119363660Y-67689768D02*
X119458898Y-67737387D01*
X119458898Y-67737387D02*
X119649374Y-67737387D01*
X119649374Y-67737387D02*
X119744612Y-67689768D01*
X119744612Y-67689768D02*
X119792231Y-67594529D01*
X119792231Y-67594529D02*
X119792231Y-67213577D01*
X119792231Y-67213577D02*
X119744612Y-67118339D01*
X119744612Y-67118339D02*
X119649374Y-67070720D01*
X119649374Y-67070720D02*
X119458898Y-67070720D01*
X119458898Y-67070720D02*
X119363660Y-67118339D01*
X119363660Y-67118339D02*
X119316041Y-67213577D01*
X119316041Y-67213577D02*
X119316041Y-67308815D01*
X119316041Y-67308815D02*
X119792231Y-67404053D01*
X117696993Y-67689768D02*
X117792231Y-67737387D01*
X117792231Y-67737387D02*
X117982707Y-67737387D01*
X117982707Y-67737387D02*
X118077945Y-67689768D01*
X118077945Y-67689768D02*
X118125564Y-67642148D01*
X118125564Y-67642148D02*
X118173183Y-67546910D01*
X118173183Y-67546910D02*
X118173183Y-67261196D01*
X118173183Y-67261196D02*
X118125564Y-67165958D01*
X118125564Y-67165958D02*
X118077945Y-67118339D01*
X118077945Y-67118339D02*
X117982707Y-67070720D01*
X117982707Y-67070720D02*
X117792231Y-67070720D01*
X117792231Y-67070720D02*
X117696993Y-67118339D01*
X117363659Y-67070720D02*
X116839850Y-67070720D01*
X116839850Y-67070720D02*
X117363659Y-67737387D01*
X117363659Y-67737387D02*
X116839850Y-67737387D01*
X116030326Y-67737387D02*
X116030326Y-67213577D01*
X116030326Y-67213577D02*
X116077945Y-67118339D01*
X116077945Y-67118339D02*
X116173183Y-67070720D01*
X116173183Y-67070720D02*
X116363659Y-67070720D01*
X116363659Y-67070720D02*
X116458897Y-67118339D01*
X116030326Y-67689768D02*
X116125564Y-67737387D01*
X116125564Y-67737387D02*
X116363659Y-67737387D01*
X116363659Y-67737387D02*
X116458897Y-67689768D01*
X116458897Y-67689768D02*
X116506516Y-67594529D01*
X116506516Y-67594529D02*
X116506516Y-67499291D01*
X116506516Y-67499291D02*
X116458897Y-67404053D01*
X116458897Y-67404053D02*
X116363659Y-67356434D01*
X116363659Y-67356434D02*
X116125564Y-67356434D01*
X116125564Y-67356434D02*
X116030326Y-67308815D01*
X115554135Y-67737387D02*
X115554135Y-67070720D01*
X115554135Y-67261196D02*
X115506516Y-67165958D01*
X115506516Y-67165958D02*
X115458897Y-67118339D01*
X115458897Y-67118339D02*
X115363659Y-67070720D01*
X115363659Y-67070720D02*
X115268421Y-67070720D01*
X114792230Y-67737387D02*
X114887468Y-67689768D01*
X114887468Y-67689768D02*
X114935087Y-67642148D01*
X114935087Y-67642148D02*
X114982706Y-67546910D01*
X114982706Y-67546910D02*
X114982706Y-67261196D01*
X114982706Y-67261196D02*
X114935087Y-67165958D01*
X114935087Y-67165958D02*
X114887468Y-67118339D01*
X114887468Y-67118339D02*
X114792230Y-67070720D01*
X114792230Y-67070720D02*
X114649373Y-67070720D01*
X114649373Y-67070720D02*
X114554135Y-67118339D01*
X114554135Y-67118339D02*
X114506516Y-67165958D01*
X114506516Y-67165958D02*
X114458897Y-67261196D01*
X114458897Y-67261196D02*
X114458897Y-67546910D01*
X114458897Y-67546910D02*
X114506516Y-67642148D01*
X114506516Y-67642148D02*
X114554135Y-67689768D01*
X114554135Y-67689768D02*
X114649373Y-67737387D01*
X114649373Y-67737387D02*
X114792230Y-67737387D01*
X113601754Y-67737387D02*
X113601754Y-66737387D01*
X113601754Y-67689768D02*
X113696992Y-67737387D01*
X113696992Y-67737387D02*
X113887468Y-67737387D01*
X113887468Y-67737387D02*
X113982706Y-67689768D01*
X113982706Y-67689768D02*
X114030325Y-67642148D01*
X114030325Y-67642148D02*
X114077944Y-67546910D01*
X114077944Y-67546910D02*
X114077944Y-67261196D01*
X114077944Y-67261196D02*
X114030325Y-67165958D01*
X114030325Y-67165958D02*
X113982706Y-67118339D01*
X113982706Y-67118339D02*
X113887468Y-67070720D01*
X113887468Y-67070720D02*
X113696992Y-67070720D01*
X113696992Y-67070720D02*
X113601754Y-67118339D01*
X113220801Y-67070720D02*
X112696992Y-67070720D01*
X112696992Y-67070720D02*
X113220801Y-67737387D01*
X113220801Y-67737387D02*
X112696992Y-67737387D01*
X112316039Y-67737387D02*
X112316039Y-67070720D01*
X112316039Y-66737387D02*
X112363658Y-66785006D01*
X112363658Y-66785006D02*
X112316039Y-66832625D01*
X112316039Y-66832625D02*
X112268420Y-66785006D01*
X112268420Y-66785006D02*
X112316039Y-66737387D01*
X112316039Y-66737387D02*
X112316039Y-66832625D01*
X111458897Y-67689768D02*
X111554135Y-67737387D01*
X111554135Y-67737387D02*
X111744611Y-67737387D01*
X111744611Y-67737387D02*
X111839849Y-67689768D01*
X111839849Y-67689768D02*
X111887468Y-67594529D01*
X111887468Y-67594529D02*
X111887468Y-67213577D01*
X111887468Y-67213577D02*
X111839849Y-67118339D01*
X111839849Y-67118339D02*
X111744611Y-67070720D01*
X111744611Y-67070720D02*
X111554135Y-67070720D01*
X111554135Y-67070720D02*
X111458897Y-67118339D01*
X111458897Y-67118339D02*
X111411278Y-67213577D01*
X111411278Y-67213577D02*
X111411278Y-67308815D01*
X111411278Y-67308815D02*
X111887468Y-67404053D01*
X110982706Y-67070720D02*
X110982706Y-67927863D01*
X110982706Y-67927863D02*
X111030325Y-68023101D01*
X111030325Y-68023101D02*
X111125563Y-68070720D01*
X111125563Y-68070720D02*
X111173182Y-68070720D01*
X110982706Y-66737387D02*
X111030325Y-66785006D01*
X111030325Y-66785006D02*
X110982706Y-66832625D01*
X110982706Y-66832625D02*
X110935087Y-66785006D01*
X110935087Y-66785006D02*
X110982706Y-66737387D01*
X110982706Y-66737387D02*
X110982706Y-66832625D01*
X110554135Y-67689768D02*
X110458897Y-67737387D01*
X110458897Y-67737387D02*
X110268421Y-67737387D01*
X110268421Y-67737387D02*
X110173183Y-67689768D01*
X110173183Y-67689768D02*
X110125564Y-67594529D01*
X110125564Y-67594529D02*
X110125564Y-67546910D01*
X110125564Y-67546910D02*
X110173183Y-67451672D01*
X110173183Y-67451672D02*
X110268421Y-67404053D01*
X110268421Y-67404053D02*
X110411278Y-67404053D01*
X110411278Y-67404053D02*
X110506516Y-67356434D01*
X110506516Y-67356434D02*
X110554135Y-67261196D01*
X110554135Y-67261196D02*
X110554135Y-67213577D01*
X110554135Y-67213577D02*
X110506516Y-67118339D01*
X110506516Y-67118339D02*
X110411278Y-67070720D01*
X110411278Y-67070720D02*
X110268421Y-67070720D01*
X110268421Y-67070720D02*
X110173183Y-67118339D01*
X109696992Y-67737387D02*
X109696992Y-66737387D01*
X109601754Y-67356434D02*
X109316040Y-67737387D01*
X109316040Y-67070720D02*
X109696992Y-67451672D01*
X108458897Y-67737387D02*
X108458897Y-67213577D01*
X108458897Y-67213577D02*
X108506516Y-67118339D01*
X108506516Y-67118339D02*
X108601754Y-67070720D01*
X108601754Y-67070720D02*
X108792230Y-67070720D01*
X108792230Y-67070720D02*
X108887468Y-67118339D01*
X108458897Y-67689768D02*
X108554135Y-67737387D01*
X108554135Y-67737387D02*
X108792230Y-67737387D01*
X108792230Y-67737387D02*
X108887468Y-67689768D01*
X108887468Y-67689768D02*
X108935087Y-67594529D01*
X108935087Y-67594529D02*
X108935087Y-67499291D01*
X108935087Y-67499291D02*
X108887468Y-67404053D01*
X108887468Y-67404053D02*
X108792230Y-67356434D01*
X108792230Y-67356434D02*
X108554135Y-67356434D01*
X108554135Y-67356434D02*
X108458897Y-67308815D01*
X107363658Y-67070720D02*
X106982706Y-67070720D01*
X107220801Y-66737387D02*
X107220801Y-67594529D01*
X107220801Y-67594529D02*
X107173182Y-67689768D01*
X107173182Y-67689768D02*
X107077944Y-67737387D01*
X107077944Y-67737387D02*
X106982706Y-67737387D01*
X106744610Y-67070720D02*
X106506515Y-67737387D01*
X106268420Y-67070720D02*
X106506515Y-67737387D01*
X106506515Y-67737387D02*
X106601753Y-67975482D01*
X106601753Y-67975482D02*
X106649372Y-68023101D01*
X106649372Y-68023101D02*
X106744610Y-68070720D01*
X105744610Y-67737387D02*
X105839848Y-67689768D01*
X105839848Y-67689768D02*
X105887467Y-67594529D01*
X105887467Y-67594529D02*
X105887467Y-66737387D01*
X105363657Y-67737387D02*
X105363657Y-66737387D01*
X105268419Y-67356434D02*
X104982705Y-67737387D01*
X104982705Y-67070720D02*
X105363657Y-67451672D01*
X104411276Y-67737387D02*
X104506514Y-67689768D01*
X104506514Y-67689768D02*
X104554133Y-67642148D01*
X104554133Y-67642148D02*
X104601752Y-67546910D01*
X104601752Y-67546910D02*
X104601752Y-67261196D01*
X104601752Y-67261196D02*
X104554133Y-67165958D01*
X104554133Y-67165958D02*
X104506514Y-67118339D01*
X104506514Y-67118339D02*
X104411276Y-67070720D01*
X104411276Y-67070720D02*
X104268419Y-67070720D01*
X104268419Y-67070720D02*
X104173181Y-67118339D01*
X104173181Y-67118339D02*
X104125562Y-67165958D01*
X104125562Y-67165958D02*
X104077943Y-67261196D01*
X104077943Y-67261196D02*
X104077943Y-67546910D01*
X104077943Y-67546910D02*
X104125562Y-67642148D01*
X104125562Y-67642148D02*
X104173181Y-67689768D01*
X104173181Y-67689768D02*
X104268419Y-67737387D01*
X104268419Y-67737387D02*
X104411276Y-67737387D01*
X122030326Y-69347331D02*
X122030326Y-68680664D01*
X122030326Y-68775902D02*
X121982707Y-68728283D01*
X121982707Y-68728283D02*
X121887469Y-68680664D01*
X121887469Y-68680664D02*
X121744612Y-68680664D01*
X121744612Y-68680664D02*
X121649374Y-68728283D01*
X121649374Y-68728283D02*
X121601755Y-68823521D01*
X121601755Y-68823521D02*
X121601755Y-69347331D01*
X121601755Y-68823521D02*
X121554136Y-68728283D01*
X121554136Y-68728283D02*
X121458898Y-68680664D01*
X121458898Y-68680664D02*
X121316041Y-68680664D01*
X121316041Y-68680664D02*
X121220802Y-68728283D01*
X121220802Y-68728283D02*
X121173183Y-68823521D01*
X121173183Y-68823521D02*
X121173183Y-69347331D01*
X120268422Y-69347331D02*
X120268422Y-68823521D01*
X120268422Y-68823521D02*
X120316041Y-68728283D01*
X120316041Y-68728283D02*
X120411279Y-68680664D01*
X120411279Y-68680664D02*
X120601755Y-68680664D01*
X120601755Y-68680664D02*
X120696993Y-68728283D01*
X120268422Y-69299712D02*
X120363660Y-69347331D01*
X120363660Y-69347331D02*
X120601755Y-69347331D01*
X120601755Y-69347331D02*
X120696993Y-69299712D01*
X120696993Y-69299712D02*
X120744612Y-69204473D01*
X120744612Y-69204473D02*
X120744612Y-69109235D01*
X120744612Y-69109235D02*
X120696993Y-69013997D01*
X120696993Y-69013997D02*
X120601755Y-68966378D01*
X120601755Y-68966378D02*
X120363660Y-68966378D01*
X120363660Y-68966378D02*
X120268422Y-68918759D01*
X119363660Y-68680664D02*
X119363660Y-69490188D01*
X119363660Y-69490188D02*
X119411279Y-69585426D01*
X119411279Y-69585426D02*
X119458898Y-69633045D01*
X119458898Y-69633045D02*
X119554136Y-69680664D01*
X119554136Y-69680664D02*
X119696993Y-69680664D01*
X119696993Y-69680664D02*
X119792231Y-69633045D01*
X119363660Y-69299712D02*
X119458898Y-69347331D01*
X119458898Y-69347331D02*
X119649374Y-69347331D01*
X119649374Y-69347331D02*
X119744612Y-69299712D01*
X119744612Y-69299712D02*
X119792231Y-69252092D01*
X119792231Y-69252092D02*
X119839850Y-69156854D01*
X119839850Y-69156854D02*
X119839850Y-68871140D01*
X119839850Y-68871140D02*
X119792231Y-68775902D01*
X119792231Y-68775902D02*
X119744612Y-68728283D01*
X119744612Y-68728283D02*
X119649374Y-68680664D01*
X119649374Y-68680664D02*
X119458898Y-68680664D01*
X119458898Y-68680664D02*
X119363660Y-68728283D01*
X118887469Y-69347331D02*
X118887469Y-68680664D01*
X118887469Y-68347331D02*
X118935088Y-68394950D01*
X118935088Y-68394950D02*
X118887469Y-68442569D01*
X118887469Y-68442569D02*
X118839850Y-68394950D01*
X118839850Y-68394950D02*
X118887469Y-68347331D01*
X118887469Y-68347331D02*
X118887469Y-68442569D01*
X117982708Y-69299712D02*
X118077946Y-69347331D01*
X118077946Y-69347331D02*
X118268422Y-69347331D01*
X118268422Y-69347331D02*
X118363660Y-69299712D01*
X118363660Y-69299712D02*
X118411279Y-69252092D01*
X118411279Y-69252092D02*
X118458898Y-69156854D01*
X118458898Y-69156854D02*
X118458898Y-68871140D01*
X118458898Y-68871140D02*
X118411279Y-68775902D01*
X118411279Y-68775902D02*
X118363660Y-68728283D01*
X118363660Y-68728283D02*
X118268422Y-68680664D01*
X118268422Y-68680664D02*
X118077946Y-68680664D01*
X118077946Y-68680664D02*
X117982708Y-68728283D01*
X117649374Y-68680664D02*
X117125565Y-68680664D01*
X117125565Y-68680664D02*
X117649374Y-69347331D01*
X117649374Y-69347331D02*
X117125565Y-69347331D01*
X116744612Y-68680664D02*
X116744612Y-69347331D01*
X116744612Y-68775902D02*
X116696993Y-68728283D01*
X116696993Y-68728283D02*
X116601755Y-68680664D01*
X116601755Y-68680664D02*
X116458898Y-68680664D01*
X116458898Y-68680664D02*
X116363660Y-68728283D01*
X116363660Y-68728283D02*
X116316041Y-68823521D01*
X116316041Y-68823521D02*
X116316041Y-69347331D01*
X115411279Y-69347331D02*
X115411279Y-68823521D01*
X115411279Y-68823521D02*
X115458898Y-68728283D01*
X115458898Y-68728283D02*
X115554136Y-68680664D01*
X115554136Y-68680664D02*
X115744612Y-68680664D01*
X115744612Y-68680664D02*
X115839850Y-68728283D01*
X115411279Y-69299712D02*
X115506517Y-69347331D01*
X115506517Y-69347331D02*
X115744612Y-69347331D01*
X115744612Y-69347331D02*
X115839850Y-69299712D01*
X115839850Y-69299712D02*
X115887469Y-69204473D01*
X115887469Y-69204473D02*
X115887469Y-69109235D01*
X115887469Y-69109235D02*
X115839850Y-69013997D01*
X115839850Y-69013997D02*
X115744612Y-68966378D01*
X115744612Y-68966378D02*
X115506517Y-68966378D01*
X115506517Y-68966378D02*
X115411279Y-68918759D01*
X114173183Y-69347331D02*
X114173183Y-68680664D01*
X114173183Y-68347331D02*
X114220802Y-68394950D01*
X114220802Y-68394950D02*
X114173183Y-68442569D01*
X114173183Y-68442569D02*
X114125564Y-68394950D01*
X114125564Y-68394950D02*
X114173183Y-68347331D01*
X114173183Y-68347331D02*
X114173183Y-68442569D01*
X112935088Y-68680664D02*
X112935088Y-69347331D01*
X112935088Y-68775902D02*
X112887469Y-68728283D01*
X112887469Y-68728283D02*
X112792231Y-68680664D01*
X112792231Y-68680664D02*
X112649374Y-68680664D01*
X112649374Y-68680664D02*
X112554136Y-68728283D01*
X112554136Y-68728283D02*
X112506517Y-68823521D01*
X112506517Y-68823521D02*
X112506517Y-69347331D01*
X112030326Y-69347331D02*
X112030326Y-68680664D01*
X112030326Y-68347331D02*
X112077945Y-68394950D01*
X112077945Y-68394950D02*
X112030326Y-68442569D01*
X112030326Y-68442569D02*
X111982707Y-68394950D01*
X111982707Y-68394950D02*
X112030326Y-68347331D01*
X112030326Y-68347331D02*
X112030326Y-68442569D01*
X111173184Y-69299712D02*
X111268422Y-69347331D01*
X111268422Y-69347331D02*
X111458898Y-69347331D01*
X111458898Y-69347331D02*
X111554136Y-69299712D01*
X111554136Y-69299712D02*
X111601755Y-69204473D01*
X111601755Y-69204473D02*
X111601755Y-68823521D01*
X111601755Y-68823521D02*
X111554136Y-68728283D01*
X111554136Y-68728283D02*
X111458898Y-68680664D01*
X111458898Y-68680664D02*
X111268422Y-68680664D01*
X111268422Y-68680664D02*
X111173184Y-68728283D01*
X111173184Y-68728283D02*
X111125565Y-68823521D01*
X111125565Y-68823521D02*
X111125565Y-68918759D01*
X111125565Y-68918759D02*
X111601755Y-69013997D01*
X110077945Y-68680664D02*
X109696993Y-68680664D01*
X109935088Y-69347331D02*
X109935088Y-68490188D01*
X109935088Y-68490188D02*
X109887469Y-68394950D01*
X109887469Y-68394950D02*
X109792231Y-68347331D01*
X109792231Y-68347331D02*
X109696993Y-68347331D01*
X108935088Y-68680664D02*
X108935088Y-69347331D01*
X109363659Y-68680664D02*
X109363659Y-69204473D01*
X109363659Y-69204473D02*
X109316040Y-69299712D01*
X109316040Y-69299712D02*
X109220802Y-69347331D01*
X109220802Y-69347331D02*
X109077945Y-69347331D01*
X109077945Y-69347331D02*
X108982707Y-69299712D01*
X108982707Y-69299712D02*
X108935088Y-69252092D01*
X108458897Y-68680664D02*
X108458897Y-69537807D01*
X108458897Y-69537807D02*
X108506516Y-69633045D01*
X108506516Y-69633045D02*
X108601754Y-69680664D01*
X108601754Y-69680664D02*
X108649373Y-69680664D01*
X108458897Y-68347331D02*
X108506516Y-68394950D01*
X108506516Y-68394950D02*
X108458897Y-68442569D01*
X108458897Y-68442569D02*
X108411278Y-68394950D01*
X108411278Y-68394950D02*
X108458897Y-68347331D01*
X108458897Y-68347331D02*
X108458897Y-68442569D01*
X107554136Y-69347331D02*
X107554136Y-68823521D01*
X107554136Y-68823521D02*
X107601755Y-68728283D01*
X107601755Y-68728283D02*
X107696993Y-68680664D01*
X107696993Y-68680664D02*
X107887469Y-68680664D01*
X107887469Y-68680664D02*
X107982707Y-68728283D01*
X107554136Y-69299712D02*
X107649374Y-69347331D01*
X107649374Y-69347331D02*
X107887469Y-69347331D01*
X107887469Y-69347331D02*
X107982707Y-69299712D01*
X107982707Y-69299712D02*
X108030326Y-69204473D01*
X108030326Y-69204473D02*
X108030326Y-69109235D01*
X108030326Y-69109235D02*
X107982707Y-69013997D01*
X107982707Y-69013997D02*
X107887469Y-68966378D01*
X107887469Y-68966378D02*
X107649374Y-68966378D01*
X107649374Y-68966378D02*
X107554136Y-68918759D01*
X107077945Y-69347331D02*
X107077945Y-68680664D01*
X107077945Y-68871140D02*
X107030326Y-68775902D01*
X107030326Y-68775902D02*
X106982707Y-68728283D01*
X106982707Y-68728283D02*
X106887469Y-68680664D01*
X106887469Y-68680664D02*
X106792231Y-68680664D01*
X106458897Y-69347331D02*
X106458897Y-68347331D01*
X106363659Y-68966378D02*
X106077945Y-69347331D01*
X106077945Y-68680664D02*
X106458897Y-69061616D01*
X105220802Y-69347331D02*
X105220802Y-68823521D01*
X105220802Y-68823521D02*
X105268421Y-68728283D01*
X105268421Y-68728283D02*
X105363659Y-68680664D01*
X105363659Y-68680664D02*
X105554135Y-68680664D01*
X105554135Y-68680664D02*
X105649373Y-68728283D01*
X105220802Y-69299712D02*
X105316040Y-69347331D01*
X105316040Y-69347331D02*
X105554135Y-69347331D01*
X105554135Y-69347331D02*
X105649373Y-69299712D01*
X105649373Y-69299712D02*
X105696992Y-69204473D01*
X105696992Y-69204473D02*
X105696992Y-69109235D01*
X105696992Y-69109235D02*
X105649373Y-69013997D01*
X105649373Y-69013997D02*
X105554135Y-68966378D01*
X105554135Y-68966378D02*
X105316040Y-68966378D01*
X105316040Y-68966378D02*
X105220802Y-68918759D01*
X122173183Y-70290608D02*
X121792231Y-70290608D01*
X122030326Y-69957275D02*
X122030326Y-70814417D01*
X122030326Y-70814417D02*
X121982707Y-70909656D01*
X121982707Y-70909656D02*
X121887469Y-70957275D01*
X121887469Y-70957275D02*
X121792231Y-70957275D01*
X121554135Y-70290608D02*
X121316040Y-70957275D01*
X121077945Y-70290608D02*
X121316040Y-70957275D01*
X121316040Y-70957275D02*
X121411278Y-71195370D01*
X121411278Y-71195370D02*
X121458897Y-71242989D01*
X121458897Y-71242989D02*
X121554135Y-71290608D01*
X120554135Y-70957275D02*
X120649373Y-70909656D01*
X120649373Y-70909656D02*
X120696992Y-70814417D01*
X120696992Y-70814417D02*
X120696992Y-69957275D01*
X120173182Y-70957275D02*
X120173182Y-69957275D01*
X120077944Y-70576322D02*
X119792230Y-70957275D01*
X119792230Y-70290608D02*
X120173182Y-70671560D01*
X119220801Y-70957275D02*
X119316039Y-70909656D01*
X119316039Y-70909656D02*
X119363658Y-70862036D01*
X119363658Y-70862036D02*
X119411277Y-70766798D01*
X119411277Y-70766798D02*
X119411277Y-70481084D01*
X119411277Y-70481084D02*
X119363658Y-70385846D01*
X119363658Y-70385846D02*
X119316039Y-70338227D01*
X119316039Y-70338227D02*
X119220801Y-70290608D01*
X119220801Y-70290608D02*
X119077944Y-70290608D01*
X119077944Y-70290608D02*
X118982706Y-70338227D01*
X118982706Y-70338227D02*
X118935087Y-70385846D01*
X118935087Y-70385846D02*
X118887468Y-70481084D01*
X118887468Y-70481084D02*
X118887468Y-70766798D01*
X118887468Y-70766798D02*
X118935087Y-70862036D01*
X118935087Y-70862036D02*
X118982706Y-70909656D01*
X118982706Y-70909656D02*
X119077944Y-70957275D01*
X119077944Y-70957275D02*
X119220801Y-70957275D01*
X117839848Y-70290608D02*
X117458896Y-70290608D01*
X117696991Y-70957275D02*
X117696991Y-70100132D01*
X117696991Y-70100132D02*
X117649372Y-70004894D01*
X117649372Y-70004894D02*
X117554134Y-69957275D01*
X117554134Y-69957275D02*
X117458896Y-69957275D01*
X116982705Y-70957275D02*
X117077943Y-70909656D01*
X117077943Y-70909656D02*
X117125562Y-70814417D01*
X117125562Y-70814417D02*
X117125562Y-69957275D01*
X116220800Y-70909656D02*
X116316038Y-70957275D01*
X116316038Y-70957275D02*
X116506514Y-70957275D01*
X116506514Y-70957275D02*
X116601752Y-70909656D01*
X116601752Y-70909656D02*
X116649371Y-70814417D01*
X116649371Y-70814417D02*
X116649371Y-70433465D01*
X116649371Y-70433465D02*
X116601752Y-70338227D01*
X116601752Y-70338227D02*
X116506514Y-70290608D01*
X116506514Y-70290608D02*
X116316038Y-70290608D01*
X116316038Y-70290608D02*
X116220800Y-70338227D01*
X116220800Y-70338227D02*
X116173181Y-70433465D01*
X116173181Y-70433465D02*
X116173181Y-70528703D01*
X116173181Y-70528703D02*
X116649371Y-70623941D01*
X115887466Y-70290608D02*
X115506514Y-70290608D01*
X115744609Y-69957275D02*
X115744609Y-70814417D01*
X115744609Y-70814417D02*
X115696990Y-70909656D01*
X115696990Y-70909656D02*
X115601752Y-70957275D01*
X115601752Y-70957275D02*
X115506514Y-70957275D01*
X115173180Y-70862036D02*
X115125561Y-70909656D01*
X115125561Y-70909656D02*
X115173180Y-70957275D01*
X115173180Y-70957275D02*
X115220799Y-70909656D01*
X115220799Y-70909656D02*
X115173180Y-70862036D01*
X115173180Y-70862036D02*
X115173180Y-70957275D01*
X114696990Y-70862036D02*
X114649371Y-70909656D01*
X114649371Y-70909656D02*
X114696990Y-70957275D01*
X114696990Y-70957275D02*
X114744609Y-70909656D01*
X114744609Y-70909656D02*
X114696990Y-70862036D01*
X114696990Y-70862036D02*
X114696990Y-70957275D01*
X114220800Y-70862036D02*
X114173181Y-70909656D01*
X114173181Y-70909656D02*
X114220800Y-70957275D01*
X114220800Y-70957275D02*
X114268419Y-70909656D01*
X114268419Y-70909656D02*
X114220800Y-70862036D01*
X114220800Y-70862036D02*
X114220800Y-70957275D01*
X122030326Y-72567219D02*
X122030326Y-71900552D01*
X122030326Y-71995790D02*
X121982707Y-71948171D01*
X121982707Y-71948171D02*
X121887469Y-71900552D01*
X121887469Y-71900552D02*
X121744612Y-71900552D01*
X121744612Y-71900552D02*
X121649374Y-71948171D01*
X121649374Y-71948171D02*
X121601755Y-72043409D01*
X121601755Y-72043409D02*
X121601755Y-72567219D01*
X121601755Y-72043409D02*
X121554136Y-71948171D01*
X121554136Y-71948171D02*
X121458898Y-71900552D01*
X121458898Y-71900552D02*
X121316041Y-71900552D01*
X121316041Y-71900552D02*
X121220802Y-71948171D01*
X121220802Y-71948171D02*
X121173183Y-72043409D01*
X121173183Y-72043409D02*
X121173183Y-72567219D01*
X120268422Y-72567219D02*
X120268422Y-72043409D01*
X120268422Y-72043409D02*
X120316041Y-71948171D01*
X120316041Y-71948171D02*
X120411279Y-71900552D01*
X120411279Y-71900552D02*
X120601755Y-71900552D01*
X120601755Y-71900552D02*
X120696993Y-71948171D01*
X120268422Y-72519600D02*
X120363660Y-72567219D01*
X120363660Y-72567219D02*
X120601755Y-72567219D01*
X120601755Y-72567219D02*
X120696993Y-72519600D01*
X120696993Y-72519600D02*
X120744612Y-72424361D01*
X120744612Y-72424361D02*
X120744612Y-72329123D01*
X120744612Y-72329123D02*
X120696993Y-72233885D01*
X120696993Y-72233885D02*
X120601755Y-72186266D01*
X120601755Y-72186266D02*
X120363660Y-72186266D01*
X120363660Y-72186266D02*
X120268422Y-72138647D01*
X119363660Y-71900552D02*
X119363660Y-72710076D01*
X119363660Y-72710076D02*
X119411279Y-72805314D01*
X119411279Y-72805314D02*
X119458898Y-72852933D01*
X119458898Y-72852933D02*
X119554136Y-72900552D01*
X119554136Y-72900552D02*
X119696993Y-72900552D01*
X119696993Y-72900552D02*
X119792231Y-72852933D01*
X119363660Y-72519600D02*
X119458898Y-72567219D01*
X119458898Y-72567219D02*
X119649374Y-72567219D01*
X119649374Y-72567219D02*
X119744612Y-72519600D01*
X119744612Y-72519600D02*
X119792231Y-72471980D01*
X119792231Y-72471980D02*
X119839850Y-72376742D01*
X119839850Y-72376742D02*
X119839850Y-72091028D01*
X119839850Y-72091028D02*
X119792231Y-71995790D01*
X119792231Y-71995790D02*
X119744612Y-71948171D01*
X119744612Y-71948171D02*
X119649374Y-71900552D01*
X119649374Y-71900552D02*
X119458898Y-71900552D01*
X119458898Y-71900552D02*
X119363660Y-71948171D01*
X118887469Y-72567219D02*
X118887469Y-71900552D01*
X118887469Y-71567219D02*
X118935088Y-71614838D01*
X118935088Y-71614838D02*
X118887469Y-71662457D01*
X118887469Y-71662457D02*
X118839850Y-71614838D01*
X118839850Y-71614838D02*
X118887469Y-71567219D01*
X118887469Y-71567219D02*
X118887469Y-71662457D01*
X117982708Y-72519600D02*
X118077946Y-72567219D01*
X118077946Y-72567219D02*
X118268422Y-72567219D01*
X118268422Y-72567219D02*
X118363660Y-72519600D01*
X118363660Y-72519600D02*
X118411279Y-72471980D01*
X118411279Y-72471980D02*
X118458898Y-72376742D01*
X118458898Y-72376742D02*
X118458898Y-72091028D01*
X118458898Y-72091028D02*
X118411279Y-71995790D01*
X118411279Y-71995790D02*
X118363660Y-71948171D01*
X118363660Y-71948171D02*
X118268422Y-71900552D01*
X118268422Y-71900552D02*
X118077946Y-71900552D01*
X118077946Y-71900552D02*
X117982708Y-71948171D01*
X117649374Y-71900552D02*
X117125565Y-71900552D01*
X117125565Y-71900552D02*
X117649374Y-72567219D01*
X117649374Y-72567219D02*
X117125565Y-72567219D01*
X116744612Y-71900552D02*
X116744612Y-72567219D01*
X116744612Y-71995790D02*
X116696993Y-71948171D01*
X116696993Y-71948171D02*
X116601755Y-71900552D01*
X116601755Y-71900552D02*
X116458898Y-71900552D01*
X116458898Y-71900552D02*
X116363660Y-71948171D01*
X116363660Y-71948171D02*
X116316041Y-72043409D01*
X116316041Y-72043409D02*
X116316041Y-72567219D01*
X115411279Y-72567219D02*
X115411279Y-72043409D01*
X115411279Y-72043409D02*
X115458898Y-71948171D01*
X115458898Y-71948171D02*
X115554136Y-71900552D01*
X115554136Y-71900552D02*
X115744612Y-71900552D01*
X115744612Y-71900552D02*
X115839850Y-71948171D01*
X115411279Y-72519600D02*
X115506517Y-72567219D01*
X115506517Y-72567219D02*
X115744612Y-72567219D01*
X115744612Y-72567219D02*
X115839850Y-72519600D01*
X115839850Y-72519600D02*
X115887469Y-72424361D01*
X115887469Y-72424361D02*
X115887469Y-72329123D01*
X115887469Y-72329123D02*
X115839850Y-72233885D01*
X115839850Y-72233885D02*
X115744612Y-72186266D01*
X115744612Y-72186266D02*
X115506517Y-72186266D01*
X115506517Y-72186266D02*
X115411279Y-72138647D01*
X114316040Y-71900552D02*
X113935088Y-71900552D01*
X114173183Y-72567219D02*
X114173183Y-71710076D01*
X114173183Y-71710076D02*
X114125564Y-71614838D01*
X114125564Y-71614838D02*
X114030326Y-71567219D01*
X114030326Y-71567219D02*
X113935088Y-71567219D01*
X113458897Y-72567219D02*
X113554135Y-72519600D01*
X113554135Y-72519600D02*
X113601754Y-72424361D01*
X113601754Y-72424361D02*
X113601754Y-71567219D01*
X112696992Y-72519600D02*
X112792230Y-72567219D01*
X112792230Y-72567219D02*
X112982706Y-72567219D01*
X112982706Y-72567219D02*
X113077944Y-72519600D01*
X113077944Y-72519600D02*
X113125563Y-72424361D01*
X113125563Y-72424361D02*
X113125563Y-72043409D01*
X113125563Y-72043409D02*
X113077944Y-71948171D01*
X113077944Y-71948171D02*
X112982706Y-71900552D01*
X112982706Y-71900552D02*
X112792230Y-71900552D01*
X112792230Y-71900552D02*
X112696992Y-71948171D01*
X112696992Y-71948171D02*
X112649373Y-72043409D01*
X112649373Y-72043409D02*
X112649373Y-72138647D01*
X112649373Y-72138647D02*
X113125563Y-72233885D01*
X112363658Y-71900552D02*
X111982706Y-71900552D01*
X112220801Y-71567219D02*
X112220801Y-72424361D01*
X112220801Y-72424361D02*
X112173182Y-72519600D01*
X112173182Y-72519600D02*
X112077944Y-72567219D01*
X112077944Y-72567219D02*
X111982706Y-72567219D01*
X111696991Y-71567219D02*
X111696991Y-71757695D01*
X111316039Y-71567219D02*
X111316039Y-71757695D01*
X106458894Y-72186266D02*
X106411275Y-72138647D01*
X106411275Y-72138647D02*
X106316037Y-72091028D01*
X106316037Y-72091028D02*
X106125561Y-72186266D01*
X106125561Y-72186266D02*
X106030323Y-72138647D01*
X106030323Y-72138647D02*
X105982704Y-72091028D01*
X105411275Y-71567219D02*
X105220799Y-71567219D01*
X105220799Y-71567219D02*
X105125561Y-71614838D01*
X105125561Y-71614838D02*
X105030323Y-71710076D01*
X105030323Y-71710076D02*
X104982704Y-71900552D01*
X104982704Y-71900552D02*
X104982704Y-72233885D01*
X104982704Y-72233885D02*
X105030323Y-72424361D01*
X105030323Y-72424361D02*
X105125561Y-72519600D01*
X105125561Y-72519600D02*
X105220799Y-72567219D01*
X105220799Y-72567219D02*
X105411275Y-72567219D01*
X105411275Y-72567219D02*
X105506513Y-72519600D01*
X105506513Y-72519600D02*
X105601751Y-72424361D01*
X105601751Y-72424361D02*
X105649370Y-72233885D01*
X105649370Y-72233885D02*
X105649370Y-71900552D01*
X105649370Y-71900552D02*
X105601751Y-71710076D01*
X105601751Y-71710076D02*
X105506513Y-71614838D01*
X105506513Y-71614838D02*
X105411275Y-71567219D01*
X104554132Y-71900552D02*
X104554132Y-72757695D01*
X104554132Y-72757695D02*
X104601751Y-72852933D01*
X104601751Y-72852933D02*
X104696989Y-72900552D01*
X104696989Y-72900552D02*
X104744608Y-72900552D01*
X104554132Y-71567219D02*
X104601751Y-71614838D01*
X104601751Y-71614838D02*
X104554132Y-71662457D01*
X104554132Y-71662457D02*
X104506513Y-71614838D01*
X104506513Y-71614838D02*
X104554132Y-71567219D01*
X104554132Y-71567219D02*
X104554132Y-71662457D01*
X103649371Y-72519600D02*
X103744609Y-72567219D01*
X103744609Y-72567219D02*
X103935085Y-72567219D01*
X103935085Y-72567219D02*
X104030323Y-72519600D01*
X104030323Y-72519600D02*
X104077942Y-72471980D01*
X104077942Y-72471980D02*
X104125561Y-72376742D01*
X104125561Y-72376742D02*
X104125561Y-72091028D01*
X104125561Y-72091028D02*
X104077942Y-71995790D01*
X104077942Y-71995790D02*
X104030323Y-71948171D01*
X104030323Y-71948171D02*
X103935085Y-71900552D01*
X103935085Y-71900552D02*
X103744609Y-71900552D01*
X103744609Y-71900552D02*
X103649371Y-71948171D01*
X103220799Y-72567219D02*
X103220799Y-71900552D01*
X103220799Y-71567219D02*
X103268418Y-71614838D01*
X103268418Y-71614838D02*
X103220799Y-71662457D01*
X103220799Y-71662457D02*
X103173180Y-71614838D01*
X103173180Y-71614838D02*
X103220799Y-71567219D01*
X103220799Y-71567219D02*
X103220799Y-71662457D01*
X102363657Y-72519600D02*
X102458895Y-72567219D01*
X102458895Y-72567219D02*
X102649371Y-72567219D01*
X102649371Y-72567219D02*
X102744609Y-72519600D01*
X102744609Y-72519600D02*
X102792228Y-72424361D01*
X102792228Y-72424361D02*
X102792228Y-72043409D01*
X102792228Y-72043409D02*
X102744609Y-71948171D01*
X102744609Y-71948171D02*
X102649371Y-71900552D01*
X102649371Y-71900552D02*
X102458895Y-71900552D01*
X102458895Y-71900552D02*
X102363657Y-71948171D01*
X102363657Y-71948171D02*
X102316038Y-72043409D01*
X102316038Y-72043409D02*
X102316038Y-72138647D01*
X102316038Y-72138647D02*
X102792228Y-72233885D01*
X101458895Y-72519600D02*
X101554133Y-72567219D01*
X101554133Y-72567219D02*
X101744609Y-72567219D01*
X101744609Y-72567219D02*
X101839847Y-72519600D01*
X101839847Y-72519600D02*
X101887466Y-72471980D01*
X101887466Y-72471980D02*
X101935085Y-72376742D01*
X101935085Y-72376742D02*
X101935085Y-72091028D01*
X101935085Y-72091028D02*
X101887466Y-71995790D01*
X101887466Y-71995790D02*
X101839847Y-71948171D01*
X101839847Y-71948171D02*
X101744609Y-71900552D01*
X101744609Y-71900552D02*
X101554133Y-71900552D01*
X101554133Y-71900552D02*
X101458895Y-71948171D01*
X99935085Y-72043409D02*
X100268418Y-72043409D01*
X100268418Y-72567219D02*
X100268418Y-71567219D01*
X100268418Y-71567219D02*
X99792228Y-71567219D01*
X99411275Y-72567219D02*
X99411275Y-71900552D01*
X99411275Y-72091028D02*
X99363656Y-71995790D01*
X99363656Y-71995790D02*
X99316037Y-71948171D01*
X99316037Y-71948171D02*
X99220799Y-71900552D01*
X99220799Y-71900552D02*
X99125561Y-71900552D01*
X98363656Y-72567219D02*
X98363656Y-72043409D01*
X98363656Y-72043409D02*
X98411275Y-71948171D01*
X98411275Y-71948171D02*
X98506513Y-71900552D01*
X98506513Y-71900552D02*
X98696989Y-71900552D01*
X98696989Y-71900552D02*
X98792227Y-71948171D01*
X98363656Y-72519600D02*
X98458894Y-72567219D01*
X98458894Y-72567219D02*
X98696989Y-72567219D01*
X98696989Y-72567219D02*
X98792227Y-72519600D01*
X98792227Y-72519600D02*
X98839846Y-72424361D01*
X98839846Y-72424361D02*
X98839846Y-72329123D01*
X98839846Y-72329123D02*
X98792227Y-72233885D01*
X98792227Y-72233885D02*
X98696989Y-72186266D01*
X98696989Y-72186266D02*
X98458894Y-72186266D01*
X98458894Y-72186266D02*
X98363656Y-72138647D01*
X97887465Y-71900552D02*
X97887465Y-72567219D01*
X97887465Y-71995790D02*
X97839846Y-71948171D01*
X97839846Y-71948171D02*
X97744608Y-71900552D01*
X97744608Y-71900552D02*
X97601751Y-71900552D01*
X97601751Y-71900552D02*
X97506513Y-71948171D01*
X97506513Y-71948171D02*
X97458894Y-72043409D01*
X97458894Y-72043409D02*
X97458894Y-72567219D01*
X97077941Y-71900552D02*
X96554132Y-71900552D01*
X96554132Y-71900552D02*
X97077941Y-72567219D01*
X97077941Y-72567219D02*
X96554132Y-72567219D01*
X95411274Y-72567219D02*
X95411274Y-71567219D01*
X95411274Y-71567219D02*
X95030322Y-71567219D01*
X95030322Y-71567219D02*
X94935084Y-71614838D01*
X94935084Y-71614838D02*
X94887465Y-71662457D01*
X94887465Y-71662457D02*
X94839846Y-71757695D01*
X94839846Y-71757695D02*
X94839846Y-71900552D01*
X94839846Y-71900552D02*
X94887465Y-71995790D01*
X94887465Y-71995790D02*
X94935084Y-72043409D01*
X94935084Y-72043409D02*
X95030322Y-72091028D01*
X95030322Y-72091028D02*
X95411274Y-72091028D01*
X94411274Y-72567219D02*
X94411274Y-71900552D01*
X94411274Y-71567219D02*
X94458893Y-71614838D01*
X94458893Y-71614838D02*
X94411274Y-71662457D01*
X94411274Y-71662457D02*
X94363655Y-71614838D01*
X94363655Y-71614838D02*
X94411274Y-71567219D01*
X94411274Y-71567219D02*
X94411274Y-71662457D01*
X93935084Y-71900552D02*
X93935084Y-72757695D01*
X93935084Y-72757695D02*
X93982703Y-72852933D01*
X93982703Y-72852933D02*
X94077941Y-72900552D01*
X94077941Y-72900552D02*
X94125560Y-72900552D01*
X93935084Y-71567219D02*
X93982703Y-71614838D01*
X93982703Y-71614838D02*
X93935084Y-71662457D01*
X93935084Y-71662457D02*
X93887465Y-71614838D01*
X93887465Y-71614838D02*
X93935084Y-71567219D01*
X93935084Y-71567219D02*
X93935084Y-71662457D01*
X93316037Y-72567219D02*
X93411275Y-72519600D01*
X93411275Y-72519600D02*
X93458894Y-72471980D01*
X93458894Y-72471980D02*
X93506513Y-72376742D01*
X93506513Y-72376742D02*
X93506513Y-72091028D01*
X93506513Y-72091028D02*
X93458894Y-71995790D01*
X93458894Y-71995790D02*
X93411275Y-71948171D01*
X93411275Y-71948171D02*
X93316037Y-71900552D01*
X93316037Y-71900552D02*
X93173180Y-71900552D01*
X93173180Y-71900552D02*
X93077942Y-71948171D01*
X93077942Y-71948171D02*
X93030323Y-71995790D01*
X93030323Y-71995790D02*
X92982704Y-72091028D01*
X92982704Y-72091028D02*
X92982704Y-72376742D01*
X92982704Y-72376742D02*
X93030323Y-72471980D01*
X93030323Y-72471980D02*
X93077942Y-72519600D01*
X93077942Y-72519600D02*
X93173180Y-72567219D01*
X93173180Y-72567219D02*
X93316037Y-72567219D01*
M02*
