%TF.GenerationSoftware,KiCad,Pcbnew,9.0.1*%
%TF.CreationDate,2025-06-11T23:13:57+02:00*%
%TF.ProjectId,PUTM_EV_CART_INDICATOR,5055544d-5f45-4565-9f43-4152545f494e,rev?*%
%TF.SameCoordinates,Original*%
%TF.FileFunction,Drillmap*%
%TF.FilePolarity,Positive*%
%FSLAX45Y45*%
G04 Gerber Fmt 4.5, Leading zero omitted, Abs format (unit mm)*
G04 Created by KiCad (PCBNEW 9.0.1) date 2025-06-11 23:13:57*
%MOMM*%
%LPD*%
G01*
G04 APERTURE LIST*
%ADD10C,0.050000*%
%ADD11C,0.200000*%
%ADD12C,0.100000*%
%ADD13C,0.130000*%
G04 APERTURE END LIST*
D10*
X8200000Y-6000000D02*
X8200000Y-8300000D01*
X12400000Y-5900000D02*
X8300000Y-5900000D01*
X8200000Y-6000000D02*
G75*
G02*
X8300000Y-5900000I100000J0D01*
G01*
X12500000Y-6000000D02*
X12500000Y-8300000D01*
X12500000Y-8300000D02*
G75*
G02*
X12400000Y-8400000I-100000J0D01*
G01*
X12400000Y-5900000D02*
G75*
G02*
X12500000Y-6000000I0J-100000D01*
G01*
X8300000Y-8400000D02*
G75*
G02*
X8200000Y-8300000I0J100000D01*
G01*
X8300000Y-8400000D02*
X12400000Y-8400000D01*
D11*
D12*
X8935000Y-7835000D02*
X8965000Y-7865000D01*
X8965000Y-7835000D02*
X8935000Y-7865000D01*
X9585000Y-8085000D02*
X9615000Y-8115000D01*
X9615000Y-8085000D02*
X9585000Y-8115000D01*
X10185000Y-7685000D02*
X10215000Y-7715000D01*
X10215000Y-7685000D02*
X10185000Y-7715000D01*
X10235000Y-7085000D02*
X10265000Y-7115000D01*
X10265000Y-7085000D02*
X10235000Y-7115000D01*
X10535000Y-7485000D02*
X10565000Y-7515000D01*
X10565000Y-7485000D02*
X10535000Y-7515000D01*
X11706875Y-7456875D02*
X11736875Y-7486875D01*
X11736875Y-7456875D02*
X11706875Y-7486875D01*
X11885000Y-8235000D02*
X11915000Y-8265000D01*
X11915000Y-8235000D02*
X11885000Y-8265000D01*
X12105000Y-7385000D02*
X12135000Y-7415000D01*
X12135000Y-7385000D02*
X12105000Y-7415000D01*
X12335000Y-8185000D02*
X12365000Y-8215000D01*
X12365000Y-8185000D02*
X12335000Y-8215000D01*
X9973250Y-7370000D02*
G75*
G02*
X9898250Y-7370000I-37500J0D01*
G01*
X9898250Y-7370000D02*
G75*
G02*
X9973250Y-7370000I37500J0D01*
G01*
X9973250Y-7690000D02*
G75*
G02*
X9898250Y-7690000I-37500J0D01*
G01*
X9898250Y-7690000D02*
G75*
G02*
X9973250Y-7690000I37500J0D01*
G01*
X9973250Y-7910000D02*
G75*
G02*
X9898250Y-7910000I-37500J0D01*
G01*
X9898250Y-7910000D02*
G75*
G02*
X9973250Y-7910000I37500J0D01*
G01*
X9973250Y-8130000D02*
G75*
G02*
X9898250Y-8130000I-37500J0D01*
G01*
X9898250Y-8130000D02*
G75*
G02*
X9973250Y-8130000I37500J0D01*
G01*
X10481250Y-7370000D02*
G75*
G02*
X10406250Y-7370000I-37500J0D01*
G01*
X10406250Y-7370000D02*
G75*
G02*
X10481250Y-7370000I37500J0D01*
G01*
X10481250Y-7690000D02*
G75*
G02*
X10406250Y-7690000I-37500J0D01*
G01*
X10406250Y-7690000D02*
G75*
G02*
X10481250Y-7690000I37500J0D01*
G01*
X10481250Y-7910000D02*
G75*
G02*
X10406250Y-7910000I-37500J0D01*
G01*
X10406250Y-7910000D02*
G75*
G02*
X10481250Y-7910000I37500J0D01*
G01*
X10481250Y-8130000D02*
G75*
G02*
X10406250Y-8130000I-37500J0D01*
G01*
X10406250Y-8130000D02*
G75*
G02*
X10481250Y-8130000I37500J0D01*
G01*
X10981250Y-7370000D02*
G75*
G02*
X10906250Y-7370000I-37500J0D01*
G01*
X10906250Y-7370000D02*
G75*
G02*
X10981250Y-7370000I37500J0D01*
G01*
X10981250Y-7590000D02*
G75*
G02*
X10906250Y-7590000I-37500J0D01*
G01*
X10906250Y-7590000D02*
G75*
G02*
X10981250Y-7590000I37500J0D01*
G01*
X10981250Y-7810000D02*
G75*
G02*
X10906250Y-7810000I-37500J0D01*
G01*
X10906250Y-7810000D02*
G75*
G02*
X10981250Y-7810000I37500J0D01*
G01*
X10981250Y-8130000D02*
G75*
G02*
X10906250Y-8130000I-37500J0D01*
G01*
X10906250Y-8130000D02*
G75*
G02*
X10981250Y-8130000I37500J0D01*
G01*
X11489250Y-7370000D02*
G75*
G02*
X11414250Y-7370000I-37500J0D01*
G01*
X11414250Y-7370000D02*
G75*
G02*
X11489250Y-7370000I37500J0D01*
G01*
X11489250Y-7590000D02*
G75*
G02*
X11414250Y-7590000I-37500J0D01*
G01*
X11414250Y-7590000D02*
G75*
G02*
X11489250Y-7590000I37500J0D01*
G01*
X11489250Y-7810000D02*
G75*
G02*
X11414250Y-7810000I-37500J0D01*
G01*
X11414250Y-7810000D02*
G75*
G02*
X11489250Y-7810000I37500J0D01*
G01*
X11489250Y-8130000D02*
G75*
G02*
X11414250Y-8130000I-37500J0D01*
G01*
X11414250Y-8130000D02*
G75*
G02*
X11489250Y-8130000I37500J0D01*
G01*
D13*
X8600000Y-6463000D02*
X8600000Y-6593000D01*
X8535000Y-6528000D02*
X8665000Y-6528000D01*
X9100000Y-6463000D02*
X9100000Y-6593000D01*
X9035000Y-6528000D02*
X9165000Y-6528000D01*
X9600000Y-6463000D02*
X9600000Y-6593000D01*
X9535000Y-6528000D02*
X9665000Y-6528000D01*
X10100000Y-6463000D02*
X10100000Y-6593000D01*
X10035000Y-6528000D02*
X10165000Y-6528000D01*
X10600000Y-6463000D02*
X10600000Y-6593000D01*
X10535000Y-6528000D02*
X10665000Y-6528000D01*
X11100000Y-6463000D02*
X11100000Y-6593000D01*
X11035000Y-6528000D02*
X11165000Y-6528000D01*
X11600000Y-6463000D02*
X11600000Y-6593000D01*
X11535000Y-6528000D02*
X11665000Y-6528000D01*
X12100000Y-6463000D02*
X12100000Y-6593000D01*
X12035000Y-6528000D02*
X12165000Y-6528000D01*
D11*
X8458277Y-8713984D02*
X8458277Y-8513984D01*
X8458277Y-8513984D02*
X8505896Y-8513984D01*
X8505896Y-8513984D02*
X8534467Y-8523508D01*
X8534467Y-8523508D02*
X8553515Y-8542555D01*
X8553515Y-8542555D02*
X8563039Y-8561603D01*
X8563039Y-8561603D02*
X8572563Y-8599698D01*
X8572563Y-8599698D02*
X8572563Y-8628270D01*
X8572563Y-8628270D02*
X8563039Y-8666365D01*
X8563039Y-8666365D02*
X8553515Y-8685412D01*
X8553515Y-8685412D02*
X8534467Y-8704460D01*
X8534467Y-8704460D02*
X8505896Y-8713984D01*
X8505896Y-8713984D02*
X8458277Y-8713984D01*
X8658277Y-8713984D02*
X8658277Y-8580650D01*
X8658277Y-8618746D02*
X8667801Y-8599698D01*
X8667801Y-8599698D02*
X8677324Y-8590174D01*
X8677324Y-8590174D02*
X8696372Y-8580650D01*
X8696372Y-8580650D02*
X8715420Y-8580650D01*
X8782086Y-8713984D02*
X8782086Y-8580650D01*
X8782086Y-8513984D02*
X8772563Y-8523508D01*
X8772563Y-8523508D02*
X8782086Y-8533031D01*
X8782086Y-8533031D02*
X8791610Y-8523508D01*
X8791610Y-8523508D02*
X8782086Y-8513984D01*
X8782086Y-8513984D02*
X8782086Y-8533031D01*
X8905896Y-8713984D02*
X8886848Y-8704460D01*
X8886848Y-8704460D02*
X8877324Y-8685412D01*
X8877324Y-8685412D02*
X8877324Y-8513984D01*
X9010658Y-8713984D02*
X8991610Y-8704460D01*
X8991610Y-8704460D02*
X8982086Y-8685412D01*
X8982086Y-8685412D02*
X8982086Y-8513984D01*
X9239229Y-8713984D02*
X9239229Y-8513984D01*
X9239229Y-8513984D02*
X9305896Y-8656841D01*
X9305896Y-8656841D02*
X9372563Y-8513984D01*
X9372563Y-8513984D02*
X9372563Y-8713984D01*
X9553515Y-8713984D02*
X9553515Y-8609222D01*
X9553515Y-8609222D02*
X9543991Y-8590174D01*
X9543991Y-8590174D02*
X9524944Y-8580650D01*
X9524944Y-8580650D02*
X9486848Y-8580650D01*
X9486848Y-8580650D02*
X9467801Y-8590174D01*
X9553515Y-8704460D02*
X9534467Y-8713984D01*
X9534467Y-8713984D02*
X9486848Y-8713984D01*
X9486848Y-8713984D02*
X9467801Y-8704460D01*
X9467801Y-8704460D02*
X9458277Y-8685412D01*
X9458277Y-8685412D02*
X9458277Y-8666365D01*
X9458277Y-8666365D02*
X9467801Y-8647317D01*
X9467801Y-8647317D02*
X9486848Y-8637793D01*
X9486848Y-8637793D02*
X9534467Y-8637793D01*
X9534467Y-8637793D02*
X9553515Y-8628270D01*
X9648753Y-8580650D02*
X9648753Y-8780650D01*
X9648753Y-8590174D02*
X9667801Y-8580650D01*
X9667801Y-8580650D02*
X9705896Y-8580650D01*
X9705896Y-8580650D02*
X9724944Y-8590174D01*
X9724944Y-8590174D02*
X9734467Y-8599698D01*
X9734467Y-8599698D02*
X9743991Y-8618746D01*
X9743991Y-8618746D02*
X9743991Y-8675889D01*
X9743991Y-8675889D02*
X9734467Y-8694936D01*
X9734467Y-8694936D02*
X9724944Y-8704460D01*
X9724944Y-8704460D02*
X9705896Y-8713984D01*
X9705896Y-8713984D02*
X9667801Y-8713984D01*
X9667801Y-8713984D02*
X9648753Y-8704460D01*
X9829705Y-8694936D02*
X9839229Y-8704460D01*
X9839229Y-8704460D02*
X9829705Y-8713984D01*
X9829705Y-8713984D02*
X9820182Y-8704460D01*
X9820182Y-8704460D02*
X9829705Y-8694936D01*
X9829705Y-8694936D02*
X9829705Y-8713984D01*
X9829705Y-8590174D02*
X9839229Y-8599698D01*
X9839229Y-8599698D02*
X9829705Y-8609222D01*
X9829705Y-8609222D02*
X9820182Y-8599698D01*
X9820182Y-8599698D02*
X9829705Y-8590174D01*
X9829705Y-8590174D02*
X9829705Y-8609222D01*
D12*
X8167500Y-9027500D02*
X8197500Y-9057500D01*
X8197500Y-9027500D02*
X8167500Y-9057500D01*
D11*
X8496372Y-8933984D02*
X8515420Y-8933984D01*
X8515420Y-8933984D02*
X8534467Y-8943508D01*
X8534467Y-8943508D02*
X8543991Y-8953031D01*
X8543991Y-8953031D02*
X8553515Y-8972079D01*
X8553515Y-8972079D02*
X8563039Y-9010174D01*
X8563039Y-9010174D02*
X8563039Y-9057793D01*
X8563039Y-9057793D02*
X8553515Y-9095889D01*
X8553515Y-9095889D02*
X8543991Y-9114936D01*
X8543991Y-9114936D02*
X8534467Y-9124460D01*
X8534467Y-9124460D02*
X8515420Y-9133984D01*
X8515420Y-9133984D02*
X8496372Y-9133984D01*
X8496372Y-9133984D02*
X8477324Y-9124460D01*
X8477324Y-9124460D02*
X8467801Y-9114936D01*
X8467801Y-9114936D02*
X8458277Y-9095889D01*
X8458277Y-9095889D02*
X8448753Y-9057793D01*
X8448753Y-9057793D02*
X8448753Y-9010174D01*
X8448753Y-9010174D02*
X8458277Y-8972079D01*
X8458277Y-8972079D02*
X8467801Y-8953031D01*
X8467801Y-8953031D02*
X8477324Y-8943508D01*
X8477324Y-8943508D02*
X8496372Y-8933984D01*
X8648753Y-9114936D02*
X8658277Y-9124460D01*
X8658277Y-9124460D02*
X8648753Y-9133984D01*
X8648753Y-9133984D02*
X8639229Y-9124460D01*
X8639229Y-9124460D02*
X8648753Y-9114936D01*
X8648753Y-9114936D02*
X8648753Y-9133984D01*
X8724944Y-8933984D02*
X8848753Y-8933984D01*
X8848753Y-8933984D02*
X8782086Y-9010174D01*
X8782086Y-9010174D02*
X8810658Y-9010174D01*
X8810658Y-9010174D02*
X8829705Y-9019698D01*
X8829705Y-9019698D02*
X8839229Y-9029222D01*
X8839229Y-9029222D02*
X8848753Y-9048270D01*
X8848753Y-9048270D02*
X8848753Y-9095889D01*
X8848753Y-9095889D02*
X8839229Y-9114936D01*
X8839229Y-9114936D02*
X8829705Y-9124460D01*
X8829705Y-9124460D02*
X8810658Y-9133984D01*
X8810658Y-9133984D02*
X8753515Y-9133984D01*
X8753515Y-9133984D02*
X8734467Y-9124460D01*
X8734467Y-9124460D02*
X8724944Y-9114936D01*
X8972563Y-8933984D02*
X8991610Y-8933984D01*
X8991610Y-8933984D02*
X9010658Y-8943508D01*
X9010658Y-8943508D02*
X9020182Y-8953031D01*
X9020182Y-8953031D02*
X9029705Y-8972079D01*
X9029705Y-8972079D02*
X9039229Y-9010174D01*
X9039229Y-9010174D02*
X9039229Y-9057793D01*
X9039229Y-9057793D02*
X9029705Y-9095889D01*
X9029705Y-9095889D02*
X9020182Y-9114936D01*
X9020182Y-9114936D02*
X9010658Y-9124460D01*
X9010658Y-9124460D02*
X8991610Y-9133984D01*
X8991610Y-9133984D02*
X8972563Y-9133984D01*
X8972563Y-9133984D02*
X8953515Y-9124460D01*
X8953515Y-9124460D02*
X8943991Y-9114936D01*
X8943991Y-9114936D02*
X8934467Y-9095889D01*
X8934467Y-9095889D02*
X8924944Y-9057793D01*
X8924944Y-9057793D02*
X8924944Y-9010174D01*
X8924944Y-9010174D02*
X8934467Y-8972079D01*
X8934467Y-8972079D02*
X8943991Y-8953031D01*
X8943991Y-8953031D02*
X8953515Y-8943508D01*
X8953515Y-8943508D02*
X8972563Y-8933984D01*
X9163039Y-8933984D02*
X9182086Y-8933984D01*
X9182086Y-8933984D02*
X9201134Y-8943508D01*
X9201134Y-8943508D02*
X9210658Y-8953031D01*
X9210658Y-8953031D02*
X9220182Y-8972079D01*
X9220182Y-8972079D02*
X9229705Y-9010174D01*
X9229705Y-9010174D02*
X9229705Y-9057793D01*
X9229705Y-9057793D02*
X9220182Y-9095889D01*
X9220182Y-9095889D02*
X9210658Y-9114936D01*
X9210658Y-9114936D02*
X9201134Y-9124460D01*
X9201134Y-9124460D02*
X9182086Y-9133984D01*
X9182086Y-9133984D02*
X9163039Y-9133984D01*
X9163039Y-9133984D02*
X9143991Y-9124460D01*
X9143991Y-9124460D02*
X9134467Y-9114936D01*
X9134467Y-9114936D02*
X9124944Y-9095889D01*
X9124944Y-9095889D02*
X9115420Y-9057793D01*
X9115420Y-9057793D02*
X9115420Y-9010174D01*
X9115420Y-9010174D02*
X9124944Y-8972079D01*
X9124944Y-8972079D02*
X9134467Y-8953031D01*
X9134467Y-8953031D02*
X9143991Y-8943508D01*
X9143991Y-8943508D02*
X9163039Y-8933984D01*
X9315420Y-9133984D02*
X9315420Y-9000650D01*
X9315420Y-9019698D02*
X9324944Y-9010174D01*
X9324944Y-9010174D02*
X9343991Y-9000650D01*
X9343991Y-9000650D02*
X9372563Y-9000650D01*
X9372563Y-9000650D02*
X9391610Y-9010174D01*
X9391610Y-9010174D02*
X9401134Y-9029222D01*
X9401134Y-9029222D02*
X9401134Y-9133984D01*
X9401134Y-9029222D02*
X9410658Y-9010174D01*
X9410658Y-9010174D02*
X9429705Y-9000650D01*
X9429705Y-9000650D02*
X9458277Y-9000650D01*
X9458277Y-9000650D02*
X9477325Y-9010174D01*
X9477325Y-9010174D02*
X9486848Y-9029222D01*
X9486848Y-9029222D02*
X9486848Y-9133984D01*
X9582086Y-9133984D02*
X9582086Y-9000650D01*
X9582086Y-9019698D02*
X9591610Y-9010174D01*
X9591610Y-9010174D02*
X9610658Y-9000650D01*
X9610658Y-9000650D02*
X9639229Y-9000650D01*
X9639229Y-9000650D02*
X9658277Y-9010174D01*
X9658277Y-9010174D02*
X9667801Y-9029222D01*
X9667801Y-9029222D02*
X9667801Y-9133984D01*
X9667801Y-9029222D02*
X9677325Y-9010174D01*
X9677325Y-9010174D02*
X9696372Y-9000650D01*
X9696372Y-9000650D02*
X9724944Y-9000650D01*
X9724944Y-9000650D02*
X9743991Y-9010174D01*
X9743991Y-9010174D02*
X9753515Y-9029222D01*
X9753515Y-9029222D02*
X9753515Y-9133984D01*
X10143991Y-8924460D02*
X9972563Y-9181603D01*
X10401134Y-8933984D02*
X10420182Y-8933984D01*
X10420182Y-8933984D02*
X10439229Y-8943508D01*
X10439229Y-8943508D02*
X10448753Y-8953031D01*
X10448753Y-8953031D02*
X10458277Y-8972079D01*
X10458277Y-8972079D02*
X10467801Y-9010174D01*
X10467801Y-9010174D02*
X10467801Y-9057793D01*
X10467801Y-9057793D02*
X10458277Y-9095889D01*
X10458277Y-9095889D02*
X10448753Y-9114936D01*
X10448753Y-9114936D02*
X10439229Y-9124460D01*
X10439229Y-9124460D02*
X10420182Y-9133984D01*
X10420182Y-9133984D02*
X10401134Y-9133984D01*
X10401134Y-9133984D02*
X10382087Y-9124460D01*
X10382087Y-9124460D02*
X10372563Y-9114936D01*
X10372563Y-9114936D02*
X10363039Y-9095889D01*
X10363039Y-9095889D02*
X10353515Y-9057793D01*
X10353515Y-9057793D02*
X10353515Y-9010174D01*
X10353515Y-9010174D02*
X10363039Y-8972079D01*
X10363039Y-8972079D02*
X10372563Y-8953031D01*
X10372563Y-8953031D02*
X10382087Y-8943508D01*
X10382087Y-8943508D02*
X10401134Y-8933984D01*
X10553515Y-9114936D02*
X10563039Y-9124460D01*
X10563039Y-9124460D02*
X10553515Y-9133984D01*
X10553515Y-9133984D02*
X10543991Y-9124460D01*
X10543991Y-9124460D02*
X10553515Y-9114936D01*
X10553515Y-9114936D02*
X10553515Y-9133984D01*
X10686848Y-8933984D02*
X10705896Y-8933984D01*
X10705896Y-8933984D02*
X10724944Y-8943508D01*
X10724944Y-8943508D02*
X10734468Y-8953031D01*
X10734468Y-8953031D02*
X10743991Y-8972079D01*
X10743991Y-8972079D02*
X10753515Y-9010174D01*
X10753515Y-9010174D02*
X10753515Y-9057793D01*
X10753515Y-9057793D02*
X10743991Y-9095889D01*
X10743991Y-9095889D02*
X10734468Y-9114936D01*
X10734468Y-9114936D02*
X10724944Y-9124460D01*
X10724944Y-9124460D02*
X10705896Y-9133984D01*
X10705896Y-9133984D02*
X10686848Y-9133984D01*
X10686848Y-9133984D02*
X10667801Y-9124460D01*
X10667801Y-9124460D02*
X10658277Y-9114936D01*
X10658277Y-9114936D02*
X10648753Y-9095889D01*
X10648753Y-9095889D02*
X10639229Y-9057793D01*
X10639229Y-9057793D02*
X10639229Y-9010174D01*
X10639229Y-9010174D02*
X10648753Y-8972079D01*
X10648753Y-8972079D02*
X10658277Y-8953031D01*
X10658277Y-8953031D02*
X10667801Y-8943508D01*
X10667801Y-8943508D02*
X10686848Y-8933984D01*
X10943991Y-9133984D02*
X10829706Y-9133984D01*
X10886848Y-9133984D02*
X10886848Y-8933984D01*
X10886848Y-8933984D02*
X10867801Y-8962555D01*
X10867801Y-8962555D02*
X10848753Y-8981603D01*
X10848753Y-8981603D02*
X10829706Y-8991127D01*
X11134468Y-9133984D02*
X11020182Y-9133984D01*
X11077325Y-9133984D02*
X11077325Y-8933984D01*
X11077325Y-8933984D02*
X11058277Y-8962555D01*
X11058277Y-8962555D02*
X11039229Y-8981603D01*
X11039229Y-8981603D02*
X11020182Y-8991127D01*
X11248753Y-9019698D02*
X11229706Y-9010174D01*
X11229706Y-9010174D02*
X11220182Y-9000650D01*
X11220182Y-9000650D02*
X11210658Y-8981603D01*
X11210658Y-8981603D02*
X11210658Y-8972079D01*
X11210658Y-8972079D02*
X11220182Y-8953031D01*
X11220182Y-8953031D02*
X11229706Y-8943508D01*
X11229706Y-8943508D02*
X11248753Y-8933984D01*
X11248753Y-8933984D02*
X11286848Y-8933984D01*
X11286848Y-8933984D02*
X11305896Y-8943508D01*
X11305896Y-8943508D02*
X11315420Y-8953031D01*
X11315420Y-8953031D02*
X11324944Y-8972079D01*
X11324944Y-8972079D02*
X11324944Y-8981603D01*
X11324944Y-8981603D02*
X11315420Y-9000650D01*
X11315420Y-9000650D02*
X11305896Y-9010174D01*
X11305896Y-9010174D02*
X11286848Y-9019698D01*
X11286848Y-9019698D02*
X11248753Y-9019698D01*
X11248753Y-9019698D02*
X11229706Y-9029222D01*
X11229706Y-9029222D02*
X11220182Y-9038746D01*
X11220182Y-9038746D02*
X11210658Y-9057793D01*
X11210658Y-9057793D02*
X11210658Y-9095889D01*
X11210658Y-9095889D02*
X11220182Y-9114936D01*
X11220182Y-9114936D02*
X11229706Y-9124460D01*
X11229706Y-9124460D02*
X11248753Y-9133984D01*
X11248753Y-9133984D02*
X11286848Y-9133984D01*
X11286848Y-9133984D02*
X11305896Y-9124460D01*
X11305896Y-9124460D02*
X11315420Y-9114936D01*
X11315420Y-9114936D02*
X11324944Y-9095889D01*
X11324944Y-9095889D02*
X11324944Y-9057793D01*
X11324944Y-9057793D02*
X11315420Y-9038746D01*
X11315420Y-9038746D02*
X11305896Y-9029222D01*
X11305896Y-9029222D02*
X11286848Y-9019698D01*
X11401134Y-8933984D02*
X11401134Y-8972079D01*
X11477325Y-8933984D02*
X11477325Y-8972079D01*
X11772563Y-9210174D02*
X11763039Y-9200650D01*
X11763039Y-9200650D02*
X11743991Y-9172079D01*
X11743991Y-9172079D02*
X11734468Y-9153031D01*
X11734468Y-9153031D02*
X11724944Y-9124460D01*
X11724944Y-9124460D02*
X11715420Y-9076841D01*
X11715420Y-9076841D02*
X11715420Y-9038746D01*
X11715420Y-9038746D02*
X11724944Y-8991127D01*
X11724944Y-8991127D02*
X11734468Y-8962555D01*
X11734468Y-8962555D02*
X11743991Y-8943508D01*
X11743991Y-8943508D02*
X11763039Y-8914936D01*
X11763039Y-8914936D02*
X11772563Y-8905412D01*
X11858277Y-9133984D02*
X11896372Y-9133984D01*
X11896372Y-9133984D02*
X11915420Y-9124460D01*
X11915420Y-9124460D02*
X11924944Y-9114936D01*
X11924944Y-9114936D02*
X11943991Y-9086365D01*
X11943991Y-9086365D02*
X11953515Y-9048270D01*
X11953515Y-9048270D02*
X11953515Y-8972079D01*
X11953515Y-8972079D02*
X11943991Y-8953031D01*
X11943991Y-8953031D02*
X11934468Y-8943508D01*
X11934468Y-8943508D02*
X11915420Y-8933984D01*
X11915420Y-8933984D02*
X11877325Y-8933984D01*
X11877325Y-8933984D02*
X11858277Y-8943508D01*
X11858277Y-8943508D02*
X11848753Y-8953031D01*
X11848753Y-8953031D02*
X11839229Y-8972079D01*
X11839229Y-8972079D02*
X11839229Y-9019698D01*
X11839229Y-9019698D02*
X11848753Y-9038746D01*
X11848753Y-9038746D02*
X11858277Y-9048270D01*
X11858277Y-9048270D02*
X11877325Y-9057793D01*
X11877325Y-9057793D02*
X11915420Y-9057793D01*
X11915420Y-9057793D02*
X11934468Y-9048270D01*
X11934468Y-9048270D02*
X11943991Y-9038746D01*
X11943991Y-9038746D02*
X11953515Y-9019698D01*
X12191610Y-9133984D02*
X12191610Y-8933984D01*
X12277325Y-9133984D02*
X12277325Y-9029222D01*
X12277325Y-9029222D02*
X12267801Y-9010174D01*
X12267801Y-9010174D02*
X12248753Y-9000650D01*
X12248753Y-9000650D02*
X12220182Y-9000650D01*
X12220182Y-9000650D02*
X12201134Y-9010174D01*
X12201134Y-9010174D02*
X12191610Y-9019698D01*
X12401134Y-9133984D02*
X12382087Y-9124460D01*
X12382087Y-9124460D02*
X12372563Y-9114936D01*
X12372563Y-9114936D02*
X12363039Y-9095889D01*
X12363039Y-9095889D02*
X12363039Y-9038746D01*
X12363039Y-9038746D02*
X12372563Y-9019698D01*
X12372563Y-9019698D02*
X12382087Y-9010174D01*
X12382087Y-9010174D02*
X12401134Y-9000650D01*
X12401134Y-9000650D02*
X12429706Y-9000650D01*
X12429706Y-9000650D02*
X12448753Y-9010174D01*
X12448753Y-9010174D02*
X12458277Y-9019698D01*
X12458277Y-9019698D02*
X12467801Y-9038746D01*
X12467801Y-9038746D02*
X12467801Y-9095889D01*
X12467801Y-9095889D02*
X12458277Y-9114936D01*
X12458277Y-9114936D02*
X12448753Y-9124460D01*
X12448753Y-9124460D02*
X12429706Y-9133984D01*
X12429706Y-9133984D02*
X12401134Y-9133984D01*
X12582087Y-9133984D02*
X12563039Y-9124460D01*
X12563039Y-9124460D02*
X12553515Y-9105412D01*
X12553515Y-9105412D02*
X12553515Y-8933984D01*
X12734468Y-9124460D02*
X12715420Y-9133984D01*
X12715420Y-9133984D02*
X12677325Y-9133984D01*
X12677325Y-9133984D02*
X12658277Y-9124460D01*
X12658277Y-9124460D02*
X12648753Y-9105412D01*
X12648753Y-9105412D02*
X12648753Y-9029222D01*
X12648753Y-9029222D02*
X12658277Y-9010174D01*
X12658277Y-9010174D02*
X12677325Y-9000650D01*
X12677325Y-9000650D02*
X12715420Y-9000650D01*
X12715420Y-9000650D02*
X12734468Y-9010174D01*
X12734468Y-9010174D02*
X12743991Y-9029222D01*
X12743991Y-9029222D02*
X12743991Y-9048270D01*
X12743991Y-9048270D02*
X12648753Y-9067317D01*
X12820182Y-9124460D02*
X12839230Y-9133984D01*
X12839230Y-9133984D02*
X12877325Y-9133984D01*
X12877325Y-9133984D02*
X12896372Y-9124460D01*
X12896372Y-9124460D02*
X12905896Y-9105412D01*
X12905896Y-9105412D02*
X12905896Y-9095889D01*
X12905896Y-9095889D02*
X12896372Y-9076841D01*
X12896372Y-9076841D02*
X12877325Y-9067317D01*
X12877325Y-9067317D02*
X12848753Y-9067317D01*
X12848753Y-9067317D02*
X12829706Y-9057793D01*
X12829706Y-9057793D02*
X12820182Y-9038746D01*
X12820182Y-9038746D02*
X12820182Y-9029222D01*
X12820182Y-9029222D02*
X12829706Y-9010174D01*
X12829706Y-9010174D02*
X12848753Y-9000650D01*
X12848753Y-9000650D02*
X12877325Y-9000650D01*
X12877325Y-9000650D02*
X12896372Y-9010174D01*
X12972563Y-9210174D02*
X12982087Y-9200650D01*
X12982087Y-9200650D02*
X13001134Y-9172079D01*
X13001134Y-9172079D02*
X13010658Y-9153031D01*
X13010658Y-9153031D02*
X13020182Y-9124460D01*
X13020182Y-9124460D02*
X13029706Y-9076841D01*
X13029706Y-9076841D02*
X13029706Y-9038746D01*
X13029706Y-9038746D02*
X13020182Y-8991127D01*
X13020182Y-8991127D02*
X13010658Y-8962555D01*
X13010658Y-8962555D02*
X13001134Y-8943508D01*
X13001134Y-8943508D02*
X12982087Y-8914936D01*
X12982087Y-8914936D02*
X12972563Y-8905412D01*
D12*
X8197500Y-9306500D02*
G75*
G02*
X8122500Y-9306500I-37500J0D01*
G01*
X8122500Y-9306500D02*
G75*
G02*
X8197500Y-9306500I37500J0D01*
G01*
D11*
X8496372Y-9197984D02*
X8515420Y-9197984D01*
X8515420Y-9197984D02*
X8534467Y-9207508D01*
X8534467Y-9207508D02*
X8543991Y-9217031D01*
X8543991Y-9217031D02*
X8553515Y-9236079D01*
X8553515Y-9236079D02*
X8563039Y-9274174D01*
X8563039Y-9274174D02*
X8563039Y-9321793D01*
X8563039Y-9321793D02*
X8553515Y-9359889D01*
X8553515Y-9359889D02*
X8543991Y-9378936D01*
X8543991Y-9378936D02*
X8534467Y-9388460D01*
X8534467Y-9388460D02*
X8515420Y-9397984D01*
X8515420Y-9397984D02*
X8496372Y-9397984D01*
X8496372Y-9397984D02*
X8477324Y-9388460D01*
X8477324Y-9388460D02*
X8467801Y-9378936D01*
X8467801Y-9378936D02*
X8458277Y-9359889D01*
X8458277Y-9359889D02*
X8448753Y-9321793D01*
X8448753Y-9321793D02*
X8448753Y-9274174D01*
X8448753Y-9274174D02*
X8458277Y-9236079D01*
X8458277Y-9236079D02*
X8467801Y-9217031D01*
X8467801Y-9217031D02*
X8477324Y-9207508D01*
X8477324Y-9207508D02*
X8496372Y-9197984D01*
X8648753Y-9378936D02*
X8658277Y-9388460D01*
X8658277Y-9388460D02*
X8648753Y-9397984D01*
X8648753Y-9397984D02*
X8639229Y-9388460D01*
X8639229Y-9388460D02*
X8648753Y-9378936D01*
X8648753Y-9378936D02*
X8648753Y-9397984D01*
X8724944Y-9197984D02*
X8858277Y-9197984D01*
X8858277Y-9197984D02*
X8772563Y-9397984D01*
X9029705Y-9197984D02*
X8934467Y-9197984D01*
X8934467Y-9197984D02*
X8924944Y-9293222D01*
X8924944Y-9293222D02*
X8934467Y-9283698D01*
X8934467Y-9283698D02*
X8953515Y-9274174D01*
X8953515Y-9274174D02*
X9001134Y-9274174D01*
X9001134Y-9274174D02*
X9020182Y-9283698D01*
X9020182Y-9283698D02*
X9029705Y-9293222D01*
X9029705Y-9293222D02*
X9039229Y-9312270D01*
X9039229Y-9312270D02*
X9039229Y-9359889D01*
X9039229Y-9359889D02*
X9029705Y-9378936D01*
X9029705Y-9378936D02*
X9020182Y-9388460D01*
X9020182Y-9388460D02*
X9001134Y-9397984D01*
X9001134Y-9397984D02*
X8953515Y-9397984D01*
X8953515Y-9397984D02*
X8934467Y-9388460D01*
X8934467Y-9388460D02*
X8924944Y-9378936D01*
X9163039Y-9197984D02*
X9182086Y-9197984D01*
X9182086Y-9197984D02*
X9201134Y-9207508D01*
X9201134Y-9207508D02*
X9210658Y-9217031D01*
X9210658Y-9217031D02*
X9220182Y-9236079D01*
X9220182Y-9236079D02*
X9229705Y-9274174D01*
X9229705Y-9274174D02*
X9229705Y-9321793D01*
X9229705Y-9321793D02*
X9220182Y-9359889D01*
X9220182Y-9359889D02*
X9210658Y-9378936D01*
X9210658Y-9378936D02*
X9201134Y-9388460D01*
X9201134Y-9388460D02*
X9182086Y-9397984D01*
X9182086Y-9397984D02*
X9163039Y-9397984D01*
X9163039Y-9397984D02*
X9143991Y-9388460D01*
X9143991Y-9388460D02*
X9134467Y-9378936D01*
X9134467Y-9378936D02*
X9124944Y-9359889D01*
X9124944Y-9359889D02*
X9115420Y-9321793D01*
X9115420Y-9321793D02*
X9115420Y-9274174D01*
X9115420Y-9274174D02*
X9124944Y-9236079D01*
X9124944Y-9236079D02*
X9134467Y-9217031D01*
X9134467Y-9217031D02*
X9143991Y-9207508D01*
X9143991Y-9207508D02*
X9163039Y-9197984D01*
X9315420Y-9397984D02*
X9315420Y-9264650D01*
X9315420Y-9283698D02*
X9324944Y-9274174D01*
X9324944Y-9274174D02*
X9343991Y-9264650D01*
X9343991Y-9264650D02*
X9372563Y-9264650D01*
X9372563Y-9264650D02*
X9391610Y-9274174D01*
X9391610Y-9274174D02*
X9401134Y-9293222D01*
X9401134Y-9293222D02*
X9401134Y-9397984D01*
X9401134Y-9293222D02*
X9410658Y-9274174D01*
X9410658Y-9274174D02*
X9429705Y-9264650D01*
X9429705Y-9264650D02*
X9458277Y-9264650D01*
X9458277Y-9264650D02*
X9477325Y-9274174D01*
X9477325Y-9274174D02*
X9486848Y-9293222D01*
X9486848Y-9293222D02*
X9486848Y-9397984D01*
X9582086Y-9397984D02*
X9582086Y-9264650D01*
X9582086Y-9283698D02*
X9591610Y-9274174D01*
X9591610Y-9274174D02*
X9610658Y-9264650D01*
X9610658Y-9264650D02*
X9639229Y-9264650D01*
X9639229Y-9264650D02*
X9658277Y-9274174D01*
X9658277Y-9274174D02*
X9667801Y-9293222D01*
X9667801Y-9293222D02*
X9667801Y-9397984D01*
X9667801Y-9293222D02*
X9677325Y-9274174D01*
X9677325Y-9274174D02*
X9696372Y-9264650D01*
X9696372Y-9264650D02*
X9724944Y-9264650D01*
X9724944Y-9264650D02*
X9743991Y-9274174D01*
X9743991Y-9274174D02*
X9753515Y-9293222D01*
X9753515Y-9293222D02*
X9753515Y-9397984D01*
X10143991Y-9188460D02*
X9972563Y-9445603D01*
X10401134Y-9197984D02*
X10420182Y-9197984D01*
X10420182Y-9197984D02*
X10439229Y-9207508D01*
X10439229Y-9207508D02*
X10448753Y-9217031D01*
X10448753Y-9217031D02*
X10458277Y-9236079D01*
X10458277Y-9236079D02*
X10467801Y-9274174D01*
X10467801Y-9274174D02*
X10467801Y-9321793D01*
X10467801Y-9321793D02*
X10458277Y-9359889D01*
X10458277Y-9359889D02*
X10448753Y-9378936D01*
X10448753Y-9378936D02*
X10439229Y-9388460D01*
X10439229Y-9388460D02*
X10420182Y-9397984D01*
X10420182Y-9397984D02*
X10401134Y-9397984D01*
X10401134Y-9397984D02*
X10382087Y-9388460D01*
X10382087Y-9388460D02*
X10372563Y-9378936D01*
X10372563Y-9378936D02*
X10363039Y-9359889D01*
X10363039Y-9359889D02*
X10353515Y-9321793D01*
X10353515Y-9321793D02*
X10353515Y-9274174D01*
X10353515Y-9274174D02*
X10363039Y-9236079D01*
X10363039Y-9236079D02*
X10372563Y-9217031D01*
X10372563Y-9217031D02*
X10382087Y-9207508D01*
X10382087Y-9207508D02*
X10401134Y-9197984D01*
X10553515Y-9378936D02*
X10563039Y-9388460D01*
X10563039Y-9388460D02*
X10553515Y-9397984D01*
X10553515Y-9397984D02*
X10543991Y-9388460D01*
X10543991Y-9388460D02*
X10553515Y-9378936D01*
X10553515Y-9378936D02*
X10553515Y-9397984D01*
X10686848Y-9197984D02*
X10705896Y-9197984D01*
X10705896Y-9197984D02*
X10724944Y-9207508D01*
X10724944Y-9207508D02*
X10734468Y-9217031D01*
X10734468Y-9217031D02*
X10743991Y-9236079D01*
X10743991Y-9236079D02*
X10753515Y-9274174D01*
X10753515Y-9274174D02*
X10753515Y-9321793D01*
X10753515Y-9321793D02*
X10743991Y-9359889D01*
X10743991Y-9359889D02*
X10734468Y-9378936D01*
X10734468Y-9378936D02*
X10724944Y-9388460D01*
X10724944Y-9388460D02*
X10705896Y-9397984D01*
X10705896Y-9397984D02*
X10686848Y-9397984D01*
X10686848Y-9397984D02*
X10667801Y-9388460D01*
X10667801Y-9388460D02*
X10658277Y-9378936D01*
X10658277Y-9378936D02*
X10648753Y-9359889D01*
X10648753Y-9359889D02*
X10639229Y-9321793D01*
X10639229Y-9321793D02*
X10639229Y-9274174D01*
X10639229Y-9274174D02*
X10648753Y-9236079D01*
X10648753Y-9236079D02*
X10658277Y-9217031D01*
X10658277Y-9217031D02*
X10667801Y-9207508D01*
X10667801Y-9207508D02*
X10686848Y-9197984D01*
X10829706Y-9217031D02*
X10839229Y-9207508D01*
X10839229Y-9207508D02*
X10858277Y-9197984D01*
X10858277Y-9197984D02*
X10905896Y-9197984D01*
X10905896Y-9197984D02*
X10924944Y-9207508D01*
X10924944Y-9207508D02*
X10934468Y-9217031D01*
X10934468Y-9217031D02*
X10943991Y-9236079D01*
X10943991Y-9236079D02*
X10943991Y-9255127D01*
X10943991Y-9255127D02*
X10934468Y-9283698D01*
X10934468Y-9283698D02*
X10820182Y-9397984D01*
X10820182Y-9397984D02*
X10943991Y-9397984D01*
X11039229Y-9397984D02*
X11077325Y-9397984D01*
X11077325Y-9397984D02*
X11096372Y-9388460D01*
X11096372Y-9388460D02*
X11105896Y-9378936D01*
X11105896Y-9378936D02*
X11124944Y-9350365D01*
X11124944Y-9350365D02*
X11134468Y-9312270D01*
X11134468Y-9312270D02*
X11134468Y-9236079D01*
X11134468Y-9236079D02*
X11124944Y-9217031D01*
X11124944Y-9217031D02*
X11115420Y-9207508D01*
X11115420Y-9207508D02*
X11096372Y-9197984D01*
X11096372Y-9197984D02*
X11058277Y-9197984D01*
X11058277Y-9197984D02*
X11039229Y-9207508D01*
X11039229Y-9207508D02*
X11029706Y-9217031D01*
X11029706Y-9217031D02*
X11020182Y-9236079D01*
X11020182Y-9236079D02*
X11020182Y-9283698D01*
X11020182Y-9283698D02*
X11029706Y-9302746D01*
X11029706Y-9302746D02*
X11039229Y-9312270D01*
X11039229Y-9312270D02*
X11058277Y-9321793D01*
X11058277Y-9321793D02*
X11096372Y-9321793D01*
X11096372Y-9321793D02*
X11115420Y-9312270D01*
X11115420Y-9312270D02*
X11124944Y-9302746D01*
X11124944Y-9302746D02*
X11134468Y-9283698D01*
X11315420Y-9197984D02*
X11220182Y-9197984D01*
X11220182Y-9197984D02*
X11210658Y-9293222D01*
X11210658Y-9293222D02*
X11220182Y-9283698D01*
X11220182Y-9283698D02*
X11239229Y-9274174D01*
X11239229Y-9274174D02*
X11286848Y-9274174D01*
X11286848Y-9274174D02*
X11305896Y-9283698D01*
X11305896Y-9283698D02*
X11315420Y-9293222D01*
X11315420Y-9293222D02*
X11324944Y-9312270D01*
X11324944Y-9312270D02*
X11324944Y-9359889D01*
X11324944Y-9359889D02*
X11315420Y-9378936D01*
X11315420Y-9378936D02*
X11305896Y-9388460D01*
X11305896Y-9388460D02*
X11286848Y-9397984D01*
X11286848Y-9397984D02*
X11239229Y-9397984D01*
X11239229Y-9397984D02*
X11220182Y-9388460D01*
X11220182Y-9388460D02*
X11210658Y-9378936D01*
X11401134Y-9197984D02*
X11401134Y-9236079D01*
X11477325Y-9197984D02*
X11477325Y-9236079D01*
X11772563Y-9474174D02*
X11763039Y-9464650D01*
X11763039Y-9464650D02*
X11743991Y-9436079D01*
X11743991Y-9436079D02*
X11734468Y-9417031D01*
X11734468Y-9417031D02*
X11724944Y-9388460D01*
X11724944Y-9388460D02*
X11715420Y-9340841D01*
X11715420Y-9340841D02*
X11715420Y-9302746D01*
X11715420Y-9302746D02*
X11724944Y-9255127D01*
X11724944Y-9255127D02*
X11734468Y-9226555D01*
X11734468Y-9226555D02*
X11743991Y-9207508D01*
X11743991Y-9207508D02*
X11763039Y-9178936D01*
X11763039Y-9178936D02*
X11772563Y-9169412D01*
X11953515Y-9397984D02*
X11839229Y-9397984D01*
X11896372Y-9397984D02*
X11896372Y-9197984D01*
X11896372Y-9197984D02*
X11877325Y-9226555D01*
X11877325Y-9226555D02*
X11858277Y-9245603D01*
X11858277Y-9245603D02*
X11839229Y-9255127D01*
X12124944Y-9197984D02*
X12086848Y-9197984D01*
X12086848Y-9197984D02*
X12067801Y-9207508D01*
X12067801Y-9207508D02*
X12058277Y-9217031D01*
X12058277Y-9217031D02*
X12039229Y-9245603D01*
X12039229Y-9245603D02*
X12029706Y-9283698D01*
X12029706Y-9283698D02*
X12029706Y-9359889D01*
X12029706Y-9359889D02*
X12039229Y-9378936D01*
X12039229Y-9378936D02*
X12048753Y-9388460D01*
X12048753Y-9388460D02*
X12067801Y-9397984D01*
X12067801Y-9397984D02*
X12105896Y-9397984D01*
X12105896Y-9397984D02*
X12124944Y-9388460D01*
X12124944Y-9388460D02*
X12134468Y-9378936D01*
X12134468Y-9378936D02*
X12143991Y-9359889D01*
X12143991Y-9359889D02*
X12143991Y-9312270D01*
X12143991Y-9312270D02*
X12134468Y-9293222D01*
X12134468Y-9293222D02*
X12124944Y-9283698D01*
X12124944Y-9283698D02*
X12105896Y-9274174D01*
X12105896Y-9274174D02*
X12067801Y-9274174D01*
X12067801Y-9274174D02*
X12048753Y-9283698D01*
X12048753Y-9283698D02*
X12039229Y-9293222D01*
X12039229Y-9293222D02*
X12029706Y-9312270D01*
X12382087Y-9397984D02*
X12382087Y-9197984D01*
X12467801Y-9397984D02*
X12467801Y-9293222D01*
X12467801Y-9293222D02*
X12458277Y-9274174D01*
X12458277Y-9274174D02*
X12439230Y-9264650D01*
X12439230Y-9264650D02*
X12410658Y-9264650D01*
X12410658Y-9264650D02*
X12391610Y-9274174D01*
X12391610Y-9274174D02*
X12382087Y-9283698D01*
X12591610Y-9397984D02*
X12572563Y-9388460D01*
X12572563Y-9388460D02*
X12563039Y-9378936D01*
X12563039Y-9378936D02*
X12553515Y-9359889D01*
X12553515Y-9359889D02*
X12553515Y-9302746D01*
X12553515Y-9302746D02*
X12563039Y-9283698D01*
X12563039Y-9283698D02*
X12572563Y-9274174D01*
X12572563Y-9274174D02*
X12591610Y-9264650D01*
X12591610Y-9264650D02*
X12620182Y-9264650D01*
X12620182Y-9264650D02*
X12639230Y-9274174D01*
X12639230Y-9274174D02*
X12648753Y-9283698D01*
X12648753Y-9283698D02*
X12658277Y-9302746D01*
X12658277Y-9302746D02*
X12658277Y-9359889D01*
X12658277Y-9359889D02*
X12648753Y-9378936D01*
X12648753Y-9378936D02*
X12639230Y-9388460D01*
X12639230Y-9388460D02*
X12620182Y-9397984D01*
X12620182Y-9397984D02*
X12591610Y-9397984D01*
X12772563Y-9397984D02*
X12753515Y-9388460D01*
X12753515Y-9388460D02*
X12743991Y-9369412D01*
X12743991Y-9369412D02*
X12743991Y-9197984D01*
X12924944Y-9388460D02*
X12905896Y-9397984D01*
X12905896Y-9397984D02*
X12867801Y-9397984D01*
X12867801Y-9397984D02*
X12848753Y-9388460D01*
X12848753Y-9388460D02*
X12839230Y-9369412D01*
X12839230Y-9369412D02*
X12839230Y-9293222D01*
X12839230Y-9293222D02*
X12848753Y-9274174D01*
X12848753Y-9274174D02*
X12867801Y-9264650D01*
X12867801Y-9264650D02*
X12905896Y-9264650D01*
X12905896Y-9264650D02*
X12924944Y-9274174D01*
X12924944Y-9274174D02*
X12934468Y-9293222D01*
X12934468Y-9293222D02*
X12934468Y-9312270D01*
X12934468Y-9312270D02*
X12839230Y-9331317D01*
X13010658Y-9388460D02*
X13029706Y-9397984D01*
X13029706Y-9397984D02*
X13067801Y-9397984D01*
X13067801Y-9397984D02*
X13086849Y-9388460D01*
X13086849Y-9388460D02*
X13096372Y-9369412D01*
X13096372Y-9369412D02*
X13096372Y-9359889D01*
X13096372Y-9359889D02*
X13086849Y-9340841D01*
X13086849Y-9340841D02*
X13067801Y-9331317D01*
X13067801Y-9331317D02*
X13039230Y-9331317D01*
X13039230Y-9331317D02*
X13020182Y-9321793D01*
X13020182Y-9321793D02*
X13010658Y-9302746D01*
X13010658Y-9302746D02*
X13010658Y-9293222D01*
X13010658Y-9293222D02*
X13020182Y-9274174D01*
X13020182Y-9274174D02*
X13039230Y-9264650D01*
X13039230Y-9264650D02*
X13067801Y-9264650D01*
X13067801Y-9264650D02*
X13086849Y-9274174D01*
X13163039Y-9474174D02*
X13172563Y-9464650D01*
X13172563Y-9464650D02*
X13191611Y-9436079D01*
X13191611Y-9436079D02*
X13201134Y-9417031D01*
X13201134Y-9417031D02*
X13210658Y-9388460D01*
X13210658Y-9388460D02*
X13220182Y-9340841D01*
X13220182Y-9340841D02*
X13220182Y-9302746D01*
X13220182Y-9302746D02*
X13210658Y-9255127D01*
X13210658Y-9255127D02*
X13201134Y-9226555D01*
X13201134Y-9226555D02*
X13191611Y-9207508D01*
X13191611Y-9207508D02*
X13172563Y-9178936D01*
X13172563Y-9178936D02*
X13163039Y-9169412D01*
D13*
X8132500Y-9505500D02*
X8132500Y-9635500D01*
X8067500Y-9570500D02*
X8197500Y-9570500D01*
D11*
X8563039Y-9661984D02*
X8448753Y-9661984D01*
X8505896Y-9661984D02*
X8505896Y-9461984D01*
X8505896Y-9461984D02*
X8486848Y-9490555D01*
X8486848Y-9490555D02*
X8467801Y-9509603D01*
X8467801Y-9509603D02*
X8448753Y-9519127D01*
X8648753Y-9642936D02*
X8658277Y-9652460D01*
X8658277Y-9652460D02*
X8648753Y-9661984D01*
X8648753Y-9661984D02*
X8639229Y-9652460D01*
X8639229Y-9652460D02*
X8648753Y-9642936D01*
X8648753Y-9642936D02*
X8648753Y-9661984D01*
X8724944Y-9461984D02*
X8848753Y-9461984D01*
X8848753Y-9461984D02*
X8782086Y-9538174D01*
X8782086Y-9538174D02*
X8810658Y-9538174D01*
X8810658Y-9538174D02*
X8829705Y-9547698D01*
X8829705Y-9547698D02*
X8839229Y-9557222D01*
X8839229Y-9557222D02*
X8848753Y-9576270D01*
X8848753Y-9576270D02*
X8848753Y-9623889D01*
X8848753Y-9623889D02*
X8839229Y-9642936D01*
X8839229Y-9642936D02*
X8829705Y-9652460D01*
X8829705Y-9652460D02*
X8810658Y-9661984D01*
X8810658Y-9661984D02*
X8753515Y-9661984D01*
X8753515Y-9661984D02*
X8734467Y-9652460D01*
X8734467Y-9652460D02*
X8724944Y-9642936D01*
X8972563Y-9461984D02*
X8991610Y-9461984D01*
X8991610Y-9461984D02*
X9010658Y-9471508D01*
X9010658Y-9471508D02*
X9020182Y-9481031D01*
X9020182Y-9481031D02*
X9029705Y-9500079D01*
X9029705Y-9500079D02*
X9039229Y-9538174D01*
X9039229Y-9538174D02*
X9039229Y-9585793D01*
X9039229Y-9585793D02*
X9029705Y-9623889D01*
X9029705Y-9623889D02*
X9020182Y-9642936D01*
X9020182Y-9642936D02*
X9010658Y-9652460D01*
X9010658Y-9652460D02*
X8991610Y-9661984D01*
X8991610Y-9661984D02*
X8972563Y-9661984D01*
X8972563Y-9661984D02*
X8953515Y-9652460D01*
X8953515Y-9652460D02*
X8943991Y-9642936D01*
X8943991Y-9642936D02*
X8934467Y-9623889D01*
X8934467Y-9623889D02*
X8924944Y-9585793D01*
X8924944Y-9585793D02*
X8924944Y-9538174D01*
X8924944Y-9538174D02*
X8934467Y-9500079D01*
X8934467Y-9500079D02*
X8943991Y-9481031D01*
X8943991Y-9481031D02*
X8953515Y-9471508D01*
X8953515Y-9471508D02*
X8972563Y-9461984D01*
X9163039Y-9461984D02*
X9182086Y-9461984D01*
X9182086Y-9461984D02*
X9201134Y-9471508D01*
X9201134Y-9471508D02*
X9210658Y-9481031D01*
X9210658Y-9481031D02*
X9220182Y-9500079D01*
X9220182Y-9500079D02*
X9229705Y-9538174D01*
X9229705Y-9538174D02*
X9229705Y-9585793D01*
X9229705Y-9585793D02*
X9220182Y-9623889D01*
X9220182Y-9623889D02*
X9210658Y-9642936D01*
X9210658Y-9642936D02*
X9201134Y-9652460D01*
X9201134Y-9652460D02*
X9182086Y-9661984D01*
X9182086Y-9661984D02*
X9163039Y-9661984D01*
X9163039Y-9661984D02*
X9143991Y-9652460D01*
X9143991Y-9652460D02*
X9134467Y-9642936D01*
X9134467Y-9642936D02*
X9124944Y-9623889D01*
X9124944Y-9623889D02*
X9115420Y-9585793D01*
X9115420Y-9585793D02*
X9115420Y-9538174D01*
X9115420Y-9538174D02*
X9124944Y-9500079D01*
X9124944Y-9500079D02*
X9134467Y-9481031D01*
X9134467Y-9481031D02*
X9143991Y-9471508D01*
X9143991Y-9471508D02*
X9163039Y-9461984D01*
X9315420Y-9661984D02*
X9315420Y-9528650D01*
X9315420Y-9547698D02*
X9324944Y-9538174D01*
X9324944Y-9538174D02*
X9343991Y-9528650D01*
X9343991Y-9528650D02*
X9372563Y-9528650D01*
X9372563Y-9528650D02*
X9391610Y-9538174D01*
X9391610Y-9538174D02*
X9401134Y-9557222D01*
X9401134Y-9557222D02*
X9401134Y-9661984D01*
X9401134Y-9557222D02*
X9410658Y-9538174D01*
X9410658Y-9538174D02*
X9429705Y-9528650D01*
X9429705Y-9528650D02*
X9458277Y-9528650D01*
X9458277Y-9528650D02*
X9477325Y-9538174D01*
X9477325Y-9538174D02*
X9486848Y-9557222D01*
X9486848Y-9557222D02*
X9486848Y-9661984D01*
X9582086Y-9661984D02*
X9582086Y-9528650D01*
X9582086Y-9547698D02*
X9591610Y-9538174D01*
X9591610Y-9538174D02*
X9610658Y-9528650D01*
X9610658Y-9528650D02*
X9639229Y-9528650D01*
X9639229Y-9528650D02*
X9658277Y-9538174D01*
X9658277Y-9538174D02*
X9667801Y-9557222D01*
X9667801Y-9557222D02*
X9667801Y-9661984D01*
X9667801Y-9557222D02*
X9677325Y-9538174D01*
X9677325Y-9538174D02*
X9696372Y-9528650D01*
X9696372Y-9528650D02*
X9724944Y-9528650D01*
X9724944Y-9528650D02*
X9743991Y-9538174D01*
X9743991Y-9538174D02*
X9753515Y-9557222D01*
X9753515Y-9557222D02*
X9753515Y-9661984D01*
X10143991Y-9452460D02*
X9972563Y-9709603D01*
X10401134Y-9461984D02*
X10420182Y-9461984D01*
X10420182Y-9461984D02*
X10439229Y-9471508D01*
X10439229Y-9471508D02*
X10448753Y-9481031D01*
X10448753Y-9481031D02*
X10458277Y-9500079D01*
X10458277Y-9500079D02*
X10467801Y-9538174D01*
X10467801Y-9538174D02*
X10467801Y-9585793D01*
X10467801Y-9585793D02*
X10458277Y-9623889D01*
X10458277Y-9623889D02*
X10448753Y-9642936D01*
X10448753Y-9642936D02*
X10439229Y-9652460D01*
X10439229Y-9652460D02*
X10420182Y-9661984D01*
X10420182Y-9661984D02*
X10401134Y-9661984D01*
X10401134Y-9661984D02*
X10382087Y-9652460D01*
X10382087Y-9652460D02*
X10372563Y-9642936D01*
X10372563Y-9642936D02*
X10363039Y-9623889D01*
X10363039Y-9623889D02*
X10353515Y-9585793D01*
X10353515Y-9585793D02*
X10353515Y-9538174D01*
X10353515Y-9538174D02*
X10363039Y-9500079D01*
X10363039Y-9500079D02*
X10372563Y-9481031D01*
X10372563Y-9481031D02*
X10382087Y-9471508D01*
X10382087Y-9471508D02*
X10401134Y-9461984D01*
X10553515Y-9642936D02*
X10563039Y-9652460D01*
X10563039Y-9652460D02*
X10553515Y-9661984D01*
X10553515Y-9661984D02*
X10543991Y-9652460D01*
X10543991Y-9652460D02*
X10553515Y-9642936D01*
X10553515Y-9642936D02*
X10553515Y-9661984D01*
X10686848Y-9461984D02*
X10705896Y-9461984D01*
X10705896Y-9461984D02*
X10724944Y-9471508D01*
X10724944Y-9471508D02*
X10734468Y-9481031D01*
X10734468Y-9481031D02*
X10743991Y-9500079D01*
X10743991Y-9500079D02*
X10753515Y-9538174D01*
X10753515Y-9538174D02*
X10753515Y-9585793D01*
X10753515Y-9585793D02*
X10743991Y-9623889D01*
X10743991Y-9623889D02*
X10734468Y-9642936D01*
X10734468Y-9642936D02*
X10724944Y-9652460D01*
X10724944Y-9652460D02*
X10705896Y-9661984D01*
X10705896Y-9661984D02*
X10686848Y-9661984D01*
X10686848Y-9661984D02*
X10667801Y-9652460D01*
X10667801Y-9652460D02*
X10658277Y-9642936D01*
X10658277Y-9642936D02*
X10648753Y-9623889D01*
X10648753Y-9623889D02*
X10639229Y-9585793D01*
X10639229Y-9585793D02*
X10639229Y-9538174D01*
X10639229Y-9538174D02*
X10648753Y-9500079D01*
X10648753Y-9500079D02*
X10658277Y-9481031D01*
X10658277Y-9481031D02*
X10667801Y-9471508D01*
X10667801Y-9471508D02*
X10686848Y-9461984D01*
X10934468Y-9461984D02*
X10839229Y-9461984D01*
X10839229Y-9461984D02*
X10829706Y-9557222D01*
X10829706Y-9557222D02*
X10839229Y-9547698D01*
X10839229Y-9547698D02*
X10858277Y-9538174D01*
X10858277Y-9538174D02*
X10905896Y-9538174D01*
X10905896Y-9538174D02*
X10924944Y-9547698D01*
X10924944Y-9547698D02*
X10934468Y-9557222D01*
X10934468Y-9557222D02*
X10943991Y-9576270D01*
X10943991Y-9576270D02*
X10943991Y-9623889D01*
X10943991Y-9623889D02*
X10934468Y-9642936D01*
X10934468Y-9642936D02*
X10924944Y-9652460D01*
X10924944Y-9652460D02*
X10905896Y-9661984D01*
X10905896Y-9661984D02*
X10858277Y-9661984D01*
X10858277Y-9661984D02*
X10839229Y-9652460D01*
X10839229Y-9652460D02*
X10829706Y-9642936D01*
X11134468Y-9661984D02*
X11020182Y-9661984D01*
X11077325Y-9661984D02*
X11077325Y-9461984D01*
X11077325Y-9461984D02*
X11058277Y-9490555D01*
X11058277Y-9490555D02*
X11039229Y-9509603D01*
X11039229Y-9509603D02*
X11020182Y-9519127D01*
X11210658Y-9481031D02*
X11220182Y-9471508D01*
X11220182Y-9471508D02*
X11239229Y-9461984D01*
X11239229Y-9461984D02*
X11286848Y-9461984D01*
X11286848Y-9461984D02*
X11305896Y-9471508D01*
X11305896Y-9471508D02*
X11315420Y-9481031D01*
X11315420Y-9481031D02*
X11324944Y-9500079D01*
X11324944Y-9500079D02*
X11324944Y-9519127D01*
X11324944Y-9519127D02*
X11315420Y-9547698D01*
X11315420Y-9547698D02*
X11201134Y-9661984D01*
X11201134Y-9661984D02*
X11324944Y-9661984D01*
X11401134Y-9461984D02*
X11401134Y-9500079D01*
X11477325Y-9461984D02*
X11477325Y-9500079D01*
X11772563Y-9738174D02*
X11763039Y-9728650D01*
X11763039Y-9728650D02*
X11743991Y-9700079D01*
X11743991Y-9700079D02*
X11734468Y-9681031D01*
X11734468Y-9681031D02*
X11724944Y-9652460D01*
X11724944Y-9652460D02*
X11715420Y-9604841D01*
X11715420Y-9604841D02*
X11715420Y-9566746D01*
X11715420Y-9566746D02*
X11724944Y-9519127D01*
X11724944Y-9519127D02*
X11734468Y-9490555D01*
X11734468Y-9490555D02*
X11743991Y-9471508D01*
X11743991Y-9471508D02*
X11763039Y-9442936D01*
X11763039Y-9442936D02*
X11772563Y-9433412D01*
X11877325Y-9547698D02*
X11858277Y-9538174D01*
X11858277Y-9538174D02*
X11848753Y-9528650D01*
X11848753Y-9528650D02*
X11839229Y-9509603D01*
X11839229Y-9509603D02*
X11839229Y-9500079D01*
X11839229Y-9500079D02*
X11848753Y-9481031D01*
X11848753Y-9481031D02*
X11858277Y-9471508D01*
X11858277Y-9471508D02*
X11877325Y-9461984D01*
X11877325Y-9461984D02*
X11915420Y-9461984D01*
X11915420Y-9461984D02*
X11934468Y-9471508D01*
X11934468Y-9471508D02*
X11943991Y-9481031D01*
X11943991Y-9481031D02*
X11953515Y-9500079D01*
X11953515Y-9500079D02*
X11953515Y-9509603D01*
X11953515Y-9509603D02*
X11943991Y-9528650D01*
X11943991Y-9528650D02*
X11934468Y-9538174D01*
X11934468Y-9538174D02*
X11915420Y-9547698D01*
X11915420Y-9547698D02*
X11877325Y-9547698D01*
X11877325Y-9547698D02*
X11858277Y-9557222D01*
X11858277Y-9557222D02*
X11848753Y-9566746D01*
X11848753Y-9566746D02*
X11839229Y-9585793D01*
X11839229Y-9585793D02*
X11839229Y-9623889D01*
X11839229Y-9623889D02*
X11848753Y-9642936D01*
X11848753Y-9642936D02*
X11858277Y-9652460D01*
X11858277Y-9652460D02*
X11877325Y-9661984D01*
X11877325Y-9661984D02*
X11915420Y-9661984D01*
X11915420Y-9661984D02*
X11934468Y-9652460D01*
X11934468Y-9652460D02*
X11943991Y-9642936D01*
X11943991Y-9642936D02*
X11953515Y-9623889D01*
X11953515Y-9623889D02*
X11953515Y-9585793D01*
X11953515Y-9585793D02*
X11943991Y-9566746D01*
X11943991Y-9566746D02*
X11934468Y-9557222D01*
X11934468Y-9557222D02*
X11915420Y-9547698D01*
X12191610Y-9661984D02*
X12191610Y-9461984D01*
X12277325Y-9661984D02*
X12277325Y-9557222D01*
X12277325Y-9557222D02*
X12267801Y-9538174D01*
X12267801Y-9538174D02*
X12248753Y-9528650D01*
X12248753Y-9528650D02*
X12220182Y-9528650D01*
X12220182Y-9528650D02*
X12201134Y-9538174D01*
X12201134Y-9538174D02*
X12191610Y-9547698D01*
X12401134Y-9661984D02*
X12382087Y-9652460D01*
X12382087Y-9652460D02*
X12372563Y-9642936D01*
X12372563Y-9642936D02*
X12363039Y-9623889D01*
X12363039Y-9623889D02*
X12363039Y-9566746D01*
X12363039Y-9566746D02*
X12372563Y-9547698D01*
X12372563Y-9547698D02*
X12382087Y-9538174D01*
X12382087Y-9538174D02*
X12401134Y-9528650D01*
X12401134Y-9528650D02*
X12429706Y-9528650D01*
X12429706Y-9528650D02*
X12448753Y-9538174D01*
X12448753Y-9538174D02*
X12458277Y-9547698D01*
X12458277Y-9547698D02*
X12467801Y-9566746D01*
X12467801Y-9566746D02*
X12467801Y-9623889D01*
X12467801Y-9623889D02*
X12458277Y-9642936D01*
X12458277Y-9642936D02*
X12448753Y-9652460D01*
X12448753Y-9652460D02*
X12429706Y-9661984D01*
X12429706Y-9661984D02*
X12401134Y-9661984D01*
X12582087Y-9661984D02*
X12563039Y-9652460D01*
X12563039Y-9652460D02*
X12553515Y-9633412D01*
X12553515Y-9633412D02*
X12553515Y-9461984D01*
X12734468Y-9652460D02*
X12715420Y-9661984D01*
X12715420Y-9661984D02*
X12677325Y-9661984D01*
X12677325Y-9661984D02*
X12658277Y-9652460D01*
X12658277Y-9652460D02*
X12648753Y-9633412D01*
X12648753Y-9633412D02*
X12648753Y-9557222D01*
X12648753Y-9557222D02*
X12658277Y-9538174D01*
X12658277Y-9538174D02*
X12677325Y-9528650D01*
X12677325Y-9528650D02*
X12715420Y-9528650D01*
X12715420Y-9528650D02*
X12734468Y-9538174D01*
X12734468Y-9538174D02*
X12743991Y-9557222D01*
X12743991Y-9557222D02*
X12743991Y-9576270D01*
X12743991Y-9576270D02*
X12648753Y-9595317D01*
X12820182Y-9652460D02*
X12839230Y-9661984D01*
X12839230Y-9661984D02*
X12877325Y-9661984D01*
X12877325Y-9661984D02*
X12896372Y-9652460D01*
X12896372Y-9652460D02*
X12905896Y-9633412D01*
X12905896Y-9633412D02*
X12905896Y-9623889D01*
X12905896Y-9623889D02*
X12896372Y-9604841D01*
X12896372Y-9604841D02*
X12877325Y-9595317D01*
X12877325Y-9595317D02*
X12848753Y-9595317D01*
X12848753Y-9595317D02*
X12829706Y-9585793D01*
X12829706Y-9585793D02*
X12820182Y-9566746D01*
X12820182Y-9566746D02*
X12820182Y-9557222D01*
X12820182Y-9557222D02*
X12829706Y-9538174D01*
X12829706Y-9538174D02*
X12848753Y-9528650D01*
X12848753Y-9528650D02*
X12877325Y-9528650D01*
X12877325Y-9528650D02*
X12896372Y-9538174D01*
X12972563Y-9738174D02*
X12982087Y-9728650D01*
X12982087Y-9728650D02*
X13001134Y-9700079D01*
X13001134Y-9700079D02*
X13010658Y-9681031D01*
X13010658Y-9681031D02*
X13020182Y-9652460D01*
X13020182Y-9652460D02*
X13029706Y-9604841D01*
X13029706Y-9604841D02*
X13029706Y-9566746D01*
X13029706Y-9566746D02*
X13020182Y-9519127D01*
X13020182Y-9519127D02*
X13010658Y-9490555D01*
X13010658Y-9490555D02*
X13001134Y-9471508D01*
X13001134Y-9471508D02*
X12982087Y-9442936D01*
X12982087Y-9442936D02*
X12972563Y-9433412D01*
M02*
